<?xml version="1.0" encoding="UTF-8" standalone="no"?>
<!DOCTYPE svg PUBLIC "-//W3C//DTD SVG 1.1//EN"
 "http://www.w3.org/Graphics/SVG/1.1/DTD/svg11.dtd">
<!-- Generated by graphviz version 2.43.0 (0)
 -->
<!-- Title: Source/AboutComponent.h Pages: 1 -->
<svg width="720pt" height="82pt"
 viewBox="0.00 0.00 720.00 82.00" xmlns="http://www.w3.org/2000/svg" xmlns:xlink="http://www.w3.org/1999/xlink">
<g id="graph0" class="graph" transform="scale(1 1) rotate(0) translate(4 78)">
<title>Source/AboutComponent.h</title>
<!-- Node1 -->
<g id="Node000001" class="node">
<title>Node1</title>
<g id="a_Node000001"><a xlink:title=" ">
<polygon fill="#999999" stroke="#666666" points="428,-74 282,-74 282,-55 428,-55 428,-74"/>
<text text-anchor="middle" x="355" y="-62" font-family="Helvetica,sans-Serif" font-size="10.00">Source/AboutComponent.h</text>
</a>
</g>
</g>
<!-- Node2 -->
<g id="Node000002" class="node">
<title>Node2</title>
<g id="a_Node000002"><a xlink:href="MemaMo_2MainComponent_8cpp.html" target="_top" xlink:title=" ">
<polygon fill="white" stroke="#666666" points="166,-19 0,-19 0,0 166,0 166,-19"/>
<text text-anchor="middle" x="83" y="-7" font-family="Helvetica,sans-Serif" font-size="10.00">MemaMo/MainComponent.cpp</text>
</a>
</g>
</g>
<!-- Node1&#45;&gt;Node2 -->
<g id="edge1_Node000001_Node000002" class="edge">
<title>Node1&#45;&gt;Node2</title>
<g id="a_edge1_Node000001_Node000002"><a xlink:title=" ">
<path fill="none" stroke="#63b8ff" d="M301.45,-53.07C250.45,-43.13 174.63,-28.35 127.04,-19.08"/>
<polygon fill="#63b8ff" stroke="#63b8ff" points="300.81,-56.51 311.3,-54.98 302.15,-49.64 300.81,-56.51"/>
</a>
</g>
</g>
<!-- Node3 -->
<g id="Node000003" class="node">
<title>Node3</title>
<g id="a_Node000003"><a xlink:href="MemaRe_2MainComponent_8cpp.html" target="_top" xlink:title=" ">
<polygon fill="white" stroke="#666666" points="348,-19 184,-19 184,0 348,0 348,-19"/>
<text text-anchor="middle" x="266" y="-7" font-family="Helvetica,sans-Serif" font-size="10.00">MemaRe/MainComponent.cpp</text>
</a>
</g>
</g>
<!-- Node1&#45;&gt;Node3 -->
<g id="edge2_Node000001_Node000003" class="edge">
<title>Node1&#45;&gt;Node3</title>
<g id="a_edge2_Node000001_Node000003"><a xlink:title=" ">
<path fill="none" stroke="#63b8ff" d="M331.82,-49.7C315.61,-40.04 294.45,-27.44 280.56,-19.17"/>
<polygon fill="#63b8ff" stroke="#63b8ff" points="330.32,-52.88 340.7,-54.98 333.9,-46.86 330.32,-52.88"/>
</a>
</g>
</g>
<!-- Node4 -->
<g id="Node000004" class="node">
<title>Node4</title>
<g id="a_Node000004"><a xlink:href="AboutComponent_8cpp.html" target="_top" xlink:title=" ">
<polygon fill="white" stroke="#666666" points="524,-19 366,-19 366,0 524,0 524,-19"/>
<text text-anchor="middle" x="445" y="-7" font-family="Helvetica,sans-Serif" font-size="10.00">Source/AboutComponent.cpp</text>
</a>
</g>
</g>
<!-- Node1&#45;&gt;Node4 -->
<g id="edge3_Node000001_Node000004" class="edge">
<title>Node1&#45;&gt;Node4</title>
<g id="a_edge3_Node000001_Node000004"><a xlink:title=" ">
<path fill="none" stroke="#63b8ff" d="M378.44,-49.7C394.84,-40.04 416.23,-27.44 430.28,-19.17"/>
<polygon fill="#63b8ff" stroke="#63b8ff" points="376.3,-46.89 369.46,-54.98 379.85,-52.93 376.3,-46.89"/>
</a>
</g>
</g>
<!-- Node5 -->
<g id="Node000005" class="node">
<title>Node5</title>
<g id="a_Node000005"><a xlink:href="MemaUIComponent_8cpp.html" target="_top" xlink:title=" ">
<polygon fill="white" stroke="#666666" points="712,-19 542,-19 542,0 712,0 712,-19"/>
<text text-anchor="middle" x="627" y="-7" font-family="Helvetica,sans-Serif" font-size="10.00">Source/MemaUIComponent.cpp</text>
</a>
</g>
</g>
<!-- Node1&#45;&gt;Node5 -->
<g id="edge4_Node000001_Node000005" class="edge">
<title>Node1&#45;&gt;Node5</title>
<g id="a_edge4_Node000001_Node000005"><a xlink:title=" ">
<path fill="none" stroke="#63b8ff" d="M408.55,-53.07C459.55,-43.13 535.37,-28.35 582.96,-19.08"/>
<polygon fill="#63b8ff" stroke="#63b8ff" points="407.85,-49.64 398.7,-54.98 409.19,-56.51 407.85,-49.64"/>
</a>
</g>
</g>
</g>
</svg>
