<?xml version="1.0" encoding="UTF-8" standalone="no"?>
<!DOCTYPE svg PUBLIC "-//W3C//DTD SVG 1.1//EN"
 "http://www.w3.org/Graphics/SVG/1.1/DTD/svg11.dtd">
<!-- Generated by graphviz version 2.43.0 (0)
 -->
<!-- Title: Source/MemaProcessor/AbstractProcessorData.h Pages: 1 -->
<!--zoomable 434 -->

<svg id="main" version="1.1" xmlns="http://www.w3.org/2000/svg" xmlns:xlink="http://www.w3.org/1999/xlink" xml:space="preserve" onload="init(evt)">
<style type="text/css"><![CDATA[
.node, .edge {opacity: 0.7;}
.node.selected, .edge.selected {opacity: 1;}
.edge:hover path { stroke: red; }
.edge:hover polygon { stroke: red; fill: red; }
]]></style>

<defs>
  <circle id="rim" cx="0" cy="0" r="7"/>
  <circle id="rim2" cx="0" cy="0" r="3.5"/>
  <g id="zoomPlus">
    <use xlink:href="#rim" fill="#404040"><set attributeName="fill" to="#808080" begin="zoomplus.mouseover" end="zoomplus.mouseout"/></use>
    <path d="M-4,0h8M0,-4v8" fill="none" stroke="white" stroke-width="1.5" pointer-events="none"/>
  </g>
  <g id="zoomMin">
    <use xlink:href="#rim" fill="#404040"><set attributeName="fill" to="#808080" begin="zoomminus.mouseover" end="zoomminus.mouseout"/></use>
    <path d="M-4,0h8" fill="none" stroke="white" stroke-width="1.5" pointer-events="none"/>
  </g>
  <g id="arrowUp" transform="translate(30 24)">
    <use xlink:href="#rim"/>
    <path pointer-events="none" fill="none" stroke="white" stroke-width="1.5" d="M0,-3.0v7 M-2.5,-0.5L0,-3.0L2.5,-0.5"/>
  </g>
  <g id="arrowRight" transform="rotate(90) translate(36 -43)">
    <use xlink:href="#rim"/>
    <path pointer-events="none" fill="none" stroke="white" stroke-width="1.5" d="M0,-3.0v7 M-2.5,-0.5L0,-3.0L2.5,-0.5"/>
  </g>
  <g id="arrowDown" transform="rotate(180) translate(-30 -48)">
    <use xlink:href="#rim"/>
    <path pointer-events="none" fill="none" stroke="white" stroke-width="1.5" d="M0,-3.0v7 M-2.5,-0.5L0,-3.0L2.5,-0.5"/>
  </g>
  <g id="arrowLeft" transform="rotate(270) translate(-36 17)">
    <use xlink:href="#rim"/>
    <path pointer-events="none" fill="none" stroke="white" stroke-width="1.5" d="M0,-3.0v7 M-2.5,-0.5L0,-3.0L2.5,-0.5"/>
  </g>
  <g id="resetDef">
    <use xlink:href="#rim2" fill="#404040"><set attributeName="fill" to="#808080" begin="reset.mouseover" end="reset.mouseout"/></use>
  </g>
</defs>
<script type="application/ecmascript">
var viewWidth = 1933;
var viewHeight = 434;
var sectionId = 'dynsection-1';
</script>
<script type="application/ecmascript" xlink:href="svg.min.js"/>
<svg id="graph" class="graph">
<g id="viewport">
<title>Source/MemaProcessor/AbstractProcessorData.h</title>
<!-- Node1 -->
<g id="Node000001" class="node">
<title>Node1</title>
<g id="a_Node000001"><a xlink:title=" ">
<polygon fill="#999999" stroke="#666666" points="956.5,-426 816.5,-426 816.5,-396 956.5,-396 956.5,-426"/>
<text text-anchor="start" x="824.5" y="-414" font-family="Helvetica,sans-Serif" font-size="10.00">Source/MemaProcessor</text>
<text text-anchor="middle" x="886.5" y="-403" font-family="Helvetica,sans-Serif" font-size="10.00">/AbstractProcessorData.h</text>
</a>
</g>
</g>
<!-- Node2 -->
<g id="Node000002" class="node">
<title>Node2</title>
<g id="a_Node000002"><a xlink:href="AbstractProcessorData_8cpp.html" target="_top" xlink:title=" ">
<polygon fill="white" stroke="#666666" points="709,-360 558,-360 558,-330 709,-330 709,-360"/>
<text text-anchor="start" x="566" y="-348" font-family="Helvetica,sans-Serif" font-size="10.00">Source/MemaProcessor</text>
<text text-anchor="middle" x="633.5" y="-337" font-family="Helvetica,sans-Serif" font-size="10.00">/AbstractProcessorData.cpp</text>
</a>
</g>
</g>
<!-- Node1&#45;&gt;Node2 -->
<g id="edge1_Node000001_Node000002" class="edge">
<title>Node1&#45;&gt;Node2</title>
<g id="a_edge1_Node000001_Node000002"><a xlink:title=" ">
<path fill="none" stroke="#63b8ff" d="M821.08,-393.45C780.09,-383.08 727.83,-369.86 688.89,-360.01"/>
<polygon fill="#63b8ff" stroke="#63b8ff" points="820.43,-396.9 830.98,-395.95 822.14,-390.11 820.43,-396.9"/>
</a>
</g>
</g>
<!-- Node3 -->
<g id="Node000003" class="node">
<title>Node3</title>
<g id="a_Node000003"><a xlink:href="ProcessorAudioSignalData_8h.html" target="_top" xlink:title=" ">
<polygon fill="white" stroke="#666666" points="884,-360 727,-360 727,-330 884,-330 884,-360"/>
<text text-anchor="start" x="735" y="-348" font-family="Helvetica,sans-Serif" font-size="10.00">Source/MemaProcessor</text>
<text text-anchor="middle" x="805.5" y="-337" font-family="Helvetica,sans-Serif" font-size="10.00">/ProcessorAudioSignalData.h</text>
</a>
</g>
</g>
<!-- Node1&#45;&gt;Node3 -->
<g id="edge2_Node000001_Node000003" class="edge">
<title>Node1&#45;&gt;Node3</title>
<g id="a_edge2_Node000001_Node000003"><a xlink:title=" ">
<path fill="none" stroke="#63b8ff" d="M860.53,-389.48C848.42,-379.91 834.32,-368.77 823.43,-360.16"/>
<polygon fill="#63b8ff" stroke="#63b8ff" points="858.51,-392.34 868.52,-395.8 862.85,-386.85 858.51,-392.34"/>
</a>
</g>
</g>
<!-- Node34 -->
<g id="Node000034" class="node">
<title>Node34</title>
<g id="a_Node000034"><a xlink:href="ProcessorLevelData_8h.html" target="_top" xlink:title=" ">
<polygon fill="white" stroke="#666666" points="1033,-360 902,-360 902,-330 1033,-330 1033,-360"/>
<text text-anchor="start" x="910" y="-348" font-family="Helvetica,sans-Serif" font-size="10.00">Source/MemaProcessor</text>
<text text-anchor="middle" x="967.5" y="-337" font-family="Helvetica,sans-Serif" font-size="10.00">/ProcessorLevelData.h</text>
</a>
</g>
</g>
<!-- Node1&#45;&gt;Node34 -->
<g id="edge44_Node000001_Node000034" class="edge">
<title>Node1&#45;&gt;Node34</title>
<g id="a_edge44_Node000001_Node000034"><a xlink:title=" ">
<path fill="none" stroke="#63b8ff" d="M912.47,-389.48C924.58,-379.91 938.68,-368.77 949.57,-360.16"/>
<polygon fill="#63b8ff" stroke="#63b8ff" points="910.15,-386.85 904.48,-395.8 914.49,-392.34 910.15,-386.85"/>
</a>
</g>
</g>
<!-- Node36 -->
<g id="Node000036" class="node">
<title>Node36</title>
<g id="a_Node000036"><a xlink:href="ProcessorSpectrumData_8h.html" target="_top" xlink:title=" ">
<polygon fill="white" stroke="#666666" points="1197.5,-360 1051.5,-360 1051.5,-330 1197.5,-330 1197.5,-360"/>
<text text-anchor="start" x="1059.5" y="-348" font-family="Helvetica,sans-Serif" font-size="10.00">Source/MemaProcessor</text>
<text text-anchor="middle" x="1124.5" y="-337" font-family="Helvetica,sans-Serif" font-size="10.00">/ProcessorSpectrumData.h</text>
</a>
</g>
</g>
<!-- Node1&#45;&gt;Node36 -->
<g id="edge47_Node000001_Node000036" class="edge">
<title>Node1&#45;&gt;Node36</title>
<g id="a_edge47_Node000001_Node000036"><a xlink:title=" ">
<path fill="none" stroke="#63b8ff" d="M948.78,-393.25C987.23,-382.91 1035.99,-369.8 1072.39,-360.01"/>
<polygon fill="#63b8ff" stroke="#63b8ff" points="947.48,-389.98 938.73,-395.95 949.3,-396.74 947.48,-389.98"/>
</a>
</g>
</g>
<!-- Node4 -->
<g id="Node000004" class="node">
<title>Node4</title>
<g id="a_Node000004"><a xlink:href="ProcessorAudioSignalData_8cpp.html" target="_top" xlink:title=" ">
<polygon fill="white" stroke="#666666" points="799.5,-294 631.5,-294 631.5,-264 799.5,-264 799.5,-294"/>
<text text-anchor="start" x="639.5" y="-282" font-family="Helvetica,sans-Serif" font-size="10.00">Source/MemaProcessor</text>
<text text-anchor="middle" x="715.5" y="-271" font-family="Helvetica,sans-Serif" font-size="10.00">/ProcessorAudioSignalData.cpp</text>
</a>
</g>
</g>
<!-- Node3&#45;&gt;Node4 -->
<g id="edge3_Node000003_Node000004" class="edge">
<title>Node3&#45;&gt;Node4</title>
<g id="a_edge3_Node000003_Node000004"><a xlink:title=" ">
<path fill="none" stroke="#63b8ff" d="M777.03,-323.75C763.49,-314.13 747.64,-302.86 735.42,-294.16"/>
<polygon fill="#63b8ff" stroke="#63b8ff" points="775.35,-326.85 785.53,-329.8 779.4,-321.15 775.35,-326.85"/>
</a>
</g>
</g>
<!-- Node5 -->
<g id="Node000005" class="node">
<title>Node5</title>
<g id="a_Node000005"><a xlink:href="ProcessorDataAnalyzer_8h.html" target="_top" xlink:title=" ">
<polygon fill="white" stroke="#666666" points="959,-294 818,-294 818,-264 959,-264 959,-294"/>
<text text-anchor="start" x="826" y="-282" font-family="Helvetica,sans-Serif" font-size="10.00">Source/MemaProcessor</text>
<text text-anchor="middle" x="888.5" y="-271" font-family="Helvetica,sans-Serif" font-size="10.00">/ProcessorDataAnalyzer.h</text>
</a>
</g>
</g>
<!-- Node3&#45;&gt;Node5 -->
<g id="edge4_Node000003_Node000005" class="edge">
<title>Node3&#45;&gt;Node5</title>
<g id="a_edge4_Node000003_Node000005"><a xlink:title=" ">
<path fill="none" stroke="#63b8ff" d="M832.11,-323.48C844.52,-313.91 858.97,-302.77 870.13,-294.16"/>
<polygon fill="#63b8ff" stroke="#63b8ff" points="829.7,-320.92 823.92,-329.8 833.98,-326.46 829.7,-320.92"/>
</a>
</g>
</g>
<!-- Node6 -->
<g id="Node000006" class="node">
<title>Node6</title>
<g id="a_Node000006"><a xlink:href="MemaMoComponent_8cpp.html" target="_top" xlink:title=" ">
<polygon fill="white" stroke="#666666" points="385.5,-24.5 197.5,-24.5 197.5,-5.5 385.5,-5.5 385.5,-24.5"/>
<text text-anchor="middle" x="291.5" y="-12.5" font-family="Helvetica,sans-Serif" font-size="10.00">MemaMo/MemaMoComponent.cpp</text>
</a>
</g>
</g>
<!-- Node5&#45;&gt;Node6 -->
<g id="edge5_Node000005_Node000006" class="edge">
<title>Node5&#45;&gt;Node6</title>
<g id="a_edge5_Node000005_Node000006"><a xlink:title=" ">
<path fill="none" stroke="#63b8ff" d="M807.8,-263.98C538.52,-225.92 438.97,-297.18 208.5,-162 165.5,-136.78 121.74,-106.72 150.5,-66 166.16,-43.83 192.53,-31.43 218.26,-24.52"/>
<polygon fill="#63b8ff" stroke="#63b8ff" points="807.46,-267.46 817.86,-265.44 808.47,-260.54 807.46,-267.46"/>
</a>
</g>
</g>
<!-- Node7 -->
<g id="Node000007" class="node">
<title>Node7</title>
<g id="a_Node000007"><a xlink:href="FaderbankControlComponent_8cpp.html" target="_top" xlink:title=" ">
<polygon fill="white" stroke="#666666" points="707.5,-228 525.5,-228 525.5,-198 707.5,-198 707.5,-228"/>
<text text-anchor="start" x="533.5" y="-216" font-family="Helvetica,sans-Serif" font-size="10.00">Source/MemaClientCommon</text>
<text text-anchor="middle" x="616.5" y="-205" font-family="Helvetica,sans-Serif" font-size="10.00">/FaderbankControlComponent.cpp</text>
</a>
</g>
</g>
<!-- Node5&#45;&gt;Node7 -->
<g id="edge6_Node000005_Node000007" class="edge">
<title>Node5&#45;&gt;Node7</title>
<g id="a_edge6_Node000005_Node000007"><a xlink:title=" ">
<path fill="none" stroke="#63b8ff" d="M819.01,-261.65C774.81,-251.25 718.18,-237.93 676.05,-228.01"/>
<polygon fill="#63b8ff" stroke="#63b8ff" points="818.27,-265.07 828.81,-263.95 819.88,-258.26 818.27,-265.07"/>
</a>
</g>
</g>
<!-- Node8 -->
<g id="Node000008" class="node">
<title>Node8</title>
<g id="a_Node000008"><a xlink:href="MemaClientCommon_2PluginControlComponent_8cpp.html" target="_top" xlink:title=" ">
<polygon fill="white" stroke="#666666" points="887,-228 726,-228 726,-198 887,-198 887,-228"/>
<text text-anchor="start" x="734" y="-216" font-family="Helvetica,sans-Serif" font-size="10.00">Source/MemaClientCommon</text>
<text text-anchor="middle" x="806.5" y="-205" font-family="Helvetica,sans-Serif" font-size="10.00">/PluginControlComponent.cpp</text>
</a>
</g>
</g>
<!-- Node5&#45;&gt;Node8 -->
<g id="edge7_Node000005_Node000008" class="edge">
<title>Node5&#45;&gt;Node8</title>
<g id="a_edge7_Node000005_Node000008"><a xlink:title=" ">
<path fill="none" stroke="#63b8ff" d="M862.21,-257.48C849.95,-247.91 835.68,-236.77 824.65,-228.16"/>
<polygon fill="#63b8ff" stroke="#63b8ff" points="860.26,-260.4 870.3,-263.8 864.57,-254.88 860.26,-260.4"/>
</a>
</g>
</g>
<!-- Node9 -->
<g id="Node000009" class="node">
<title>Node9</title>
<g id="a_Node000009"><a xlink:href="MemaProcessor_8h.html" target="_top" xlink:title=" ">
<polygon fill="white" stroke="#666666" points="1036,-228 905,-228 905,-198 1036,-198 1036,-228"/>
<text text-anchor="start" x="913" y="-216" font-family="Helvetica,sans-Serif" font-size="10.00">Source/MemaProcessor</text>
<text text-anchor="middle" x="970.5" y="-205" font-family="Helvetica,sans-Serif" font-size="10.00">/MemaProcessor.h</text>
</a>
</g>
</g>
<!-- Node5&#45;&gt;Node9 -->
<g id="edge8_Node000005_Node000009" class="edge">
<title>Node5&#45;&gt;Node9</title>
<g id="a_edge8_Node000005_Node000009"><a xlink:title=" ">
<path fill="none" stroke="#63b8ff" d="M914.79,-257.48C927.05,-247.91 941.32,-236.77 952.35,-228.16"/>
<polygon fill="#63b8ff" stroke="#63b8ff" points="912.43,-254.88 906.7,-263.8 916.74,-260.4 912.43,-254.88"/>
</a>
</g>
</g>
<!-- Node31 -->
<g id="Node000031" class="node">
<title>Node31</title>
<g id="a_Node000031"><a xlink:href="ProcessorDataAnalyzer_8cpp.html" target="_top" xlink:title=" ">
<polygon fill="white" stroke="#666666" points="1206.5,-228 1054.5,-228 1054.5,-198 1206.5,-198 1206.5,-228"/>
<text text-anchor="start" x="1062.5" y="-216" font-family="Helvetica,sans-Serif" font-size="10.00">Source/MemaProcessor</text>
<text text-anchor="middle" x="1130.5" y="-205" font-family="Helvetica,sans-Serif" font-size="10.00">/ProcessorDataAnalyzer.cpp</text>
</a>
</g>
</g>
<!-- Node5&#45;&gt;Node31 -->
<g id="edge40_Node000005_Node000031" class="edge">
<title>Node5&#45;&gt;Node31</title>
<g id="a_edge40_Node000005_Node000031"><a xlink:title=" ">
<path fill="none" stroke="#63b8ff" d="M951.32,-261.39C990.5,-251.03 1040.35,-237.84 1077.52,-228.01"/>
<polygon fill="#63b8ff" stroke="#63b8ff" points="950.38,-258.01 941.61,-263.95 952.17,-264.78 950.38,-258.01"/>
</a>
</g>
</g>
<!-- Node32 -->
<g id="Node000032" class="node">
<title>Node32</title>
<g id="a_Node000032"><a xlink:href="CrosspointsControlComponent_8h.html" target="_top" xlink:title=" ">
<polygon fill="white" stroke="#666666" points="1595,-228 1418,-228 1418,-198 1595,-198 1595,-228"/>
<text text-anchor="start" x="1426" y="-216" font-family="Helvetica,sans-Serif" font-size="10.00">Source/MemaProcessorEditor</text>
<text text-anchor="middle" x="1506.5" y="-205" font-family="Helvetica,sans-Serif" font-size="10.00">/CrosspointsControlComponent.h</text>
</a>
</g>
</g>
<!-- Node5&#45;&gt;Node32 -->
<g id="edge41_Node000005_Node000032" class="edge">
<title>Node5&#45;&gt;Node32</title>
<g id="a_edge41_Node000005_Node000032"><a xlink:title=" ">
<path fill="none" stroke="#63b8ff" d="M969.42,-263.95C1133.64,-242.31 1313.05,-227.68 1417.72,-220.05"/>
<polygon fill="#63b8ff" stroke="#63b8ff" points="968.57,-260.54 959.12,-265.32 969.5,-267.47 968.57,-260.54"/>
</a>
</g>
</g>
<!-- Node9&#45;&gt;Node6 -->
<g id="edge9_Node000009_Node000006" class="edge">
<title>Node9&#45;&gt;Node6</title>
<g id="a_edge9_Node000009_Node000006"><a xlink:title=" ">
<path fill="none" stroke="#63b8ff" d="M894.68,-197.87C716.23,-173.14 267.73,-217.99 161.5,-96 131.13,-61.13 202.57,-36.62 251.13,-24.56"/>
<polygon fill="#63b8ff" stroke="#63b8ff" points="894.35,-201.36 904.76,-199.39 895.4,-194.44 894.35,-201.36"/>
</a>
</g>
</g>
<!-- Node10 -->
<g id="Node000010" class="node">
<title>Node10</title>
<g id="a_Node000010"><a xlink:href="MemaReComponent_8cpp.html" target="_top" xlink:title=" ">
<polygon fill="white" stroke="#666666" points="1251,-156.5 1068,-156.5 1068,-137.5 1251,-137.5 1251,-156.5"/>
<text text-anchor="middle" x="1159.5" y="-144.5" font-family="Helvetica,sans-Serif" font-size="10.00">MemaRe/MemaReComponent.cpp</text>
</a>
</g>
</g>
<!-- Node9&#45;&gt;Node10 -->
<g id="edge10_Node000009_Node000010" class="edge">
<title>Node9&#45;&gt;Node10</title>
<g id="a_edge10_Node000009_Node000010"><a xlink:title=" ">
<path fill="none" stroke="#63b8ff" d="M1021.48,-194.74C1058.02,-182.36 1105.66,-166.23 1134.35,-156.52"/>
<polygon fill="#63b8ff" stroke="#63b8ff" points="1020.33,-191.43 1011.98,-197.95 1022.57,-198.06 1020.33,-191.43"/>
</a>
</g>
</g>
<!-- Node11 -->
<g id="Node000011" class="node">
<title>Node11</title>
<g id="a_Node000011"><a xlink:href="Mema_8cpp.html" target="_top" xlink:title=" ">
<polygon fill="white" stroke="#666666" points="1373.5,-156.5 1269.5,-156.5 1269.5,-137.5 1373.5,-137.5 1373.5,-156.5"/>
<text text-anchor="middle" x="1321.5" y="-144.5" font-family="Helvetica,sans-Serif" font-size="10.00">Source/Mema.cpp</text>
</a>
</g>
</g>
<!-- Node9&#45;&gt;Node11 -->
<g id="edge11_Node000009_Node000011" class="edge">
<title>Node9&#45;&gt;Node11</title>
<g id="a_edge11_Node000009_Node000011"><a xlink:title=" ">
<path fill="none" stroke="#63b8ff" d="M1046.2,-197.9C1142.56,-181.07 1168.53,-180.24 1260.5,-162 1268.81,-160.35 1277.72,-158.41 1286.1,-156.5"/>
<polygon fill="#63b8ff" stroke="#63b8ff" points="1045.58,-194.46 1036.34,-199.64 1046.79,-201.35 1045.58,-194.46"/>
</a>
</g>
</g>
<!-- Node12 -->
<g id="Node000012" class="node">
<title>Node12</title>
<g id="a_Node000012"><a xlink:href="MemaProcessor_8cpp.html" target="_top" xlink:title=" ">
<polygon fill="white" stroke="#666666" points="873,-162 742,-162 742,-132 873,-132 873,-162"/>
<text text-anchor="start" x="750" y="-150" font-family="Helvetica,sans-Serif" font-size="10.00">Source/MemaProcessor</text>
<text text-anchor="middle" x="807.5" y="-139" font-family="Helvetica,sans-Serif" font-size="10.00">/MemaProcessor.cpp</text>
</a>
</g>
</g>
<!-- Node9&#45;&gt;Node12 -->
<g id="edge12_Node000009_Node000012" class="edge">
<title>Node9&#45;&gt;Node12</title>
<g id="a_edge12_Node000009_Node000012"><a xlink:title=" ">
<path fill="none" stroke="#63b8ff" d="M925.14,-194.19C899.25,-184.02 867.27,-171.47 843.19,-162.01"/>
<polygon fill="#63b8ff" stroke="#63b8ff" points="924.14,-197.56 934.73,-197.95 926.7,-191.04 924.14,-197.56"/>
</a>
</g>
</g>
<!-- Node13 -->
<g id="Node000013" class="node">
<title>Node13</title>
<g id="a_Node000013"><a xlink:href="AbstractAudioVisualizer_8h.html" target="_top" xlink:title=" ">
<polygon fill="white" stroke="#666666" points="1050,-162 891,-162 891,-132 1050,-132 1050,-162"/>
<text text-anchor="start" x="899" y="-150" font-family="Helvetica,sans-Serif" font-size="10.00">Source/MemaProcessorEditor</text>
<text text-anchor="middle" x="970.5" y="-139" font-family="Helvetica,sans-Serif" font-size="10.00">/AbstractAudioVisualizer.h</text>
</a>
</g>
</g>
<!-- Node9&#45;&gt;Node13 -->
<g id="edge13_Node000009_Node000013" class="edge">
<title>Node9&#45;&gt;Node13</title>
<g id="a_edge13_Node000009_Node000013"><a xlink:title=" ">
<path fill="none" stroke="#63b8ff" d="M970.5,-187.54C970.5,-178.96 970.5,-169.61 970.5,-162.16"/>
<polygon fill="#63b8ff" stroke="#63b8ff" points="967,-187.8 970.5,-197.8 974,-187.8 967,-187.8"/>
</a>
</g>
</g>
<!-- Node14 -->
<g id="Node000014" class="node">
<title>Node14</title>
<g id="a_Node000014"><a xlink:href="SpectrumAudioComponent_8h.html" target="_top" xlink:title=" ">
<polygon fill="white" stroke="#666666" points="873,-96 714,-96 714,-66 873,-66 873,-96"/>
<text text-anchor="start" x="722" y="-84" font-family="Helvetica,sans-Serif" font-size="10.00">Source/MemaClientCommon</text>
<text text-anchor="middle" x="793.5" y="-73" font-family="Helvetica,sans-Serif" font-size="10.00">/SpectrumAudioComponent.h</text>
</a>
</g>
</g>
<!-- Node13&#45;&gt;Node14 -->
<g id="edge14_Node000013_Node000014" class="edge">
<title>Node13&#45;&gt;Node14</title>
<g id="a_edge14_Node000013_Node000014"><a xlink:title=" ">
<path fill="none" stroke="#63b8ff" d="M921.98,-128.46C893.74,-118.25 858.63,-105.55 832.25,-96.01"/>
<polygon fill="#63b8ff" stroke="#63b8ff" points="921.06,-131.85 931.66,-131.95 923.44,-125.26 921.06,-131.85"/>
</a>
</g>
</g>
<!-- Node16 -->
<g id="Node000016" class="node">
<title>Node16</title>
<g id="a_Node000016"><a xlink:href="TwoDFieldMultisliderComponent_8h.html" target="_top" xlink:title=" ">
<polygon fill="white" stroke="#666666" points="1720.5,-96 1534.5,-96 1534.5,-66 1720.5,-66 1720.5,-96"/>
<text text-anchor="start" x="1542.5" y="-84" font-family="Helvetica,sans-Serif" font-size="10.00">Source/MemaClientCommon</text>
<text text-anchor="middle" x="1627.5" y="-73" font-family="Helvetica,sans-Serif" font-size="10.00">/TwoDFieldMultisliderComponent.h</text>
</a>
</g>
</g>
<!-- Node13&#45;&gt;Node16 -->
<g id="edge17_Node000013_Node000016" class="edge">
<title>Node13&#45;&gt;Node16</title>
<g id="a_edge17_Node000013_Node000016"><a xlink:title=" ">
<path fill="none" stroke="#63b8ff" d="M1060.13,-131.99C1251.16,-109.27 1301.23,-113.29 1488.5,-96 1503.35,-94.63 1519.09,-93.11 1534.43,-91.59"/>
<polygon fill="#63b8ff" stroke="#63b8ff" points="1059.55,-128.53 1050.04,-133.2 1060.38,-135.48 1059.55,-128.53"/>
</a>
</g>
</g>
<!-- Node19 -->
<g id="Node000019" class="node">
<title>Node19</title>
<g id="a_Node000019"><a xlink:href="TwoDFieldOutputComponent_8h.html" target="_top" xlink:title=" ">
<polygon fill="white" stroke="#666666" points="338,-96 171,-96 171,-66 338,-66 338,-96"/>
<text text-anchor="start" x="179" y="-84" font-family="Helvetica,sans-Serif" font-size="10.00">Source/MemaClientCommon</text>
<text text-anchor="middle" x="254.5" y="-73" font-family="Helvetica,sans-Serif" font-size="10.00">/TwoDFieldOutputComponent.h</text>
</a>
</g>
</g>
<!-- Node13&#45;&gt;Node19 -->
<g id="edge20_Node000013_Node000019" class="edge">
<title>Node13&#45;&gt;Node19</title>
<g id="a_edge20_Node000013_Node000019"><a xlink:title=" ">
<path fill="none" stroke="#63b8ff" d="M880.94,-131.89C643.54,-105.67 580.6,-121.63 346.5,-96 343.77,-95.7 341,-95.38 338.2,-95.04"/>
<polygon fill="#63b8ff" stroke="#63b8ff" points="880.59,-135.37 890.92,-133.01 881.37,-128.42 880.59,-135.37"/>
</a>
</g>
</g>
<!-- Node21 -->
<g id="Node000021" class="node">
<title>Node21</title>
<g id="a_Node000021"><a xlink:href="WaveformAudioComponent_8h.html" target="_top" xlink:title=" ">
<polygon fill="white" stroke="#666666" points="519,-96 356,-96 356,-66 519,-66 519,-96"/>
<text text-anchor="start" x="364" y="-84" font-family="Helvetica,sans-Serif" font-size="10.00">Source/MemaClientCommon</text>
<text text-anchor="middle" x="437.5" y="-73" font-family="Helvetica,sans-Serif" font-size="10.00">/WaveformAudioComponent.h</text>
</a>
</g>
</g>
<!-- Node13&#45;&gt;Node21 -->
<g id="edge23_Node000013_Node000021" class="edge">
<title>Node13&#45;&gt;Node21</title>
<g id="a_edge23_Node000013_Node000021"><a xlink:title=" ">
<path fill="none" stroke="#63b8ff" d="M880.87,-131.83C723.53,-111.71 681.57,-115.78 527.5,-96 524.83,-95.66 522.12,-95.3 519.39,-94.93"/>
<polygon fill="#63b8ff" stroke="#63b8ff" points="880.54,-135.32 890.9,-133.13 881.43,-128.38 880.54,-135.32"/>
</a>
</g>
</g>
<!-- Node23 -->
<g id="Node000023" class="node">
<title>Node23</title>
<g id="a_Node000023"><a xlink:href="AbstractAudioVisualizer_8cpp.html" target="_top" xlink:title=" ">
<polygon fill="white" stroke="#666666" points="696,-96 537,-96 537,-66 696,-66 696,-96"/>
<text text-anchor="start" x="545" y="-84" font-family="Helvetica,sans-Serif" font-size="10.00">Source/MemaProcessorEditor</text>
<text text-anchor="middle" x="616.5" y="-73" font-family="Helvetica,sans-Serif" font-size="10.00">/AbstractAudioVisualizer.cpp</text>
</a>
</g>
</g>
<!-- Node13&#45;&gt;Node23 -->
<g id="edge26_Node000013_Node000023" class="edge">
<title>Node13&#45;&gt;Node23</title>
<g id="a_edge26_Node000013_Node000023"><a xlink:title=" ">
<path fill="none" stroke="#63b8ff" d="M882.94,-130.17C825.02,-119.7 749.76,-106.09 694.01,-96.01"/>
<polygon fill="#63b8ff" stroke="#63b8ff" points="882.35,-133.62 892.81,-131.95 883.6,-126.73 882.35,-133.62"/>
</a>
</g>
</g>
<!-- Node24 -->
<g id="Node000024" class="node">
<title>Node24</title>
<g id="a_Node000024"><a xlink:href="InputControlComponent_8cpp.html" target="_top" xlink:title=" ">
<polygon fill="white" stroke="#666666" points="1157,-30 998,-30 998,0 1157,0 1157,-30"/>
<text text-anchor="start" x="1006" y="-18" font-family="Helvetica,sans-Serif" font-size="10.00">Source/MemaProcessorEditor</text>
<text text-anchor="middle" x="1077.5" y="-7" font-family="Helvetica,sans-Serif" font-size="10.00">/InputControlComponent.cpp</text>
</a>
</g>
</g>
<!-- Node13&#45;&gt;Node24 -->
<g id="edge27_Node000013_Node000024" class="edge">
<title>Node13&#45;&gt;Node24</title>
<g id="a_edge27_Node000013_Node000024"><a xlink:title=" ">
<path fill="none" stroke="#63b8ff" d="M1020.17,-127.42C1034.78,-119.74 1049.51,-109.42 1059.5,-96 1074.04,-76.48 1077.19,-47.34 1077.67,-30.14"/>
<polygon fill="#63b8ff" stroke="#63b8ff" points="1018.56,-124.32 1011.13,-131.87 1021.65,-130.6 1018.56,-124.32"/>
</a>
</g>
</g>
<!-- Node25 -->
<g id="Node000025" class="node">
<title>Node25</title>
<g id="a_Node000025"><a xlink:href="InputControlComponent_8h.html" target="_top" xlink:title=" ">
<polygon fill="white" stroke="#666666" points="1302,-96 1143,-96 1143,-66 1302,-66 1302,-96"/>
<text text-anchor="start" x="1151" y="-84" font-family="Helvetica,sans-Serif" font-size="10.00">Source/MemaProcessorEditor</text>
<text text-anchor="middle" x="1222.5" y="-73" font-family="Helvetica,sans-Serif" font-size="10.00">/InputControlComponent.h</text>
</a>
</g>
</g>
<!-- Node13&#45;&gt;Node25 -->
<g id="edge28_Node000013_Node000025" class="edge">
<title>Node13&#45;&gt;Node25</title>
<g id="a_edge28_Node000013_Node000025"><a xlink:title=" ">
<path fill="none" stroke="#63b8ff" d="M1035.66,-129.45C1076.49,-119.08 1128.54,-105.86 1167.33,-96.01"/>
<polygon fill="#63b8ff" stroke="#63b8ff" points="1034.63,-126.1 1025.8,-131.95 1036.36,-132.89 1034.63,-126.1"/>
</a>
</g>
</g>
<!-- Node27 -->
<g id="Node000027" class="node">
<title>Node27</title>
<g id="a_Node000027"><a xlink:href="MeterbridgeComponent_8h.html" target="_top" xlink:title=" ">
<polygon fill="white" stroke="#666666" points="1050,-96 891,-96 891,-66 1050,-66 1050,-96"/>
<text text-anchor="start" x="899" y="-84" font-family="Helvetica,sans-Serif" font-size="10.00">Source/MemaProcessorEditor</text>
<text text-anchor="middle" x="970.5" y="-73" font-family="Helvetica,sans-Serif" font-size="10.00">/MeterbridgeComponent.h</text>
</a>
</g>
</g>
<!-- Node13&#45;&gt;Node27 -->
<g id="edge31_Node000013_Node000027" class="edge">
<title>Node13&#45;&gt;Node27</title>
<g id="a_edge31_Node000013_Node000027"><a xlink:title=" ">
<path fill="none" stroke="#63b8ff" d="M970.5,-121.54C970.5,-112.96 970.5,-103.61 970.5,-96.16"/>
<polygon fill="#63b8ff" stroke="#63b8ff" points="967,-121.8 970.5,-131.8 974,-121.8 967,-121.8"/>
</a>
</g>
</g>
<!-- Node29 -->
<g id="Node000029" class="node">
<title>Node29</title>
<g id="a_Node000029"><a xlink:href="OutputControlComponent_8cpp.html" target="_top" xlink:title=" ">
<polygon fill="white" stroke="#666666" points="1339.5,-30 1175.5,-30 1175.5,0 1339.5,0 1339.5,-30"/>
<text text-anchor="start" x="1183.5" y="-18" font-family="Helvetica,sans-Serif" font-size="10.00">Source/MemaProcessorEditor</text>
<text text-anchor="middle" x="1257.5" y="-7" font-family="Helvetica,sans-Serif" font-size="10.00">/OutputControlComponent.cpp</text>
</a>
</g>
</g>
<!-- Node13&#45;&gt;Node29 -->
<g id="edge36_Node000013_Node000029" class="edge">
<title>Node13&#45;&gt;Node29</title>
<g id="a_edge36_Node000013_Node000029"><a xlink:title=" ">
<path fill="none" stroke="#63b8ff" d="M1012.09,-127.74C1032.55,-118.55 1057.49,-107.04 1079.5,-96 1104.39,-83.52 1109.34,-77.93 1134.5,-66 1162.62,-52.67 1195.29,-39.49 1219.89,-30.02"/>
<polygon fill="#63b8ff" stroke="#63b8ff" points="1010.43,-124.64 1002.73,-131.92 1013.29,-131.03 1010.43,-124.64"/>
</a>
</g>
</g>
<!-- Node30 -->
<g id="Node000030" class="node">
<title>Node30</title>
<g id="a_Node000030"><a xlink:href="OutputControlComponent_8h.html" target="_top" xlink:title=" ">
<polygon fill="white" stroke="#666666" points="1479,-96 1320,-96 1320,-66 1479,-66 1479,-96"/>
<text text-anchor="start" x="1328" y="-84" font-family="Helvetica,sans-Serif" font-size="10.00">Source/MemaProcessorEditor</text>
<text text-anchor="middle" x="1399.5" y="-73" font-family="Helvetica,sans-Serif" font-size="10.00">/OutputControlComponent.h</text>
</a>
</g>
</g>
<!-- Node13&#45;&gt;Node30 -->
<g id="edge37_Node000013_Node000030" class="edge">
<title>Node13&#45;&gt;Node30</title>
<g id="a_edge37_Node000013_Node000030"><a xlink:title=" ">
<path fill="none" stroke="#63b8ff" d="M1060.16,-131.92C1173.05,-115.07 1202.8,-112.41 1311.5,-96 1314.25,-95.58 1317.05,-95.16 1319.88,-94.72"/>
<polygon fill="#63b8ff" stroke="#63b8ff" points="1059.44,-128.48 1050.07,-133.43 1060.48,-135.41 1059.44,-128.48"/>
</a>
</g>
</g>
<!-- Node14&#45;&gt;Node6 -->
<g id="edge15_Node000014_Node000006" class="edge">
<title>Node14&#45;&gt;Node6</title>
<g id="a_edge15_Node000014_Node000006"><a xlink:title=" ">
<path fill="none" stroke="#63b8ff" d="M703.8,-65.94C565.38,-47.22 528.89,-46.93 394.5,-30 380.98,-28.3 366.48,-26.38 352.75,-24.52"/>
<polygon fill="#63b8ff" stroke="#63b8ff" points="703.57,-69.44 713.95,-67.32 704.51,-62.51 703.57,-69.44"/>
</a>
</g>
</g>
<!-- Node15 -->
<g id="Node000015" class="node">
<title>Node15</title>
<g id="a_Node000015"><a xlink:href="SpectrumAudioComponent_8cpp.html" target="_top" xlink:title=" ">
<polygon fill="white" stroke="#666666" points="802.5,-30 632.5,-30 632.5,0 802.5,0 802.5,-30"/>
<text text-anchor="start" x="640.5" y="-18" font-family="Helvetica,sans-Serif" font-size="10.00">Source/MemaClientCommon</text>
<text text-anchor="middle" x="717.5" y="-7" font-family="Helvetica,sans-Serif" font-size="10.00">/SpectrumAudioComponent.cpp</text>
</a>
</g>
</g>
<!-- Node14&#45;&gt;Node15 -->
<g id="edge16_Node000014_Node000015" class="edge">
<title>Node14&#45;&gt;Node15</title>
<g id="a_edge16_Node000014_Node000015"><a xlink:title=" ">
<path fill="none" stroke="#63b8ff" d="M768.8,-59.2C757.52,-49.7 744.45,-38.69 734.32,-30.16"/>
<polygon fill="#63b8ff" stroke="#63b8ff" points="766.73,-62.03 776.63,-65.8 771.24,-56.68 766.73,-62.03"/>
</a>
</g>
</g>
<!-- Node17 -->
<g id="Node000017" class="node">
<title>Node17</title>
<g id="a_Node000017"><a xlink:href="PanningControlComponent_8cpp.html" target="_top" xlink:title=" ">
<polygon fill="white" stroke="#666666" points="1709.5,-30 1539.5,-30 1539.5,0 1709.5,0 1709.5,-30"/>
<text text-anchor="start" x="1547.5" y="-18" font-family="Helvetica,sans-Serif" font-size="10.00">Source/MemaClientCommon</text>
<text text-anchor="middle" x="1624.5" y="-7" font-family="Helvetica,sans-Serif" font-size="10.00">/PanningControlComponent.cpp</text>
</a>
</g>
</g>
<!-- Node16&#45;&gt;Node17 -->
<g id="edge18_Node000016_Node000017" class="edge">
<title>Node16&#45;&gt;Node17</title>
<g id="a_edge18_Node000016_Node000017"><a xlink:title=" ">
<path fill="none" stroke="#63b8ff" d="M1626.35,-55.54C1625.95,-46.96 1625.51,-37.61 1625.16,-30.16"/>
<polygon fill="#63b8ff" stroke="#63b8ff" points="1622.87,-55.97 1626.83,-65.8 1629.86,-55.64 1622.87,-55.97"/>
</a>
</g>
</g>
<!-- Node18 -->
<g id="Node000018" class="node">
<title>Node18</title>
<g id="a_Node000018"><a xlink:href="TwoDFieldMultisliderComponent_8cpp.html" target="_top" xlink:title=" ">
<polygon fill="white" stroke="#666666" points="1925,-30 1728,-30 1728,0 1925,0 1925,-30"/>
<text text-anchor="start" x="1736" y="-18" font-family="Helvetica,sans-Serif" font-size="10.00">Source/MemaClientCommon</text>
<text text-anchor="middle" x="1826.5" y="-7" font-family="Helvetica,sans-Serif" font-size="10.00">/TwoDFieldMultisliderComponent.cpp</text>
</a>
</g>
</g>
<!-- Node16&#45;&gt;Node18 -->
<g id="edge19_Node000016_Node000018" class="edge">
<title>Node16&#45;&gt;Node18</title>
<g id="a_edge19_Node000016_Node000018"><a xlink:title=" ">
<path fill="none" stroke="#63b8ff" d="M1680.81,-62.86C1712.76,-52.58 1752.88,-39.68 1782.93,-30.01"/>
<polygon fill="#63b8ff" stroke="#63b8ff" points="1679.62,-59.56 1671.17,-65.95 1681.76,-66.23 1679.62,-59.56"/>
</a>
</g>
</g>
<!-- Node19&#45;&gt;Node6 -->
<g id="edge21_Node000019_Node000006" class="edge">
<title>Node19&#45;&gt;Node6</title>
<g id="a_edge21_Node000019_Node000006"><a xlink:title=" ">
<path fill="none" stroke="#63b8ff" d="M267.83,-56.95C274.26,-45.81 281.61,-33.11 286.39,-24.84"/>
<polygon fill="#63b8ff" stroke="#63b8ff" points="264.69,-55.39 262.71,-65.8 270.75,-58.89 264.69,-55.39"/>
</a>
</g>
</g>
<!-- Node20 -->
<g id="Node000020" class="node">
<title>Node20</title>
<g id="a_Node000020"><a xlink:href="TwoDFieldOutputComponent_8cpp.html" target="_top" xlink:title=" ">
<polygon fill="white" stroke="#666666" points="179,-30 0,-30 0,0 179,0 179,-30"/>
<text text-anchor="start" x="8" y="-18" font-family="Helvetica,sans-Serif" font-size="10.00">Source/MemaClientCommon</text>
<text text-anchor="middle" x="89.5" y="-7" font-family="Helvetica,sans-Serif" font-size="10.00">/TwoDFieldOutputComponent.cpp</text>
</a>
</g>
</g>
<!-- Node19&#45;&gt;Node20 -->
<g id="edge22_Node000019_Node000020" class="edge">
<title>Node19&#45;&gt;Node20</title>
<g id="a_edge22_Node000019_Node000020"><a xlink:title=" ">
<path fill="none" stroke="#63b8ff" d="M208.93,-62.32C182.66,-52.14 150.11,-39.51 125.63,-30.01"/>
<polygon fill="#63b8ff" stroke="#63b8ff" points="207.7,-65.6 218.29,-65.95 210.23,-59.08 207.7,-65.6"/>
</a>
</g>
</g>
<!-- Node21&#45;&gt;Node6 -->
<g id="edge24_Node000021_Node000006" class="edge">
<title>Node21&#45;&gt;Node6</title>
<g id="a_edge24_Node000021_Node000006"><a xlink:title=" ">
<path fill="none" stroke="#63b8ff" d="M395.94,-61.78C368.02,-49.54 332.52,-33.98 310.93,-24.52"/>
<polygon fill="#63b8ff" stroke="#63b8ff" points="394.9,-65.15 405.46,-65.95 397.71,-58.73 394.9,-65.15"/>
</a>
</g>
</g>
<!-- Node22 -->
<g id="Node000022" class="node">
<title>Node22</title>
<g id="a_Node000022"><a xlink:href="WaveformAudioComponent_8cpp.html" target="_top" xlink:title=" ">
<polygon fill="white" stroke="#666666" points="577.5,-30 403.5,-30 403.5,0 577.5,0 577.5,-30"/>
<text text-anchor="start" x="411.5" y="-18" font-family="Helvetica,sans-Serif" font-size="10.00">Source/MemaClientCommon</text>
<text text-anchor="middle" x="490.5" y="-7" font-family="Helvetica,sans-Serif" font-size="10.00">/WaveformAudioComponent.cpp</text>
</a>
</g>
</g>
<!-- Node21&#45;&gt;Node22 -->
<g id="edge25_Node000021_Node000022" class="edge">
<title>Node21&#45;&gt;Node22</title>
<g id="a_edge25_Node000021_Node000022"><a xlink:title=" ">
<path fill="none" stroke="#63b8ff" d="M455.65,-58.09C463.3,-48.85 471.98,-38.36 478.77,-30.16"/>
<polygon fill="#63b8ff" stroke="#63b8ff" points="452.94,-55.86 449.26,-65.8 458.34,-60.33 452.94,-55.86"/>
</a>
</g>
</g>
<!-- Node25&#45;&gt;Node24 -->
<g id="edge29_Node000025_Node000024" class="edge">
<title>Node25&#45;&gt;Node24</title>
<g id="a_edge29_Node000025_Node000024"><a xlink:title=" ">
<path fill="none" stroke="#63b8ff" d="M1181.23,-61.78C1158.37,-51.69 1130.38,-39.34 1109.25,-30.01"/>
<polygon fill="#63b8ff" stroke="#63b8ff" points="1180.12,-65.12 1190.68,-65.95 1182.94,-58.71 1180.12,-65.12"/>
</a>
</g>
</g>
<!-- Node26 -->
<g id="Node000026" class="node">
<title>Node26</title>
<g id="a_Node000026"><a xlink:href="MemaProcessorEditor_8cpp.html" target="_top" xlink:title=" ">
<polygon fill="white" stroke="#666666" points="1517,-30 1358,-30 1358,0 1517,0 1517,-30"/>
<text text-anchor="start" x="1366" y="-18" font-family="Helvetica,sans-Serif" font-size="10.00">Source/MemaProcessorEditor</text>
<text text-anchor="middle" x="1437.5" y="-7" font-family="Helvetica,sans-Serif" font-size="10.00">/MemaProcessorEditor.cpp</text>
</a>
</g>
</g>
<!-- Node25&#45;&gt;Node26 -->
<g id="edge30_Node000025_Node000026" class="edge">
<title>Node25&#45;&gt;Node26</title>
<g id="a_edge30_Node000025_Node000026"><a xlink:title=" ">
<path fill="none" stroke="#63b8ff" d="M1279.65,-62.99C1314.24,-52.69 1357.83,-39.72 1390.43,-30.01"/>
<polygon fill="#63b8ff" stroke="#63b8ff" points="1278.27,-59.75 1269.68,-65.95 1280.27,-66.46 1278.27,-59.75"/>
</a>
</g>
</g>
<!-- Node27&#45;&gt;Node6 -->
<g id="edge32_Node000027_Node000006" class="edge">
<title>Node27&#45;&gt;Node6</title>
<g id="a_edge32_Node000027_Node000006"><a xlink:title=" ">
<path fill="none" stroke="#63b8ff" d="M880.86,-66C664.18,-41.46 607.09,-52.28 394.5,-30 379.87,-28.47 364.12,-26.49 349.44,-24.51"/>
<polygon fill="#63b8ff" stroke="#63b8ff" points="880.63,-69.5 890.97,-67.16 881.43,-62.54 880.63,-69.5"/>
</a>
</g>
</g>
<!-- Node27&#45;&gt;Node24 -->
<g id="edge33_Node000027_Node000024" class="edge">
<title>Node27&#45;&gt;Node24</title>
<g id="a_edge33_Node000027_Node000024"><a xlink:title=" ">
<path fill="none" stroke="#63b8ff" d="M1002.78,-60.69C1019.29,-50.82 1039.03,-39.01 1054.07,-30.01"/>
<polygon fill="#63b8ff" stroke="#63b8ff" points="1000.77,-57.82 993.98,-65.95 1004.36,-63.83 1000.77,-57.82"/>
</a>
</g>
</g>
<!-- Node28 -->
<g id="Node000028" class="node">
<title>Node28</title>
<g id="a_Node000028"><a xlink:href="MeterbridgeComponent_8cpp.html" target="_top" xlink:title=" ">
<polygon fill="white" stroke="#666666" points="980,-30 821,-30 821,0 980,0 980,-30"/>
<text text-anchor="start" x="829" y="-18" font-family="Helvetica,sans-Serif" font-size="10.00">Source/MemaProcessorEditor</text>
<text text-anchor="middle" x="900.5" y="-7" font-family="Helvetica,sans-Serif" font-size="10.00">/MeterbridgeComponent.cpp</text>
</a>
</g>
</g>
<!-- Node27&#45;&gt;Node28 -->
<g id="edge34_Node000027_Node000028" class="edge">
<title>Node27&#45;&gt;Node28</title>
<g id="a_edge34_Node000027_Node000028"><a xlink:title=" ">
<path fill="none" stroke="#63b8ff" d="M947.45,-58.92C937.13,-49.49 925.23,-38.61 915.99,-30.16"/>
<polygon fill="#63b8ff" stroke="#63b8ff" points="945.22,-61.63 954.96,-65.8 949.95,-56.47 945.22,-61.63"/>
</a>
</g>
</g>
<!-- Node27&#45;&gt;Node29 -->
<g id="edge35_Node000027_Node000029" class="edge">
<title>Node27&#45;&gt;Node29</title>
<g id="a_edge35_Node000027_Node000029"><a xlink:title=" ">
<path fill="none" stroke="#63b8ff" d="M1043.53,-63.71C1090.21,-53.31 1150.12,-39.95 1194.66,-30.01"/>
<polygon fill="#63b8ff" stroke="#63b8ff" points="1042.48,-60.36 1033.48,-65.95 1044.01,-67.19 1042.48,-60.36"/>
</a>
</g>
</g>
<!-- Node30&#45;&gt;Node26 -->
<g id="edge38_Node000030_Node000026" class="edge">
<title>Node30&#45;&gt;Node26</title>
<g id="a_edge38_Node000030_Node000026"><a xlink:title=" ">
<path fill="none" stroke="#63b8ff" d="M1413.18,-56.96C1418.5,-48 1424.42,-38.03 1429.09,-30.16"/>
<polygon fill="#63b8ff" stroke="#63b8ff" points="1410.03,-55.41 1407.93,-65.8 1416.05,-58.98 1410.03,-55.41"/>
</a>
</g>
</g>
<!-- Node30&#45;&gt;Node29 -->
<g id="edge39_Node000030_Node000029" class="edge">
<title>Node30&#45;&gt;Node29</title>
<g id="a_edge39_Node000030_Node000029"><a xlink:title=" ">
<path fill="none" stroke="#63b8ff" d="M1359.08,-61.78C1336.7,-51.69 1309.29,-39.34 1288.59,-30.01"/>
<polygon fill="#63b8ff" stroke="#63b8ff" points="1357.78,-65.04 1368.34,-65.95 1360.66,-58.65 1357.78,-65.04"/>
</a>
</g>
</g>
<!-- Node32&#45;&gt;Node26 -->
<g id="edge43_Node000032_Node000026" class="edge">
<title>Node32&#45;&gt;Node26</title>
<g id="a_edge43_Node000032_Node000026"><a xlink:title=" ">
<path fill="none" stroke="#63b8ff" d="M1508.25,-187.82C1509.4,-157.68 1507.95,-105.36 1488.5,-66 1481.41,-51.66 1468.52,-39.08 1457.47,-30.12"/>
<polygon fill="#63b8ff" stroke="#63b8ff" points="1504.75,-187.69 1507.73,-197.85 1511.74,-188.05 1504.75,-187.69"/>
</a>
</g>
</g>
<!-- Node33 -->
<g id="Node000033" class="node">
<title>Node33</title>
<g id="a_Node000033"><a xlink:href="CrosspointsControlComponent_8cpp.html" target="_top" xlink:title=" ">
<polygon fill="white" stroke="#666666" points="1722.5,-162 1534.5,-162 1534.5,-132 1722.5,-132 1722.5,-162"/>
<text text-anchor="start" x="1542.5" y="-150" font-family="Helvetica,sans-Serif" font-size="10.00">Source/MemaProcessorEditor</text>
<text text-anchor="middle" x="1628.5" y="-139" font-family="Helvetica,sans-Serif" font-size="10.00">/CrosspointsControlComponent.cpp</text>
</a>
</g>
</g>
<!-- Node32&#45;&gt;Node33 -->
<g id="edge42_Node000032_Node000033" class="edge">
<title>Node32&#45;&gt;Node33</title>
<g id="a_edge42_Node000032_Node000033"><a xlink:title=" ">
<path fill="none" stroke="#63b8ff" d="M1542.26,-193.24C1561.3,-183.25 1584.32,-171.18 1601.79,-162.01"/>
<polygon fill="#63b8ff" stroke="#63b8ff" points="1540.5,-190.21 1533.27,-197.95 1543.75,-196.41 1540.5,-190.21"/>
</a>
</g>
</g>
<!-- Node34&#45;&gt;Node5 -->
<g id="edge45_Node000034_Node000005" class="edge">
<title>Node34&#45;&gt;Node5</title>
<g id="a_edge45_Node000034_Node000005"><a xlink:title=" ">
<path fill="none" stroke="#63b8ff" d="M942.17,-323.48C930.36,-313.91 916.61,-302.77 905.98,-294.16"/>
<polygon fill="#63b8ff" stroke="#63b8ff" points="939.99,-326.22 949.97,-329.8 944.4,-320.78 939.99,-326.22"/>
</a>
</g>
</g>
<!-- Node35 -->
<g id="Node000035" class="node">
<title>Node35</title>
<g id="a_Node000035"><a xlink:href="ProcessorLevelData_8cpp.html" target="_top" xlink:title=" ">
<polygon fill="white" stroke="#666666" points="1114,-294 977,-294 977,-264 1114,-264 1114,-294"/>
<text text-anchor="start" x="985" y="-282" font-family="Helvetica,sans-Serif" font-size="10.00">Source/MemaProcessor</text>
<text text-anchor="middle" x="1045.5" y="-271" font-family="Helvetica,sans-Serif" font-size="10.00">/ProcessorLevelData.cpp</text>
</a>
</g>
</g>
<!-- Node34&#45;&gt;Node35 -->
<g id="edge46_Node000034_Node000035" class="edge">
<title>Node34&#45;&gt;Node35</title>
<g id="a_edge46_Node000034_Node000035"><a xlink:title=" ">
<path fill="none" stroke="#63b8ff" d="M992.85,-323.2C1004.43,-313.7 1017.85,-302.69 1028.24,-294.16"/>
<polygon fill="#63b8ff" stroke="#63b8ff" points="990.32,-320.75 984.81,-329.8 994.76,-326.16 990.32,-320.75"/>
</a>
</g>
</g>
<!-- Node36&#45;&gt;Node5 -->
<g id="edge48_Node000036_Node000005" class="edge">
<title>Node36&#45;&gt;Node5</title>
<g id="a_edge48_Node000036_Node000005"><a xlink:title=" ">
<path fill="none" stroke="#63b8ff" d="M1062.75,-327.25C1024.62,-316.91 976.26,-303.8 940.17,-294.01"/>
<polygon fill="#63b8ff" stroke="#63b8ff" points="1062.14,-330.72 1072.71,-329.95 1063.97,-323.96 1062.14,-330.72"/>
</a>
</g>
</g>
<!-- Node37 -->
<g id="Node000037" class="node">
<title>Node37</title>
<g id="a_Node000037"><a xlink:href="ProcessorSpectrumData_8cpp.html" target="_top" xlink:title=" ">
<polygon fill="white" stroke="#666666" points="1289,-294 1132,-294 1132,-264 1289,-264 1289,-294"/>
<text text-anchor="start" x="1140" y="-282" font-family="Helvetica,sans-Serif" font-size="10.00">Source/MemaProcessor</text>
<text text-anchor="middle" x="1210.5" y="-271" font-family="Helvetica,sans-Serif" font-size="10.00">/ProcessorSpectrumData.cpp</text>
</a>
</g>
</g>
<!-- Node36&#45;&gt;Node37 -->
<g id="edge49_Node000036_Node000037" class="edge">
<title>Node36&#45;&gt;Node37</title>
<g id="a_edge49_Node000036_Node000037"><a xlink:title=" ">
<path fill="none" stroke="#63b8ff" d="M1151.71,-323.75C1164.64,-314.13 1179.79,-302.86 1191.47,-294.16"/>
<polygon fill="#63b8ff" stroke="#63b8ff" points="1149.52,-321.02 1143.59,-329.8 1153.7,-326.63 1149.52,-321.02"/>
</a>
</g>
</g>
</g>
</svg>

<g id="navigator" transform="translate(0 0)" fill="#404254">
  <rect fill="#f2f5e9" fill-opacity="0.5" stroke="#606060" stroke-width=".5" x="0" y="0" width="60" height="60"/>
  <use id="zoomplus" xlink:href="#zoomPlus" x="17" y="9" onmousedown="handleZoom(evt,'in')"/>
  <use id="zoomminus" xlink:href="#zoomMin" x="42" y="9" onmousedown="handleZoom(evt,'out')"/>
  <use id="reset" xlink:href="#resetDef" x="30" y="36" onmousedown="handleReset()"/>
   <use id="arrowup" xlink:href="#arrowUp" x="0" y="0" onmousedown="handlePan(0,-1)"/>
  <use id="arrowright" xlink:href="#arrowRight" x="0" y="0" onmousedown="handlePan(1,0)"/>
  <use id="arrowdown" xlink:href="#arrowDown" x="0" y="0" onmousedown="handlePan(0,1)"/>
  <use id="arrowleft" xlink:href="#arrowLeft" x="0" y="0" onmousedown="handlePan(-1,0)"/>
</g>
<svg viewBox="0 0 15 15" width="100%" height="30px" preserveAspectRatio="xMaxYMin meet">
 <g id="arrow_out" transform="scale(0.3 0.3)">
  <a xlink:href="AbstractProcessorData_8h__dep__incl_org.svg" target="_base">
   <rect id="button" ry="5" rx="5" y="6" x="6" height="38" width="38"
        fill="#f2f5e9" fill-opacity="0.5" stroke="#606060" stroke-width="1.0"/>
   <path id="arrow"
     d="M 11.500037,31.436501 C 11.940474,20.09759 22.043105,11.32322 32.158766,21.979434 L 37.068811,17.246167 C 37.068811,17.246167 37.088388,32 37.088388,32 L 22.160133,31.978069 C 22.160133,31.978069 26.997745,27.140456 26.997745,27.140456 C 18.528582,18.264221 13.291696,25.230495 11.500037,31.436501 z"
     style="fill:#404040;"/>
  </a>
 </g>
</svg>

<style type='text/css'>
<![CDATA[
[data-mouse-over-selected='false'] { opacity: 0.7; }
[data-mouse-over-selected='true']  { opacity: 1.0; }
]]>
</style>
<script type="application/ecmascript"><![CDATA[
document.addEventListener('DOMContentLoaded', (event) => {
  highlightEdges();
  highlightAdjacentNodes();
});
]]></script>
</svg>
