<?xml version="1.0" encoding="UTF-8" standalone="no"?>
<!DOCTYPE svg PUBLIC "-//W3C//DTD SVG 1.1//EN"
 "http://www.w3.org/Graphics/SVG/1.1/DTD/svg11.dtd">
<!-- Generated by graphviz version 2.43.0 (0)
 -->
<!-- Title: Source/MemaProcessor/AbstractProcessorData.h Pages: 1 -->
<!--zoomable 434 -->

<svg id="main" version="1.1" xmlns="http://www.w3.org/2000/svg" xmlns:xlink="http://www.w3.org/1999/xlink" xml:space="preserve" onload="init(evt)">
<style type="text/css"><![CDATA[
.node, .edge {opacity: 0.7;}
.node.selected, .edge.selected {opacity: 1;}
.edge:hover path { stroke: red; }
.edge:hover polygon { stroke: red; fill: red; }
]]></style>

<defs>
  <circle id="rim" cx="0" cy="0" r="7"/>
  <circle id="rim2" cx="0" cy="0" r="3.5"/>
  <g id="zoomPlus">
    <use xlink:href="#rim" fill="#404040"><set attributeName="fill" to="#808080" begin="zoomplus.mouseover" end="zoomplus.mouseout"/></use>
    <path d="M-4,0h8M0,-4v8" fill="none" stroke="white" stroke-width="1.5" pointer-events="none"/>
  </g>
  <g id="zoomMin">
    <use xlink:href="#rim" fill="#404040"><set attributeName="fill" to="#808080" begin="zoomminus.mouseover" end="zoomminus.mouseout"/></use>
    <path d="M-4,0h8" fill="none" stroke="white" stroke-width="1.5" pointer-events="none"/>
  </g>
  <g id="arrowUp" transform="translate(30 24)">
    <use xlink:href="#rim"/>
    <path pointer-events="none" fill="none" stroke="white" stroke-width="1.5" d="M0,-3.0v7 M-2.5,-0.5L0,-3.0L2.5,-0.5"/>
  </g>
  <g id="arrowRight" transform="rotate(90) translate(36 -43)">
    <use xlink:href="#rim"/>
    <path pointer-events="none" fill="none" stroke="white" stroke-width="1.5" d="M0,-3.0v7 M-2.5,-0.5L0,-3.0L2.5,-0.5"/>
  </g>
  <g id="arrowDown" transform="rotate(180) translate(-30 -48)">
    <use xlink:href="#rim"/>
    <path pointer-events="none" fill="none" stroke="white" stroke-width="1.5" d="M0,-3.0v7 M-2.5,-0.5L0,-3.0L2.5,-0.5"/>
  </g>
  <g id="arrowLeft" transform="rotate(270) translate(-36 17)">
    <use xlink:href="#rim"/>
    <path pointer-events="none" fill="none" stroke="white" stroke-width="1.5" d="M0,-3.0v7 M-2.5,-0.5L0,-3.0L2.5,-0.5"/>
  </g>
  <g id="resetDef">
    <use xlink:href="#rim2" fill="#404040"><set attributeName="fill" to="#808080" begin="reset.mouseover" end="reset.mouseout"/></use>
  </g>
</defs>
<script type="application/ecmascript">
var viewWidth = 1933;
var viewHeight = 434;
var sectionId = 'dynsection-1';
</script>
<script type="application/ecmascript" xlink:href="svg.min.js"/>
<svg id="graph" class="graph">
<g id="viewport">
<title>Source/MemaProcessor/AbstractProcessorData.h</title>
<!-- Node1 -->
<g id="Node000001" class="node">
<title>Node1</title>
<g id="a_Node000001"><a xlink:title=" ">
<polygon fill="#999999" stroke="#666666" points="717.5,-426 577.5,-426 577.5,-396 717.5,-396 717.5,-426"/>
<text text-anchor="start" x="585.5" y="-414" font-family="Helvetica,sans-Serif" font-size="10.00">Source/MemaProcessor</text>
<text text-anchor="middle" x="647.5" y="-403" font-family="Helvetica,sans-Serif" font-size="10.00">/AbstractProcessorData.h</text>
</a>
</g>
</g>
<!-- Node2 -->
<g id="Node000002" class="node">
<title>Node2</title>
<g id="a_Node000002"><a xlink:href="AbstractProcessorData_8cpp.html" target="_top" xlink:title=" ">
<polygon fill="white" stroke="#666666" points="470,-360 319,-360 319,-330 470,-330 470,-360"/>
<text text-anchor="start" x="327" y="-348" font-family="Helvetica,sans-Serif" font-size="10.00">Source/MemaProcessor</text>
<text text-anchor="middle" x="394.5" y="-337" font-family="Helvetica,sans-Serif" font-size="10.00">/AbstractProcessorData.cpp</text>
</a>
</g>
</g>
<!-- Node1&#45;&gt;Node2 -->
<g id="edge1_Node000001_Node000002" class="edge">
<title>Node1&#45;&gt;Node2</title>
<g id="a_edge1_Node000001_Node000002"><a xlink:title=" ">
<path fill="none" stroke="#63b8ff" d="M582.08,-393.45C541.09,-383.08 488.83,-369.86 449.89,-360.01"/>
<polygon fill="#63b8ff" stroke="#63b8ff" points="581.43,-396.9 591.98,-395.95 583.14,-390.11 581.43,-396.9"/>
</a>
</g>
</g>
<!-- Node3 -->
<g id="Node000003" class="node">
<title>Node3</title>
<g id="a_Node000003"><a xlink:href="ProcessorAudioSignalData_8h.html" target="_top" xlink:title=" ">
<polygon fill="white" stroke="#666666" points="645,-360 488,-360 488,-330 645,-330 645,-360"/>
<text text-anchor="start" x="496" y="-348" font-family="Helvetica,sans-Serif" font-size="10.00">Source/MemaProcessor</text>
<text text-anchor="middle" x="566.5" y="-337" font-family="Helvetica,sans-Serif" font-size="10.00">/ProcessorAudioSignalData.h</text>
</a>
</g>
</g>
<!-- Node1&#45;&gt;Node3 -->
<g id="edge2_Node000001_Node000003" class="edge">
<title>Node1&#45;&gt;Node3</title>
<g id="a_edge2_Node000001_Node000003"><a xlink:title=" ">
<path fill="none" stroke="#63b8ff" d="M621.53,-389.48C609.42,-379.91 595.32,-368.77 584.43,-360.16"/>
<polygon fill="#63b8ff" stroke="#63b8ff" points="619.51,-392.34 629.52,-395.8 623.85,-386.85 619.51,-392.34"/>
</a>
</g>
</g>
<!-- Node35 -->
<g id="Node000035" class="node">
<title>Node35</title>
<g id="a_Node000035"><a xlink:href="ProcessorLevelData_8h.html" target="_top" xlink:title=" ">
<polygon fill="white" stroke="#666666" points="794,-360 663,-360 663,-330 794,-330 794,-360"/>
<text text-anchor="start" x="671" y="-348" font-family="Helvetica,sans-Serif" font-size="10.00">Source/MemaProcessor</text>
<text text-anchor="middle" x="728.5" y="-337" font-family="Helvetica,sans-Serif" font-size="10.00">/ProcessorLevelData.h</text>
</a>
</g>
</g>
<!-- Node1&#45;&gt;Node35 -->
<g id="edge45_Node000001_Node000035" class="edge">
<title>Node1&#45;&gt;Node35</title>
<g id="a_edge45_Node000001_Node000035"><a xlink:title=" ">
<path fill="none" stroke="#63b8ff" d="M673.47,-389.48C685.58,-379.91 699.68,-368.77 710.57,-360.16"/>
<polygon fill="#63b8ff" stroke="#63b8ff" points="671.15,-386.85 665.48,-395.8 675.49,-392.34 671.15,-386.85"/>
</a>
</g>
</g>
<!-- Node37 -->
<g id="Node000037" class="node">
<title>Node37</title>
<g id="a_Node000037"><a xlink:href="ProcessorSpectrumData_8h.html" target="_top" xlink:title=" ">
<polygon fill="white" stroke="#666666" points="958.5,-360 812.5,-360 812.5,-330 958.5,-330 958.5,-360"/>
<text text-anchor="start" x="820.5" y="-348" font-family="Helvetica,sans-Serif" font-size="10.00">Source/MemaProcessor</text>
<text text-anchor="middle" x="885.5" y="-337" font-family="Helvetica,sans-Serif" font-size="10.00">/ProcessorSpectrumData.h</text>
</a>
</g>
</g>
<!-- Node1&#45;&gt;Node37 -->
<g id="edge48_Node000001_Node000037" class="edge">
<title>Node1&#45;&gt;Node37</title>
<g id="a_edge48_Node000001_Node000037"><a xlink:title=" ">
<path fill="none" stroke="#63b8ff" d="M709.78,-393.25C748.23,-382.91 796.99,-369.8 833.39,-360.01"/>
<polygon fill="#63b8ff" stroke="#63b8ff" points="708.48,-389.98 699.73,-395.95 710.3,-396.74 708.48,-389.98"/>
</a>
</g>
</g>
<!-- Node4 -->
<g id="Node000004" class="node">
<title>Node4</title>
<g id="a_Node000004"><a xlink:href="ProcessorAudioSignalData_8cpp.html" target="_top" xlink:title=" ">
<polygon fill="white" stroke="#666666" points="560.5,-294 392.5,-294 392.5,-264 560.5,-264 560.5,-294"/>
<text text-anchor="start" x="400.5" y="-282" font-family="Helvetica,sans-Serif" font-size="10.00">Source/MemaProcessor</text>
<text text-anchor="middle" x="476.5" y="-271" font-family="Helvetica,sans-Serif" font-size="10.00">/ProcessorAudioSignalData.cpp</text>
</a>
</g>
</g>
<!-- Node3&#45;&gt;Node4 -->
<g id="edge3_Node000003_Node000004" class="edge">
<title>Node3&#45;&gt;Node4</title>
<g id="a_edge3_Node000003_Node000004"><a xlink:title=" ">
<path fill="none" stroke="#63b8ff" d="M538.03,-323.75C524.49,-314.13 508.64,-302.86 496.42,-294.16"/>
<polygon fill="#63b8ff" stroke="#63b8ff" points="536.35,-326.85 546.53,-329.8 540.4,-321.15 536.35,-326.85"/>
</a>
</g>
</g>
<!-- Node5 -->
<g id="Node000005" class="node">
<title>Node5</title>
<g id="a_Node000005"><a xlink:href="ProcessorDataAnalyzer_8h.html" target="_top" xlink:title=" ">
<polygon fill="white" stroke="#666666" points="720,-294 579,-294 579,-264 720,-264 720,-294"/>
<text text-anchor="start" x="587" y="-282" font-family="Helvetica,sans-Serif" font-size="10.00">Source/MemaProcessor</text>
<text text-anchor="middle" x="649.5" y="-271" font-family="Helvetica,sans-Serif" font-size="10.00">/ProcessorDataAnalyzer.h</text>
</a>
</g>
</g>
<!-- Node3&#45;&gt;Node5 -->
<g id="edge4_Node000003_Node000005" class="edge">
<title>Node3&#45;&gt;Node5</title>
<g id="a_edge4_Node000003_Node000005"><a xlink:title=" ">
<path fill="none" stroke="#63b8ff" d="M593.11,-323.48C605.52,-313.91 619.97,-302.77 631.13,-294.16"/>
<polygon fill="#63b8ff" stroke="#63b8ff" points="590.7,-320.92 584.92,-329.8 594.98,-326.46 590.7,-320.92"/>
</a>
</g>
</g>
<!-- Node6 -->
<g id="Node000006" class="node">
<title>Node6</title>
<g id="a_Node000006"><a xlink:href="MemaMoComponent_8cpp.html" target="_top" xlink:title=" ">
<polygon fill="white" stroke="#666666" points="385.5,-24.5 197.5,-24.5 197.5,-5.5 385.5,-5.5 385.5,-24.5"/>
<text text-anchor="middle" x="291.5" y="-12.5" font-family="Helvetica,sans-Serif" font-size="10.00">MemaMo/MemaMoComponent.cpp</text>
</a>
</g>
</g>
<!-- Node5&#45;&gt;Node6 -->
<g id="edge5_Node000005_Node000006" class="edge">
<title>Node5&#45;&gt;Node6</title>
<g id="a_edge5_Node000005_Node000006"><a xlink:title=" ">
<path fill="none" stroke="#63b8ff" d="M568.87,-264.02C438.07,-246.33 395.13,-277.35 277.5,-228 234.04,-209.77 226.22,-196.86 194.5,-162 163.04,-127.42 124.57,-104.22 151.5,-66 167.11,-43.85 193.47,-31.46 219.13,-24.55"/>
<polygon fill="#63b8ff" stroke="#63b8ff" points="568.47,-267.49 578.86,-265.44 569.45,-260.56 568.47,-267.49"/>
</a>
</g>
</g>
<!-- Node7 -->
<g id="Node000007" class="node">
<title>Node7</title>
<g id="a_Node000007"><a xlink:href="FaderbankControlComponent_8cpp.html" target="_top" xlink:title=" ">
<polygon fill="white" stroke="#666666" points="468.5,-228 286.5,-228 286.5,-198 468.5,-198 468.5,-228"/>
<text text-anchor="start" x="294.5" y="-216" font-family="Helvetica,sans-Serif" font-size="10.00">Source/MemaClientCommon</text>
<text text-anchor="middle" x="377.5" y="-205" font-family="Helvetica,sans-Serif" font-size="10.00">/FaderbankControlComponent.cpp</text>
</a>
</g>
</g>
<!-- Node5&#45;&gt;Node7 -->
<g id="edge6_Node000005_Node000007" class="edge">
<title>Node5&#45;&gt;Node7</title>
<g id="a_edge6_Node000005_Node000007"><a xlink:title=" ">
<path fill="none" stroke="#63b8ff" d="M580.01,-261.65C535.81,-251.25 479.18,-237.93 437.05,-228.01"/>
<polygon fill="#63b8ff" stroke="#63b8ff" points="579.27,-265.07 589.81,-263.95 580.88,-258.26 579.27,-265.07"/>
</a>
</g>
</g>
<!-- Node8 -->
<g id="Node000008" class="node">
<title>Node8</title>
<g id="a_Node000008"><a xlink:href="MemaClientCommon_2PluginControlComponent_8cpp.html" target="_top" xlink:title=" ">
<polygon fill="white" stroke="#666666" points="648,-228 487,-228 487,-198 648,-198 648,-228"/>
<text text-anchor="start" x="495" y="-216" font-family="Helvetica,sans-Serif" font-size="10.00">Source/MemaClientCommon</text>
<text text-anchor="middle" x="567.5" y="-205" font-family="Helvetica,sans-Serif" font-size="10.00">/PluginControlComponent.cpp</text>
</a>
</g>
</g>
<!-- Node5&#45;&gt;Node8 -->
<g id="edge7_Node000005_Node000008" class="edge">
<title>Node5&#45;&gt;Node8</title>
<g id="a_edge7_Node000005_Node000008"><a xlink:title=" ">
<path fill="none" stroke="#63b8ff" d="M623.21,-257.48C610.95,-247.91 596.68,-236.77 585.65,-228.16"/>
<polygon fill="#63b8ff" stroke="#63b8ff" points="621.26,-260.4 631.3,-263.8 625.57,-254.88 621.26,-260.4"/>
</a>
</g>
</g>
<!-- Node9 -->
<g id="Node000009" class="node">
<title>Node9</title>
<g id="a_Node000009"><a xlink:href="MemaProcessor_8h.html" target="_top" xlink:title=" ">
<polygon fill="white" stroke="#666666" points="797,-228 666,-228 666,-198 797,-198 797,-228"/>
<text text-anchor="start" x="674" y="-216" font-family="Helvetica,sans-Serif" font-size="10.00">Source/MemaProcessor</text>
<text text-anchor="middle" x="731.5" y="-205" font-family="Helvetica,sans-Serif" font-size="10.00">/MemaProcessor.h</text>
</a>
</g>
</g>
<!-- Node5&#45;&gt;Node9 -->
<g id="edge8_Node000005_Node000009" class="edge">
<title>Node5&#45;&gt;Node9</title>
<g id="a_edge8_Node000005_Node000009"><a xlink:title=" ">
<path fill="none" stroke="#63b8ff" d="M675.79,-257.48C688.05,-247.91 702.32,-236.77 713.35,-228.16"/>
<polygon fill="#63b8ff" stroke="#63b8ff" points="673.43,-254.88 667.7,-263.8 677.74,-260.4 673.43,-254.88"/>
</a>
</g>
</g>
<!-- Node32 -->
<g id="Node000032" class="node">
<title>Node32</title>
<g id="a_Node000032"><a xlink:href="ProcessorDataAnalyzer_8cpp.html" target="_top" xlink:title=" ">
<polygon fill="white" stroke="#666666" points="967.5,-228 815.5,-228 815.5,-198 967.5,-198 967.5,-228"/>
<text text-anchor="start" x="823.5" y="-216" font-family="Helvetica,sans-Serif" font-size="10.00">Source/MemaProcessor</text>
<text text-anchor="middle" x="891.5" y="-205" font-family="Helvetica,sans-Serif" font-size="10.00">/ProcessorDataAnalyzer.cpp</text>
</a>
</g>
</g>
<!-- Node5&#45;&gt;Node32 -->
<g id="edge41_Node000005_Node000032" class="edge">
<title>Node5&#45;&gt;Node32</title>
<g id="a_edge41_Node000005_Node000032"><a xlink:title=" ">
<path fill="none" stroke="#63b8ff" d="M712.32,-261.39C751.5,-251.03 801.35,-237.84 838.52,-228.01"/>
<polygon fill="#63b8ff" stroke="#63b8ff" points="711.38,-258.01 702.61,-263.95 713.17,-264.78 711.38,-258.01"/>
</a>
</g>
</g>
<!-- Node33 -->
<g id="Node000033" class="node">
<title>Node33</title>
<g id="a_Node000033"><a xlink:href="CrosspointsControlComponent_8h.html" target="_top" xlink:title=" ">
<polygon fill="white" stroke="#666666" points="1473,-228 1296,-228 1296,-198 1473,-198 1473,-228"/>
<text text-anchor="start" x="1304" y="-216" font-family="Helvetica,sans-Serif" font-size="10.00">Source/MemaProcessorEditor</text>
<text text-anchor="middle" x="1384.5" y="-205" font-family="Helvetica,sans-Serif" font-size="10.00">/CrosspointsControlComponent.h</text>
</a>
</g>
</g>
<!-- Node5&#45;&gt;Node33 -->
<g id="edge42_Node000005_Node000033" class="edge">
<title>Node5&#45;&gt;Node33</title>
<g id="a_edge42_Node000005_Node000033"><a xlink:title=" ">
<path fill="none" stroke="#63b8ff" d="M730.34,-263.99C938.86,-238.25 1171.61,-224.3 1295.76,-218.04"/>
<polygon fill="#63b8ff" stroke="#63b8ff" points="729.6,-260.55 720.11,-265.26 730.47,-267.5 729.6,-260.55"/>
</a>
</g>
</g>
<!-- Node9&#45;&gt;Node6 -->
<g id="edge9_Node000009_Node000006" class="edge">
<title>Node9&#45;&gt;Node6</title>
<g id="a_edge9_Node000009_Node000006"><a xlink:title=" ">
<path fill="none" stroke="#63b8ff" d="M655.71,-197.77C432.18,-160.81 299.95,-269.23 161.5,-96 132.96,-60.29 201.91,-36.38 249.92,-24.58"/>
<polygon fill="#63b8ff" stroke="#63b8ff" points="655.29,-201.25 665.74,-199.52 656.49,-194.35 655.29,-201.25"/>
</a>
</g>
</g>
<!-- Node10 -->
<g id="Node000010" class="node">
<title>Node10</title>
<g id="a_Node000010"><a xlink:href="MemaReComponent_8cpp.html" target="_top" xlink:title=" ">
<polygon fill="white" stroke="#666666" points="1094,-156.5 911,-156.5 911,-137.5 1094,-137.5 1094,-156.5"/>
<text text-anchor="middle" x="1002.5" y="-144.5" font-family="Helvetica,sans-Serif" font-size="10.00">MemaRe/MemaReComponent.cpp</text>
</a>
</g>
</g>
<!-- Node9&#45;&gt;Node10 -->
<g id="edge10_Node000009_Node000010" class="edge">
<title>Node9&#45;&gt;Node10</title>
<g id="a_edge10_Node000009_Node000010"><a xlink:title=" ">
<path fill="none" stroke="#63b8ff" d="M800.95,-195.6C853.78,-183.12 924.35,-166.46 966.43,-156.52"/>
<polygon fill="#63b8ff" stroke="#63b8ff" points="799.9,-192.25 790.97,-197.95 801.51,-199.06 799.9,-192.25"/>
</a>
</g>
</g>
<!-- Node11 -->
<g id="Node000011" class="node">
<title>Node11</title>
<g id="a_Node000011"><a xlink:href="HeadlessCLIMenu_8cpp.html" target="_top" xlink:title=" ">
<polygon fill="white" stroke="#666666" points="1272.5,-156.5 1112.5,-156.5 1112.5,-137.5 1272.5,-137.5 1272.5,-156.5"/>
<text text-anchor="middle" x="1192.5" y="-144.5" font-family="Helvetica,sans-Serif" font-size="10.00">Source/HeadlessCLIMenu.cpp</text>
</a>
</g>
</g>
<!-- Node9&#45;&gt;Node11 -->
<g id="edge11_Node000009_Node000011" class="edge">
<title>Node9&#45;&gt;Node11</title>
<g id="a_edge11_Node000009_Node000011"><a xlink:title=" ">
<path fill="none" stroke="#63b8ff" d="M807.42,-197.92C939.63,-177.9 975.02,-179.89 1103.5,-162 1115.43,-160.34 1128.23,-158.41 1140.31,-156.53"/>
<polygon fill="#63b8ff" stroke="#63b8ff" points="806.67,-194.5 797.31,-199.47 807.72,-201.42 806.67,-194.5"/>
</a>
</g>
</g>
<!-- Node12 -->
<g id="Node000012" class="node">
<title>Node12</title>
<g id="a_Node000012"><a xlink:href="Mema_8cpp.html" target="_top" xlink:title=" ">
<polygon fill="white" stroke="#666666" points="566.5,-156.5 462.5,-156.5 462.5,-137.5 566.5,-137.5 566.5,-156.5"/>
<text text-anchor="middle" x="514.5" y="-144.5" font-family="Helvetica,sans-Serif" font-size="10.00">Source/Mema.cpp</text>
</a>
</g>
</g>
<!-- Node9&#45;&gt;Node12 -->
<g id="edge12_Node000009_Node000012" class="edge">
<title>Node9&#45;&gt;Node12</title>
<g id="a_edge12_Node000009_Node000012"><a xlink:title=" ">
<path fill="none" stroke="#63b8ff" d="M674.03,-195.05C631.94,-182.64 576.59,-166.31 543.38,-156.52"/>
<polygon fill="#63b8ff" stroke="#63b8ff" points="673.3,-198.48 683.88,-197.95 675.28,-191.77 673.3,-198.48"/>
</a>
</g>
</g>
<!-- Node13 -->
<g id="Node000013" class="node">
<title>Node13</title>
<g id="a_Node000013"><a xlink:href="MemaProcessor_8cpp.html" target="_top" xlink:title=" ">
<polygon fill="white" stroke="#666666" points="716,-162 585,-162 585,-132 716,-132 716,-162"/>
<text text-anchor="start" x="593" y="-150" font-family="Helvetica,sans-Serif" font-size="10.00">Source/MemaProcessor</text>
<text text-anchor="middle" x="650.5" y="-139" font-family="Helvetica,sans-Serif" font-size="10.00">/MemaProcessor.cpp</text>
</a>
</g>
</g>
<!-- Node9&#45;&gt;Node13 -->
<g id="edge13_Node000009_Node000013" class="edge">
<title>Node9&#45;&gt;Node13</title>
<g id="a_edge13_Node000009_Node000013"><a xlink:title=" ">
<path fill="none" stroke="#63b8ff" d="M705.53,-191.48C693.42,-181.91 679.32,-170.77 668.43,-162.16"/>
<polygon fill="#63b8ff" stroke="#63b8ff" points="703.51,-194.34 713.52,-197.8 707.85,-188.85 703.51,-194.34"/>
</a>
</g>
</g>
<!-- Node14 -->
<g id="Node000014" class="node">
<title>Node14</title>
<g id="a_Node000014"><a xlink:href="AbstractAudioVisualizer_8h.html" target="_top" xlink:title=" ">
<polygon fill="white" stroke="#666666" points="893,-162 734,-162 734,-132 893,-132 893,-162"/>
<text text-anchor="start" x="742" y="-150" font-family="Helvetica,sans-Serif" font-size="10.00">Source/MemaProcessorEditor</text>
<text text-anchor="middle" x="813.5" y="-139" font-family="Helvetica,sans-Serif" font-size="10.00">/AbstractAudioVisualizer.h</text>
</a>
</g>
</g>
<!-- Node9&#45;&gt;Node14 -->
<g id="edge14_Node000009_Node000014" class="edge">
<title>Node9&#45;&gt;Node14</title>
<g id="a_edge14_Node000009_Node000014"><a xlink:title=" ">
<path fill="none" stroke="#63b8ff" d="M757.79,-191.48C770.05,-181.91 784.32,-170.77 795.35,-162.16"/>
<polygon fill="#63b8ff" stroke="#63b8ff" points="755.43,-188.88 749.7,-197.8 759.74,-194.4 755.43,-188.88"/>
</a>
</g>
</g>
<!-- Node15 -->
<g id="Node000015" class="node">
<title>Node15</title>
<g id="a_Node000015"><a xlink:href="SpectrumAudioComponent_8h.html" target="_top" xlink:title=" ">
<polygon fill="white" stroke="#666666" points="873,-96 714,-96 714,-66 873,-66 873,-96"/>
<text text-anchor="start" x="722" y="-84" font-family="Helvetica,sans-Serif" font-size="10.00">Source/MemaClientCommon</text>
<text text-anchor="middle" x="793.5" y="-73" font-family="Helvetica,sans-Serif" font-size="10.00">/SpectrumAudioComponent.h</text>
</a>
</g>
</g>
<!-- Node14&#45;&gt;Node15 -->
<g id="edge15_Node000014_Node000015" class="edge">
<title>Node14&#45;&gt;Node15</title>
<g id="a_edge15_Node000014_Node000015"><a xlink:title=" ">
<path fill="none" stroke="#63b8ff" d="M806.03,-122.11C803.31,-113.38 800.31,-103.78 797.93,-96.16"/>
<polygon fill="#63b8ff" stroke="#63b8ff" points="802.74,-123.3 809.06,-131.8 809.42,-121.21 802.74,-123.3"/>
</a>
</g>
</g>
<!-- Node17 -->
<g id="Node000017" class="node">
<title>Node17</title>
<g id="a_Node000017"><a xlink:href="TwoDFieldMultisliderComponent_8h.html" target="_top" xlink:title=" ">
<polygon fill="white" stroke="#666666" points="1720.5,-96 1534.5,-96 1534.5,-66 1720.5,-66 1720.5,-96"/>
<text text-anchor="start" x="1542.5" y="-84" font-family="Helvetica,sans-Serif" font-size="10.00">Source/MemaClientCommon</text>
<text text-anchor="middle" x="1627.5" y="-73" font-family="Helvetica,sans-Serif" font-size="10.00">/TwoDFieldMultisliderComponent.h</text>
</a>
</g>
</g>
<!-- Node14&#45;&gt;Node17 -->
<g id="edge18_Node000014_Node000017" class="edge">
<title>Node14&#45;&gt;Node17</title>
<g id="a_edge18_Node000014_Node000017"><a xlink:title=" ">
<path fill="none" stroke="#63b8ff" d="M903.17,-132.01C1163.62,-104.03 1231.72,-116.81 1488.5,-96 1503.37,-94.8 1519.11,-93.36 1534.46,-91.88"/>
<polygon fill="#63b8ff" stroke="#63b8ff" points="902.59,-128.55 893.03,-133.11 903.35,-135.51 902.59,-128.55"/>
</a>
</g>
</g>
<!-- Node20 -->
<g id="Node000020" class="node">
<title>Node20</title>
<g id="a_Node000020"><a xlink:href="TwoDFieldOutputComponent_8h.html" target="_top" xlink:title=" ">
<polygon fill="white" stroke="#666666" points="338,-96 171,-96 171,-66 338,-66 338,-96"/>
<text text-anchor="start" x="179" y="-84" font-family="Helvetica,sans-Serif" font-size="10.00">Source/MemaClientCommon</text>
<text text-anchor="middle" x="254.5" y="-73" font-family="Helvetica,sans-Serif" font-size="10.00">/TwoDFieldOutputComponent.h</text>
</a>
</g>
</g>
<!-- Node14&#45;&gt;Node20 -->
<g id="edge21_Node000014_Node000020" class="edge">
<title>Node14&#45;&gt;Node20</title>
<g id="a_edge21_Node000014_Node000020"><a xlink:title=" ">
<path fill="none" stroke="#63b8ff" d="M723.98,-131.86C555.95,-110.92 511.23,-116.34 346.5,-96 343.77,-95.66 341,-95.31 338.21,-94.94"/>
<polygon fill="#63b8ff" stroke="#63b8ff" points="723.55,-135.33 733.91,-133.11 724.42,-128.39 723.55,-135.33"/>
</a>
</g>
</g>
<!-- Node22 -->
<g id="Node000022" class="node">
<title>Node22</title>
<g id="a_Node000022"><a xlink:href="WaveformAudioComponent_8h.html" target="_top" xlink:title=" ">
<polygon fill="white" stroke="#666666" points="519,-96 356,-96 356,-66 519,-66 519,-96"/>
<text text-anchor="start" x="364" y="-84" font-family="Helvetica,sans-Serif" font-size="10.00">Source/MemaClientCommon</text>
<text text-anchor="middle" x="437.5" y="-73" font-family="Helvetica,sans-Serif" font-size="10.00">/WaveformAudioComponent.h</text>
</a>
</g>
</g>
<!-- Node14&#45;&gt;Node22 -->
<g id="edge24_Node000014_Node000022" class="edge">
<title>Node14&#45;&gt;Node22</title>
<g id="a_edge24_Node000014_Node000022"><a xlink:title=" ">
<path fill="none" stroke="#63b8ff" d="M723.57,-130.69C661.4,-120.11 579.35,-106.14 519.07,-95.88"/>
<polygon fill="#63b8ff" stroke="#63b8ff" points="723.31,-134.2 733.76,-132.43 724.49,-127.3 723.31,-134.2"/>
</a>
</g>
</g>
<!-- Node24 -->
<g id="Node000024" class="node">
<title>Node24</title>
<g id="a_Node000024"><a xlink:href="AbstractAudioVisualizer_8cpp.html" target="_top" xlink:title=" ">
<polygon fill="white" stroke="#666666" points="696,-96 537,-96 537,-66 696,-66 696,-96"/>
<text text-anchor="start" x="545" y="-84" font-family="Helvetica,sans-Serif" font-size="10.00">Source/MemaProcessorEditor</text>
<text text-anchor="middle" x="616.5" y="-73" font-family="Helvetica,sans-Serif" font-size="10.00">/AbstractAudioVisualizer.cpp</text>
</a>
</g>
</g>
<!-- Node14&#45;&gt;Node24 -->
<g id="edge27_Node000014_Node000024" class="edge">
<title>Node14&#45;&gt;Node24</title>
<g id="a_edge27_Node000014_Node000024"><a xlink:title=" ">
<path fill="none" stroke="#63b8ff" d="M760.73,-128.86C729.1,-118.58 689.38,-105.68 659.63,-96.01"/>
<polygon fill="#63b8ff" stroke="#63b8ff" points="759.68,-132.19 770.27,-131.95 761.84,-125.54 759.68,-132.19"/>
</a>
</g>
</g>
<!-- Node25 -->
<g id="Node000025" class="node">
<title>Node25</title>
<g id="a_Node000025"><a xlink:href="InputControlComponent_8cpp.html" target="_top" xlink:title=" ">
<polygon fill="white" stroke="#666666" points="1157,-30 998,-30 998,0 1157,0 1157,-30"/>
<text text-anchor="start" x="1006" y="-18" font-family="Helvetica,sans-Serif" font-size="10.00">Source/MemaProcessorEditor</text>
<text text-anchor="middle" x="1077.5" y="-7" font-family="Helvetica,sans-Serif" font-size="10.00">/InputControlComponent.cpp</text>
</a>
</g>
</g>
<!-- Node14&#45;&gt;Node25 -->
<g id="edge28_Node000014_Node000025" class="edge">
<title>Node14&#45;&gt;Node25</title>
<g id="a_edge28_Node000014_Node000025"><a xlink:title=" ">
<path fill="none" stroke="#63b8ff" d="M902.91,-130.17C970.87,-117.77 1053.69,-101.69 1059.5,-96 1077.2,-78.67 1079.15,-47.94 1078.59,-30.03"/>
<polygon fill="#63b8ff" stroke="#63b8ff" points="902.22,-126.74 893.01,-131.98 903.47,-133.63 902.22,-126.74"/>
</a>
</g>
</g>
<!-- Node26 -->
<g id="Node000026" class="node">
<title>Node26</title>
<g id="a_Node000026"><a xlink:href="InputControlComponent_8h.html" target="_top" xlink:title=" ">
<polygon fill="white" stroke="#666666" points="1302,-96 1143,-96 1143,-66 1302,-66 1302,-96"/>
<text text-anchor="start" x="1151" y="-84" font-family="Helvetica,sans-Serif" font-size="10.00">Source/MemaProcessorEditor</text>
<text text-anchor="middle" x="1222.5" y="-73" font-family="Helvetica,sans-Serif" font-size="10.00">/InputControlComponent.h</text>
</a>
</g>
</g>
<!-- Node14&#45;&gt;Node26 -->
<g id="edge29_Node000014_Node000026" class="edge">
<title>Node14&#45;&gt;Node26</title>
<g id="a_edge29_Node000014_Node000026"><a xlink:title=" ">
<path fill="none" stroke="#63b8ff" d="M902.99,-131.92C991.17,-118.1 1080.53,-104.15 1142.94,-94.41"/>
<polygon fill="#63b8ff" stroke="#63b8ff" points="902.41,-128.47 893.08,-133.48 903.5,-135.39 902.41,-128.47"/>
</a>
</g>
</g>
<!-- Node28 -->
<g id="Node000028" class="node">
<title>Node28</title>
<g id="a_Node000028"><a xlink:href="MeterbridgeComponent_8h.html" target="_top" xlink:title=" ">
<polygon fill="white" stroke="#666666" points="1050,-96 891,-96 891,-66 1050,-66 1050,-96"/>
<text text-anchor="start" x="899" y="-84" font-family="Helvetica,sans-Serif" font-size="10.00">Source/MemaProcessorEditor</text>
<text text-anchor="middle" x="970.5" y="-73" font-family="Helvetica,sans-Serif" font-size="10.00">/MeterbridgeComponent.h</text>
</a>
</g>
</g>
<!-- Node14&#45;&gt;Node28 -->
<g id="edge32_Node000014_Node000028" class="edge">
<title>Node14&#45;&gt;Node28</title>
<g id="a_edge32_Node000014_Node000028"><a xlink:title=" ">
<path fill="none" stroke="#63b8ff" d="M857.52,-128.05C882.4,-117.91 913.03,-105.43 936.13,-96.01"/>
<polygon fill="#63b8ff" stroke="#63b8ff" points="855.89,-124.94 847.95,-131.95 858.54,-131.42 855.89,-124.94"/>
</a>
</g>
</g>
<!-- Node30 -->
<g id="Node000030" class="node">
<title>Node30</title>
<g id="a_Node000030"><a xlink:href="OutputControlComponent_8cpp.html" target="_top" xlink:title=" ">
<polygon fill="white" stroke="#666666" points="1339.5,-30 1175.5,-30 1175.5,0 1339.5,0 1339.5,-30"/>
<text text-anchor="start" x="1183.5" y="-18" font-family="Helvetica,sans-Serif" font-size="10.00">Source/MemaProcessorEditor</text>
<text text-anchor="middle" x="1257.5" y="-7" font-family="Helvetica,sans-Serif" font-size="10.00">/OutputControlComponent.cpp</text>
</a>
</g>
</g>
<!-- Node14&#45;&gt;Node30 -->
<g id="edge37_Node000014_Node000030" class="edge">
<title>Node14&#45;&gt;Node30</title>
<g id="a_edge37_Node000014_Node000030"><a xlink:title=" ">
<path fill="none" stroke="#63b8ff" d="M903.09,-130.69C973.98,-118.33 1063.76,-102.04 1080.5,-96 1106.33,-86.69 1109.74,-77.86 1134.5,-66 1162.46,-52.61 1195,-39.49 1219.58,-30.05"/>
<polygon fill="#63b8ff" stroke="#63b8ff" points="902.47,-127.24 893.22,-132.41 903.67,-134.14 902.47,-127.24"/>
</a>
</g>
</g>
<!-- Node31 -->
<g id="Node000031" class="node">
<title>Node31</title>
<g id="a_Node000031"><a xlink:href="OutputControlComponent_8h.html" target="_top" xlink:title=" ">
<polygon fill="white" stroke="#666666" points="1479,-96 1320,-96 1320,-66 1479,-66 1479,-96"/>
<text text-anchor="start" x="1328" y="-84" font-family="Helvetica,sans-Serif" font-size="10.00">Source/MemaProcessorEditor</text>
<text text-anchor="middle" x="1399.5" y="-73" font-family="Helvetica,sans-Serif" font-size="10.00">/OutputControlComponent.h</text>
</a>
</g>
</g>
<!-- Node14&#45;&gt;Node31 -->
<g id="edge38_Node000014_Node000031" class="edge">
<title>Node14&#45;&gt;Node31</title>
<g id="a_edge38_Node000014_Node000031"><a xlink:title=" ">
<path fill="none" stroke="#63b8ff" d="M903.23,-131.98C1085.36,-110.11 1133.67,-117.95 1311.5,-96 1314.26,-95.66 1317.07,-95.3 1319.91,-94.92"/>
<polygon fill="#63b8ff" stroke="#63b8ff" points="902.54,-128.53 893.04,-133.21 903.39,-135.48 902.54,-128.53"/>
</a>
</g>
</g>
<!-- Node15&#45;&gt;Node6 -->
<g id="edge16_Node000015_Node000006" class="edge">
<title>Node15&#45;&gt;Node6</title>
<g id="a_edge16_Node000015_Node000006"><a xlink:title=" ">
<path fill="none" stroke="#63b8ff" d="M703.79,-65.8C565.95,-47.07 529.32,-46.96 394.5,-30 380.98,-28.3 366.48,-26.38 352.75,-24.53"/>
<polygon fill="#63b8ff" stroke="#63b8ff" points="703.52,-69.29 713.9,-67.18 704.46,-62.36 703.52,-69.29"/>
</a>
</g>
</g>
<!-- Node16 -->
<g id="Node000016" class="node">
<title>Node16</title>
<g id="a_Node000016"><a xlink:href="SpectrumAudioComponent_8cpp.html" target="_top" xlink:title=" ">
<polygon fill="white" stroke="#666666" points="802.5,-30 632.5,-30 632.5,0 802.5,0 802.5,-30"/>
<text text-anchor="start" x="640.5" y="-18" font-family="Helvetica,sans-Serif" font-size="10.00">Source/MemaClientCommon</text>
<text text-anchor="middle" x="717.5" y="-7" font-family="Helvetica,sans-Serif" font-size="10.00">/SpectrumAudioComponent.cpp</text>
</a>
</g>
</g>
<!-- Node15&#45;&gt;Node16 -->
<g id="edge17_Node000015_Node000016" class="edge">
<title>Node15&#45;&gt;Node16</title>
<g id="a_edge17_Node000015_Node000016"><a xlink:title=" ">
<path fill="none" stroke="#63b8ff" d="M768.8,-59.2C757.52,-49.7 744.45,-38.69 734.32,-30.16"/>
<polygon fill="#63b8ff" stroke="#63b8ff" points="766.73,-62.03 776.63,-65.8 771.24,-56.68 766.73,-62.03"/>
</a>
</g>
</g>
<!-- Node18 -->
<g id="Node000018" class="node">
<title>Node18</title>
<g id="a_Node000018"><a xlink:href="PanningControlComponent_8cpp.html" target="_top" xlink:title=" ">
<polygon fill="white" stroke="#666666" points="1709.5,-30 1539.5,-30 1539.5,0 1709.5,0 1709.5,-30"/>
<text text-anchor="start" x="1547.5" y="-18" font-family="Helvetica,sans-Serif" font-size="10.00">Source/MemaClientCommon</text>
<text text-anchor="middle" x="1624.5" y="-7" font-family="Helvetica,sans-Serif" font-size="10.00">/PanningControlComponent.cpp</text>
</a>
</g>
</g>
<!-- Node17&#45;&gt;Node18 -->
<g id="edge19_Node000017_Node000018" class="edge">
<title>Node17&#45;&gt;Node18</title>
<g id="a_edge19_Node000017_Node000018"><a xlink:title=" ">
<path fill="none" stroke="#63b8ff" d="M1626.35,-55.54C1625.95,-46.96 1625.51,-37.61 1625.16,-30.16"/>
<polygon fill="#63b8ff" stroke="#63b8ff" points="1622.87,-55.97 1626.83,-65.8 1629.86,-55.64 1622.87,-55.97"/>
</a>
</g>
</g>
<!-- Node19 -->
<g id="Node000019" class="node">
<title>Node19</title>
<g id="a_Node000019"><a xlink:href="TwoDFieldMultisliderComponent_8cpp.html" target="_top" xlink:title=" ">
<polygon fill="white" stroke="#666666" points="1925,-30 1728,-30 1728,0 1925,0 1925,-30"/>
<text text-anchor="start" x="1736" y="-18" font-family="Helvetica,sans-Serif" font-size="10.00">Source/MemaClientCommon</text>
<text text-anchor="middle" x="1826.5" y="-7" font-family="Helvetica,sans-Serif" font-size="10.00">/TwoDFieldMultisliderComponent.cpp</text>
</a>
</g>
</g>
<!-- Node17&#45;&gt;Node19 -->
<g id="edge20_Node000017_Node000019" class="edge">
<title>Node17&#45;&gt;Node19</title>
<g id="a_edge20_Node000017_Node000019"><a xlink:title=" ">
<path fill="none" stroke="#63b8ff" d="M1680.81,-62.86C1712.76,-52.58 1752.88,-39.68 1782.93,-30.01"/>
<polygon fill="#63b8ff" stroke="#63b8ff" points="1679.62,-59.56 1671.17,-65.95 1681.76,-66.23 1679.62,-59.56"/>
</a>
</g>
</g>
<!-- Node20&#45;&gt;Node6 -->
<g id="edge22_Node000020_Node000006" class="edge">
<title>Node20&#45;&gt;Node6</title>
<g id="a_edge22_Node000020_Node000006"><a xlink:title=" ">
<path fill="none" stroke="#63b8ff" d="M267.83,-56.95C274.26,-45.81 281.61,-33.11 286.39,-24.84"/>
<polygon fill="#63b8ff" stroke="#63b8ff" points="264.69,-55.39 262.71,-65.8 270.75,-58.89 264.69,-55.39"/>
</a>
</g>
</g>
<!-- Node21 -->
<g id="Node000021" class="node">
<title>Node21</title>
<g id="a_Node000021"><a xlink:href="TwoDFieldOutputComponent_8cpp.html" target="_top" xlink:title=" ">
<polygon fill="white" stroke="#666666" points="179,-30 0,-30 0,0 179,0 179,-30"/>
<text text-anchor="start" x="8" y="-18" font-family="Helvetica,sans-Serif" font-size="10.00">Source/MemaClientCommon</text>
<text text-anchor="middle" x="89.5" y="-7" font-family="Helvetica,sans-Serif" font-size="10.00">/TwoDFieldOutputComponent.cpp</text>
</a>
</g>
</g>
<!-- Node20&#45;&gt;Node21 -->
<g id="edge23_Node000020_Node000021" class="edge">
<title>Node20&#45;&gt;Node21</title>
<g id="a_edge23_Node000020_Node000021"><a xlink:title=" ">
<path fill="none" stroke="#63b8ff" d="M208.93,-62.32C182.66,-52.14 150.11,-39.51 125.63,-30.01"/>
<polygon fill="#63b8ff" stroke="#63b8ff" points="207.7,-65.6 218.29,-65.95 210.23,-59.08 207.7,-65.6"/>
</a>
</g>
</g>
<!-- Node22&#45;&gt;Node6 -->
<g id="edge25_Node000022_Node000006" class="edge">
<title>Node22&#45;&gt;Node6</title>
<g id="a_edge25_Node000022_Node000006"><a xlink:title=" ">
<path fill="none" stroke="#63b8ff" d="M395.94,-61.78C368.02,-49.54 332.52,-33.98 310.93,-24.52"/>
<polygon fill="#63b8ff" stroke="#63b8ff" points="394.9,-65.15 405.46,-65.95 397.71,-58.73 394.9,-65.15"/>
</a>
</g>
</g>
<!-- Node23 -->
<g id="Node000023" class="node">
<title>Node23</title>
<g id="a_Node000023"><a xlink:href="WaveformAudioComponent_8cpp.html" target="_top" xlink:title=" ">
<polygon fill="white" stroke="#666666" points="577.5,-30 403.5,-30 403.5,0 577.5,0 577.5,-30"/>
<text text-anchor="start" x="411.5" y="-18" font-family="Helvetica,sans-Serif" font-size="10.00">Source/MemaClientCommon</text>
<text text-anchor="middle" x="490.5" y="-7" font-family="Helvetica,sans-Serif" font-size="10.00">/WaveformAudioComponent.cpp</text>
</a>
</g>
</g>
<!-- Node22&#45;&gt;Node23 -->
<g id="edge26_Node000022_Node000023" class="edge">
<title>Node22&#45;&gt;Node23</title>
<g id="a_edge26_Node000022_Node000023"><a xlink:title=" ">
<path fill="none" stroke="#63b8ff" d="M455.65,-58.09C463.3,-48.85 471.98,-38.36 478.77,-30.16"/>
<polygon fill="#63b8ff" stroke="#63b8ff" points="452.94,-55.86 449.26,-65.8 458.34,-60.33 452.94,-55.86"/>
</a>
</g>
</g>
<!-- Node26&#45;&gt;Node25 -->
<g id="edge30_Node000026_Node000025" class="edge">
<title>Node26&#45;&gt;Node25</title>
<g id="a_edge30_Node000026_Node000025"><a xlink:title=" ">
<path fill="none" stroke="#63b8ff" d="M1181.23,-61.78C1158.37,-51.69 1130.38,-39.34 1109.25,-30.01"/>
<polygon fill="#63b8ff" stroke="#63b8ff" points="1180.12,-65.12 1190.68,-65.95 1182.94,-58.71 1180.12,-65.12"/>
</a>
</g>
</g>
<!-- Node27 -->
<g id="Node000027" class="node">
<title>Node27</title>
<g id="a_Node000027"><a xlink:href="MemaProcessorEditor_8cpp.html" target="_top" xlink:title=" ">
<polygon fill="white" stroke="#666666" points="1517,-30 1358,-30 1358,0 1517,0 1517,-30"/>
<text text-anchor="start" x="1366" y="-18" font-family="Helvetica,sans-Serif" font-size="10.00">Source/MemaProcessorEditor</text>
<text text-anchor="middle" x="1437.5" y="-7" font-family="Helvetica,sans-Serif" font-size="10.00">/MemaProcessorEditor.cpp</text>
</a>
</g>
</g>
<!-- Node26&#45;&gt;Node27 -->
<g id="edge31_Node000026_Node000027" class="edge">
<title>Node26&#45;&gt;Node27</title>
<g id="a_edge31_Node000026_Node000027"><a xlink:title=" ">
<path fill="none" stroke="#63b8ff" d="M1279.65,-62.99C1314.24,-52.69 1357.83,-39.72 1390.43,-30.01"/>
<polygon fill="#63b8ff" stroke="#63b8ff" points="1278.27,-59.75 1269.68,-65.95 1280.27,-66.46 1278.27,-59.75"/>
</a>
</g>
</g>
<!-- Node28&#45;&gt;Node6 -->
<g id="edge33_Node000028_Node000006" class="edge">
<title>Node28&#45;&gt;Node6</title>
<g id="a_edge33_Node000028_Node000006"><a xlink:title=" ">
<path fill="none" stroke="#63b8ff" d="M880.84,-65.87C664.75,-41.24 607.52,-52.31 394.5,-30 379.87,-28.47 364.12,-26.49 349.44,-24.51"/>
<polygon fill="#63b8ff" stroke="#63b8ff" points="880.58,-69.36 890.92,-67.03 881.38,-62.41 880.58,-69.36"/>
</a>
</g>
</g>
<!-- Node28&#45;&gt;Node25 -->
<g id="edge34_Node000028_Node000025" class="edge">
<title>Node28&#45;&gt;Node25</title>
<g id="a_edge34_Node000028_Node000025"><a xlink:title=" ">
<path fill="none" stroke="#63b8ff" d="M1002.78,-60.69C1019.29,-50.82 1039.03,-39.01 1054.07,-30.01"/>
<polygon fill="#63b8ff" stroke="#63b8ff" points="1000.77,-57.82 993.98,-65.95 1004.36,-63.83 1000.77,-57.82"/>
</a>
</g>
</g>
<!-- Node29 -->
<g id="Node000029" class="node">
<title>Node29</title>
<g id="a_Node000029"><a xlink:href="MeterbridgeComponent_8cpp.html" target="_top" xlink:title=" ">
<polygon fill="white" stroke="#666666" points="980,-30 821,-30 821,0 980,0 980,-30"/>
<text text-anchor="start" x="829" y="-18" font-family="Helvetica,sans-Serif" font-size="10.00">Source/MemaProcessorEditor</text>
<text text-anchor="middle" x="900.5" y="-7" font-family="Helvetica,sans-Serif" font-size="10.00">/MeterbridgeComponent.cpp</text>
</a>
</g>
</g>
<!-- Node28&#45;&gt;Node29 -->
<g id="edge35_Node000028_Node000029" class="edge">
<title>Node28&#45;&gt;Node29</title>
<g id="a_edge35_Node000028_Node000029"><a xlink:title=" ">
<path fill="none" stroke="#63b8ff" d="M947.45,-58.92C937.13,-49.49 925.23,-38.61 915.99,-30.16"/>
<polygon fill="#63b8ff" stroke="#63b8ff" points="945.22,-61.63 954.96,-65.8 949.95,-56.47 945.22,-61.63"/>
</a>
</g>
</g>
<!-- Node28&#45;&gt;Node30 -->
<g id="edge36_Node000028_Node000030" class="edge">
<title>Node28&#45;&gt;Node30</title>
<g id="a_edge36_Node000028_Node000030"><a xlink:title=" ">
<path fill="none" stroke="#63b8ff" d="M1043.53,-63.71C1090.21,-53.31 1150.12,-39.95 1194.66,-30.01"/>
<polygon fill="#63b8ff" stroke="#63b8ff" points="1042.48,-60.36 1033.48,-65.95 1044.01,-67.19 1042.48,-60.36"/>
</a>
</g>
</g>
<!-- Node31&#45;&gt;Node27 -->
<g id="edge39_Node000031_Node000027" class="edge">
<title>Node31&#45;&gt;Node27</title>
<g id="a_edge39_Node000031_Node000027"><a xlink:title=" ">
<path fill="none" stroke="#63b8ff" d="M1413.18,-56.96C1418.5,-48 1424.42,-38.03 1429.09,-30.16"/>
<polygon fill="#63b8ff" stroke="#63b8ff" points="1410.03,-55.41 1407.93,-65.8 1416.05,-58.98 1410.03,-55.41"/>
</a>
</g>
</g>
<!-- Node31&#45;&gt;Node30 -->
<g id="edge40_Node000031_Node000030" class="edge">
<title>Node31&#45;&gt;Node30</title>
<g id="a_edge40_Node000031_Node000030"><a xlink:title=" ">
<path fill="none" stroke="#63b8ff" d="M1359.08,-61.78C1336.7,-51.69 1309.29,-39.34 1288.59,-30.01"/>
<polygon fill="#63b8ff" stroke="#63b8ff" points="1357.78,-65.04 1368.34,-65.95 1360.66,-58.65 1357.78,-65.04"/>
</a>
</g>
</g>
<!-- Node33&#45;&gt;Node27 -->
<g id="edge44_Node000033_Node000027" class="edge">
<title>Node33&#45;&gt;Node27</title>
<g id="a_edge44_Node000033_Node000027"><a xlink:title=" ">
<path fill="none" stroke="#63b8ff" d="M1449.33,-193.71C1464.34,-186.32 1478.53,-176.09 1487.5,-162 1510.42,-126.01 1505.02,-105.34 1488.5,-66 1482.35,-51.37 1469.6,-38.87 1458.39,-30.03"/>
<polygon fill="#63b8ff" stroke="#63b8ff" points="1447.6,-190.65 1439.92,-197.94 1450.48,-197.03 1447.6,-190.65"/>
</a>
</g>
</g>
<!-- Node34 -->
<g id="Node000034" class="node">
<title>Node34</title>
<g id="a_Node000034"><a xlink:href="CrosspointsControlComponent_8cpp.html" target="_top" xlink:title=" ">
<polygon fill="white" stroke="#666666" points="1478.5,-162 1290.5,-162 1290.5,-132 1478.5,-132 1478.5,-162"/>
<text text-anchor="start" x="1298.5" y="-150" font-family="Helvetica,sans-Serif" font-size="10.00">Source/MemaProcessorEditor</text>
<text text-anchor="middle" x="1384.5" y="-139" font-family="Helvetica,sans-Serif" font-size="10.00">/CrosspointsControlComponent.cpp</text>
</a>
</g>
</g>
<!-- Node33&#45;&gt;Node34 -->
<g id="edge43_Node000033_Node000034" class="edge">
<title>Node33&#45;&gt;Node34</title>
<g id="a_edge43_Node000033_Node000034"><a xlink:title=" ">
<path fill="none" stroke="#63b8ff" d="M1384.5,-187.54C1384.5,-178.96 1384.5,-169.61 1384.5,-162.16"/>
<polygon fill="#63b8ff" stroke="#63b8ff" points="1381,-187.8 1384.5,-197.8 1388,-187.8 1381,-187.8"/>
</a>
</g>
</g>
<!-- Node35&#45;&gt;Node5 -->
<g id="edge46_Node000035_Node000005" class="edge">
<title>Node35&#45;&gt;Node5</title>
<g id="a_edge46_Node000035_Node000005"><a xlink:title=" ">
<path fill="none" stroke="#63b8ff" d="M703.17,-323.48C691.36,-313.91 677.61,-302.77 666.98,-294.16"/>
<polygon fill="#63b8ff" stroke="#63b8ff" points="700.99,-326.22 710.97,-329.8 705.4,-320.78 700.99,-326.22"/>
</a>
</g>
</g>
<!-- Node36 -->
<g id="Node000036" class="node">
<title>Node36</title>
<g id="a_Node000036"><a xlink:href="ProcessorLevelData_8cpp.html" target="_top" xlink:title=" ">
<polygon fill="white" stroke="#666666" points="875,-294 738,-294 738,-264 875,-264 875,-294"/>
<text text-anchor="start" x="746" y="-282" font-family="Helvetica,sans-Serif" font-size="10.00">Source/MemaProcessor</text>
<text text-anchor="middle" x="806.5" y="-271" font-family="Helvetica,sans-Serif" font-size="10.00">/ProcessorLevelData.cpp</text>
</a>
</g>
</g>
<!-- Node35&#45;&gt;Node36 -->
<g id="edge47_Node000035_Node000036" class="edge">
<title>Node35&#45;&gt;Node36</title>
<g id="a_edge47_Node000035_Node000036"><a xlink:title=" ">
<path fill="none" stroke="#63b8ff" d="M753.85,-323.2C765.43,-313.7 778.85,-302.69 789.24,-294.16"/>
<polygon fill="#63b8ff" stroke="#63b8ff" points="751.32,-320.75 745.81,-329.8 755.76,-326.16 751.32,-320.75"/>
</a>
</g>
</g>
<!-- Node37&#45;&gt;Node5 -->
<g id="edge49_Node000037_Node000005" class="edge">
<title>Node37&#45;&gt;Node5</title>
<g id="a_edge49_Node000037_Node000005"><a xlink:title=" ">
<path fill="none" stroke="#63b8ff" d="M823.75,-327.25C785.62,-316.91 737.26,-303.8 701.17,-294.01"/>
<polygon fill="#63b8ff" stroke="#63b8ff" points="823.14,-330.72 833.71,-329.95 824.97,-323.96 823.14,-330.72"/>
</a>
</g>
</g>
<!-- Node38 -->
<g id="Node000038" class="node">
<title>Node38</title>
<g id="a_Node000038"><a xlink:href="ProcessorSpectrumData_8cpp.html" target="_top" xlink:title=" ">
<polygon fill="white" stroke="#666666" points="1050,-294 893,-294 893,-264 1050,-264 1050,-294"/>
<text text-anchor="start" x="901" y="-282" font-family="Helvetica,sans-Serif" font-size="10.00">Source/MemaProcessor</text>
<text text-anchor="middle" x="971.5" y="-271" font-family="Helvetica,sans-Serif" font-size="10.00">/ProcessorSpectrumData.cpp</text>
</a>
</g>
</g>
<!-- Node37&#45;&gt;Node38 -->
<g id="edge50_Node000037_Node000038" class="edge">
<title>Node37&#45;&gt;Node38</title>
<g id="a_edge50_Node000037_Node000038"><a xlink:title=" ">
<path fill="none" stroke="#63b8ff" d="M912.71,-323.75C925.64,-314.13 940.79,-302.86 952.47,-294.16"/>
<polygon fill="#63b8ff" stroke="#63b8ff" points="910.52,-321.02 904.59,-329.8 914.7,-326.63 910.52,-321.02"/>
</a>
</g>
</g>
</g>
</svg>

<g id="navigator" transform="translate(0 0)" fill="#404254">
  <rect fill="#f2f5e9" fill-opacity="0.5" stroke="#606060" stroke-width=".5" x="0" y="0" width="60" height="60"/>
  <use id="zoomplus" xlink:href="#zoomPlus" x="17" y="9" onmousedown="handleZoom(evt,'in')"/>
  <use id="zoomminus" xlink:href="#zoomMin" x="42" y="9" onmousedown="handleZoom(evt,'out')"/>
  <use id="reset" xlink:href="#resetDef" x="30" y="36" onmousedown="handleReset()"/>
   <use id="arrowup" xlink:href="#arrowUp" x="0" y="0" onmousedown="handlePan(0,-1)"/>
  <use id="arrowright" xlink:href="#arrowRight" x="0" y="0" onmousedown="handlePan(1,0)"/>
  <use id="arrowdown" xlink:href="#arrowDown" x="0" y="0" onmousedown="handlePan(0,1)"/>
  <use id="arrowleft" xlink:href="#arrowLeft" x="0" y="0" onmousedown="handlePan(-1,0)"/>
</g>
<svg viewBox="0 0 15 15" width="100%" height="30px" preserveAspectRatio="xMaxYMin meet">
 <g id="arrow_out" transform="scale(0.3 0.3)">
  <a xlink:href="AbstractProcessorData_8h__dep__incl_org.svg" target="_base">
   <rect id="button" ry="5" rx="5" y="6" x="6" height="38" width="38"
        fill="#f2f5e9" fill-opacity="0.5" stroke="#606060" stroke-width="1.0"/>
   <path id="arrow"
     d="M 11.500037,31.436501 C 11.940474,20.09759 22.043105,11.32322 32.158766,21.979434 L 37.068811,17.246167 C 37.068811,17.246167 37.088388,32 37.088388,32 L 22.160133,31.978069 C 22.160133,31.978069 26.997745,27.140456 26.997745,27.140456 C 18.528582,18.264221 13.291696,25.230495 11.500037,31.436501 z"
     style="fill:#404040;"/>
  </a>
 </g>
</svg>

<style type='text/css'>
<![CDATA[
[data-mouse-over-selected='false'] { opacity: 0.7; }
[data-mouse-over-selected='true']  { opacity: 1.0; }
]]>
</style>
<script type="application/ecmascript"><![CDATA[
document.addEventListener('DOMContentLoaded', (event) => {
  highlightEdges();
  highlightAdjacentNodes();
});
]]></script>
</svg>
