<?xml version="1.0" encoding="UTF-8" standalone="no"?>
<!DOCTYPE svg PUBLIC "-//W3C//DTD SVG 1.1//EN"
 "http://www.w3.org/Graphics/SVG/1.1/DTD/svg11.dtd">
<!-- Generated by graphviz version 2.43.0 (0)
 -->
<!-- Title: Source/MemaProcessorEditor/AudioSelectComponent.h Pages: 1 -->
<svg width="2339pt" height="368pt"
 viewBox="0.00 0.00 2338.50 368.00" xmlns="http://www.w3.org/2000/svg" xmlns:xlink="http://www.w3.org/1999/xlink">
<g id="graph0" class="graph" transform="scale(1 1) rotate(0) translate(4 364)">
<title>Source/MemaProcessorEditor/AudioSelectComponent.h</title>
<!-- Node1 -->
<g id="Node000001" class="node">
<title>Node1</title>
<g id="a_Node000001"><a xlink:title=" ">
<polygon fill="#999999" stroke="#666666" points="379.5,-360 220.5,-360 220.5,-330 379.5,-330 379.5,-360"/>
<text text-anchor="start" x="228.5" y="-348" font-family="Helvetica,sans-Serif" font-size="10.00">Source/MemaProcessorEditor</text>
<text text-anchor="middle" x="300" y="-337" font-family="Helvetica,sans-Serif" font-size="10.00">/AudioSelectComponent.h</text>
</a>
</g>
</g>
<!-- Node2 -->
<g id="Node000002" class="node">
<title>Node2</title>
<g id="a_Node000002"><a xlink:href="AudioSelectComponent_8cpp.html" target="_top" xlink:title=" ">
<polygon fill="white" stroke="#666666" points="291.5,-294 132.5,-294 132.5,-264 291.5,-264 291.5,-294"/>
<text text-anchor="start" x="140.5" y="-282" font-family="Helvetica,sans-Serif" font-size="10.00">Source/MemaProcessorEditor</text>
<text text-anchor="middle" x="212" y="-271" font-family="Helvetica,sans-Serif" font-size="10.00">/AudioSelectComponent.cpp</text>
</a>
</g>
</g>
<!-- Node1&#45;&gt;Node2 -->
<g id="edge1_Node000001_Node000002" class="edge">
<title>Node1&#45;&gt;Node2</title>
<g id="a_edge1_Node000001_Node000002"><a xlink:title=" ">
<path fill="none" stroke="#63b8ff" d="M272.16,-323.75C258.93,-314.13 243.43,-302.86 231.48,-294.16"/>
<polygon fill="#63b8ff" stroke="#63b8ff" points="270.32,-326.75 280.47,-329.8 274.44,-321.08 270.32,-326.75"/>
</a>
</g>
</g>
<!-- Node3 -->
<g id="Node000003" class="node">
<title>Node3</title>
<g id="a_Node000003"><a xlink:href="MemaProcessorEditor_8h.html" target="_top" xlink:title=" ">
<polygon fill="white" stroke="#666666" points="468.5,-294 309.5,-294 309.5,-264 468.5,-264 468.5,-294"/>
<text text-anchor="start" x="317.5" y="-282" font-family="Helvetica,sans-Serif" font-size="10.00">Source/MemaProcessorEditor</text>
<text text-anchor="middle" x="389" y="-271" font-family="Helvetica,sans-Serif" font-size="10.00">/MemaProcessorEditor.h</text>
</a>
</g>
</g>
<!-- Node1&#45;&gt;Node3 -->
<g id="edge2_Node000001_Node000003" class="edge">
<title>Node1&#45;&gt;Node3</title>
<g id="a_edge2_Node000001_Node000003"><a xlink:title=" ">
<path fill="none" stroke="#63b8ff" d="M328.16,-323.75C341.54,-314.13 357.22,-302.86 369.3,-294.16"/>
<polygon fill="#63b8ff" stroke="#63b8ff" points="325.83,-321.12 319.75,-329.8 329.91,-326.8 325.83,-321.12"/>
</a>
</g>
</g>
<!-- Node4 -->
<g id="Node000004" class="node">
<title>Node4</title>
<g id="a_Node000004"><a xlink:href="Mema_8cpp.html" target="_top" xlink:title=" ">
<polygon fill="white" stroke="#666666" points="104,-156.5 0,-156.5 0,-137.5 104,-137.5 104,-156.5"/>
<text text-anchor="middle" x="52" y="-144.5" font-family="Helvetica,sans-Serif" font-size="10.00">Source/Mema.cpp</text>
</a>
</g>
</g>
<!-- Node3&#45;&gt;Node4 -->
<g id="edge3_Node000003_Node000004" class="edge">
<title>Node3&#45;&gt;Node4</title>
<g id="a_edge3_Node000003_Node000004"><a xlink:title=" ">
<path fill="none" stroke="#63b8ff" d="M343.16,-260.32C269.83,-232.03 128.86,-177.65 74.31,-156.61"/>
<polygon fill="#63b8ff" stroke="#63b8ff" points="342.03,-263.63 352.61,-263.96 344.54,-257.1 342.03,-263.63"/>
</a>
</g>
</g>
<!-- Node5 -->
<g id="Node000005" class="node">
<title>Node5</title>
<g id="a_Node000005"><a xlink:href="MemaProcessor_8h.html" target="_top" xlink:title=" ">
<polygon fill="white" stroke="#666666" points="454.5,-228 323.5,-228 323.5,-198 454.5,-198 454.5,-228"/>
<text text-anchor="start" x="331.5" y="-216" font-family="Helvetica,sans-Serif" font-size="10.00">Source/MemaProcessor</text>
<text text-anchor="middle" x="389" y="-205" font-family="Helvetica,sans-Serif" font-size="10.00">/MemaProcessor.h</text>
</a>
</g>
</g>
<!-- Node3&#45;&gt;Node5 -->
<g id="edge4_Node000003_Node000005" class="edge">
<title>Node3&#45;&gt;Node5</title>
<g id="a_edge4_Node000003_Node000005"><a xlink:title=" ">
<path fill="none" stroke="#63b8ff" d="M389,-253.54C389,-244.96 389,-235.61 389,-228.16"/>
<polygon fill="#63b8ff" stroke="#63b8ff" points="385.5,-253.8 389,-263.8 392.5,-253.8 385.5,-253.8"/>
</a>
</g>
</g>
<!-- Node22 -->
<g id="Node000022" class="node">
<title>Node22</title>
<g id="a_Node000022"><a xlink:href="MemaProcessorEditor_8cpp.html" target="_top" xlink:title=" ">
<polygon fill="white" stroke="#666666" points="1926.5,-30 1767.5,-30 1767.5,0 1926.5,0 1926.5,-30"/>
<text text-anchor="start" x="1775.5" y="-18" font-family="Helvetica,sans-Serif" font-size="10.00">Source/MemaProcessorEditor</text>
<text text-anchor="middle" x="1847" y="-7" font-family="Helvetica,sans-Serif" font-size="10.00">/MemaProcessorEditor.cpp</text>
</a>
</g>
</g>
<!-- Node3&#45;&gt;Node22 -->
<g id="edge36_Node000003_Node000022" class="edge">
<title>Node3&#45;&gt;Node22</title>
<g id="a_edge36_Node000003_Node000022"><a xlink:title=" ">
<path fill="none" stroke="#63b8ff" d="M478.69,-268.85C655.17,-250.6 1059.87,-207.48 1399,-162 1590.63,-136.3 1687.65,-227.92 1829,-96 1847.11,-79.1 1848.92,-48.21 1848.22,-30.16"/>
<polygon fill="#63b8ff" stroke="#63b8ff" points="478.26,-265.38 468.67,-269.89 478.98,-272.34 478.26,-265.38"/>
</a>
</g>
</g>
<!-- Node5&#45;&gt;Node4 -->
<g id="edge7_Node000005_Node000004" class="edge">
<title>Node5&#45;&gt;Node4</title>
<g id="a_edge7_Node000005_Node000004"><a xlink:title=" ">
<path fill="none" stroke="#63b8ff" d="M313.2,-199.24C257.64,-189.66 180.47,-175.85 113,-162 104.91,-160.34 96.25,-158.43 88.07,-156.57"/>
<polygon fill="#63b8ff" stroke="#63b8ff" points="312.86,-202.74 323.31,-200.98 314.05,-195.84 312.86,-202.74"/>
</a>
</g>
</g>
<!-- Node6 -->
<g id="Node000006" class="node">
<title>Node6</title>
<g id="a_Node000006"><a xlink:href="MemaMoComponent_8cpp.html" target="_top" xlink:title=" ">
<polygon fill="white" stroke="#666666" points="1015,-24.5 827,-24.5 827,-5.5 1015,-5.5 1015,-24.5"/>
<text text-anchor="middle" x="921" y="-12.5" font-family="Helvetica,sans-Serif" font-size="10.00">MemaMo/MemaMoComponent.cpp</text>
</a>
</g>
</g>
<!-- Node5&#45;&gt;Node6 -->
<g id="edge5_Node000005_Node000006" class="edge">
<title>Node5&#45;&gt;Node6</title>
<g id="a_edge5_Node000005_Node000006"><a xlink:title=" ">
<path fill="none" stroke="#63b8ff" d="M426.47,-192.72C439.39,-184.63 453.08,-174.23 463,-162 492,-126.23 465.31,-93.84 502,-66 558.3,-23.27 747.87,-38.76 818,-30 831.61,-28.3 846.22,-26.38 860.03,-24.51"/>
<polygon fill="#63b8ff" stroke="#63b8ff" points="424.51,-189.82 417.71,-197.95 428.09,-195.83 424.51,-189.82"/>
</a>
</g>
</g>
<!-- Node7 -->
<g id="Node000007" class="node">
<title>Node7</title>
<g id="a_Node000007"><a xlink:href="MemaReComponent_8cpp.html" target="_top" xlink:title=" ">
<polygon fill="white" stroke="#666666" points="305.5,-156.5 122.5,-156.5 122.5,-137.5 305.5,-137.5 305.5,-156.5"/>
<text text-anchor="middle" x="214" y="-144.5" font-family="Helvetica,sans-Serif" font-size="10.00">MemaRe/MemaReComponent.cpp</text>
</a>
</g>
</g>
<!-- Node5&#45;&gt;Node7 -->
<g id="edge6_Node000005_Node000007" class="edge">
<title>Node5&#45;&gt;Node7</title>
<g id="a_edge6_Node000005_Node000007"><a xlink:title=" ">
<path fill="none" stroke="#63b8ff" d="M340.93,-194.42C307.21,-182.09 263.62,-166.15 237.29,-156.52"/>
<polygon fill="#63b8ff" stroke="#63b8ff" points="340,-197.81 350.6,-197.95 342.41,-191.23 340,-197.81"/>
</a>
</g>
</g>
<!-- Node8 -->
<g id="Node000008" class="node">
<title>Node8</title>
<g id="a_Node000008"><a xlink:href="MemaProcessor_8cpp.html" target="_top" xlink:title=" ">
<polygon fill="white" stroke="#666666" points="454.5,-162 323.5,-162 323.5,-132 454.5,-132 454.5,-162"/>
<text text-anchor="start" x="331.5" y="-150" font-family="Helvetica,sans-Serif" font-size="10.00">Source/MemaProcessor</text>
<text text-anchor="middle" x="389" y="-139" font-family="Helvetica,sans-Serif" font-size="10.00">/MemaProcessor.cpp</text>
</a>
</g>
</g>
<!-- Node5&#45;&gt;Node8 -->
<g id="edge8_Node000005_Node000008" class="edge">
<title>Node5&#45;&gt;Node8</title>
<g id="a_edge8_Node000005_Node000008"><a xlink:title=" ">
<path fill="none" stroke="#63b8ff" d="M389,-187.54C389,-178.96 389,-169.61 389,-162.16"/>
<polygon fill="#63b8ff" stroke="#63b8ff" points="385.5,-187.8 389,-197.8 392.5,-187.8 385.5,-187.8"/>
</a>
</g>
</g>
<!-- Node9 -->
<g id="Node000009" class="node">
<title>Node9</title>
<g id="a_Node000009"><a xlink:href="AbstractAudioVisualizer_8h.html" target="_top" xlink:title=" ">
<polygon fill="white" stroke="#666666" points="1390.5,-162 1231.5,-162 1231.5,-132 1390.5,-132 1390.5,-162"/>
<text text-anchor="start" x="1239.5" y="-150" font-family="Helvetica,sans-Serif" font-size="10.00">Source/MemaProcessorEditor</text>
<text text-anchor="middle" x="1311" y="-139" font-family="Helvetica,sans-Serif" font-size="10.00">/AbstractAudioVisualizer.h</text>
</a>
</g>
</g>
<!-- Node5&#45;&gt;Node9 -->
<g id="edge9_Node000005_Node000009" class="edge">
<title>Node5&#45;&gt;Node9</title>
<g id="a_edge9_Node000005_Node000009"><a xlink:title=" ">
<path fill="none" stroke="#63b8ff" d="M464.8,-206.74C636.85,-194.8 1055.57,-165.73 1231.29,-153.53"/>
<polygon fill="#63b8ff" stroke="#63b8ff" points="464.3,-203.26 454.57,-207.45 464.79,-210.25 464.3,-203.26"/>
</a>
</g>
</g>
<!-- Node10 -->
<g id="Node000010" class="node">
<title>Node10</title>
<g id="a_Node000010"><a xlink:href="SpectrumAudioComponent_8h.html" target="_top" xlink:title=" ">
<polygon fill="white" stroke="#666666" points="1028.5,-96 869.5,-96 869.5,-66 1028.5,-66 1028.5,-96"/>
<text text-anchor="start" x="877.5" y="-84" font-family="Helvetica,sans-Serif" font-size="10.00">Source/MemaClientCommon</text>
<text text-anchor="middle" x="949" y="-73" font-family="Helvetica,sans-Serif" font-size="10.00">/SpectrumAudioComponent.h</text>
</a>
</g>
</g>
<!-- Node9&#45;&gt;Node10 -->
<g id="edge10_Node000009_Node000010" class="edge">
<title>Node9&#45;&gt;Node10</title>
<g id="a_edge10_Node000009_Node000010"><a xlink:title=" ">
<path fill="none" stroke="#63b8ff" d="M1221.46,-130.17C1162.23,-119.7 1085.27,-106.09 1028.26,-96.01"/>
<polygon fill="#63b8ff" stroke="#63b8ff" points="1221.1,-133.66 1231.56,-131.95 1222.32,-126.77 1221.1,-133.66"/>
</a>
</g>
</g>
<!-- Node12 -->
<g id="Node000012" class="node">
<title>Node12</title>
<g id="a_Node000012"><a xlink:href="TwoDFieldMultisliderComponent_8h.html" target="_top" xlink:title=" ">
<polygon fill="white" stroke="#666666" points="2123,-96 1937,-96 1937,-66 2123,-66 2123,-96"/>
<text text-anchor="start" x="1945" y="-84" font-family="Helvetica,sans-Serif" font-size="10.00">Source/MemaClientCommon</text>
<text text-anchor="middle" x="2030" y="-73" font-family="Helvetica,sans-Serif" font-size="10.00">/TwoDFieldMultisliderComponent.h</text>
</a>
</g>
</g>
<!-- Node9&#45;&gt;Node12 -->
<g id="edge13_Node000009_Node000012" class="edge">
<title>Node9&#45;&gt;Node12</title>
<g id="a_edge13_Node000009_Node000012"><a xlink:title=" ">
<path fill="none" stroke="#63b8ff" d="M1400.75,-138.01C1537.79,-125.81 1797.91,-102.66 1936.92,-90.29"/>
<polygon fill="#63b8ff" stroke="#63b8ff" points="1400.34,-134.53 1390.69,-138.91 1400.96,-141.51 1400.34,-134.53"/>
</a>
</g>
</g>
<!-- Node15 -->
<g id="Node000015" class="node">
<title>Node15</title>
<g id="a_Node000015"><a xlink:href="TwoDFieldOutputComponent_8h.html" target="_top" xlink:title=" ">
<polygon fill="white" stroke="#666666" points="1213.5,-96 1046.5,-96 1046.5,-66 1213.5,-66 1213.5,-96"/>
<text text-anchor="start" x="1054.5" y="-84" font-family="Helvetica,sans-Serif" font-size="10.00">Source/MemaClientCommon</text>
<text text-anchor="middle" x="1130" y="-73" font-family="Helvetica,sans-Serif" font-size="10.00">/TwoDFieldOutputComponent.h</text>
</a>
</g>
</g>
<!-- Node9&#45;&gt;Node15 -->
<g id="edge16_Node000009_Node000015" class="edge">
<title>Node9&#45;&gt;Node15</title>
<g id="a_edge16_Node000009_Node000015"><a xlink:title=" ">
<path fill="none" stroke="#63b8ff" d="M1261.76,-128.59C1232.82,-118.36 1196.72,-105.59 1169.63,-96.01"/>
<polygon fill="#63b8ff" stroke="#63b8ff" points="1260.68,-131.92 1271.28,-131.95 1263.02,-125.32 1260.68,-131.92"/>
</a>
</g>
</g>
<!-- Node17 -->
<g id="Node000017" class="node">
<title>Node17</title>
<g id="a_Node000017"><a xlink:href="WaveformAudioComponent_8h.html" target="_top" xlink:title=" ">
<polygon fill="white" stroke="#666666" points="674.5,-96 511.5,-96 511.5,-66 674.5,-66 674.5,-96"/>
<text text-anchor="start" x="519.5" y="-84" font-family="Helvetica,sans-Serif" font-size="10.00">Source/MemaClientCommon</text>
<text text-anchor="middle" x="593" y="-73" font-family="Helvetica,sans-Serif" font-size="10.00">/WaveformAudioComponent.h</text>
</a>
</g>
</g>
<!-- Node9&#45;&gt;Node17 -->
<g id="edge19_Node000009_Node000017" class="edge">
<title>Node9&#45;&gt;Node17</title>
<g id="a_edge19_Node000009_Node000017"><a xlink:title=" ">
<path fill="none" stroke="#63b8ff" d="M1220.96,-140.96C1098.83,-133.63 873.97,-118.42 683,-96 680.33,-95.69 677.62,-95.35 674.88,-95"/>
<polygon fill="#63b8ff" stroke="#63b8ff" points="1220.82,-144.45 1231.01,-141.56 1221.24,-137.47 1220.82,-144.45"/>
</a>
</g>
</g>
<!-- Node19 -->
<g id="Node000019" class="node">
<title>Node19</title>
<g id="a_Node000019"><a xlink:href="AbstractAudioVisualizer_8cpp.html" target="_top" xlink:title=" ">
<polygon fill="white" stroke="#666666" points="851.5,-96 692.5,-96 692.5,-66 851.5,-66 851.5,-96"/>
<text text-anchor="start" x="700.5" y="-84" font-family="Helvetica,sans-Serif" font-size="10.00">Source/MemaProcessorEditor</text>
<text text-anchor="middle" x="772" y="-73" font-family="Helvetica,sans-Serif" font-size="10.00">/AbstractAudioVisualizer.cpp</text>
</a>
</g>
</g>
<!-- Node9&#45;&gt;Node19 -->
<g id="edge22_Node000009_Node000019" class="edge">
<title>Node9&#45;&gt;Node19</title>
<g id="a_edge22_Node000009_Node000019"><a xlink:title=" ">
<path fill="none" stroke="#63b8ff" d="M1221.41,-137.33C1130.3,-128.22 985.1,-112.88 860,-96 857.24,-95.63 854.43,-95.24 851.6,-94.84"/>
<polygon fill="#63b8ff" stroke="#63b8ff" points="1221.13,-140.82 1231.43,-138.33 1221.83,-133.85 1221.13,-140.82"/>
</a>
</g>
</g>
<!-- Node20 -->
<g id="Node000020" class="node">
<title>Node20</title>
<g id="a_Node000020"><a xlink:href="InputControlComponent_8cpp.html" target="_top" xlink:title=" ">
<polygon fill="white" stroke="#666666" points="1566.5,-30 1407.5,-30 1407.5,0 1566.5,0 1566.5,-30"/>
<text text-anchor="start" x="1415.5" y="-18" font-family="Helvetica,sans-Serif" font-size="10.00">Source/MemaProcessorEditor</text>
<text text-anchor="middle" x="1487" y="-7" font-family="Helvetica,sans-Serif" font-size="10.00">/InputControlComponent.cpp</text>
</a>
</g>
</g>
<!-- Node9&#45;&gt;Node20 -->
<g id="edge23_Node000009_Node000020" class="edge">
<title>Node9&#45;&gt;Node20</title>
<g id="a_edge23_Node000009_Node000020"><a xlink:title=" ">
<path fill="none" stroke="#63b8ff" d="M1348.44,-127.11C1364.51,-118.4 1383.18,-107.47 1399,-96 1427.42,-75.4 1456.9,-46.88 1473.5,-30.04"/>
<polygon fill="#63b8ff" stroke="#63b8ff" points="1346.5,-124.17 1339.32,-131.96 1349.79,-130.35 1346.5,-124.17"/>
</a>
</g>
</g>
<!-- Node21 -->
<g id="Node000021" class="node">
<title>Node21</title>
<g id="a_Node000021"><a xlink:href="InputControlComponent_8h.html" target="_top" xlink:title=" ">
<polygon fill="white" stroke="#666666" points="1642.5,-96 1483.5,-96 1483.5,-66 1642.5,-66 1642.5,-96"/>
<text text-anchor="start" x="1491.5" y="-84" font-family="Helvetica,sans-Serif" font-size="10.00">Source/MemaProcessorEditor</text>
<text text-anchor="middle" x="1563" y="-73" font-family="Helvetica,sans-Serif" font-size="10.00">/InputControlComponent.h</text>
</a>
</g>
</g>
<!-- Node9&#45;&gt;Node21 -->
<g id="edge24_Node000009_Node000021" class="edge">
<title>Node9&#45;&gt;Node21</title>
<g id="a_edge24_Node000009_Node000021"><a xlink:title=" ">
<path fill="none" stroke="#63b8ff" d="M1376.16,-129.45C1416.99,-119.08 1469.04,-105.86 1507.83,-96.01"/>
<polygon fill="#63b8ff" stroke="#63b8ff" points="1375.13,-126.1 1366.3,-131.95 1376.86,-132.89 1375.13,-126.1"/>
</a>
</g>
</g>
<!-- Node23 -->
<g id="Node000023" class="node">
<title>Node23</title>
<g id="a_Node000023"><a xlink:href="MeterbridgeComponent_8h.html" target="_top" xlink:title=" ">
<polygon fill="white" stroke="#666666" points="1390.5,-96 1231.5,-96 1231.5,-66 1390.5,-66 1390.5,-96"/>
<text text-anchor="start" x="1239.5" y="-84" font-family="Helvetica,sans-Serif" font-size="10.00">Source/MemaProcessorEditor</text>
<text text-anchor="middle" x="1311" y="-73" font-family="Helvetica,sans-Serif" font-size="10.00">/MeterbridgeComponent.h</text>
</a>
</g>
</g>
<!-- Node9&#45;&gt;Node23 -->
<g id="edge27_Node000009_Node000023" class="edge">
<title>Node9&#45;&gt;Node23</title>
<g id="a_edge27_Node000009_Node000023"><a xlink:title=" ">
<path fill="none" stroke="#63b8ff" d="M1311,-121.54C1311,-112.96 1311,-103.61 1311,-96.16"/>
<polygon fill="#63b8ff" stroke="#63b8ff" points="1307.5,-121.8 1311,-131.8 1314.5,-121.8 1307.5,-121.8"/>
</a>
</g>
</g>
<!-- Node25 -->
<g id="Node000025" class="node">
<title>Node25</title>
<g id="a_Node000025"><a xlink:href="OutputControlComponent_8cpp.html" target="_top" xlink:title=" ">
<polygon fill="white" stroke="#666666" points="1749,-30 1585,-30 1585,0 1749,0 1749,-30"/>
<text text-anchor="start" x="1593" y="-18" font-family="Helvetica,sans-Serif" font-size="10.00">Source/MemaProcessorEditor</text>
<text text-anchor="middle" x="1667" y="-7" font-family="Helvetica,sans-Serif" font-size="10.00">/OutputControlComponent.cpp</text>
</a>
</g>
</g>
<!-- Node9&#45;&gt;Node25 -->
<g id="edge32_Node000009_Node000025" class="edge">
<title>Node9&#45;&gt;Node25</title>
<g id="a_edge32_Node000009_Node000025"><a xlink:title=" ">
<path fill="none" stroke="#63b8ff" d="M1359.13,-128.2C1381.18,-119.43 1407.39,-108.15 1430,-96 1451.18,-84.63 1453.07,-75.83 1475,-66 1511.15,-49.8 1553.56,-38.06 1589.32,-30.05"/>
<polygon fill="#63b8ff" stroke="#63b8ff" points="1357.67,-125.01 1349.64,-131.92 1360.23,-131.53 1357.67,-125.01"/>
</a>
</g>
</g>
<!-- Node26 -->
<g id="Node000026" class="node">
<title>Node26</title>
<g id="a_Node000026"><a xlink:href="OutputControlComponent_8h.html" target="_top" xlink:title=" ">
<polygon fill="white" stroke="#666666" points="1819.5,-96 1660.5,-96 1660.5,-66 1819.5,-66 1819.5,-96"/>
<text text-anchor="start" x="1668.5" y="-84" font-family="Helvetica,sans-Serif" font-size="10.00">Source/MemaProcessorEditor</text>
<text text-anchor="middle" x="1740" y="-73" font-family="Helvetica,sans-Serif" font-size="10.00">/OutputControlComponent.h</text>
</a>
</g>
</g>
<!-- Node9&#45;&gt;Node26 -->
<g id="edge33_Node000009_Node000026" class="edge">
<title>Node9&#45;&gt;Node26</title>
<g id="a_edge33_Node000009_Node000026"><a xlink:title=" ">
<path fill="none" stroke="#63b8ff" d="M1400.56,-133.17C1469.36,-123.24 1566.73,-109.03 1652,-96 1654.75,-95.58 1657.55,-95.15 1660.38,-94.71"/>
<polygon fill="#63b8ff" stroke="#63b8ff" points="1400.02,-129.71 1390.62,-134.61 1401.02,-136.64 1400.02,-129.71"/>
</a>
</g>
</g>
<!-- Node10&#45;&gt;Node6 -->
<g id="edge11_Node000010_Node000006" class="edge">
<title>Node10&#45;&gt;Node6</title>
<g id="a_edge11_Node000010_Node000006"><a xlink:title=" ">
<path fill="none" stroke="#63b8ff" d="M938.77,-56.61C933.93,-45.56 928.45,-33.03 924.87,-24.84"/>
<polygon fill="#63b8ff" stroke="#63b8ff" points="935.57,-58.04 942.79,-65.8 941.98,-55.23 935.57,-58.04"/>
</a>
</g>
</g>
<!-- Node11 -->
<g id="Node000011" class="node">
<title>Node11</title>
<g id="a_Node000011"><a xlink:href="SpectrumAudioComponent_8cpp.html" target="_top" xlink:title=" ">
<polygon fill="white" stroke="#666666" points="809,-30 639,-30 639,0 809,0 809,-30"/>
<text text-anchor="start" x="647" y="-18" font-family="Helvetica,sans-Serif" font-size="10.00">Source/MemaClientCommon</text>
<text text-anchor="middle" x="724" y="-7" font-family="Helvetica,sans-Serif" font-size="10.00">/SpectrumAudioComponent.cpp</text>
</a>
</g>
</g>
<!-- Node10&#45;&gt;Node11 -->
<g id="edge12_Node000010_Node000011" class="edge">
<title>Node10&#45;&gt;Node11</title>
<g id="a_edge12_Node000010_Node000011"><a xlink:title=" ">
<path fill="none" stroke="#63b8ff" d="M889.66,-63.12C853.38,-52.8 807.53,-39.76 773.26,-30.01"/>
<polygon fill="#63b8ff" stroke="#63b8ff" points="889.05,-66.59 899.62,-65.95 890.96,-59.85 889.05,-66.59"/>
</a>
</g>
</g>
<!-- Node13 -->
<g id="Node000013" class="node">
<title>Node13</title>
<g id="a_Node000013"><a xlink:href="PanningControlComponent_8cpp.html" target="_top" xlink:title=" ">
<polygon fill="white" stroke="#666666" points="2115,-30 1945,-30 1945,0 2115,0 2115,-30"/>
<text text-anchor="start" x="1953" y="-18" font-family="Helvetica,sans-Serif" font-size="10.00">Source/MemaClientCommon</text>
<text text-anchor="middle" x="2030" y="-7" font-family="Helvetica,sans-Serif" font-size="10.00">/PanningControlComponent.cpp</text>
</a>
</g>
</g>
<!-- Node12&#45;&gt;Node13 -->
<g id="edge14_Node000012_Node000013" class="edge">
<title>Node12&#45;&gt;Node13</title>
<g id="a_edge14_Node000012_Node000013"><a xlink:title=" ">
<path fill="none" stroke="#63b8ff" d="M2030,-55.54C2030,-46.96 2030,-37.61 2030,-30.16"/>
<polygon fill="#63b8ff" stroke="#63b8ff" points="2026.5,-55.8 2030,-65.8 2033.5,-55.8 2026.5,-55.8"/>
</a>
</g>
</g>
<!-- Node14 -->
<g id="Node000014" class="node">
<title>Node14</title>
<g id="a_Node000014"><a xlink:href="TwoDFieldMultisliderComponent_8cpp.html" target="_top" xlink:title=" ">
<polygon fill="white" stroke="#666666" points="2330.5,-30 2133.5,-30 2133.5,0 2330.5,0 2330.5,-30"/>
<text text-anchor="start" x="2141.5" y="-18" font-family="Helvetica,sans-Serif" font-size="10.00">Source/MemaClientCommon</text>
<text text-anchor="middle" x="2232" y="-7" font-family="Helvetica,sans-Serif" font-size="10.00">/TwoDFieldMultisliderComponent.cpp</text>
</a>
</g>
</g>
<!-- Node12&#45;&gt;Node14 -->
<g id="edge15_Node000012_Node000014" class="edge">
<title>Node12&#45;&gt;Node14</title>
<g id="a_edge15_Node000012_Node000014"><a xlink:title=" ">
<path fill="none" stroke="#63b8ff" d="M2084.11,-62.86C2116.55,-52.58 2157.27,-39.68 2187.77,-30.01"/>
<polygon fill="#63b8ff" stroke="#63b8ff" points="2082.81,-59.6 2074.33,-65.95 2084.92,-66.27 2082.81,-59.6"/>
</a>
</g>
</g>
<!-- Node15&#45;&gt;Node6 -->
<g id="edge17_Node000015_Node000006" class="edge">
<title>Node15&#45;&gt;Node6</title>
<g id="a_edge17_Node000015_Node000006"><a xlink:title=" ">
<path fill="none" stroke="#63b8ff" d="M1074.39,-62.97C1033.89,-50.57 980.73,-34.29 948.81,-24.52"/>
<polygon fill="#63b8ff" stroke="#63b8ff" points="1073.55,-66.37 1084.13,-65.95 1075.6,-59.68 1073.55,-66.37"/>
</a>
</g>
</g>
<!-- Node16 -->
<g id="Node000016" class="node">
<title>Node16</title>
<g id="a_Node000016"><a xlink:href="TwoDFieldOutputComponent_8cpp.html" target="_top" xlink:title=" ">
<polygon fill="white" stroke="#666666" points="1212.5,-30 1033.5,-30 1033.5,0 1212.5,0 1212.5,-30"/>
<text text-anchor="start" x="1041.5" y="-18" font-family="Helvetica,sans-Serif" font-size="10.00">Source/MemaClientCommon</text>
<text text-anchor="middle" x="1123" y="-7" font-family="Helvetica,sans-Serif" font-size="10.00">/TwoDFieldOutputComponent.cpp</text>
</a>
</g>
</g>
<!-- Node15&#45;&gt;Node16 -->
<g id="edge18_Node000015_Node000016" class="edge">
<title>Node15&#45;&gt;Node16</title>
<g id="a_edge18_Node000015_Node000016"><a xlink:title=" ">
<path fill="none" stroke="#63b8ff" d="M1127.36,-55.83C1126.41,-47.17 1125.37,-37.7 1124.55,-30.16"/>
<polygon fill="#63b8ff" stroke="#63b8ff" points="1123.88,-56.24 1128.45,-65.8 1130.84,-55.48 1123.88,-56.24"/>
</a>
</g>
</g>
<!-- Node17&#45;&gt;Node6 -->
<g id="edge20_Node000017_Node000006" class="edge">
<title>Node17&#45;&gt;Node6</title>
<g id="a_edge20_Node000017_Node000006"><a xlink:title=" ">
<path fill="none" stroke="#63b8ff" d="M675.07,-63.99C739.22,-51.47 825.88,-34.56 877.35,-24.52"/>
<polygon fill="#63b8ff" stroke="#63b8ff" points="674.13,-60.6 664.98,-65.95 675.47,-67.47 674.13,-60.6"/>
</a>
</g>
</g>
<!-- Node18 -->
<g id="Node000018" class="node">
<title>Node18</title>
<g id="a_Node000018"><a xlink:href="WaveformAudioComponent_8cpp.html" target="_top" xlink:title=" ">
<polygon fill="white" stroke="#666666" points="621,-30 447,-30 447,0 621,0 621,-30"/>
<text text-anchor="start" x="455" y="-18" font-family="Helvetica,sans-Serif" font-size="10.00">Source/MemaClientCommon</text>
<text text-anchor="middle" x="534" y="-7" font-family="Helvetica,sans-Serif" font-size="10.00">/WaveformAudioComponent.cpp</text>
</a>
</g>
</g>
<!-- Node17&#45;&gt;Node18 -->
<g id="edge21_Node000017_Node000018" class="edge">
<title>Node17&#45;&gt;Node18</title>
<g id="a_edge21_Node000017_Node000018"><a xlink:title=" ">
<path fill="none" stroke="#63b8ff" d="M573.06,-58.37C564.48,-49.06 554.69,-38.44 547.06,-30.16"/>
<polygon fill="#63b8ff" stroke="#63b8ff" points="570.55,-60.82 579.91,-65.8 575.7,-56.07 570.55,-60.82"/>
</a>
</g>
</g>
<!-- Node21&#45;&gt;Node20 -->
<g id="edge25_Node000021_Node000020" class="edge">
<title>Node21&#45;&gt;Node20</title>
<g id="a_edge25_Node000021_Node000020"><a xlink:title=" ">
<path fill="none" stroke="#63b8ff" d="M1538.3,-59.2C1527.02,-49.7 1513.95,-38.69 1503.82,-30.16"/>
<polygon fill="#63b8ff" stroke="#63b8ff" points="1536.23,-62.03 1546.13,-65.8 1540.74,-56.68 1536.23,-62.03"/>
</a>
</g>
</g>
<!-- Node21&#45;&gt;Node22 -->
<g id="edge26_Node000021_Node000022" class="edge">
<title>Node21&#45;&gt;Node22</title>
<g id="a_edge26_Node000021_Node000022"><a xlink:title=" ">
<path fill="none" stroke="#63b8ff" d="M1635.27,-63.71C1681.46,-53.31 1740.74,-39.95 1784.82,-30.01"/>
<polygon fill="#63b8ff" stroke="#63b8ff" points="1634.31,-60.34 1625.33,-65.95 1635.85,-67.17 1634.31,-60.34"/>
</a>
</g>
</g>
<!-- Node23&#45;&gt;Node6 -->
<g id="edge28_Node000023_Node000006" class="edge">
<title>Node23&#45;&gt;Node6</title>
<g id="a_edge28_Node000023_Node000006"><a xlink:title=" ">
<path fill="none" stroke="#63b8ff" d="M1220.98,-65.23C1144.15,-52.62 1036.33,-34.93 973.06,-24.54"/>
<polygon fill="#63b8ff" stroke="#63b8ff" points="1220.7,-68.73 1231.14,-66.89 1221.84,-61.82 1220.7,-68.73"/>
</a>
</g>
</g>
<!-- Node23&#45;&gt;Node20 -->
<g id="edge29_Node000023_Node000020" class="edge">
<title>Node23&#45;&gt;Node20</title>
<g id="a_edge29_Node000023_Node000020"><a xlink:title=" ">
<path fill="none" stroke="#63b8ff" d="M1359.24,-62.46C1387.32,-52.25 1422.24,-39.55 1448.47,-30.01"/>
<polygon fill="#63b8ff" stroke="#63b8ff" points="1357.83,-59.25 1349.62,-65.95 1360.22,-65.83 1357.83,-59.25"/>
</a>
</g>
</g>
<!-- Node24 -->
<g id="Node000024" class="node">
<title>Node24</title>
<g id="a_Node000024"><a xlink:href="MeterbridgeComponent_8cpp.html" target="_top" xlink:title=" ">
<polygon fill="white" stroke="#666666" points="1389.5,-30 1230.5,-30 1230.5,0 1389.5,0 1389.5,-30"/>
<text text-anchor="start" x="1238.5" y="-18" font-family="Helvetica,sans-Serif" font-size="10.00">Source/MemaProcessorEditor</text>
<text text-anchor="middle" x="1310" y="-7" font-family="Helvetica,sans-Serif" font-size="10.00">/MeterbridgeComponent.cpp</text>
</a>
</g>
</g>
<!-- Node23&#45;&gt;Node24 -->
<g id="edge30_Node000023_Node000024" class="edge">
<title>Node23&#45;&gt;Node24</title>
<g id="a_edge30_Node000023_Node000024"><a xlink:title=" ">
<path fill="none" stroke="#63b8ff" d="M1310.62,-55.54C1310.48,-46.96 1310.34,-37.61 1310.22,-30.16"/>
<polygon fill="#63b8ff" stroke="#63b8ff" points="1307.12,-55.85 1310.78,-65.8 1314.12,-55.74 1307.12,-55.85"/>
</a>
</g>
</g>
<!-- Node23&#45;&gt;Node25 -->
<g id="edge31_Node000023_Node000025" class="edge">
<title>Node23&#45;&gt;Node25</title>
<g id="a_edge31_Node000023_Node000025"><a xlink:title=" ">
<path fill="none" stroke="#63b8ff" d="M1399.05,-64.17C1457.3,-53.7 1532.99,-40.09 1589.06,-30.01"/>
<polygon fill="#63b8ff" stroke="#63b8ff" points="1398.35,-60.74 1389.13,-65.95 1399.59,-67.63 1398.35,-60.74"/>
</a>
</g>
</g>
<!-- Node26&#45;&gt;Node22 -->
<g id="edge34_Node000026_Node000022" class="edge">
<title>Node26&#45;&gt;Node22</title>
<g id="a_edge34_Node000026_Node000022"><a xlink:title=" ">
<path fill="none" stroke="#63b8ff" d="M1772.28,-60.69C1788.79,-50.82 1808.53,-39.01 1823.57,-30.01"/>
<polygon fill="#63b8ff" stroke="#63b8ff" points="1770.27,-57.82 1763.48,-65.95 1773.86,-63.83 1770.27,-57.82"/>
</a>
</g>
</g>
<!-- Node26&#45;&gt;Node25 -->
<g id="edge35_Node000026_Node000025" class="edge">
<title>Node26&#45;&gt;Node25</title>
<g id="a_edge35_Node000026_Node000025"><a xlink:title=" ">
<path fill="none" stroke="#63b8ff" d="M1716.28,-59.2C1705.44,-49.7 1692.88,-38.69 1683.16,-30.16"/>
<polygon fill="#63b8ff" stroke="#63b8ff" points="1713.97,-61.84 1723.8,-65.8 1718.59,-56.57 1713.97,-61.84"/>
</a>
</g>
</g>
</g>
</svg>
