<?xml version="1.0" encoding="UTF-8" standalone="no"?>
<!DOCTYPE svg PUBLIC "-//W3C//DTD SVG 1.1//EN"
 "http://www.w3.org/Graphics/SVG/1.1/DTD/svg11.dtd">
<!-- Generated by graphviz version 2.43.0 (0)
 -->
<!-- Title: Mema::ProcessorAudioSignalData Pages: 1 -->
<svg width="298pt" height="93pt"
 viewBox="0.00 0.00 298.00 93.00" xmlns="http://www.w3.org/2000/svg" xmlns:xlink="http://www.w3.org/1999/xlink">
<g id="graph0" class="graph" transform="scale(1 1) rotate(0) translate(4 89)">
<title>Mema::ProcessorAudioSignalData</title>
<!-- Node1 -->
<g id="Node000001" class="node">
<title>Node1</title>
<g id="a_Node000001"><a xlink:title=" ">
<polygon fill="#999999" stroke="#666666" points="250,-19 68,-19 68,0 250,0 250,-19"/>
<text text-anchor="middle" x="159" y="-7" font-family="Helvetica,sans-Serif" font-size="10.00">Mema::ProcessorAudioSignalData</text>
</a>
</g>
</g>
<!-- Node2 -->
<g id="Node000002" class="node">
<title>Node2</title>
<g id="a_Node000002"><a xlink:href="classMema_1_1AbstractProcessorData.html" target="_top" xlink:title="Base class for all data objects exchanged between the audio processor and its analyzers/visualisers.">
<polygon fill="white" stroke="#666666" points="164,-79.5 0,-79.5 0,-60.5 164,-60.5 164,-79.5"/>
<text text-anchor="middle" x="82" y="-67.5" font-family="Helvetica,sans-Serif" font-size="10.00">Mema::AbstractProcessorData</text>
</a>
</g>
</g>
<!-- Node2&#45;&gt;Node1 -->
<g id="edge1_Node000001_Node000002" class="edge">
<title>Node2&#45;&gt;Node1</title>
<g id="a_edge1_Node000001_Node000002"><a xlink:title=" ">
<path fill="none" stroke="#63b8ff" d="M101.69,-54.04C116.23,-42.99 135.52,-28.34 147.59,-19.17"/>
<polygon fill="#63b8ff" stroke="#63b8ff" points="99.21,-51.53 93.36,-60.37 103.44,-57.11 99.21,-51.53"/>
</a>
</g>
</g>
<!-- Node3 -->
<g id="Node000003" class="node">
<title>Node3</title>
<g id="a_Node000003"><a xlink:title=" ">
<polygon fill="white" stroke="#666666" points="290,-85 182,-85 182,-55 290,-55 290,-85"/>
<text text-anchor="start" x="190" y="-73" font-family="Helvetica,sans-Serif" font-size="10.00">juce::AudioBuffer&lt;</text>
<text text-anchor="middle" x="236" y="-62" font-family="Helvetica,sans-Serif" font-size="10.00"> float &gt;</text>
</a>
</g>
</g>
<!-- Node3&#45;&gt;Node1 -->
<g id="edge2_Node000001_Node000003" class="edge">
<title>Node3&#45;&gt;Node1</title>
<g id="a_edge2_Node000001_Node000003"><a xlink:title=" ">
<path fill="none" stroke="#63b8ff" d="M209.06,-48.53C195.87,-38.51 180.69,-26.98 170.54,-19.27"/>
<polygon fill="#63b8ff" stroke="#63b8ff" points="207.28,-51.58 217.36,-54.84 211.52,-46 207.28,-51.58"/>
</a>
</g>
</g>
</g>
</svg>
