<?xml version="1.0" encoding="UTF-8" standalone="no"?>
<!DOCTYPE svg PUBLIC "-//W3C//DTD SVG 1.1//EN"
 "http://www.w3.org/Graphics/SVG/1.1/DTD/svg11.dtd">
<!-- Generated by graphviz version 2.43.0 (0)
 -->
<!-- Title: Mema::MemaChannelCommander Pages: 1 -->
<svg width="674pt" height="161pt"
 viewBox="0.00 0.00 674.00 160.50" xmlns="http://www.w3.org/2000/svg" xmlns:xlink="http://www.w3.org/1999/xlink">
<g id="graph0" class="graph" transform="scale(1 1) rotate(0) translate(4 156.5)">
<title>Mema::MemaChannelCommander</title>
<!-- Node1 -->
<g id="Node000001" class="node">
<title>Node1</title>
<g id="a_Node000001"><a xlink:title=" ">
<polygon fill="#999999" stroke="#666666" points="184,-80 0,-80 0,-61 184,-61 184,-80"/>
<text text-anchor="middle" x="92" y="-68" font-family="Helvetica,sans-Serif" font-size="10.00">Mema::MemaChannelCommander</text>
</a>
</g>
</g>
<!-- Node2 -->
<g id="Node000002" class="node">
<title>Node2</title>
<g id="a_Node000002"><a xlink:href="classMema_1_1MemaCrosspointCommander.html" target="_top" xlink:title=" ">
<polygon fill="white" stroke="#666666" points="416,-117 220,-117 220,-98 416,-98 416,-117"/>
<text text-anchor="middle" x="318" y="-105" font-family="Helvetica,sans-Serif" font-size="10.00">Mema::MemaCrosspointCommander</text>
</a>
</g>
</g>
<!-- Node1&#45;&gt;Node2 -->
<g id="edge1_Node000001_Node000002" class="edge">
<title>Node1&#45;&gt;Node2</title>
<g id="a_edge1_Node000001_Node000002"><a xlink:title=" ">
<path fill="none" stroke="#63b8ff" d="M160.67,-81.68C192.08,-86.87 229.03,-92.97 259.12,-97.94"/>
<polygon fill="#63b8ff" stroke="#63b8ff" points="161.12,-78.2 150.69,-80.03 159.98,-85.11 161.12,-78.2"/>
</a>
</g>
</g>
<!-- Node5 -->
<g id="Node000005" class="node">
<title>Node5</title>
<g id="a_Node000005"><a xlink:href="classMema_1_1MemaInputCommander.html" target="_top" xlink:title=" ">
<polygon fill="white" stroke="#666666" points="402.5,-80 233.5,-80 233.5,-61 402.5,-61 402.5,-80"/>
<text text-anchor="middle" x="318" y="-68" font-family="Helvetica,sans-Serif" font-size="10.00">Mema::MemaInputCommander</text>
</a>
</g>
</g>
<!-- Node1&#45;&gt;Node5 -->
<g id="edge4_Node000001_Node000005" class="edge">
<title>Node1&#45;&gt;Node5</title>
<g id="a_edge4_Node000001_Node000005"><a xlink:title=" ">
<path fill="none" stroke="#63b8ff" d="M194.45,-70.5C207.41,-70.5 220.56,-70.5 233.19,-70.5"/>
<polygon fill="#63b8ff" stroke="#63b8ff" points="194.11,-67 184.11,-70.5 194.11,-74 194.11,-67"/>
</a>
</g>
</g>
<!-- Node7 -->
<g id="Node000007" class="node">
<title>Node7</title>
<g id="a_Node000007"><a xlink:href="classMema_1_1MemaOutputCommander.html" target="_top" xlink:title=" ">
<polygon fill="white" stroke="#666666" points="406.5,-43 229.5,-43 229.5,-24 406.5,-24 406.5,-43"/>
<text text-anchor="middle" x="318" y="-31" font-family="Helvetica,sans-Serif" font-size="10.00">Mema::MemaOutputCommander</text>
</a>
</g>
</g>
<!-- Node1&#45;&gt;Node7 -->
<g id="edge7_Node000001_Node000007" class="edge">
<title>Node1&#45;&gt;Node7</title>
<g id="a_edge7_Node000001_Node000007"><a xlink:title=" ">
<path fill="none" stroke="#63b8ff" d="M160.67,-59.32C192.08,-54.13 229.03,-48.03 259.12,-43.06"/>
<polygon fill="#63b8ff" stroke="#63b8ff" points="159.98,-55.89 150.69,-60.97 161.12,-62.8 159.98,-55.89"/>
</a>
</g>
</g>
<!-- Node3 -->
<g id="Node000003" class="node">
<title>Node3</title>
<g id="a_Node000003"><a xlink:href="classMema_1_1CrosspointsControlComponent.html" target="_top" xlink:title=" ">
<polygon fill="white" stroke="#666666" points="632,-152.5 486,-152.5 486,-122.5 632,-122.5 632,-152.5"/>
<text text-anchor="start" x="494" y="-140.5" font-family="Helvetica,sans-Serif" font-size="10.00">Mema::CrosspointsControl</text>
<text text-anchor="middle" x="559" y="-129.5" font-family="Helvetica,sans-Serif" font-size="10.00">Component</text>
</a>
</g>
</g>
<!-- Node2&#45;&gt;Node3 -->
<g id="edge2_Node000002_Node000003" class="edge">
<title>Node2&#45;&gt;Node3</title>
<g id="a_edge2_Node000002_Node000003"><a xlink:title=" ">
<path fill="none" stroke="#63b8ff" d="M404.99,-118.29C431.51,-121.62 460.43,-125.25 485.91,-128.45"/>
<polygon fill="#63b8ff" stroke="#63b8ff" points="405.31,-114.81 394.95,-117.03 404.44,-121.75 405.31,-114.81"/>
</a>
</g>
</g>
<!-- Node4 -->
<g id="Node000004" class="node">
<title>Node4</title>
<g id="a_Node000004"><a xlink:href="classMema_1_1MemaNetworkClientCommanderWrapper.html" target="_top" xlink:title=" ">
<polygon fill="white" stroke="#666666" points="666,-104.5 452,-104.5 452,-74.5 666,-74.5 666,-104.5"/>
<text text-anchor="start" x="460" y="-92.5" font-family="Helvetica,sans-Serif" font-size="10.00">Mema::MemaNetworkClientCommander</text>
<text text-anchor="middle" x="559" y="-81.5" font-family="Helvetica,sans-Serif" font-size="10.00">Wrapper</text>
</a>
</g>
</g>
<!-- Node2&#45;&gt;Node4 -->
<g id="edge3_Node000002_Node000004" class="edge">
<title>Node2&#45;&gt;Node4</title>
<g id="a_edge3_Node000002_Node000004"><a xlink:title=" ">
<path fill="none" stroke="#63b8ff" d="M426.19,-99.43C434.74,-98.78 443.37,-98.13 451.91,-97.49"/>
<polygon fill="#63b8ff" stroke="#63b8ff" points="425.92,-95.94 416.21,-100.18 426.45,-102.92 425.92,-95.94"/>
</a>
</g>
</g>
<!-- Node5&#45;&gt;Node4 -->
<g id="edge6_Node000005_Node000004" class="edge">
<title>Node5&#45;&gt;Node4</title>
<g id="a_edge6_Node000005_Node000004"><a xlink:title=" ">
<path fill="none" stroke="#63b8ff" d="M412.75,-77.95C425.55,-78.97 438.77,-80.02 451.77,-81.05"/>
<polygon fill="#63b8ff" stroke="#63b8ff" points="412.84,-74.45 402.59,-77.15 412.28,-81.43 412.84,-74.45"/>
</a>
</g>
</g>
<!-- Node6 -->
<g id="Node000006" class="node">
<title>Node6</title>
<g id="a_Node000006"><a xlink:href="classMema_1_1InputControlComponent.html" target="_top" xlink:title="Input&#45;channel control strip — shows level meters and mute buttons for all input channels.">
<polygon fill="white" stroke="#666666" points="644,-56 474,-56 474,-37 644,-37 644,-56"/>
<text text-anchor="middle" x="559" y="-44" font-family="Helvetica,sans-Serif" font-size="10.00">Mema::InputControlComponent</text>
</a>
</g>
</g>
<!-- Node5&#45;&gt;Node6 -->
<g id="edge5_Node000005_Node000006" class="edge">
<title>Node5&#45;&gt;Node6</title>
<g id="a_edge5_Node000005_Node000006"><a xlink:title=" ">
<path fill="none" stroke="#63b8ff" d="M412.68,-61.09C432.79,-59.07 453.92,-56.95 473.65,-54.97"/>
<polygon fill="#63b8ff" stroke="#63b8ff" points="412.19,-57.62 402.59,-62.11 412.89,-64.59 412.19,-57.62"/>
</a>
</g>
</g>
<!-- Node7&#45;&gt;Node4 -->
<g id="edge8_Node000007_Node000004" class="edge">
<title>Node7&#45;&gt;Node4</title>
<g id="a_edge8_Node000007_Node000004"><a xlink:title=" ">
<path fill="none" stroke="#63b8ff" d="M385.13,-45.04C395.52,-47.26 406.1,-49.76 416,-52.5 432.4,-57.04 435.67,-60.72 452,-65.5 462.96,-68.71 474.65,-71.74 486.13,-74.5"/>
<polygon fill="#63b8ff" stroke="#63b8ff" points="385.75,-41.6 375.25,-43 384.34,-48.45 385.75,-41.6"/>
</a>
</g>
</g>
<!-- Node8 -->
<g id="Node000008" class="node">
<title>Node8</title>
<g id="a_Node000008"><a xlink:href="classMema_1_1OutputControlComponent.html" target="_top" xlink:title="Output&#45;channel control strip — shows level meters and mute buttons for all output channels.">
<polygon fill="white" stroke="#666666" points="648,-19 470,-19 470,0 648,0 648,-19"/>
<text text-anchor="middle" x="559" y="-7" font-family="Helvetica,sans-Serif" font-size="10.00">Mema::OutputControlComponent</text>
</a>
</g>
</g>
<!-- Node7&#45;&gt;Node8 -->
<g id="edge9_Node000007_Node000008" class="edge">
<title>Node7&#45;&gt;Node8</title>
<g id="a_edge9_Node000007_Node000008"><a xlink:title=" ">
<path fill="none" stroke="#63b8ff" d="M416.9,-23.67C434.48,-21.9 452.7,-20.07 469.97,-18.34"/>
<polygon fill="#63b8ff" stroke="#63b8ff" points="416.24,-20.22 406.64,-24.7 416.94,-27.18 416.24,-20.22"/>
</a>
</g>
</g>
</g>
</svg>
