<?xml version="1.0" encoding="UTF-8" standalone="no"?>
<!DOCTYPE svg PUBLIC "-//W3C//DTD SVG 1.1//EN"
 "http://www.w3.org/Graphics/SVG/1.1/DTD/svg11.dtd">
<!-- Generated by graphviz version 2.43.0 (0)
 -->
<!-- Title: Mema::SpectrumAudioComponent Pages: 1 -->
<svg width="381pt" height="148pt"
 viewBox="0.00 0.00 381.00 148.00" xmlns="http://www.w3.org/2000/svg" xmlns:xlink="http://www.w3.org/1999/xlink">

<svg id="main" version="1.1" xmlns="http://www.w3.org/2000/svg" xmlns:xlink="http://www.w3.org/1999/xlink" xml:space="preserve" onload="init(evt)">
<style type="text/css"><![CDATA[
.node, .edge {opacity: 0.7;}
.node.selected, .edge.selected {opacity: 1;}
.edge:hover path { stroke: red; }
.edge:hover polygon { stroke: red; fill: red; }
]]></style>
<script type="application/ecmascript" xlink:href="svg.min.js"/>
<svg id="graph" class="graph">
<g id="graph0" class="graph" transform="scale(1 1) rotate(0) translate(4 144)">
<title>Mema::SpectrumAudioComponent</title>
<!-- Node1 -->
<g id="Node000001" class="node">
<title>Node1</title>
<g id="a_Node000001"><a xlink:title=" ">
<polygon fill="#999999" stroke="#666666" points="292.5,-19 108.5,-19 108.5,0 292.5,0 292.5,-19"/>
<text text-anchor="middle" x="200.5" y="-7" font-family="Helvetica,sans-Serif" font-size="10.00">Mema::SpectrumAudioComponent</text>
</a>
</g>
</g>
<!-- Node2 -->
<g id="Node000002" class="node">
<title>Node2</title>
<g id="a_Node000002"><a xlink:href="classMema_1_1AbstractAudioVisualizer.html" target="_top" xlink:title="Base class for all audio&#45;data visualisation components in the Mema processor editor.">
<polygon fill="white" stroke="#666666" points="285.5,-74 115.5,-74 115.5,-55 285.5,-55 285.5,-74"/>
<text text-anchor="middle" x="200.5" y="-62" font-family="Helvetica,sans-Serif" font-size="10.00">Mema::AbstractAudioVisualizer</text>
</a>
</g>
</g>
<!-- Node2&#45;&gt;Node1 -->
<g id="edge1_Node000001_Node000002" class="edge">
<title>Node2&#45;&gt;Node1</title>
<g id="a_edge1_Node000001_Node000002"><a xlink:title=" ">
<path fill="none" stroke="#63b8ff" d="M200.5,-44.66C200.5,-35.93 200.5,-25.99 200.5,-19.09"/>
<polygon fill="#63b8ff" stroke="#63b8ff" points="197,-44.75 200.5,-54.75 204,-44.75 197,-44.75"/>
</a>
</g>
</g>
<!-- Node3 -->
<g id="Node000003" class="node">
<title>Node3</title>
<g id="a_Node000003"><a xlink:title=" ">
<polygon fill="white" stroke="#666666" points="99,-134.5 0,-134.5 0,-115.5 99,-115.5 99,-134.5"/>
<text text-anchor="middle" x="49.5" y="-122.5" font-family="Helvetica,sans-Serif" font-size="10.00">juce::Component</text>
</a>
</g>
</g>
<!-- Node3&#45;&gt;Node2 -->
<g id="edge2_Node000002_Node000003" class="edge">
<title>Node3&#45;&gt;Node2</title>
<g id="a_edge2_Node000002_Node000003"><a xlink:title=" ">
<path fill="none" stroke="#63b8ff" d="M80.79,-111.88C109.98,-100.57 152.78,-83.99 178.52,-74.02"/>
<polygon fill="#63b8ff" stroke="#63b8ff" points="79.52,-108.62 71.46,-115.49 82.05,-115.14 79.52,-108.62"/>
</a>
</g>
</g>
<!-- Node4 -->
<g id="Node000004" class="node">
<title>Node4</title>
<g id="a_Node000004"><a xlink:href="classMema_1_1ProcessorDataAnalyzer_1_1Listener.html" target="_top" xlink:title=" ">
<polygon fill="white" stroke="#666666" points="284,-140 117,-140 117,-110 284,-110 284,-140"/>
<text text-anchor="start" x="125" y="-128" font-family="Helvetica,sans-Serif" font-size="10.00">Mema::ProcessorDataAnalyzer</text>
<text text-anchor="middle" x="200.5" y="-117" font-family="Helvetica,sans-Serif" font-size="10.00">::Listener</text>
</a>
</g>
</g>
<!-- Node4&#45;&gt;Node2 -->
<g id="edge3_Node000002_Node000004" class="edge">
<title>Node4&#45;&gt;Node2</title>
<g id="a_edge3_Node000002_Node000004"><a xlink:title=" ">
<path fill="none" stroke="#63b8ff" d="M200.5,-99.75C200.5,-90.72 200.5,-81.03 200.5,-74.27"/>
<polygon fill="#63b8ff" stroke="#63b8ff" points="197,-99.84 200.5,-109.84 204,-99.84 197,-99.84"/>
</a>
</g>
</g>
<!-- Node5 -->
<g id="Node000005" class="node">
<title>Node5</title>
<g id="a_Node000005"><a xlink:title=" ">
<polygon fill="white" stroke="#666666" points="373,-134.5 302,-134.5 302,-115.5 373,-115.5 373,-134.5"/>
<text text-anchor="middle" x="337.5" y="-122.5" font-family="Helvetica,sans-Serif" font-size="10.00">juce::Timer</text>
</a>
</g>
</g>
<!-- Node5&#45;&gt;Node2 -->
<g id="edge4_Node000002_Node000005" class="edge">
<title>Node5&#45;&gt;Node2</title>
<g id="a_edge4_Node000002_Node000005"><a xlink:title=" ">
<path fill="none" stroke="#63b8ff" d="M308.07,-111.43C281.62,-100.14 243.49,-83.86 220.45,-74.02"/>
<polygon fill="#63b8ff" stroke="#63b8ff" points="307.01,-114.79 317.58,-115.49 309.76,-108.35 307.01,-114.79"/>
</a>
</g>
</g>
</g>
</svg>
</svg>

<style type='text/css'>
<![CDATA[
[data-mouse-over-selected='false'] { opacity: 0.7; }
[data-mouse-over-selected='true']  { opacity: 1.0; }
]]>
</style>
<script type="application/ecmascript"><![CDATA[
document.addEventListener('DOMContentLoaded', (event) => {
  highlightEdges();
  highlightAdjacentNodes();
});
]]></script>
</svg>
