<?xml version="1.0" encoding="UTF-8" standalone="no"?>
<!DOCTYPE svg PUBLIC "-//W3C//DTD SVG 1.1//EN"
 "http://www.w3.org/Graphics/SVG/1.1/DTD/svg11.dtd">
<!-- Generated by graphviz version 2.43.0 (0)
 -->
<!-- Title: Mema::InputControlComponent Pages: 1 -->
<svg width="604pt" height="176pt"
 viewBox="0.00 0.00 604.00 176.00" xmlns="http://www.w3.org/2000/svg" xmlns:xlink="http://www.w3.org/1999/xlink">
<g id="graph0" class="graph" transform="scale(1 1) rotate(0) translate(4 172)">
<title>Mema::InputControlComponent</title>
<!-- Node1 -->
<g id="Node000001" class="node">
<title>Node1</title>
<g id="a_Node000001"><a xlink:title="Input&#45;channel control strip — shows level meters and mute buttons for all input channels.">
<polygon fill="#999999" stroke="#666666" points="596,-56 426,-56 426,-37 596,-37 596,-56"/>
<text text-anchor="middle" x="511" y="-44" font-family="Helvetica,sans-Serif" font-size="10.00">Mema::InputControlComponent</text>
</a>
</g>
</g>
<!-- Node2 -->
<g id="Node000002" class="node">
<title>Node2</title>
<g id="a_Node000002"><a xlink:href="classMema_1_1AbstractAudioVisualizer.html" target="_top" xlink:title="Base class for all audio&#45;data visualisation components in the Mema processor editor.">
<polygon fill="white" stroke="#666666" points="390,-114 220,-114 220,-95 390,-95 390,-114"/>
<text text-anchor="middle" x="305" y="-102" font-family="Helvetica,sans-Serif" font-size="10.00">Mema::AbstractAudioVisualizer</text>
</a>
</g>
</g>
<!-- Node2&#45;&gt;Node1 -->
<g id="edge1_Node000001_Node000002" class="edge">
<title>Node2&#45;&gt;Node1</title>
<g id="a_edge1_Node000001_Node000002"><a xlink:title=" ">
<path fill="none" stroke="#63b8ff" d="M349.43,-92.15C387.33,-81.38 441.55,-65.96 476.26,-56.09"/>
<polygon fill="#63b8ff" stroke="#63b8ff" points="348.35,-88.82 339.69,-94.92 350.26,-95.55 348.35,-88.82"/>
</a>
</g>
</g>
<!-- Node3 -->
<g id="Node000003" class="node">
<title>Node3</title>
<g id="a_Node000003"><a xlink:title=" ">
<polygon fill="white" stroke="#666666" points="141.5,-168 42.5,-168 42.5,-149 141.5,-149 141.5,-168"/>
<text text-anchor="middle" x="92" y="-156" font-family="Helvetica,sans-Serif" font-size="10.00">juce::Component</text>
</a>
</g>
</g>
<!-- Node3&#45;&gt;Node2 -->
<g id="edge2_Node000002_Node000003" class="edge">
<title>Node3&#45;&gt;Node2</title>
<g id="a_edge2_Node000002_Node000003"><a xlink:title=" ">
<path fill="none" stroke="#63b8ff" d="M151.6,-146.97C162.41,-144.64 173.57,-142.11 184,-139.5 214.74,-131.82 249.45,-121.52 273.6,-114.08"/>
<polygon fill="#63b8ff" stroke="#63b8ff" points="150.86,-143.55 141.8,-149.04 152.31,-150.39 150.86,-143.55"/>
</a>
</g>
</g>
<!-- Node4 -->
<g id="Node000004" class="node">
<title>Node4</title>
<g id="a_Node000004"><a xlink:href="classMema_1_1ProcessorDataAnalyzer_1_1Listener.html" target="_top" xlink:title=" ">
<polygon fill="white" stroke="#666666" points="175.5,-130.5 8.5,-130.5 8.5,-100.5 175.5,-100.5 175.5,-130.5"/>
<text text-anchor="start" x="16.5" y="-118.5" font-family="Helvetica,sans-Serif" font-size="10.00">Mema::ProcessorDataAnalyzer</text>
<text text-anchor="middle" x="92" y="-107.5" font-family="Helvetica,sans-Serif" font-size="10.00">::Listener</text>
</a>
</g>
</g>
<!-- Node4&#45;&gt;Node2 -->
<g id="edge3_Node000002_Node000004" class="edge">
<title>Node4&#45;&gt;Node2</title>
<g id="a_edge3_Node000002_Node000004"><a xlink:title=" ">
<path fill="none" stroke="#63b8ff" d="M186.02,-110.65C197.23,-110.07 208.64,-109.47 219.72,-108.89"/>
<polygon fill="#63b8ff" stroke="#63b8ff" points="185.59,-107.17 175.79,-111.18 185.96,-114.16 185.59,-107.17"/>
</a>
</g>
</g>
<!-- Node5 -->
<g id="Node000005" class="node">
<title>Node5</title>
<g id="a_Node000005"><a xlink:title=" ">
<polygon fill="white" stroke="#666666" points="127.5,-82 56.5,-82 56.5,-63 127.5,-63 127.5,-82"/>
<text text-anchor="middle" x="92" y="-70" font-family="Helvetica,sans-Serif" font-size="10.00">juce::Timer</text>
</a>
</g>
</g>
<!-- Node5&#45;&gt;Node2 -->
<g id="edge4_Node000002_Node000005" class="edge">
<title>Node5&#45;&gt;Node2</title>
<g id="a_edge4_Node000002_Node000005"><a xlink:title=" ">
<path fill="none" stroke="#63b8ff" d="M138.01,-79.33C167.99,-83.87 207.82,-89.91 240.95,-94.94"/>
<polygon fill="#63b8ff" stroke="#63b8ff" points="138.25,-75.82 127.84,-77.78 137.2,-82.74 138.25,-75.82"/>
</a>
</g>
</g>
<!-- Node6 -->
<g id="Node000006" class="node">
<title>Node6</title>
<g id="a_Node000006"><a xlink:href="classMema_1_1MemaInputCommander.html" target="_top" xlink:title=" ">
<polygon fill="white" stroke="#666666" points="389.5,-56 220.5,-56 220.5,-37 389.5,-37 389.5,-56"/>
<text text-anchor="middle" x="305" y="-44" font-family="Helvetica,sans-Serif" font-size="10.00">Mema::MemaInputCommander</text>
</a>
</g>
</g>
<!-- Node6&#45;&gt;Node1 -->
<g id="edge5_Node000001_Node000006" class="edge">
<title>Node6&#45;&gt;Node1</title>
<g id="a_edge5_Node000001_Node000006"><a xlink:title=" ">
<path fill="none" stroke="#63b8ff" d="M399.75,-46.5C408.47,-46.5 417.28,-46.5 425.91,-46.5"/>
<polygon fill="#63b8ff" stroke="#63b8ff" points="399.56,-43 389.56,-46.5 399.56,-50 399.56,-43"/>
</a>
</g>
</g>
<!-- Node7 -->
<g id="Node000007" class="node">
<title>Node7</title>
<g id="a_Node000007"><a xlink:href="classMema_1_1MemaChannelCommander.html" target="_top" xlink:title=" ">
<polygon fill="white" stroke="#666666" points="184,-45 0,-45 0,-26 184,-26 184,-45"/>
<text text-anchor="middle" x="92" y="-33" font-family="Helvetica,sans-Serif" font-size="10.00">Mema::MemaChannelCommander</text>
</a>
</g>
</g>
<!-- Node7&#45;&gt;Node6 -->
<g id="edge6_Node000006_Node000007" class="edge">
<title>Node7&#45;&gt;Node6</title>
<g id="a_edge6_Node000006_Node000007"><a xlink:title=" ">
<path fill="none" stroke="#63b8ff" d="M194.22,-40.78C202.95,-41.23 211.71,-41.69 220.28,-42.14"/>
<polygon fill="#63b8ff" stroke="#63b8ff" points="194.18,-37.27 184.01,-40.24 193.82,-44.26 194.18,-37.27"/>
</a>
</g>
</g>
<!-- Node8 -->
<g id="Node000008" class="node">
<title>Node8</title>
<g id="a_Node000008"><a xlink:title=" ">
<polygon fill="white" stroke="#666666" points="375,-19 235,-19 235,0 375,0 375,-19"/>
<text text-anchor="middle" x="305" y="-7" font-family="Helvetica,sans-Serif" font-size="10.00">juce::TextButton::Listener</text>
</a>
</g>
</g>
<!-- Node8&#45;&gt;Node1 -->
<g id="edge7_Node000001_Node000008" class="edge">
<title>Node8&#45;&gt;Node1</title>
<g id="a_edge7_Node000001_Node000008"><a xlink:title=" ">
<path fill="none" stroke="#63b8ff" d="M368.75,-20.88C397.11,-26.02 430.24,-32.03 457.29,-36.94"/>
<polygon fill="#63b8ff" stroke="#63b8ff" points="369,-17.37 358.54,-19.03 367.75,-24.26 369,-17.37"/>
</a>
</g>
</g>
</g>
</svg>
