<?xml version="1.0" encoding="UTF-8" standalone="no"?>
<!DOCTYPE svg PUBLIC "-//W3C//DTD SVG 1.1//EN"
 "http://www.w3.org/Graphics/SVG/1.1/DTD/svg11.dtd">
<!-- Generated by graphviz version 2.43.0 (0)
 -->
<!-- Title: Mema::AbstractAudioVisualizer Pages: 1 -->
<svg width="381pt" height="93pt"
 viewBox="0.00 0.00 381.00 93.00" xmlns="http://www.w3.org/2000/svg" xmlns:xlink="http://www.w3.org/1999/xlink">

<svg id="main" version="1.1" xmlns="http://www.w3.org/2000/svg" xmlns:xlink="http://www.w3.org/1999/xlink" xml:space="preserve" onload="init(evt)">
<style type="text/css"><![CDATA[
.node, .edge {opacity: 0.7;}
.node.selected, .edge.selected {opacity: 1;}
.edge:hover path { stroke: red; }
.edge:hover polygon { stroke: red; fill: red; }
]]></style>
<script type="application/ecmascript" xlink:href="svg.min.js"/>
<svg id="graph" class="graph">
<g id="graph0" class="graph" transform="scale(1 1) rotate(0) translate(4 89)">
<title>Mema::AbstractAudioVisualizer</title>
<!-- Node1 -->
<g id="Node000001" class="node">
<title>Node1</title>
<g id="a_Node000001"><a xlink:title="Base class for all audio&#45;data visualisation components in the Mema processor editor.">
<polygon fill="#999999" stroke="#666666" points="285.5,-19 115.5,-19 115.5,0 285.5,0 285.5,-19"/>
<text text-anchor="middle" x="200.5" y="-7" font-family="Helvetica,sans-Serif" font-size="10.00">Mema::AbstractAudioVisualizer</text>
</a>
</g>
</g>
<!-- Node2 -->
<g id="Node000002" class="node">
<title>Node2</title>
<g id="a_Node000002"><a xlink:title=" ">
<polygon fill="white" stroke="#666666" points="99,-79.5 0,-79.5 0,-60.5 99,-60.5 99,-79.5"/>
<text text-anchor="middle" x="49.5" y="-67.5" font-family="Helvetica,sans-Serif" font-size="10.00">juce::Component</text>
</a>
</g>
</g>
<!-- Node2&#45;&gt;Node1 -->
<g id="edge1_Node000001_Node000002" class="edge">
<title>Node2&#45;&gt;Node1</title>
<g id="a_edge1_Node000001_Node000002"><a xlink:title=" ">
<path fill="none" stroke="#63b8ff" d="M80.79,-56.88C109.98,-45.57 152.78,-28.99 178.52,-19.02"/>
<polygon fill="#63b8ff" stroke="#63b8ff" points="79.52,-53.62 71.46,-60.49 82.05,-60.14 79.52,-53.62"/>
</a>
</g>
</g>
<!-- Node3 -->
<g id="Node000003" class="node">
<title>Node3</title>
<g id="a_Node000003"><a xlink:href="classMema_1_1ProcessorDataAnalyzer_1_1Listener.html" target="_top" xlink:title=" ">
<polygon fill="white" stroke="#666666" points="284,-85 117,-85 117,-55 284,-55 284,-85"/>
<text text-anchor="start" x="125" y="-73" font-family="Helvetica,sans-Serif" font-size="10.00">Mema::ProcessorDataAnalyzer</text>
<text text-anchor="middle" x="200.5" y="-62" font-family="Helvetica,sans-Serif" font-size="10.00">::Listener</text>
</a>
</g>
</g>
<!-- Node3&#45;&gt;Node1 -->
<g id="edge2_Node000001_Node000003" class="edge">
<title>Node3&#45;&gt;Node1</title>
<g id="a_edge2_Node000001_Node000003"><a xlink:title=" ">
<path fill="none" stroke="#63b8ff" d="M200.5,-44.75C200.5,-35.72 200.5,-26.03 200.5,-19.27"/>
<polygon fill="#63b8ff" stroke="#63b8ff" points="197,-44.84 200.5,-54.84 204,-44.84 197,-44.84"/>
</a>
</g>
</g>
<!-- Node4 -->
<g id="Node000004" class="node">
<title>Node4</title>
<g id="a_Node000004"><a xlink:title=" ">
<polygon fill="white" stroke="#666666" points="373,-79.5 302,-79.5 302,-60.5 373,-60.5 373,-79.5"/>
<text text-anchor="middle" x="337.5" y="-67.5" font-family="Helvetica,sans-Serif" font-size="10.00">juce::Timer</text>
</a>
</g>
</g>
<!-- Node4&#45;&gt;Node1 -->
<g id="edge3_Node000001_Node000004" class="edge">
<title>Node4&#45;&gt;Node1</title>
<g id="a_edge3_Node000001_Node000004"><a xlink:title=" ">
<path fill="none" stroke="#63b8ff" d="M308.07,-56.43C281.62,-45.14 243.49,-28.86 220.45,-19.02"/>
<polygon fill="#63b8ff" stroke="#63b8ff" points="307.01,-59.79 317.58,-60.49 309.76,-53.35 307.01,-59.79"/>
</a>
</g>
</g>
</g>
</svg>
</svg>

<style type='text/css'>
<![CDATA[
[data-mouse-over-selected='false'] { opacity: 0.7; }
[data-mouse-over-selected='true']  { opacity: 1.0; }
]]>
</style>
<script type="application/ecmascript"><![CDATA[
document.addEventListener('DOMContentLoaded', (event) => {
  highlightEdges();
  highlightAdjacentNodes();
});
]]></script>
</svg>
