<?xml version="1.0" encoding="UTF-8" standalone="no"?>
<!DOCTYPE svg PUBLIC "-//W3C//DTD SVG 1.1//EN"
 "http://www.w3.org/Graphics/SVG/1.1/DTD/svg11.dtd">
<!-- Generated by graphviz version 2.43.0 (0)
 -->
<!-- Title: Mema::MemaClientControlComponentBase Pages: 1 -->
<svg width="602pt" height="101pt"
 viewBox="0.00 0.00 602.00 101.00" xmlns="http://www.w3.org/2000/svg" xmlns:xlink="http://www.w3.org/1999/xlink">
<g id="graph0" class="graph" transform="scale(1 1) rotate(0) translate(4 97)">
<title>Mema::MemaClientControlComponentBase</title>
<!-- Node1 -->
<g id="Node000001" class="node">
<title>Node1</title>
<g id="a_Node000001"><a xlink:title="Abstract base for all Mema.Re client control panels.">
<polygon fill="#999999" stroke="#666666" points="363,-56 135,-56 135,-37 363,-37 363,-56"/>
<text text-anchor="middle" x="249" y="-44" font-family="Helvetica,sans-Serif" font-size="10.00">Mema::MemaClientControlComponentBase</text>
</a>
</g>
</g>
<!-- Node3 -->
<g id="Node000003" class="node">
<title>Node3</title>
<g id="a_Node000003"><a xlink:href="classMema_1_1FaderbankControlComponent.html" target="_top" xlink:title="Fader&#45;bank remote control — presents input×output crosspoint sliders and mute buttons.">
<polygon fill="white" stroke="#666666" points="594,-93 399,-93 399,-74 594,-74 594,-93"/>
<text text-anchor="middle" x="496.5" y="-81" font-family="Helvetica,sans-Serif" font-size="10.00">Mema::FaderbankControlComponent</text>
</a>
</g>
</g>
<!-- Node1&#45;&gt;Node3 -->
<g id="edge2_Node000001_Node000003" class="edge">
<title>Node1&#45;&gt;Node3</title>
<g id="a_edge2_Node000001_Node000003"><a xlink:title=" ">
<path fill="none" stroke="#63b8ff" d="M323.27,-57.54C357.89,-62.76 398.8,-68.93 432.07,-73.94"/>
<polygon fill="#63b8ff" stroke="#63b8ff" points="323.63,-54.06 313.22,-56.03 322.59,-60.98 323.63,-54.06"/>
</a>
</g>
</g>
<!-- Node4 -->
<g id="Node000004" class="node">
<title>Node4</title>
<g id="a_Node000004"><a xlink:href="classMema_1_1PanningControlComponent.html" target="_top" xlink:title="2&#45;D spatial panning remote control for Mema.Re.">
<polygon fill="white" stroke="#666666" points="588,-56 405,-56 405,-37 588,-37 588,-56"/>
<text text-anchor="middle" x="496.5" y="-44" font-family="Helvetica,sans-Serif" font-size="10.00">Mema::PanningControlComponent</text>
</a>
</g>
</g>
<!-- Node1&#45;&gt;Node4 -->
<g id="edge3_Node000001_Node000004" class="edge">
<title>Node1&#45;&gt;Node4</title>
<g id="a_edge3_Node000001_Node000004"><a xlink:title=" ">
<path fill="none" stroke="#63b8ff" d="M373.22,-46.5C383.83,-46.5 394.44,-46.5 404.73,-46.5"/>
<polygon fill="#63b8ff" stroke="#63b8ff" points="373.05,-43 363.05,-46.5 373.05,-50 373.05,-43"/>
</a>
</g>
</g>
<!-- Node5 -->
<g id="Node000005" class="node">
<title>Node5</title>
<g id="a_Node000005"><a xlink:href="classMema_1_1PluginControlComponent.html" target="_top" xlink:title=" ">
<polygon fill="white" stroke="#666666" points="584,-19 409,-19 409,0 584,0 584,-19"/>
<text text-anchor="middle" x="496.5" y="-7" font-family="Helvetica,sans-Serif" font-size="10.00">Mema::PluginControlComponent</text>
</a>
</g>
</g>
<!-- Node1&#45;&gt;Node5 -->
<g id="edge4_Node000001_Node000005" class="edge">
<title>Node1&#45;&gt;Node5</title>
<g id="a_edge4_Node000001_Node000005"><a xlink:title=" ">
<path fill="none" stroke="#63b8ff" d="M323.27,-35.46C357.89,-30.24 398.8,-24.07 432.07,-19.06"/>
<polygon fill="#63b8ff" stroke="#63b8ff" points="322.59,-32.02 313.22,-36.97 323.63,-38.94 322.59,-32.02"/>
</a>
</g>
</g>
<!-- Node2 -->
<g id="Node000002" class="node">
<title>Node2</title>
<g id="a_Node000002"><a xlink:title=" ">
<polygon fill="white" stroke="#666666" points="99,-56 0,-56 0,-37 99,-37 99,-56"/>
<text text-anchor="middle" x="49.5" y="-44" font-family="Helvetica,sans-Serif" font-size="10.00">juce::Component</text>
</a>
</g>
</g>
<!-- Node2&#45;&gt;Node1 -->
<g id="edge1_Node000001_Node000002" class="edge">
<title>Node2&#45;&gt;Node1</title>
<g id="a_edge1_Node000001_Node000002"><a xlink:title=" ">
<path fill="none" stroke="#63b8ff" d="M109.22,-46.5C117.43,-46.5 126.1,-46.5 134.91,-46.5"/>
<polygon fill="#63b8ff" stroke="#63b8ff" points="109.07,-43 99.07,-46.5 109.07,-50 109.07,-43"/>
</a>
</g>
</g>
</g>
</svg>
