<?xml version="1.0" encoding="UTF-8" standalone="no"?>
<!DOCTYPE svg PUBLIC "-//W3C//DTD SVG 1.1//EN"
 "http://www.w3.org/Graphics/SVG/1.1/DTD/svg11.dtd">
<!-- Generated by graphviz version 2.43.0 (0)
 -->
<!-- Title: Mema::ProcessorDataAnalyzer::Listener Pages: 1 -->
<svg width="609pt" height="212pt"
 viewBox="0.00 0.00 609.00 212.00" xmlns="http://www.w3.org/2000/svg" xmlns:xlink="http://www.w3.org/1999/xlink">
<g id="graph0" class="graph" transform="scale(1 1) rotate(0) translate(4 208)">
<title>Mema::ProcessorDataAnalyzer::Listener</title>
<!-- Node1 -->
<g id="Node000001" class="node">
<title>Node1</title>
<g id="a_Node000001"><a xlink:title=" ">
<polygon fill="#999999" stroke="#666666" points="167,-116.5 0,-116.5 0,-86.5 167,-86.5 167,-116.5"/>
<text text-anchor="start" x="8" y="-104.5" font-family="Helvetica,sans-Serif" font-size="10.00">Mema::ProcessorDataAnalyzer</text>
<text text-anchor="middle" x="83.5" y="-93.5" font-family="Helvetica,sans-Serif" font-size="10.00">::Listener</text>
</a>
</g>
</g>
<!-- Node2 -->
<g id="Node000002" class="node">
<title>Node2</title>
<g id="a_Node000002"><a xlink:href="classMema_1_1AbstractAudioVisualizer.html" target="_top" xlink:title="Base class for all audio&#45;data visualisation components in the Mema processor editor.">
<polygon fill="white" stroke="#666666" points="373,-111 203,-111 203,-92 373,-92 373,-111"/>
<text text-anchor="middle" x="288" y="-99" font-family="Helvetica,sans-Serif" font-size="10.00">Mema::AbstractAudioVisualizer</text>
</a>
</g>
</g>
<!-- Node1&#45;&gt;Node2 -->
<g id="edge1_Node000001_Node000002" class="edge">
<title>Node1&#45;&gt;Node2</title>
<g id="a_edge1_Node000001_Node000002"><a xlink:title=" ">
<path fill="none" stroke="#63b8ff" d="M177.19,-101.5C185.78,-101.5 194.46,-101.5 202.97,-101.5"/>
<polygon fill="#63b8ff" stroke="#63b8ff" points="177.16,-98 167.16,-101.5 177.16,-105 177.16,-98"/>
</a>
</g>
</g>
<!-- Node3 -->
<g id="Node000003" class="node">
<title>Node3</title>
<g id="a_Node000003"><a xlink:href="classMema_1_1InputControlComponent.html" target="_top" xlink:title="Input&#45;channel control strip — shows level meters and mute buttons for all input channels.">
<polygon fill="white" stroke="#666666" points="590,-204 420,-204 420,-185 590,-185 590,-204"/>
<text text-anchor="middle" x="505" y="-192" font-family="Helvetica,sans-Serif" font-size="10.00">Mema::InputControlComponent</text>
</a>
</g>
</g>
<!-- Node2&#45;&gt;Node3 -->
<g id="edge2_Node000002_Node000003" class="edge">
<title>Node2&#45;&gt;Node3</title>
<g id="a_edge2_Node000002_Node000003"><a xlink:title=" ">
<path fill="none" stroke="#63b8ff" d="M309,-117.29C331.85,-134.53 371.03,-161.64 409,-176.5 417.75,-179.92 427.22,-182.71 436.68,-184.98"/>
<polygon fill="#63b8ff" stroke="#63b8ff" points="310.86,-114.31 300.8,-111 306.6,-119.87 310.86,-114.31"/>
</a>
</g>
</g>
<!-- Node4 -->
<g id="Node000004" class="node">
<title>Node4</title>
<g id="a_Node000004"><a xlink:href="classMema_1_1MeterbridgeComponent.html" target="_top" xlink:title=" ">
<polygon fill="white" stroke="#666666" points="589.5,-167 420.5,-167 420.5,-148 589.5,-148 589.5,-167"/>
<text text-anchor="middle" x="505" y="-155" font-family="Helvetica,sans-Serif" font-size="10.00">Mema::MeterbridgeComponent</text>
</a>
</g>
</g>
<!-- Node2&#45;&gt;Node4 -->
<g id="edge3_Node000002_Node000004" class="edge">
<title>Node2&#45;&gt;Node4</title>
<g id="a_edge3_Node000002_Node000004"><a xlink:title=" ">
<path fill="none" stroke="#63b8ff" d="M325.5,-114.31C349.12,-122.28 380.63,-132.35 409,-139.5 421.45,-142.64 434.95,-145.51 447.75,-147.99"/>
<polygon fill="#63b8ff" stroke="#63b8ff" points="326.5,-110.95 315.9,-111.03 324.24,-117.58 326.5,-110.95"/>
</a>
</g>
</g>
<!-- Node5 -->
<g id="Node000005" class="node">
<title>Node5</title>
<g id="a_Node000005"><a xlink:href="classMema_1_1OutputControlComponent.html" target="_top" xlink:title="Output&#45;channel control strip — shows level meters and mute buttons for all output channels.">
<polygon fill="white" stroke="#666666" points="594,-130 416,-130 416,-111 594,-111 594,-130"/>
<text text-anchor="middle" x="505" y="-118" font-family="Helvetica,sans-Serif" font-size="10.00">Mema::OutputControlComponent</text>
</a>
</g>
</g>
<!-- Node2&#45;&gt;Node5 -->
<g id="edge4_Node000002_Node000005" class="edge">
<title>Node2&#45;&gt;Node5</title>
<g id="a_edge4_Node000002_Node000005"><a xlink:title=" ">
<path fill="none" stroke="#63b8ff" d="M383.32,-109.83C394.1,-110.79 405.06,-111.76 415.75,-112.7"/>
<polygon fill="#63b8ff" stroke="#63b8ff" points="383.32,-106.32 373.05,-108.93 382.7,-113.29 383.32,-106.32"/>
</a>
</g>
</g>
<!-- Node6 -->
<g id="Node000006" class="node">
<title>Node6</title>
<g id="a_Node000006"><a xlink:href="classMema_1_1SpectrumAudioComponent.html" target="_top" xlink:title=" ">
<polygon fill="white" stroke="#666666" points="597,-93 413,-93 413,-74 597,-74 597,-93"/>
<text text-anchor="middle" x="505" y="-81" font-family="Helvetica,sans-Serif" font-size="10.00">Mema::SpectrumAudioComponent</text>
</a>
</g>
</g>
<!-- Node2&#45;&gt;Node6 -->
<g id="edge5_Node000002_Node000006" class="edge">
<title>Node2&#45;&gt;Node6</title>
<g id="a_edge5_Node000002_Node000006"><a xlink:title=" ">
<path fill="none" stroke="#63b8ff" d="M383.24,-93.61C393.09,-92.79 403.09,-91.95 412.9,-91.13"/>
<polygon fill="#63b8ff" stroke="#63b8ff" points="382.72,-90.14 373.05,-94.46 383.31,-97.12 382.72,-90.14"/>
</a>
</g>
</g>
<!-- Node7 -->
<g id="Node000007" class="node">
<title>Node7</title>
<g id="a_Node000007"><a xlink:href="classMema_1_1TwoDFieldOutputComponent.html" target="_top" xlink:title=" ">
<polygon fill="white" stroke="#666666" points="601,-56 409,-56 409,-37 601,-37 601,-56"/>
<text text-anchor="middle" x="505" y="-44" font-family="Helvetica,sans-Serif" font-size="10.00">Mema::TwoDFieldOutputComponent</text>
</a>
</g>
</g>
<!-- Node2&#45;&gt;Node7 -->
<g id="edge6_Node000002_Node000007" class="edge">
<title>Node2&#45;&gt;Node7</title>
<g id="a_edge6_Node000002_Node000007"><a xlink:title=" ">
<path fill="none" stroke="#63b8ff" d="M327.93,-88.81C351.28,-81.45 381.67,-72.32 409,-65.5 422.71,-62.08 437.65,-58.86 451.54,-56.08"/>
<polygon fill="#63b8ff" stroke="#63b8ff" points="326.85,-85.48 318.37,-91.84 328.97,-92.15 326.85,-85.48"/>
</a>
</g>
</g>
<!-- Node8 -->
<g id="Node000008" class="node">
<title>Node8</title>
<g id="a_Node000008"><a xlink:href="classMema_1_1WaveformAudioComponent.html" target="_top" xlink:title=" ">
<polygon fill="white" stroke="#666666" points="599,-19 411,-19 411,0 599,0 599,-19"/>
<text text-anchor="middle" x="505" y="-7" font-family="Helvetica,sans-Serif" font-size="10.00">Mema::WaveformAudioComponent</text>
</a>
</g>
</g>
<!-- Node2&#45;&gt;Node8 -->
<g id="edge7_Node000002_Node000008" class="edge">
<title>Node2&#45;&gt;Node8</title>
<g id="a_edge7_Node000002_Node000008"><a xlink:title=" ">
<path fill="none" stroke="#63b8ff" d="M309.83,-85.69C332.88,-68.97 371.7,-43.05 409,-28.5 418.87,-24.65 429.64,-21.54 440.26,-19.05"/>
<polygon fill="#63b8ff" stroke="#63b8ff" points="307.5,-83.06 301.53,-91.81 311.66,-88.69 307.5,-83.06"/>
</a>
</g>
</g>
</g>
</svg>
