<?xml version="1.0" encoding="UTF-8" standalone="no"?>
<!DOCTYPE svg PUBLIC "-//W3C//DTD SVG 1.1//EN"
 "http://www.w3.org/Graphics/SVG/1.1/DTD/svg11.dtd">
<!-- Generated by graphviz version 2.43.0 (0)
 -->
<!-- Title: Mema::PanningControlComponent Pages: 1 -->
<svg width="236pt" height="137pt"
 viewBox="0.00 0.00 236.00 137.00" xmlns="http://www.w3.org/2000/svg" xmlns:xlink="http://www.w3.org/1999/xlink">
<g id="graph0" class="graph" transform="scale(1 1) rotate(0) translate(4 133)">
<title>Mema::PanningControlComponent</title>
<!-- Node1 -->
<g id="Node000001" class="node">
<title>Node1</title>
<g id="a_Node000001"><a xlink:title="2&#45;D spatial panning remote control for Mema.Re.">
<polygon fill="#999999" stroke="#666666" points="205.5,-19 22.5,-19 22.5,0 205.5,0 205.5,-19"/>
<text text-anchor="middle" x="114" y="-7" font-family="Helvetica,sans-Serif" font-size="10.00">Mema::PanningControlComponent</text>
</a>
</g>
</g>
<!-- Node2 -->
<g id="Node000002" class="node">
<title>Node2</title>
<g id="a_Node000002"><a xlink:href="classMema_1_1MemaClientControlComponentBase.html" target="_top" xlink:title="Abstract base for all Mema.Re client control panels.">
<polygon fill="white" stroke="#666666" points="228,-74 0,-74 0,-55 228,-55 228,-74"/>
<text text-anchor="middle" x="114" y="-62" font-family="Helvetica,sans-Serif" font-size="10.00">Mema::MemaClientControlComponentBase</text>
</a>
</g>
</g>
<!-- Node2&#45;&gt;Node1 -->
<g id="edge1_Node000001_Node000002" class="edge">
<title>Node2&#45;&gt;Node1</title>
<g id="a_edge1_Node000001_Node000002"><a xlink:title=" ">
<path fill="none" stroke="#63b8ff" d="M114,-44.66C114,-35.93 114,-25.99 114,-19.09"/>
<polygon fill="#63b8ff" stroke="#63b8ff" points="110.5,-44.75 114,-54.75 117.5,-44.75 110.5,-44.75"/>
</a>
</g>
</g>
<!-- Node3 -->
<g id="Node000003" class="node">
<title>Node3</title>
<g id="a_Node000003"><a xlink:title=" ">
<polygon fill="white" stroke="#666666" points="163.5,-129 64.5,-129 64.5,-110 163.5,-110 163.5,-129"/>
<text text-anchor="middle" x="114" y="-117" font-family="Helvetica,sans-Serif" font-size="10.00">juce::Component</text>
</a>
</g>
</g>
<!-- Node3&#45;&gt;Node2 -->
<g id="edge2_Node000002_Node000003" class="edge">
<title>Node3&#45;&gt;Node2</title>
<g id="a_edge2_Node000002_Node000003"><a xlink:title=" ">
<path fill="none" stroke="#63b8ff" d="M114,-99.66C114,-90.93 114,-80.99 114,-74.09"/>
<polygon fill="#63b8ff" stroke="#63b8ff" points="110.5,-99.75 114,-109.75 117.5,-99.75 110.5,-99.75"/>
</a>
</g>
</g>
</g>
</svg>
