<?xml version="1.0" encoding="UTF-8" standalone="no"?>
<!DOCTYPE svg PUBLIC "-//W3C//DTD SVG 1.1//EN"
 "http://www.w3.org/Graphics/SVG/1.1/DTD/svg11.dtd">
<!-- Generated by graphviz version 2.43.0 (0)
 -->
<!-- Title: Mema::TwoDFieldOutputComponent Pages: 1 -->
<svg width="454pt" height="148pt"
 viewBox="0.00 0.00 453.50 148.00" xmlns="http://www.w3.org/2000/svg" xmlns:xlink="http://www.w3.org/1999/xlink">

<svg id="main" version="1.1" xmlns="http://www.w3.org/2000/svg" xmlns:xlink="http://www.w3.org/1999/xlink" xml:space="preserve" onload="init(evt)">
<style type="text/css"><![CDATA[
.node, .edge {opacity: 0.7;}
.node.selected, .edge.selected {opacity: 1;}
.edge:hover path { stroke: red; }
.edge:hover polygon { stroke: red; fill: red; }
]]></style>
<script type="application/ecmascript" xlink:href="svg.min.js"/>
<svg id="graph" class="graph">
<g id="graph0" class="graph" transform="scale(1 1) rotate(0) translate(4 144)">
<title>Mema::TwoDFieldOutputComponent</title>
<!-- Node1 -->
<g id="Node000001" class="node">
<title>Node1</title>
<g id="a_Node000001"><a xlink:title=" ">
<polygon fill="#999999" stroke="#666666" points="275,-19 83,-19 83,0 275,0 275,-19"/>
<text text-anchor="middle" x="179" y="-7" font-family="Helvetica,sans-Serif" font-size="10.00">Mema::TwoDFieldOutputComponent</text>
</a>
</g>
</g>
<!-- Node2 -->
<g id="Node000002" class="node">
<title>Node2</title>
<g id="a_Node000002"><a xlink:title=" ">
<polygon fill="white" stroke="#666666" points="170,-74 0,-74 0,-55 170,-55 170,-74"/>
<text text-anchor="middle" x="85" y="-62" font-family="Helvetica,sans-Serif" font-size="10.00">JUCEAppBasics::TwoDFieldBase</text>
</a>
</g>
</g>
<!-- Node2&#45;&gt;Node1 -->
<g id="edge1_Node000001_Node000002" class="edge">
<title>Node2&#45;&gt;Node1</title>
<g id="a_edge1_Node000001_Node000002"><a xlink:title=" ">
<path fill="none" stroke="#63b8ff" d="M109,-49.97C126.19,-40.28 148.81,-27.52 163.62,-19.17"/>
<polygon fill="#63b8ff" stroke="#63b8ff" points="107.09,-47.02 100.1,-54.98 110.53,-53.12 107.09,-47.02"/>
</a>
</g>
</g>
<!-- Node3 -->
<g id="Node000003" class="node">
<title>Node3</title>
<g id="a_Node000003"><a xlink:href="classMema_1_1AbstractAudioVisualizer.html" target="_top" xlink:title="Base class for all audio&#45;data visualisation components in the Mema processor editor.">
<polygon fill="white" stroke="#666666" points="358,-74 188,-74 188,-55 358,-55 358,-74"/>
<text text-anchor="middle" x="273" y="-62" font-family="Helvetica,sans-Serif" font-size="10.00">Mema::AbstractAudioVisualizer</text>
</a>
</g>
</g>
<!-- Node3&#45;&gt;Node1 -->
<g id="edge2_Node000001_Node000003" class="edge">
<title>Node3&#45;&gt;Node1</title>
<g id="a_edge2_Node000001_Node000003"><a xlink:title=" ">
<path fill="none" stroke="#63b8ff" d="M249,-49.97C231.81,-40.28 209.19,-27.52 194.38,-19.17"/>
<polygon fill="#63b8ff" stroke="#63b8ff" points="247.47,-53.12 257.9,-54.98 250.91,-47.02 247.47,-53.12"/>
</a>
</g>
</g>
<!-- Node4 -->
<g id="Node000004" class="node">
<title>Node4</title>
<g id="a_Node000004"><a xlink:title=" ">
<polygon fill="white" stroke="#666666" points="171.5,-134.5 72.5,-134.5 72.5,-115.5 171.5,-115.5 171.5,-134.5"/>
<text text-anchor="middle" x="122" y="-122.5" font-family="Helvetica,sans-Serif" font-size="10.00">juce::Component</text>
</a>
</g>
</g>
<!-- Node4&#45;&gt;Node3 -->
<g id="edge3_Node000003_Node000004" class="edge">
<title>Node4&#45;&gt;Node3</title>
<g id="a_edge3_Node000003_Node000004"><a xlink:title=" ">
<path fill="none" stroke="#63b8ff" d="M153.29,-111.88C182.48,-100.57 225.28,-83.99 251.02,-74.02"/>
<polygon fill="#63b8ff" stroke="#63b8ff" points="152.02,-108.62 143.96,-115.49 154.55,-115.14 152.02,-108.62"/>
</a>
</g>
</g>
<!-- Node5 -->
<g id="Node000005" class="node">
<title>Node5</title>
<g id="a_Node000005"><a xlink:href="classMema_1_1ProcessorDataAnalyzer_1_1Listener.html" target="_top" xlink:title=" ">
<polygon fill="white" stroke="#666666" points="356.5,-140 189.5,-140 189.5,-110 356.5,-110 356.5,-140"/>
<text text-anchor="start" x="197.5" y="-128" font-family="Helvetica,sans-Serif" font-size="10.00">Mema::ProcessorDataAnalyzer</text>
<text text-anchor="middle" x="273" y="-117" font-family="Helvetica,sans-Serif" font-size="10.00">::Listener</text>
</a>
</g>
</g>
<!-- Node5&#45;&gt;Node3 -->
<g id="edge4_Node000003_Node000005" class="edge">
<title>Node5&#45;&gt;Node3</title>
<g id="a_edge4_Node000003_Node000005"><a xlink:title=" ">
<path fill="none" stroke="#63b8ff" d="M273,-99.75C273,-90.72 273,-81.03 273,-74.27"/>
<polygon fill="#63b8ff" stroke="#63b8ff" points="269.5,-99.84 273,-109.84 276.5,-99.84 269.5,-99.84"/>
</a>
</g>
</g>
<!-- Node6 -->
<g id="Node000006" class="node">
<title>Node6</title>
<g id="a_Node000006"><a xlink:title=" ">
<polygon fill="white" stroke="#666666" points="445.5,-134.5 374.5,-134.5 374.5,-115.5 445.5,-115.5 445.5,-134.5"/>
<text text-anchor="middle" x="410" y="-122.5" font-family="Helvetica,sans-Serif" font-size="10.00">juce::Timer</text>
</a>
</g>
</g>
<!-- Node6&#45;&gt;Node3 -->
<g id="edge5_Node000003_Node000006" class="edge">
<title>Node6&#45;&gt;Node3</title>
<g id="a_edge5_Node000003_Node000006"><a xlink:title=" ">
<path fill="none" stroke="#63b8ff" d="M380.57,-111.43C354.12,-100.14 315.99,-83.86 292.95,-74.02"/>
<polygon fill="#63b8ff" stroke="#63b8ff" points="379.51,-114.79 390.08,-115.49 382.26,-108.35 379.51,-114.79"/>
</a>
</g>
</g>
</g>
</svg>
</svg>

<style type='text/css'>
<![CDATA[
[data-mouse-over-selected='false'] { opacity: 0.7; }
[data-mouse-over-selected='true']  { opacity: 1.0; }
]]>
</style>
<script type="application/ecmascript"><![CDATA[
document.addEventListener('DOMContentLoaded', (event) => {
  highlightEdges();
  highlightAdjacentNodes();
});
]]></script>
</svg>
