<?xml version="1.0" encoding="UTF-8" standalone="no"?>
<!DOCTYPE svg PUBLIC "-//W3C//DTD SVG 1.1//EN"
 "http://www.w3.org/Graphics/SVG/1.1/DTD/svg11.dtd">
<!-- Generated by graphviz version 2.43.0 (0)
 -->
<!-- Title: Mema::MemaUIComponent Pages: 1 -->
<svg width="375pt" height="113pt"
 viewBox="0.00 0.00 375.00 112.50" xmlns="http://www.w3.org/2000/svg" xmlns:xlink="http://www.w3.org/1999/xlink">
<g id="graph0" class="graph" transform="scale(1 1) rotate(0) translate(4 108.5)">
<title>Mema::MemaUIComponent</title>
<!-- Node1 -->
<g id="Node000001" class="node">
<title>Node1</title>
<g id="a_Node000001"><a xlink:title="Main UI shell for the Mema application — composes the processor editor, toolbar, load bars,...">
<polygon fill="#999999" stroke="#666666" points="367,-67.5 216,-67.5 216,-48.5 367,-48.5 367,-67.5"/>
<text text-anchor="middle" x="291.5" y="-55.5" font-family="Helvetica,sans-Serif" font-size="10.00">Mema::MemaUIComponent</text>
</a>
</g>
</g>
<!-- Node2 -->
<g id="Node000002" class="node">
<title>Node2</title>
<g id="a_Node000002"><a xlink:title=" ">
<polygon fill="white" stroke="#666666" points="139.5,-104.5 40.5,-104.5 40.5,-85.5 139.5,-85.5 139.5,-104.5"/>
<text text-anchor="middle" x="90" y="-92.5" font-family="Helvetica,sans-Serif" font-size="10.00">juce::Component</text>
</a>
</g>
</g>
<!-- Node2&#45;&gt;Node1 -->
<g id="edge1_Node000001_Node000002" class="edge">
<title>Node2&#45;&gt;Node1</title>
<g id="a_edge1_Node000001_Node000002"><a xlink:title=" ">
<path fill="none" stroke="#63b8ff" d="M149.71,-84.11C178.01,-78.86 211.64,-72.63 238.94,-67.56"/>
<polygon fill="#63b8ff" stroke="#63b8ff" points="148.74,-80.73 139.55,-86 150.02,-87.61 148.74,-80.73"/>
</a>
</g>
</g>
<!-- Node3 -->
<g id="Node000003" class="node">
<title>Node3</title>
<g id="a_Node000003"><a xlink:title=" ">
<polygon fill="white" stroke="#666666" points="173.5,-67.5 6.5,-67.5 6.5,-48.5 173.5,-48.5 173.5,-67.5"/>
<text text-anchor="middle" x="90" y="-55.5" font-family="Helvetica,sans-Serif" font-size="10.00">juce::DarkModeSettingListener</text>
</a>
</g>
</g>
<!-- Node3&#45;&gt;Node1 -->
<g id="edge2_Node000001_Node000003" class="edge">
<title>Node3&#45;&gt;Node1</title>
<g id="a_edge2_Node000001_Node000003"><a xlink:title=" ">
<path fill="none" stroke="#63b8ff" d="M183.85,-58C194.61,-58 205.48,-58 215.96,-58"/>
<polygon fill="#63b8ff" stroke="#63b8ff" points="183.58,-54.5 173.58,-58 183.58,-61.5 183.58,-54.5"/>
</a>
</g>
</g>
<!-- Node4 -->
<g id="Node000004" class="node">
<title>Node4</title>
<g id="a_Node000004"><a xlink:title=" ">
<polygon fill="white" stroke="#666666" points="180,-30 0,-30 0,0 180,0 180,-30"/>
<text text-anchor="start" x="8" y="-18" font-family="Helvetica,sans-Serif" font-size="10.00">JUCEAppBasics::AppConfiguration</text>
<text text-anchor="middle" x="90" y="-7" font-family="Helvetica,sans-Serif" font-size="10.00">Base::XmlConfigurableElement</text>
</a>
</g>
</g>
<!-- Node4&#45;&gt;Node1 -->
<g id="edge3_Node000001_Node000004" class="edge">
<title>Node4&#45;&gt;Node1</title>
<g id="a_edge3_Node000001_Node000004"><a xlink:title=" ">
<path fill="none" stroke="#63b8ff" d="M170.56,-32.15C196.37,-37.71 224.06,-43.68 246.32,-48.48"/>
<polygon fill="#63b8ff" stroke="#63b8ff" points="171.29,-28.72 160.78,-30.04 169.81,-35.57 171.29,-28.72"/>
</a>
</g>
</g>
</g>
</svg>
