<?xml version="1.0" encoding="UTF-8" standalone="no"?>
<!DOCTYPE svg PUBLIC "-//W3C//DTD SVG 1.1//EN"
 "http://www.w3.org/Graphics/SVG/1.1/DTD/svg11.dtd">
<!-- Generated by graphviz version 2.43.0 (0)
 -->
<!-- Title: Mema::MemaProcessor Pages: 1 -->
<svg width="343pt" height="235pt"
 viewBox="0.00 0.00 343.00 234.50" xmlns="http://www.w3.org/2000/svg" xmlns:xlink="http://www.w3.org/1999/xlink">

<svg id="main" version="1.1" xmlns="http://www.w3.org/2000/svg" xmlns:xlink="http://www.w3.org/1999/xlink" xml:space="preserve" onload="init(evt)">
<style type="text/css"><![CDATA[
.node, .edge {opacity: 0.7;}
.node.selected, .edge.selected {opacity: 1;}
.edge:hover path { stroke: red; }
.edge:hover polygon { stroke: red; fill: red; }
]]></style>
<script type="application/ecmascript" xlink:href="svg.min.js"/>
<svg id="graph" class="graph">
<g id="graph0" class="graph" transform="scale(1 1) rotate(0) translate(4 230.5)">
<title>Mema::MemaProcessor</title>
<!-- Node1 -->
<g id="Node000001" class="node">
<title>Node1</title>
<g id="a_Node000001"><a xlink:title="Core audio processor — owns the AudioDeviceManager, routing matrix, plugin host, and IPC server.">
<polygon fill="#999999" stroke="#666666" points="335,-133.5 204,-133.5 204,-114.5 335,-114.5 335,-133.5"/>
<text text-anchor="middle" x="269.5" y="-121.5" font-family="Helvetica,sans-Serif" font-size="10.00">Mema::MemaProcessor</text>
</a>
</g>
</g>
<!-- Node2 -->
<g id="Node000002" class="node">
<title>Node2</title>
<g id="a_Node000002"><a xlink:title=" ">
<polygon fill="white" stroke="#666666" points="143,-226.5 25,-226.5 25,-207.5 143,-207.5 143,-226.5"/>
<text text-anchor="middle" x="84" y="-214.5" font-family="Helvetica,sans-Serif" font-size="10.00">juce::AudioProcessor</text>
</a>
</g>
</g>
<!-- Node2&#45;&gt;Node1 -->
<g id="edge1_Node000001_Node000002" class="edge">
<title>Node2&#45;&gt;Node1</title>
<g id="a_edge1_Node000001_Node000002"><a xlink:title=" ">
<path fill="none" stroke="#63b8ff" d="M153.12,-204.75C158.24,-203.07 163.26,-201.16 168,-199 205.05,-182.13 241.6,-149.89 258.61,-133.73"/>
<polygon fill="#63b8ff" stroke="#63b8ff" points="151.76,-201.5 143.18,-207.71 153.77,-208.21 151.76,-201.5"/>
</a>
</g>
</g>
<!-- Node3 -->
<g id="Node000003" class="node">
<title>Node3</title>
<g id="a_Node000003"><a xlink:title=" ">
<polygon fill="white" stroke="#666666" points="162.5,-189.5 5.5,-189.5 5.5,-170.5 162.5,-170.5 162.5,-189.5"/>
<text text-anchor="middle" x="84" y="-177.5" font-family="Helvetica,sans-Serif" font-size="10.00">juce::AudioIODeviceCallback</text>
</a>
</g>
</g>
<!-- Node3&#45;&gt;Node1 -->
<g id="edge2_Node000001_Node000003" class="edge">
<title>Node3&#45;&gt;Node1</title>
<g id="a_edge2_Node000001_Node000003"><a xlink:title=" ">
<path fill="none" stroke="#63b8ff" d="M144.78,-168.15C152.64,-166.27 160.54,-164.2 168,-162 195.37,-153.91 225.92,-141.91 246.08,-133.57"/>
<polygon fill="#63b8ff" stroke="#63b8ff" points="143.85,-164.77 134.9,-170.43 145.43,-171.59 143.85,-164.77"/>
</a>
</g>
</g>
<!-- Node4 -->
<g id="Node000004" class="node">
<title>Node4</title>
<g id="a_Node000004"><a xlink:title=" ">
<polygon fill="white" stroke="#666666" points="146.5,-152.5 21.5,-152.5 21.5,-133.5 146.5,-133.5 146.5,-152.5"/>
<text text-anchor="middle" x="84" y="-140.5" font-family="Helvetica,sans-Serif" font-size="10.00">juce::MessageListener</text>
</a>
</g>
</g>
<!-- Node4&#45;&gt;Node1 -->
<g id="edge3_Node000001_Node000004" class="edge">
<title>Node4&#45;&gt;Node1</title>
<g id="a_edge3_Node000001_Node000004"><a xlink:title=" ">
<path fill="none" stroke="#63b8ff" d="M156.7,-135.58C172.27,-133.96 188.64,-132.27 203.91,-130.69"/>
<polygon fill="#63b8ff" stroke="#63b8ff" points="156.2,-132.11 146.61,-136.62 156.92,-139.07 156.2,-132.11"/>
</a>
</g>
</g>
<!-- Node5 -->
<g id="Node000005" class="node">
<title>Node5</title>
<g id="a_Node000005"><a xlink:title=" ">
<polygon fill="white" stroke="#666666" points="143.5,-115.5 24.5,-115.5 24.5,-96.5 143.5,-96.5 143.5,-115.5"/>
<text text-anchor="middle" x="84" y="-103.5" font-family="Helvetica,sans-Serif" font-size="10.00">juce::ChangeListener</text>
</a>
</g>
</g>
<!-- Node5&#45;&gt;Node1 -->
<g id="edge4_Node000001_Node000005" class="edge">
<title>Node5&#45;&gt;Node1</title>
<g id="a_edge4_Node000001_Node000005"><a xlink:title=" ">
<path fill="none" stroke="#63b8ff" d="M153.64,-112.73C170.07,-114.35 187.57,-116.06 203.81,-117.65"/>
<polygon fill="#63b8ff" stroke="#63b8ff" points="153.86,-109.24 143.57,-111.74 153.18,-116.2 153.86,-109.24"/>
</a>
</g>
</g>
<!-- Node6 -->
<g id="Node000006" class="node">
<title>Node6</title>
<g id="a_Node000006"><a xlink:title=" ">
<polygon fill="white" stroke="#666666" points="168,-78 0,-78 0,-48 168,-48 168,-78"/>
<text text-anchor="start" x="8" y="-66" font-family="Helvetica,sans-Serif" font-size="10.00">juce::AudioProcessorParameter</text>
<text text-anchor="middle" x="84" y="-55" font-family="Helvetica,sans-Serif" font-size="10.00">::Listener</text>
</a>
</g>
</g>
<!-- Node6&#45;&gt;Node1 -->
<g id="edge5_Node000001_Node000006" class="edge">
<title>Node6&#45;&gt;Node1</title>
<g id="a_edge5_Node000001_Node000006"><a xlink:title=" ">
<path fill="none" stroke="#63b8ff" d="M146.39,-81.1C153.69,-83.37 161.02,-85.7 168,-88 193.7,-96.47 222.77,-106.99 243.01,-114.46"/>
<polygon fill="#63b8ff" stroke="#63b8ff" points="147.08,-77.65 136.49,-78.06 145.02,-84.34 147.08,-77.65"/>
</a>
</g>
</g>
<!-- Node7 -->
<g id="Node000007" class="node">
<title>Node7</title>
<g id="a_Node000007"><a xlink:title=" ">
<polygon fill="white" stroke="#666666" points="156,-30 12,-30 12,0 156,0 156,-30"/>
<text text-anchor="start" x="20" y="-18" font-family="Helvetica,sans-Serif" font-size="10.00">MemaAppConfiguration</text>
<text text-anchor="middle" x="84" y="-7" font-family="Helvetica,sans-Serif" font-size="10.00">::XmlConfigurableElement</text>
</a>
</g>
</g>
<!-- Node7&#45;&gt;Node1 -->
<g id="edge6_Node000001_Node000007" class="edge">
<title>Node7&#45;&gt;Node1</title>
<g id="a_edge6_Node000001_Node000007"><a xlink:title=" ">
<path fill="none" stroke="#63b8ff" d="M157.17,-33.8C160.9,-35.41 164.53,-37.14 168,-39 206.47,-59.61 243.48,-96.78 259.79,-114.33"/>
<polygon fill="#63b8ff" stroke="#63b8ff" points="158.36,-30.51 147.77,-30.05 155.76,-37.01 158.36,-30.51"/>
</a>
</g>
</g>
</g>
</svg>
</svg>

<style type='text/css'>
<![CDATA[
[data-mouse-over-selected='false'] { opacity: 0.7; }
[data-mouse-over-selected='true']  { opacity: 1.0; }
]]>
</style>
<script type="application/ecmascript"><![CDATA[
document.addEventListener('DOMContentLoaded', (event) => {
  highlightEdges();
  highlightAdjacentNodes();
});
]]></script>
</svg>
