<?xml version="1.0" encoding="UTF-8" standalone="no"?>
<!DOCTYPE svg PUBLIC "-//W3C//DTD SVG 1.1//EN"
 "http://www.w3.org/Graphics/SVG/1.1/DTD/svg11.dtd">
<!-- Generated by graphviz version 2.43.0 (0)
 -->
<!-- Title: Mema::MemaInputCommander Pages: 1 -->
<svg width="410pt" height="148pt"
 viewBox="0.00 0.00 410.00 148.00" xmlns="http://www.w3.org/2000/svg" xmlns:xlink="http://www.w3.org/1999/xlink">
<g id="graph0" class="graph" transform="scale(1 1) rotate(0) translate(4 144)">
<title>Mema::MemaInputCommander</title>
<!-- Node1 -->
<g id="Node000001" class="node">
<title>Node1</title>
<g id="a_Node000001"><a xlink:title=" ">
<polygon fill="#999999" stroke="#666666" points="274.5,-85 105.5,-85 105.5,-66 274.5,-66 274.5,-85"/>
<text text-anchor="middle" x="190" y="-73" font-family="Helvetica,sans-Serif" font-size="10.00">Mema::MemaInputCommander</text>
</a>
</g>
</g>
<!-- Node3 -->
<g id="Node000003" class="node">
<title>Node3</title>
<g id="a_Node000003"><a xlink:href="classMema_1_1InputControlComponent.html" target="_top" xlink:title="Input&#45;channel control strip — shows level meters and mute buttons for all input channels.">
<polygon fill="white" stroke="#666666" points="170,-24.5 0,-24.5 0,-5.5 170,-5.5 170,-24.5"/>
<text text-anchor="middle" x="85" y="-12.5" font-family="Helvetica,sans-Serif" font-size="10.00">Mema::InputControlComponent</text>
</a>
</g>
</g>
<!-- Node1&#45;&gt;Node3 -->
<g id="edge2_Node000001_Node000003" class="edge">
<title>Node1&#45;&gt;Node3</title>
<g id="a_edge2_Node000001_Node000003"><a xlink:title=" ">
<path fill="none" stroke="#63b8ff" d="M165.63,-60.92C145.57,-49.74 117.72,-34.23 100.56,-24.67"/>
<polygon fill="#63b8ff" stroke="#63b8ff" points="164.07,-64.06 174.51,-65.87 167.47,-57.94 164.07,-64.06"/>
</a>
</g>
</g>
<!-- Node4 -->
<g id="Node000004" class="node">
<title>Node4</title>
<g id="a_Node000004"><a xlink:href="classMema_1_1MemaNetworkClientCommanderWrapper.html" target="_top" xlink:title=" ">
<polygon fill="white" stroke="#666666" points="402,-30 188,-30 188,0 402,0 402,-30"/>
<text text-anchor="start" x="196" y="-18" font-family="Helvetica,sans-Serif" font-size="10.00">Mema::MemaNetworkClientCommander</text>
<text text-anchor="middle" x="295" y="-7" font-family="Helvetica,sans-Serif" font-size="10.00">Wrapper</text>
</a>
</g>
</g>
<!-- Node1&#45;&gt;Node4 -->
<g id="edge3_Node000001_Node000004" class="edge">
<title>Node1&#45;&gt;Node4</title>
<g id="a_edge3_Node000001_Node000004"><a xlink:title=" ">
<path fill="none" stroke="#63b8ff" d="M214.57,-60.81C231.13,-51.58 252.94,-39.43 269.67,-30.11"/>
<polygon fill="#63b8ff" stroke="#63b8ff" points="212.53,-57.94 205.49,-65.87 215.93,-64.06 212.53,-57.94"/>
</a>
</g>
</g>
<!-- Node2 -->
<g id="Node000002" class="node">
<title>Node2</title>
<g id="a_Node000002"><a xlink:href="classMema_1_1MemaChannelCommander.html" target="_top" xlink:title=" ">
<polygon fill="white" stroke="#666666" points="282,-140 98,-140 98,-121 282,-121 282,-140"/>
<text text-anchor="middle" x="190" y="-128" font-family="Helvetica,sans-Serif" font-size="10.00">Mema::MemaChannelCommander</text>
</a>
</g>
</g>
<!-- Node2&#45;&gt;Node1 -->
<g id="edge1_Node000001_Node000002" class="edge">
<title>Node2&#45;&gt;Node1</title>
<g id="a_edge1_Node000001_Node000002"><a xlink:title=" ">
<path fill="none" stroke="#63b8ff" d="M190,-110.66C190,-101.93 190,-91.99 190,-85.09"/>
<polygon fill="#63b8ff" stroke="#63b8ff" points="186.5,-110.75 190,-120.75 193.5,-110.75 186.5,-110.75"/>
</a>
</g>
</g>
</g>
</svg>
