<?xml version="1.0" encoding="UTF-8" standalone="no"?>
<!DOCTYPE svg PUBLIC "-//W3C//DTD SVG 1.1//EN"
 "http://www.w3.org/Graphics/SVG/1.1/DTD/svg11.dtd">
<!-- Generated by graphviz version 2.43.0 (0)
 -->
<!-- Title: Mema::MemaOutputCommander Pages: 1 -->
<svg width="418pt" height="148pt"
 viewBox="0.00 0.00 418.00 148.00" xmlns="http://www.w3.org/2000/svg" xmlns:xlink="http://www.w3.org/1999/xlink">
<g id="graph0" class="graph" transform="scale(1 1) rotate(0) translate(4 144)">
<title>Mema::MemaOutputCommander</title>
<!-- Node1 -->
<g id="Node000001" class="node">
<title>Node1</title>
<g id="a_Node000001"><a xlink:title=" ">
<polygon fill="#999999" stroke="#666666" points="302.5,-85 125.5,-85 125.5,-66 302.5,-66 302.5,-85"/>
<text text-anchor="middle" x="214" y="-73" font-family="Helvetica,sans-Serif" font-size="10.00">Mema::MemaOutputCommander</text>
</a>
</g>
</g>
<!-- Node3 -->
<g id="Node000003" class="node">
<title>Node3</title>
<g id="a_Node000003"><a xlink:href="classMema_1_1MemaNetworkClientCommanderWrapper.html" target="_top" xlink:title=" ">
<polygon fill="white" stroke="#666666" points="214,-30 0,-30 0,0 214,0 214,-30"/>
<text text-anchor="start" x="8" y="-18" font-family="Helvetica,sans-Serif" font-size="10.00">Mema::MemaNetworkClientCommander</text>
<text text-anchor="middle" x="107" y="-7" font-family="Helvetica,sans-Serif" font-size="10.00">Wrapper</text>
</a>
</g>
</g>
<!-- Node1&#45;&gt;Node3 -->
<g id="edge2_Node000001_Node000003" class="edge">
<title>Node1&#45;&gt;Node3</title>
<g id="a_edge2_Node000001_Node000003"><a xlink:title=" ">
<path fill="none" stroke="#63b8ff" d="M188.97,-60.81C172.08,-51.58 149.86,-39.43 132.82,-30.11"/>
<polygon fill="#63b8ff" stroke="#63b8ff" points="187.76,-64.14 198.21,-65.87 191.12,-58 187.76,-64.14"/>
</a>
</g>
</g>
<!-- Node4 -->
<g id="Node000004" class="node">
<title>Node4</title>
<g id="a_Node000004"><a xlink:href="classMema_1_1OutputControlComponent.html" target="_top" xlink:title="Output&#45;channel control strip — shows level meters and mute buttons for all output channels.">
<polygon fill="white" stroke="#666666" points="410,-24.5 232,-24.5 232,-5.5 410,-5.5 410,-24.5"/>
<text text-anchor="middle" x="321" y="-12.5" font-family="Helvetica,sans-Serif" font-size="10.00">Mema::OutputControlComponent</text>
</a>
</g>
</g>
<!-- Node1&#45;&gt;Node4 -->
<g id="edge3_Node000001_Node000004" class="edge">
<title>Node1&#45;&gt;Node4</title>
<g id="a_edge3_Node000001_Node000004"><a xlink:title=" ">
<path fill="none" stroke="#63b8ff" d="M238.83,-60.92C259.28,-49.74 287.66,-34.23 305.15,-24.67"/>
<polygon fill="#63b8ff" stroke="#63b8ff" points="236.88,-58 229.79,-65.87 240.24,-64.14 236.88,-58"/>
</a>
</g>
</g>
<!-- Node2 -->
<g id="Node000002" class="node">
<title>Node2</title>
<g id="a_Node000002"><a xlink:href="classMema_1_1MemaChannelCommander.html" target="_top" xlink:title=" ">
<polygon fill="white" stroke="#666666" points="306,-140 122,-140 122,-121 306,-121 306,-140"/>
<text text-anchor="middle" x="214" y="-128" font-family="Helvetica,sans-Serif" font-size="10.00">Mema::MemaChannelCommander</text>
</a>
</g>
</g>
<!-- Node2&#45;&gt;Node1 -->
<g id="edge1_Node000001_Node000002" class="edge">
<title>Node2&#45;&gt;Node1</title>
<g id="a_edge1_Node000001_Node000002"><a xlink:title=" ">
<path fill="none" stroke="#63b8ff" d="M214,-110.66C214,-101.93 214,-91.99 214,-85.09"/>
<polygon fill="#63b8ff" stroke="#63b8ff" points="210.5,-110.75 214,-120.75 217.5,-110.75 210.5,-110.75"/>
</a>
</g>
</g>
</g>
</svg>
