<?xml version="1.0" encoding="UTF-8" standalone="no"?>
<!DOCTYPE svg PUBLIC "-//W3C//DTD SVG 1.1//EN"
 "http://www.w3.org/Graphics/SVG/1.1/DTD/svg11.dtd">
<!-- Generated by graphviz version 2.43.0 (0)
 -->
<!-- Title: Mema::AudioBufferMessage Pages: 1 -->
<svg width="392pt" height="192pt"
 viewBox="0.00 0.00 392.00 192.00" xmlns="http://www.w3.org/2000/svg" xmlns:xlink="http://www.w3.org/1999/xlink">

<svg id="main" version="1.1" xmlns="http://www.w3.org/2000/svg" xmlns:xlink="http://www.w3.org/1999/xlink" xml:space="preserve" onload="init(evt)">
<style type="text/css"><![CDATA[
.node, .edge {opacity: 0.7;}
.node.selected, .edge.selected {opacity: 1;}
.edge:hover path { stroke: red; }
.edge:hover polygon { stroke: red; fill: red; }
]]></style>
<script type="application/ecmascript" xlink:href="svg.min.js"/>
<svg id="graph" class="graph">
<g id="graph0" class="graph" transform="scale(1 1) rotate(0) translate(4 188)">
<title>Mema::AudioBufferMessage</title>
<!-- Node1 -->
<g id="Node000001" class="node">
<title>Node1</title>
<g id="a_Node000001"><a xlink:title="Base message carrying a serialised audio buffer and its flow&#45;direction metadata.">
<polygon fill="#999999" stroke="#666666" points="266.5,-74 112.5,-74 112.5,-55 266.5,-55 266.5,-74"/>
<text text-anchor="middle" x="189.5" y="-62" font-family="Helvetica,sans-Serif" font-size="10.00">Mema::AudioBufferMessage</text>
</a>
</g>
</g>
<!-- Node4 -->
<g id="Node000004" class="node">
<title>Node4</title>
<g id="a_Node000004"><a xlink:href="classMema_1_1AudioInputBufferMessage.html" target="_top" xlink:title="Carries a pre&#45;matrix input audio buffer streamed continuously from Mema to subscribed clients.">
<polygon fill="white" stroke="#666666" points="179,-19 0,-19 0,0 179,0 179,-19"/>
<text text-anchor="middle" x="89.5" y="-7" font-family="Helvetica,sans-Serif" font-size="10.00">Mema::AudioInputBufferMessage</text>
</a>
</g>
</g>
<!-- Node1&#45;&gt;Node4 -->
<g id="edge3_Node000001_Node000004" class="edge">
<title>Node1&#45;&gt;Node4</title>
<g id="a_edge3_Node000001_Node000004"><a xlink:title=" ">
<path fill="none" stroke="#63b8ff" d="M164.47,-50.23C146.13,-40.51 121.76,-27.6 105.86,-19.17"/>
<polygon fill="#63b8ff" stroke="#63b8ff" points="162.96,-53.39 173.43,-54.98 166.24,-47.21 162.96,-53.39"/>
</a>
</g>
</g>
<!-- Node5 -->
<g id="Node000005" class="node">
<title>Node5</title>
<g id="a_Node000005"><a xlink:href="classMema_1_1AudioOutputBufferMessage.html" target="_top" xlink:title="Carries a post&#45;matrix output audio buffer streamed continuously from Mema to subscribed clients.">
<polygon fill="white" stroke="#666666" points="384,-19 197,-19 197,0 384,0 384,-19"/>
<text text-anchor="middle" x="290.5" y="-7" font-family="Helvetica,sans-Serif" font-size="10.00">Mema::AudioOutputBufferMessage</text>
</a>
</g>
</g>
<!-- Node1&#45;&gt;Node5 -->
<g id="edge4_Node000001_Node000005" class="edge">
<title>Node1&#45;&gt;Node5</title>
<g id="a_edge4_Node000001_Node000005"><a xlink:title=" ">
<path fill="none" stroke="#63b8ff" d="M214.78,-50.23C233.3,-40.51 257.92,-27.6 273.98,-19.17"/>
<polygon fill="#63b8ff" stroke="#63b8ff" points="212.96,-47.24 205.73,-54.98 216.21,-53.44 212.96,-47.24"/>
</a>
</g>
</g>
<!-- Node2 -->
<g id="Node000002" class="node">
<title>Node2</title>
<g id="a_Node000002"><a xlink:href="classMema_1_1SerializableMessage.html" target="_top" xlink:title="Base class for all messages exchanged between Mema, Mema.Mo, and Mema.Re over TCP.">
<polygon fill="white" stroke="#666666" points="266.5,-129 112.5,-129 112.5,-110 266.5,-110 266.5,-129"/>
<text text-anchor="middle" x="189.5" y="-117" font-family="Helvetica,sans-Serif" font-size="10.00">Mema::SerializableMessage</text>
</a>
</g>
</g>
<!-- Node2&#45;&gt;Node1 -->
<g id="edge1_Node000001_Node000002" class="edge">
<title>Node2&#45;&gt;Node1</title>
<g id="a_edge1_Node000001_Node000002"><a xlink:title=" ">
<path fill="none" stroke="#63b8ff" d="M189.5,-99.66C189.5,-90.93 189.5,-80.99 189.5,-74.09"/>
<polygon fill="#63b8ff" stroke="#63b8ff" points="186,-99.75 189.5,-109.75 193,-99.75 186,-99.75"/>
</a>
</g>
</g>
<!-- Node3 -->
<g id="Node000003" class="node">
<title>Node3</title>
<g id="a_Node000003"><a xlink:title=" ">
<polygon fill="white" stroke="#666666" points="232.5,-184 146.5,-184 146.5,-165 232.5,-165 232.5,-184"/>
<text text-anchor="middle" x="189.5" y="-172" font-family="Helvetica,sans-Serif" font-size="10.00">juce::Message</text>
</a>
</g>
</g>
<!-- Node3&#45;&gt;Node2 -->
<g id="edge2_Node000002_Node000003" class="edge">
<title>Node3&#45;&gt;Node2</title>
<g id="a_edge2_Node000002_Node000003"><a xlink:title=" ">
<path fill="none" stroke="#63b8ff" d="M189.5,-154.66C189.5,-145.93 189.5,-135.99 189.5,-129.09"/>
<polygon fill="#63b8ff" stroke="#63b8ff" points="186,-154.75 189.5,-164.75 193,-154.75 186,-154.75"/>
</a>
</g>
</g>
</g>
</svg>
</svg>

<style type='text/css'>
<![CDATA[
[data-mouse-over-selected='false'] { opacity: 0.7; }
[data-mouse-over-selected='true']  { opacity: 1.0; }
]]>
</style>
<script type="application/ecmascript"><![CDATA[
document.addEventListener('DOMContentLoaded', (event) => {
  highlightEdges();
  highlightAdjacentNodes();
});
]]></script>
</svg>
