<?xml version="1.0" encoding="UTF-8" standalone="no"?>
<!DOCTYPE svg PUBLIC "-//W3C//DTD SVG 1.1//EN"
 "http://www.w3.org/Graphics/SVG/1.1/DTD/svg11.dtd">
<!-- Generated by graphviz version 2.43.0 (0)
 -->
<!-- Title: Mema::PluginControlComponent Pages: 1 -->
<svg width="281pt" height="137pt"
 viewBox="0.00 0.00 280.50 137.00" xmlns="http://www.w3.org/2000/svg" xmlns:xlink="http://www.w3.org/1999/xlink">
<g id="graph0" class="graph" transform="scale(1 1) rotate(0) translate(4 133)">
<title>Mema::PluginControlComponent</title>
<!-- Node1 -->
<g id="Node000001" class="node">
<title>Node1</title>
<g id="a_Node000001"><a xlink:title=" ">
<polygon fill="#999999" stroke="#666666" points="175,-19 0,-19 0,0 175,0 175,-19"/>
<text text-anchor="middle" x="87.5" y="-7" font-family="Helvetica,sans-Serif" font-size="10.00">Mema::PluginControlComponent</text>
</a>
</g>
</g>
<!-- Node2 -->
<g id="Node000002" class="node">
<title>Node2</title>
<g id="a_Node000002"><a xlink:href="classMema_1_1MemaClientControlComponentBase.html" target="_top" xlink:title="Abstract base for all Mema.Re client control panels.">
<polygon fill="white" stroke="#666666" points="272.5,-74 44.5,-74 44.5,-55 272.5,-55 272.5,-74"/>
<text text-anchor="middle" x="158.5" y="-62" font-family="Helvetica,sans-Serif" font-size="10.00">Mema::MemaClientControlComponentBase</text>
</a>
</g>
</g>
<!-- Node2&#45;&gt;Node1 -->
<g id="edge1_Node000001_Node000002" class="edge">
<title>Node2&#45;&gt;Node1</title>
<g id="a_edge1_Node000001_Node000002"><a xlink:title=" ">
<path fill="none" stroke="#63b8ff" d="M138.91,-48.88C126.13,-39.34 109.89,-27.21 99.11,-19.17"/>
<polygon fill="#63b8ff" stroke="#63b8ff" points="136.99,-51.81 147.09,-54.98 141.17,-46.2 136.99,-51.81"/>
</a>
</g>
</g>
<!-- Node3 -->
<g id="Node000003" class="node">
<title>Node3</title>
<g id="a_Node000003"><a xlink:title=" ">
<polygon fill="white" stroke="#666666" points="137,-129 38,-129 38,-110 137,-110 137,-129"/>
<text text-anchor="middle" x="87.5" y="-117" font-family="Helvetica,sans-Serif" font-size="10.00">juce::Component</text>
</a>
</g>
</g>
<!-- Node3&#45;&gt;Node1 -->
<g id="edge3_Node000001_Node000003" class="edge">
<title>Node3&#45;&gt;Node1</title>
<g id="a_edge3_Node000001_Node000003"><a xlink:title=" ">
<path fill="none" stroke="#63b8ff" d="M62.92,-104.29C52.41,-96.76 41.25,-86.48 35.5,-74 25.19,-51.61 52.56,-30.48 71.39,-19.14"/>
<polygon fill="#63b8ff" stroke="#63b8ff" points="61.2,-107.35 71.47,-109.95 65.07,-101.51 61.2,-107.35"/>
</a>
</g>
</g>
<!-- Node3&#45;&gt;Node2 -->
<g id="edge2_Node000002_Node000003" class="edge">
<title>Node3&#45;&gt;Node2</title>
<g id="a_edge2_Node000002_Node000003"><a xlink:title=" ">
<path fill="none" stroke="#63b8ff" d="M107.09,-103.88C119.87,-94.34 136.11,-82.21 146.89,-74.17"/>
<polygon fill="#63b8ff" stroke="#63b8ff" points="104.83,-101.2 98.91,-109.98 109.01,-106.81 104.83,-101.2"/>
</a>
</g>
</g>
</g>
</svg>
