<?xml version="1.0" encoding="UTF-8" standalone="no"?>
<!DOCTYPE svg PUBLIC "-//W3C//DTD SVG 1.1//EN"
 "http://www.w3.org/Graphics/SVG/1.1/DTD/svg11.dtd">
<!-- Generated by graphviz version 2.43.0 (0)
 -->
<!-- Title: Mema::SerializableMessage Pages: 1 -->
<!--zoomable 343 -->

<svg id="main" version="1.1" xmlns="http://www.w3.org/2000/svg" xmlns:xlink="http://www.w3.org/1999/xlink" xml:space="preserve" onload="init(evt)">
<style type="text/css"><![CDATA[
.node, .edge {opacity: 0.7;}
.node.selected, .edge.selected {opacity: 1;}
.edge:hover path { stroke: red; }
.edge:hover polygon { stroke: red; fill: red; }
]]></style>

<defs>
  <circle id="rim" cx="0" cy="0" r="7"/>
  <circle id="rim2" cx="0" cy="0" r="3.5"/>
  <g id="zoomPlus">
    <use xlink:href="#rim" fill="#404040"><set attributeName="fill" to="#808080" begin="zoomplus.mouseover" end="zoomplus.mouseout"/></use>
    <path d="M-4,0h8M0,-4v8" fill="none" stroke="white" stroke-width="1.5" pointer-events="none"/>
  </g>
  <g id="zoomMin">
    <use xlink:href="#rim" fill="#404040"><set attributeName="fill" to="#808080" begin="zoomminus.mouseover" end="zoomminus.mouseout"/></use>
    <path d="M-4,0h8" fill="none" stroke="white" stroke-width="1.5" pointer-events="none"/>
  </g>
  <g id="arrowUp" transform="translate(30 24)">
    <use xlink:href="#rim"/>
    <path pointer-events="none" fill="none" stroke="white" stroke-width="1.5" d="M0,-3.0v7 M-2.5,-0.5L0,-3.0L2.5,-0.5"/>
  </g>
  <g id="arrowRight" transform="rotate(90) translate(36 -43)">
    <use xlink:href="#rim"/>
    <path pointer-events="none" fill="none" stroke="white" stroke-width="1.5" d="M0,-3.0v7 M-2.5,-0.5L0,-3.0L2.5,-0.5"/>
  </g>
  <g id="arrowDown" transform="rotate(180) translate(-30 -48)">
    <use xlink:href="#rim"/>
    <path pointer-events="none" fill="none" stroke="white" stroke-width="1.5" d="M0,-3.0v7 M-2.5,-0.5L0,-3.0L2.5,-0.5"/>
  </g>
  <g id="arrowLeft" transform="rotate(270) translate(-36 17)">
    <use xlink:href="#rim"/>
    <path pointer-events="none" fill="none" stroke="white" stroke-width="1.5" d="M0,-3.0v7 M-2.5,-0.5L0,-3.0L2.5,-0.5"/>
  </g>
  <g id="resetDef">
    <use xlink:href="#rim2" fill="#404040"><set attributeName="fill" to="#808080" begin="reset.mouseover" end="reset.mouseout"/></use>
  </g>
</defs>
<script type="application/ecmascript">
var viewWidth = 731;
var viewHeight = 343;
var sectionId = 'dynsection-0';
</script>
<script type="application/ecmascript" xlink:href="svg.min.js"/>
<svg id="graph" class="graph">
<g id="viewport">
<title>Mema::SerializableMessage</title>
<!-- Node1 -->
<g id="Node000001" class="node">
<title>Node1</title>
<g id="a_Node000001"><a xlink:title="Base class for all messages exchanged between Mema, Mema.Mo, and Mema.Re over TCP.">
<polygon fill="#999999" stroke="#666666" points="276,-182 122,-182 122,-163 276,-163 276,-182"/>
<text text-anchor="middle" x="199" y="-170" font-family="Helvetica,sans-Serif" font-size="10.00">Mema::SerializableMessage</text>
</a>
</g>
</g>
<!-- Node3 -->
<g id="Node000003" class="node">
<title>Node3</title>
<g id="a_Node000003"><a xlink:href="classMema_1_1AnalyzerParametersMessage.html" target="_top" xlink:title="Carries audio&#45;device parameters (sample rate, block size) from Mema to clients.">
<polygon fill="white" stroke="#666666" points="482,-334.5 330,-334.5 330,-304.5 482,-304.5 482,-334.5"/>
<text text-anchor="start" x="338" y="-322.5" font-family="Helvetica,sans-Serif" font-size="10.00">Mema::AnalyzerParameters</text>
<text text-anchor="middle" x="406" y="-311.5" font-family="Helvetica,sans-Serif" font-size="10.00">Message</text>
</a>
</g>
</g>
<!-- Node1&#45;&gt;Node3 -->
<g id="edge2_Node000001_Node000003" class="edge">
<title>Node1&#45;&gt;Node3</title>
<g id="a_edge2_Node000001_Node000003"><a xlink:title=" ">
<path fill="none" stroke="#63b8ff" d="M211.57,-190.57C229.7,-217.37 267.36,-267.42 312,-294.5 318.43,-298.4 325.48,-301.71 332.72,-304.5"/>
<polygon fill="#63b8ff" stroke="#63b8ff" points="214.43,-188.54 206,-182.13 208.59,-192.4 214.43,-188.54"/>
</a>
</g>
</g>
<!-- Node4 -->
<g id="Node000004" class="node">
<title>Node4</title>
<g id="a_Node000004"><a xlink:href="classMema_1_1AudioBufferMessage.html" target="_top" xlink:title="Base message carrying a serialised audio buffer and its flow&#45;direction metadata.">
<polygon fill="white" stroke="#666666" points="483,-286 329,-286 329,-267 483,-267 483,-286"/>
<text text-anchor="middle" x="406" y="-274" font-family="Helvetica,sans-Serif" font-size="10.00">Mema::AudioBufferMessage</text>
</a>
</g>
</g>
<!-- Node1&#45;&gt;Node4 -->
<g id="edge3_Node000001_Node000004" class="edge">
<title>Node1&#45;&gt;Node4</title>
<g id="a_edge3_Node000001_Node000004"><a xlink:title=" ">
<path fill="none" stroke="#63b8ff" d="M216.81,-189.21C237.43,-208.7 274.31,-240.43 312,-257.5 320.56,-261.38 329.91,-264.47 339.29,-266.93"/>
<polygon fill="#63b8ff" stroke="#63b8ff" points="219.12,-186.58 209.5,-182.16 214.27,-191.62 219.12,-186.58"/>
</a>
</g>
</g>
<!-- Node7 -->
<g id="Node000007" class="node">
<title>Node7</title>
<g id="a_Node000007"><a xlink:href="classMema_1_1ControlParametersMessage.html" target="_top" xlink:title="Full routing&#45;matrix state snapshot exchanged bidirectionally between Mema and Mema....">
<polygon fill="white" stroke="#666666" points="500,-249 312,-249 312,-230 500,-230 500,-249"/>
<text text-anchor="middle" x="406" y="-237" font-family="Helvetica,sans-Serif" font-size="10.00">Mema::ControlParametersMessage</text>
</a>
</g>
</g>
<!-- Node1&#45;&gt;Node7 -->
<g id="edge6_Node000001_Node000007" class="edge">
<title>Node1&#45;&gt;Node7</title>
<g id="a_edge6_Node000001_Node000007"><a xlink:title=" ">
<path fill="none" stroke="#63b8ff" d="M228.18,-186.48C250.47,-197.07 282.63,-211.31 312,-220.5 323.8,-224.19 336.66,-227.35 348.96,-229.97"/>
<polygon fill="#63b8ff" stroke="#63b8ff" points="229.5,-183.23 218.97,-182.05 226.47,-189.54 229.5,-183.23"/>
</a>
</g>
</g>
<!-- Node8 -->
<g id="Node000008" class="node">
<title>Node8</title>
<g id="a_Node000008"><a xlink:href="classMema_1_1DataTrafficTypeSelectionMessage.html" target="_top" xlink:title="Sent by a client to opt in to receiving specific message types from Mema.">
<polygon fill="white" stroke="#666666" points="492.5,-211.5 319.5,-211.5 319.5,-181.5 492.5,-181.5 492.5,-211.5"/>
<text text-anchor="start" x="327.5" y="-199.5" font-family="Helvetica,sans-Serif" font-size="10.00">Mema::DataTrafficTypeSelection</text>
<text text-anchor="middle" x="406" y="-188.5" font-family="Helvetica,sans-Serif" font-size="10.00">Message</text>
</a>
</g>
</g>
<!-- Node1&#45;&gt;Node8 -->
<g id="edge7_Node000001_Node000008" class="edge">
<title>Node1&#45;&gt;Node8</title>
<g id="a_edge7_Node000001_Node000008"><a xlink:title=" ">
<path fill="none" stroke="#63b8ff" d="M286.08,-182.58C297.11,-183.87 308.4,-185.19 319.41,-186.48"/>
<polygon fill="#63b8ff" stroke="#63b8ff" points="286.38,-179.09 276.04,-181.4 285.57,-186.04 286.38,-179.09"/>
</a>
</g>
</g>
<!-- Node9 -->
<g id="Node000009" class="node">
<title>Node9</title>
<g id="a_Node000009"><a xlink:href="classMema_1_1EnvironmentParametersMessage.html" target="_top" xlink:title="Carries the active look&#45;and&#45;feel palette style from Mema to connected clients.">
<polygon fill="white" stroke="#666666" points="491.5,-163.5 320.5,-163.5 320.5,-133.5 491.5,-133.5 491.5,-163.5"/>
<text text-anchor="start" x="328.5" y="-151.5" font-family="Helvetica,sans-Serif" font-size="10.00">Mema::EnvironmentParameters</text>
<text text-anchor="middle" x="406" y="-140.5" font-family="Helvetica,sans-Serif" font-size="10.00">Message</text>
</a>
</g>
</g>
<!-- Node1&#45;&gt;Node9 -->
<g id="edge8_Node000001_Node000009" class="edge">
<title>Node1&#45;&gt;Node9</title>
<g id="a_edge8_Node000001_Node000009"><a xlink:title=" ">
<path fill="none" stroke="#63b8ff" d="M285.98,-162.43C297.39,-161.1 309.08,-159.73 320.46,-158.4"/>
<polygon fill="#63b8ff" stroke="#63b8ff" points="285.57,-158.96 276.04,-163.6 286.38,-165.91 285.57,-158.96"/>
</a>
</g>
</g>
<!-- Node10 -->
<g id="Node000010" class="node">
<title>Node10</title>
<g id="a_Node000010"><a xlink:href="classMema_1_1PluginParameterInfosMessage.html" target="_top" xlink:title="Carries the plugin name and complete parameter descriptor list from Mema to Mema.Re clients.">
<polygon fill="white" stroke="#666666" points="485,-115.5 327,-115.5 327,-85.5 485,-85.5 485,-115.5"/>
<text text-anchor="start" x="335" y="-103.5" font-family="Helvetica,sans-Serif" font-size="10.00">Mema::PluginParameterInfos</text>
<text text-anchor="middle" x="406" y="-92.5" font-family="Helvetica,sans-Serif" font-size="10.00">Message</text>
</a>
</g>
</g>
<!-- Node1&#45;&gt;Node10 -->
<g id="edge9_Node000001_Node000010" class="edge">
<title>Node1&#45;&gt;Node10</title>
<g id="a_edge9_Node000001_Node000010"><a xlink:title=" ">
<path fill="none" stroke="#63b8ff" d="M229.12,-158.57C251.45,-148.24 283.22,-134.32 312,-124.5 321.31,-121.32 331.27,-118.34 341.08,-115.62"/>
<polygon fill="#63b8ff" stroke="#63b8ff" points="227.45,-155.48 219.87,-162.89 230.41,-161.83 227.45,-155.48"/>
</a>
</g>
</g>
<!-- Node11 -->
<g id="Node000011" class="node">
<title>Node11</title>
<g id="a_Node000011"><a xlink:href="classMema_1_1PluginParameterValueMessage.html" target="_top" xlink:title="Carries a single normalised plugin parameter value from Mema.Re to Mema.">
<polygon fill="white" stroke="#666666" points="486.5,-67.5 325.5,-67.5 325.5,-37.5 486.5,-37.5 486.5,-67.5"/>
<text text-anchor="start" x="333.5" y="-55.5" font-family="Helvetica,sans-Serif" font-size="10.00">Mema::PluginParameterValue</text>
<text text-anchor="middle" x="406" y="-44.5" font-family="Helvetica,sans-Serif" font-size="10.00">Message</text>
</a>
</g>
</g>
<!-- Node1&#45;&gt;Node11 -->
<g id="edge10_Node000001_Node000011" class="edge">
<title>Node1&#45;&gt;Node11</title>
<g id="a_edge10_Node000001_Node000011"><a xlink:title=" ">
<path fill="none" stroke="#63b8ff" d="M215.02,-155.53C235.03,-133.96 272.53,-97.08 312,-76.5 318.51,-73.11 325.52,-70.17 332.68,-67.64"/>
<polygon fill="#63b8ff" stroke="#63b8ff" points="212.38,-153.22 208.24,-162.98 217.56,-157.94 212.38,-153.22"/>
</a>
</g>
</g>
<!-- Node12 -->
<g id="Node000012" class="node">
<title>Node12</title>
<g id="a_Node000012"><a xlink:href="classMema_1_1ReinitIOCountMessage.html" target="_top" xlink:title="Instructs clients to tear down and rebuild their UI for a new channel count.">
<polygon fill="white" stroke="#666666" points="488,-19 324,-19 324,0 488,0 488,-19"/>
<text text-anchor="middle" x="406" y="-7" font-family="Helvetica,sans-Serif" font-size="10.00">Mema::ReinitIOCountMessage</text>
</a>
</g>
</g>
<!-- Node1&#45;&gt;Node12 -->
<g id="edge11_Node000001_Node000012" class="edge">
<title>Node1&#45;&gt;Node12</title>
<g id="a_edge11_Node000001_Node000012"><a xlink:title=" ">
<path fill="none" stroke="#63b8ff" d="M208.88,-153.91C224.85,-122.64 261.5,-59.86 312,-28.5 318.16,-24.68 324.95,-21.6 331.97,-19.14"/>
<polygon fill="#63b8ff" stroke="#63b8ff" points="205.74,-152.36 204.43,-162.88 212.01,-155.47 205.74,-152.36"/>
</a>
</g>
</g>
<!-- Node2 -->
<g id="Node000002" class="node">
<title>Node2</title>
<g id="a_Node000002"><a xlink:title=" ">
<polygon fill="white" stroke="#666666" points="86,-182 0,-182 0,-163 86,-163 86,-182"/>
<text text-anchor="middle" x="43" y="-170" font-family="Helvetica,sans-Serif" font-size="10.00">juce::Message</text>
</a>
</g>
</g>
<!-- Node2&#45;&gt;Node1 -->
<g id="edge1_Node000001_Node000002" class="edge">
<title>Node2&#45;&gt;Node1</title>
<g id="a_edge1_Node000001_Node000002"><a xlink:title=" ">
<path fill="none" stroke="#63b8ff" d="M96.29,-172.5C104.55,-172.5 113.24,-172.5 121.92,-172.5"/>
<polygon fill="#63b8ff" stroke="#63b8ff" points="96.08,-169 86.08,-172.5 96.08,-176 96.08,-169"/>
</a>
</g>
</g>
<!-- Node5 -->
<g id="Node000005" class="node">
<title>Node5</title>
<g id="a_Node000005"><a xlink:href="classMema_1_1AudioInputBufferMessage.html" target="_top" xlink:title="Carries a pre&#45;matrix input audio buffer streamed continuously from Mema to subscribed clients.">
<polygon fill="white" stroke="#666666" points="719,-304 540,-304 540,-285 719,-285 719,-304"/>
<text text-anchor="middle" x="629.5" y="-292" font-family="Helvetica,sans-Serif" font-size="10.00">Mema::AudioInputBufferMessage</text>
</a>
</g>
</g>
<!-- Node4&#45;&gt;Node5 -->
<g id="edge4_Node000004_Node000005" class="edge">
<title>Node4&#45;&gt;Node5</title>
<g id="a_edge4_Node000004_Node000005"><a xlink:title=" ">
<path fill="none" stroke="#63b8ff" d="M493.2,-283.5C508.54,-284.75 524.54,-286.05 539.94,-287.3"/>
<polygon fill="#63b8ff" stroke="#63b8ff" points="493.48,-280.02 483.23,-282.69 492.91,-286.99 493.48,-280.02"/>
</a>
</g>
</g>
<!-- Node6 -->
<g id="Node000006" class="node">
<title>Node6</title>
<g id="a_Node000006"><a xlink:href="classMema_1_1AudioOutputBufferMessage.html" target="_top" xlink:title="Carries a post&#45;matrix output audio buffer streamed continuously from Mema to subscribed clients.">
<polygon fill="white" stroke="#666666" points="723,-267 536,-267 536,-248 723,-248 723,-267"/>
<text text-anchor="middle" x="629.5" y="-255" font-family="Helvetica,sans-Serif" font-size="10.00">Mema::AudioOutputBufferMessage</text>
</a>
</g>
</g>
<!-- Node4&#45;&gt;Node6 -->
<g id="edge5_Node000004_Node000006" class="edge">
<title>Node4&#45;&gt;Node6</title>
<g id="a_edge5_Node000004_Node000006"><a xlink:title=" ">
<path fill="none" stroke="#63b8ff" d="M493.25,-269.1C507.16,-267.91 521.62,-266.67 535.68,-265.46"/>
<polygon fill="#63b8ff" stroke="#63b8ff" points="492.89,-265.62 483.23,-269.96 493.49,-272.59 492.89,-265.62"/>
</a>
</g>
</g>
</g>
</svg>

<g id="navigator" transform="translate(0 0)" fill="#404254">
  <rect fill="#f2f5e9" fill-opacity="0.5" stroke="#606060" stroke-width=".5" x="0" y="0" width="60" height="60"/>
  <use id="zoomplus" xlink:href="#zoomPlus" x="17" y="9" onmousedown="handleZoom(evt,'in')"/>
  <use id="zoomminus" xlink:href="#zoomMin" x="42" y="9" onmousedown="handleZoom(evt,'out')"/>
  <use id="reset" xlink:href="#resetDef" x="30" y="36" onmousedown="handleReset()"/>
   <use id="arrowup" xlink:href="#arrowUp" x="0" y="0" onmousedown="handlePan(0,-1)"/>
  <use id="arrowright" xlink:href="#arrowRight" x="0" y="0" onmousedown="handlePan(1,0)"/>
  <use id="arrowdown" xlink:href="#arrowDown" x="0" y="0" onmousedown="handlePan(0,1)"/>
  <use id="arrowleft" xlink:href="#arrowLeft" x="0" y="0" onmousedown="handlePan(-1,0)"/>
</g>
<svg viewBox="0 0 15 15" width="100%" height="30px" preserveAspectRatio="xMaxYMin meet">
 <g id="arrow_out" transform="scale(0.3 0.3)">
  <a xlink:href="classMema_1_1SerializableMessage__inherit__graph_org.svg" target="_base">
   <rect id="button" ry="5" rx="5" y="6" x="6" height="38" width="38"
        fill="#f2f5e9" fill-opacity="0.5" stroke="#606060" stroke-width="1.0"/>
   <path id="arrow"
     d="M 11.500037,31.436501 C 11.940474,20.09759 22.043105,11.32322 32.158766,21.979434 L 37.068811,17.246167 C 37.068811,17.246167 37.088388,32 37.088388,32 L 22.160133,31.978069 C 22.160133,31.978069 26.997745,27.140456 26.997745,27.140456 C 18.528582,18.264221 13.291696,25.230495 11.500037,31.436501 z"
     style="fill:#404040;"/>
  </a>
 </g>
</svg>

<style type='text/css'>
<![CDATA[
[data-mouse-over-selected='false'] { opacity: 0.7; }
[data-mouse-over-selected='true']  { opacity: 1.0; }
]]>
</style>
<script type="application/ecmascript"><![CDATA[
document.addEventListener('DOMContentLoaded', (event) => {
  highlightEdges();
  highlightAdjacentNodes();
});
]]></script>
</svg>
