<?xml version="1.0" encoding="UTF-8" standalone="no"?>
<!DOCTYPE svg PUBLIC "-//W3C//DTD SVG 1.1//EN"
 "http://www.w3.org/Graphics/SVG/1.1/DTD/svg11.dtd">
<!-- Generated by graphviz version 2.43.0 (0)
 -->
<!-- Title: Mema::MemaNetworkClientCommanderWrapper Pages: 1 -->
<svg width="674pt" height="138pt"
 viewBox="0.00 0.00 674.00 138.00" xmlns="http://www.w3.org/2000/svg" xmlns:xlink="http://www.w3.org/1999/xlink">
<g id="graph0" class="graph" transform="scale(1 1) rotate(0) translate(4 134)">
<title>Mema::MemaNetworkClientCommanderWrapper</title>
<!-- Node1 -->
<g id="Node000001" class="node">
<title>Node1</title>
<g id="a_Node000001"><a xlink:title=" ">
<polygon fill="#999999" stroke="#666666" points="666,-79.5 452,-79.5 452,-49.5 666,-49.5 666,-79.5"/>
<text text-anchor="start" x="460" y="-67.5" font-family="Helvetica,sans-Serif" font-size="10.00">Mema::MemaNetworkClientCommander</text>
<text text-anchor="middle" x="559" y="-56.5" font-family="Helvetica,sans-Serif" font-size="10.00">Wrapper</text>
</a>
</g>
</g>
<!-- Node2 -->
<g id="Node000002" class="node">
<title>Node2</title>
<g id="a_Node000002"><a xlink:href="classMema_1_1MemaInputCommander.html" target="_top" xlink:title=" ">
<polygon fill="white" stroke="#666666" points="402.5,-130 233.5,-130 233.5,-111 402.5,-111 402.5,-130"/>
<text text-anchor="middle" x="318" y="-118" font-family="Helvetica,sans-Serif" font-size="10.00">Mema::MemaInputCommander</text>
</a>
</g>
</g>
<!-- Node2&#45;&gt;Node1 -->
<g id="edge1_Node000001_Node000002" class="edge">
<title>Node2&#45;&gt;Node1</title>
<g id="a_edge1_Node000001_Node000002"><a xlink:title=" ">
<path fill="none" stroke="#63b8ff" d="M384.56,-109.05C395.1,-107.01 405.87,-104.79 416,-102.5 445.87,-95.74 478.94,-86.97 505.64,-79.56"/>
<polygon fill="#63b8ff" stroke="#63b8ff" points="383.72,-105.65 374.55,-110.96 385.03,-112.53 383.72,-105.65"/>
</a>
</g>
</g>
<!-- Node3 -->
<g id="Node000003" class="node">
<title>Node3</title>
<g id="a_Node000003"><a xlink:href="classMema_1_1MemaChannelCommander.html" target="_top" xlink:title=" ">
<polygon fill="white" stroke="#666666" points="184,-93 0,-93 0,-74 184,-74 184,-93"/>
<text text-anchor="middle" x="92" y="-81" font-family="Helvetica,sans-Serif" font-size="10.00">Mema::MemaChannelCommander</text>
</a>
</g>
</g>
<!-- Node3&#45;&gt;Node2 -->
<g id="edge2_Node000002_Node000003" class="edge">
<title>Node3&#45;&gt;Node2</title>
<g id="a_edge2_Node000002_Node000003"><a xlink:title=" ">
<path fill="none" stroke="#63b8ff" d="M160.67,-94.68C192.08,-99.87 229.03,-105.97 259.12,-110.94"/>
<polygon fill="#63b8ff" stroke="#63b8ff" points="161.12,-91.2 150.69,-93.03 159.98,-98.11 161.12,-91.2"/>
</a>
</g>
</g>
<!-- Node4 -->
<g id="Node000004" class="node">
<title>Node4</title>
<g id="a_Node000004"><a xlink:href="classMema_1_1MemaOutputCommander.html" target="_top" xlink:title=" ">
<polygon fill="white" stroke="#666666" points="406.5,-93 229.5,-93 229.5,-74 406.5,-74 406.5,-93"/>
<text text-anchor="middle" x="318" y="-81" font-family="Helvetica,sans-Serif" font-size="10.00">Mema::MemaOutputCommander</text>
</a>
</g>
</g>
<!-- Node3&#45;&gt;Node4 -->
<g id="edge4_Node000004_Node000003" class="edge">
<title>Node3&#45;&gt;Node4</title>
<g id="a_edge4_Node000004_Node000003"><a xlink:title=" ">
<path fill="none" stroke="#63b8ff" d="M194.3,-83.5C205.96,-83.5 217.77,-83.5 229.23,-83.5"/>
<polygon fill="#63b8ff" stroke="#63b8ff" points="194.11,-80 184.11,-83.5 194.11,-87 194.11,-80"/>
</a>
</g>
</g>
<!-- Node5 -->
<g id="Node000005" class="node">
<title>Node5</title>
<g id="a_Node000005"><a xlink:href="classMema_1_1MemaCrosspointCommander.html" target="_top" xlink:title=" ">
<polygon fill="white" stroke="#666666" points="416,-56 220,-56 220,-37 416,-37 416,-56"/>
<text text-anchor="middle" x="318" y="-44" font-family="Helvetica,sans-Serif" font-size="10.00">Mema::MemaCrosspointCommander</text>
</a>
</g>
</g>
<!-- Node3&#45;&gt;Node5 -->
<g id="edge6_Node000005_Node000003" class="edge">
<title>Node3&#45;&gt;Node5</title>
<g id="a_edge6_Node000005_Node000003"><a xlink:title=" ">
<path fill="none" stroke="#63b8ff" d="M160.67,-72.32C192.08,-67.13 229.03,-61.03 259.12,-56.06"/>
<polygon fill="#63b8ff" stroke="#63b8ff" points="159.98,-68.89 150.69,-73.97 161.12,-75.8 159.98,-68.89"/>
</a>
</g>
</g>
<!-- Node4&#45;&gt;Node1 -->
<g id="edge3_Node000001_Node000004" class="edge">
<title>Node4&#45;&gt;Node1</title>
<g id="a_edge3_Node000001_Node000004"><a xlink:title=" ">
<path fill="none" stroke="#63b8ff" d="M416.69,-75.73C428.23,-74.82 440.05,-73.88 451.7,-72.95"/>
<polygon fill="#63b8ff" stroke="#63b8ff" points="416.33,-72.25 406.64,-76.53 416.88,-79.23 416.33,-72.25"/>
</a>
</g>
</g>
<!-- Node5&#45;&gt;Node1 -->
<g id="edge5_Node000001_Node000005" class="edge">
<title>Node5&#45;&gt;Node1</title>
<g id="a_edge5_Node000001_Node000005"><a xlink:title=" ">
<path fill="none" stroke="#63b8ff" d="M426.19,-54.57C434.74,-55.22 443.37,-55.87 451.91,-56.51"/>
<polygon fill="#63b8ff" stroke="#63b8ff" points="426.45,-51.08 416.21,-53.82 425.92,-58.06 426.45,-51.08"/>
</a>
</g>
</g>
<!-- Node6 -->
<g id="Node000006" class="node">
<title>Node6</title>
<g id="a_Node000006"><a xlink:href="classMema_1_1MemaPluginCommander.html" target="_top" xlink:title=" ">
<polygon fill="white" stroke="#666666" points="405,-19 231,-19 231,0 405,0 405,-19"/>
<text text-anchor="middle" x="318" y="-7" font-family="Helvetica,sans-Serif" font-size="10.00">Mema::MemaPluginCommander</text>
</a>
</g>
</g>
<!-- Node6&#45;&gt;Node1 -->
<g id="edge7_Node000001_Node000006" class="edge">
<title>Node6&#45;&gt;Node1</title>
<g id="a_edge7_Node000001_Node000006"><a xlink:title=" ">
<path fill="none" stroke="#63b8ff" d="M384.15,-20.93C394.82,-22.99 405.74,-25.21 416,-27.5 445.22,-34.01 477.53,-42.34 503.94,-49.44"/>
<polygon fill="#63b8ff" stroke="#63b8ff" points="384.51,-17.43 374.03,-19.01 383.2,-24.31 384.51,-17.43"/>
</a>
</g>
</g>
</g>
</svg>
