<?xml version="1.0" encoding="UTF-8" standalone="no"?>
<!DOCTYPE svg PUBLIC "-//W3C//DTD SVG 1.1//EN"
 "http://www.w3.org/Graphics/SVG/1.1/DTD/svg11.dtd">
<!-- Generated by graphviz version 2.43.0 (0)
 -->
<!-- Title: Mema::EnvironmentParametersMessage Pages: 1 -->
<svg width="179pt" height="148pt"
 viewBox="0.00 0.00 179.00 148.00" xmlns="http://www.w3.org/2000/svg" xmlns:xlink="http://www.w3.org/1999/xlink">
<g id="graph0" class="graph" transform="scale(1 1) rotate(0) translate(4 144)">
<title>Mema::EnvironmentParametersMessage</title>
<!-- Node1 -->
<g id="Node000001" class="node">
<title>Node1</title>
<g id="a_Node000001"><a xlink:title="Carries the active look&#45;and&#45;feel palette style from Mema to connected clients.">
<polygon fill="#999999" stroke="#666666" points="171,-30 0,-30 0,0 171,0 171,-30"/>
<text text-anchor="start" x="8" y="-18" font-family="Helvetica,sans-Serif" font-size="10.00">Mema::EnvironmentParameters</text>
<text text-anchor="middle" x="85.5" y="-7" font-family="Helvetica,sans-Serif" font-size="10.00">Message</text>
</a>
</g>
</g>
<!-- Node2 -->
<g id="Node000002" class="node">
<title>Node2</title>
<g id="a_Node000002"><a xlink:href="classMema_1_1SerializableMessage.html" target="_top" xlink:title="Base class for all messages exchanged between Mema, Mema.Mo, and Mema.Re over TCP.">
<polygon fill="white" stroke="#666666" points="162.5,-85 8.5,-85 8.5,-66 162.5,-66 162.5,-85"/>
<text text-anchor="middle" x="85.5" y="-73" font-family="Helvetica,sans-Serif" font-size="10.00">Mema::SerializableMessage</text>
</a>
</g>
</g>
<!-- Node2&#45;&gt;Node1 -->
<g id="edge1_Node000001_Node000002" class="edge">
<title>Node2&#45;&gt;Node1</title>
<g id="a_edge1_Node000001_Node000002"><a xlink:title=" ">
<path fill="none" stroke="#63b8ff" d="M85.5,-55.65C85.5,-47.36 85.5,-37.78 85.5,-30.11"/>
<polygon fill="#63b8ff" stroke="#63b8ff" points="82,-55.87 85.5,-65.87 89,-55.87 82,-55.87"/>
</a>
</g>
</g>
<!-- Node3 -->
<g id="Node000003" class="node">
<title>Node3</title>
<g id="a_Node000003"><a xlink:title=" ">
<polygon fill="white" stroke="#666666" points="128.5,-140 42.5,-140 42.5,-121 128.5,-121 128.5,-140"/>
<text text-anchor="middle" x="85.5" y="-128" font-family="Helvetica,sans-Serif" font-size="10.00">juce::Message</text>
</a>
</g>
</g>
<!-- Node3&#45;&gt;Node2 -->
<g id="edge2_Node000002_Node000003" class="edge">
<title>Node3&#45;&gt;Node2</title>
<g id="a_edge2_Node000002_Node000003"><a xlink:title=" ">
<path fill="none" stroke="#63b8ff" d="M85.5,-110.66C85.5,-101.93 85.5,-91.99 85.5,-85.09"/>
<polygon fill="#63b8ff" stroke="#63b8ff" points="82,-110.75 85.5,-120.75 89,-110.75 82,-110.75"/>
</a>
</g>
</g>
</g>
</svg>
