<?xml version="1.0" encoding="UTF-8" standalone="no"?>
<!DOCTYPE svg PUBLIC "-//W3C//DTD SVG 1.1//EN"
 "http://www.w3.org/Graphics/SVG/1.1/DTD/svg11.dtd">
<!-- Generated by graphviz version 2.43.0 (0)
 -->
<!-- Title: Mema::OutputControlComponent Pages: 1 -->
<svg width="619pt" height="176pt"
 viewBox="0.00 0.00 619.00 176.00" xmlns="http://www.w3.org/2000/svg" xmlns:xlink="http://www.w3.org/1999/xlink">
<g id="graph0" class="graph" transform="scale(1 1) rotate(0) translate(4 172)">
<title>Mema::OutputControlComponent</title>
<!-- Node1 -->
<g id="Node000001" class="node">
<title>Node1</title>
<g id="a_Node000001"><a xlink:title="Output&#45;channel control strip — shows level meters and mute buttons for all output channels.">
<polygon fill="#999999" stroke="#666666" points="611,-56 433,-56 433,-37 611,-37 611,-56"/>
<text text-anchor="middle" x="522" y="-44" font-family="Helvetica,sans-Serif" font-size="10.00">Mema::OutputControlComponent</text>
</a>
</g>
</g>
<!-- Node2 -->
<g id="Node000002" class="node">
<title>Node2</title>
<g id="a_Node000002"><a xlink:href="classMema_1_1AbstractAudioVisualizer.html" target="_top" xlink:title="Base class for all audio&#45;data visualisation components in the Mema processor editor.">
<polygon fill="white" stroke="#666666" points="393.5,-114 223.5,-114 223.5,-95 393.5,-95 393.5,-114"/>
<text text-anchor="middle" x="308.5" y="-102" font-family="Helvetica,sans-Serif" font-size="10.00">Mema::AbstractAudioVisualizer</text>
</a>
</g>
</g>
<!-- Node2&#45;&gt;Node1 -->
<g id="edge1_Node000001_Node000002" class="edge">
<title>Node2&#45;&gt;Node1</title>
<g id="a_edge1_Node000001_Node000002"><a xlink:title=" ">
<path fill="none" stroke="#63b8ff" d="M354.28,-92.22C393.58,-81.44 449.95,-65.98 486.02,-56.09"/>
<polygon fill="#63b8ff" stroke="#63b8ff" points="353.14,-88.9 344.42,-94.92 354.99,-95.65 353.14,-88.9"/>
</a>
</g>
</g>
<!-- Node3 -->
<g id="Node000003" class="node">
<title>Node3</title>
<g id="a_Node000003"><a xlink:title=" ">
<polygon fill="white" stroke="#666666" points="141.5,-168 42.5,-168 42.5,-149 141.5,-149 141.5,-168"/>
<text text-anchor="middle" x="92" y="-156" font-family="Helvetica,sans-Serif" font-size="10.00">juce::Component</text>
</a>
</g>
</g>
<!-- Node3&#45;&gt;Node2 -->
<g id="edge2_Node000002_Node000003" class="edge">
<title>Node3&#45;&gt;Node2</title>
<g id="a_edge2_Node000002_Node000003"><a xlink:title=" ">
<path fill="none" stroke="#63b8ff" d="M151.58,-146.9C162.39,-144.58 173.56,-142.07 184,-139.5 215.6,-131.73 251.32,-121.44 276.19,-114.03"/>
<polygon fill="#63b8ff" stroke="#63b8ff" points="150.85,-143.48 141.79,-148.97 152.29,-150.33 150.85,-143.48"/>
</a>
</g>
</g>
<!-- Node4 -->
<g id="Node000004" class="node">
<title>Node4</title>
<g id="a_Node000004"><a xlink:href="classMema_1_1ProcessorDataAnalyzer_1_1Listener.html" target="_top" xlink:title=" ">
<polygon fill="white" stroke="#666666" points="175.5,-130.5 8.5,-130.5 8.5,-100.5 175.5,-100.5 175.5,-130.5"/>
<text text-anchor="start" x="16.5" y="-118.5" font-family="Helvetica,sans-Serif" font-size="10.00">Mema::ProcessorDataAnalyzer</text>
<text text-anchor="middle" x="92" y="-107.5" font-family="Helvetica,sans-Serif" font-size="10.00">::Listener</text>
</a>
</g>
</g>
<!-- Node4&#45;&gt;Node2 -->
<g id="edge3_Node000002_Node000004" class="edge">
<title>Node4&#45;&gt;Node2</title>
<g id="a_edge3_Node000002_Node000004"><a xlink:title=" ">
<path fill="none" stroke="#63b8ff" d="M185.64,-110.75C198.23,-110.1 211.08,-109.44 223.5,-108.81"/>
<polygon fill="#63b8ff" stroke="#63b8ff" points="185.43,-107.26 175.62,-111.26 185.79,-114.25 185.43,-107.26"/>
</a>
</g>
</g>
<!-- Node5 -->
<g id="Node000005" class="node">
<title>Node5</title>
<g id="a_Node000005"><a xlink:title=" ">
<polygon fill="white" stroke="#666666" points="127.5,-82 56.5,-82 56.5,-63 127.5,-63 127.5,-82"/>
<text text-anchor="middle" x="92" y="-70" font-family="Helvetica,sans-Serif" font-size="10.00">juce::Timer</text>
</a>
</g>
</g>
<!-- Node5&#45;&gt;Node2 -->
<g id="edge4_Node000002_Node000005" class="edge">
<title>Node5&#45;&gt;Node2</title>
<g id="a_edge4_Node000002_Node000005"><a xlink:title=" ">
<path fill="none" stroke="#63b8ff" d="M137.9,-79.2C168.52,-83.77 209.53,-89.88 243.55,-94.96"/>
<polygon fill="#63b8ff" stroke="#63b8ff" points="138.35,-75.73 127.94,-77.71 137.31,-82.65 138.35,-75.73"/>
</a>
</g>
</g>
<!-- Node6 -->
<g id="Node000006" class="node">
<title>Node6</title>
<g id="a_Node000006"><a xlink:href="classMema_1_1MemaOutputCommander.html" target="_top" xlink:title=" ">
<polygon fill="white" stroke="#666666" points="397,-56 220,-56 220,-37 397,-37 397,-56"/>
<text text-anchor="middle" x="308.5" y="-44" font-family="Helvetica,sans-Serif" font-size="10.00">Mema::MemaOutputCommander</text>
</a>
</g>
</g>
<!-- Node6&#45;&gt;Node1 -->
<g id="edge5_Node000001_Node000006" class="edge">
<title>Node6&#45;&gt;Node1</title>
<g id="a_edge5_Node000001_Node000006"><a xlink:title=" ">
<path fill="none" stroke="#63b8ff" d="M407.08,-46.5C415.67,-46.5 424.33,-46.5 432.83,-46.5"/>
<polygon fill="#63b8ff" stroke="#63b8ff" points="407.05,-43 397.05,-46.5 407.05,-50 407.05,-43"/>
</a>
</g>
</g>
<!-- Node7 -->
<g id="Node000007" class="node">
<title>Node7</title>
<g id="a_Node000007"><a xlink:href="classMema_1_1MemaChannelCommander.html" target="_top" xlink:title=" ">
<polygon fill="white" stroke="#666666" points="184,-45 0,-45 0,-26 184,-26 184,-45"/>
<text text-anchor="middle" x="92" y="-33" font-family="Helvetica,sans-Serif" font-size="10.00">Mema::MemaChannelCommander</text>
</a>
</g>
</g>
<!-- Node7&#45;&gt;Node6 -->
<g id="edge6_Node000006_Node000007" class="edge">
<title>Node7&#45;&gt;Node6</title>
<g id="a_edge6_Node000006_Node000007"><a xlink:title=" ">
<path fill="none" stroke="#63b8ff" d="M194.51,-40.71C202.94,-41.14 211.41,-41.57 219.72,-42"/>
<polygon fill="#63b8ff" stroke="#63b8ff" points="194.44,-37.2 184.28,-40.18 194.09,-44.19 194.44,-37.2"/>
</a>
</g>
</g>
<!-- Node8 -->
<g id="Node000008" class="node">
<title>Node8</title>
<g id="a_Node000008"><a xlink:title=" ">
<polygon fill="white" stroke="#666666" points="378.5,-19 238.5,-19 238.5,0 378.5,0 378.5,-19"/>
<text text-anchor="middle" x="308.5" y="-7" font-family="Helvetica,sans-Serif" font-size="10.00">juce::TextButton::Listener</text>
</a>
</g>
</g>
<!-- Node8&#45;&gt;Node1 -->
<g id="edge7_Node000001_Node000008" class="edge">
<title>Node8&#45;&gt;Node1</title>
<g id="a_edge7_Node000001_Node000008"><a xlink:title=" ">
<path fill="none" stroke="#63b8ff" d="M374.17,-20.81C403.65,-25.97 438.19,-32.01 466.35,-36.94"/>
<polygon fill="#63b8ff" stroke="#63b8ff" points="374.42,-17.3 363.97,-19.03 373.21,-24.2 374.42,-17.3"/>
</a>
</g>
</g>
</g>
</svg>
