<?xml version="1.0" encoding="UTF-8" standalone="no"?>
<!DOCTYPE svg PUBLIC "-//W3C//DTD SVG 1.1//EN"
 "http://www.w3.org/Graphics/SVG/1.1/DTD/svg11.dtd">
<!-- Generated by graphviz version 2.43.0 (0)
 -->
<!-- Title: Mema::SerializableMessage Pages: 1 -->
<svg width="731pt" height="391pt"
 viewBox="0.00 0.00 731.00 390.50" xmlns="http://www.w3.org/2000/svg" xmlns:xlink="http://www.w3.org/1999/xlink">
<g id="graph0" class="graph" transform="scale(1 1) rotate(0) translate(4 386.5)">
<title>Mema::SerializableMessage</title>
<!-- Node1 -->
<g id="Node000001" class="node">
<title>Node1</title>
<g id="a_Node000001"><a xlink:title="Base class for all messages exchanged between Mema, Mema.Mo, and Mema.Re over TCP.">
<polygon fill="#999999" stroke="#666666" points="276,-206 122,-206 122,-187 276,-187 276,-206"/>
<text text-anchor="middle" x="199" y="-194" font-family="Helvetica,sans-Serif" font-size="10.00">Mema::SerializableMessage</text>
</a>
</g>
</g>
<!-- Node3 -->
<g id="Node000003" class="node">
<title>Node3</title>
<g id="a_Node000003"><a xlink:href="classMema_1_1AnalyzerParametersMessage.html" target="_top" xlink:title="Carries audio&#45;device parameters (sample rate, block size) from Mema to clients.">
<polygon fill="white" stroke="#666666" points="482,-382.5 330,-382.5 330,-352.5 482,-352.5 482,-382.5"/>
<text text-anchor="start" x="338" y="-370.5" font-family="Helvetica,sans-Serif" font-size="10.00">Mema::AnalyzerParameters</text>
<text text-anchor="middle" x="406" y="-359.5" font-family="Helvetica,sans-Serif" font-size="10.00">Message</text>
</a>
</g>
</g>
<!-- Node1&#45;&gt;Node3 -->
<g id="edge2_Node000001_Node000003" class="edge">
<title>Node1&#45;&gt;Node3</title>
<g id="a_edge2_Node000001_Node000003"><a xlink:title=" ">
<path fill="none" stroke="#63b8ff" d="M209.02,-215.02C225.2,-246.23 262.16,-309.17 312,-342.5 317.84,-346.4 324.26,-349.7 330.92,-352.48"/>
<polygon fill="#63b8ff" stroke="#63b8ff" points="212.14,-213.43 204.51,-206.08 205.89,-216.58 212.14,-213.43"/>
</a>
</g>
</g>
<!-- Node4 -->
<g id="Node000004" class="node">
<title>Node4</title>
<g id="a_Node000004"><a xlink:href="classMema_1_1AudioBufferMessage.html" target="_top" xlink:title="Base message carrying a serialised audio buffer and its flow&#45;direction metadata.">
<polygon fill="white" stroke="#666666" points="483,-334 329,-334 329,-315 483,-315 483,-334"/>
<text text-anchor="middle" x="406" y="-322" font-family="Helvetica,sans-Serif" font-size="10.00">Mema::AudioBufferMessage</text>
</a>
</g>
</g>
<!-- Node1&#45;&gt;Node4 -->
<g id="edge3_Node000001_Node000004" class="edge">
<title>Node1&#45;&gt;Node4</title>
<g id="a_edge3_Node000001_Node000004"><a xlink:title=" ">
<path fill="none" stroke="#63b8ff" d="M212.93,-214.35C231.79,-238.98 269.28,-282.9 312,-305.5 319.28,-309.35 327.27,-312.43 335.4,-314.88"/>
<polygon fill="#63b8ff" stroke="#63b8ff" points="215.64,-212.13 206.85,-206.22 210.04,-216.33 215.64,-212.13"/>
</a>
</g>
</g>
<!-- Node7 -->
<g id="Node000007" class="node">
<title>Node7</title>
<g id="a_Node000007"><a xlink:href="classMema_1_1ControlParametersMessage.html" target="_top" xlink:title="Full routing&#45;matrix state snapshot exchanged bidirectionally between Mema and Mema....">
<polygon fill="white" stroke="#666666" points="500,-297 312,-297 312,-278 500,-278 500,-297"/>
<text text-anchor="middle" x="406" y="-285" font-family="Helvetica,sans-Serif" font-size="10.00">Mema::ControlParametersMessage</text>
</a>
</g>
</g>
<!-- Node1&#45;&gt;Node7 -->
<g id="edge6_Node000001_Node000007" class="edge">
<title>Node1&#45;&gt;Node7</title>
<g id="a_edge6_Node000001_Node000007"><a xlink:title=" ">
<path fill="none" stroke="#63b8ff" d="M219.6,-212.34C241.03,-228.84 277,-254.26 312,-268.5 321.46,-272.35 331.8,-275.45 342.03,-277.94"/>
<polygon fill="#63b8ff" stroke="#63b8ff" points="221.64,-209.49 211.61,-206.07 217.32,-215 221.64,-209.49"/>
</a>
</g>
</g>
<!-- Node8 -->
<g id="Node000008" class="node">
<title>Node8</title>
<g id="a_Node000008"><a xlink:href="classMema_1_1DataTrafficTypeSelectionMessage.html" target="_top" xlink:title="Sent by a client to opt in to receiving specific message types from Mema.">
<polygon fill="white" stroke="#666666" points="492.5,-259.5 319.5,-259.5 319.5,-229.5 492.5,-229.5 492.5,-259.5"/>
<text text-anchor="start" x="327.5" y="-247.5" font-family="Helvetica,sans-Serif" font-size="10.00">Mema::DataTrafficTypeSelection</text>
<text text-anchor="middle" x="406" y="-236.5" font-family="Helvetica,sans-Serif" font-size="10.00">Message</text>
</a>
</g>
</g>
<!-- Node1&#45;&gt;Node8 -->
<g id="edge7_Node000001_Node000008" class="edge">
<title>Node1&#45;&gt;Node8</title>
<g id="a_edge7_Node000001_Node000008"><a xlink:title=" ">
<path fill="none" stroke="#63b8ff" d="M251.05,-208.45C278.17,-214.8 311.78,-222.67 340.67,-229.44"/>
<polygon fill="#63b8ff" stroke="#63b8ff" points="251.53,-204.97 240.99,-206.1 249.93,-211.79 251.53,-204.97"/>
</a>
</g>
</g>
<!-- Node9 -->
<g id="Node000009" class="node">
<title>Node9</title>
<g id="a_Node000009"><a xlink:href="classMema_1_1EnvironmentParametersMessage.html" target="_top" xlink:title="Carries the active look&#45;and&#45;feel palette style from Mema to connected clients.">
<polygon fill="white" stroke="#666666" points="491.5,-211.5 320.5,-211.5 320.5,-181.5 491.5,-181.5 491.5,-211.5"/>
<text text-anchor="start" x="328.5" y="-199.5" font-family="Helvetica,sans-Serif" font-size="10.00">Mema::EnvironmentParameters</text>
<text text-anchor="middle" x="406" y="-188.5" font-family="Helvetica,sans-Serif" font-size="10.00">Message</text>
</a>
</g>
</g>
<!-- Node1&#45;&gt;Node9 -->
<g id="edge8_Node000001_Node000009" class="edge">
<title>Node1&#45;&gt;Node9</title>
<g id="a_edge8_Node000001_Node000009"><a xlink:title=" ">
<path fill="none" stroke="#63b8ff" d="M286.33,-196.5C297.62,-196.5 309.19,-196.5 320.46,-196.5"/>
<polygon fill="#63b8ff" stroke="#63b8ff" points="286.04,-193 276.04,-196.5 286.04,-200 286.04,-193"/>
</a>
</g>
</g>
<!-- Node10 -->
<g id="Node000010" class="node">
<title>Node10</title>
<g id="a_Node000010"><a xlink:href="classMema_1_1PluginParameterInfosMessage.html" target="_top" xlink:title="Carries the plugin name and complete parameter descriptor list from Mema to Mema.Re clients.">
<polygon fill="white" stroke="#666666" points="485,-163.5 327,-163.5 327,-133.5 485,-133.5 485,-163.5"/>
<text text-anchor="start" x="335" y="-151.5" font-family="Helvetica,sans-Serif" font-size="10.00">Mema::PluginParameterInfos</text>
<text text-anchor="middle" x="406" y="-140.5" font-family="Helvetica,sans-Serif" font-size="10.00">Message</text>
</a>
</g>
</g>
<!-- Node1&#45;&gt;Node10 -->
<g id="edge9_Node000001_Node000010" class="edge">
<title>Node1&#45;&gt;Node10</title>
<g id="a_edge9_Node000001_Node000010"><a xlink:title=" ">
<path fill="none" stroke="#63b8ff" d="M251.05,-184.55C278.17,-178.2 311.78,-170.33 340.67,-163.56"/>
<polygon fill="#63b8ff" stroke="#63b8ff" points="249.93,-181.21 240.99,-186.9 251.53,-188.03 249.93,-181.21"/>
</a>
</g>
</g>
<!-- Node11 -->
<g id="Node000011" class="node">
<title>Node11</title>
<g id="a_Node000011"><a xlink:href="classMema_1_1PluginParameterValueMessage.html" target="_top" xlink:title="Carries a single normalised plugin parameter value from Mema.Re to Mema.">
<polygon fill="white" stroke="#666666" points="486.5,-115.5 325.5,-115.5 325.5,-85.5 486.5,-85.5 486.5,-115.5"/>
<text text-anchor="start" x="333.5" y="-103.5" font-family="Helvetica,sans-Serif" font-size="10.00">Mema::PluginParameterValue</text>
<text text-anchor="middle" x="406" y="-92.5" font-family="Helvetica,sans-Serif" font-size="10.00">Message</text>
</a>
</g>
</g>
<!-- Node1&#45;&gt;Node11 -->
<g id="edge10_Node000001_Node000011" class="edge">
<title>Node1&#45;&gt;Node11</title>
<g id="a_edge10_Node000001_Node000011"><a xlink:title=" ">
<path fill="none" stroke="#63b8ff" d="M220.09,-180.75C241.69,-164.53 277.56,-139.55 312,-124.5 319.64,-121.16 327.84,-118.21 336.1,-115.63"/>
<polygon fill="#63b8ff" stroke="#63b8ff" points="217.85,-178.06 212.02,-186.91 222.1,-183.62 217.85,-178.06"/>
</a>
</g>
</g>
<!-- Node12 -->
<g id="Node000012" class="node">
<title>Node12</title>
<g id="a_Node000012"><a xlink:href="classMema_1_1PluginProcessingStateMessage.html" target="_top" xlink:title="Carries the plugin enabled and pre/post insertion state between Mema and Mema.Re.">
<polygon fill="white" stroke="#666666" points="486.5,-67.5 325.5,-67.5 325.5,-37.5 486.5,-37.5 486.5,-67.5"/>
<text text-anchor="start" x="333.5" y="-55.5" font-family="Helvetica,sans-Serif" font-size="10.00">Mema::PluginProcessingState</text>
<text text-anchor="middle" x="406" y="-44.5" font-family="Helvetica,sans-Serif" font-size="10.00">Message</text>
</a>
</g>
</g>
<!-- Node1&#45;&gt;Node12 -->
<g id="edge11_Node000001_Node000012" class="edge">
<title>Node1&#45;&gt;Node12</title>
<g id="a_edge11_Node000001_Node000012"><a xlink:title=" ">
<path fill="none" stroke="#63b8ff" d="M211.61,-178.68C229.79,-152.25 267.51,-102.94 312,-76.5 317.73,-73.09 323.95,-70.16 330.35,-67.65"/>
<polygon fill="#63b8ff" stroke="#63b8ff" points="208.69,-176.75 206.02,-187 214.5,-180.65 208.69,-176.75"/>
</a>
</g>
</g>
<!-- Node13 -->
<g id="Node000013" class="node">
<title>Node13</title>
<g id="a_Node000013"><a xlink:href="classMema_1_1ReinitIOCountMessage.html" target="_top" xlink:title="Instructs clients to tear down and rebuild their UI for a new channel count.">
<polygon fill="white" stroke="#666666" points="488,-19 324,-19 324,0 488,0 488,-19"/>
<text text-anchor="middle" x="406" y="-7" font-family="Helvetica,sans-Serif" font-size="10.00">Mema::ReinitIOCountMessage</text>
</a>
</g>
</g>
<!-- Node1&#45;&gt;Node13 -->
<g id="edge12_Node000001_Node000013" class="edge">
<title>Node1&#45;&gt;Node13</title>
<g id="a_edge12_Node000001_Node000013"><a xlink:title=" ">
<path fill="none" stroke="#63b8ff" d="M207,-177.36C221.03,-141.88 256.12,-66.09 312,-28.5 317.74,-24.64 324.1,-21.53 330.73,-19.03"/>
<polygon fill="#63b8ff" stroke="#63b8ff" points="203.62,-176.4 203.32,-186.99 210.16,-178.9 203.62,-176.4"/>
</a>
</g>
</g>
<!-- Node2 -->
<g id="Node000002" class="node">
<title>Node2</title>
<g id="a_Node000002"><a xlink:title=" ">
<polygon fill="white" stroke="#666666" points="86,-206 0,-206 0,-187 86,-187 86,-206"/>
<text text-anchor="middle" x="43" y="-194" font-family="Helvetica,sans-Serif" font-size="10.00">juce::Message</text>
</a>
</g>
</g>
<!-- Node2&#45;&gt;Node1 -->
<g id="edge1_Node000001_Node000002" class="edge">
<title>Node2&#45;&gt;Node1</title>
<g id="a_edge1_Node000001_Node000002"><a xlink:title=" ">
<path fill="none" stroke="#63b8ff" d="M96.29,-196.5C104.55,-196.5 113.24,-196.5 121.92,-196.5"/>
<polygon fill="#63b8ff" stroke="#63b8ff" points="96.08,-193 86.08,-196.5 96.08,-200 96.08,-193"/>
</a>
</g>
</g>
<!-- Node5 -->
<g id="Node000005" class="node">
<title>Node5</title>
<g id="a_Node000005"><a xlink:href="classMema_1_1AudioInputBufferMessage.html" target="_top" xlink:title="Carries a pre&#45;matrix input audio buffer streamed continuously from Mema to subscribed clients.">
<polygon fill="white" stroke="#666666" points="719,-352 540,-352 540,-333 719,-333 719,-352"/>
<text text-anchor="middle" x="629.5" y="-340" font-family="Helvetica,sans-Serif" font-size="10.00">Mema::AudioInputBufferMessage</text>
</a>
</g>
</g>
<!-- Node4&#45;&gt;Node5 -->
<g id="edge4_Node000004_Node000005" class="edge">
<title>Node4&#45;&gt;Node5</title>
<g id="a_edge4_Node000004_Node000005"><a xlink:title=" ">
<path fill="none" stroke="#63b8ff" d="M493.2,-331.5C508.54,-332.75 524.54,-334.05 539.94,-335.3"/>
<polygon fill="#63b8ff" stroke="#63b8ff" points="493.48,-328.02 483.23,-330.69 492.91,-334.99 493.48,-328.02"/>
</a>
</g>
</g>
<!-- Node6 -->
<g id="Node000006" class="node">
<title>Node6</title>
<g id="a_Node000006"><a xlink:href="classMema_1_1AudioOutputBufferMessage.html" target="_top" xlink:title="Carries a post&#45;matrix output audio buffer streamed continuously from Mema to subscribed clients.">
<polygon fill="white" stroke="#666666" points="723,-315 536,-315 536,-296 723,-296 723,-315"/>
<text text-anchor="middle" x="629.5" y="-303" font-family="Helvetica,sans-Serif" font-size="10.00">Mema::AudioOutputBufferMessage</text>
</a>
</g>
</g>
<!-- Node4&#45;&gt;Node6 -->
<g id="edge5_Node000004_Node000006" class="edge">
<title>Node4&#45;&gt;Node6</title>
<g id="a_edge5_Node000004_Node000006"><a xlink:title=" ">
<path fill="none" stroke="#63b8ff" d="M493.25,-317.1C507.16,-315.91 521.62,-314.67 535.68,-313.46"/>
<polygon fill="#63b8ff" stroke="#63b8ff" points="492.89,-313.62 483.23,-317.96 493.49,-320.59 492.89,-313.62"/>
</a>
</g>
</g>
</g>
</svg>
