<?xml version="1.0" encoding="UTF-8" standalone="no"?>
<!DOCTYPE svg PUBLIC "-//W3C//DTD SVG 1.1//EN"
 "http://www.w3.org/Graphics/SVG/1.1/DTD/svg11.dtd">
<!-- Generated by graphviz version 2.43.0 (0)
 -->
<!-- Title: Source/MemaProcessorEditor/CrosspointsControlComponent.cpp Pages: 1 -->
<!--zoomable 324 -->

<svg id="main" version="1.1" xmlns="http://www.w3.org/2000/svg" xmlns:xlink="http://www.w3.org/1999/xlink" xml:space="preserve" onload="init(evt)">
<style type="text/css"><![CDATA[
.node, .edge {opacity: 0.7;}
.node.selected, .edge.selected {opacity: 1;}
.edge:hover path { stroke: red; }
.edge:hover polygon { stroke: red; fill: red; }
]]></style>

<defs>
  <circle id="rim" cx="0" cy="0" r="7"/>
  <circle id="rim2" cx="0" cy="0" r="3.5"/>
  <g id="zoomPlus">
    <use xlink:href="#rim" fill="#404040"><set attributeName="fill" to="#808080" begin="zoomplus.mouseover" end="zoomplus.mouseout"/></use>
    <path d="M-4,0h8M0,-4v8" fill="none" stroke="white" stroke-width="1.5" pointer-events="none"/>
  </g>
  <g id="zoomMin">
    <use xlink:href="#rim" fill="#404040"><set attributeName="fill" to="#808080" begin="zoomminus.mouseover" end="zoomminus.mouseout"/></use>
    <path d="M-4,0h8" fill="none" stroke="white" stroke-width="1.5" pointer-events="none"/>
  </g>
  <g id="arrowUp" transform="translate(30 24)">
    <use xlink:href="#rim"/>
    <path pointer-events="none" fill="none" stroke="white" stroke-width="1.5" d="M0,-3.0v7 M-2.5,-0.5L0,-3.0L2.5,-0.5"/>
  </g>
  <g id="arrowRight" transform="rotate(90) translate(36 -43)">
    <use xlink:href="#rim"/>
    <path pointer-events="none" fill="none" stroke="white" stroke-width="1.5" d="M0,-3.0v7 M-2.5,-0.5L0,-3.0L2.5,-0.5"/>
  </g>
  <g id="arrowDown" transform="rotate(180) translate(-30 -48)">
    <use xlink:href="#rim"/>
    <path pointer-events="none" fill="none" stroke="white" stroke-width="1.5" d="M0,-3.0v7 M-2.5,-0.5L0,-3.0L2.5,-0.5"/>
  </g>
  <g id="arrowLeft" transform="rotate(270) translate(-36 17)">
    <use xlink:href="#rim"/>
    <path pointer-events="none" fill="none" stroke="white" stroke-width="1.5" d="M0,-3.0v7 M-2.5,-0.5L0,-3.0L2.5,-0.5"/>
  </g>
  <g id="resetDef">
    <use xlink:href="#rim2" fill="#404040"><set attributeName="fill" to="#808080" begin="reset.mouseover" end="reset.mouseout"/></use>
  </g>
</defs>
<script type="application/ecmascript">
var viewWidth = 745;
var viewHeight = 324;
var sectionId = 'dynsection-0';
</script>
<script type="application/ecmascript" xlink:href="svg.min.js"/>
<svg id="graph" class="graph">
<g id="viewport">
<title>Source/MemaProcessorEditor/CrosspointsControlComponent.cpp</title>
<!-- Node1 -->
<g id="Node000001" class="node">
<title>Node1</title>
<g id="a_Node000001"><a xlink:title=" ">
<polygon fill="#999999" stroke="#666666" points="294.49,-316 106.49,-316 106.49,-286 294.49,-286 294.49,-316"/>
<text text-anchor="start" x="114.49" y="-304" font-family="Helvetica,sans-Serif" font-size="10.00">Source/MemaProcessorEditor</text>
<text text-anchor="middle" x="200.49" y="-293" font-family="Helvetica,sans-Serif" font-size="10.00">/CrosspointsControlComponent.cpp</text>
</a>
</g>
</g>
<!-- Node2 -->
<g id="Node000002" class="node">
<title>Node2</title>
<g id="a_Node000002"><a xlink:href="CrosspointsControlComponent_8h.html" target="_top" xlink:title=" ">
<polygon fill="white" stroke="#666666" points="287.49,-250 113.49,-250 113.49,-231 287.49,-231 287.49,-250"/>
<text text-anchor="middle" x="200.49" y="-238" font-family="Helvetica,sans-Serif" font-size="10.00">CrosspointsControlComponent.h</text>
</a>
</g>
</g>
<!-- Node1&#45;&gt;Node2 -->
<g id="edge1_Node000001_Node000002" class="edge">
<title>Node1&#45;&gt;Node2</title>
<g id="a_edge1_Node000001_Node000002"><a xlink:title=" ">
<path fill="none" stroke="#63b8ff" d="M200.49,-285.84C200.49,-278.21 200.49,-268.7 200.49,-260.45"/>
<polygon fill="#63b8ff" stroke="#63b8ff" points="203.99,-260.27 200.49,-250.27 196.99,-260.27 203.99,-260.27"/>
</a>
</g>
</g>
<!-- Node3 -->
<g id="Node000003" class="node">
<title>Node3</title>
<g id="a_Node000003"><a xlink:title=" ">
<polygon fill="#e0e0e0" stroke="#999999" points="240.49,-19 160.49,-19 160.49,0 240.49,0 240.49,-19"/>
<text text-anchor="middle" x="200.49" y="-7" font-family="Helvetica,sans-Serif" font-size="10.00">JuceHeader.h</text>
</a>
</g>
</g>
<!-- Node2&#45;&gt;Node3 -->
<g id="edge2_Node000002_Node000003" class="edge">
<title>Node2&#45;&gt;Node3</title>
<g id="a_edge2_Node000002_Node000003"><a xlink:title=" ">
<path fill="none" stroke="#63b8ff" d="M155.55,-230.99C89.8,-216.05 -22.11,-179.84 4.49,-110 26.59,-51.95 99.84,-27.49 150.24,-17.38"/>
<polygon fill="#63b8ff" stroke="#63b8ff" points="151.13,-20.77 160.31,-15.49 149.84,-13.89 151.13,-20.77"/>
</a>
</g>
</g>
<!-- Node4 -->
<g id="Node000004" class="node">
<title>Node4</title>
<g id="a_Node000004"><a xlink:href="MemaCommanders_8h.html" target="_top" xlink:title=" ">
<polygon fill="white" stroke="#666666" points="225.49,-129 13.49,-129 13.49,-110 225.49,-110 225.49,-129"/>
<text text-anchor="middle" x="119.49" y="-117" font-family="Helvetica,sans-Serif" font-size="10.00">../MemaProcessor/MemaCommanders.h</text>
</a>
</g>
</g>
<!-- Node2&#45;&gt;Node4 -->
<g id="edge3_Node000002_Node000004" class="edge">
<title>Node2&#45;&gt;Node4</title>
<g id="a_edge3_Node000002_Node000004"><a xlink:title=" ">
<path fill="none" stroke="#63b8ff" d="M194.66,-230.94C181.41,-211.48 148.82,-163.6 131.22,-137.74"/>
<polygon fill="#63b8ff" stroke="#63b8ff" points="134,-135.6 125.48,-129.3 128.21,-139.54 134,-135.6"/>
</a>
</g>
</g>
<!-- Node6 -->
<g id="Node000006" class="node">
<title>Node6</title>
<g id="a_Node000006"><a xlink:href="ProcessorDataAnalyzer_8h.html" target="_top" xlink:title=" ">
<polygon fill="white" stroke="#666666" points="382.49,-195 228.49,-195 228.49,-165 382.49,-165 382.49,-195"/>
<text text-anchor="start" x="236.49" y="-183" font-family="Helvetica,sans-Serif" font-size="10.00">../MemaProcessor/Processor</text>
<text text-anchor="middle" x="305.49" y="-172" font-family="Helvetica,sans-Serif" font-size="10.00">DataAnalyzer.h</text>
</a>
</g>
</g>
<!-- Node2&#45;&gt;Node6 -->
<g id="edge7_Node000002_Node000006" class="edge">
<title>Node2&#45;&gt;Node6</title>
<g id="a_edge7_Node000002_Node000006"><a xlink:title=" ">
<path fill="none" stroke="#63b8ff" d="M215.98,-230.87C230.49,-222.78 252.68,-210.42 271.33,-200.03"/>
<polygon fill="#63b8ff" stroke="#63b8ff" points="273.12,-203.04 280.15,-195.11 269.71,-196.92 273.12,-203.04"/>
</a>
</g>
</g>
<!-- Node11 -->
<g id="Node000011" class="node">
<title>Node11</title>
<g id="a_Node000011"><a xlink:title=" ">
<polygon fill="#e0e0e0" stroke="#999999" points="525.99,-189.5 400.99,-189.5 400.99,-170.5 525.99,-170.5 525.99,-189.5"/>
<text text-anchor="middle" x="463.49" y="-177.5" font-family="Helvetica,sans-Serif" font-size="10.00">CustomLookAndFeel.h</text>
</a>
</g>
</g>
<!-- Node2&#45;&gt;Node11 -->
<g id="edge17_Node000002_Node000011" class="edge">
<title>Node2&#45;&gt;Node11</title>
<g id="a_edge17_Node000002_Node000011"><a xlink:title=" ">
<path fill="none" stroke="#63b8ff" d="M238.73,-230.99C285.47,-220.6 364.62,-202.99 415.43,-191.69"/>
<polygon fill="#63b8ff" stroke="#63b8ff" points="416.2,-195.1 425.2,-189.52 414.68,-188.27 416.2,-195.1"/>
</a>
</g>
</g>
<!-- Node4&#45;&gt;Node3 -->
<g id="edge4_Node000004_Node000003" class="edge">
<title>Node4&#45;&gt;Node3</title>
<g id="a_edge4_Node000004_Node000003"><a xlink:title=" ">
<path fill="none" stroke="#63b8ff" d="M100.83,-109.84C78.22,-98.12 44.94,-76.26 60.49,-55 80.84,-27.17 118.75,-16.32 149.99,-12.28"/>
<polygon fill="#63b8ff" stroke="#63b8ff" points="150.74,-15.72 160.3,-11.16 149.98,-8.76 150.74,-15.72"/>
</a>
</g>
</g>
<!-- Node5 -->
<g id="Node000005" class="node">
<title>Node5</title>
<g id="a_Node000005"><a xlink:href="MemaPluginParameterInfo_8h.html" target="_top" xlink:title=" ">
<polygon fill="white" stroke="#666666" points="224.99,-74 69.99,-74 69.99,-55 224.99,-55 224.99,-74"/>
<text text-anchor="middle" x="147.49" y="-62" font-family="Helvetica,sans-Serif" font-size="10.00">MemaPluginParameterInfo.h</text>
</a>
</g>
</g>
<!-- Node4&#45;&gt;Node5 -->
<g id="edge5_Node000004_Node000005" class="edge">
<title>Node4&#45;&gt;Node5</title>
<g id="a_edge5_Node000004_Node000005"><a xlink:title=" ">
<path fill="none" stroke="#63b8ff" d="M124.11,-109.75C127.94,-102.49 133.51,-91.95 138.25,-82.98"/>
<polygon fill="#63b8ff" stroke="#63b8ff" points="141.37,-84.57 142.95,-74.09 135.18,-81.3 141.37,-84.57"/>
</a>
</g>
</g>
<!-- Node5&#45;&gt;Node3 -->
<g id="edge6_Node000005_Node000003" class="edge">
<title>Node5&#45;&gt;Node3</title>
<g id="a_edge6_Node000005_Node000003"><a xlink:title=" ">
<path fill="none" stroke="#63b8ff" d="M156.24,-54.75C163.96,-47.03 175.39,-35.6 184.7,-26.28"/>
<polygon fill="#63b8ff" stroke="#63b8ff" points="187.3,-28.64 191.9,-19.09 182.35,-23.69 187.3,-28.64"/>
</a>
</g>
</g>
<!-- Node6&#45;&gt;Node3 -->
<g id="edge8_Node000006_Node000003" class="edge">
<title>Node6&#45;&gt;Node3</title>
<g id="a_edge8_Node000006_Node000003"><a xlink:title=" ">
<path fill="none" stroke="#63b8ff" d="M295.57,-164.8C288.81,-154.92 279.79,-141.35 272.49,-129 253.56,-97 253.28,-86.47 233.49,-55 227.47,-45.43 220.02,-35.27 213.73,-27.08"/>
<polygon fill="#63b8ff" stroke="#63b8ff" points="216.39,-24.8 207.47,-19.08 210.88,-29.12 216.39,-24.8"/>
</a>
</g>
</g>
<!-- Node7 -->
<g id="Node000007" class="node">
<title>Node7</title>
<g id="a_Node000007"><a xlink:href="ProcessorAudioSignalData_8h.html" target="_top" xlink:title=" ">
<polygon fill="white" stroke="#666666" points="435.49,-129 281.49,-129 281.49,-110 435.49,-110 435.49,-129"/>
<text text-anchor="middle" x="358.49" y="-117" font-family="Helvetica,sans-Serif" font-size="10.00">ProcessorAudioSignalData.h</text>
</a>
</g>
</g>
<!-- Node6&#45;&gt;Node7 -->
<g id="edge9_Node000006_Node000007" class="edge">
<title>Node6&#45;&gt;Node7</title>
<g id="a_edge9_Node000006_Node000007"><a xlink:title=" ">
<path fill="none" stroke="#63b8ff" d="M318.32,-164.84C326.01,-156.35 335.82,-145.52 343.82,-136.69"/>
<polygon fill="#63b8ff" stroke="#63b8ff" points="346.42,-139.03 350.54,-129.27 341.24,-134.33 346.42,-139.03"/>
</a>
</g>
</g>
<!-- Node9 -->
<g id="Node000009" class="node">
<title>Node9</title>
<g id="a_Node000009"><a xlink:href="ProcessorLevelData_8h.html" target="_top" xlink:title=" ">
<polygon fill="white" stroke="#666666" points="575.49,-129 453.49,-129 453.49,-110 575.49,-110 575.49,-129"/>
<text text-anchor="middle" x="514.49" y="-117" font-family="Helvetica,sans-Serif" font-size="10.00">ProcessorLevelData.h</text>
</a>
</g>
</g>
<!-- Node6&#45;&gt;Node9 -->
<g id="edge13_Node000006_Node000009" class="edge">
<title>Node6&#45;&gt;Node9</title>
<g id="a_edge13_Node000006_Node000009"><a xlink:title=" ">
<path fill="none" stroke="#63b8ff" d="M355.55,-164.99C391.77,-154.85 440.11,-141.32 473.93,-131.85"/>
<polygon fill="#63b8ff" stroke="#63b8ff" points="475.24,-135.12 483.93,-129.05 473.35,-128.38 475.24,-135.12"/>
</a>
</g>
</g>
<!-- Node10 -->
<g id="Node000010" class="node">
<title>Node10</title>
<g id="a_Node000010"><a xlink:href="ProcessorSpectrumData_8h.html" target="_top" xlink:title=" ">
<polygon fill="white" stroke="#666666" points="736.99,-129 593.99,-129 593.99,-110 736.99,-110 736.99,-129"/>
<text text-anchor="middle" x="665.49" y="-117" font-family="Helvetica,sans-Serif" font-size="10.00">ProcessorSpectrumData.h</text>
</a>
</g>
</g>
<!-- Node6&#45;&gt;Node10 -->
<g id="edge15_Node000006_Node000010" class="edge">
<title>Node6&#45;&gt;Node10</title>
<g id="a_edge15_Node000006_Node000010"><a xlink:title=" ">
<path fill="none" stroke="#63b8ff" d="M382.84,-166.41C385.76,-165.93 388.65,-165.46 391.49,-165 464.03,-153.2 547.38,-139.67 602.92,-130.65"/>
<polygon fill="#63b8ff" stroke="#63b8ff" points="603.65,-134.08 612.96,-129.03 602.53,-127.17 603.65,-134.08"/>
</a>
</g>
</g>
<!-- Node7&#45;&gt;Node3 -->
<g id="edge10_Node000007_Node000003" class="edge">
<title>Node7&#45;&gt;Node3</title>
<g id="a_edge10_Node000007_Node000003"><a xlink:title=" ">
<path fill="none" stroke="#63b8ff" d="M346.48,-109.99C329.12,-97.72 295.99,-74.41 267.49,-55 252.48,-44.78 235.44,-33.47 222.3,-24.8"/>
<polygon fill="#63b8ff" stroke="#63b8ff" points="224.17,-21.85 213.89,-19.28 220.32,-27.7 224.17,-21.85"/>
</a>
</g>
</g>
<!-- Node8 -->
<g id="Node000008" class="node">
<title>Node8</title>
<g id="a_Node000008"><a xlink:href="AbstractProcessorData_8h.html" target="_top" xlink:title=" ">
<polygon fill="white" stroke="#666666" points="535.99,-74 398.99,-74 398.99,-55 535.99,-55 535.99,-74"/>
<text text-anchor="middle" x="467.49" y="-62" font-family="Helvetica,sans-Serif" font-size="10.00">AbstractProcessorData.h</text>
</a>
</g>
</g>
<!-- Node7&#45;&gt;Node8 -->
<g id="edge11_Node000007_Node000008" class="edge">
<title>Node7&#45;&gt;Node8</title>
<g id="a_edge11_Node000007_Node000008"><a xlink:title=" ">
<path fill="none" stroke="#63b8ff" d="M376,-109.98C393.45,-101.5 420.49,-88.35 440.66,-78.54"/>
<polygon fill="#63b8ff" stroke="#63b8ff" points="442.19,-81.69 449.65,-74.17 439.13,-75.4 442.19,-81.69"/>
</a>
</g>
</g>
<!-- Node8&#45;&gt;Node3 -->
<g id="edge12_Node000008_Node000003" class="edge">
<title>Node8&#45;&gt;Node3</title>
<g id="a_edge12_Node000008_Node000003"><a xlink:title=" ">
<path fill="none" stroke="#63b8ff" d="M424.59,-54.98C377.15,-45.57 300.8,-30.41 250.63,-20.45"/>
<polygon fill="#63b8ff" stroke="#63b8ff" points="251.15,-16.99 240.66,-18.47 249.78,-23.85 251.15,-16.99"/>
</a>
</g>
</g>
<!-- Node9&#45;&gt;Node8 -->
<g id="edge14_Node000009_Node000008" class="edge">
<title>Node9&#45;&gt;Node8</title>
<g id="a_edge14_Node000009_Node000008"><a xlink:title=" ">
<path fill="none" stroke="#63b8ff" d="M506.72,-109.75C500.02,-102.18 490.14,-91.05 481.98,-81.84"/>
<polygon fill="#63b8ff" stroke="#63b8ff" points="484.36,-79.25 475.1,-74.09 479.12,-83.89 484.36,-79.25"/>
</a>
</g>
</g>
<!-- Node10&#45;&gt;Node8 -->
<g id="edge16_Node000010_Node000008" class="edge">
<title>Node10&#45;&gt;Node8</title>
<g id="a_edge16_Node000010_Node000008"><a xlink:title=" ">
<path fill="none" stroke="#63b8ff" d="M633.67,-109.98C600,-100.97 546.69,-86.7 509.56,-76.76"/>
<polygon fill="#63b8ff" stroke="#63b8ff" points="510.11,-73.29 499.55,-74.08 508.3,-80.05 510.11,-73.29"/>
</a>
</g>
</g>
</g>
</svg>

<g id="navigator" transform="translate(0 0)" fill="#404254">
  <rect fill="#f2f5e9" fill-opacity="0.5" stroke="#606060" stroke-width=".5" x="0" y="0" width="60" height="60"/>
  <use id="zoomplus" xlink:href="#zoomPlus" x="17" y="9" onmousedown="handleZoom(evt,'in')"/>
  <use id="zoomminus" xlink:href="#zoomMin" x="42" y="9" onmousedown="handleZoom(evt,'out')"/>
  <use id="reset" xlink:href="#resetDef" x="30" y="36" onmousedown="handleReset()"/>
   <use id="arrowup" xlink:href="#arrowUp" x="0" y="0" onmousedown="handlePan(0,-1)"/>
  <use id="arrowright" xlink:href="#arrowRight" x="0" y="0" onmousedown="handlePan(1,0)"/>
  <use id="arrowdown" xlink:href="#arrowDown" x="0" y="0" onmousedown="handlePan(0,1)"/>
  <use id="arrowleft" xlink:href="#arrowLeft" x="0" y="0" onmousedown="handlePan(-1,0)"/>
</g>
<svg viewBox="0 0 15 15" width="100%" height="30px" preserveAspectRatio="xMaxYMin meet">
 <g id="arrow_out" transform="scale(0.3 0.3)">
  <a xlink:href="CrosspointsControlComponent_8cpp__incl_org.svg" target="_base">
   <rect id="button" ry="5" rx="5" y="6" x="6" height="38" width="38"
        fill="#f2f5e9" fill-opacity="0.5" stroke="#606060" stroke-width="1.0"/>
   <path id="arrow"
     d="M 11.500037,31.436501 C 11.940474,20.09759 22.043105,11.32322 32.158766,21.979434 L 37.068811,17.246167 C 37.068811,17.246167 37.088388,32 37.088388,32 L 22.160133,31.978069 C 22.160133,31.978069 26.997745,27.140456 26.997745,27.140456 C 18.528582,18.264221 13.291696,25.230495 11.500037,31.436501 z"
     style="fill:#404040;"/>
  </a>
 </g>
</svg>

<style type='text/css'>
<![CDATA[
[data-mouse-over-selected='false'] { opacity: 0.7; }
[data-mouse-over-selected='true']  { opacity: 1.0; }
]]>
</style>
<script type="application/ecmascript"><![CDATA[
document.addEventListener('DOMContentLoaded', (event) => {
  highlightEdges();
  highlightAdjacentNodes();
});
]]></script>
</svg>
