<?xml version="1.0" encoding="UTF-8" standalone="no"?>
<!DOCTYPE svg PUBLIC "-//W3C//DTD SVG 1.1//EN"
 "http://www.w3.org/Graphics/SVG/1.1/DTD/svg11.dtd">
<!-- Generated by graphviz version 2.43.0 (0)
 -->
<!-- Title: Source/MemaProcessorEditor/CrosspointsControlComponent.h Pages: 1 -->
<svg width="745pt" height="269pt"
 viewBox="0.00 0.00 744.84 269.00" xmlns="http://www.w3.org/2000/svg" xmlns:xlink="http://www.w3.org/1999/xlink">
<g id="graph0" class="graph" transform="scale(1 1) rotate(0) translate(4 265)">
<title>Source/MemaProcessorEditor/CrosspointsControlComponent.h</title>
<!-- Node1 -->
<g id="Node000001" class="node">
<title>Node1</title>
<g id="a_Node000001"><a xlink:title=" ">
<polygon fill="#999999" stroke="#666666" points="288.84,-261 111.84,-261 111.84,-231 288.84,-231 288.84,-261"/>
<text text-anchor="start" x="119.84" y="-249" font-family="Helvetica,sans-Serif" font-size="10.00">Source/MemaProcessorEditor</text>
<text text-anchor="middle" x="200.34" y="-238" font-family="Helvetica,sans-Serif" font-size="10.00">/CrosspointsControlComponent.h</text>
</a>
</g>
</g>
<!-- Node2 -->
<g id="Node000002" class="node">
<title>Node2</title>
<g id="a_Node000002"><a xlink:title=" ">
<polygon fill="#e0e0e0" stroke="#999999" points="240.34,-19 160.34,-19 160.34,0 240.34,0 240.34,-19"/>
<text text-anchor="middle" x="200.34" y="-7" font-family="Helvetica,sans-Serif" font-size="10.00">JuceHeader.h</text>
</a>
</g>
</g>
<!-- Node1&#45;&gt;Node2 -->
<g id="edge1_Node000001_Node000002" class="edge">
<title>Node1&#45;&gt;Node2</title>
<g id="a_edge1_Node000001_Node000002"><a xlink:title=" ">
<path fill="none" stroke="#63b8ff" d="M137.44,-230.94C71.22,-212.51 -20.29,-174.68 4.34,-110 26.45,-51.95 99.7,-27.49 150.1,-17.38"/>
<polygon fill="#63b8ff" stroke="#63b8ff" points="150.99,-20.77 160.17,-15.49 149.7,-13.89 150.99,-20.77"/>
</a>
</g>
</g>
<!-- Node3 -->
<g id="Node000003" class="node">
<title>Node3</title>
<g id="a_Node000003"><a xlink:href="MemaCommanders_8h.html" target="_top" xlink:title=" ">
<polygon fill="white" stroke="#666666" points="225.34,-129 13.34,-129 13.34,-110 225.34,-110 225.34,-129"/>
<text text-anchor="middle" x="119.34" y="-117" font-family="Helvetica,sans-Serif" font-size="10.00">../MemaProcessor/MemaCommanders.h</text>
</a>
</g>
</g>
<!-- Node1&#45;&gt;Node3 -->
<g id="edge2_Node000001_Node000003" class="edge">
<title>Node1&#45;&gt;Node3</title>
<g id="a_edge2_Node000001_Node000003"><a xlink:title=" ">
<path fill="none" stroke="#63b8ff" d="M191.05,-230.72C176.08,-207.71 146.69,-162.53 130.57,-137.76"/>
<polygon fill="#63b8ff" stroke="#63b8ff" points="133.31,-135.54 124.92,-129.07 127.44,-139.36 133.31,-135.54"/>
</a>
</g>
</g>
<!-- Node5 -->
<g id="Node000005" class="node">
<title>Node5</title>
<g id="a_Node000005"><a xlink:href="ProcessorDataAnalyzer_8h.html" target="_top" xlink:title=" ">
<polygon fill="white" stroke="#666666" points="382.34,-195 228.34,-195 228.34,-165 382.34,-165 382.34,-195"/>
<text text-anchor="start" x="236.34" y="-183" font-family="Helvetica,sans-Serif" font-size="10.00">../MemaProcessor/Processor</text>
<text text-anchor="middle" x="305.34" y="-172" font-family="Helvetica,sans-Serif" font-size="10.00">DataAnalyzer.h</text>
</a>
</g>
</g>
<!-- Node1&#45;&gt;Node5 -->
<g id="edge6_Node000001_Node000005" class="edge">
<title>Node1&#45;&gt;Node5</title>
<g id="a_edge6_Node000001_Node000005"><a xlink:title=" ">
<path fill="none" stroke="#63b8ff" d="M223.39,-230.95C238.16,-221.95 257.53,-210.14 273.73,-200.27"/>
<polygon fill="#63b8ff" stroke="#63b8ff" points="275.64,-203.21 282.35,-195.01 271.99,-197.23 275.64,-203.21"/>
</a>
</g>
</g>
<!-- Node10 -->
<g id="Node000010" class="node">
<title>Node10</title>
<g id="a_Node000010"><a xlink:title=" ">
<polygon fill="#e0e0e0" stroke="#999999" points="525.84,-189.5 400.84,-189.5 400.84,-170.5 525.84,-170.5 525.84,-189.5"/>
<text text-anchor="middle" x="463.34" y="-177.5" font-family="Helvetica,sans-Serif" font-size="10.00">CustomLookAndFeel.h</text>
</a>
</g>
</g>
<!-- Node1&#45;&gt;Node10 -->
<g id="edge16_Node000001_Node000010" class="edge">
<title>Node1&#45;&gt;Node10</title>
<g id="a_edge16_Node000001_Node000010"><a xlink:title=" ">
<path fill="none" stroke="#63b8ff" d="M258.06,-230.95C306.32,-219.21 374.17,-202.7 418.45,-191.93"/>
<polygon fill="#63b8ff" stroke="#63b8ff" points="419.45,-195.28 428.34,-189.52 417.8,-188.48 419.45,-195.28"/>
</a>
</g>
</g>
<!-- Node3&#45;&gt;Node2 -->
<g id="edge3_Node000003_Node000002" class="edge">
<title>Node3&#45;&gt;Node2</title>
<g id="a_edge3_Node000003_Node000002"><a xlink:title=" ">
<path fill="none" stroke="#63b8ff" d="M100.69,-109.84C78.08,-98.12 44.8,-76.26 60.34,-55 80.7,-27.17 118.61,-16.32 149.85,-12.28"/>
<polygon fill="#63b8ff" stroke="#63b8ff" points="150.59,-15.72 160.16,-11.16 149.84,-8.76 150.59,-15.72"/>
</a>
</g>
</g>
<!-- Node4 -->
<g id="Node000004" class="node">
<title>Node4</title>
<g id="a_Node000004"><a xlink:href="MemaPluginParameterInfo_8h.html" target="_top" xlink:title=" ">
<polygon fill="white" stroke="#666666" points="224.84,-74 69.84,-74 69.84,-55 224.84,-55 224.84,-74"/>
<text text-anchor="middle" x="147.34" y="-62" font-family="Helvetica,sans-Serif" font-size="10.00">MemaPluginParameterInfo.h</text>
</a>
</g>
</g>
<!-- Node3&#45;&gt;Node4 -->
<g id="edge4_Node000003_Node000004" class="edge">
<title>Node3&#45;&gt;Node4</title>
<g id="a_edge4_Node000003_Node000004"><a xlink:title=" ">
<path fill="none" stroke="#63b8ff" d="M123.97,-109.75C127.8,-102.49 133.37,-91.95 138.11,-82.98"/>
<polygon fill="#63b8ff" stroke="#63b8ff" points="141.23,-84.57 142.81,-74.09 135.04,-81.3 141.23,-84.57"/>
</a>
</g>
</g>
<!-- Node4&#45;&gt;Node2 -->
<g id="edge5_Node000004_Node000002" class="edge">
<title>Node4&#45;&gt;Node2</title>
<g id="a_edge5_Node000004_Node000002"><a xlink:title=" ">
<path fill="none" stroke="#63b8ff" d="M156.1,-54.75C163.81,-47.03 175.25,-35.6 184.56,-26.28"/>
<polygon fill="#63b8ff" stroke="#63b8ff" points="187.16,-28.64 191.75,-19.09 182.21,-23.69 187.16,-28.64"/>
</a>
</g>
</g>
<!-- Node5&#45;&gt;Node2 -->
<g id="edge7_Node000005_Node000002" class="edge">
<title>Node5&#45;&gt;Node2</title>
<g id="a_edge7_Node000005_Node000002"><a xlink:title=" ">
<path fill="none" stroke="#63b8ff" d="M295.43,-164.8C288.67,-154.92 279.65,-141.35 272.34,-129 253.41,-97 253.14,-86.47 233.34,-55 227.33,-45.43 219.88,-35.27 213.58,-27.08"/>
<polygon fill="#63b8ff" stroke="#63b8ff" points="216.25,-24.8 207.33,-19.08 210.73,-29.12 216.25,-24.8"/>
</a>
</g>
</g>
<!-- Node6 -->
<g id="Node000006" class="node">
<title>Node6</title>
<g id="a_Node000006"><a xlink:href="ProcessorAudioSignalData_8h.html" target="_top" xlink:title=" ">
<polygon fill="white" stroke="#666666" points="435.34,-129 281.34,-129 281.34,-110 435.34,-110 435.34,-129"/>
<text text-anchor="middle" x="358.34" y="-117" font-family="Helvetica,sans-Serif" font-size="10.00">ProcessorAudioSignalData.h</text>
</a>
</g>
</g>
<!-- Node5&#45;&gt;Node6 -->
<g id="edge8_Node000005_Node000006" class="edge">
<title>Node5&#45;&gt;Node6</title>
<g id="a_edge8_Node000005_Node000006"><a xlink:title=" ">
<path fill="none" stroke="#63b8ff" d="M318.17,-164.84C325.87,-156.35 335.68,-145.52 343.68,-136.69"/>
<polygon fill="#63b8ff" stroke="#63b8ff" points="346.28,-139.03 350.4,-129.27 341.09,-134.33 346.28,-139.03"/>
</a>
</g>
</g>
<!-- Node8 -->
<g id="Node000008" class="node">
<title>Node8</title>
<g id="a_Node000008"><a xlink:href="ProcessorLevelData_8h.html" target="_top" xlink:title=" ">
<polygon fill="white" stroke="#666666" points="575.34,-129 453.34,-129 453.34,-110 575.34,-110 575.34,-129"/>
<text text-anchor="middle" x="514.34" y="-117" font-family="Helvetica,sans-Serif" font-size="10.00">ProcessorLevelData.h</text>
</a>
</g>
</g>
<!-- Node5&#45;&gt;Node8 -->
<g id="edge12_Node000005_Node000008" class="edge">
<title>Node5&#45;&gt;Node8</title>
<g id="a_edge12_Node000005_Node000008"><a xlink:title=" ">
<path fill="none" stroke="#63b8ff" d="M355.4,-164.99C391.63,-154.85 439.96,-141.32 473.78,-131.85"/>
<polygon fill="#63b8ff" stroke="#63b8ff" points="475.1,-135.12 483.78,-129.05 473.21,-128.38 475.1,-135.12"/>
</a>
</g>
</g>
<!-- Node9 -->
<g id="Node000009" class="node">
<title>Node9</title>
<g id="a_Node000009"><a xlink:href="ProcessorSpectrumData_8h.html" target="_top" xlink:title=" ">
<polygon fill="white" stroke="#666666" points="736.84,-129 593.84,-129 593.84,-110 736.84,-110 736.84,-129"/>
<text text-anchor="middle" x="665.34" y="-117" font-family="Helvetica,sans-Serif" font-size="10.00">ProcessorSpectrumData.h</text>
</a>
</g>
</g>
<!-- Node5&#45;&gt;Node9 -->
<g id="edge14_Node000005_Node000009" class="edge">
<title>Node5&#45;&gt;Node9</title>
<g id="a_edge14_Node000005_Node000009"><a xlink:title=" ">
<path fill="none" stroke="#63b8ff" d="M382.7,-166.41C385.62,-165.93 388.51,-165.46 391.34,-165 463.89,-153.2 547.24,-139.67 602.78,-130.65"/>
<polygon fill="#63b8ff" stroke="#63b8ff" points="603.5,-134.08 612.81,-129.03 602.38,-127.17 603.5,-134.08"/>
</a>
</g>
</g>
<!-- Node6&#45;&gt;Node2 -->
<g id="edge9_Node000006_Node000002" class="edge">
<title>Node6&#45;&gt;Node2</title>
<g id="a_edge9_Node000006_Node000002"><a xlink:title=" ">
<path fill="none" stroke="#63b8ff" d="M346.33,-109.99C328.98,-97.72 295.85,-74.41 267.34,-55 252.34,-44.78 235.29,-33.47 222.15,-24.8"/>
<polygon fill="#63b8ff" stroke="#63b8ff" points="224.03,-21.85 213.75,-19.28 220.18,-27.7 224.03,-21.85"/>
</a>
</g>
</g>
<!-- Node7 -->
<g id="Node000007" class="node">
<title>Node7</title>
<g id="a_Node000007"><a xlink:href="AbstractProcessorData_8h.html" target="_top" xlink:title=" ">
<polygon fill="white" stroke="#666666" points="535.84,-74 398.84,-74 398.84,-55 535.84,-55 535.84,-74"/>
<text text-anchor="middle" x="467.34" y="-62" font-family="Helvetica,sans-Serif" font-size="10.00">AbstractProcessorData.h</text>
</a>
</g>
</g>
<!-- Node6&#45;&gt;Node7 -->
<g id="edge10_Node000006_Node000007" class="edge">
<title>Node6&#45;&gt;Node7</title>
<g id="a_edge10_Node000006_Node000007"><a xlink:title=" ">
<path fill="none" stroke="#63b8ff" d="M375.86,-109.98C393.31,-101.5 420.35,-88.35 440.52,-78.54"/>
<polygon fill="#63b8ff" stroke="#63b8ff" points="442.05,-81.69 449.51,-74.17 438.99,-75.4 442.05,-81.69"/>
</a>
</g>
</g>
<!-- Node7&#45;&gt;Node2 -->
<g id="edge11_Node000007_Node000002" class="edge">
<title>Node7&#45;&gt;Node2</title>
<g id="a_edge11_Node000007_Node000002"><a xlink:title=" ">
<path fill="none" stroke="#63b8ff" d="M424.45,-54.98C377,-45.57 300.66,-30.41 250.49,-20.45"/>
<polygon fill="#63b8ff" stroke="#63b8ff" points="251,-16.99 240.51,-18.47 249.64,-23.85 251,-16.99"/>
</a>
</g>
</g>
<!-- Node8&#45;&gt;Node7 -->
<g id="edge13_Node000008_Node000007" class="edge">
<title>Node8&#45;&gt;Node7</title>
<g id="a_edge13_Node000008_Node000007"><a xlink:title=" ">
<path fill="none" stroke="#63b8ff" d="M506.58,-109.75C499.87,-102.18 490,-91.05 481.84,-81.84"/>
<polygon fill="#63b8ff" stroke="#63b8ff" points="484.21,-79.25 474.96,-74.09 478.98,-83.89 484.21,-79.25"/>
</a>
</g>
</g>
<!-- Node9&#45;&gt;Node7 -->
<g id="edge15_Node000009_Node000007" class="edge">
<title>Node9&#45;&gt;Node7</title>
<g id="a_edge15_Node000009_Node000007"><a xlink:title=" ">
<path fill="none" stroke="#63b8ff" d="M633.53,-109.98C599.86,-100.97 546.55,-86.7 509.42,-76.76"/>
<polygon fill="#63b8ff" stroke="#63b8ff" points="509.97,-73.29 499.4,-74.08 508.16,-80.05 509.97,-73.29"/>
</a>
</g>
</g>
</g>
</svg>
