<?xml version="1.0" encoding="UTF-8" standalone="no"?>
<!DOCTYPE svg PUBLIC "-//W3C//DTD SVG 1.1//EN"
 "http://www.w3.org/Graphics/SVG/1.1/DTD/svg11.dtd">
<!-- Generated by graphviz version 2.43.0 (0)
 -->
<!-- Title: Source/MemaClientCommon/FaderbankControlComponent.cpp Pages: 1 -->
<svg width="747pt" height="280pt"
 viewBox="0.00 0.00 747.00 280.00" xmlns="http://www.w3.org/2000/svg" xmlns:xlink="http://www.w3.org/1999/xlink">
<g id="graph0" class="graph" transform="scale(1 1) rotate(0) translate(4 276)">
<title>Source/MemaClientCommon/FaderbankControlComponent.cpp</title>
<!-- Node1 -->
<g id="Node000001" class="node">
<title>Node1</title>
<g id="a_Node000001"><a xlink:title=" ">
<polygon fill="#999999" stroke="#666666" points="333.5,-272 151.5,-272 151.5,-242 333.5,-242 333.5,-272"/>
<text text-anchor="start" x="159.5" y="-260" font-family="Helvetica,sans-Serif" font-size="10.00">Source/MemaClientCommon</text>
<text text-anchor="middle" x="242.5" y="-249" font-family="Helvetica,sans-Serif" font-size="10.00">/FaderbankControlComponent.cpp</text>
</a>
</g>
</g>
<!-- Node2 -->
<g id="Node000002" class="node">
<title>Node2</title>
<g id="a_Node000002"><a xlink:href="FaderbankControlComponent_8h.html" target="_top" xlink:title=" ">
<polygon fill="white" stroke="#666666" points="167,-140 0,-140 0,-121 167,-121 167,-140"/>
<text text-anchor="middle" x="83.5" y="-128" font-family="Helvetica,sans-Serif" font-size="10.00">FaderbankControlComponent.h</text>
</a>
</g>
</g>
<!-- Node1&#45;&gt;Node2 -->
<g id="edge1_Node000001_Node000002" class="edge">
<title>Node1&#45;&gt;Node2</title>
<g id="a_edge1_Node000001_Node000002"><a xlink:title=" ">
<path fill="none" stroke="#63b8ff" d="M162.34,-241.98C140.33,-234.58 118.23,-223.27 102.5,-206 88.62,-190.77 84.57,-166.81 83.55,-150.2"/>
<polygon fill="#63b8ff" stroke="#63b8ff" points="87.04,-149.95 83.23,-140.06 80.04,-150.17 87.04,-149.95"/>
</a>
</g>
</g>
<!-- Node5 -->
<g id="Node000005" class="node">
<title>Node5</title>
<g id="a_Node000005"><a xlink:title=" ">
<polygon fill="#e0e0e0" stroke="#999999" points="237,-200.5 112,-200.5 112,-181.5 237,-181.5 237,-200.5"/>
<text text-anchor="middle" x="174.5" y="-188.5" font-family="Helvetica,sans-Serif" font-size="10.00">CustomLookAndFeel.h</text>
</a>
</g>
</g>
<!-- Node1&#45;&gt;Node5 -->
<g id="edge5_Node000001_Node000005" class="edge">
<title>Node1&#45;&gt;Node5</title>
<g id="a_edge5_Node000001_Node000005"><a xlink:title=" ">
<path fill="none" stroke="#63b8ff" d="M227.41,-241.8C216.7,-231.72 202.33,-218.19 191.27,-207.78"/>
<polygon fill="#63b8ff" stroke="#63b8ff" points="193.58,-205.15 183.9,-200.84 188.78,-210.25 193.58,-205.15"/>
</a>
</g>
</g>
<!-- Node6 -->
<g id="Node000006" class="node">
<title>Node6</title>
<g id="a_Node000006"><a xlink:title=" ">
<polygon fill="#e0e0e0" stroke="#999999" points="365.5,-200.5 255.5,-200.5 255.5,-181.5 365.5,-181.5 365.5,-200.5"/>
<text text-anchor="middle" x="310.5" y="-188.5" font-family="Helvetica,sans-Serif" font-size="10.00">ToggleStateSlider.h</text>
</a>
</g>
</g>
<!-- Node1&#45;&gt;Node6 -->
<g id="edge6_Node000001_Node000006" class="edge">
<title>Node1&#45;&gt;Node6</title>
<g id="a_edge6_Node000001_Node000006"><a xlink:title=" ">
<path fill="none" stroke="#63b8ff" d="M257.59,-241.8C268.3,-231.72 282.67,-218.19 293.73,-207.78"/>
<polygon fill="#63b8ff" stroke="#63b8ff" points="296.22,-210.25 301.1,-200.84 291.42,-205.15 296.22,-210.25"/>
</a>
</g>
</g>
<!-- Node7 -->
<g id="Node000007" class="node">
<title>Node7</title>
<g id="a_Node000007"><a xlink:href="ProcessorDataAnalyzer_8h.html" target="_top" xlink:title=" ">
<polygon fill="white" stroke="#666666" points="551.5,-206 383.5,-206 383.5,-176 551.5,-176 551.5,-206"/>
<text text-anchor="start" x="391.5" y="-194" font-family="Helvetica,sans-Serif" font-size="10.00">MemaProcessor/ProcessorData</text>
<text text-anchor="middle" x="467.5" y="-183" font-family="Helvetica,sans-Serif" font-size="10.00">Analyzer.h</text>
</a>
</g>
</g>
<!-- Node1&#45;&gt;Node7 -->
<g id="edge7_Node000001_Node000007" class="edge">
<title>Node1&#45;&gt;Node7</title>
<g id="a_edge7_Node000001_Node000007"><a xlink:title=" ">
<path fill="none" stroke="#63b8ff" d="M291.88,-241.95C326.17,-232.2 372.03,-219.16 408.28,-208.84"/>
<polygon fill="#63b8ff" stroke="#63b8ff" points="409.58,-212.11 418.24,-206.01 407.66,-205.38 409.58,-212.11"/>
</a>
</g>
</g>
<!-- Node3 -->
<g id="Node000003" class="node">
<title>Node3</title>
<g id="a_Node000003"><a xlink:title=" ">
<polygon fill="#e0e0e0" stroke="#999999" points="295.5,-19 215.5,-19 215.5,0 295.5,0 295.5,-19"/>
<text text-anchor="middle" x="255.5" y="-7" font-family="Helvetica,sans-Serif" font-size="10.00">JuceHeader.h</text>
</a>
</g>
</g>
<!-- Node2&#45;&gt;Node3 -->
<g id="edge2_Node000002_Node000003" class="edge">
<title>Node2&#45;&gt;Node3</title>
<g id="a_edge2_Node000002_Node000003"><a xlink:title=" ">
<path fill="none" stroke="#63b8ff" d="M74.41,-120.89C59.94,-106.13 34.9,-75.61 51.5,-55 70.46,-31.46 151.27,-19.71 205.32,-14.37"/>
<polygon fill="#63b8ff" stroke="#63b8ff" points="205.78,-17.84 215.41,-13.42 205.13,-10.87 205.78,-17.84"/>
</a>
</g>
</g>
<!-- Node4 -->
<g id="Node000004" class="node">
<title>Node4</title>
<g id="a_Node000004"><a xlink:href="MemaClientControlComponentBase_8h.html" target="_top" xlink:title=" ">
<polygon fill="white" stroke="#666666" points="228,-85 61,-85 61,-55 228,-55 228,-85"/>
<text text-anchor="start" x="69" y="-73" font-family="Helvetica,sans-Serif" font-size="10.00">MemaClientControlComponent</text>
<text text-anchor="middle" x="144.5" y="-62" font-family="Helvetica,sans-Serif" font-size="10.00">Base.h</text>
</a>
</g>
</g>
<!-- Node2&#45;&gt;Node4 -->
<g id="edge3_Node000002_Node000004" class="edge">
<title>Node2&#45;&gt;Node4</title>
<g id="a_edge3_Node000002_Node000004"><a xlink:title=" ">
<path fill="none" stroke="#63b8ff" d="M92.5,-120.87C100.39,-113.3 112.2,-101.98 122.56,-92.04"/>
<polygon fill="#63b8ff" stroke="#63b8ff" points="124.99,-94.56 129.78,-85.11 120.14,-89.51 124.99,-94.56"/>
</a>
</g>
</g>
<!-- Node4&#45;&gt;Node3 -->
<g id="edge4_Node000004_Node000003" class="edge">
<title>Node4&#45;&gt;Node3</title>
<g id="a_edge4_Node000004_Node000003"><a xlink:title=" ">
<path fill="none" stroke="#63b8ff" d="M171.09,-54.99C188.95,-45.58 212.34,-33.24 229.98,-23.95"/>
<polygon fill="#63b8ff" stroke="#63b8ff" points="231.89,-26.9 239.11,-19.14 228.63,-20.71 231.89,-26.9"/>
</a>
</g>
</g>
<!-- Node7&#45;&gt;Node3 -->
<g id="edge8_Node000007_Node000003" class="edge">
<title>Node7&#45;&gt;Node3</title>
<g id="a_edge8_Node000007_Node000003"><a xlink:title=" ">
<path fill="none" stroke="#63b8ff" d="M383.4,-177.61C338.49,-169.23 289.44,-156.65 274.5,-140 246.88,-109.23 248.92,-56.79 252.42,-29.02"/>
<polygon fill="#63b8ff" stroke="#63b8ff" points="255.89,-29.47 253.87,-19.07 248.96,-28.46 255.89,-29.47"/>
</a>
</g>
</g>
<!-- Node8 -->
<g id="Node000008" class="node">
<title>Node8</title>
<g id="a_Node000008"><a xlink:href="ProcessorAudioSignalData_8h.html" target="_top" xlink:title=" ">
<polygon fill="white" stroke="#666666" points="437.5,-140 283.5,-140 283.5,-121 437.5,-121 437.5,-140"/>
<text text-anchor="middle" x="360.5" y="-128" font-family="Helvetica,sans-Serif" font-size="10.00">ProcessorAudioSignalData.h</text>
</a>
</g>
</g>
<!-- Node7&#45;&gt;Node8 -->
<g id="edge9_Node000007_Node000008" class="edge">
<title>Node7&#45;&gt;Node8</title>
<g id="a_edge9_Node000007_Node000008"><a xlink:title=" ">
<path fill="none" stroke="#63b8ff" d="M441.87,-175.99C424.66,-166.58 402.1,-154.24 385.1,-144.95"/>
<polygon fill="#63b8ff" stroke="#63b8ff" points="386.75,-141.87 376.3,-140.14 383.4,-148.01 386.75,-141.87"/>
</a>
</g>
</g>
<!-- Node10 -->
<g id="Node000010" class="node">
<title>Node10</title>
<g id="a_Node000010"><a xlink:href="ProcessorLevelData_8h.html" target="_top" xlink:title=" ">
<polygon fill="white" stroke="#666666" points="577.5,-140 455.5,-140 455.5,-121 577.5,-121 577.5,-140"/>
<text text-anchor="middle" x="516.5" y="-128" font-family="Helvetica,sans-Serif" font-size="10.00">ProcessorLevelData.h</text>
</a>
</g>
</g>
<!-- Node7&#45;&gt;Node10 -->
<g id="edge13_Node000007_Node000010" class="edge">
<title>Node7&#45;&gt;Node10</title>
<g id="a_edge13_Node000007_Node000010"><a xlink:title=" ">
<path fill="none" stroke="#63b8ff" d="M479.36,-175.84C486.4,-167.43 495.36,-156.74 502.71,-147.96"/>
<polygon fill="#63b8ff" stroke="#63b8ff" points="505.42,-150.18 509.16,-140.27 500.05,-145.68 505.42,-150.18"/>
</a>
</g>
</g>
<!-- Node11 -->
<g id="Node000011" class="node">
<title>Node11</title>
<g id="a_Node000011"><a xlink:href="ProcessorSpectrumData_8h.html" target="_top" xlink:title=" ">
<polygon fill="white" stroke="#666666" points="739,-140 596,-140 596,-121 739,-121 739,-140"/>
<text text-anchor="middle" x="667.5" y="-128" font-family="Helvetica,sans-Serif" font-size="10.00">ProcessorSpectrumData.h</text>
</a>
</g>
</g>
<!-- Node7&#45;&gt;Node11 -->
<g id="edge15_Node000007_Node000011" class="edge">
<title>Node7&#45;&gt;Node11</title>
<g id="a_edge15_Node000007_Node000011"><a xlink:title=" ">
<path fill="none" stroke="#63b8ff" d="M515.4,-175.99C549.92,-165.89 595.92,-152.44 628.27,-142.98"/>
<polygon fill="#63b8ff" stroke="#63b8ff" points="629.64,-146.22 638.26,-140.05 627.68,-139.5 629.64,-146.22"/>
</a>
</g>
</g>
<!-- Node8&#45;&gt;Node3 -->
<g id="edge10_Node000008_Node000003" class="edge">
<title>Node8&#45;&gt;Node3</title>
<g id="a_edge10_Node000008_Node000003"><a xlink:title=" ">
<path fill="none" stroke="#63b8ff" d="M352.95,-120.94C335.63,-101.31 292.79,-52.76 270.12,-27.07"/>
<polygon fill="#63b8ff" stroke="#63b8ff" points="272.51,-24.48 263.27,-19.3 267.26,-29.12 272.51,-24.48"/>
</a>
</g>
</g>
<!-- Node9 -->
<g id="Node000009" class="node">
<title>Node9</title>
<g id="a_Node000009"><a xlink:href="AbstractProcessorData_8h.html" target="_top" xlink:title=" ">
<polygon fill="white" stroke="#666666" points="522,-79.5 385,-79.5 385,-60.5 522,-60.5 522,-79.5"/>
<text text-anchor="middle" x="453.5" y="-67.5" font-family="Helvetica,sans-Serif" font-size="10.00">AbstractProcessorData.h</text>
</a>
</g>
</g>
<!-- Node8&#45;&gt;Node9 -->
<g id="edge11_Node000008_Node000009" class="edge">
<title>Node8&#45;&gt;Node9</title>
<g id="a_edge11_Node000008_Node000009"><a xlink:title=" ">
<path fill="none" stroke="#63b8ff" d="M374.22,-120.87C389.2,-111.45 413.39,-96.23 431.12,-85.08"/>
<polygon fill="#63b8ff" stroke="#63b8ff" points="433.12,-87.95 439.72,-79.67 429.39,-82.03 433.12,-87.95"/>
</a>
</g>
</g>
<!-- Node9&#45;&gt;Node3 -->
<g id="edge12_Node000009_Node000003" class="edge">
<title>Node9&#45;&gt;Node3</title>
<g id="a_edge12_Node000009_Node000003"><a xlink:title=" ">
<path fill="none" stroke="#63b8ff" d="M424.71,-60.49C390.25,-50.31 332.41,-33.22 294.1,-21.9"/>
<polygon fill="#63b8ff" stroke="#63b8ff" points="294.91,-18.49 284.33,-19.02 292.92,-25.21 294.91,-18.49"/>
</a>
</g>
</g>
<!-- Node10&#45;&gt;Node9 -->
<g id="edge14_Node000010_Node000009" class="edge">
<title>Node10&#45;&gt;Node9</title>
<g id="a_edge14_Node000010_Node000009"><a xlink:title=" ">
<path fill="none" stroke="#63b8ff" d="M507.2,-120.87C497.53,-111.88 482.16,-97.61 470.34,-86.64"/>
<polygon fill="#63b8ff" stroke="#63b8ff" points="472.54,-83.91 462.83,-79.67 467.78,-89.04 472.54,-83.91"/>
</a>
</g>
</g>
<!-- Node11&#45;&gt;Node9 -->
<g id="edge16_Node000011_Node000009" class="edge">
<title>Node11&#45;&gt;Node9</title>
<g id="a_edge16_Node000011_Node000009"><a xlink:title=" ">
<path fill="none" stroke="#63b8ff" d="M636.38,-120.99C598.9,-110.75 535.82,-93.5 494.43,-82.19"/>
<polygon fill="#63b8ff" stroke="#63b8ff" points="495.22,-78.78 484.65,-79.52 493.38,-85.53 495.22,-78.78"/>
</a>
</g>
</g>
</g>
</svg>
