<?xml version="1.0" encoding="UTF-8" standalone="no"?>
<!DOCTYPE svg PUBLIC "-//W3C//DTD SVG 1.1//EN"
 "http://www.w3.org/Graphics/SVG/1.1/DTD/svg11.dtd">
<!-- Generated by graphviz version 2.43.0 (0)
 -->
<!-- Title: Source/HeadlessCLIMenu.cpp Pages: 1 -->
<!--zoomable 313 -->

<svg id="main" version="1.1" xmlns="http://www.w3.org/2000/svg" xmlns:xlink="http://www.w3.org/1999/xlink" xml:space="preserve" onload="init(evt)">
<style type="text/css"><![CDATA[
.node, .edge {opacity: 0.7;}
.node.selected, .edge.selected {opacity: 1;}
.edge:hover path { stroke: red; }
.edge:hover polygon { stroke: red; fill: red; }
]]></style>

<defs>
  <circle id="rim" cx="0" cy="0" r="7"/>
  <circle id="rim2" cx="0" cy="0" r="3.5"/>
  <g id="zoomPlus">
    <use xlink:href="#rim" fill="#404040"><set attributeName="fill" to="#808080" begin="zoomplus.mouseover" end="zoomplus.mouseout"/></use>
    <path d="M-4,0h8M0,-4v8" fill="none" stroke="white" stroke-width="1.5" pointer-events="none"/>
  </g>
  <g id="zoomMin">
    <use xlink:href="#rim" fill="#404040"><set attributeName="fill" to="#808080" begin="zoomminus.mouseover" end="zoomminus.mouseout"/></use>
    <path d="M-4,0h8" fill="none" stroke="white" stroke-width="1.5" pointer-events="none"/>
  </g>
  <g id="arrowUp" transform="translate(30 24)">
    <use xlink:href="#rim"/>
    <path pointer-events="none" fill="none" stroke="white" stroke-width="1.5" d="M0,-3.0v7 M-2.5,-0.5L0,-3.0L2.5,-0.5"/>
  </g>
  <g id="arrowRight" transform="rotate(90) translate(36 -43)">
    <use xlink:href="#rim"/>
    <path pointer-events="none" fill="none" stroke="white" stroke-width="1.5" d="M0,-3.0v7 M-2.5,-0.5L0,-3.0L2.5,-0.5"/>
  </g>
  <g id="arrowDown" transform="rotate(180) translate(-30 -48)">
    <use xlink:href="#rim"/>
    <path pointer-events="none" fill="none" stroke="white" stroke-width="1.5" d="M0,-3.0v7 M-2.5,-0.5L0,-3.0L2.5,-0.5"/>
  </g>
  <g id="arrowLeft" transform="rotate(270) translate(-36 17)">
    <use xlink:href="#rim"/>
    <path pointer-events="none" fill="none" stroke="white" stroke-width="1.5" d="M0,-3.0v7 M-2.5,-0.5L0,-3.0L2.5,-0.5"/>
  </g>
  <g id="resetDef">
    <use xlink:href="#rim2" fill="#404040"><set attributeName="fill" to="#808080" begin="reset.mouseover" end="reset.mouseout"/></use>
  </g>
</defs>
<script type="application/ecmascript">
var viewWidth = 1417;
var viewHeight = 313;
var sectionId = 'dynsection-0';
</script>
<script type="application/ecmascript" xlink:href="svg.min.js"/>
<svg id="graph" class="graph">
<g id="viewport">
<title>Source/HeadlessCLIMenu.cpp</title>
<!-- Node1 -->
<g id="Node000001" class="node">
<title>Node1</title>
<g id="a_Node000001"><a xlink:title=" ">
<polygon fill="#999999" stroke="#666666" points="1300.5,-305 1140.5,-305 1140.5,-286 1300.5,-286 1300.5,-305"/>
<text text-anchor="middle" x="1220.5" y="-293" font-family="Helvetica,sans-Serif" font-size="10.00">Source/HeadlessCLIMenu.cpp</text>
</a>
</g>
</g>
<!-- Node2 -->
<g id="Node000002" class="node">
<title>Node2</title>
<g id="a_Node000002"><a xlink:href="HeadlessCLIMenu_8h.html" target="_top" xlink:title=" ">
<polygon fill="white" stroke="#666666" points="113,-74 0,-74 0,-55 113,-55 113,-74"/>
<text text-anchor="middle" x="56.5" y="-62" font-family="Helvetica,sans-Serif" font-size="10.00">HeadlessCLIMenu.h</text>
</a>
</g>
</g>
<!-- Node1&#45;&gt;Node2 -->
<g id="edge1_Node000001_Node000002" class="edge">
<title>Node1&#45;&gt;Node2</title>
<g id="a_edge1_Node000001_Node000002"><a xlink:title=" ">
<path fill="none" stroke="#63b8ff" d="M1140.41,-293.02C931.75,-288.17 376.1,-268.51 209.5,-195 149.2,-168.39 94.37,-110.27 69.93,-81.83"/>
<polygon fill="#63b8ff" stroke="#63b8ff" points="72.47,-79.41 63.35,-74.02 67.12,-83.92 72.47,-79.41"/>
</a>
</g>
</g>
<!-- Node4 -->
<g id="Node000004" class="node">
<title>Node4</title>
<g id="a_Node000004"><a xlink:href="MemaProcessor_8h.html" target="_top" xlink:title=" ">
<polygon fill="white" stroke="#666666" points="827.5,-250 643.5,-250 643.5,-231 827.5,-231 827.5,-250"/>
<text text-anchor="middle" x="735.5" y="-238" font-family="Helvetica,sans-Serif" font-size="10.00">MemaProcessor/MemaProcessor.h</text>
</a>
</g>
</g>
<!-- Node1&#45;&gt;Node4 -->
<g id="edge3_Node000001_Node000004" class="edge">
<title>Node1&#45;&gt;Node4</title>
<g id="a_edge3_Node000001_Node000004"><a xlink:title=" ">
<path fill="none" stroke="#63b8ff" d="M1142.58,-285.98C1055.47,-276.47 914.72,-261.08 823.66,-251.13"/>
<polygon fill="#63b8ff" stroke="#63b8ff" points="823.95,-247.65 813.63,-250.04 823.19,-254.6 823.95,-247.65"/>
</a>
</g>
</g>
<!-- Node15 -->
<g id="Node000015" class="node">
<title>Node15</title>
<g id="a_Node000015"><a xlink:href="MemaAppConfiguration_8h.html" target="_top" xlink:title=" ">
<polygon fill="white" stroke="#666666" points="1219,-195 1070,-195 1070,-176 1219,-176 1219,-195"/>
<text text-anchor="middle" x="1144.5" y="-183" font-family="Helvetica,sans-Serif" font-size="10.00">../MemaAppConfiguration.h</text>
</a>
</g>
</g>
<!-- Node1&#45;&gt;Node15 -->
<g id="edge29_Node000001_Node000015" class="edge">
<title>Node1&#45;&gt;Node15</title>
<g id="a_edge29_Node000001_Node000015"><a xlink:title=" ">
<path fill="none" stroke="#63b8ff" d="M1214.28,-285.66C1201.64,-267.69 1172.75,-226.64 1156.38,-203.38"/>
<polygon fill="#63b8ff" stroke="#63b8ff" points="1159.21,-201.32 1150.59,-195.16 1153.49,-205.35 1159.21,-201.32"/>
</a>
</g>
</g>
<!-- Node16 -->
<g id="Node000016" class="node">
<title>Node16</title>
<g id="a_Node000016"><a xlink:title=" ">
<polygon fill="#e0e0e0" stroke="#999999" points="1360.5,-134.5 1226.5,-134.5 1226.5,-115.5 1360.5,-115.5 1360.5,-134.5"/>
<text text-anchor="middle" x="1293.5" y="-122.5" font-family="Helvetica,sans-Serif" font-size="10.00">AppConfigurationBase.h</text>
</a>
</g>
</g>
<!-- Node1&#45;&gt;Node16 -->
<g id="edge30_Node000001_Node000016" class="edge">
<title>Node1&#45;&gt;Node16</title>
<g id="a_edge30_Node000001_Node000016"><a xlink:title=" ">
<path fill="none" stroke="#63b8ff" d="M1224.22,-285.91C1235.59,-259.67 1270.06,-180.11 1285.67,-144.08"/>
<polygon fill="#63b8ff" stroke="#63b8ff" points="1288.94,-145.34 1289.7,-134.77 1282.51,-142.56 1288.94,-145.34"/>
</a>
</g>
</g>
<!-- Node18 -->
<g id="Node000018" class="node">
<title>Node18</title>
<g id="a_Node000018"><a xlink:title=" ">
<polygon fill="#e0e0e0" stroke="#999999" points="1334.5,-250 1274.5,-250 1274.5,-231 1334.5,-231 1334.5,-250"/>
<text text-anchor="middle" x="1304.5" y="-238" font-family="Helvetica,sans-Serif" font-size="10.00">iostream</text>
</a>
</g>
</g>
<!-- Node1&#45;&gt;Node18 -->
<g id="edge31_Node000001_Node000018" class="edge">
<title>Node1&#45;&gt;Node18</title>
<g id="a_edge31_Node000001_Node000018"><a xlink:title=" ">
<path fill="none" stroke="#63b8ff" d="M1234,-285.98C1246.9,-277.84 1266.6,-265.41 1281.9,-255.76"/>
<polygon fill="#63b8ff" stroke="#63b8ff" points="1284.17,-258.47 1290.76,-250.17 1280.43,-252.55 1284.17,-258.47"/>
</a>
</g>
</g>
<!-- Node19 -->
<g id="Node000019" class="node">
<title>Node19</title>
<g id="a_Node000019"><a xlink:title=" ">
<polygon fill="#e0e0e0" stroke="#999999" points="1408.5,-250 1352.5,-250 1352.5,-231 1408.5,-231 1408.5,-250"/>
<text text-anchor="middle" x="1380.5" y="-238" font-family="Helvetica,sans-Serif" font-size="10.00">iomanip</text>
</a>
</g>
</g>
<!-- Node1&#45;&gt;Node19 -->
<g id="edge32_Node000001_Node000019" class="edge">
<title>Node1&#45;&gt;Node19</title>
<g id="a_edge32_Node000001_Node000019"><a xlink:title=" ">
<path fill="none" stroke="#63b8ff" d="M1246.21,-285.98C1272.95,-277.13 1315.03,-263.19 1344.95,-253.28"/>
<polygon fill="#63b8ff" stroke="#63b8ff" points="1346.2,-256.55 1354.59,-250.08 1344,-249.9 1346.2,-256.55"/>
</a>
</g>
</g>
<!-- Node3 -->
<g id="Node000003" class="node">
<title>Node3</title>
<g id="a_Node000003"><a xlink:title=" ">
<polygon fill="#e0e0e0" stroke="#999999" points="610.5,-19 530.5,-19 530.5,0 610.5,0 610.5,-19"/>
<text text-anchor="middle" x="570.5" y="-7" font-family="Helvetica,sans-Serif" font-size="10.00">JuceHeader.h</text>
</a>
</g>
</g>
<!-- Node2&#45;&gt;Node3 -->
<g id="edge2_Node000002_Node000003" class="edge">
<title>Node2&#45;&gt;Node3</title>
<g id="a_edge2_Node000002_Node000003"><a xlink:title=" ">
<path fill="none" stroke="#63b8ff" d="M113.07,-56.63C117.95,-56.07 122.81,-55.52 127.5,-55 269.89,-39.33 438.28,-23.03 520.41,-15.22"/>
<polygon fill="#63b8ff" stroke="#63b8ff" points="520.84,-18.69 530.46,-14.26 520.18,-11.72 520.84,-18.69"/>
</a>
</g>
</g>
<!-- Node4&#45;&gt;Node3 -->
<g id="edge4_Node000004_Node000003" class="edge">
<title>Node4&#45;&gt;Node3</title>
<g id="a_edge4_Node000004_Node000003"><a xlink:title=" ">
<path fill="none" stroke="#63b8ff" d="M643.36,-238.35C521.72,-235.61 314.96,-226.33 246.5,-195 214.49,-180.35 203.26,-172.4 189.5,-140 171.01,-96.47 210.41,-74.48 253.5,-55 299.99,-33.98 442.87,-20.22 519.95,-14.12"/>
<polygon fill="#63b8ff" stroke="#63b8ff" points="520.67,-17.57 530.37,-13.31 520.13,-10.59 520.67,-17.57"/>
</a>
</g>
</g>
<!-- Node5 -->
<g id="Node000005" class="node">
<title>Node5</title>
<g id="a_Node000005"><a xlink:href="MemaMessages_8h.html" target="_top" xlink:title=" ">
<polygon fill="white" stroke="#666666" points="361,-195 256,-195 256,-176 361,-176 361,-195"/>
<text text-anchor="middle" x="308.5" y="-183" font-family="Helvetica,sans-Serif" font-size="10.00">MemaMessages.h</text>
</a>
</g>
</g>
<!-- Node4&#45;&gt;Node5 -->
<g id="edge5_Node000004_Node000005" class="edge">
<title>Node4&#45;&gt;Node5</title>
<g id="a_edge5_Node000004_Node000005"><a xlink:title=" ">
<path fill="none" stroke="#63b8ff" d="M666.9,-230.98C585.33,-220.86 450.36,-204.11 371.39,-194.31"/>
<polygon fill="#63b8ff" stroke="#63b8ff" points="371.46,-190.79 361.1,-193.03 370.6,-197.73 371.46,-190.79"/>
</a>
</g>
</g>
<!-- Node7 -->
<g id="Node000007" class="node">
<title>Node7</title>
<g id="a_Node000007"><a xlink:href="MemaPluginParameterInfo_8h.html" target="_top" xlink:title=" ">
<polygon fill="white" stroke="#666666" points="506,-134.5 351,-134.5 351,-115.5 506,-115.5 506,-134.5"/>
<text text-anchor="middle" x="428.5" y="-122.5" font-family="Helvetica,sans-Serif" font-size="10.00">MemaPluginParameterInfo.h</text>
</a>
</g>
</g>
<!-- Node4&#45;&gt;Node7 -->
<g id="edge20_Node000004_Node000007" class="edge">
<title>Node4&#45;&gt;Node7</title>
<g id="a_edge20_Node000004_Node000007"><a xlink:title=" ">
<path fill="none" stroke="#63b8ff" d="M710.12,-230.85C684.43,-222.04 643.59,-207.87 608.5,-195 556.09,-175.78 495.55,-152.31 459.73,-138.29"/>
<polygon fill="#63b8ff" stroke="#63b8ff" points="460.9,-134.99 450.31,-134.6 458.35,-141.5 460.9,-134.99"/>
</a>
</g>
</g>
<!-- Node8 -->
<g id="Node000008" class="node">
<title>Node8</title>
<g id="a_Node000008"><a xlink:href="ProcessorDataAnalyzer_8h.html" target="_top" xlink:title=" ">
<polygon fill="white" stroke="#666666" points="755.5,-195 617.5,-195 617.5,-176 755.5,-176 755.5,-195"/>
<text text-anchor="middle" x="686.5" y="-183" font-family="Helvetica,sans-Serif" font-size="10.00">ProcessorDataAnalyzer.h</text>
</a>
</g>
</g>
<!-- Node4&#45;&gt;Node8 -->
<g id="edge10_Node000004_Node000008" class="edge">
<title>Node4&#45;&gt;Node8</title>
<g id="a_edge10_Node000004_Node000008"><a xlink:title=" ">
<path fill="none" stroke="#63b8ff" d="M727.41,-230.75C720.34,-223.11 709.91,-211.82 701.35,-202.56"/>
<polygon fill="#63b8ff" stroke="#63b8ff" points="703.8,-200.06 694.44,-195.09 698.66,-204.81 703.8,-200.06"/>
</a>
</g>
</g>
<!-- Node13 -->
<g id="Node000013" class="node">
<title>Node13</title>
<g id="a_Node000013"><a xlink:href="MemaProcessorEditor_8h.html" target="_top" xlink:title=" ">
<polygon fill="white" stroke="#666666" points="1170.5,-140 1036.5,-140 1036.5,-110 1170.5,-110 1170.5,-140"/>
<text text-anchor="start" x="1044.5" y="-128" font-family="Helvetica,sans-Serif" font-size="10.00">../MemaProcessorEditor</text>
<text text-anchor="middle" x="1103.5" y="-117" font-family="Helvetica,sans-Serif" font-size="10.00">/MemaProcessorEditor.h</text>
</a>
</g>
</g>
<!-- Node4&#45;&gt;Node13 -->
<g id="edge21_Node000004_Node000013" class="edge">
<title>Node4&#45;&gt;Node13</title>
<g id="a_edge21_Node000004_Node000013"><a xlink:title=" ">
<path fill="none" stroke="#63b8ff" d="M741.79,-230.82C752.52,-216.74 775.78,-189.21 802.5,-176 890.07,-132.72 924.92,-155.48 1026.3,-139.93"/>
<polygon fill="#63b8ff" stroke="#63b8ff" points="1027.01,-143.36 1036.32,-138.3 1025.89,-136.45 1027.01,-143.36"/>
</a>
</g>
</g>
<!-- Node4&#45;&gt;Node15 -->
<g id="edge25_Node000004_Node000015" class="edge">
<title>Node4&#45;&gt;Node15</title>
<g id="a_edge25_Node000004_Node000015"><a xlink:title=" ">
<path fill="none" stroke="#63b8ff" d="M801.21,-230.98C874.15,-221.53 991.68,-206.3 1068.52,-196.35"/>
<polygon fill="#63b8ff" stroke="#63b8ff" points="1069.14,-199.79 1078.61,-195.04 1068.24,-192.85 1069.14,-199.79"/>
</a>
</g>
</g>
<!-- Node17 -->
<g id="Node000017" class="node">
<title>Node17</title>
<g id="a_Node000017"><a xlink:title=" ">
<polygon fill="#e0e0e0" stroke="#999999" points="959,-195 812,-195 812,-176 959,-176 959,-195"/>
<text text-anchor="middle" x="885.5" y="-183" font-family="Helvetica,sans-Serif" font-size="10.00">ServiceTopologyManager.h</text>
</a>
</g>
</g>
<!-- Node4&#45;&gt;Node17 -->
<g id="edge28_Node000004_Node000017" class="edge">
<title>Node4&#45;&gt;Node17</title>
<g id="a_edge28_Node000004_Node000017"><a xlink:title=" ">
<path fill="none" stroke="#63b8ff" d="M759.6,-230.98C784.38,-222.23 823.2,-208.51 851.19,-198.62"/>
<polygon fill="#63b8ff" stroke="#63b8ff" points="852.7,-201.8 860.96,-195.17 850.37,-195.2 852.7,-201.8"/>
</a>
</g>
</g>
<!-- Node5&#45;&gt;Node3 -->
<g id="edge6_Node000005_Node000003" class="edge">
<title>Node5&#45;&gt;Node3</title>
<g id="a_edge6_Node000005_Node000003"><a xlink:title=" ">
<path fill="none" stroke="#63b8ff" d="M255.77,-176.34C234.27,-170.14 211.46,-159.22 198.5,-140 191.05,-128.94 190.38,-120.58 198.5,-110 237.69,-58.95 428.34,-28.41 520.47,-16.4"/>
<polygon fill="#63b8ff" stroke="#63b8ff" points="520.93,-19.87 530.4,-15.13 520.04,-12.93 520.93,-19.87"/>
</a>
</g>
</g>
<!-- Node6 -->
<g id="Node000006" class="node">
<title>Node6</title>
<g id="a_Node000006"><a xlink:title=" ">
<polygon fill="#e0e0e0" stroke="#999999" points="333,-134.5 208,-134.5 208,-115.5 333,-115.5 333,-134.5"/>
<text text-anchor="middle" x="270.5" y="-122.5" font-family="Helvetica,sans-Serif" font-size="10.00">CustomLookAndFeel.h</text>
</a>
</g>
</g>
<!-- Node5&#45;&gt;Node6 -->
<g id="edge7_Node000005_Node000006" class="edge">
<title>Node5&#45;&gt;Node6</title>
<g id="a_edge7_Node000005_Node000006"><a xlink:title=" ">
<path fill="none" stroke="#63b8ff" d="M302.89,-175.87C297.34,-167.31 288.67,-153.97 281.7,-143.24"/>
<polygon fill="#63b8ff" stroke="#63b8ff" points="284.51,-141.15 276.13,-134.67 278.64,-144.96 284.51,-141.15"/>
</a>
</g>
</g>
<!-- Node5&#45;&gt;Node7 -->
<g id="edge8_Node000005_Node000007" class="edge">
<title>Node5&#45;&gt;Node7</title>
<g id="a_edge8_Node000005_Node000007"><a xlink:title=" ">
<path fill="none" stroke="#63b8ff" d="M325.95,-175.99C345.86,-166.29 378.64,-150.31 401.77,-139.03"/>
<polygon fill="#63b8ff" stroke="#63b8ff" points="403.57,-142.04 411.03,-134.52 400.51,-135.75 403.57,-142.04"/>
</a>
</g>
</g>
<!-- Node7&#45;&gt;Node3 -->
<g id="edge9_Node000007_Node000003" class="edge">
<title>Node7&#45;&gt;Node3</title>
<g id="a_edge9_Node000007_Node000003"><a xlink:title=" ">
<path fill="none" stroke="#63b8ff" d="M439.17,-115.47C463.12,-96.32 521.42,-49.73 551.63,-25.58"/>
<polygon fill="#63b8ff" stroke="#63b8ff" points="554.08,-28.11 559.7,-19.13 549.71,-22.64 554.08,-28.11"/>
</a>
</g>
</g>
<!-- Node8&#45;&gt;Node3 -->
<g id="edge11_Node000008_Node000003" class="edge">
<title>Node8&#45;&gt;Node3</title>
<g id="a_edge11_Node000008_Node000003"><a xlink:title=" ">
<path fill="none" stroke="#63b8ff" d="M617.16,-177.8C593.02,-171.75 568.29,-160.55 553.5,-140 529.3,-106.38 548.29,-54.81 561.16,-28.02"/>
<polygon fill="#63b8ff" stroke="#63b8ff" points="564.3,-29.56 565.68,-19.05 558.05,-26.4 564.3,-29.56"/>
</a>
</g>
</g>
<!-- Node9 -->
<g id="Node000009" class="node">
<title>Node9</title>
<g id="a_Node000009"><a xlink:href="ProcessorAudioSignalData_8h.html" target="_top" xlink:title=" ">
<polygon fill="white" stroke="#666666" points="716.5,-134.5 562.5,-134.5 562.5,-115.5 716.5,-115.5 716.5,-134.5"/>
<text text-anchor="middle" x="639.5" y="-122.5" font-family="Helvetica,sans-Serif" font-size="10.00">ProcessorAudioSignalData.h</text>
</a>
</g>
</g>
<!-- Node8&#45;&gt;Node9 -->
<g id="edge12_Node000008_Node000009" class="edge">
<title>Node8&#45;&gt;Node9</title>
<g id="a_edge12_Node000008_Node000009"><a xlink:title=" ">
<path fill="none" stroke="#63b8ff" d="M679.56,-175.87C672.55,-167.14 661.54,-153.43 652.83,-142.59"/>
<polygon fill="#63b8ff" stroke="#63b8ff" points="655.46,-140.27 646.46,-134.67 650,-144.66 655.46,-140.27"/>
</a>
</g>
</g>
<!-- Node11 -->
<g id="Node000011" class="node">
<title>Node11</title>
<g id="a_Node000011"><a xlink:href="ProcessorLevelData_8h.html" target="_top" xlink:title=" ">
<polygon fill="white" stroke="#666666" points="856.5,-134.5 734.5,-134.5 734.5,-115.5 856.5,-115.5 856.5,-134.5"/>
<text text-anchor="middle" x="795.5" y="-122.5" font-family="Helvetica,sans-Serif" font-size="10.00">ProcessorLevelData.h</text>
</a>
</g>
</g>
<!-- Node8&#45;&gt;Node11 -->
<g id="edge16_Node000008_Node000011" class="edge">
<title>Node8&#45;&gt;Node11</title>
<g id="a_edge16_Node000008_Node000011"><a xlink:title=" ">
<path fill="none" stroke="#63b8ff" d="M702.58,-175.87C720.45,-166.28 749.54,-150.67 770.41,-139.47"/>
<polygon fill="#63b8ff" stroke="#63b8ff" points="772.19,-142.48 779.35,-134.67 768.88,-136.31 772.19,-142.48"/>
</a>
</g>
</g>
<!-- Node12 -->
<g id="Node000012" class="node">
<title>Node12</title>
<g id="a_Node000012"><a xlink:href="ProcessorSpectrumData_8h.html" target="_top" xlink:title=" ">
<polygon fill="white" stroke="#666666" points="1018,-134.5 875,-134.5 875,-115.5 1018,-115.5 1018,-134.5"/>
<text text-anchor="middle" x="946.5" y="-122.5" font-family="Helvetica,sans-Serif" font-size="10.00">ProcessorSpectrumData.h</text>
</a>
</g>
</g>
<!-- Node8&#45;&gt;Node12 -->
<g id="edge18_Node000008_Node000012" class="edge">
<title>Node8&#45;&gt;Node12</title>
<g id="a_edge18_Node000008_Node000012"><a xlink:title=" ">
<path fill="none" stroke="#63b8ff" d="M724.31,-175.99C770.42,-165.62 848.43,-148.07 898.68,-136.76"/>
<polygon fill="#63b8ff" stroke="#63b8ff" points="899.66,-140.13 908.65,-134.52 898.12,-133.3 899.66,-140.13"/>
</a>
</g>
</g>
<!-- Node9&#45;&gt;Node3 -->
<g id="edge13_Node000009_Node000003" class="edge">
<title>Node9&#45;&gt;Node3</title>
<g id="a_edge13_Node000009_Node000003"><a xlink:title=" ">
<path fill="none" stroke="#63b8ff" d="M634.31,-115.47C623.03,-96.9 596.04,-52.51 581.03,-27.82"/>
<polygon fill="#63b8ff" stroke="#63b8ff" points="583.93,-25.86 575.75,-19.13 577.95,-29.49 583.93,-25.86"/>
</a>
</g>
</g>
<!-- Node10 -->
<g id="Node000010" class="node">
<title>Node10</title>
<g id="a_Node000010"><a xlink:href="AbstractProcessorData_8h.html" target="_top" xlink:title=" ">
<polygon fill="white" stroke="#666666" points="818,-74 681,-74 681,-55 818,-55 818,-74"/>
<text text-anchor="middle" x="749.5" y="-62" font-family="Helvetica,sans-Serif" font-size="10.00">AbstractProcessorData.h</text>
</a>
</g>
</g>
<!-- Node9&#45;&gt;Node10 -->
<g id="edge14_Node000009_Node000010" class="edge">
<title>Node9&#45;&gt;Node10</title>
<g id="a_edge14_Node000009_Node000010"><a xlink:title=" ">
<path fill="none" stroke="#63b8ff" d="M655.73,-115.37C673.77,-105.78 703.12,-90.17 724.18,-78.97"/>
<polygon fill="#63b8ff" stroke="#63b8ff" points="726.02,-81.95 733.2,-74.17 722.73,-75.77 726.02,-81.95"/>
</a>
</g>
</g>
<!-- Node10&#45;&gt;Node3 -->
<g id="edge15_Node000010_Node000003" class="edge">
<title>Node10&#45;&gt;Node3</title>
<g id="a_edge15_Node000010_Node000003"><a xlink:title=" ">
<path fill="none" stroke="#63b8ff" d="M720.74,-54.98C690.56,-46.05 642.93,-31.94 609.4,-22.02"/>
<polygon fill="#63b8ff" stroke="#63b8ff" points="610.07,-18.57 599.48,-19.08 608.08,-25.28 610.07,-18.57"/>
</a>
</g>
</g>
<!-- Node11&#45;&gt;Node10 -->
<g id="edge17_Node000011_Node000010" class="edge">
<title>Node11&#45;&gt;Node10</title>
<g id="a_edge17_Node000011_Node000010"><a xlink:title=" ">
<path fill="none" stroke="#63b8ff" d="M788.71,-115.37C781.85,-106.64 771.07,-92.93 762.55,-82.09"/>
<polygon fill="#63b8ff" stroke="#63b8ff" points="765.25,-79.86 756.32,-74.17 759.75,-84.19 765.25,-79.86"/>
</a>
</g>
</g>
<!-- Node12&#45;&gt;Node10 -->
<g id="edge19_Node000012_Node000010" class="edge">
<title>Node12&#45;&gt;Node10</title>
<g id="a_edge19_Node000012_Node000010"><a xlink:title=" ">
<path fill="none" stroke="#63b8ff" d="M917.85,-115.49C883.57,-105.31 826.02,-88.22 787.9,-76.9"/>
<polygon fill="#63b8ff" stroke="#63b8ff" points="788.76,-73.51 778.18,-74.02 786.77,-80.22 788.76,-73.51"/>
</a>
</g>
</g>
<!-- Node13&#45;&gt;Node3 -->
<g id="edge22_Node000013_Node000003" class="edge">
<title>Node13&#45;&gt;Node3</title>
<g id="a_edge22_Node000013_Node000003"><a xlink:title=" ">
<path fill="none" stroke="#63b8ff" d="M1051.94,-109.97C996.5,-95.17 905.66,-71.72 826.5,-55 755.33,-39.97 672.25,-26.22 620.5,-18.1"/>
<polygon fill="#63b8ff" stroke="#63b8ff" points="621,-14.63 610.58,-16.55 619.92,-21.55 621,-14.63"/>
</a>
</g>
</g>
<!-- Node14 -->
<g id="Node000014" class="node">
<title>Node14</title>
<g id="a_Node000014"><a xlink:href="AudioSelectComponent_8h.html" target="_top" xlink:title=" ">
<polygon fill="white" stroke="#666666" points="1131.5,-74 991.5,-74 991.5,-55 1131.5,-55 1131.5,-74"/>
<text text-anchor="middle" x="1061.5" y="-62" font-family="Helvetica,sans-Serif" font-size="10.00">AudioSelectComponent.h</text>
</a>
</g>
</g>
<!-- Node13&#45;&gt;Node14 -->
<g id="edge23_Node000013_Node000014" class="edge">
<title>Node13&#45;&gt;Node14</title>
<g id="a_edge23_Node000013_Node000014"><a xlink:title=" ">
<path fill="none" stroke="#63b8ff" d="M1093.33,-109.84C1087.42,-101.61 1079.94,-91.18 1073.71,-82.51"/>
<polygon fill="#63b8ff" stroke="#63b8ff" points="1076.47,-80.35 1067.79,-74.27 1070.78,-84.43 1076.47,-80.35"/>
</a>
</g>
</g>
<!-- Node14&#45;&gt;Node3 -->
<g id="edge24_Node000014_Node000003" class="edge">
<title>Node14&#45;&gt;Node3</title>
<g id="a_edge24_Node000014_Node000003"><a xlink:title=" ">
<path fill="none" stroke="#63b8ff" d="M991.41,-55.93C890.99,-45.09 708.61,-25.41 620.63,-15.91"/>
<polygon fill="#63b8ff" stroke="#63b8ff" points="620.95,-12.43 610.63,-14.83 620.2,-19.38 620.95,-12.43"/>
</a>
</g>
</g>
<!-- Node15&#45;&gt;Node3 -->
<g id="edge26_Node000015_Node000003" class="edge">
<title>Node15&#45;&gt;Node3</title>
<g id="a_edge26_Node000015_Node000003"><a xlink:title=" ">
<path fill="none" stroke="#63b8ff" d="M1154.38,-175.75C1162.89,-167.5 1174.55,-154.3 1179.5,-140 1193.1,-100.72 1176.65,-75.51 1140.5,-55 1095.89,-29.7 751.87,-16.25 620.9,-12"/>
<polygon fill="#63b8ff" stroke="#63b8ff" points="620.85,-8.5 610.74,-11.68 620.62,-15.5 620.85,-8.5"/>
</a>
</g>
</g>
<!-- Node15&#45;&gt;Node16 -->
<g id="edge27_Node000015_Node000016" class="edge">
<title>Node15&#45;&gt;Node16</title>
<g id="a_edge27_Node000015_Node000016"><a xlink:title=" ">
<path fill="none" stroke="#63b8ff" d="M1166.17,-175.99C1191.44,-166.07 1233.41,-149.59 1262.22,-138.28"/>
<polygon fill="#63b8ff" stroke="#63b8ff" points="1263.78,-141.43 1271.81,-134.52 1261.22,-134.91 1263.78,-141.43"/>
</a>
</g>
</g>
</g>
</svg>

<g id="navigator" transform="translate(0 0)" fill="#404254">
  <rect fill="#f2f5e9" fill-opacity="0.5" stroke="#606060" stroke-width=".5" x="0" y="0" width="60" height="60"/>
  <use id="zoomplus" xlink:href="#zoomPlus" x="17" y="9" onmousedown="handleZoom(evt,'in')"/>
  <use id="zoomminus" xlink:href="#zoomMin" x="42" y="9" onmousedown="handleZoom(evt,'out')"/>
  <use id="reset" xlink:href="#resetDef" x="30" y="36" onmousedown="handleReset()"/>
   <use id="arrowup" xlink:href="#arrowUp" x="0" y="0" onmousedown="handlePan(0,-1)"/>
  <use id="arrowright" xlink:href="#arrowRight" x="0" y="0" onmousedown="handlePan(1,0)"/>
  <use id="arrowdown" xlink:href="#arrowDown" x="0" y="0" onmousedown="handlePan(0,1)"/>
  <use id="arrowleft" xlink:href="#arrowLeft" x="0" y="0" onmousedown="handlePan(-1,0)"/>
</g>
<svg viewBox="0 0 15 15" width="100%" height="30px" preserveAspectRatio="xMaxYMin meet">
 <g id="arrow_out" transform="scale(0.3 0.3)">
  <a xlink:href="HeadlessCLIMenu_8cpp__incl_org.svg" target="_base">
   <rect id="button" ry="5" rx="5" y="6" x="6" height="38" width="38"
        fill="#f2f5e9" fill-opacity="0.5" stroke="#606060" stroke-width="1.0"/>
   <path id="arrow"
     d="M 11.500037,31.436501 C 11.940474,20.09759 22.043105,11.32322 32.158766,21.979434 L 37.068811,17.246167 C 37.068811,17.246167 37.088388,32 37.088388,32 L 22.160133,31.978069 C 22.160133,31.978069 26.997745,27.140456 26.997745,27.140456 C 18.528582,18.264221 13.291696,25.230495 11.500037,31.436501 z"
     style="fill:#404040;"/>
  </a>
 </g>
</svg>

<style type='text/css'>
<![CDATA[
[data-mouse-over-selected='false'] { opacity: 0.7; }
[data-mouse-over-selected='true']  { opacity: 1.0; }
]]>
</style>
<script type="application/ecmascript"><![CDATA[
document.addEventListener('DOMContentLoaded', (event) => {
  highlightEdges();
  highlightAdjacentNodes();
});
]]></script>
</svg>
