<?xml version="1.0" encoding="UTF-8" standalone="no"?>
<!DOCTYPE svg PUBLIC "-//W3C//DTD SVG 1.1//EN"
 "http://www.w3.org/Graphics/SVG/1.1/DTD/svg11.dtd">
<!-- Generated by graphviz version 2.43.0 (0)
 -->
<!-- Title: Graphical Class Hierarchy Pages: 1 -->
<svg width="416pt" height="101pt"
 viewBox="0.00 0.00 416.00 101.00" xmlns="http://www.w3.org/2000/svg" xmlns:xlink="http://www.w3.org/1999/xlink">
<g id="graph0" class="graph" transform="scale(1 1) rotate(0) translate(4 97)">
<title>Graphical Class Hierarchy</title>
<!-- Node0 -->
<g id="Node000000" class="node">
<title>Node0</title>
<g id="a_Node000000"><a xlink:title=" ">
<polygon fill="#e0e0e0" stroke="#999999" points="204,-56 0,-56 0,-37 204,-37 204,-56"/>
<text text-anchor="middle" x="102" y="-44" font-family="Helvetica,sans-Serif" font-size="10.00">JUCEAppBasics::AppConfigurationBase</text>
</a>
</g>
</g>
<!-- Node1 -->
<g id="Node000001" class="node">
<title>Node1</title>
<g id="a_Node000001"><a xlink:href="classMema_1_1MemaAppConfiguration.html" target="_top" xlink:title="XML&#45;backed application configuration manager for the Mema audio matrix tool.">
<polygon fill="white" stroke="#666666" points="408,-93 240,-93 240,-74 408,-74 408,-93"/>
<text text-anchor="middle" x="324" y="-81" font-family="Helvetica,sans-Serif" font-size="10.00">Mema::MemaAppConfiguration</text>
</a>
</g>
</g>
<!-- Node0&#45;&gt;Node1 -->
<g id="edge99_Node000000_Node000001" class="edge">
<title>Node0&#45;&gt;Node1</title>
<g id="a_edge99_Node000000_Node000001"><a xlink:title=" ">
<path fill="none" stroke="#63b8ff" d="M169.86,-57.75C200.62,-62.92 236.73,-68.99 266.15,-73.94"/>
<polygon fill="#63b8ff" stroke="#63b8ff" points="170.1,-54.24 159.66,-56.03 168.94,-61.14 170.1,-54.24"/>
</a>
</g>
</g>
<!-- Node2 -->
<g id="Node000002" class="node">
<title>Node2</title>
<g id="a_Node000002"><a xlink:href="classMemaMoAppConfiguration.html" target="_top" xlink:title="XML&#45;backed configuration manager for the Mema.Mo monitor application.">
<polygon fill="white" stroke="#666666" points="397,-56 251,-56 251,-37 397,-37 397,-56"/>
<text text-anchor="middle" x="324" y="-44" font-family="Helvetica,sans-Serif" font-size="10.00">MemaMoAppConfiguration</text>
</a>
</g>
</g>
<!-- Node0&#45;&gt;Node2 -->
<g id="edge100_Node000000_Node000002" class="edge">
<title>Node0&#45;&gt;Node2</title>
<g id="a_edge100_Node000000_Node000002"><a xlink:title=" ">
<path fill="none" stroke="#63b8ff" d="M214.61,-46.5C226.89,-46.5 239.15,-46.5 250.76,-46.5"/>
<polygon fill="#63b8ff" stroke="#63b8ff" points="214.31,-43 204.31,-46.5 214.31,-50 214.31,-43"/>
</a>
</g>
</g>
<!-- Node3 -->
<g id="Node000003" class="node">
<title>Node3</title>
<g id="a_Node000003"><a xlink:href="classMemaReAppConfiguration.html" target="_top" xlink:title="XML&#45;backed configuration manager for the Mema.Re remote&#45;control application.">
<polygon fill="white" stroke="#666666" points="396,-19 252,-19 252,0 396,0 396,-19"/>
<text text-anchor="middle" x="324" y="-7" font-family="Helvetica,sans-Serif" font-size="10.00">MemaReAppConfiguration</text>
</a>
</g>
</g>
<!-- Node0&#45;&gt;Node3 -->
<g id="edge101_Node000000_Node000003" class="edge">
<title>Node0&#45;&gt;Node3</title>
<g id="a_edge101_Node000000_Node000003"><a xlink:title=" ">
<path fill="none" stroke="#63b8ff" d="M169.86,-35.25C200.62,-30.08 236.73,-24.01 266.15,-19.06"/>
<polygon fill="#63b8ff" stroke="#63b8ff" points="168.94,-31.86 159.66,-36.97 170.1,-38.76 168.94,-31.86"/>
</a>
</g>
</g>
</g>
</svg>
