<?xml version="1.0" encoding="UTF-8" standalone="no"?>
<!DOCTYPE svg PUBLIC "-//W3C//DTD SVG 1.1//EN"
 "http://www.w3.org/Graphics/SVG/1.1/DTD/svg11.dtd">
<!-- Generated by graphviz version 2.43.0 (0)
 -->
<!-- Title: Graphical Class Hierarchy Pages: 1 -->
<svg width="327pt" height="326pt"
 viewBox="0.00 0.00 327.00 326.00" xmlns="http://www.w3.org/2000/svg" xmlns:xlink="http://www.w3.org/1999/xlink">
<g id="graph0" class="graph" transform="scale(1 1) rotate(0) translate(4 322)">
<title>Graphical Class Hierarchy</title>
<!-- Node0 -->
<g id="Node000000" class="node">
<title>Node0</title>
<g id="a_Node000000"><a xlink:href="structMema_1_1ADMOSController_1_1ADMOSCParameter.html" target="_top" xlink:title=" ">
<polygon fill="white" stroke="#666666" points="138,-174 0,-174 0,-144 138,-144 138,-174"/>
<text text-anchor="start" x="8" y="-162" font-family="Helvetica,sans-Serif" font-size="10.00">Mema::ADMOSController</text>
<text text-anchor="middle" x="69" y="-151" font-family="Helvetica,sans-Serif" font-size="10.00">::ADMOSCParameter</text>
</a>
</g>
</g>
<!-- Node1 -->
<g id="Node000001" class="node">
<title>Node1</title>
<g id="a_Node000001"><a xlink:href="structMema_1_1ADMOSController_1_1ADMOSCParameterMute.html" target="_top" xlink:title=" ">
<polygon fill="white" stroke="#666666" points="317,-318 176,-318 176,-288 317,-288 317,-318"/>
<text text-anchor="start" x="184" y="-306" font-family="Helvetica,sans-Serif" font-size="10.00">Mema::ADMOSController</text>
<text text-anchor="middle" x="246.5" y="-295" font-family="Helvetica,sans-Serif" font-size="10.00">::ADMOSCParameterMute</text>
</a>
</g>
</g>
<!-- Node0&#45;&gt;Node1 -->
<g id="edge106_Node000000_Node000001" class="edge">
<title>Node0&#45;&gt;Node1</title>
<g id="a_edge106_Node000000_Node000001"><a xlink:title=" ">
<path fill="none" stroke="#63b8ff" d="M84.78,-182.65C102.75,-209.59 135.52,-253.22 174,-279 179.11,-282.43 184.76,-285.4 190.57,-287.98"/>
<polygon fill="#63b8ff" stroke="#63b8ff" points="87.66,-180.66 79.26,-174.2 81.8,-184.49 87.66,-180.66"/>
</a>
</g>
</g>
<!-- Node2 -->
<g id="Node000002" class="node">
<title>Node2</title>
<g id="a_Node000002"><a xlink:href="structMema_1_1ADMOSController_1_1ADMOSCParameterWidth.html" target="_top" xlink:title=" ">
<polygon fill="white" stroke="#666666" points="319,-270 174,-270 174,-240 319,-240 319,-270"/>
<text text-anchor="start" x="182" y="-258" font-family="Helvetica,sans-Serif" font-size="10.00">Mema::ADMOSController</text>
<text text-anchor="middle" x="246.5" y="-247" font-family="Helvetica,sans-Serif" font-size="10.00">::ADMOSCParameterWidth</text>
</a>
</g>
</g>
<!-- Node0&#45;&gt;Node2 -->
<g id="edge107_Node000000_Node000002" class="edge">
<title>Node0&#45;&gt;Node2</title>
<g id="a_edge107_Node000000_Node000002"><a xlink:title=" ">
<path fill="none" stroke="#63b8ff" d="M96.65,-180.6C116.92,-196.22 146,-216.96 174,-231 180.55,-234.29 187.66,-237.28 194.77,-239.96"/>
<polygon fill="#63b8ff" stroke="#63b8ff" points="98.57,-177.65 88.53,-174.25 94.26,-183.17 98.57,-177.65"/>
</a>
</g>
</g>
<!-- Node3 -->
<g id="Node000003" class="node">
<title>Node3</title>
<g id="a_Node000003"><a xlink:href="structMema_1_1ADMOSController_1_1ADMOSCParameterX.html" target="_top" xlink:title=" ">
<polygon fill="white" stroke="#666666" points="315.5,-222 177.5,-222 177.5,-192 315.5,-192 315.5,-222"/>
<text text-anchor="start" x="185.5" y="-210" font-family="Helvetica,sans-Serif" font-size="10.00">Mema::ADMOSController</text>
<text text-anchor="middle" x="246.5" y="-199" font-family="Helvetica,sans-Serif" font-size="10.00">::ADMOSCParameterX</text>
</a>
</g>
</g>
<!-- Node0&#45;&gt;Node3 -->
<g id="edge108_Node000000_Node000003" class="edge">
<title>Node0&#45;&gt;Node3</title>
<g id="a_edge108_Node000000_Node000003"><a xlink:title=" ">
<path fill="none" stroke="#63b8ff" d="M134.78,-176.72C153.14,-181.74 172.94,-187.15 190.65,-192"/>
<polygon fill="#63b8ff" stroke="#63b8ff" points="135.62,-173.32 125.05,-174.06 133.77,-180.07 135.62,-173.32"/>
</a>
</g>
</g>
<!-- Node4 -->
<g id="Node000004" class="node">
<title>Node4</title>
<g id="a_Node000004"><a xlink:href="structMema_1_1ADMOSController_1_1ADMOSCParameterXY.html" target="_top" xlink:title=" ">
<polygon fill="white" stroke="#666666" points="315.5,-174 177.5,-174 177.5,-144 315.5,-144 315.5,-174"/>
<text text-anchor="start" x="185.5" y="-162" font-family="Helvetica,sans-Serif" font-size="10.00">Mema::ADMOSController</text>
<text text-anchor="middle" x="246.5" y="-151" font-family="Helvetica,sans-Serif" font-size="10.00">::ADMOSCParameterXY</text>
</a>
</g>
</g>
<!-- Node0&#45;&gt;Node4 -->
<g id="edge109_Node000000_Node000004" class="edge">
<title>Node0&#45;&gt;Node4</title>
<g id="a_edge109_Node000000_Node000004"><a xlink:title=" ">
<path fill="none" stroke="#63b8ff" d="M148.19,-159C157.94,-159 167.85,-159 177.43,-159"/>
<polygon fill="#63b8ff" stroke="#63b8ff" points="148.1,-155.5 138.1,-159 148.1,-162.5 148.1,-155.5"/>
</a>
</g>
</g>
<!-- Node5 -->
<g id="Node000005" class="node">
<title>Node5</title>
<g id="a_Node000005"><a xlink:href="structMema_1_1ADMOSController_1_1ADMOSCParameterXYZ.html" target="_top" xlink:title=" ">
<polygon fill="white" stroke="#666666" points="315.5,-126 177.5,-126 177.5,-96 315.5,-96 315.5,-126"/>
<text text-anchor="start" x="185.5" y="-114" font-family="Helvetica,sans-Serif" font-size="10.00">Mema::ADMOSController</text>
<text text-anchor="middle" x="246.5" y="-103" font-family="Helvetica,sans-Serif" font-size="10.00">::ADMOSCParameterXYZ</text>
</a>
</g>
</g>
<!-- Node0&#45;&gt;Node5 -->
<g id="edge110_Node000000_Node000005" class="edge">
<title>Node0&#45;&gt;Node5</title>
<g id="a_edge110_Node000000_Node000005"><a xlink:title=" ">
<path fill="none" stroke="#63b8ff" d="M134.78,-141.28C153.14,-136.26 172.94,-130.85 190.65,-126"/>
<polygon fill="#63b8ff" stroke="#63b8ff" points="133.77,-137.93 125.05,-143.94 135.62,-144.68 133.77,-137.93"/>
</a>
</g>
</g>
<!-- Node6 -->
<g id="Node000006" class="node">
<title>Node6</title>
<g id="a_Node000006"><a xlink:href="structMema_1_1ADMOSController_1_1ADMOSCParameterY.html" target="_top" xlink:title=" ">
<polygon fill="white" stroke="#666666" points="315.5,-78 177.5,-78 177.5,-48 315.5,-48 315.5,-78"/>
<text text-anchor="start" x="185.5" y="-66" font-family="Helvetica,sans-Serif" font-size="10.00">Mema::ADMOSController</text>
<text text-anchor="middle" x="246.5" y="-55" font-family="Helvetica,sans-Serif" font-size="10.00">::ADMOSCParameterY</text>
</a>
</g>
</g>
<!-- Node0&#45;&gt;Node6 -->
<g id="edge111_Node000000_Node000006" class="edge">
<title>Node0&#45;&gt;Node6</title>
<g id="a_edge111_Node000000_Node000006"><a xlink:title=" ">
<path fill="none" stroke="#63b8ff" d="M96.65,-137.4C116.92,-121.78 146,-101.04 174,-87 180.55,-83.71 187.66,-80.72 194.77,-78.04"/>
<polygon fill="#63b8ff" stroke="#63b8ff" points="94.26,-134.83 88.53,-143.75 98.57,-140.35 94.26,-134.83"/>
</a>
</g>
</g>
<!-- Node7 -->
<g id="Node000007" class="node">
<title>Node7</title>
<g id="a_Node000007"><a xlink:href="structMema_1_1ADMOSController_1_1ADMOSCParameterZ.html" target="_top" xlink:title=" ">
<polygon fill="white" stroke="#666666" points="315.5,-30 177.5,-30 177.5,0 315.5,0 315.5,-30"/>
<text text-anchor="start" x="185.5" y="-18" font-family="Helvetica,sans-Serif" font-size="10.00">Mema::ADMOSController</text>
<text text-anchor="middle" x="246.5" y="-7" font-family="Helvetica,sans-Serif" font-size="10.00">::ADMOSCParameterZ</text>
</a>
</g>
</g>
<!-- Node0&#45;&gt;Node7 -->
<g id="edge112_Node000000_Node000007" class="edge">
<title>Node0&#45;&gt;Node7</title>
<g id="a_edge112_Node000000_Node000007"><a xlink:title=" ">
<path fill="none" stroke="#63b8ff" d="M84.78,-135.35C102.75,-108.41 135.52,-64.78 174,-39 179.11,-35.57 184.76,-32.6 190.57,-30.02"/>
<polygon fill="#63b8ff" stroke="#63b8ff" points="81.8,-133.51 79.26,-143.8 87.66,-137.34 81.8,-133.51"/>
</a>
</g>
</g>
</g>
</svg>
