<?xml version="1.0" encoding="UTF-8" standalone="no"?>
<!DOCTYPE svg PUBLIC "-//W3C//DTD SVG 1.1//EN"
 "http://www.w3.org/Graphics/SVG/1.1/DTD/svg11.dtd">
<!-- Generated by graphviz version 2.43.0 (0)
 -->
<!-- Title: Graphical Class Hierarchy Pages: 1 -->
<svg width="267pt" height="64pt"
 viewBox="0.00 0.00 267.00 64.00" xmlns="http://www.w3.org/2000/svg" xmlns:xlink="http://www.w3.org/1999/xlink">
<g id="graph0" class="graph" transform="scale(1 1) rotate(0) translate(4 60)">
<title>Graphical Class Hierarchy</title>
<!-- Node0 -->
<g id="Node000000" class="node">
<title>Node0</title>
<g id="a_Node000000"><a xlink:title=" ">
<polygon fill="#e0e0e0" stroke="#999999" points="121,-37 0,-37 0,-18 121,-18 121,-37"/>
<text text-anchor="middle" x="60.5" y="-25" font-family="Helvetica,sans-Serif" font-size="10.00">juce::JUCEApplication</text>
</a>
</g>
</g>
<!-- Node1 -->
<g id="Node000001" class="node">
<title>Node1</title>
<g id="a_Node000001"><a xlink:href="classMainApplication.html" target="_top" xlink:title=" ">
<polygon fill="white" stroke="#666666" points="255.5,-56 160.5,-56 160.5,-37 255.5,-37 255.5,-56"/>
<text text-anchor="middle" x="208" y="-44" font-family="Helvetica,sans-Serif" font-size="10.00">MainApplication</text>
</a>
</g>
</g>
<!-- Node0&#45;&gt;Node1 -->
<g id="edge76_Node000000_Node000001" class="edge">
<title>Node0&#45;&gt;Node1</title>
<g id="a_edge76_Node000000_Node000001"><a xlink:title=" ">
<path fill="none" stroke="#63b8ff" d="M131.26,-36.61C141.07,-37.89 150.95,-39.18 160.18,-40.39"/>
<polygon fill="#63b8ff" stroke="#63b8ff" points="131.47,-33.11 121.1,-35.28 130.56,-40.05 131.47,-33.11"/>
</a>
</g>
</g>
<!-- Node2 -->
<g id="Node000002" class="node">
<title>Node2</title>
<g id="a_Node000002"><a xlink:href="classMemaApplication.html" target="_top" xlink:title=" ">
<polygon fill="white" stroke="#666666" points="259,-19 157,-19 157,0 259,0 259,-19"/>
<text text-anchor="middle" x="208" y="-7" font-family="Helvetica,sans-Serif" font-size="10.00">MemaApplication</text>
</a>
</g>
</g>
<!-- Node0&#45;&gt;Node2 -->
<g id="edge77_Node000000_Node000002" class="edge">
<title>Node0&#45;&gt;Node2</title>
<g id="a_edge77_Node000000_Node000002"><a xlink:title=" ">
<path fill="none" stroke="#63b8ff" d="M131.12,-18.89C139.7,-17.83 148.34,-16.76 156.55,-15.74"/>
<polygon fill="#63b8ff" stroke="#63b8ff" points="130.59,-15.43 121.1,-20.13 131.45,-22.37 130.59,-15.43"/>
</a>
</g>
</g>
</g>
</svg>
