<?xml version="1.0" encoding="UTF-8" standalone="no"?>
<!DOCTYPE svg PUBLIC "-//W3C//DTD SVG 1.1//EN"
 "http://www.w3.org/Graphics/SVG/1.1/DTD/svg11.dtd">
<!-- Generated by graphviz version 2.43.0 (0)
 -->
<!-- Title: Graphical Class Hierarchy Pages: 1 -->
<svg width="780pt" height="343pt"
 viewBox="0.00 0.00 780.00 342.50" xmlns="http://www.w3.org/2000/svg" xmlns:xlink="http://www.w3.org/1999/xlink">
<g id="graph0" class="graph" transform="scale(1 1) rotate(0) translate(4 338.5)">
<title>Graphical Class Hierarchy</title>
<!-- Node0 -->
<g id="Node000000" class="node">
<title>Node0</title>
<g id="a_Node000000"><a xlink:title=" ">
<polygon fill="#e0e0e0" stroke="#999999" points="86,-225 0,-225 0,-206 86,-206 86,-225"/>
<text text-anchor="middle" x="43" y="-213" font-family="Helvetica,sans-Serif" font-size="10.00">juce::Message</text>
</a>
</g>
</g>
<!-- Node1 -->
<g id="Node000001" class="node">
<title>Node1</title>
<g id="a_Node000001"><a xlink:href="classMema_1_1ADMOSController_1_1ADMOSCParameterChangedMessage.html" target="_top" xlink:title=" ">
<polygon fill="white" stroke="#666666" points="325,-278.5 122,-278.5 122,-248.5 325,-248.5 325,-278.5"/>
<text text-anchor="start" x="130" y="-266.5" font-family="Helvetica,sans-Serif" font-size="10.00">Mema::ADMOSController</text>
<text text-anchor="middle" x="223.5" y="-255.5" font-family="Helvetica,sans-Serif" font-size="10.00">::ADMOSCParameterChangedMessage</text>
</a>
</g>
</g>
<!-- Node0&#45;&gt;Node1 -->
<g id="edge76_Node000000_Node000001" class="edge">
<title>Node0&#45;&gt;Node1</title>
<g id="a_edge76_Node000000_Node000001"><a xlink:title=" ">
<path fill="none" stroke="#63b8ff" d="M83.09,-228.07C95.49,-231.9 109.27,-236.03 122,-239.5 133.25,-242.57 145.26,-245.63 156.93,-248.48"/>
<polygon fill="#63b8ff" stroke="#63b8ff" points="84.09,-224.71 73.5,-225.07 82,-231.39 84.09,-224.71"/>
</a>
</g>
</g>
<!-- Node2 -->
<g id="Node000002" class="node">
<title>Node2</title>
<g id="a_Node000002"><a xlink:href="classMema_1_1PluginParameterInfosChangedMessage.html" target="_top" xlink:title="Internal JUCE message posted to the message thread when plugin parameter descriptors change.">
<polygon fill="white" stroke="#666666" points="302.5,-230.5 144.5,-230.5 144.5,-200.5 302.5,-200.5 302.5,-230.5"/>
<text text-anchor="start" x="152.5" y="-218.5" font-family="Helvetica,sans-Serif" font-size="10.00">Mema::PluginParameterInfos</text>
<text text-anchor="middle" x="223.5" y="-207.5" font-family="Helvetica,sans-Serif" font-size="10.00">ChangedMessage</text>
</a>
</g>
</g>
<!-- Node0&#45;&gt;Node2 -->
<g id="edge77_Node000000_Node000002" class="edge">
<title>Node0&#45;&gt;Node2</title>
<g id="a_edge77_Node000000_Node000002"><a xlink:title=" ">
<path fill="none" stroke="#63b8ff" d="M96.43,-215.5C111.48,-215.5 128.23,-215.5 144.48,-215.5"/>
<polygon fill="#63b8ff" stroke="#63b8ff" points="96.3,-212 86.3,-215.5 96.3,-219 96.3,-212"/>
</a>
</g>
</g>
<!-- Node3 -->
<g id="Node000003" class="node">
<title>Node3</title>
<g id="a_Node000003"><a xlink:href="classMema_1_1SerializableMessage.html" target="_top" xlink:title="Base class for all messages exchanged between Mema, Mema.Mo, and Mema.Re over TCP.">
<polygon fill="white" stroke="#666666" points="300.5,-182 146.5,-182 146.5,-163 300.5,-163 300.5,-182"/>
<text text-anchor="middle" x="223.5" y="-170" font-family="Helvetica,sans-Serif" font-size="10.00">Mema::SerializableMessage</text>
</a>
</g>
</g>
<!-- Node0&#45;&gt;Node3 -->
<g id="edge78_Node000000_Node000003" class="edge">
<title>Node0&#45;&gt;Node3</title>
<g id="a_edge78_Node000000_Node000003"><a xlink:title=" ">
<path fill="none" stroke="#63b8ff" d="M82.06,-202.86C94.68,-198.91 108.87,-194.75 122,-191.5 136.22,-187.98 151.71,-184.76 166.18,-182"/>
<polygon fill="#63b8ff" stroke="#63b8ff" points="80.78,-199.59 72.31,-205.95 82.9,-206.26 80.78,-199.59"/>
</a>
</g>
</g>
<!-- Node4 -->
<g id="Node000004" class="node">
<title>Node4</title>
<g id="a_Node000004"><a xlink:href="classMema_1_1AnalyzerParametersMessage.html" target="_top" xlink:title="Carries audio&#45;device parameters (sample rate, block size) from Mema to clients.">
<polygon fill="white" stroke="#666666" points="531,-334.5 379,-334.5 379,-304.5 531,-304.5 531,-334.5"/>
<text text-anchor="start" x="387" y="-322.5" font-family="Helvetica,sans-Serif" font-size="10.00">Mema::AnalyzerParameters</text>
<text text-anchor="middle" x="455" y="-311.5" font-family="Helvetica,sans-Serif" font-size="10.00">Message</text>
</a>
</g>
</g>
<!-- Node3&#45;&gt;Node4 -->
<g id="edge79_Node000003_Node000004" class="edge">
<title>Node3&#45;&gt;Node4</title>
<g id="a_edge79_Node000003_Node000004"><a xlink:title=" ">
<path fill="none" stroke="#63b8ff" d="M310.02,-181.77C315.41,-184.39 320.48,-187.6 325,-191.5 362.02,-223.46 325.05,-262.34 361,-295.5 366.27,-300.36 372.39,-304.27 378.94,-307.4"/>
<polygon fill="#63b8ff" stroke="#63b8ff" points="311.25,-178.49 300.68,-177.88 308.57,-184.95 311.25,-178.49"/>
</a>
</g>
</g>
<!-- Node5 -->
<g id="Node000005" class="node">
<title>Node5</title>
<g id="a_Node000005"><a xlink:href="classMema_1_1AudioBufferMessage.html" target="_top" xlink:title="Base message carrying a serialised audio buffer and its flow&#45;direction metadata.">
<polygon fill="white" stroke="#666666" points="532,-286 378,-286 378,-267 532,-267 532,-286"/>
<text text-anchor="middle" x="455" y="-274" font-family="Helvetica,sans-Serif" font-size="10.00">Mema::AudioBufferMessage</text>
</a>
</g>
</g>
<!-- Node3&#45;&gt;Node5 -->
<g id="edge80_Node000003_Node000005" class="edge">
<title>Node3&#45;&gt;Node5</title>
<g id="a_edge80_Node000003_Node000005"><a xlink:title=" ">
<path fill="none" stroke="#63b8ff" d="M310.19,-183.03C315.43,-185.37 320.42,-188.17 325,-191.5 352.02,-211.16 334.13,-237.64 361,-257.5 366.17,-261.32 371.92,-264.42 377.96,-266.92"/>
<polygon fill="#63b8ff" stroke="#63b8ff" points="311.13,-179.64 300.54,-179.29 308.59,-186.17 311.13,-179.64"/>
</a>
</g>
</g>
<!-- Node8 -->
<g id="Node000008" class="node">
<title>Node8</title>
<g id="a_Node000008"><a xlink:href="classMema_1_1ControlParametersMessage.html" target="_top" xlink:title="Full routing&#45;matrix state snapshot exchanged bidirectionally between Mema and Mema....">
<polygon fill="white" stroke="#666666" points="549,-249 361,-249 361,-230 549,-230 549,-249"/>
<text text-anchor="middle" x="455" y="-237" font-family="Helvetica,sans-Serif" font-size="10.00">Mema::ControlParametersMessage</text>
</a>
</g>
</g>
<!-- Node3&#45;&gt;Node8 -->
<g id="edge83_Node000003_Node000008" class="edge">
<title>Node3&#45;&gt;Node8</title>
<g id="a_edge83_Node000003_Node000008"><a xlink:title=" ">
<path fill="none" stroke="#63b8ff" d="M307.98,-184.94C313.85,-186.82 319.58,-189 325,-191.5 343.65,-200.11 342.41,-211.75 361,-220.5 369.2,-224.36 378.17,-227.44 387.2,-229.89"/>
<polygon fill="#63b8ff" stroke="#63b8ff" points="308.59,-181.47 298.01,-182.02 306.63,-188.19 308.59,-181.47"/>
</a>
</g>
</g>
<!-- Node9 -->
<g id="Node000009" class="node">
<title>Node9</title>
<g id="a_Node000009"><a xlink:href="classMema_1_1DataTrafficTypeSelectionMessage.html" target="_top" xlink:title="Sent by a client to opt in to receiving specific message types from Mema.">
<polygon fill="white" stroke="#666666" points="541.5,-211.5 368.5,-211.5 368.5,-181.5 541.5,-181.5 541.5,-211.5"/>
<text text-anchor="start" x="376.5" y="-199.5" font-family="Helvetica,sans-Serif" font-size="10.00">Mema::DataTrafficTypeSelection</text>
<text text-anchor="middle" x="455" y="-188.5" font-family="Helvetica,sans-Serif" font-size="10.00">Message</text>
</a>
</g>
</g>
<!-- Node3&#45;&gt;Node9 -->
<g id="edge84_Node000003_Node000009" class="edge">
<title>Node3&#45;&gt;Node9</title>
<g id="a_edge84_Node000003_Node000009"><a xlink:title=" ">
<path fill="none" stroke="#63b8ff" d="M310.63,-181.51C329.46,-183.48 349.38,-185.56 368.19,-187.53"/>
<polygon fill="#63b8ff" stroke="#63b8ff" points="310.91,-178.02 300.6,-180.46 310.18,-184.98 310.91,-178.02"/>
</a>
</g>
</g>
<!-- Node10 -->
<g id="Node000010" class="node">
<title>Node10</title>
<g id="a_Node000010"><a xlink:href="classMema_1_1EnvironmentParametersMessage.html" target="_top" xlink:title="Carries the active look&#45;and&#45;feel palette style from Mema to connected clients.">
<polygon fill="white" stroke="#666666" points="540.5,-163.5 369.5,-163.5 369.5,-133.5 540.5,-133.5 540.5,-163.5"/>
<text text-anchor="start" x="377.5" y="-151.5" font-family="Helvetica,sans-Serif" font-size="10.00">Mema::EnvironmentParameters</text>
<text text-anchor="middle" x="455" y="-140.5" font-family="Helvetica,sans-Serif" font-size="10.00">Message</text>
</a>
</g>
</g>
<!-- Node3&#45;&gt;Node10 -->
<g id="edge85_Node000003_Node000010" class="edge">
<title>Node3&#45;&gt;Node10</title>
<g id="a_edge85_Node000003_Node000010"><a xlink:title=" ">
<path fill="none" stroke="#63b8ff" d="M310.55,-163.5C329.8,-161.49 350.2,-159.35 369.4,-157.35"/>
<polygon fill="#63b8ff" stroke="#63b8ff" points="310.18,-160.02 300.6,-164.54 310.91,-166.98 310.18,-160.02"/>
</a>
</g>
</g>
<!-- Node11 -->
<g id="Node000011" class="node">
<title>Node11</title>
<g id="a_Node000011"><a xlink:href="classMema_1_1PluginParameterInfosMessage.html" target="_top" xlink:title="Carries the plugin name and complete parameter descriptor list from Mema to Mema.Re clients.">
<polygon fill="white" stroke="#666666" points="534,-115.5 376,-115.5 376,-85.5 534,-85.5 534,-115.5"/>
<text text-anchor="start" x="384" y="-103.5" font-family="Helvetica,sans-Serif" font-size="10.00">Mema::PluginParameterInfos</text>
<text text-anchor="middle" x="455" y="-92.5" font-family="Helvetica,sans-Serif" font-size="10.00">Message</text>
</a>
</g>
</g>
<!-- Node3&#45;&gt;Node11 -->
<g id="edge86_Node000003_Node000011" class="edge">
<title>Node3&#45;&gt;Node11</title>
<g id="a_edge86_Node000003_Node000011"><a xlink:title=" ">
<path fill="none" stroke="#63b8ff" d="M259.23,-159.36C286.66,-149.21 326,-135.15 361,-124.5 371.21,-121.39 382.13,-118.34 392.76,-115.51"/>
<polygon fill="#63b8ff" stroke="#63b8ff" points="257.85,-156.14 249.69,-162.91 260.29,-162.7 257.85,-156.14"/>
</a>
</g>
</g>
<!-- Node12 -->
<g id="Node000012" class="node">
<title>Node12</title>
<g id="a_Node000012"><a xlink:href="classMema_1_1PluginParameterValueMessage.html" target="_top" xlink:title="Carries a single normalised plugin parameter value from Mema.Re to Mema.">
<polygon fill="white" stroke="#666666" points="535.5,-67.5 374.5,-67.5 374.5,-37.5 535.5,-37.5 535.5,-67.5"/>
<text text-anchor="start" x="382.5" y="-55.5" font-family="Helvetica,sans-Serif" font-size="10.00">Mema::PluginParameterValue</text>
<text text-anchor="middle" x="455" y="-44.5" font-family="Helvetica,sans-Serif" font-size="10.00">Message</text>
</a>
</g>
</g>
<!-- Node3&#45;&gt;Node12 -->
<g id="edge87_Node000003_Node000012" class="edge">
<title>Node3&#45;&gt;Node12</title>
<g id="a_edge87_Node000003_Node000012"><a xlink:title=" ">
<path fill="none" stroke="#63b8ff" d="M242.94,-156.21C267.98,-134.9 314.92,-97.79 361,-76.5 368.27,-73.14 376.08,-70.2 383.97,-67.64"/>
<polygon fill="#63b8ff" stroke="#63b8ff" points="240.61,-153.6 235.32,-162.78 245.18,-158.9 240.61,-153.6"/>
</a>
</g>
</g>
<!-- Node13 -->
<g id="Node000013" class="node">
<title>Node13</title>
<g id="a_Node000013"><a xlink:href="classMema_1_1ReinitIOCountMessage.html" target="_top" xlink:title="Instructs clients to tear down and rebuild their UI for a new channel count.">
<polygon fill="white" stroke="#666666" points="537,-19 373,-19 373,0 537,0 537,-19"/>
<text text-anchor="middle" x="455" y="-7" font-family="Helvetica,sans-Serif" font-size="10.00">Mema::ReinitIOCountMessage</text>
</a>
</g>
</g>
<!-- Node3&#45;&gt;Node13 -->
<g id="edge88_Node000003_Node000013" class="edge">
<title>Node3&#45;&gt;Node13</title>
<g id="a_edge88_Node000003_Node000013"><a xlink:title=" ">
<path fill="none" stroke="#63b8ff" d="M236.12,-154.32C257.06,-123.19 304.23,-60.02 361,-28.5 367.92,-24.66 375.51,-21.59 383.28,-19.14"/>
<polygon fill="#63b8ff" stroke="#63b8ff" points="233.07,-152.6 230.49,-162.88 238.91,-156.45 233.07,-152.6"/>
</a>
</g>
</g>
<!-- Node6 -->
<g id="Node000006" class="node">
<title>Node6</title>
<g id="a_Node000006"><a xlink:href="classMema_1_1AudioInputBufferMessage.html" target="_top" xlink:title="Carries a pre&#45;matrix input audio buffer streamed continuously from Mema to subscribed clients.">
<polygon fill="white" stroke="#666666" points="768,-304 589,-304 589,-285 768,-285 768,-304"/>
<text text-anchor="middle" x="678.5" y="-292" font-family="Helvetica,sans-Serif" font-size="10.00">Mema::AudioInputBufferMessage</text>
</a>
</g>
</g>
<!-- Node5&#45;&gt;Node6 -->
<g id="edge81_Node000005_Node000006" class="edge">
<title>Node5&#45;&gt;Node6</title>
<g id="a_edge81_Node000005_Node000006"><a xlink:title=" ">
<path fill="none" stroke="#63b8ff" d="M542.2,-283.5C557.54,-284.75 573.54,-286.05 588.94,-287.3"/>
<polygon fill="#63b8ff" stroke="#63b8ff" points="542.48,-280.02 532.23,-282.69 541.91,-286.99 542.48,-280.02"/>
</a>
</g>
</g>
<!-- Node7 -->
<g id="Node000007" class="node">
<title>Node7</title>
<g id="a_Node000007"><a xlink:href="classMema_1_1AudioOutputBufferMessage.html" target="_top" xlink:title="Carries a post&#45;matrix output audio buffer streamed continuously from Mema to subscribed clients.">
<polygon fill="white" stroke="#666666" points="772,-267 585,-267 585,-248 772,-248 772,-267"/>
<text text-anchor="middle" x="678.5" y="-255" font-family="Helvetica,sans-Serif" font-size="10.00">Mema::AudioOutputBufferMessage</text>
</a>
</g>
</g>
<!-- Node5&#45;&gt;Node7 -->
<g id="edge82_Node000005_Node000007" class="edge">
<title>Node5&#45;&gt;Node7</title>
<g id="a_edge82_Node000005_Node000007"><a xlink:title=" ">
<path fill="none" stroke="#63b8ff" d="M542.25,-269.1C556.16,-267.91 570.62,-266.67 584.68,-265.46"/>
<polygon fill="#63b8ff" stroke="#63b8ff" points="541.89,-265.62 532.23,-269.96 542.49,-272.59 541.89,-265.62"/>
</a>
</g>
</g>
</g>
</svg>
