<?xml version="1.0" encoding="UTF-8" standalone="no"?>
<!DOCTYPE svg PUBLIC "-//W3C//DTD SVG 1.1//EN"
 "http://www.w3.org/Graphics/SVG/1.1/DTD/svg11.dtd">
<!-- Generated by graphviz version 2.43.0 (0)
 -->
<!-- Title: Graphical Class Hierarchy Pages: 1 -->
<svg width="780pt" height="391pt"
 viewBox="0.00 0.00 780.00 390.50" xmlns="http://www.w3.org/2000/svg" xmlns:xlink="http://www.w3.org/1999/xlink">
<g id="graph0" class="graph" transform="scale(1 1) rotate(0) translate(4 386.5)">
<title>Graphical Class Hierarchy</title>
<!-- Node0 -->
<g id="Node000000" class="node">
<title>Node0</title>
<g id="a_Node000000"><a xlink:title=" ">
<polygon fill="#e0e0e0" stroke="#999999" points="86,-249 0,-249 0,-230 86,-230 86,-249"/>
<text text-anchor="middle" x="43" y="-237" font-family="Helvetica,sans-Serif" font-size="10.00">juce::Message</text>
</a>
</g>
</g>
<!-- Node1 -->
<g id="Node000001" class="node">
<title>Node1</title>
<g id="a_Node000001"><a xlink:href="classMema_1_1ADMOSController_1_1ADMOSCParameterChangedMessage.html" target="_top" xlink:title=" ">
<polygon fill="white" stroke="#666666" points="325,-302.5 122,-302.5 122,-272.5 325,-272.5 325,-302.5"/>
<text text-anchor="start" x="130" y="-290.5" font-family="Helvetica,sans-Serif" font-size="10.00">Mema::ADMOSController</text>
<text text-anchor="middle" x="223.5" y="-279.5" font-family="Helvetica,sans-Serif" font-size="10.00">::ADMOSCParameterChangedMessage</text>
</a>
</g>
</g>
<!-- Node0&#45;&gt;Node1 -->
<g id="edge80_Node000000_Node000001" class="edge">
<title>Node0&#45;&gt;Node1</title>
<g id="a_edge80_Node000000_Node000001"><a xlink:title=" ">
<path fill="none" stroke="#63b8ff" d="M83.09,-252.07C95.49,-255.9 109.27,-260.03 122,-263.5 133.25,-266.57 145.26,-269.63 156.93,-272.48"/>
<polygon fill="#63b8ff" stroke="#63b8ff" points="84.09,-248.71 73.5,-249.07 82,-255.39 84.09,-248.71"/>
</a>
</g>
</g>
<!-- Node2 -->
<g id="Node000002" class="node">
<title>Node2</title>
<g id="a_Node000002"><a xlink:href="classMema_1_1PluginParameterInfosChangedMessage.html" target="_top" xlink:title="Internal JUCE message posted to the message thread when plugin parameter descriptors change.">
<polygon fill="white" stroke="#666666" points="302.5,-254.5 144.5,-254.5 144.5,-224.5 302.5,-224.5 302.5,-254.5"/>
<text text-anchor="start" x="152.5" y="-242.5" font-family="Helvetica,sans-Serif" font-size="10.00">Mema::PluginParameterInfos</text>
<text text-anchor="middle" x="223.5" y="-231.5" font-family="Helvetica,sans-Serif" font-size="10.00">ChangedMessage</text>
</a>
</g>
</g>
<!-- Node0&#45;&gt;Node2 -->
<g id="edge81_Node000000_Node000002" class="edge">
<title>Node0&#45;&gt;Node2</title>
<g id="a_edge81_Node000000_Node000002"><a xlink:title=" ">
<path fill="none" stroke="#63b8ff" d="M96.43,-239.5C111.48,-239.5 128.23,-239.5 144.48,-239.5"/>
<polygon fill="#63b8ff" stroke="#63b8ff" points="96.3,-236 86.3,-239.5 96.3,-243 96.3,-236"/>
</a>
</g>
</g>
<!-- Node3 -->
<g id="Node000003" class="node">
<title>Node3</title>
<g id="a_Node000003"><a xlink:href="classMema_1_1SerializableMessage.html" target="_top" xlink:title="Base class for all messages exchanged between Mema, Mema.Mo, and Mema.Re over TCP.">
<polygon fill="white" stroke="#666666" points="300.5,-206 146.5,-206 146.5,-187 300.5,-187 300.5,-206"/>
<text text-anchor="middle" x="223.5" y="-194" font-family="Helvetica,sans-Serif" font-size="10.00">Mema::SerializableMessage</text>
</a>
</g>
</g>
<!-- Node0&#45;&gt;Node3 -->
<g id="edge82_Node000000_Node000003" class="edge">
<title>Node0&#45;&gt;Node3</title>
<g id="a_edge82_Node000000_Node000003"><a xlink:title=" ">
<path fill="none" stroke="#63b8ff" d="M82.06,-226.86C94.68,-222.91 108.87,-218.75 122,-215.5 136.22,-211.98 151.71,-208.76 166.18,-206"/>
<polygon fill="#63b8ff" stroke="#63b8ff" points="80.78,-223.59 72.31,-229.95 82.9,-230.26 80.78,-223.59"/>
</a>
</g>
</g>
<!-- Node4 -->
<g id="Node000004" class="node">
<title>Node4</title>
<g id="a_Node000004"><a xlink:href="classMema_1_1AnalyzerParametersMessage.html" target="_top" xlink:title="Carries audio&#45;device parameters (sample rate, block size) from Mema to clients.">
<polygon fill="white" stroke="#666666" points="531,-382.5 379,-382.5 379,-352.5 531,-352.5 531,-382.5"/>
<text text-anchor="start" x="387" y="-370.5" font-family="Helvetica,sans-Serif" font-size="10.00">Mema::AnalyzerParameters</text>
<text text-anchor="middle" x="455" y="-359.5" font-family="Helvetica,sans-Serif" font-size="10.00">Message</text>
</a>
</g>
</g>
<!-- Node3&#45;&gt;Node4 -->
<g id="edge83_Node000003_Node000004" class="edge">
<title>Node3&#45;&gt;Node4</title>
<g id="a_edge83_Node000003_Node000004"><a xlink:title=" ">
<path fill="none" stroke="#63b8ff" d="M309.98,-205.32C315.43,-208.04 320.51,-211.39 325,-215.5 368.57,-255.42 318.76,-302.17 361,-343.5 366.12,-348.51 372.15,-352.52 378.63,-355.72"/>
<polygon fill="#63b8ff" stroke="#63b8ff" points="311.09,-201.99 300.52,-201.31 308.36,-208.43 311.09,-201.99"/>
</a>
</g>
</g>
<!-- Node5 -->
<g id="Node000005" class="node">
<title>Node5</title>
<g id="a_Node000005"><a xlink:href="classMema_1_1AudioBufferMessage.html" target="_top" xlink:title="Base message carrying a serialised audio buffer and its flow&#45;direction metadata.">
<polygon fill="white" stroke="#666666" points="532,-334 378,-334 378,-315 532,-315 532,-334"/>
<text text-anchor="middle" x="455" y="-322" font-family="Helvetica,sans-Serif" font-size="10.00">Mema::AudioBufferMessage</text>
</a>
</g>
</g>
<!-- Node3&#45;&gt;Node5 -->
<g id="edge84_Node000003_Node000005" class="edge">
<title>Node3&#45;&gt;Node5</title>
<g id="a_edge84_Node000003_Node000005"><a xlink:title=" ">
<path fill="none" stroke="#63b8ff" d="M309.97,-206.09C315.35,-208.64 320.43,-211.74 325,-215.5 358.27,-242.88 327.94,-277.88 361,-305.5 366.06,-309.73 371.81,-313.09 377.91,-315.77"/>
<polygon fill="#63b8ff" stroke="#63b8ff" points="311.24,-202.83 300.66,-202.29 308.6,-209.31 311.24,-202.83"/>
</a>
</g>
</g>
<!-- Node8 -->
<g id="Node000008" class="node">
<title>Node8</title>
<g id="a_Node000008"><a xlink:href="classMema_1_1ControlParametersMessage.html" target="_top" xlink:title="Full routing&#45;matrix state snapshot exchanged bidirectionally between Mema and Mema....">
<polygon fill="white" stroke="#666666" points="549,-297 361,-297 361,-278 549,-278 549,-297"/>
<text text-anchor="middle" x="455" y="-285" font-family="Helvetica,sans-Serif" font-size="10.00">Mema::ControlParametersMessage</text>
</a>
</g>
</g>
<!-- Node3&#45;&gt;Node8 -->
<g id="edge87_Node000003_Node000008" class="edge">
<title>Node3&#45;&gt;Node8</title>
<g id="a_edge87_Node000003_Node000008"><a xlink:title=" ">
<path fill="none" stroke="#63b8ff" d="M310.14,-207.68C315.36,-209.87 320.36,-212.46 325,-215.5 348.81,-231.12 337.3,-252.71 361,-268.5 366.76,-272.34 373.13,-275.43 379.76,-277.91"/>
<polygon fill="#63b8ff" stroke="#63b8ff" points="311.17,-204.33 300.57,-204.15 308.74,-210.9 311.17,-204.33"/>
</a>
</g>
</g>
<!-- Node9 -->
<g id="Node000009" class="node">
<title>Node9</title>
<g id="a_Node000009"><a xlink:href="classMema_1_1DataTrafficTypeSelectionMessage.html" target="_top" xlink:title="Sent by a client to opt in to receiving specific message types from Mema.">
<polygon fill="white" stroke="#666666" points="541.5,-259.5 368.5,-259.5 368.5,-229.5 541.5,-229.5 541.5,-259.5"/>
<text text-anchor="start" x="376.5" y="-247.5" font-family="Helvetica,sans-Serif" font-size="10.00">Mema::DataTrafficTypeSelection</text>
<text text-anchor="middle" x="455" y="-236.5" font-family="Helvetica,sans-Serif" font-size="10.00">Message</text>
</a>
</g>
</g>
<!-- Node3&#45;&gt;Node9 -->
<g id="edge88_Node000003_Node000009" class="edge">
<title>Node3&#45;&gt;Node9</title>
<g id="a_edge88_Node000003_Node000009"><a xlink:title=" ">
<path fill="none" stroke="#63b8ff" d="M286.75,-207.92C299.42,-210.35 312.65,-212.95 325,-215.5 345.91,-219.82 368.65,-224.83 389.13,-229.46"/>
<polygon fill="#63b8ff" stroke="#63b8ff" points="287.21,-204.45 276.73,-206.02 285.9,-211.33 287.21,-204.45"/>
</a>
</g>
</g>
<!-- Node10 -->
<g id="Node000010" class="node">
<title>Node10</title>
<g id="a_Node000010"><a xlink:href="classMema_1_1EnvironmentParametersMessage.html" target="_top" xlink:title="Carries the active look&#45;and&#45;feel palette style from Mema to connected clients.">
<polygon fill="white" stroke="#666666" points="540.5,-211.5 369.5,-211.5 369.5,-181.5 540.5,-181.5 540.5,-211.5"/>
<text text-anchor="start" x="377.5" y="-199.5" font-family="Helvetica,sans-Serif" font-size="10.00">Mema::EnvironmentParameters</text>
<text text-anchor="middle" x="455" y="-188.5" font-family="Helvetica,sans-Serif" font-size="10.00">Message</text>
</a>
</g>
</g>
<!-- Node3&#45;&gt;Node10 -->
<g id="edge89_Node000003_Node000010" class="edge">
<title>Node3&#45;&gt;Node10</title>
<g id="a_edge89_Node000003_Node000010"><a xlink:title=" ">
<path fill="none" stroke="#63b8ff" d="M310.82,-196.5C329.99,-196.5 350.29,-196.5 369.4,-196.5"/>
<polygon fill="#63b8ff" stroke="#63b8ff" points="310.6,-193 300.6,-196.5 310.6,-200 310.6,-193"/>
</a>
</g>
</g>
<!-- Node11 -->
<g id="Node000011" class="node">
<title>Node11</title>
<g id="a_Node000011"><a xlink:href="classMema_1_1PluginParameterInfosMessage.html" target="_top" xlink:title="Carries the plugin name and complete parameter descriptor list from Mema to Mema.Re clients.">
<polygon fill="white" stroke="#666666" points="534,-163.5 376,-163.5 376,-133.5 534,-133.5 534,-163.5"/>
<text text-anchor="start" x="384" y="-151.5" font-family="Helvetica,sans-Serif" font-size="10.00">Mema::PluginParameterInfos</text>
<text text-anchor="middle" x="455" y="-140.5" font-family="Helvetica,sans-Serif" font-size="10.00">Message</text>
</a>
</g>
</g>
<!-- Node3&#45;&gt;Node11 -->
<g id="edge90_Node000003_Node000011" class="edge">
<title>Node3&#45;&gt;Node11</title>
<g id="a_edge90_Node000003_Node000011"><a xlink:title=" ">
<path fill="none" stroke="#63b8ff" d="M280.21,-184.85C310.9,-178.43 349.35,-170.39 382.26,-163.5"/>
<polygon fill="#63b8ff" stroke="#63b8ff" points="279.19,-181.49 270.12,-186.96 280.62,-188.34 279.19,-181.49"/>
</a>
</g>
</g>
<!-- Node12 -->
<g id="Node000012" class="node">
<title>Node12</title>
<g id="a_Node000012"><a xlink:href="classMema_1_1PluginParameterValueMessage.html" target="_top" xlink:title="Carries a single normalised plugin parameter value from Mema.Re to Mema.">
<polygon fill="white" stroke="#666666" points="535.5,-115.5 374.5,-115.5 374.5,-85.5 535.5,-85.5 535.5,-115.5"/>
<text text-anchor="start" x="382.5" y="-103.5" font-family="Helvetica,sans-Serif" font-size="10.00">Mema::PluginParameterValue</text>
<text text-anchor="middle" x="455" y="-92.5" font-family="Helvetica,sans-Serif" font-size="10.00">Message</text>
</a>
</g>
</g>
<!-- Node3&#45;&gt;Node12 -->
<g id="edge91_Node000003_Node000012" class="edge">
<title>Node3&#45;&gt;Node12</title>
<g id="a_edge91_Node000003_Node000012"><a xlink:title=" ">
<path fill="none" stroke="#63b8ff" d="M248.55,-181.6C275.2,-165.62 319.87,-140.4 361,-124.5 369.55,-121.19 378.73,-118.2 387.85,-115.54"/>
<polygon fill="#63b8ff" stroke="#63b8ff" points="246.65,-178.66 239.91,-186.84 250.27,-184.65 246.65,-178.66"/>
</a>
</g>
</g>
<!-- Node13 -->
<g id="Node000013" class="node">
<title>Node13</title>
<g id="a_Node000013"><a xlink:href="classMema_1_1PluginProcessingStateMessage.html" target="_top" xlink:title="Carries the plugin enabled and pre/post insertion state between Mema and Mema.Re.">
<polygon fill="white" stroke="#666666" points="535.5,-67.5 374.5,-67.5 374.5,-37.5 535.5,-37.5 535.5,-67.5"/>
<text text-anchor="start" x="382.5" y="-55.5" font-family="Helvetica,sans-Serif" font-size="10.00">Mema::PluginProcessingState</text>
<text text-anchor="middle" x="455" y="-44.5" font-family="Helvetica,sans-Serif" font-size="10.00">Message</text>
</a>
</g>
</g>
<!-- Node3&#45;&gt;Node13 -->
<g id="edge92_Node000003_Node000013" class="edge">
<title>Node3&#45;&gt;Node13</title>
<g id="a_edge92_Node000003_Node000013"><a xlink:title=" ">
<path fill="none" stroke="#63b8ff" d="M239.3,-179.07C262.52,-152.83 310.17,-103.41 361,-76.5 367.48,-73.07 374.49,-70.11 381.64,-67.55"/>
<polygon fill="#63b8ff" stroke="#63b8ff" points="236.57,-176.87 232.64,-186.71 241.84,-181.47 236.57,-176.87"/>
</a>
</g>
</g>
<!-- Node14 -->
<g id="Node000014" class="node">
<title>Node14</title>
<g id="a_Node000014"><a xlink:href="classMema_1_1ReinitIOCountMessage.html" target="_top" xlink:title="Instructs clients to tear down and rebuild their UI for a new channel count.">
<polygon fill="white" stroke="#666666" points="537,-19 373,-19 373,0 537,0 537,-19"/>
<text text-anchor="middle" x="455" y="-7" font-family="Helvetica,sans-Serif" font-size="10.00">Mema::ReinitIOCountMessage</text>
</a>
</g>
</g>
<!-- Node3&#45;&gt;Node14 -->
<g id="edge93_Node000003_Node000014" class="edge">
<title>Node3&#45;&gt;Node14</title>
<g id="a_edge93_Node000003_Node000014"><a xlink:title=" ">
<path fill="none" stroke="#63b8ff" d="M233.98,-177.79C252.91,-142.46 298.99,-66.09 361,-28.5 367.34,-24.66 374.33,-21.58 381.53,-19.11"/>
<polygon fill="#63b8ff" stroke="#63b8ff" points="230.7,-176.49 229.17,-186.98 236.91,-179.74 230.7,-176.49"/>
</a>
</g>
</g>
<!-- Node6 -->
<g id="Node000006" class="node">
<title>Node6</title>
<g id="a_Node000006"><a xlink:href="classMema_1_1AudioInputBufferMessage.html" target="_top" xlink:title="Carries a pre&#45;matrix input audio buffer streamed continuously from Mema to subscribed clients.">
<polygon fill="white" stroke="#666666" points="768,-352 589,-352 589,-333 768,-333 768,-352"/>
<text text-anchor="middle" x="678.5" y="-340" font-family="Helvetica,sans-Serif" font-size="10.00">Mema::AudioInputBufferMessage</text>
</a>
</g>
</g>
<!-- Node5&#45;&gt;Node6 -->
<g id="edge85_Node000005_Node000006" class="edge">
<title>Node5&#45;&gt;Node6</title>
<g id="a_edge85_Node000005_Node000006"><a xlink:title=" ">
<path fill="none" stroke="#63b8ff" d="M542.2,-331.5C557.54,-332.75 573.54,-334.05 588.94,-335.3"/>
<polygon fill="#63b8ff" stroke="#63b8ff" points="542.48,-328.02 532.23,-330.69 541.91,-334.99 542.48,-328.02"/>
</a>
</g>
</g>
<!-- Node7 -->
<g id="Node000007" class="node">
<title>Node7</title>
<g id="a_Node000007"><a xlink:href="classMema_1_1AudioOutputBufferMessage.html" target="_top" xlink:title="Carries a post&#45;matrix output audio buffer streamed continuously from Mema to subscribed clients.">
<polygon fill="white" stroke="#666666" points="772,-315 585,-315 585,-296 772,-296 772,-315"/>
<text text-anchor="middle" x="678.5" y="-303" font-family="Helvetica,sans-Serif" font-size="10.00">Mema::AudioOutputBufferMessage</text>
</a>
</g>
</g>
<!-- Node5&#45;&gt;Node7 -->
<g id="edge86_Node000005_Node000007" class="edge">
<title>Node5&#45;&gt;Node7</title>
<g id="a_edge86_Node000005_Node000007"><a xlink:title=" ">
<path fill="none" stroke="#63b8ff" d="M542.25,-317.1C556.16,-315.91 570.62,-314.67 584.68,-313.46"/>
<polygon fill="#63b8ff" stroke="#63b8ff" points="541.89,-313.62 532.23,-317.96 542.49,-320.59 541.89,-313.62"/>
</a>
</g>
</g>
</g>
</svg>
