<?xml version="1.0" encoding="UTF-8" standalone="no"?>
<!DOCTYPE svg PUBLIC "-//W3C//DTD SVG 1.1//EN"
 "http://www.w3.org/Graphics/SVG/1.1/DTD/svg11.dtd">
<!-- Generated by graphviz version 2.43.0 (0)
 -->
<!-- Title: Graphical Class Hierarchy Pages: 1 -->
<svg width="390pt" height="101pt"
 viewBox="0.00 0.00 390.00 101.00" xmlns="http://www.w3.org/2000/svg" xmlns:xlink="http://www.w3.org/1999/xlink">
<g id="graph0" class="graph" transform="scale(1 1) rotate(0) translate(4 97)">
<title>Graphical Class Hierarchy</title>
<!-- Node0 -->
<g id="Node000000" class="node">
<title>Node0</title>
<g id="a_Node000000"><a xlink:href="classMema_1_1AbstractProcessorData.html" target="_top" xlink:title="Base class for all data objects exchanged between the audio processor and its analyzers/visualisers.">
<polygon fill="white" stroke="#666666" points="164,-56 0,-56 0,-37 164,-37 164,-56"/>
<text text-anchor="middle" x="82" y="-44" font-family="Helvetica,sans-Serif" font-size="10.00">Mema::AbstractProcessorData</text>
</a>
</g>
</g>
<!-- Node1 -->
<g id="Node000001" class="node">
<title>Node1</title>
<g id="a_Node000001"><a xlink:href="classMema_1_1ProcessorAudioSignalData.html" target="_top" xlink:title=" ">
<polygon fill="white" stroke="#666666" points="382,-93 200,-93 200,-74 382,-74 382,-93"/>
<text text-anchor="middle" x="291" y="-81" font-family="Helvetica,sans-Serif" font-size="10.00">Mema::ProcessorAudioSignalData</text>
</a>
</g>
</g>
<!-- Node0&#45;&gt;Node1 -->
<g id="edge97_Node000000_Node000001" class="edge">
<title>Node0&#45;&gt;Node1</title>
<g id="a_edge97_Node000000_Node000001"><a xlink:title=" ">
<path fill="none" stroke="#63b8ff" d="M146.29,-57.81C175.15,-62.97 208.95,-69.01 236.51,-73.94"/>
<polygon fill="#63b8ff" stroke="#63b8ff" points="146.77,-54.34 136.31,-56.03 145.54,-61.23 146.77,-54.34"/>
</a>
</g>
</g>
<!-- Node3 -->
<g id="Node000003" class="node">
<title>Node3</title>
<g id="a_Node000003"><a xlink:href="classMema_1_1ProcessorLevelData.html" target="_top" xlink:title=" ">
<polygon fill="white" stroke="#666666" points="366,-56 216,-56 216,-37 366,-37 366,-56"/>
<text text-anchor="middle" x="291" y="-44" font-family="Helvetica,sans-Serif" font-size="10.00">Mema::ProcessorLevelData</text>
</a>
</g>
</g>
<!-- Node0&#45;&gt;Node3 -->
<g id="edge98_Node000000_Node000003" class="edge">
<title>Node0&#45;&gt;Node3</title>
<g id="a_edge98_Node000000_Node000003"><a xlink:title=" ">
<path fill="none" stroke="#63b8ff" d="M174.25,-46.5C188.13,-46.5 202.3,-46.5 215.76,-46.5"/>
<polygon fill="#63b8ff" stroke="#63b8ff" points="174.22,-43 164.22,-46.5 174.22,-50 174.22,-43"/>
</a>
</g>
</g>
<!-- Node4 -->
<g id="Node000004" class="node">
<title>Node4</title>
<g id="a_Node000004"><a xlink:href="classMema_1_1ProcessorSpectrumData.html" target="_top" xlink:title=" ">
<polygon fill="white" stroke="#666666" points="376,-19 206,-19 206,0 376,0 376,-19"/>
<text text-anchor="middle" x="291" y="-7" font-family="Helvetica,sans-Serif" font-size="10.00">Mema::ProcessorSpectrumData</text>
</a>
</g>
</g>
<!-- Node0&#45;&gt;Node4 -->
<g id="edge99_Node000000_Node000004" class="edge">
<title>Node0&#45;&gt;Node4</title>
<g id="a_edge99_Node000000_Node000004"><a xlink:title=" ">
<path fill="none" stroke="#63b8ff" d="M146.29,-35.19C175.15,-30.03 208.95,-23.99 236.51,-19.06"/>
<polygon fill="#63b8ff" stroke="#63b8ff" points="145.54,-31.77 136.31,-36.97 146.77,-38.66 145.54,-31.77"/>
</a>
</g>
</g>
<!-- Node2 -->
<g id="Node000002" class="node">
<title>Node2</title>
<g id="a_Node000002"><a xlink:title=" ">
<polygon fill="#e0e0e0" stroke="#999999" points="132,-93 32,-93 32,-74 132,-74 132,-93"/>
<text text-anchor="middle" x="82" y="-81" font-family="Helvetica,sans-Serif" font-size="10.00">juce::AudioBuffer</text>
</a>
</g>
</g>
<!-- Node2&#45;&gt;Node1 -->
<g id="edge100_Node000002_Node000001" class="edge">
<title>Node2&#45;&gt;Node1</title>
<g id="a_edge100_Node000002_Node000001"><a xlink:title=" ">
<path fill="none" stroke="#63b8ff" d="M142.1,-83.5C160.12,-83.5 180.35,-83.5 199.94,-83.5"/>
<polygon fill="#63b8ff" stroke="#63b8ff" points="142.06,-80 132.06,-83.5 142.06,-87 142.06,-80"/>
</a>
</g>
</g>
</g>
</svg>
