<?xml version="1.0" encoding="UTF-8" standalone="no"?>
<!DOCTYPE svg PUBLIC "-//W3C//DTD SVG 1.1//EN"
 "http://www.w3.org/Graphics/SVG/1.1/DTD/svg11.dtd">
<!-- Generated by graphviz version 2.43.0 (0)
 -->
<!-- Title: Source/MemaProcessorEditor/InputControlComponent.cpp Pages: 1 -->
<svg width="1562pt" height="434pt"
 viewBox="0.00 0.00 1562.00 434.00" xmlns="http://www.w3.org/2000/svg" xmlns:xlink="http://www.w3.org/1999/xlink">
<g id="graph0" class="graph" transform="scale(1 1) rotate(0) translate(4 430)">
<title>Source/MemaProcessorEditor/InputControlComponent.cpp</title>
<!-- Node1 -->
<g id="Node000001" class="node">
<title>Node1</title>
<g id="a_Node000001"><a xlink:title=" ">
<polygon fill="#999999" stroke="#666666" points="342.5,-426 183.5,-426 183.5,-396 342.5,-396 342.5,-426"/>
<text text-anchor="start" x="191.5" y="-414" font-family="Helvetica,sans-Serif" font-size="10.00">Source/MemaProcessorEditor</text>
<text text-anchor="middle" x="263" y="-403" font-family="Helvetica,sans-Serif" font-size="10.00">/InputControlComponent.cpp</text>
</a>
</g>
</g>
<!-- Node2 -->
<g id="Node000002" class="node">
<title>Node2</title>
<g id="a_Node000002"><a xlink:href="InputControlComponent_8h.html" target="_top" xlink:title=" ">
<polygon fill="white" stroke="#666666" points="226,-360 84,-360 84,-341 226,-341 226,-360"/>
<text text-anchor="middle" x="155" y="-348" font-family="Helvetica,sans-Serif" font-size="10.00">InputControlComponent.h</text>
</a>
</g>
</g>
<!-- Node1&#45;&gt;Node2 -->
<g id="edge1_Node000001_Node000002" class="edge">
<title>Node1&#45;&gt;Node2</title>
<g id="a_edge1_Node000001_Node000002"><a xlink:title=" ">
<path fill="none" stroke="#63b8ff" d="M237.13,-395.99C219.76,-386.58 196.99,-374.24 179.83,-364.95"/>
<polygon fill="#63b8ff" stroke="#63b8ff" points="181.41,-361.82 170.95,-360.14 178.08,-367.98 181.41,-361.82"/>
</a>
</g>
</g>
<!-- Node4 -->
<g id="Node000004" class="node">
<title>Node4</title>
<g id="a_Node000004"><a xlink:href="AbstractAudioVisualizer_8h.html" target="_top" xlink:title=" ">
<polygon fill="white" stroke="#666666" points="338.5,-305 197.5,-305 197.5,-286 338.5,-286 338.5,-305"/>
<text text-anchor="middle" x="268" y="-293" font-family="Helvetica,sans-Serif" font-size="10.00">AbstractAudioVisualizer.h</text>
</a>
</g>
</g>
<!-- Node1&#45;&gt;Node4 -->
<g id="edge34_Node000001_Node000004" class="edge">
<title>Node1&#45;&gt;Node4</title>
<g id="a_edge34_Node000001_Node000004"><a xlink:title=" ">
<path fill="none" stroke="#63b8ff" d="M263.63,-395.63C264.53,-375.21 266.18,-337.81 267.17,-315.24"/>
<polygon fill="#63b8ff" stroke="#63b8ff" points="270.67,-315.37 267.62,-305.23 263.68,-315.07 270.67,-315.37"/>
</a>
</g>
</g>
<!-- Node20 -->
<g id="Node000020" class="node">
<title>Node20</title>
<g id="a_Node000020"><a xlink:href="MeterbridgeComponent_8h.html" target="_top" xlink:title=" ">
<polygon fill="white" stroke="#666666" points="432.5,-360 291.5,-360 291.5,-341 432.5,-341 432.5,-360"/>
<text text-anchor="middle" x="362" y="-348" font-family="Helvetica,sans-Serif" font-size="10.00">MeterbridgeComponent.h</text>
</a>
</g>
</g>
<!-- Node1&#45;&gt;Node20 -->
<g id="edge35_Node000001_Node000020" class="edge">
<title>Node1&#45;&gt;Node20</title>
<g id="a_edge35_Node000001_Node000020"><a xlink:title=" ">
<path fill="none" stroke="#63b8ff" d="M286.71,-395.99C302.35,-386.75 322.74,-374.7 338.36,-365.47"/>
<polygon fill="#63b8ff" stroke="#63b8ff" points="340.55,-368.24 347.38,-360.14 336.99,-362.21 340.55,-368.24"/>
</a>
</g>
</g>
<!-- Node3 -->
<g id="Node000003" class="node">
<title>Node3</title>
<g id="a_Node000003"><a xlink:title=" ">
<polygon fill="#e0e0e0" stroke="#999999" points="740,-19 660,-19 660,0 740,0 740,-19"/>
<text text-anchor="middle" x="700" y="-7" font-family="Helvetica,sans-Serif" font-size="10.00">JuceHeader.h</text>
</a>
</g>
</g>
<!-- Node2&#45;&gt;Node3 -->
<g id="edge2_Node000002_Node000003" class="edge">
<title>Node2&#45;&gt;Node3</title>
<g id="a_edge2_Node000002_Node000003"><a xlink:title=" ">
<path fill="none" stroke="#63b8ff" d="M117.48,-340.92C71.61,-327.95 0,-298.57 0,-241.5 0,-241.5 0,-241.5 0,-124 0,-58.12 489.38,-23.06 649.77,-13.34"/>
<polygon fill="#63b8ff" stroke="#63b8ff" points="650.08,-16.83 659.85,-12.73 649.66,-9.84 650.08,-16.83"/>
</a>
</g>
</g>
<!-- Node2&#45;&gt;Node4 -->
<g id="edge3_Node000002_Node000004" class="edge">
<title>Node2&#45;&gt;Node4</title>
<g id="a_edge3_Node000002_Node000004"><a xlink:title=" ">
<path fill="none" stroke="#63b8ff" d="M173.16,-340.98C191.25,-332.5 219.28,-319.35 240.19,-309.54"/>
<polygon fill="#63b8ff" stroke="#63b8ff" points="241.95,-312.59 249.51,-305.17 238.97,-306.25 241.95,-312.59"/>
</a>
</g>
</g>
<!-- Node19 -->
<g id="Node000019" class="node">
<title>Node19</title>
<g id="a_Node000019"><a xlink:href="MemaCommanders_8h.html" target="_top" xlink:title=" ">
<polygon fill="white" stroke="#666666" points="240,-195 28,-195 28,-176 240,-176 240,-195"/>
<text text-anchor="middle" x="134" y="-183" font-family="Helvetica,sans-Serif" font-size="10.00">../MemaProcessor/MemaCommanders.h</text>
</a>
</g>
</g>
<!-- Node2&#45;&gt;Node19 -->
<g id="edge31_Node000002_Node000019" class="edge">
<title>Node2&#45;&gt;Node19</title>
<g id="a_edge31_Node000002_Node000019"><a xlink:title=" ">
<path fill="none" stroke="#63b8ff" d="M153.87,-340.74C150.58,-315.2 140.95,-240.43 136.41,-205.23"/>
<polygon fill="#63b8ff" stroke="#63b8ff" points="139.88,-204.78 135.13,-195.31 132.94,-205.67 139.88,-204.78"/>
</a>
</g>
</g>
<!-- Node4&#45;&gt;Node3 -->
<g id="edge4_Node000004_Node000003" class="edge">
<title>Node4&#45;&gt;Node3</title>
<g id="a_edge4_Node000004_Node000003"><a xlink:title=" ">
<path fill="none" stroke="#63b8ff" d="M268,-285.82C268,-267.48 268,-223.44 268,-186.5 268,-186.5 268,-186.5 268,-124 268,-45.89 535.54,-20.43 649.53,-13.12"/>
<polygon fill="#63b8ff" stroke="#63b8ff" points="649.98,-16.6 659.75,-12.49 649.55,-9.62 649.98,-16.6"/>
</a>
</g>
</g>
<!-- Node5 -->
<g id="Node000005" class="node">
<title>Node5</title>
<g id="a_Node000005"><a xlink:href="MemaProcessor_8h.html" target="_top" xlink:title=" ">
<polygon fill="white" stroke="#666666" points="766.5,-250 573.5,-250 573.5,-231 766.5,-231 766.5,-250"/>
<text text-anchor="middle" x="670" y="-238" font-family="Helvetica,sans-Serif" font-size="10.00">../MemaProcessor/MemaProcessor.h</text>
</a>
</g>
</g>
<!-- Node4&#45;&gt;Node5 -->
<g id="edge5_Node000004_Node000005" class="edge">
<title>Node4&#45;&gt;Node5</title>
<g id="a_edge5_Node000004_Node000005"><a xlink:title=" ">
<path fill="none" stroke="#63b8ff" d="M332.59,-285.98C404.28,-276.53 519.8,-261.3 595.32,-251.35"/>
<polygon fill="#63b8ff" stroke="#63b8ff" points="595.78,-254.82 605.24,-250.04 594.87,-247.88 595.78,-254.82"/>
</a>
</g>
</g>
<!-- Node5&#45;&gt;Node3 -->
<g id="edge6_Node000005_Node000003" class="edge">
<title>Node5&#45;&gt;Node3</title>
<g id="a_edge6_Node000005_Node000003"><a xlink:title=" ">
<path fill="none" stroke="#63b8ff" d="M573.4,-236.78C450.36,-229.52 260.89,-203.34 325,-110 361.8,-56.42 556.28,-27.07 649.75,-15.87"/>
<polygon fill="#63b8ff" stroke="#63b8ff" points="650.3,-19.33 659.82,-14.69 649.48,-12.38 650.3,-19.33"/>
</a>
</g>
</g>
<!-- Node6 -->
<g id="Node000006" class="node">
<title>Node6</title>
<g id="a_Node000006"><a xlink:href="MemaMessages_8h.html" target="_top" xlink:title=" ">
<polygon fill="white" stroke="#666666" points="632.5,-195 527.5,-195 527.5,-176 632.5,-176 632.5,-195"/>
<text text-anchor="middle" x="580" y="-183" font-family="Helvetica,sans-Serif" font-size="10.00">MemaMessages.h</text>
</a>
</g>
</g>
<!-- Node5&#45;&gt;Node6 -->
<g id="edge7_Node000005_Node000006" class="edge">
<title>Node5&#45;&gt;Node6</title>
<g id="a_edge7_Node000005_Node000006"><a xlink:title=" ">
<path fill="none" stroke="#63b8ff" d="M655.54,-230.98C641.58,-222.77 620.21,-210.18 603.75,-200.49"/>
<polygon fill="#63b8ff" stroke="#63b8ff" points="605.12,-197.23 594.72,-195.17 601.56,-203.26 605.12,-197.23"/>
</a>
</g>
</g>
<!-- Node8 -->
<g id="Node000008" class="node">
<title>Node8</title>
<g id="a_Node000008"><a xlink:href="MemaPluginParameterInfo_8h.html" target="_top" xlink:title=" ">
<polygon fill="white" stroke="#666666" points="489.5,-134.5 334.5,-134.5 334.5,-115.5 489.5,-115.5 489.5,-134.5"/>
<text text-anchor="middle" x="412" y="-122.5" font-family="Helvetica,sans-Serif" font-size="10.00">MemaPluginParameterInfo.h</text>
</a>
</g>
</g>
<!-- Node5&#45;&gt;Node8 -->
<g id="edge22_Node000005_Node000008" class="edge">
<title>Node5&#45;&gt;Node8</title>
<g id="a_edge22_Node000005_Node000008"><a xlink:title=" ">
<path fill="none" stroke="#63b8ff" d="M629.16,-230.97C597.87,-223.64 554.1,-211.6 518,-195 485.5,-180.06 451.44,-156.2 430.97,-140.81"/>
<polygon fill="#63b8ff" stroke="#63b8ff" points="432.89,-137.88 422.82,-134.6 428.65,-143.45 432.89,-137.88"/>
</a>
</g>
</g>
<!-- Node9 -->
<g id="Node000009" class="node">
<title>Node9</title>
<g id="a_Node000009"><a xlink:href="ProcessorDataAnalyzer_8h.html" target="_top" xlink:title=" ">
<polygon fill="white" stroke="#666666" points="858,-195 720,-195 720,-176 858,-176 858,-195"/>
<text text-anchor="middle" x="789" y="-183" font-family="Helvetica,sans-Serif" font-size="10.00">ProcessorDataAnalyzer.h</text>
</a>
</g>
</g>
<!-- Node5&#45;&gt;Node9 -->
<g id="edge12_Node000005_Node000009" class="edge">
<title>Node5&#45;&gt;Node9</title>
<g id="a_edge12_Node000005_Node000009"><a xlink:title=" ">
<path fill="none" stroke="#63b8ff" d="M689.12,-230.98C708.35,-222.42 738.23,-209.11 760.31,-199.28"/>
<polygon fill="#63b8ff" stroke="#63b8ff" points="761.82,-202.44 769.53,-195.17 758.97,-196.04 761.82,-202.44"/>
</a>
</g>
</g>
<!-- Node14 -->
<g id="Node000014" class="node">
<title>Node14</title>
<g id="a_Node000014"><a xlink:href="MemaProcessorEditor_8h.html" target="_top" xlink:title=" ">
<polygon fill="white" stroke="#666666" points="1336,-140 1202,-140 1202,-110 1336,-110 1336,-140"/>
<text text-anchor="start" x="1210" y="-128" font-family="Helvetica,sans-Serif" font-size="10.00">../MemaProcessorEditor</text>
<text text-anchor="middle" x="1269" y="-117" font-family="Helvetica,sans-Serif" font-size="10.00">/MemaProcessorEditor.h</text>
</a>
</g>
</g>
<!-- Node5&#45;&gt;Node14 -->
<g id="edge23_Node000005_Node000014" class="edge">
<title>Node5&#45;&gt;Node14</title>
<g id="a_edge23_Node000005_Node000014"><a xlink:title=" ">
<path fill="none" stroke="#63b8ff" d="M715.02,-230.97C816.61,-211.72 1064.66,-164.72 1191.51,-140.68"/>
<polygon fill="#63b8ff" stroke="#63b8ff" points="1192.38,-144.08 1201.55,-138.78 1191.07,-137.2 1192.38,-144.08"/>
</a>
</g>
</g>
<!-- Node16 -->
<g id="Node000016" class="node">
<title>Node16</title>
<g id="a_Node000016"><a xlink:href="MemaAppConfiguration_8h.html" target="_top" xlink:title=" ">
<polygon fill="white" stroke="#666666" points="1286.5,-195 1137.5,-195 1137.5,-176 1286.5,-176 1286.5,-195"/>
<text text-anchor="middle" x="1212" y="-183" font-family="Helvetica,sans-Serif" font-size="10.00">../MemaAppConfiguration.h</text>
</a>
</g>
</g>
<!-- Node5&#45;&gt;Node16 -->
<g id="edge27_Node000005_Node000016" class="edge">
<title>Node5&#45;&gt;Node16</title>
<g id="a_edge27_Node000005_Node000016"><a xlink:title=" ">
<path fill="none" stroke="#63b8ff" d="M757.08,-230.98C858.92,-221.03 1026.36,-204.65 1127.2,-194.79"/>
<polygon fill="#63b8ff" stroke="#63b8ff" points="1127.74,-198.26 1137.35,-193.8 1127.06,-191.29 1127.74,-198.26"/>
</a>
</g>
</g>
<!-- Node18 -->
<g id="Node000018" class="node">
<title>Node18</title>
<g id="a_Node000018"><a xlink:title=" ">
<polygon fill="#e0e0e0" stroke="#999999" points="1451.5,-195 1304.5,-195 1304.5,-176 1451.5,-176 1451.5,-195"/>
<text text-anchor="middle" x="1378" y="-183" font-family="Helvetica,sans-Serif" font-size="10.00">ServiceTopologyManager.h</text>
</a>
</g>
</g>
<!-- Node5&#45;&gt;Node18 -->
<g id="edge30_Node000005_Node000018" class="edge">
<title>Node5&#45;&gt;Node18</title>
<g id="a_edge30_Node000005_Node000018"><a xlink:title=" ">
<path fill="none" stroke="#63b8ff" d="M766.7,-233.55C887.49,-225.9 1100.75,-211.71 1294.17,-195.04"/>
<polygon fill="#63b8ff" stroke="#63b8ff" points="1294.58,-198.52 1304.24,-194.17 1293.98,-191.55 1294.58,-198.52"/>
</a>
</g>
</g>
<!-- Node6&#45;&gt;Node3 -->
<g id="edge8_Node000006_Node000003" class="edge">
<title>Node6&#45;&gt;Node3</title>
<g id="a_edge8_Node000006_Node000003"><a xlink:title=" ">
<path fill="none" stroke="#63b8ff" d="M567.51,-175.93C557.13,-167.99 543.12,-155.14 537,-140 532,-127.64 530.48,-121.63 537,-110 563.03,-63.62 620.43,-36.3 659.68,-22.36"/>
<polygon fill="#63b8ff" stroke="#63b8ff" points="660.9,-25.64 669.23,-19.1 658.64,-19.02 660.9,-25.64"/>
</a>
</g>
</g>
<!-- Node7 -->
<g id="Node000007" class="node">
<title>Node7</title>
<g id="a_Node000007"><a xlink:title=" ">
<polygon fill="#e0e0e0" stroke="#999999" points="671.5,-134.5 546.5,-134.5 546.5,-115.5 671.5,-115.5 671.5,-134.5"/>
<text text-anchor="middle" x="609" y="-122.5" font-family="Helvetica,sans-Serif" font-size="10.00">CustomLookAndFeel.h</text>
</a>
</g>
</g>
<!-- Node6&#45;&gt;Node7 -->
<g id="edge9_Node000006_Node000007" class="edge">
<title>Node6&#45;&gt;Node7</title>
<g id="a_edge9_Node000006_Node000007"><a xlink:title=" ">
<path fill="none" stroke="#63b8ff" d="M584.28,-175.87C588.43,-167.49 594.87,-154.51 600.13,-143.89"/>
<polygon fill="#63b8ff" stroke="#63b8ff" points="603.4,-145.18 604.7,-134.67 597.13,-142.07 603.4,-145.18"/>
</a>
</g>
</g>
<!-- Node6&#45;&gt;Node8 -->
<g id="edge10_Node000006_Node000008" class="edge">
<title>Node6&#45;&gt;Node8</title>
<g id="a_edge10_Node000006_Node000008"><a xlink:title=" ">
<path fill="none" stroke="#63b8ff" d="M555.57,-175.99C526.71,-165.94 478.5,-149.16 446,-137.84"/>
<polygon fill="#63b8ff" stroke="#63b8ff" points="447.05,-134.5 436.46,-134.52 444.75,-141.11 447.05,-134.5"/>
</a>
</g>
</g>
<!-- Node8&#45;&gt;Node3 -->
<g id="edge11_Node000008_Node000003" class="edge">
<title>Node8&#45;&gt;Node3</title>
<g id="a_edge11_Node000008_Node000003"><a xlink:title=" ">
<path fill="none" stroke="#63b8ff" d="M420.81,-115.32C436.29,-100.59 469.94,-70.76 504,-55 550.86,-33.32 609.02,-21.83 649.77,-16"/>
<polygon fill="#63b8ff" stroke="#63b8ff" points="650.31,-19.46 659.74,-14.64 649.36,-12.53 650.31,-19.46"/>
</a>
</g>
</g>
<!-- Node9&#45;&gt;Node3 -->
<g id="edge13_Node000009_Node000003" class="edge">
<title>Node9&#45;&gt;Node3</title>
<g id="a_edge13_Node000009_Node000003"><a xlink:title=" ">
<path fill="none" stroke="#63b8ff" d="M766,-175.94C750.16,-168.81 730.04,-157.04 719,-140 696.93,-105.95 696.4,-56.39 698.11,-29.53"/>
<polygon fill="#63b8ff" stroke="#63b8ff" points="701.62,-29.47 698.94,-19.22 694.65,-28.9 701.62,-29.47"/>
</a>
</g>
</g>
<!-- Node10 -->
<g id="Node000010" class="node">
<title>Node10</title>
<g id="a_Node000010"><a xlink:href="ProcessorAudioSignalData_8h.html" target="_top" xlink:title=" ">
<polygon fill="white" stroke="#666666" points="1184,-134.5 1030,-134.5 1030,-115.5 1184,-115.5 1184,-134.5"/>
<text text-anchor="middle" x="1107" y="-122.5" font-family="Helvetica,sans-Serif" font-size="10.00">ProcessorAudioSignalData.h</text>
</a>
</g>
</g>
<!-- Node9&#45;&gt;Node10 -->
<g id="edge14_Node000009_Node000010" class="edge">
<title>Node9&#45;&gt;Node10</title>
<g id="a_edge14_Node000009_Node000010"><a xlink:title=" ">
<path fill="none" stroke="#63b8ff" d="M835.24,-175.99C892.35,-165.49 989.45,-147.62 1050.8,-136.34"/>
<polygon fill="#63b8ff" stroke="#63b8ff" points="1051.5,-139.77 1060.7,-134.52 1050.24,-132.88 1051.5,-139.77"/>
</a>
</g>
</g>
<!-- Node12 -->
<g id="Node000012" class="node">
<title>Node12</title>
<g id="a_Node000012"><a xlink:href="ProcessorLevelData_8h.html" target="_top" xlink:title=" ">
<polygon fill="white" stroke="#666666" points="850,-134.5 728,-134.5 728,-115.5 850,-115.5 850,-134.5"/>
<text text-anchor="middle" x="789" y="-122.5" font-family="Helvetica,sans-Serif" font-size="10.00">ProcessorLevelData.h</text>
</a>
</g>
</g>
<!-- Node9&#45;&gt;Node12 -->
<g id="edge18_Node000009_Node000012" class="edge">
<title>Node9&#45;&gt;Node12</title>
<g id="a_edge18_Node000009_Node000012"><a xlink:title=" ">
<path fill="none" stroke="#63b8ff" d="M789,-175.87C789,-167.75 789,-155.31 789,-144.89"/>
<polygon fill="#63b8ff" stroke="#63b8ff" points="792.5,-144.67 789,-134.67 785.5,-144.67 792.5,-144.67"/>
</a>
</g>
</g>
<!-- Node13 -->
<g id="Node000013" class="node">
<title>Node13</title>
<g id="a_Node000013"><a xlink:href="ProcessorSpectrumData_8h.html" target="_top" xlink:title=" ">
<polygon fill="white" stroke="#666666" points="1011.5,-134.5 868.5,-134.5 868.5,-115.5 1011.5,-115.5 1011.5,-134.5"/>
<text text-anchor="middle" x="940" y="-122.5" font-family="Helvetica,sans-Serif" font-size="10.00">ProcessorSpectrumData.h</text>
</a>
</g>
</g>
<!-- Node9&#45;&gt;Node13 -->
<g id="edge20_Node000009_Node000013" class="edge">
<title>Node9&#45;&gt;Node13</title>
<g id="a_edge20_Node000009_Node000013"><a xlink:title=" ">
<path fill="none" stroke="#63b8ff" d="M810.96,-175.99C836.68,-166.03 879.48,-149.45 908.68,-138.13"/>
<polygon fill="#63b8ff" stroke="#63b8ff" points="909.96,-141.39 918.02,-134.52 907.43,-134.87 909.96,-141.39"/>
</a>
</g>
</g>
<!-- Node10&#45;&gt;Node3 -->
<g id="edge15_Node000010_Node000003" class="edge">
<title>Node10&#45;&gt;Node3</title>
<g id="a_edge15_Node000010_Node000003"><a xlink:title=" ">
<path fill="none" stroke="#63b8ff" d="M1090.55,-115.46C1061.92,-100.95 1000.75,-71.45 946,-55 879.7,-35.08 800.51,-22.7 750.24,-16.21"/>
<polygon fill="#63b8ff" stroke="#63b8ff" points="750.64,-12.73 740.28,-14.95 749.76,-19.68 750.64,-12.73"/>
</a>
</g>
</g>
<!-- Node11 -->
<g id="Node000011" class="node">
<title>Node11</title>
<g id="a_Node000011"><a xlink:href="AbstractProcessorData_8h.html" target="_top" xlink:title=" ">
<polygon fill="white" stroke="#666666" points="937.5,-74 800.5,-74 800.5,-55 937.5,-55 937.5,-74"/>
<text text-anchor="middle" x="869" y="-62" font-family="Helvetica,sans-Serif" font-size="10.00">AbstractProcessorData.h</text>
</a>
</g>
</g>
<!-- Node10&#45;&gt;Node11 -->
<g id="edge16_Node000010_Node000011" class="edge">
<title>Node10&#45;&gt;Node11</title>
<g id="a_edge16_Node000010_Node000011"><a xlink:title=" ">
<path fill="none" stroke="#63b8ff" d="M1072.39,-115.49C1030.44,-105.18 959.66,-87.78 913.64,-76.47"/>
<polygon fill="#63b8ff" stroke="#63b8ff" points="914.2,-73 903.65,-74.02 912.52,-79.8 914.2,-73"/>
</a>
</g>
</g>
<!-- Node11&#45;&gt;Node3 -->
<g id="edge17_Node000011_Node000003" class="edge">
<title>Node11&#45;&gt;Node3</title>
<g id="a_edge17_Node000011_Node000003"><a xlink:title=" ">
<path fill="none" stroke="#63b8ff" d="M841.85,-54.98C813.47,-46.09 768.77,-32.07 737.14,-22.15"/>
<polygon fill="#63b8ff" stroke="#63b8ff" points="737.95,-18.73 727.37,-19.08 735.86,-25.41 737.95,-18.73"/>
</a>
</g>
</g>
<!-- Node12&#45;&gt;Node11 -->
<g id="edge19_Node000012_Node000011" class="edge">
<title>Node12&#45;&gt;Node11</title>
<g id="a_edge19_Node000012_Node000011"><a xlink:title=" ">
<path fill="none" stroke="#63b8ff" d="M800.8,-115.37C813.45,-106.12 833.74,-91.28 848.91,-80.19"/>
<polygon fill="#63b8ff" stroke="#63b8ff" points="851.14,-82.9 857.15,-74.17 847.01,-77.24 851.14,-82.9"/>
</a>
</g>
</g>
<!-- Node13&#45;&gt;Node11 -->
<g id="edge21_Node000013_Node000011" class="edge">
<title>Node13&#45;&gt;Node11</title>
<g id="a_edge21_Node000013_Node000011"><a xlink:title=" ">
<path fill="none" stroke="#63b8ff" d="M929.52,-115.37C918.51,-106.3 900.96,-91.84 887.59,-80.82"/>
<polygon fill="#63b8ff" stroke="#63b8ff" points="889.46,-77.83 879.52,-74.17 885.01,-83.23 889.46,-77.83"/>
</a>
</g>
</g>
<!-- Node14&#45;&gt;Node3 -->
<g id="edge24_Node000014_Node000003" class="edge">
<title>Node14&#45;&gt;Node3</title>
<g id="a_edge24_Node000014_Node000003"><a xlink:title=" ">
<path fill="none" stroke="#63b8ff" d="M1216.95,-109.97C1160.21,-95 1066.61,-71.26 985,-55 903.39,-38.74 807.66,-24.84 750.51,-17.09"/>
<polygon fill="#63b8ff" stroke="#63b8ff" points="750.68,-13.58 740.3,-15.71 749.75,-20.52 750.68,-13.58"/>
</a>
</g>
</g>
<!-- Node15 -->
<g id="Node000015" class="node">
<title>Node15</title>
<g id="a_Node000015"><a xlink:href="AudioSelectComponent_8h.html" target="_top" xlink:title=" ">
<polygon fill="white" stroke="#666666" points="1313,-74 1173,-74 1173,-55 1313,-55 1313,-74"/>
<text text-anchor="middle" x="1243" y="-62" font-family="Helvetica,sans-Serif" font-size="10.00">AudioSelectComponent.h</text>
</a>
</g>
</g>
<!-- Node14&#45;&gt;Node15 -->
<g id="edge25_Node000014_Node000015" class="edge">
<title>Node14&#45;&gt;Node15</title>
<g id="a_edge25_Node000014_Node000015"><a xlink:title=" ">
<path fill="none" stroke="#63b8ff" d="M1262.71,-109.84C1259.2,-101.95 1254.8,-92.05 1251.05,-83.61"/>
<polygon fill="#63b8ff" stroke="#63b8ff" points="1254.16,-81.98 1246.9,-74.27 1247.76,-84.83 1254.16,-81.98"/>
</a>
</g>
</g>
<!-- Node15&#45;&gt;Node3 -->
<g id="edge26_Node000015_Node000003" class="edge">
<title>Node15&#45;&gt;Node3</title>
<g id="a_edge26_Node000015_Node000003"><a xlink:title=" ">
<path fill="none" stroke="#63b8ff" d="M1172.85,-56.65C1061.65,-45.8 847.57,-24.9 750.3,-15.41"/>
<polygon fill="#63b8ff" stroke="#63b8ff" points="750.43,-11.91 740.14,-14.42 749.75,-18.87 750.43,-11.91"/>
</a>
</g>
</g>
<!-- Node16&#45;&gt;Node3 -->
<g id="edge28_Node000016_Node000003" class="edge">
<title>Node16&#45;&gt;Node3</title>
<g id="a_edge28_Node000016_Node000003"><a xlink:title=" ">
<path fill="none" stroke="#63b8ff" d="M1286.57,-176.41C1309,-170.08 1331.27,-159.07 1345,-140 1367.87,-108.24 1353.78,-77.84 1322,-55 1276,-21.95 889.59,-13.2 750.03,-11.1"/>
<polygon fill="#63b8ff" stroke="#63b8ff" points="750.07,-7.6 740.02,-10.96 749.97,-14.6 750.07,-7.6"/>
</a>
</g>
</g>
<!-- Node17 -->
<g id="Node000017" class="node">
<title>Node17</title>
<g id="a_Node000017"><a xlink:title=" ">
<polygon fill="#e0e0e0" stroke="#999999" points="1526,-134.5 1392,-134.5 1392,-115.5 1526,-115.5 1526,-134.5"/>
<text text-anchor="middle" x="1459" y="-122.5" font-family="Helvetica,sans-Serif" font-size="10.00">AppConfigurationBase.h</text>
</a>
</g>
</g>
<!-- Node16&#45;&gt;Node17 -->
<g id="edge29_Node000016_Node000017" class="edge">
<title>Node16&#45;&gt;Node17</title>
<g id="a_edge29_Node000016_Node000017"><a xlink:title=" ">
<path fill="none" stroke="#63b8ff" d="M1247.92,-175.99C1291.64,-165.64 1365.53,-148.14 1413.27,-136.83"/>
<polygon fill="#63b8ff" stroke="#63b8ff" points="1414.12,-140.23 1423.04,-134.52 1412.5,-133.42 1414.12,-140.23"/>
</a>
</g>
</g>
<!-- Node19&#45;&gt;Node3 -->
<g id="edge32_Node000019_Node000003" class="edge">
<title>Node19&#45;&gt;Node3</title>
<g id="a_edge32_Node000019_Node000003"><a xlink:title=" ">
<path fill="none" stroke="#63b8ff" d="M138.85,-175.89C152.96,-151.79 196.64,-83.52 254,-55 322.37,-21 548.04,-12.98 649.64,-11.08"/>
<polygon fill="#63b8ff" stroke="#63b8ff" points="649.72,-14.58 659.66,-10.91 649.6,-7.58 649.72,-14.58"/>
</a>
</g>
</g>
<!-- Node19&#45;&gt;Node8 -->
<g id="edge33_Node000019_Node000008" class="edge">
<title>Node19&#45;&gt;Node8</title>
<g id="a_edge33_Node000019_Node000008"><a xlink:title=" ">
<path fill="none" stroke="#63b8ff" d="M174.42,-175.99C223.94,-165.57 307.84,-147.92 361.54,-136.62"/>
<polygon fill="#63b8ff" stroke="#63b8ff" points="362.46,-140 371.53,-134.52 361.02,-133.15 362.46,-140"/>
</a>
</g>
</g>
<!-- Node20&#45;&gt;Node3 -->
<g id="edge36_Node000020_Node000003" class="edge">
<title>Node20&#45;&gt;Node3</title>
<g id="a_edge36_Node000020_Node000003"><a xlink:title=" ">
<path fill="none" stroke="#63b8ff" d="M432.55,-346.83C688.62,-336.67 1554,-298.16 1554,-241.5 1554,-241.5 1554,-241.5 1554,-124 1554,-42.39 933.22,-17.43 750.2,-11.85"/>
<polygon fill="#63b8ff" stroke="#63b8ff" points="750.14,-8.35 740.04,-11.55 749.94,-15.35 750.14,-8.35"/>
</a>
</g>
</g>
<!-- Node20&#45;&gt;Node4 -->
<g id="edge37_Node000020_Node000004" class="edge">
<title>Node20&#45;&gt;Node4</title>
<g id="a_edge37_Node000020_Node000004"><a xlink:title=" ">
<path fill="none" stroke="#63b8ff" d="M346.9,-340.98C332.18,-332.69 309.58,-319.94 292.33,-310.22"/>
<polygon fill="#63b8ff" stroke="#63b8ff" points="293.81,-307.03 283.38,-305.17 290.37,-313.13 293.81,-307.03"/>
</a>
</g>
</g>
</g>
</svg>
