<?xml version="1.0" encoding="UTF-8" standalone="no"?>
<!DOCTYPE svg PUBLIC "-//W3C//DTD SVG 1.1//EN"
 "http://www.w3.org/Graphics/SVG/1.1/DTD/svg11.dtd">
<!-- Generated by graphviz version 2.43.0 (0)
 -->
<!-- Title: Source/MemaProcessorEditor/InputControlComponent.h Pages: 1 -->
<svg width="1397pt" height="379pt"
 viewBox="0.00 0.00 1396.53 379.00" xmlns="http://www.w3.org/2000/svg" xmlns:xlink="http://www.w3.org/1999/xlink">
<g id="graph0" class="graph" transform="scale(1 1) rotate(0) translate(4 375)">
<title>Source/MemaProcessorEditor/InputControlComponent.h</title>
<!-- Node1 -->
<g id="Node000001" class="node">
<title>Node1</title>
<g id="a_Node000001"><a xlink:title=" ">
<polygon fill="#999999" stroke="#666666" points="516.03,-371 357.03,-371 357.03,-341 516.03,-341 516.03,-371"/>
<text text-anchor="start" x="365.03" y="-359" font-family="Helvetica,sans-Serif" font-size="10.00">Source/MemaProcessorEditor</text>
<text text-anchor="middle" x="436.53" y="-348" font-family="Helvetica,sans-Serif" font-size="10.00">/InputControlComponent.h</text>
</a>
</g>
</g>
<!-- Node2 -->
<g id="Node000002" class="node">
<title>Node2</title>
<g id="a_Node000002"><a xlink:title=" ">
<polygon fill="#e0e0e0" stroke="#999999" points="769.53,-19 689.53,-19 689.53,0 769.53,0 769.53,-19"/>
<text text-anchor="middle" x="729.53" y="-7" font-family="Helvetica,sans-Serif" font-size="10.00">JuceHeader.h</text>
</a>
</g>
</g>
<!-- Node1&#45;&gt;Node2 -->
<g id="edge1_Node000001_Node000002" class="edge">
<title>Node1&#45;&gt;Node2</title>
<g id="a_edge1_Node000001_Node000002"><a xlink:title=" ">
<path fill="none" stroke="#63b8ff" d="M356.87,-347.42C245.44,-334.58 56.53,-303.64 56.53,-241.5 56.53,-241.5 56.53,-241.5 56.53,-124 56.53,-101.45 -42.64,-117.73 210.53,-55 378.69,-13.33 585.8,-9.11 679.41,-9.62"/>
<polygon fill="#63b8ff" stroke="#63b8ff" points="679.42,-13.12 689.45,-9.7 679.47,-6.12 679.42,-13.12"/>
</a>
</g>
</g>
<!-- Node3 -->
<g id="Node000003" class="node">
<title>Node3</title>
<g id="a_Node000003"><a xlink:href="AbstractAudioVisualizer_8h.html" target="_top" xlink:title=" ">
<polygon fill="white" stroke="#666666" points="507.03,-305 366.03,-305 366.03,-286 507.03,-286 507.03,-305"/>
<text text-anchor="middle" x="436.53" y="-293" font-family="Helvetica,sans-Serif" font-size="10.00">AbstractAudioVisualizer.h</text>
</a>
</g>
</g>
<!-- Node1&#45;&gt;Node3 -->
<g id="edge2_Node000001_Node000003" class="edge">
<title>Node1&#45;&gt;Node3</title>
<g id="a_edge2_Node000001_Node000003"><a xlink:title=" ">
<path fill="none" stroke="#63b8ff" d="M436.53,-340.84C436.53,-333.21 436.53,-323.7 436.53,-315.45"/>
<polygon fill="#63b8ff" stroke="#63b8ff" points="440.03,-315.27 436.53,-305.27 433.03,-315.27 440.03,-315.27"/>
</a>
</g>
</g>
<!-- Node18 -->
<g id="Node000018" class="node">
<title>Node18</title>
<g id="a_Node000018"><a xlink:href="MemaCommanders_8h.html" target="_top" xlink:title=" ">
<polygon fill="white" stroke="#666666" points="1388.53,-195 1176.53,-195 1176.53,-176 1388.53,-176 1388.53,-195"/>
<text text-anchor="middle" x="1282.53" y="-183" font-family="Helvetica,sans-Serif" font-size="10.00">../MemaProcessor/MemaCommanders.h</text>
</a>
</g>
</g>
<!-- Node1&#45;&gt;Node18 -->
<g id="edge30_Node000001_Node000018" class="edge">
<title>Node1&#45;&gt;Node18</title>
<g id="a_edge30_Node000001_Node000018"><a xlink:title=" ">
<path fill="none" stroke="#63b8ff" d="M506.84,-341C672.18,-308.06 1082.73,-226.3 1229.39,-197.08"/>
<polygon fill="#63b8ff" stroke="#63b8ff" points="1230.37,-200.46 1239.49,-195.07 1229,-193.59 1230.37,-200.46"/>
</a>
</g>
</g>
<!-- Node3&#45;&gt;Node2 -->
<g id="edge3_Node000003_Node000002" class="edge">
<title>Node3&#45;&gt;Node2</title>
<g id="a_edge3_Node000003_Node000002"><a xlink:title=" ">
<path fill="none" stroke="#63b8ff" d="M365.67,-286.63C265.49,-273.51 94.53,-242.85 94.53,-186.5 94.53,-186.5 94.53,-186.5 94.53,-124 94.53,-76.84 -208.11,-155.82 296.53,-55 433.23,-27.69 597.75,-16.63 679.02,-12.58"/>
<polygon fill="#63b8ff" stroke="#63b8ff" points="679.63,-16.06 689.45,-12.08 679.3,-9.07 679.63,-16.06"/>
</a>
</g>
</g>
<!-- Node4 -->
<g id="Node000004" class="node">
<title>Node4</title>
<g id="a_Node000004"><a xlink:href="MemaProcessor_8h.html" target="_top" xlink:title=" ">
<polygon fill="white" stroke="#666666" points="898.03,-250 705.03,-250 705.03,-231 898.03,-231 898.03,-250"/>
<text text-anchor="middle" x="801.53" y="-238" font-family="Helvetica,sans-Serif" font-size="10.00">../MemaProcessor/MemaProcessor.h</text>
</a>
</g>
</g>
<!-- Node3&#45;&gt;Node4 -->
<g id="edge4_Node000003_Node000004" class="edge">
<title>Node3&#45;&gt;Node4</title>
<g id="a_edge4_Node000003_Node000004"><a xlink:title=" ">
<path fill="none" stroke="#63b8ff" d="M495.17,-285.98C559.87,-276.59 663.87,-261.49 732.46,-251.53"/>
<polygon fill="#63b8ff" stroke="#63b8ff" points="733.34,-254.94 742.73,-250.04 732.33,-248.01 733.34,-254.94"/>
</a>
</g>
</g>
<!-- Node4&#45;&gt;Node2 -->
<g id="edge5_Node000004_Node000002" class="edge">
<title>Node4&#45;&gt;Node2</title>
<g id="a_edge5_Node000004_Node000002"><a xlink:title=" ">
<path fill="none" stroke="#63b8ff" d="M861.53,-230.99C903.17,-223.73 953.43,-211.78 966.53,-195 989.78,-165.22 988.47,-141.45 967.53,-110 925.82,-47.36 836.32,-24.08 779.74,-15.48"/>
<polygon fill="#63b8ff" stroke="#63b8ff" points="779.97,-11.98 769.58,-14.04 778.99,-18.91 779.97,-11.98"/>
</a>
</g>
</g>
<!-- Node5 -->
<g id="Node000005" class="node">
<title>Node5</title>
<g id="a_Node000005"><a xlink:href="MemaMessages_8h.html" target="_top" xlink:title=" ">
<polygon fill="white" stroke="#666666" points="1120.03,-195 1015.03,-195 1015.03,-176 1120.03,-176 1120.03,-195"/>
<text text-anchor="middle" x="1067.53" y="-183" font-family="Helvetica,sans-Serif" font-size="10.00">MemaMessages.h</text>
</a>
</g>
</g>
<!-- Node4&#45;&gt;Node5 -->
<g id="edge6_Node000004_Node000005" class="edge">
<title>Node4&#45;&gt;Node5</title>
<g id="a_edge6_Node000004_Node000005"><a xlink:title=" ">
<path fill="none" stroke="#63b8ff" d="M844.27,-230.98C890.57,-221.76 964.51,-207.03 1014.49,-197.07"/>
<polygon fill="#63b8ff" stroke="#63b8ff" points="1015.34,-200.47 1024.46,-195.08 1013.97,-193.6 1015.34,-200.47"/>
</a>
</g>
</g>
<!-- Node7 -->
<g id="Node000007" class="node">
<title>Node7</title>
<g id="a_Node000007"><a xlink:href="MemaPluginParameterInfo_8h.html" target="_top" xlink:title=" ">
<polygon fill="white" stroke="#666666" points="1351.03,-134.5 1196.03,-134.5 1196.03,-115.5 1351.03,-115.5 1351.03,-134.5"/>
<text text-anchor="middle" x="1273.53" y="-122.5" font-family="Helvetica,sans-Serif" font-size="10.00">MemaPluginParameterInfo.h</text>
</a>
</g>
</g>
<!-- Node4&#45;&gt;Node7 -->
<g id="edge21_Node000004_Node000007" class="edge">
<title>Node4&#45;&gt;Node7</title>
<g id="a_edge21_Node000004_Node000007"><a xlink:title=" ">
<path fill="none" stroke="#63b8ff" d="M898.04,-234.44C964.08,-229.03 1053,-217.89 1128.53,-195 1146.98,-189.41 1150.14,-184.34 1167.53,-176 1194.1,-163.26 1224.53,-148.93 1245.95,-138.89"/>
<polygon fill="#63b8ff" stroke="#63b8ff" points="1247.54,-142.01 1255.11,-134.6 1244.57,-135.67 1247.54,-142.01"/>
</a>
</g>
</g>
<!-- Node8 -->
<g id="Node000008" class="node">
<title>Node8</title>
<g id="a_Node000008"><a xlink:href="ProcessorDataAnalyzer_8h.html" target="_top" xlink:title=" ">
<polygon fill="white" stroke="#666666" points="570.53,-195 432.53,-195 432.53,-176 570.53,-176 570.53,-195"/>
<text text-anchor="middle" x="501.53" y="-183" font-family="Helvetica,sans-Serif" font-size="10.00">ProcessorDataAnalyzer.h</text>
</a>
</g>
</g>
<!-- Node4&#45;&gt;Node8 -->
<g id="edge11_Node000004_Node000008" class="edge">
<title>Node4&#45;&gt;Node8</title>
<g id="a_edge11_Node000004_Node000008"><a xlink:title=" ">
<path fill="none" stroke="#63b8ff" d="M753.33,-230.98C700.78,-221.7 616.68,-206.84 560.3,-196.88"/>
<polygon fill="#63b8ff" stroke="#63b8ff" points="560.57,-193.38 550.11,-195.08 559.35,-200.27 560.57,-193.38"/>
</a>
</g>
</g>
<!-- Node13 -->
<g id="Node000013" class="node">
<title>Node13</title>
<g id="a_Node000013"><a xlink:href="MemaProcessorEditor_8h.html" target="_top" xlink:title=" ">
<polygon fill="white" stroke="#666666" points="768.53,-140 634.53,-140 634.53,-110 768.53,-110 768.53,-140"/>
<text text-anchor="start" x="642.53" y="-128" font-family="Helvetica,sans-Serif" font-size="10.00">../MemaProcessorEditor</text>
<text text-anchor="middle" x="701.53" y="-117" font-family="Helvetica,sans-Serif" font-size="10.00">/MemaProcessorEditor.h</text>
</a>
</g>
</g>
<!-- Node4&#45;&gt;Node13 -->
<g id="edge22_Node000004_Node000013" class="edge">
<title>Node4&#45;&gt;Node13</title>
<g id="a_edge22_Node000004_Node000013"><a xlink:title=" ">
<path fill="none" stroke="#63b8ff" d="M739.4,-230.94C697.47,-223.74 647.51,-211.89 634.53,-195 620.61,-176.88 640.71,-158.42 662.44,-145.16"/>
<polygon fill="#63b8ff" stroke="#63b8ff" points="664.19,-148.19 671.11,-140.16 660.7,-142.12 664.19,-148.19"/>
</a>
</g>
</g>
<!-- Node15 -->
<g id="Node000015" class="node">
<title>Node15</title>
<g id="a_Node000015"><a xlink:href="MemaAppConfiguration_8h.html" target="_top" xlink:title=" ">
<polygon fill="white" stroke="#666666" points="793.03,-195 644.03,-195 644.03,-176 793.03,-176 793.03,-195"/>
<text text-anchor="middle" x="718.53" y="-183" font-family="Helvetica,sans-Serif" font-size="10.00">../MemaAppConfiguration.h</text>
</a>
</g>
</g>
<!-- Node4&#45;&gt;Node15 -->
<g id="edge26_Node000004_Node000015" class="edge">
<title>Node4&#45;&gt;Node15</title>
<g id="a_edge26_Node000004_Node000015"><a xlink:title=" ">
<path fill="none" stroke="#63b8ff" d="M788.2,-230.98C775.44,-222.84 755.98,-210.41 740.86,-200.76"/>
<polygon fill="#63b8ff" stroke="#63b8ff" points="742.42,-197.6 732.11,-195.17 738.65,-203.5 742.42,-197.6"/>
</a>
</g>
</g>
<!-- Node17 -->
<g id="Node000017" class="node">
<title>Node17</title>
<g id="a_Node000017"><a xlink:title=" ">
<polygon fill="#e0e0e0" stroke="#999999" points="958.03,-195 811.03,-195 811.03,-176 958.03,-176 958.03,-195"/>
<text text-anchor="middle" x="884.53" y="-183" font-family="Helvetica,sans-Serif" font-size="10.00">ServiceTopologyManager.h</text>
</a>
</g>
</g>
<!-- Node4&#45;&gt;Node17 -->
<g id="edge29_Node000004_Node000017" class="edge">
<title>Node4&#45;&gt;Node17</title>
<g id="a_edge29_Node000004_Node000017"><a xlink:title=" ">
<path fill="none" stroke="#63b8ff" d="M814.87,-230.98C827.62,-222.84 847.08,-210.41 862.2,-200.76"/>
<polygon fill="#63b8ff" stroke="#63b8ff" points="864.41,-203.5 870.95,-195.17 860.64,-197.6 864.41,-203.5"/>
</a>
</g>
</g>
<!-- Node5&#45;&gt;Node2 -->
<g id="edge7_Node000005_Node000002" class="edge">
<title>Node5&#45;&gt;Node2</title>
<g id="a_edge7_Node000005_Node000002"><a xlink:title=" ">
<path fill="none" stroke="#63b8ff" d="M1062.68,-175.67C1057.78,-166.72 1050.03,-152.45 1043.53,-140 1023.93,-102.48 1034.67,-80.03 1000.53,-55 966.24,-29.86 848.2,-18.15 779.75,-13.36"/>
<polygon fill="#63b8ff" stroke="#63b8ff" points="779.83,-9.86 769.61,-12.68 779.35,-16.84 779.83,-9.86"/>
</a>
</g>
</g>
<!-- Node6 -->
<g id="Node000006" class="node">
<title>Node6</title>
<g id="a_Node000006"><a xlink:title=" ">
<polygon fill="#e0e0e0" stroke="#999999" points="1178.03,-134.5 1053.03,-134.5 1053.03,-115.5 1178.03,-115.5 1178.03,-134.5"/>
<text text-anchor="middle" x="1115.53" y="-122.5" font-family="Helvetica,sans-Serif" font-size="10.00">CustomLookAndFeel.h</text>
</a>
</g>
</g>
<!-- Node5&#45;&gt;Node6 -->
<g id="edge8_Node000005_Node000006" class="edge">
<title>Node5&#45;&gt;Node6</title>
<g id="a_edge8_Node000005_Node000006"><a xlink:title=" ">
<path fill="none" stroke="#63b8ff" d="M1074.61,-175.87C1081.77,-167.14 1093.02,-153.43 1101.92,-142.59"/>
<polygon fill="#63b8ff" stroke="#63b8ff" points="1104.78,-144.62 1108.42,-134.67 1099.37,-140.18 1104.78,-144.62"/>
</a>
</g>
</g>
<!-- Node5&#45;&gt;Node7 -->
<g id="edge9_Node000005_Node000007" class="edge">
<title>Node5&#45;&gt;Node7</title>
<g id="a_edge9_Node000005_Node000007"><a xlink:title=" ">
<path fill="none" stroke="#63b8ff" d="M1097.48,-175.99C1133.49,-165.77 1194.03,-148.58 1233.88,-137.26"/>
<polygon fill="#63b8ff" stroke="#63b8ff" points="1234.88,-140.62 1243.54,-134.52 1232.96,-133.88 1234.88,-140.62"/>
</a>
</g>
</g>
<!-- Node7&#45;&gt;Node2 -->
<g id="edge10_Node000007_Node000002" class="edge">
<title>Node7&#45;&gt;Node2</title>
<g id="a_edge10_Node000007_Node000002"><a xlink:title=" ">
<path fill="none" stroke="#63b8ff" d="M1248.79,-115.47C1206.28,-101.09 1116.43,-71.96 1038.53,-55 948.42,-35.39 841.58,-22.19 780.07,-15.54"/>
<polygon fill="#63b8ff" stroke="#63b8ff" points="780.17,-12.03 769.86,-14.45 779.43,-18.99 780.17,-12.03"/>
</a>
</g>
</g>
<!-- Node8&#45;&gt;Node2 -->
<g id="edge12_Node000008_Node000002" class="edge">
<title>Node8&#45;&gt;Node2</title>
<g id="a_edge12_Node000008_Node000002"><a xlink:title=" ">
<path fill="none" stroke="#63b8ff" d="M533.34,-175.93C552.03,-169.22 574.49,-157.95 587.53,-140 610.03,-109.02 576.87,-84.29 601.53,-55 620.74,-32.18 652.33,-21.05 679.31,-15.62"/>
<polygon fill="#63b8ff" stroke="#63b8ff" points="680.17,-19.03 689.39,-13.81 678.93,-12.14 680.17,-19.03"/>
</a>
</g>
</g>
<!-- Node9 -->
<g id="Node000009" class="node">
<title>Node9</title>
<g id="a_Node000009"><a xlink:href="ProcessorAudioSignalData_8h.html" target="_top" xlink:title=" ">
<polygon fill="white" stroke="#666666" points="578.53,-134.5 424.53,-134.5 424.53,-115.5 578.53,-115.5 578.53,-134.5"/>
<text text-anchor="middle" x="501.53" y="-122.5" font-family="Helvetica,sans-Serif" font-size="10.00">ProcessorAudioSignalData.h</text>
</a>
</g>
</g>
<!-- Node8&#45;&gt;Node9 -->
<g id="edge13_Node000008_Node000009" class="edge">
<title>Node8&#45;&gt;Node9</title>
<g id="a_edge13_Node000008_Node000009"><a xlink:title=" ">
<path fill="none" stroke="#63b8ff" d="M501.53,-175.87C501.53,-167.75 501.53,-155.31 501.53,-144.89"/>
<polygon fill="#63b8ff" stroke="#63b8ff" points="505.03,-144.67 501.53,-134.67 498.03,-144.67 505.03,-144.67"/>
</a>
</g>
</g>
<!-- Node11 -->
<g id="Node000011" class="node">
<title>Node11</title>
<g id="a_Node000011"><a xlink:href="ProcessorLevelData_8h.html" target="_top" xlink:title=" ">
<polygon fill="white" stroke="#666666" points="244.53,-134.5 122.53,-134.5 122.53,-115.5 244.53,-115.5 244.53,-134.5"/>
<text text-anchor="middle" x="183.53" y="-122.5" font-family="Helvetica,sans-Serif" font-size="10.00">ProcessorLevelData.h</text>
</a>
</g>
</g>
<!-- Node8&#45;&gt;Node11 -->
<g id="edge17_Node000008_Node000011" class="edge">
<title>Node8&#45;&gt;Node11</title>
<g id="a_edge17_Node000008_Node000011"><a xlink:title=" ">
<path fill="none" stroke="#63b8ff" d="M452.07,-175.92C401.98,-167.17 322.29,-153.04 253.53,-140 247.68,-138.89 241.56,-137.7 235.48,-136.51"/>
<polygon fill="#63b8ff" stroke="#63b8ff" points="235.82,-133.01 225.33,-134.5 234.46,-139.88 235.82,-133.01"/>
</a>
</g>
</g>
<!-- Node12 -->
<g id="Node000012" class="node">
<title>Node12</title>
<g id="a_Node000012"><a xlink:href="ProcessorSpectrumData_8h.html" target="_top" xlink:title=" ">
<polygon fill="white" stroke="#666666" points="406.03,-134.5 263.03,-134.5 263.03,-115.5 406.03,-115.5 406.03,-134.5"/>
<text text-anchor="middle" x="334.53" y="-122.5" font-family="Helvetica,sans-Serif" font-size="10.00">ProcessorSpectrumData.h</text>
</a>
</g>
</g>
<!-- Node8&#45;&gt;Node12 -->
<g id="edge19_Node000008_Node000012" class="edge">
<title>Node8&#45;&gt;Node12</title>
<g id="a_edge19_Node000008_Node000012"><a xlink:title=" ">
<path fill="none" stroke="#63b8ff" d="M477.25,-175.99C448.55,-165.94 400.64,-149.16 368.33,-137.84"/>
<polygon fill="#63b8ff" stroke="#63b8ff" points="369.44,-134.52 358.84,-134.52 367.12,-141.13 369.44,-134.52"/>
</a>
</g>
</g>
<!-- Node9&#45;&gt;Node2 -->
<g id="edge14_Node000009_Node000002" class="edge">
<title>Node9&#45;&gt;Node2</title>
<g id="a_edge14_Node000009_Node000002"><a xlink:title=" ">
<path fill="none" stroke="#63b8ff" d="M507.48,-115.37C518.05,-100.71 541.52,-71 568.53,-55 602.67,-34.77 646.32,-23.45 679.55,-17.3"/>
<polygon fill="#63b8ff" stroke="#63b8ff" points="680.26,-20.73 689.51,-15.55 679.05,-13.83 680.26,-20.73"/>
</a>
</g>
</g>
<!-- Node10 -->
<g id="Node000010" class="node">
<title>Node10</title>
<g id="a_Node000010"><a xlink:href="AbstractProcessorData_8h.html" target="_top" xlink:title=" ">
<polygon fill="white" stroke="#666666" points="443.03,-74 306.03,-74 306.03,-55 443.03,-55 443.03,-74"/>
<text text-anchor="middle" x="374.53" y="-62" font-family="Helvetica,sans-Serif" font-size="10.00">AbstractProcessorData.h</text>
</a>
</g>
</g>
<!-- Node9&#45;&gt;Node10 -->
<g id="edge15_Node000009_Node000010" class="edge">
<title>Node9&#45;&gt;Node10</title>
<g id="a_edge15_Node000009_Node000010"><a xlink:title=" ">
<path fill="none" stroke="#63b8ff" d="M483.06,-115.49C461.81,-105.7 426.68,-89.52 402.16,-78.23"/>
<polygon fill="#63b8ff" stroke="#63b8ff" points="403.57,-75.02 393.02,-74.02 400.64,-81.38 403.57,-75.02"/>
</a>
</g>
</g>
<!-- Node10&#45;&gt;Node2 -->
<g id="edge16_Node000010_Node000002" class="edge">
<title>Node10&#45;&gt;Node2</title>
<g id="a_edge16_Node000010_Node000002"><a xlink:title=" ">
<path fill="none" stroke="#63b8ff" d="M431.57,-54.98C500.12,-44.75 614.08,-27.74 679.4,-17.98"/>
<polygon fill="#63b8ff" stroke="#63b8ff" points="680.08,-21.42 689.45,-16.48 679.05,-14.5 680.08,-21.42"/>
</a>
</g>
</g>
<!-- Node11&#45;&gt;Node10 -->
<g id="edge18_Node000011_Node000010" class="edge">
<title>Node11&#45;&gt;Node10</title>
<g id="a_edge18_Node000011_Node000010"><a xlink:title=" ">
<path fill="none" stroke="#63b8ff" d="M211.3,-115.49C244.4,-105.36 299.87,-88.37 336.83,-77.05"/>
<polygon fill="#63b8ff" stroke="#63b8ff" points="338.19,-80.29 346.72,-74.02 336.14,-73.6 338.19,-80.29"/>
</a>
</g>
</g>
<!-- Node12&#45;&gt;Node10 -->
<g id="edge20_Node000012_Node000010" class="edge">
<title>Node12&#45;&gt;Node10</title>
<g id="a_edge20_Node000012_Node000010"><a xlink:title=" ">
<path fill="none" stroke="#63b8ff" d="M340.43,-115.37C346.28,-106.81 355.4,-93.47 362.74,-82.74"/>
<polygon fill="#63b8ff" stroke="#63b8ff" points="365.85,-84.4 368.6,-74.17 360.07,-80.45 365.85,-84.4"/>
</a>
</g>
</g>
<!-- Node13&#45;&gt;Node2 -->
<g id="edge23_Node000013_Node000002" class="edge">
<title>Node13&#45;&gt;Node2</title>
<g id="a_edge23_Node000013_Node000002"><a xlink:title=" ">
<path fill="none" stroke="#63b8ff" d="M726.11,-109.99C738.62,-101.38 752.61,-89.11 759.53,-74 766.95,-57.81 756.14,-39.43 745.49,-26.63"/>
<polygon fill="#63b8ff" stroke="#63b8ff" points="748,-24.18 738.71,-19.1 742.8,-28.87 748,-24.18"/>
</a>
</g>
</g>
<!-- Node14 -->
<g id="Node000014" class="node">
<title>Node14</title>
<g id="a_Node000014"><a xlink:href="AudioSelectComponent_8h.html" target="_top" xlink:title=" ">
<polygon fill="white" stroke="#666666" points="750.53,-74 610.53,-74 610.53,-55 750.53,-55 750.53,-74"/>
<text text-anchor="middle" x="680.53" y="-62" font-family="Helvetica,sans-Serif" font-size="10.00">AudioSelectComponent.h</text>
</a>
</g>
</g>
<!-- Node13&#45;&gt;Node14 -->
<g id="edge24_Node000013_Node000014" class="edge">
<title>Node13&#45;&gt;Node14</title>
<g id="a_edge24_Node000013_Node000014"><a xlink:title=" ">
<path fill="none" stroke="#63b8ff" d="M696.45,-109.84C693.65,-102.04 690.14,-92.27 687.13,-83.89"/>
<polygon fill="#63b8ff" stroke="#63b8ff" points="690.35,-82.5 683.68,-74.27 683.76,-84.86 690.35,-82.5"/>
</a>
</g>
</g>
<!-- Node14&#45;&gt;Node2 -->
<g id="edge25_Node000014_Node000002" class="edge">
<title>Node14&#45;&gt;Node2</title>
<g id="a_edge25_Node000014_Node000002"><a xlink:title=" ">
<path fill="none" stroke="#63b8ff" d="M688.62,-54.75C695.69,-47.11 706.12,-35.82 714.68,-26.56"/>
<polygon fill="#63b8ff" stroke="#63b8ff" points="717.37,-28.81 721.59,-19.09 712.23,-24.06 717.37,-28.81"/>
</a>
</g>
</g>
<!-- Node15&#45;&gt;Node2 -->
<g id="edge27_Node000015_Node000002" class="edge">
<title>Node15&#45;&gt;Node2</title>
<g id="a_edge27_Node000015_Node000002"><a xlink:title=" ">
<path fill="none" stroke="#63b8ff" d="M737.8,-175.9C751.65,-168.55 769.29,-156.54 777.53,-140 782.49,-130.05 781.48,-68.34 775.53,-55 770.34,-43.34 760.55,-33.19 751.33,-25.54"/>
<polygon fill="#63b8ff" stroke="#63b8ff" points="753.22,-22.58 743.17,-19.24 748.95,-28.12 753.22,-22.58"/>
</a>
</g>
</g>
<!-- Node16 -->
<g id="Node000016" class="node">
<title>Node16</title>
<g id="a_Node000016"><a xlink:title=" ">
<polygon fill="#e0e0e0" stroke="#999999" points="958.53,-134.5 824.53,-134.5 824.53,-115.5 958.53,-115.5 958.53,-134.5"/>
<text text-anchor="middle" x="891.53" y="-122.5" font-family="Helvetica,sans-Serif" font-size="10.00">AppConfigurationBase.h</text>
</a>
</g>
</g>
<!-- Node15&#45;&gt;Node16 -->
<g id="edge28_Node000015_Node000016" class="edge">
<title>Node15&#45;&gt;Node16</title>
<g id="a_edge28_Node000015_Node000016"><a xlink:title=" ">
<path fill="none" stroke="#63b8ff" d="M743.69,-175.99C773.41,-165.94 823.05,-149.16 856.52,-137.84"/>
<polygon fill="#63b8ff" stroke="#63b8ff" points="857.99,-141.04 866.34,-134.52 855.75,-134.4 857.99,-141.04"/>
</a>
</g>
</g>
<!-- Node18&#45;&gt;Node2 -->
<g id="edge31_Node000018_Node000002" class="edge">
<title>Node18&#45;&gt;Node2</title>
<g id="a_edge31_Node000018_Node000002"><a xlink:title=" ">
<path fill="none" stroke="#63b8ff" d="M1312.03,-175.97C1329.47,-169.24 1350.12,-157.93 1360.53,-140 1367.23,-128.47 1368.97,-120.32 1360.53,-110 1287.47,-20.69 916.3,-10.83 779.9,-10.27"/>
<polygon fill="#63b8ff" stroke="#63b8ff" points="779.74,-6.77 769.73,-10.24 779.72,-13.77 779.74,-6.77"/>
</a>
</g>
</g>
<!-- Node18&#45;&gt;Node7 -->
<g id="edge32_Node000018_Node000007" class="edge">
<title>Node18&#45;&gt;Node7</title>
<g id="a_edge32_Node000018_Node000007"><a xlink:title=" ">
<path fill="none" stroke="#63b8ff" d="M1281.2,-175.87C1279.94,-167.66 1278,-155.04 1276.39,-144.55"/>
<polygon fill="#63b8ff" stroke="#63b8ff" points="1279.84,-144.02 1274.86,-134.67 1272.93,-145.08 1279.84,-144.02"/>
</a>
</g>
</g>
</g>
</svg>
