<?xml version="1.0" encoding="UTF-8" standalone="no"?>
<!DOCTYPE svg PUBLIC "-//W3C//DTD SVG 1.1//EN"
 "http://www.w3.org/Graphics/SVG/1.1/DTD/svg11.dtd">
<!-- Generated by graphviz version 2.43.0 (0)
 -->
<!-- Title: Source/MemaProcessor/MemaPluginParameterInfo.h Pages: 1 -->
<!--zoomable 368 -->

<svg id="main" version="1.1" xmlns="http://www.w3.org/2000/svg" xmlns:xlink="http://www.w3.org/1999/xlink" xml:space="preserve" onload="init(evt)">
<style type="text/css"><![CDATA[
.node, .edge {opacity: 0.7;}
.node.selected, .edge.selected {opacity: 1;}
.edge:hover path { stroke: red; }
.edge:hover polygon { stroke: red; fill: red; }
]]></style>

<defs>
  <circle id="rim" cx="0" cy="0" r="7"/>
  <circle id="rim2" cx="0" cy="0" r="3.5"/>
  <g id="zoomPlus">
    <use xlink:href="#rim" fill="#404040"><set attributeName="fill" to="#808080" begin="zoomplus.mouseover" end="zoomplus.mouseout"/></use>
    <path d="M-4,0h8M0,-4v8" fill="none" stroke="white" stroke-width="1.5" pointer-events="none"/>
  </g>
  <g id="zoomMin">
    <use xlink:href="#rim" fill="#404040"><set attributeName="fill" to="#808080" begin="zoomminus.mouseover" end="zoomminus.mouseout"/></use>
    <path d="M-4,0h8" fill="none" stroke="white" stroke-width="1.5" pointer-events="none"/>
  </g>
  <g id="arrowUp" transform="translate(30 24)">
    <use xlink:href="#rim"/>
    <path pointer-events="none" fill="none" stroke="white" stroke-width="1.5" d="M0,-3.0v7 M-2.5,-0.5L0,-3.0L2.5,-0.5"/>
  </g>
  <g id="arrowRight" transform="rotate(90) translate(36 -43)">
    <use xlink:href="#rim"/>
    <path pointer-events="none" fill="none" stroke="white" stroke-width="1.5" d="M0,-3.0v7 M-2.5,-0.5L0,-3.0L2.5,-0.5"/>
  </g>
  <g id="arrowDown" transform="rotate(180) translate(-30 -48)">
    <use xlink:href="#rim"/>
    <path pointer-events="none" fill="none" stroke="white" stroke-width="1.5" d="M0,-3.0v7 M-2.5,-0.5L0,-3.0L2.5,-0.5"/>
  </g>
  <g id="arrowLeft" transform="rotate(270) translate(-36 17)">
    <use xlink:href="#rim"/>
    <path pointer-events="none" fill="none" stroke="white" stroke-width="1.5" d="M0,-3.0v7 M-2.5,-0.5L0,-3.0L2.5,-0.5"/>
  </g>
  <g id="resetDef">
    <use xlink:href="#rim2" fill="#404040"><set attributeName="fill" to="#808080" begin="reset.mouseover" end="reset.mouseout"/></use>
  </g>
</defs>
<script type="application/ecmascript">
var viewWidth = 2343;
var viewHeight = 368;
var sectionId = 'dynsection-1';
</script>
<script type="application/ecmascript" xlink:href="svg.min.js"/>
<svg id="graph" class="graph">
<g id="viewport">
<title>Source/MemaProcessor/MemaPluginParameterInfo.h</title>
<!-- Node1 -->
<g id="Node000001" class="node">
<title>Node1</title>
<g id="a_Node000001"><a xlink:title=" ">
<polygon fill="#999999" stroke="#666666" points="778,-360 620,-360 620,-330 778,-330 778,-360"/>
<text text-anchor="start" x="628" y="-348" font-family="Helvetica,sans-Serif" font-size="10.00">Source/MemaProcessor</text>
<text text-anchor="middle" x="699" y="-337" font-family="Helvetica,sans-Serif" font-size="10.00">/MemaPluginParameterInfo.h</text>
</a>
</g>
</g>
<!-- Node2 -->
<g id="Node000002" class="node">
<title>Node2</title>
<g id="a_Node000002"><a xlink:href="MemaReComponent_8h.html" target="_top" xlink:title=" ">
<polygon fill="white" stroke="#666666" points="838,-222.5 666,-222.5 666,-203.5 838,-203.5 838,-222.5"/>
<text text-anchor="middle" x="752" y="-210.5" font-family="Helvetica,sans-Serif" font-size="10.00">MemaRe/MemaReComponent.h</text>
</a>
</g>
</g>
<!-- Node1&#45;&gt;Node2 -->
<g id="edge1_Node000001_Node000002" class="edge">
<title>Node1&#45;&gt;Node2</title>
<g id="a_edge1_Node000001_Node000002"><a xlink:title=" ">
<path fill="none" stroke="#63b8ff" d="M716.61,-321.86C722.54,-313.52 728.73,-303.7 733,-294 743.82,-269.44 749,-237.81 750.98,-222.74"/>
<polygon fill="#63b8ff" stroke="#63b8ff" points="713.75,-319.83 710.61,-329.95 719.38,-324 713.75,-319.83"/>
</a>
</g>
</g>
<!-- Node5 -->
<g id="Node000005" class="node">
<title>Node5</title>
<g id="a_Node000005"><a xlink:href="MemaClientCommon_2PluginControlComponent_8h.html" target="_top" xlink:title=" ">
<polygon fill="white" stroke="#666666" points="724,-294 568,-294 568,-264 724,-264 724,-294"/>
<text text-anchor="start" x="576" y="-282" font-family="Helvetica,sans-Serif" font-size="10.00">Source/MemaClientCommon</text>
<text text-anchor="middle" x="646" y="-271" font-family="Helvetica,sans-Serif" font-size="10.00">/PluginControlComponent.h</text>
</a>
</g>
</g>
<!-- Node1&#45;&gt;Node5 -->
<g id="edge4_Node000001_Node000005" class="edge">
<title>Node1&#45;&gt;Node5</title>
<g id="a_edge4_Node000001_Node000005"><a xlink:title=" ">
<path fill="none" stroke="#63b8ff" d="M680.85,-322.09C673.2,-312.85 664.52,-302.36 657.73,-294.16"/>
<polygon fill="#63b8ff" stroke="#63b8ff" points="678.16,-324.33 687.24,-329.8 683.56,-319.86 678.16,-324.33"/>
</a>
</g>
</g>
<!-- Node7 -->
<g id="Node000007" class="node">
<title>Node7</title>
<g id="a_Node000007"><a xlink:href="MemaCommanders_8h.html" target="_top" xlink:title=" ">
<polygon fill="white" stroke="#666666" points="523.5,-162 392.5,-162 392.5,-132 523.5,-132 523.5,-162"/>
<text text-anchor="start" x="400.5" y="-150" font-family="Helvetica,sans-Serif" font-size="10.00">Source/MemaProcessor</text>
<text text-anchor="middle" x="458" y="-139" font-family="Helvetica,sans-Serif" font-size="10.00">/MemaCommanders.h</text>
</a>
</g>
</g>
<!-- Node1&#45;&gt;Node7 -->
<g id="edge7_Node000001_Node000007" class="edge">
<title>Node1&#45;&gt;Node7</title>
<g id="a_edge7_Node000001_Node000007"><a xlink:title=" ">
<path fill="none" stroke="#63b8ff" d="M627.11,-326.98C575.82,-310.73 510.26,-280.68 477,-228 464.04,-207.48 459.92,-178.93 458.61,-162.07"/>
<polygon fill="#63b8ff" stroke="#63b8ff" points="626.25,-330.37 636.84,-329.95 628.3,-323.68 626.25,-330.37"/>
</a>
</g>
</g>
<!-- Node17 -->
<g id="Node000017" class="node">
<title>Node17</title>
<g id="a_Node000017"><a xlink:href="MemaMessages_8h.html" target="_top" xlink:title=" ">
<polygon fill="white" stroke="#666666" points="1070.5,-294 939.5,-294 939.5,-264 1070.5,-264 1070.5,-294"/>
<text text-anchor="start" x="947.5" y="-282" font-family="Helvetica,sans-Serif" font-size="10.00">Source/MemaProcessor</text>
<text text-anchor="middle" x="1005" y="-271" font-family="Helvetica,sans-Serif" font-size="10.00">/MemaMessages.h</text>
</a>
</g>
</g>
<!-- Node1&#45;&gt;Node17 -->
<g id="edge19_Node000001_Node000017" class="edge">
<title>Node1&#45;&gt;Node17</title>
<g id="a_edge19_Node000001_Node000017"><a xlink:title=" ">
<path fill="none" stroke="#63b8ff" d="M776.02,-327.89C826.36,-317.36 891.42,-303.76 939.32,-293.74"/>
<polygon fill="#63b8ff" stroke="#63b8ff" points="775.22,-324.48 766.15,-329.95 776.66,-331.33 775.22,-324.48"/>
</a>
</g>
</g>
<!-- Node20 -->
<g id="Node000020" class="node">
<title>Node20</title>
<g id="a_Node000020"><a xlink:href="MemaProcessor_8h.html" target="_top" xlink:title=" ">
<polygon fill="white" stroke="#666666" points="1247.5,-228 1116.5,-228 1116.5,-198 1247.5,-198 1247.5,-228"/>
<text text-anchor="start" x="1124.5" y="-216" font-family="Helvetica,sans-Serif" font-size="10.00">Source/MemaProcessor</text>
<text text-anchor="middle" x="1182" y="-205" font-family="Helvetica,sans-Serif" font-size="10.00">/MemaProcessor.h</text>
</a>
</g>
</g>
<!-- Node1&#45;&gt;Node20 -->
<g id="edge52_Node000001_Node000020" class="edge">
<title>Node1&#45;&gt;Node20</title>
<g id="a_edge52_Node000001_Node000020"><a xlink:title=" ">
<path fill="none" stroke="#63b8ff" d="M788.31,-337.75C883.99,-330.1 1028.97,-315.44 1080,-294 1116.52,-278.66 1151.03,-246.6 1169.04,-228.06"/>
<polygon fill="#63b8ff" stroke="#63b8ff" points="787.75,-334.29 778.06,-338.56 788.3,-341.26 787.75,-334.29"/>
</a>
</g>
</g>
<!-- Node35 -->
<g id="Node000035" class="node">
<title>Node35</title>
<g id="a_Node000035"><a xlink:href="MemaProcessorEditor_2PluginControlComponent_8h.html" target="_top" xlink:title=" ">
<polygon fill="white" stroke="#666666" points="413.5,-294 254.5,-294 254.5,-264 413.5,-264 413.5,-294"/>
<text text-anchor="start" x="262.5" y="-282" font-family="Helvetica,sans-Serif" font-size="10.00">Source/MemaProcessorEditor</text>
<text text-anchor="middle" x="334" y="-271" font-family="Helvetica,sans-Serif" font-size="10.00">/PluginControlComponent.h</text>
</a>
</g>
</g>
<!-- Node1&#45;&gt;Node35 -->
<g id="edge53_Node000001_Node000035" class="edge">
<title>Node1&#45;&gt;Node35</title>
<g id="a_edge53_Node000001_Node000035"><a xlink:title=" ">
<path fill="none" stroke="#63b8ff" d="M609.59,-328.32C549.67,-317.82 471.46,-304.1 413.67,-293.97"/>
<polygon fill="#63b8ff" stroke="#63b8ff" points="609.35,-331.83 619.8,-330.11 610.56,-324.94 609.35,-331.83"/>
</a>
</g>
</g>
<!-- Node3 -->
<g id="Node000003" class="node">
<title>Node3</title>
<g id="a_Node000003"><a xlink:href="MemaRe_2MainComponent_8cpp.html" target="_top" xlink:title=" ">
<polygon fill="white" stroke="#666666" points="839,-156.5 675,-156.5 675,-137.5 839,-137.5 839,-156.5"/>
<text text-anchor="middle" x="757" y="-144.5" font-family="Helvetica,sans-Serif" font-size="10.00">MemaRe/MainComponent.cpp</text>
</a>
</g>
</g>
<!-- Node2&#45;&gt;Node3 -->
<g id="edge2_Node000002_Node000003" class="edge">
<title>Node2&#45;&gt;Node3</title>
<g id="a_edge2_Node000002_Node000003"><a xlink:title=" ">
<path fill="none" stroke="#63b8ff" d="M753.48,-193.08C754.41,-181.13 755.58,-166.22 756.3,-156.91"/>
<polygon fill="#63b8ff" stroke="#63b8ff" points="749.96,-193.13 752.67,-203.37 756.94,-193.67 749.96,-193.13"/>
</a>
</g>
</g>
<!-- Node4 -->
<g id="Node000004" class="node">
<title>Node4</title>
<g id="a_Node000004"><a xlink:href="MemaReComponent_8cpp.html" target="_top" xlink:title=" ">
<polygon fill="white" stroke="#666666" points="1046.5,-156.5 863.5,-156.5 863.5,-137.5 1046.5,-137.5 1046.5,-156.5"/>
<text text-anchor="middle" x="955" y="-144.5" font-family="Helvetica,sans-Serif" font-size="10.00">MemaRe/MemaReComponent.cpp</text>
</a>
</g>
</g>
<!-- Node2&#45;&gt;Node4 -->
<g id="edge3_Node000002_Node000004" class="edge">
<title>Node2&#45;&gt;Node4</title>
<g id="a_edge3_Node000002_Node000004"><a xlink:title=" ">
<path fill="none" stroke="#63b8ff" d="M789.04,-200.32C829.08,-187.7 891.97,-167.87 927.73,-156.6"/>
<polygon fill="#63b8ff" stroke="#63b8ff" points="787.86,-197.02 779.38,-203.37 789.97,-203.7 787.86,-197.02"/>
</a>
</g>
</g>
<!-- Node5&#45;&gt;Node2 -->
<g id="edge5_Node000005_Node000002" class="edge">
<title>Node5&#45;&gt;Node2</title>
<g id="a_edge5_Node000005_Node000002"><a xlink:title=" ">
<path fill="none" stroke="#63b8ff" d="M678.05,-258.65C698.01,-246.6 722.7,-231.69 737.89,-222.52"/>
<polygon fill="#63b8ff" stroke="#63b8ff" points="676.01,-255.79 669.26,-263.95 679.63,-261.78 676.01,-255.79"/>
</a>
</g>
</g>
<!-- Node6 -->
<g id="Node000006" class="node">
<title>Node6</title>
<g id="a_Node000006"><a xlink:href="MemaClientCommon_2PluginControlComponent_8cpp.html" target="_top" xlink:title=" ">
<polygon fill="white" stroke="#666666" points="647.5,-228 486.5,-228 486.5,-198 647.5,-198 647.5,-228"/>
<text text-anchor="start" x="494.5" y="-216" font-family="Helvetica,sans-Serif" font-size="10.00">Source/MemaClientCommon</text>
<text text-anchor="middle" x="567" y="-205" font-family="Helvetica,sans-Serif" font-size="10.00">/PluginControlComponent.cpp</text>
</a>
</g>
</g>
<!-- Node5&#45;&gt;Node6 -->
<g id="edge6_Node000005_Node000006" class="edge">
<title>Node5&#45;&gt;Node6</title>
<g id="a_edge6_Node000005_Node000006"><a xlink:title=" ">
<path fill="none" stroke="#63b8ff" d="M620.67,-257.48C608.86,-247.91 595.11,-236.77 584.48,-228.16"/>
<polygon fill="#63b8ff" stroke="#63b8ff" points="618.49,-260.22 628.47,-263.8 622.9,-254.78 618.49,-260.22"/>
</a>
</g>
</g>
<!-- Node8 -->
<g id="Node000008" class="node">
<title>Node8</title>
<g id="a_Node000008"><a xlink:href="MemaCommanders_8cpp.html" target="_top" xlink:title=" ">
<polygon fill="white" stroke="#666666" points="374,-96 238,-96 238,-66 374,-66 374,-96"/>
<text text-anchor="start" x="246" y="-84" font-family="Helvetica,sans-Serif" font-size="10.00">Source/MemaProcessor</text>
<text text-anchor="middle" x="306" y="-73" font-family="Helvetica,sans-Serif" font-size="10.00">/MemaCommanders.cpp</text>
</a>
</g>
</g>
<!-- Node7&#45;&gt;Node8 -->
<g id="edge8_Node000007_Node000008" class="edge">
<title>Node7&#45;&gt;Node8</title>
<g id="a_edge8_Node000007_Node000008"><a xlink:title=" ">
<path fill="none" stroke="#63b8ff" d="M415.38,-128.05C391.3,-117.91 361.64,-105.43 339.28,-96.01"/>
<polygon fill="#63b8ff" stroke="#63b8ff" points="414.07,-131.3 424.64,-131.95 416.78,-124.85 414.07,-131.3"/>
</a>
</g>
</g>
<!-- Node9 -->
<g id="Node000009" class="node">
<title>Node9</title>
<g id="a_Node000009"><a xlink:href="MemaProcessor_8cpp.html" target="_top" xlink:title=" ">
<polygon fill="white" stroke="#666666" points="523.5,-96 392.5,-96 392.5,-66 523.5,-66 523.5,-96"/>
<text text-anchor="start" x="400.5" y="-84" font-family="Helvetica,sans-Serif" font-size="10.00">Source/MemaProcessor</text>
<text text-anchor="middle" x="458" y="-73" font-family="Helvetica,sans-Serif" font-size="10.00">/MemaProcessor.cpp</text>
</a>
</g>
</g>
<!-- Node7&#45;&gt;Node9 -->
<g id="edge9_Node000007_Node000009" class="edge">
<title>Node7&#45;&gt;Node9</title>
<g id="a_edge9_Node000007_Node000009"><a xlink:title=" ">
<path fill="none" stroke="#63b8ff" d="M458,-121.54C458,-112.96 458,-103.61 458,-96.16"/>
<polygon fill="#63b8ff" stroke="#63b8ff" points="454.5,-121.8 458,-131.8 461.5,-121.8 454.5,-121.8"/>
</a>
</g>
</g>
<!-- Node10 -->
<g id="Node000010" class="node">
<title>Node10</title>
<g id="a_Node000010"><a xlink:href="CrosspointsControlComponent_8h.html" target="_top" xlink:title=" ">
<polygon fill="white" stroke="#666666" points="182.5,-96 5.5,-96 5.5,-66 182.5,-66 182.5,-96"/>
<text text-anchor="start" x="13.5" y="-84" font-family="Helvetica,sans-Serif" font-size="10.00">Source/MemaProcessorEditor</text>
<text text-anchor="middle" x="94" y="-73" font-family="Helvetica,sans-Serif" font-size="10.00">/CrosspointsControlComponent.h</text>
</a>
</g>
</g>
<!-- Node7&#45;&gt;Node10 -->
<g id="edge10_Node000007_Node000010" class="edge">
<title>Node7&#45;&gt;Node10</title>
<g id="a_edge10_Node000007_Node000010"><a xlink:title=" ">
<path fill="none" stroke="#63b8ff" d="M382.13,-132.66C321.14,-121.94 235.7,-106.91 173.71,-96.01"/>
<polygon fill="#63b8ff" stroke="#63b8ff" points="381.63,-136.13 392.08,-134.41 382.84,-129.23 381.63,-136.13"/>
</a>
</g>
</g>
<!-- Node13 -->
<g id="Node000013" class="node">
<title>Node13</title>
<g id="a_Node000013"><a xlink:href="InputControlComponent_8h.html" target="_top" xlink:title=" ">
<polygon fill="white" stroke="#666666" points="877.5,-96 718.5,-96 718.5,-66 877.5,-66 877.5,-96"/>
<text text-anchor="start" x="726.5" y="-84" font-family="Helvetica,sans-Serif" font-size="10.00">Source/MemaProcessorEditor</text>
<text text-anchor="middle" x="798" y="-73" font-family="Helvetica,sans-Serif" font-size="10.00">/InputControlComponent.h</text>
</a>
</g>
</g>
<!-- Node7&#45;&gt;Node13 -->
<g id="edge13_Node000007_Node000013" class="edge">
<title>Node7&#45;&gt;Node13</title>
<g id="a_edge13_Node000007_Node000013"><a xlink:title=" ">
<path fill="none" stroke="#63b8ff" d="M533.52,-131.79C590.1,-121.13 667.14,-106.63 723.48,-96.03"/>
<polygon fill="#63b8ff" stroke="#63b8ff" points="532.74,-128.37 523.56,-133.66 534.03,-135.25 532.74,-128.37"/>
</a>
</g>
</g>
<!-- Node15 -->
<g id="Node000015" class="node">
<title>Node15</title>
<g id="a_Node000015"><a xlink:href="OutputControlComponent_8h.html" target="_top" xlink:title=" ">
<polygon fill="white" stroke="#666666" points="700.5,-96 541.5,-96 541.5,-66 700.5,-66 700.5,-96"/>
<text text-anchor="start" x="549.5" y="-84" font-family="Helvetica,sans-Serif" font-size="10.00">Source/MemaProcessorEditor</text>
<text text-anchor="middle" x="621" y="-73" font-family="Helvetica,sans-Serif" font-size="10.00">/OutputControlComponent.h</text>
</a>
</g>
</g>
<!-- Node7&#45;&gt;Node15 -->
<g id="edge16_Node000007_Node000015" class="edge">
<title>Node7&#45;&gt;Node15</title>
<g id="a_edge16_Node000007_Node000015"><a xlink:title=" ">
<path fill="none" stroke="#63b8ff" d="M503.36,-128.19C529.25,-118.02 561.23,-105.47 585.31,-96.01"/>
<polygon fill="#63b8ff" stroke="#63b8ff" points="501.8,-125.04 493.77,-131.95 504.36,-131.56 501.8,-125.04"/>
</a>
</g>
</g>
<!-- Node11 -->
<g id="Node000011" class="node">
<title>Node11</title>
<g id="a_Node000011"><a xlink:href="CrosspointsControlComponent_8cpp.html" target="_top" xlink:title=" ">
<polygon fill="white" stroke="#666666" points="188,-30 0,-30 0,0 188,0 188,-30"/>
<text text-anchor="start" x="8" y="-18" font-family="Helvetica,sans-Serif" font-size="10.00">Source/MemaProcessorEditor</text>
<text text-anchor="middle" x="94" y="-7" font-family="Helvetica,sans-Serif" font-size="10.00">/CrosspointsControlComponent.cpp</text>
</a>
</g>
</g>
<!-- Node10&#45;&gt;Node11 -->
<g id="edge11_Node000010_Node000011" class="edge">
<title>Node10&#45;&gt;Node11</title>
<g id="a_edge11_Node000010_Node000011"><a xlink:title=" ">
<path fill="none" stroke="#63b8ff" d="M94,-55.54C94,-46.96 94,-37.61 94,-30.16"/>
<polygon fill="#63b8ff" stroke="#63b8ff" points="90.5,-55.8 94,-65.8 97.5,-55.8 90.5,-55.8"/>
</a>
</g>
</g>
<!-- Node12 -->
<g id="Node000012" class="node">
<title>Node12</title>
<g id="a_Node000012"><a xlink:href="MemaProcessorEditor_8cpp.html" target="_top" xlink:title=" ">
<polygon fill="white" stroke="#666666" points="487.5,-30 328.5,-30 328.5,0 487.5,0 487.5,-30"/>
<text text-anchor="start" x="336.5" y="-18" font-family="Helvetica,sans-Serif" font-size="10.00">Source/MemaProcessorEditor</text>
<text text-anchor="middle" x="408" y="-7" font-family="Helvetica,sans-Serif" font-size="10.00">/MemaProcessorEditor.cpp</text>
</a>
</g>
</g>
<!-- Node10&#45;&gt;Node12 -->
<g id="edge12_Node000010_Node000012" class="edge">
<title>Node10&#45;&gt;Node12</title>
<g id="a_edge12_Node000010_Node000012"><a xlink:title=" ">
<path fill="none" stroke="#63b8ff" d="M172.94,-63.91C224.15,-53.47 290.21,-40.01 339.25,-30.01"/>
<polygon fill="#63b8ff" stroke="#63b8ff" points="172.01,-60.53 162.91,-65.95 173.41,-67.39 172.01,-60.53"/>
</a>
</g>
</g>
<!-- Node13&#45;&gt;Node12 -->
<g id="edge15_Node000013_Node000012" class="edge">
<title>Node13&#45;&gt;Node12</title>
<g id="a_edge15_Node000013_Node000012"><a xlink:title=" ">
<path fill="none" stroke="#63b8ff" d="M708.08,-65.24C641.55,-54.33 551.74,-39.59 487.76,-29.09"/>
<polygon fill="#63b8ff" stroke="#63b8ff" points="707.7,-68.73 718.14,-66.89 708.84,-61.82 707.7,-68.73"/>
</a>
</g>
</g>
<!-- Node14 -->
<g id="Node000014" class="node">
<title>Node14</title>
<g id="a_Node000014"><a xlink:href="InputControlComponent_8cpp.html" target="_top" xlink:title=" ">
<polygon fill="white" stroke="#666666" points="960.5,-30 801.5,-30 801.5,0 960.5,0 960.5,-30"/>
<text text-anchor="start" x="809.5" y="-18" font-family="Helvetica,sans-Serif" font-size="10.00">Source/MemaProcessorEditor</text>
<text text-anchor="middle" x="881" y="-7" font-family="Helvetica,sans-Serif" font-size="10.00">/InputControlComponent.cpp</text>
</a>
</g>
</g>
<!-- Node13&#45;&gt;Node14 -->
<g id="edge14_Node000013_Node000014" class="edge">
<title>Node13&#45;&gt;Node14</title>
<g id="a_edge14_Node000013_Node000014"><a xlink:title=" ">
<path fill="none" stroke="#63b8ff" d="M824.61,-59.48C837.02,-49.91 851.47,-38.77 862.63,-30.16"/>
<polygon fill="#63b8ff" stroke="#63b8ff" points="822.2,-56.92 816.42,-65.8 826.48,-62.46 822.2,-56.92"/>
</a>
</g>
</g>
<!-- Node15&#45;&gt;Node12 -->
<g id="edge17_Node000015_Node000012" class="edge">
<title>Node15&#45;&gt;Node12</title>
<g id="a_edge17_Node000015_Node000012"><a xlink:title=" ">
<path fill="none" stroke="#63b8ff" d="M564.39,-62.99C530.11,-52.69 486.93,-39.72 454.63,-30.01"/>
<polygon fill="#63b8ff" stroke="#63b8ff" points="563.67,-66.43 574.26,-65.95 565.69,-59.73 563.67,-66.43"/>
</a>
</g>
</g>
<!-- Node16 -->
<g id="Node000016" class="node">
<title>Node16</title>
<g id="a_Node000016"><a xlink:href="OutputControlComponent_8cpp.html" target="_top" xlink:title=" ">
<polygon fill="white" stroke="#666666" points="783,-30 619,-30 619,0 783,0 783,-30"/>
<text text-anchor="start" x="627" y="-18" font-family="Helvetica,sans-Serif" font-size="10.00">Source/MemaProcessorEditor</text>
<text text-anchor="middle" x="701" y="-7" font-family="Helvetica,sans-Serif" font-size="10.00">/OutputControlComponent.cpp</text>
</a>
</g>
</g>
<!-- Node15&#45;&gt;Node16 -->
<g id="edge18_Node000015_Node000016" class="edge">
<title>Node15&#45;&gt;Node16</title>
<g id="a_edge18_Node000015_Node000016"><a xlink:title=" ">
<path fill="none" stroke="#63b8ff" d="M646.65,-59.48C658.61,-49.91 672.53,-38.77 683.3,-30.16"/>
<polygon fill="#63b8ff" stroke="#63b8ff" points="644.38,-56.82 638.75,-65.8 648.75,-62.28 644.38,-56.82"/>
</a>
</g>
</g>
<!-- Node17&#45;&gt;Node3 -->
<g id="edge22_Node000017_Node000003" class="edge">
<title>Node17&#45;&gt;Node3</title>
<g id="a_edge22_Node000017_Node000003"><a xlink:title=" ">
<path fill="none" stroke="#63b8ff" d="M954.2,-260.38C932.25,-251.88 906.69,-240.76 885,-228 866.45,-217.09 864.91,-209.93 847,-198 822.75,-181.85 792.9,-165.99 774.4,-156.61"/>
<polygon fill="#63b8ff" stroke="#63b8ff" points="953.09,-263.71 963.68,-263.98 955.57,-257.16 953.09,-263.71"/>
</a>
</g>
</g>
<!-- Node17&#45;&gt;Node4 -->
<g id="edge23_Node000017_Node000004" class="edge">
<title>Node17&#45;&gt;Node4</title>
<g id="a_edge23_Node000017_Node000004"><a xlink:title=" ">
<path fill="none" stroke="#63b8ff" d="M1041.39,-258.37C1052.32,-250.49 1062.99,-240.32 1069,-228 1074.85,-216.02 1076.29,-209.16 1069,-198 1054.52,-175.84 1027.79,-163.44 1003.86,-156.53"/>
<polygon fill="#63b8ff" stroke="#63b8ff" points="1039.41,-255.48 1033.05,-263.95 1043.31,-261.3 1039.41,-255.48"/>
</a>
</g>
</g>
<!-- Node18 -->
<g id="Node000018" class="node">
<title>Node18</title>
<g id="a_Node000018"><a xlink:href="MemaMo_2MainComponent_8cpp.html" target="_top" xlink:title=" ">
<polygon fill="white" stroke="#666666" points="1060,-222.5 894,-222.5 894,-203.5 1060,-203.5 1060,-222.5"/>
<text text-anchor="middle" x="977" y="-210.5" font-family="Helvetica,sans-Serif" font-size="10.00">MemaMo/MainComponent.cpp</text>
</a>
</g>
</g>
<!-- Node17&#45;&gt;Node18 -->
<g id="edge20_Node000017_Node000018" class="edge">
<title>Node17&#45;&gt;Node18</title>
<g id="a_edge20_Node000017_Node000018"><a xlink:title=" ">
<path fill="none" stroke="#63b8ff" d="M994.77,-254.61C989.93,-243.56 984.45,-231.03 980.87,-222.84"/>
<polygon fill="#63b8ff" stroke="#63b8ff" points="991.57,-256.04 998.79,-263.8 997.98,-253.23 991.57,-256.04"/>
</a>
</g>
</g>
<!-- Node19 -->
<g id="Node000019" class="node">
<title>Node19</title>
<g id="a_Node000019"><a xlink:href="MemaMoComponent_8cpp.html" target="_top" xlink:title=" ">
<polygon fill="white" stroke="#666666" points="1739,-24.5 1551,-24.5 1551,-5.5 1739,-5.5 1739,-24.5"/>
<text text-anchor="middle" x="1645" y="-12.5" font-family="Helvetica,sans-Serif" font-size="10.00">MemaMo/MemaMoComponent.cpp</text>
</a>
</g>
</g>
<!-- Node17&#45;&gt;Node19 -->
<g id="edge21_Node000017_Node000019" class="edge">
<title>Node17&#45;&gt;Node19</title>
<g id="a_edge21_Node000017_Node000019"><a xlink:title=" ">
<path fill="none" stroke="#63b8ff" d="M1080.64,-272.51C1195.41,-262.14 1418.71,-233.83 1594,-162 1643.28,-141.81 1668.76,-142.89 1694,-96 1700.32,-84.26 1699.04,-78.34 1694,-66 1686.74,-48.22 1669.78,-33.34 1657.85,-24.56"/>
<polygon fill="#63b8ff" stroke="#63b8ff" points="1080.2,-269.04 1070.55,-273.41 1080.82,-276.01 1080.2,-269.04"/>
</a>
</g>
</g>
<!-- Node17&#45;&gt;Node20 -->
<g id="edge24_Node000017_Node000020" class="edge">
<title>Node17&#45;&gt;Node20</title>
<g id="a_edge24_Node000017_Node000020"><a xlink:title=" ">
<path fill="none" stroke="#63b8ff" d="M1053.52,-260.46C1081.76,-250.25 1116.87,-237.55 1143.25,-228.01"/>
<polygon fill="#63b8ff" stroke="#63b8ff" points="1052.06,-257.26 1043.84,-263.95 1054.44,-263.85 1052.06,-257.26"/>
</a>
</g>
</g>
<!-- Node20&#45;&gt;Node4 -->
<g id="edge26_Node000020_Node000004" class="edge">
<title>Node20&#45;&gt;Node4</title>
<g id="a_edge26_Node000020_Node000004"><a xlink:title=" ">
<path fill="none" stroke="#63b8ff" d="M1122.44,-195.21C1078.34,-182.78 1020.1,-166.35 985.21,-156.52"/>
<polygon fill="#63b8ff" stroke="#63b8ff" points="1121.61,-198.61 1132.18,-197.95 1123.51,-191.87 1121.61,-198.61"/>
</a>
</g>
</g>
<!-- Node20&#45;&gt;Node9 -->
<g id="edge28_Node000020_Node000009" class="edge">
<title>Node20&#45;&gt;Node9</title>
<g id="a_edge28_Node000020_Node000009"><a xlink:title=" ">
<path fill="none" stroke="#63b8ff" d="M1145.66,-192.97C1129.5,-184.1 1110.45,-173.07 1094,-162 1076.15,-149.98 1076.07,-139.75 1056,-132 947.32,-90.03 648.56,-110.71 533,-96 529.98,-95.62 526.89,-95.19 523.78,-94.73"/>
<polygon fill="#63b8ff" stroke="#63b8ff" points="1144.34,-196.24 1154.79,-197.93 1147.67,-190.08 1144.34,-196.24"/>
</a>
</g>
</g>
<!-- Node20&#45;&gt;Node19 -->
<g id="edge25_Node000020_Node000019" class="edge">
<title>Node20&#45;&gt;Node19</title>
<g id="a_edge25_Node000020_Node000019"><a xlink:title=" ">
<path fill="none" stroke="#63b8ff" d="M1258.02,-205.53C1383.78,-193.07 1626.42,-161.03 1678,-96 1695.83,-73.52 1668.69,-40.05 1653.75,-24.51"/>
<polygon fill="#63b8ff" stroke="#63b8ff" points="1257.31,-202.08 1247.7,-206.53 1257.99,-209.04 1257.31,-202.08"/>
</a>
</g>
</g>
<!-- Node21 -->
<g id="Node000021" class="node">
<title>Node21</title>
<g id="a_Node000021"><a xlink:href="Mema_8cpp.html" target="_top" xlink:title=" ">
<polygon fill="white" stroke="#666666" points="1384,-156.5 1280,-156.5 1280,-137.5 1384,-137.5 1384,-156.5"/>
<text text-anchor="middle" x="1332" y="-144.5" font-family="Helvetica,sans-Serif" font-size="10.00">Source/Mema.cpp</text>
</a>
</g>
</g>
<!-- Node20&#45;&gt;Node21 -->
<g id="edge27_Node000020_Node000021" class="edge">
<title>Node20&#45;&gt;Node21</title>
<g id="a_edge27_Node000020_Node000021"><a xlink:title=" ">
<path fill="none" stroke="#63b8ff" d="M1224.33,-193.94C1253.06,-181.68 1289.76,-166.02 1312.04,-156.52"/>
<polygon fill="#63b8ff" stroke="#63b8ff" points="1222.74,-190.81 1214.92,-197.95 1225.49,-197.25 1222.74,-190.81"/>
</a>
</g>
</g>
<!-- Node22 -->
<g id="Node000022" class="node">
<title>Node22</title>
<g id="a_Node000022"><a xlink:href="AbstractAudioVisualizer_8h.html" target="_top" xlink:title=" ">
<polygon fill="white" stroke="#666666" points="1261.5,-162 1102.5,-162 1102.5,-132 1261.5,-132 1261.5,-162"/>
<text text-anchor="start" x="1110.5" y="-150" font-family="Helvetica,sans-Serif" font-size="10.00">Source/MemaProcessorEditor</text>
<text text-anchor="middle" x="1182" y="-139" font-family="Helvetica,sans-Serif" font-size="10.00">/AbstractAudioVisualizer.h</text>
</a>
</g>
</g>
<!-- Node20&#45;&gt;Node22 -->
<g id="edge29_Node000020_Node000022" class="edge">
<title>Node20&#45;&gt;Node22</title>
<g id="a_edge29_Node000020_Node000022"><a xlink:title=" ">
<path fill="none" stroke="#63b8ff" d="M1182,-187.54C1182,-178.96 1182,-169.61 1182,-162.16"/>
<polygon fill="#63b8ff" stroke="#63b8ff" points="1178.5,-187.8 1182,-197.8 1185.5,-187.8 1178.5,-187.8"/>
</a>
</g>
</g>
<!-- Node22&#45;&gt;Node13 -->
<g id="edge44_Node000022_Node000013" class="edge">
<title>Node22&#45;&gt;Node13</title>
<g id="a_edge44_Node000022_Node000013"><a xlink:title=" ">
<path fill="none" stroke="#63b8ff" d="M1092.21,-131.03C1027.27,-120.21 940.31,-105.72 877.79,-95.3"/>
<polygon fill="#63b8ff" stroke="#63b8ff" points="1092,-134.55 1102.43,-132.74 1093.15,-127.64 1092,-134.55"/>
</a>
</g>
</g>
<!-- Node22&#45;&gt;Node14 -->
<g id="edge43_Node000022_Node000014" class="edge">
<title>Node22&#45;&gt;Node14</title>
<g id="a_edge43_Node000022_Node000014"><a xlink:title=" ">
<path fill="none" stroke="#63b8ff" d="M1092.25,-130.75C1041.8,-121.18 984.54,-108.35 962,-96 931.84,-79.47 905.26,-48.45 891.32,-30.28"/>
<polygon fill="#63b8ff" stroke="#63b8ff" points="1091.76,-134.22 1102.23,-132.62 1093.05,-127.34 1091.76,-134.22"/>
</a>
</g>
</g>
<!-- Node22&#45;&gt;Node15 -->
<g id="edge51_Node000022_Node000015" class="edge">
<title>Node22&#45;&gt;Node15</title>
<g id="a_edge51_Node000022_Node000015"><a xlink:title=" ">
<path fill="none" stroke="#63b8ff" d="M1092.3,-132.41C1091.19,-132.27 1090.09,-132.13 1089,-132 921.06,-111.4 877.87,-117.16 710,-96 706.9,-95.61 703.73,-95.19 700.54,-94.76"/>
<polygon fill="#63b8ff" stroke="#63b8ff" points="1092.02,-135.9 1102.39,-133.72 1092.92,-128.96 1092.02,-135.9"/>
</a>
</g>
</g>
<!-- Node22&#45;&gt;Node16 -->
<g id="edge50_Node000022_Node000016" class="edge">
<title>Node22&#45;&gt;Node16</title>
<g id="a_edge50_Node000022_Node000016"><a xlink:title=" ">
<path fill="none" stroke="#63b8ff" d="M1092.26,-131.34C1022.67,-119.57 935.52,-103.75 920,-96 902.27,-87.14 904.39,-75.51 887,-66 855.16,-48.6 816.9,-36.97 783.38,-29.34"/>
<polygon fill="#63b8ff" stroke="#63b8ff" points="1091.95,-134.84 1102.39,-133.05 1093.11,-127.94 1091.95,-134.84"/>
</a>
</g>
</g>
<!-- Node23 -->
<g id="Node000023" class="node">
<title>Node23</title>
<g id="a_Node000023"><a xlink:href="SpectrumAudioComponent_8h.html" target="_top" xlink:title=" ">
<polygon fill="white" stroke="#666666" points="1306.5,-96 1147.5,-96 1147.5,-66 1306.5,-66 1306.5,-96"/>
<text text-anchor="start" x="1155.5" y="-84" font-family="Helvetica,sans-Serif" font-size="10.00">Source/MemaClientCommon</text>
<text text-anchor="middle" x="1227" y="-73" font-family="Helvetica,sans-Serif" font-size="10.00">/SpectrumAudioComponent.h</text>
</a>
</g>
</g>
<!-- Node22&#45;&gt;Node23 -->
<g id="edge30_Node000022_Node000023" class="edge">
<title>Node22&#45;&gt;Node23</title>
<g id="a_edge30_Node000022_Node000023"><a xlink:title=" ">
<path fill="none" stroke="#63b8ff" d="M1197.8,-123.53C1204.2,-114.43 1211.39,-104.19 1217.04,-96.16"/>
<polygon fill="#63b8ff" stroke="#63b8ff" points="1194.88,-121.6 1191.99,-131.8 1200.6,-125.63 1194.88,-121.6"/>
</a>
</g>
</g>
<!-- Node25 -->
<g id="Node000025" class="node">
<title>Node25</title>
<g id="a_Node000025"><a xlink:href="TwoDFieldMultisliderComponent_8h.html" target="_top" xlink:title=" ">
<polygon fill="white" stroke="#666666" points="2141,-96 1955,-96 1955,-66 2141,-66 2141,-96"/>
<text text-anchor="start" x="1963" y="-84" font-family="Helvetica,sans-Serif" font-size="10.00">Source/MemaClientCommon</text>
<text text-anchor="middle" x="2048" y="-73" font-family="Helvetica,sans-Serif" font-size="10.00">/TwoDFieldMultisliderComponent.h</text>
</a>
</g>
</g>
<!-- Node22&#45;&gt;Node25 -->
<g id="edge33_Node000022_Node000025" class="edge">
<title>Node22&#45;&gt;Node25</title>
<g id="a_edge33_Node000022_Node000025"><a xlink:title=" ">
<path fill="none" stroke="#63b8ff" d="M1271.66,-132.02C1566.64,-101.47 1643.92,-121.89 1935,-96 1941.5,-95.42 1948.2,-94.76 1954.94,-94.05"/>
<polygon fill="#63b8ff" stroke="#63b8ff" points="1271.1,-128.56 1261.52,-133.08 1271.83,-135.52 1271.1,-128.56"/>
</a>
</g>
</g>
<!-- Node28 -->
<g id="Node000028" class="node">
<title>Node28</title>
<g id="a_Node000028"><a xlink:href="TwoDFieldOutputComponent_8h.html" target="_top" xlink:title=" ">
<polygon fill="white" stroke="#666666" points="1668.5,-96 1501.5,-96 1501.5,-66 1668.5,-66 1668.5,-96"/>
<text text-anchor="start" x="1509.5" y="-84" font-family="Helvetica,sans-Serif" font-size="10.00">Source/MemaClientCommon</text>
<text text-anchor="middle" x="1585" y="-73" font-family="Helvetica,sans-Serif" font-size="10.00">/TwoDFieldOutputComponent.h</text>
</a>
</g>
</g>
<!-- Node22&#45;&gt;Node28 -->
<g id="edge36_Node000022_Node000028" class="edge">
<title>Node22&#45;&gt;Node28</title>
<g id="a_edge36_Node000022_Node000028"><a xlink:title=" ">
<path fill="none" stroke="#63b8ff" d="M1271.56,-131.78C1340.21,-120.87 1434.26,-105.94 1501.38,-95.28"/>
<polygon fill="#63b8ff" stroke="#63b8ff" points="1270.95,-128.33 1261.62,-133.36 1272.05,-135.24 1270.95,-128.33"/>
</a>
</g>
</g>
<!-- Node30 -->
<g id="Node000030" class="node">
<title>Node30</title>
<g id="a_Node000030"><a xlink:href="WaveformAudioComponent_8h.html" target="_top" xlink:title=" ">
<polygon fill="white" stroke="#666666" points="1925.5,-96 1762.5,-96 1762.5,-66 1925.5,-66 1925.5,-96"/>
<text text-anchor="start" x="1770.5" y="-84" font-family="Helvetica,sans-Serif" font-size="10.00">Source/MemaClientCommon</text>
<text text-anchor="middle" x="1844" y="-73" font-family="Helvetica,sans-Serif" font-size="10.00">/WaveformAudioComponent.h</text>
</a>
</g>
</g>
<!-- Node22&#45;&gt;Node30 -->
<g id="edge39_Node000022_Node000030" class="edge">
<title>Node22&#45;&gt;Node30</title>
<g id="a_edge39_Node000022_Node000030"><a xlink:title=" ">
<path fill="none" stroke="#63b8ff" d="M1271.79,-132.09C1336.04,-125.54 1619.8,-101.17 1762.21,-88.99"/>
<polygon fill="#63b8ff" stroke="#63b8ff" points="1271.1,-128.65 1261.54,-133.21 1271.86,-135.61 1271.1,-128.65"/>
</a>
</g>
</g>
<!-- Node32 -->
<g id="Node000032" class="node">
<title>Node32</title>
<g id="a_Node000032"><a xlink:href="AbstractAudioVisualizer_8cpp.html" target="_top" xlink:title=" ">
<polygon fill="white" stroke="#666666" points="1483.5,-96 1324.5,-96 1324.5,-66 1483.5,-66 1483.5,-96"/>
<text text-anchor="start" x="1332.5" y="-84" font-family="Helvetica,sans-Serif" font-size="10.00">Source/MemaProcessorEditor</text>
<text text-anchor="middle" x="1404" y="-73" font-family="Helvetica,sans-Serif" font-size="10.00">/AbstractAudioVisualizer.cpp</text>
</a>
</g>
</g>
<!-- Node22&#45;&gt;Node32 -->
<g id="edge42_Node000022_Node000032" class="edge">
<title>Node22&#45;&gt;Node32</title>
<g id="a_edge42_Node000022_Node000032"><a xlink:title=" ">
<path fill="none" stroke="#63b8ff" d="M1240.55,-129.12C1276.34,-118.8 1321.59,-105.76 1355.39,-96.01"/>
<polygon fill="#63b8ff" stroke="#63b8ff" points="1239.36,-125.82 1230.72,-131.95 1241.3,-132.55 1239.36,-125.82"/>
</a>
</g>
</g>
<!-- Node33 -->
<g id="Node000033" class="node">
<title>Node33</title>
<g id="a_Node000033"><a xlink:href="MeterbridgeComponent_8h.html" target="_top" xlink:title=" ">
<polygon fill="white" stroke="#666666" points="1129.5,-96 970.5,-96 970.5,-66 1129.5,-66 1129.5,-96"/>
<text text-anchor="start" x="978.5" y="-84" font-family="Helvetica,sans-Serif" font-size="10.00">Source/MemaProcessorEditor</text>
<text text-anchor="middle" x="1050" y="-73" font-family="Helvetica,sans-Serif" font-size="10.00">/MeterbridgeComponent.h</text>
</a>
</g>
</g>
<!-- Node22&#45;&gt;Node33 -->
<g id="edge45_Node000022_Node000033" class="edge">
<title>Node22&#45;&gt;Node33</title>
<g id="a_edge45_Node000022_Node000033"><a xlink:title=" ">
<path fill="none" stroke="#63b8ff" d="M1143.87,-127.51C1123.16,-117.47 1097.97,-105.26 1078.9,-96.01"/>
<polygon fill="#63b8ff" stroke="#63b8ff" points="1142.51,-130.74 1153.03,-131.95 1145.56,-124.44 1142.51,-130.74"/>
</a>
</g>
</g>
<!-- Node23&#45;&gt;Node19 -->
<g id="edge31_Node000023_Node000019" class="edge">
<title>Node23&#45;&gt;Node19</title>
<g id="a_edge31_Node000023_Node000019"><a xlink:title=" ">
<path fill="none" stroke="#63b8ff" d="M1316.73,-65.89C1418.61,-50.16 1524.75,-34.1 1588.22,-24.54"/>
<polygon fill="#63b8ff" stroke="#63b8ff" points="1315.92,-62.48 1306.57,-67.46 1316.99,-69.39 1315.92,-62.48"/>
</a>
</g>
</g>
<!-- Node24 -->
<g id="Node000024" class="node">
<title>Node24</title>
<g id="a_Node000024"><a xlink:href="SpectrumAudioComponent_8cpp.html" target="_top" xlink:title=" ">
<polygon fill="white" stroke="#666666" points="1326,-30 1156,-30 1156,0 1326,0 1326,-30"/>
<text text-anchor="start" x="1164" y="-18" font-family="Helvetica,sans-Serif" font-size="10.00">Source/MemaClientCommon</text>
<text text-anchor="middle" x="1241" y="-7" font-family="Helvetica,sans-Serif" font-size="10.00">/SpectrumAudioComponent.cpp</text>
</a>
</g>
</g>
<!-- Node23&#45;&gt;Node24 -->
<g id="edge32_Node000023_Node000024" class="edge">
<title>Node23&#45;&gt;Node24</title>
<g id="a_edge32_Node000023_Node000024"><a xlink:title=" ">
<path fill="none" stroke="#63b8ff" d="M1232.29,-55.83C1234.18,-47.17 1236.25,-37.7 1237.9,-30.16"/>
<polygon fill="#63b8ff" stroke="#63b8ff" points="1228.82,-55.28 1230.11,-65.8 1235.66,-56.78 1228.82,-55.28"/>
</a>
</g>
</g>
<!-- Node26 -->
<g id="Node000026" class="node">
<title>Node26</title>
<g id="a_Node000026"><a xlink:href="PanningControlComponent_8cpp.html" target="_top" xlink:title=" ">
<polygon fill="white" stroke="#666666" points="2335,-30 2165,-30 2165,0 2335,0 2335,-30"/>
<text text-anchor="start" x="2173" y="-18" font-family="Helvetica,sans-Serif" font-size="10.00">Source/MemaClientCommon</text>
<text text-anchor="middle" x="2250" y="-7" font-family="Helvetica,sans-Serif" font-size="10.00">/PanningControlComponent.cpp</text>
</a>
</g>
</g>
<!-- Node25&#45;&gt;Node26 -->
<g id="edge34_Node000025_Node000026" class="edge">
<title>Node25&#45;&gt;Node26</title>
<g id="a_edge34_Node000025_Node000026"><a xlink:title=" ">
<path fill="none" stroke="#63b8ff" d="M2102.11,-62.86C2134.55,-52.58 2175.27,-39.68 2205.77,-30.01"/>
<polygon fill="#63b8ff" stroke="#63b8ff" points="2100.81,-59.6 2092.33,-65.95 2102.92,-66.27 2100.81,-59.6"/>
</a>
</g>
</g>
<!-- Node27 -->
<g id="Node000027" class="node">
<title>Node27</title>
<g id="a_Node000027"><a xlink:href="TwoDFieldMultisliderComponent_8cpp.html" target="_top" xlink:title=" ">
<polygon fill="white" stroke="#666666" points="2146.5,-30 1949.5,-30 1949.5,0 2146.5,0 2146.5,-30"/>
<text text-anchor="start" x="1957.5" y="-18" font-family="Helvetica,sans-Serif" font-size="10.00">Source/MemaClientCommon</text>
<text text-anchor="middle" x="2048" y="-7" font-family="Helvetica,sans-Serif" font-size="10.00">/TwoDFieldMultisliderComponent.cpp</text>
</a>
</g>
</g>
<!-- Node25&#45;&gt;Node27 -->
<g id="edge35_Node000025_Node000027" class="edge">
<title>Node25&#45;&gt;Node27</title>
<g id="a_edge35_Node000025_Node000027"><a xlink:title=" ">
<path fill="none" stroke="#63b8ff" d="M2048,-55.54C2048,-46.96 2048,-37.61 2048,-30.16"/>
<polygon fill="#63b8ff" stroke="#63b8ff" points="2044.5,-55.8 2048,-65.8 2051.5,-55.8 2044.5,-55.8"/>
</a>
</g>
</g>
<!-- Node28&#45;&gt;Node19 -->
<g id="edge37_Node000028_Node000019" class="edge">
<title>Node28&#45;&gt;Node19</title>
<g id="a_edge37_Node000028_Node000019"><a xlink:title=" ">
<path fill="none" stroke="#63b8ff" d="M1605.37,-58.27C1616.09,-46.84 1628.65,-33.44 1636.71,-24.84"/>
<polygon fill="#63b8ff" stroke="#63b8ff" points="1602.6,-56.11 1598.32,-65.8 1607.71,-60.89 1602.6,-56.11"/>
</a>
</g>
</g>
<!-- Node29 -->
<g id="Node000029" class="node">
<title>Node29</title>
<g id="a_Node000029"><a xlink:href="TwoDFieldOutputComponent_8cpp.html" target="_top" xlink:title=" ">
<polygon fill="white" stroke="#666666" points="1532.5,-30 1353.5,-30 1353.5,0 1532.5,0 1532.5,-30"/>
<text text-anchor="start" x="1361.5" y="-18" font-family="Helvetica,sans-Serif" font-size="10.00">Source/MemaClientCommon</text>
<text text-anchor="middle" x="1443" y="-7" font-family="Helvetica,sans-Serif" font-size="10.00">/TwoDFieldOutputComponent.cpp</text>
</a>
</g>
</g>
<!-- Node28&#45;&gt;Node29 -->
<g id="edge38_Node000028_Node000029" class="edge">
<title>Node28&#45;&gt;Node29</title>
<g id="a_edge38_Node000028_Node000029"><a xlink:title=" ">
<path fill="none" stroke="#63b8ff" d="M1544.58,-61.78C1522.2,-51.69 1494.79,-39.34 1474.09,-30.01"/>
<polygon fill="#63b8ff" stroke="#63b8ff" points="1543.28,-65.04 1553.84,-65.95 1546.16,-58.65 1543.28,-65.04"/>
</a>
</g>
</g>
<!-- Node30&#45;&gt;Node19 -->
<g id="edge40_Node000030_Node000019" class="edge">
<title>Node30&#45;&gt;Node19</title>
<g id="a_edge40_Node000030_Node000019"><a xlink:title=" ">
<path fill="none" stroke="#63b8ff" d="M1790.81,-62.89C1752.27,-50.5 1701.81,-34.27 1671.48,-24.52"/>
<polygon fill="#63b8ff" stroke="#63b8ff" points="1789.74,-66.23 1800.33,-65.95 1791.88,-59.56 1789.74,-66.23"/>
</a>
</g>
</g>
<!-- Node31 -->
<g id="Node000031" class="node">
<title>Node31</title>
<g id="a_Node000031"><a xlink:href="WaveformAudioComponent_8cpp.html" target="_top" xlink:title=" ">
<polygon fill="white" stroke="#666666" points="1931,-30 1757,-30 1757,0 1931,0 1931,-30"/>
<text text-anchor="start" x="1765" y="-18" font-family="Helvetica,sans-Serif" font-size="10.00">Source/MemaClientCommon</text>
<text text-anchor="middle" x="1844" y="-7" font-family="Helvetica,sans-Serif" font-size="10.00">/WaveformAudioComponent.cpp</text>
</a>
</g>
</g>
<!-- Node30&#45;&gt;Node31 -->
<g id="edge41_Node000030_Node000031" class="edge">
<title>Node30&#45;&gt;Node31</title>
<g id="a_edge41_Node000030_Node000031"><a xlink:title=" ">
<path fill="none" stroke="#63b8ff" d="M1844,-55.54C1844,-46.96 1844,-37.61 1844,-30.16"/>
<polygon fill="#63b8ff" stroke="#63b8ff" points="1840.5,-55.8 1844,-65.8 1847.5,-55.8 1840.5,-55.8"/>
</a>
</g>
</g>
<!-- Node33&#45;&gt;Node14 -->
<g id="edge47_Node000033_Node000014" class="edge">
<title>Node33&#45;&gt;Node14</title>
<g id="a_edge47_Node000033_Node000014"><a xlink:title=" ">
<path fill="none" stroke="#63b8ff" d="M1003.32,-62.32C976.42,-52.14 943.08,-39.51 918,-30.01"/>
<polygon fill="#63b8ff" stroke="#63b8ff" points="1002.32,-65.69 1012.91,-65.95 1004.8,-59.14 1002.32,-65.69"/>
</a>
</g>
</g>
<!-- Node33&#45;&gt;Node16 -->
<g id="edge49_Node000033_Node000016" class="edge">
<title>Node33&#45;&gt;Node16</title>
<g id="a_edge49_Node000033_Node000016"><a xlink:title=" ">
<path fill="none" stroke="#63b8ff" d="M963.32,-64.11C906.27,-53.64 832.26,-40.07 777.41,-30.01"/>
<polygon fill="#63b8ff" stroke="#63b8ff" points="962.94,-67.59 973.41,-65.95 964.21,-60.71 962.94,-67.59"/>
</a>
</g>
</g>
<!-- Node33&#45;&gt;Node19 -->
<g id="edge46_Node000033_Node000019" class="edge">
<title>Node33&#45;&gt;Node19</title>
<g id="a_edge46_Node000033_Node000019"><a xlink:title=" ">
<path fill="none" stroke="#63b8ff" d="M1139.59,-65.99C1319.17,-44.23 1366.53,-49.75 1542,-30 1556.17,-28.41 1571.4,-26.46 1585.69,-24.54"/>
<polygon fill="#63b8ff" stroke="#63b8ff" points="1139.04,-62.53 1129.54,-67.22 1139.89,-69.48 1139.04,-62.53"/>
</a>
</g>
</g>
<!-- Node34 -->
<g id="Node000034" class="node">
<title>Node34</title>
<g id="a_Node000034"><a xlink:href="MeterbridgeComponent_8cpp.html" target="_top" xlink:title=" ">
<polygon fill="white" stroke="#666666" points="1137.5,-30 978.5,-30 978.5,0 1137.5,0 1137.5,-30"/>
<text text-anchor="start" x="986.5" y="-18" font-family="Helvetica,sans-Serif" font-size="10.00">Source/MemaProcessorEditor</text>
<text text-anchor="middle" x="1058" y="-7" font-family="Helvetica,sans-Serif" font-size="10.00">/MeterbridgeComponent.cpp</text>
</a>
</g>
</g>
<!-- Node33&#45;&gt;Node34 -->
<g id="edge48_Node000033_Node000034" class="edge">
<title>Node33&#45;&gt;Node34</title>
<g id="a_edge48_Node000033_Node000034"><a xlink:title=" ">
<path fill="none" stroke="#63b8ff" d="M1053.02,-55.83C1054.1,-47.17 1055.29,-37.7 1056.23,-30.16"/>
<polygon fill="#63b8ff" stroke="#63b8ff" points="1049.54,-55.44 1051.78,-65.8 1056.49,-56.31 1049.54,-55.44"/>
</a>
</g>
</g>
<!-- Node35&#45;&gt;Node12 -->
<g id="edge54_Node000035_Node000012" class="edge">
<title>Node35&#45;&gt;Node12</title>
<g id="a_edge54_Node000035_Node000012"><a xlink:title=" ">
<path fill="none" stroke="#63b8ff" d="M281.31,-259.34C267.03,-251.77 253.03,-241.54 244,-228 203.87,-167.85 185.29,-123.6 229,-66 241.53,-49.49 286.58,-36.95 328.35,-28.56"/>
<polygon fill="#63b8ff" stroke="#63b8ff" points="280.17,-262.68 290.69,-263.93 283.25,-256.39 280.17,-262.68"/>
</a>
</g>
</g>
<!-- Node36 -->
<g id="Node000036" class="node">
<title>Node36</title>
<g id="a_Node000036"><a xlink:href="MemaProcessorEditor_2PluginControlComponent_8cpp.html" target="_top" xlink:title=" ">
<polygon fill="white" stroke="#666666" points="414.5,-228 253.5,-228 253.5,-198 414.5,-198 414.5,-228"/>
<text text-anchor="start" x="261.5" y="-216" font-family="Helvetica,sans-Serif" font-size="10.00">Source/MemaProcessorEditor</text>
<text text-anchor="middle" x="334" y="-205" font-family="Helvetica,sans-Serif" font-size="10.00">/PluginControlComponent.cpp</text>
</a>
</g>
</g>
<!-- Node35&#45;&gt;Node36 -->
<g id="edge55_Node000035_Node000036" class="edge">
<title>Node35&#45;&gt;Node36</title>
<g id="a_edge55_Node000035_Node000036"><a xlink:title=" ">
<path fill="none" stroke="#63b8ff" d="M334,-253.54C334,-244.96 334,-235.61 334,-228.16"/>
<polygon fill="#63b8ff" stroke="#63b8ff" points="330.5,-253.8 334,-263.8 337.5,-253.8 330.5,-253.8"/>
</a>
</g>
</g>
</g>
</svg>

<g id="navigator" transform="translate(0 0)" fill="#404254">
  <rect fill="#f2f5e9" fill-opacity="0.5" stroke="#606060" stroke-width=".5" x="0" y="0" width="60" height="60"/>
  <use id="zoomplus" xlink:href="#zoomPlus" x="17" y="9" onmousedown="handleZoom(evt,'in')"/>
  <use id="zoomminus" xlink:href="#zoomMin" x="42" y="9" onmousedown="handleZoom(evt,'out')"/>
  <use id="reset" xlink:href="#resetDef" x="30" y="36" onmousedown="handleReset()"/>
   <use id="arrowup" xlink:href="#arrowUp" x="0" y="0" onmousedown="handlePan(0,-1)"/>
  <use id="arrowright" xlink:href="#arrowRight" x="0" y="0" onmousedown="handlePan(1,0)"/>
  <use id="arrowdown" xlink:href="#arrowDown" x="0" y="0" onmousedown="handlePan(0,1)"/>
  <use id="arrowleft" xlink:href="#arrowLeft" x="0" y="0" onmousedown="handlePan(-1,0)"/>
</g>
<svg viewBox="0 0 15 15" width="100%" height="30px" preserveAspectRatio="xMaxYMin meet">
 <g id="arrow_out" transform="scale(0.3 0.3)">
  <a xlink:href="MemaPluginParameterInfo_8h__dep__incl_org.svg" target="_base">
   <rect id="button" ry="5" rx="5" y="6" x="6" height="38" width="38"
        fill="#f2f5e9" fill-opacity="0.5" stroke="#606060" stroke-width="1.0"/>
   <path id="arrow"
     d="M 11.500037,31.436501 C 11.940474,20.09759 22.043105,11.32322 32.158766,21.979434 L 37.068811,17.246167 C 37.068811,17.246167 37.088388,32 37.088388,32 L 22.160133,31.978069 C 22.160133,31.978069 26.997745,27.140456 26.997745,27.140456 C 18.528582,18.264221 13.291696,25.230495 11.500037,31.436501 z"
     style="fill:#404040;"/>
  </a>
 </g>
</svg>

<style type='text/css'>
<![CDATA[
[data-mouse-over-selected='false'] { opacity: 0.7; }
[data-mouse-over-selected='true']  { opacity: 1.0; }
]]>
</style>
<script type="application/ecmascript"><![CDATA[
document.addEventListener('DOMContentLoaded', (event) => {
  highlightEdges();
  highlightAdjacentNodes();
});
]]></script>
</svg>
