<?xml version="1.0" encoding="UTF-8" standalone="no"?>
<!DOCTYPE svg PUBLIC "-//W3C//DTD SVG 1.1//EN"
 "http://www.w3.org/Graphics/SVG/1.1/DTD/svg11.dtd">
<!-- Generated by graphviz version 2.43.0 (0)
 -->
<!-- Title: Source/Mema.cpp Pages: 1 -->
<svg width="1304pt" height="313pt"
 viewBox="0.00 0.00 1304.45 313.00" xmlns="http://www.w3.org/2000/svg" xmlns:xlink="http://www.w3.org/1999/xlink">
<g id="graph0" class="graph" transform="scale(1 1) rotate(0) translate(4 309)">
<title>Source/Mema.cpp</title>
<!-- Node1 -->
<g id="Node000001" class="node">
<title>Node1</title>
<g id="a_Node000001"><a xlink:title=" ">
<polygon fill="#999999" stroke="#666666" points="492.47,-305 388.47,-305 388.47,-286 492.47,-286 492.47,-305"/>
<text text-anchor="middle" x="440.47" y="-293" font-family="Helvetica,sans-Serif" font-size="10.00">Source/Mema.cpp</text>
</a>
</g>
</g>
<!-- Node2 -->
<g id="Node000002" class="node">
<title>Node2</title>
<g id="a_Node000002"><a xlink:href="Mema_8h.html" target="_top" xlink:title=" ">
<polygon fill="white" stroke="#666666" points="193.47,-250 137.47,-250 137.47,-231 193.47,-231 193.47,-250"/>
<text text-anchor="middle" x="165.47" y="-238" font-family="Helvetica,sans-Serif" font-size="10.00">Mema.h</text>
</a>
</g>
</g>
<!-- Node1&#45;&gt;Node2 -->
<g id="edge1_Node000001_Node000002" class="edge">
<title>Node1&#45;&gt;Node2</title>
<g id="a_edge1_Node000001_Node000002"><a xlink:title=" ">
<path fill="none" stroke="#63b8ff" d="M396.29,-285.98C342.88,-275.69 253.91,-258.54 203.45,-248.82"/>
<polygon fill="#63b8ff" stroke="#63b8ff" points="204.07,-245.38 193.59,-246.92 202.75,-252.25 204.07,-245.38"/>
</a>
</g>
</g>
<!-- Node7 -->
<g id="Node000007" class="node">
<title>Node7</title>
<g id="a_Node000007"><a xlink:href="MemaProcessorEditor_8h.html" target="_top" xlink:title=" ">
<polygon fill="white" stroke="#666666" points="472.47,-195 338.47,-195 338.47,-165 472.47,-165 472.47,-195"/>
<text text-anchor="start" x="346.47" y="-183" font-family="Helvetica,sans-Serif" font-size="10.00">MemaProcessorEditor</text>
<text text-anchor="middle" x="405.47" y="-172" font-family="Helvetica,sans-Serif" font-size="10.00">/MemaProcessorEditor.h</text>
</a>
</g>
</g>
<!-- Node1&#45;&gt;Node7 -->
<g id="edge7_Node000001_Node000007" class="edge">
<title>Node1&#45;&gt;Node7</title>
<g id="a_edge7_Node000001_Node000007"><a xlink:title=" ">
<path fill="none" stroke="#63b8ff" d="M428.54,-285.8C418.64,-277.77 405.28,-264.87 399.47,-250 393.91,-235.77 395.35,-218.67 398.21,-205.06"/>
<polygon fill="#63b8ff" stroke="#63b8ff" points="401.69,-205.55 400.7,-195 394.9,-203.87 401.69,-205.55"/>
</a>
</g>
</g>
<!-- Node9 -->
<g id="Node000009" class="node">
<title>Node9</title>
<g id="a_Node000009"><a xlink:href="MemaProcessor_8h.html" target="_top" xlink:title=" ">
<polygon fill="white" stroke="#666666" points="592.47,-250 408.47,-250 408.47,-231 592.47,-231 592.47,-250"/>
<text text-anchor="middle" x="500.47" y="-238" font-family="Helvetica,sans-Serif" font-size="10.00">MemaProcessor/MemaProcessor.h</text>
</a>
</g>
</g>
<!-- Node1&#45;&gt;Node9 -->
<g id="edge11_Node000001_Node000009" class="edge">
<title>Node1&#45;&gt;Node9</title>
<g id="a_edge11_Node000001_Node000009"><a xlink:title=" ">
<path fill="none" stroke="#63b8ff" d="M450.11,-285.98C458.98,-278.15 472.35,-266.34 483.08,-256.86"/>
<polygon fill="#63b8ff" stroke="#63b8ff" points="485.48,-259.41 490.66,-250.17 480.84,-254.17 485.48,-259.41"/>
</a>
</g>
</g>
<!-- Node18 -->
<g id="Node000018" class="node">
<title>Node18</title>
<g id="a_Node000018"><a xlink:title=" ">
<polygon fill="#e0e0e0" stroke="#999999" points="733.97,-250 610.97,-250 610.97,-231 733.97,-231 733.97,-250"/>
<text text-anchor="middle" x="672.47" y="-238" font-family="Helvetica,sans-Serif" font-size="10.00">WebUpdateDetector.h</text>
</a>
</g>
</g>
<!-- Node1&#45;&gt;Node18 -->
<g id="edge32_Node000001_Node000018" class="edge">
<title>Node1&#45;&gt;Node18</title>
<g id="a_edge32_Node000001_Node000018"><a xlink:title=" ">
<path fill="none" stroke="#63b8ff" d="M477.75,-285.98C517.79,-276.84 581.54,-262.27 625.11,-252.32"/>
<polygon fill="#63b8ff" stroke="#63b8ff" points="625.93,-255.72 634.9,-250.08 624.38,-248.9 625.93,-255.72"/>
</a>
</g>
</g>
<!-- Node3 -->
<g id="Node000003" class="node">
<title>Node3</title>
<g id="a_Node000003"><a xlink:title=" ">
<polygon fill="#e0e0e0" stroke="#999999" points="574.47,-19 494.47,-19 494.47,0 574.47,0 574.47,-19"/>
<text text-anchor="middle" x="534.47" y="-7" font-family="Helvetica,sans-Serif" font-size="10.00">JuceHeader.h</text>
</a>
</g>
</g>
<!-- Node2&#45;&gt;Node3 -->
<g id="edge2_Node000002_Node000003" class="edge">
<title>Node2&#45;&gt;Node3</title>
<g id="a_edge2_Node000002_Node000003"><a xlink:title=" ">
<path fill="none" stroke="#63b8ff" d="M137.41,-235.78C95.92,-229.64 21.39,-215.95 5.47,-195 -2.51,-184.49 -1.46,-122.45 8.47,-110 67.38,-36.13 364.52,-16.83 484.31,-12.02"/>
<polygon fill="#63b8ff" stroke="#63b8ff" points="484.46,-15.52 494.32,-11.64 484.19,-8.52 484.46,-15.52"/>
</a>
</g>
</g>
<!-- Node4 -->
<g id="Node000004" class="node">
<title>Node4</title>
<g id="a_Node000004"><a xlink:href="MemaAppConfiguration_8h.html" target="_top" xlink:title=" ">
<polygon fill="white" stroke="#666666" points="154.47,-189.5 14.47,-189.5 14.47,-170.5 154.47,-170.5 154.47,-189.5"/>
<text text-anchor="middle" x="84.47" y="-177.5" font-family="Helvetica,sans-Serif" font-size="10.00">MemaAppConfiguration.h</text>
</a>
</g>
</g>
<!-- Node2&#45;&gt;Node4 -->
<g id="edge3_Node000002_Node000004" class="edge">
<title>Node2&#45;&gt;Node4</title>
<g id="a_edge3_Node000002_Node000004"><a xlink:title=" ">
<path fill="none" stroke="#63b8ff" d="M153.52,-230.87C140.72,-221.62 120.17,-206.78 104.82,-195.69"/>
<polygon fill="#63b8ff" stroke="#63b8ff" points="106.63,-192.68 96.47,-189.67 102.53,-198.36 106.63,-192.68"/>
</a>
</g>
</g>
<!-- Node6 -->
<g id="Node000006" class="node">
<title>Node6</title>
<g id="a_Node000006"><a xlink:title=" ">
<polygon fill="#e0e0e0" stroke="#999999" points="319.97,-189.5 172.97,-189.5 172.97,-170.5 319.97,-170.5 319.97,-189.5"/>
<text text-anchor="middle" x="246.47" y="-177.5" font-family="Helvetica,sans-Serif" font-size="10.00">ServiceTopologyManager.h</text>
</a>
</g>
</g>
<!-- Node2&#45;&gt;Node6 -->
<g id="edge6_Node000002_Node000006" class="edge">
<title>Node2&#45;&gt;Node6</title>
<g id="a_edge6_Node000002_Node000006"><a xlink:title=" ">
<path fill="none" stroke="#63b8ff" d="M177.42,-230.87C190.22,-221.62 210.77,-206.78 226.13,-195.69"/>
<polygon fill="#63b8ff" stroke="#63b8ff" points="228.41,-198.36 234.47,-189.67 224.31,-192.68 228.41,-198.36"/>
</a>
</g>
</g>
<!-- Node4&#45;&gt;Node3 -->
<g id="edge4_Node000004_Node000003" class="edge">
<title>Node4&#45;&gt;Node3</title>
<g id="a_edge4_Node000004_Node000003"><a xlink:title=" ">
<path fill="none" stroke="#63b8ff" d="M99.8,-170.43C115.72,-161.2 140.98,-145.58 160.47,-129 194.5,-100.06 188.98,-75.86 228.47,-55 271.82,-32.1 409.09,-19.22 484.19,-13.73"/>
<polygon fill="#63b8ff" stroke="#63b8ff" points="484.63,-17.2 494.36,-13 484.13,-10.22 484.63,-17.2"/>
</a>
</g>
</g>
<!-- Node5 -->
<g id="Node000005" class="node">
<title>Node5</title>
<g id="a_Node000005"><a xlink:title=" ">
<polygon fill="#e0e0e0" stroke="#999999" points="151.47,-129 17.47,-129 17.47,-110 151.47,-110 151.47,-129"/>
<text text-anchor="middle" x="84.47" y="-117" font-family="Helvetica,sans-Serif" font-size="10.00">AppConfigurationBase.h</text>
</a>
</g>
</g>
<!-- Node4&#45;&gt;Node5 -->
<g id="edge5_Node000004_Node000005" class="edge">
<title>Node4&#45;&gt;Node5</title>
<g id="a_edge5_Node000004_Node000005"><a xlink:title=" ">
<path fill="none" stroke="#63b8ff" d="M84.47,-170.37C84.47,-162.25 84.47,-149.81 84.47,-139.39"/>
<polygon fill="#63b8ff" stroke="#63b8ff" points="87.97,-139.17 84.47,-129.17 80.97,-139.17 87.97,-139.17"/>
</a>
</g>
</g>
<!-- Node7&#45;&gt;Node3 -->
<g id="edge8_Node000007_Node000003" class="edge">
<title>Node7&#45;&gt;Node3</title>
<g id="a_edge8_Node000007_Node000003"><a xlink:title=" ">
<path fill="none" stroke="#63b8ff" d="M404.21,-164.98C402.73,-140 403.26,-87.38 429.47,-55 443.28,-37.94 464.82,-27.31 484.81,-20.74"/>
<polygon fill="#63b8ff" stroke="#63b8ff" points="485.89,-24.07 494.45,-17.83 483.87,-17.37 485.89,-24.07"/>
</a>
</g>
</g>
<!-- Node8 -->
<g id="Node000008" class="node">
<title>Node8</title>
<g id="a_Node000008"><a xlink:href="AudioSelectComponent_8h.html" target="_top" xlink:title=" ">
<polygon fill="white" stroke="#666666" points="377.47,-74 237.47,-74 237.47,-55 377.47,-55 377.47,-74"/>
<text text-anchor="middle" x="307.47" y="-62" font-family="Helvetica,sans-Serif" font-size="10.00">AudioSelectComponent.h</text>
</a>
</g>
</g>
<!-- Node7&#45;&gt;Node8 -->
<g id="edge9_Node000007_Node000008" class="edge">
<title>Node7&#45;&gt;Node8</title>
<g id="a_edge9_Node000007_Node000008"><a xlink:title=" ">
<path fill="none" stroke="#63b8ff" d="M393.06,-164.63C374.79,-143.47 340.76,-104.05 321.57,-81.83"/>
<polygon fill="#63b8ff" stroke="#63b8ff" points="324.19,-79.51 315.01,-74.23 318.89,-84.09 324.19,-79.51"/>
</a>
</g>
</g>
<!-- Node8&#45;&gt;Node3 -->
<g id="edge10_Node000008_Node000003" class="edge">
<title>Node8&#45;&gt;Node3</title>
<g id="a_edge10_Node000008_Node000003"><a xlink:title=" ">
<path fill="none" stroke="#63b8ff" d="M343.94,-54.98C383.04,-45.86 445.24,-31.33 487.86,-21.38"/>
<polygon fill="#63b8ff" stroke="#63b8ff" points="488.77,-24.76 497.71,-19.08 487.18,-17.95 488.77,-24.76"/>
</a>
</g>
</g>
<!-- Node9&#45;&gt;Node3 -->
<g id="edge12_Node000009_Node000003" class="edge">
<title>Node9&#45;&gt;Node3</title>
<g id="a_edge12_Node000009_Node000003"><a xlink:title=" ">
<path fill="none" stroke="#63b8ff" d="M498.9,-230.57C496.25,-216.38 490.3,-187.92 481.47,-165 474.97,-148.12 466.82,-146.56 462.47,-129 460.44,-120.8 459.87,-118.03 462.47,-110 473.3,-76.58 500.01,-44.96 517.68,-26.67"/>
<polygon fill="#63b8ff" stroke="#63b8ff" points="520.5,-28.8 525.07,-19.25 515.53,-23.86 520.5,-28.8"/>
</a>
</g>
</g>
<!-- Node9&#45;&gt;Node4 -->
<g id="edge30_Node000009_Node000004" class="edge">
<title>Node9&#45;&gt;Node4</title>
<g id="a_edge30_Node000009_Node000004"><a xlink:title=" ">
<path fill="none" stroke="#63b8ff" d="M429.01,-230.99C360.7,-222.64 254.89,-209.13 163.47,-195 156.1,-193.86 148.36,-192.59 140.72,-191.28"/>
<polygon fill="#63b8ff" stroke="#63b8ff" points="141.23,-187.82 130.78,-189.56 140.04,-194.72 141.23,-187.82"/>
</a>
</g>
</g>
<!-- Node9&#45;&gt;Node6 -->
<g id="edge31_Node000009_Node000006" class="edge">
<title>Node9&#45;&gt;Node6</title>
<g id="a_edge31_Node000009_Node000006"><a xlink:title=" ">
<path fill="none" stroke="#63b8ff" d="M463.54,-230.99C418.58,-220.64 342.59,-203.14 293.5,-191.83"/>
<polygon fill="#63b8ff" stroke="#63b8ff" points="293.98,-188.35 283.45,-189.52 292.41,-195.17 293.98,-188.35"/>
</a>
</g>
</g>
<!-- Node9&#45;&gt;Node7 -->
<g id="edge29_Node000009_Node000007" class="edge">
<title>Node9&#45;&gt;Node7</title>
<g id="a_edge29_Node000009_Node000007"><a xlink:title=" ">
<path fill="none" stroke="#63b8ff" d="M486.45,-230.87C473.56,-222.93 453.98,-210.87 437.3,-200.6"/>
<polygon fill="#63b8ff" stroke="#63b8ff" points="438.74,-197.38 428.39,-195.11 435.07,-203.34 438.74,-197.38"/>
</a>
</g>
</g>
<!-- Node10 -->
<g id="Node000010" class="node">
<title>Node10</title>
<g id="a_Node000010"><a xlink:href="MemaMessages_8h.html" target="_top" xlink:title=" ">
<polygon fill="white" stroke="#666666" points="655.97,-189.5 550.97,-189.5 550.97,-170.5 655.97,-170.5 655.97,-189.5"/>
<text text-anchor="middle" x="603.47" y="-177.5" font-family="Helvetica,sans-Serif" font-size="10.00">MemaMessages.h</text>
</a>
</g>
</g>
<!-- Node9&#45;&gt;Node10 -->
<g id="edge13_Node000009_Node000010" class="edge">
<title>Node9&#45;&gt;Node10</title>
<g id="a_edge13_Node000009_Node000010"><a xlink:title=" ">
<path fill="none" stroke="#63b8ff" d="M515.67,-230.87C532.48,-221.32 559.79,-205.81 579.49,-194.62"/>
<polygon fill="#63b8ff" stroke="#63b8ff" points="581.24,-197.65 588.21,-189.67 577.79,-191.56 581.24,-197.65"/>
</a>
</g>
</g>
<!-- Node12 -->
<g id="Node000012" class="node">
<title>Node12</title>
<g id="a_Node000012"><a xlink:href="MemaPluginParameterInfo_8h.html" target="_top" xlink:title=" ">
<polygon fill="white" stroke="#666666" points="808.97,-129 653.97,-129 653.97,-110 808.97,-110 808.97,-129"/>
<text text-anchor="middle" x="731.47" y="-117" font-family="Helvetica,sans-Serif" font-size="10.00">MemaPluginParameterInfo.h</text>
</a>
</g>
</g>
<!-- Node9&#45;&gt;Node12 -->
<g id="edge28_Node000009_Node000012" class="edge">
<title>Node9&#45;&gt;Node12</title>
<g id="a_edge28_Node000009_Node000012"><a xlink:title=" ">
<path fill="none" stroke="#63b8ff" d="M564.22,-230.96C596.08,-224.58 634.19,-213.63 664.47,-195 688.35,-180.31 708.71,-154.59 720.53,-137.55"/>
<polygon fill="#63b8ff" stroke="#63b8ff" points="723.53,-139.36 726.18,-129.1 717.71,-135.47 723.53,-139.36"/>
</a>
</g>
</g>
<!-- Node13 -->
<g id="Node000013" class="node">
<title>Node13</title>
<g id="a_Node000013"><a xlink:href="ProcessorDataAnalyzer_8h.html" target="_top" xlink:title=" ">
<polygon fill="white" stroke="#666666" points="1108.47,-189.5 970.47,-189.5 970.47,-170.5 1108.47,-170.5 1108.47,-189.5"/>
<text text-anchor="middle" x="1039.47" y="-177.5" font-family="Helvetica,sans-Serif" font-size="10.00">ProcessorDataAnalyzer.h</text>
</a>
</g>
</g>
<!-- Node9&#45;&gt;Node13 -->
<g id="edge18_Node000009_Node000013" class="edge">
<title>Node9&#45;&gt;Node13</title>
<g id="a_edge18_Node000009_Node000013"><a xlink:title=" ">
<path fill="none" stroke="#63b8ff" d="M578.85,-230.99C680.85,-219.92 858.12,-200.68 960.44,-189.58"/>
<polygon fill="#63b8ff" stroke="#63b8ff" points="960.85,-193.05 970.41,-188.5 960.09,-186.09 960.85,-193.05"/>
</a>
</g>
</g>
<!-- Node10&#45;&gt;Node3 -->
<g id="edge14_Node000010_Node000003" class="edge">
<title>Node10&#45;&gt;Node3</title>
<g id="a_edge14_Node000010_Node000003"><a xlink:title=" ">
<path fill="none" stroke="#63b8ff" d="M605.54,-170.24C608.31,-156.88 612.12,-130.77 605.47,-110 594.75,-76.52 568.18,-44.71 550.76,-26.43"/>
<polygon fill="#63b8ff" stroke="#63b8ff" points="552.99,-23.71 543.49,-19.02 548,-28.61 552.99,-23.71"/>
</a>
</g>
</g>
<!-- Node11 -->
<g id="Node000011" class="node">
<title>Node11</title>
<g id="a_Node000011"><a xlink:title=" ">
<polygon fill="#e0e0e0" stroke="#999999" points="596.97,-129 471.97,-129 471.97,-110 596.97,-110 596.97,-129"/>
<text text-anchor="middle" x="534.47" y="-117" font-family="Helvetica,sans-Serif" font-size="10.00">CustomLookAndFeel.h</text>
</a>
</g>
</g>
<!-- Node10&#45;&gt;Node11 -->
<g id="edge15_Node000010_Node000011" class="edge">
<title>Node10&#45;&gt;Node11</title>
<g id="a_edge15_Node000010_Node000011"><a xlink:title=" ">
<path fill="none" stroke="#63b8ff" d="M593.29,-170.37C582.59,-161.3 565.54,-146.84 552.54,-135.82"/>
<polygon fill="#63b8ff" stroke="#63b8ff" points="554.58,-132.96 544.69,-129.17 550.06,-138.3 554.58,-132.96"/>
</a>
</g>
</g>
<!-- Node10&#45;&gt;Node12 -->
<g id="edge16_Node000010_Node000012" class="edge">
<title>Node10&#45;&gt;Node12</title>
<g id="a_edge16_Node000010_Node000012"><a xlink:title=" ">
<path fill="none" stroke="#63b8ff" d="M622.08,-170.49C643.51,-160.7 678.91,-144.52 703.62,-133.23"/>
<polygon fill="#63b8ff" stroke="#63b8ff" points="705.2,-136.36 712.84,-129.02 702.29,-129.99 705.2,-136.36"/>
</a>
</g>
</g>
<!-- Node12&#45;&gt;Node3 -->
<g id="edge17_Node000012_Node000003" class="edge">
<title>Node12&#45;&gt;Node3</title>
<g id="a_edge17_Node000012_Node000003"><a xlink:title=" ">
<path fill="none" stroke="#63b8ff" d="M720.61,-109.91C703.87,-96.93 670.43,-72.01 639.47,-55 616.4,-42.32 588.98,-30.81 567.94,-22.67"/>
<polygon fill="#63b8ff" stroke="#63b8ff" points="569.06,-19.36 558.47,-19.07 566.57,-25.9 569.06,-19.36"/>
</a>
</g>
</g>
<!-- Node13&#45;&gt;Node3 -->
<g id="edge19_Node000013_Node000003" class="edge">
<title>Node13&#45;&gt;Node3</title>
<g id="a_edge19_Node000013_Node000003"><a xlink:title=" ">
<path fill="none" stroke="#63b8ff" d="M1108.68,-174.96C1175.42,-169.44 1269.59,-156.85 1292.47,-129 1297.83,-122.48 1297.68,-116.65 1292.47,-110 1248.59,-54.05 747.03,-22.05 584.77,-13.11"/>
<polygon fill="#63b8ff" stroke="#63b8ff" points="584.76,-9.6 574.59,-12.55 584.38,-16.59 584.76,-9.6"/>
</a>
</g>
</g>
<!-- Node14 -->
<g id="Node000014" class="node">
<title>Node14</title>
<g id="a_Node000014"><a xlink:href="ProcessorAudioSignalData_8h.html" target="_top" xlink:title=" ">
<polygon fill="white" stroke="#666666" points="1283.47,-129 1129.47,-129 1129.47,-110 1283.47,-110 1283.47,-129"/>
<text text-anchor="middle" x="1206.47" y="-117" font-family="Helvetica,sans-Serif" font-size="10.00">ProcessorAudioSignalData.h</text>
</a>
</g>
</g>
<!-- Node13&#45;&gt;Node14 -->
<g id="edge20_Node000013_Node000014" class="edge">
<title>Node13&#45;&gt;Node14</title>
<g id="a_edge20_Node000013_Node000014"><a xlink:title=" ">
<path fill="none" stroke="#63b8ff" d="M1063.75,-170.49C1092.45,-160.44 1140.36,-143.66 1172.67,-132.34"/>
<polygon fill="#63b8ff" stroke="#63b8ff" points="1173.88,-135.63 1182.16,-129.02 1171.56,-129.02 1173.88,-135.63"/>
</a>
</g>
</g>
<!-- Node16 -->
<g id="Node000016" class="node">
<title>Node16</title>
<g id="a_Node000016"><a xlink:href="ProcessorLevelData_8h.html" target="_top" xlink:title=" ">
<polygon fill="white" stroke="#666666" points="949.47,-129 827.47,-129 827.47,-110 949.47,-110 949.47,-129"/>
<text text-anchor="middle" x="888.47" y="-117" font-family="Helvetica,sans-Serif" font-size="10.00">ProcessorLevelData.h</text>
</a>
</g>
</g>
<!-- Node13&#45;&gt;Node16 -->
<g id="edge24_Node000013_Node000016" class="edge">
<title>Node13&#45;&gt;Node16</title>
<g id="a_edge24_Node000013_Node000016"><a xlink:title=" ">
<path fill="none" stroke="#63b8ff" d="M1017.51,-170.49C991.79,-160.53 948.99,-143.95 919.79,-132.63"/>
<polygon fill="#63b8ff" stroke="#63b8ff" points="921.04,-129.37 910.45,-129.02 918.51,-135.89 921.04,-129.37"/>
</a>
</g>
</g>
<!-- Node17 -->
<g id="Node000017" class="node">
<title>Node17</title>
<g id="a_Node000017"><a xlink:href="ProcessorSpectrumData_8h.html" target="_top" xlink:title=" ">
<polygon fill="white" stroke="#666666" points="1110.97,-129 967.97,-129 967.97,-110 1110.97,-110 1110.97,-129"/>
<text text-anchor="middle" x="1039.47" y="-117" font-family="Helvetica,sans-Serif" font-size="10.00">ProcessorSpectrumData.h</text>
</a>
</g>
</g>
<!-- Node13&#45;&gt;Node17 -->
<g id="edge26_Node000013_Node000017" class="edge">
<title>Node13&#45;&gt;Node17</title>
<g id="a_edge26_Node000013_Node000017"><a xlink:title=" ">
<path fill="none" stroke="#63b8ff" d="M1039.47,-170.37C1039.47,-162.25 1039.47,-149.81 1039.47,-139.39"/>
<polygon fill="#63b8ff" stroke="#63b8ff" points="1042.97,-139.17 1039.47,-129.17 1035.97,-139.17 1042.97,-139.17"/>
</a>
</g>
</g>
<!-- Node14&#45;&gt;Node3 -->
<g id="edge21_Node000014_Node000003" class="edge">
<title>Node14&#45;&gt;Node3</title>
<g id="a_edge21_Node000014_Node000003"><a xlink:title=" ">
<path fill="none" stroke="#63b8ff" d="M1186.66,-109.93C1153.28,-95.9 1083.4,-68.26 1021.47,-55 864.55,-21.41 673.86,-13.16 584.82,-11.15"/>
<polygon fill="#63b8ff" stroke="#63b8ff" points="584.8,-7.65 574.73,-10.93 584.65,-14.64 584.8,-7.65"/>
</a>
</g>
</g>
<!-- Node15 -->
<g id="Node000015" class="node">
<title>Node15</title>
<g id="a_Node000015"><a xlink:href="AbstractProcessorData_8h.html" target="_top" xlink:title=" ">
<polygon fill="white" stroke="#666666" points="1011.97,-74 874.97,-74 874.97,-55 1011.97,-55 1011.97,-74"/>
<text text-anchor="middle" x="943.47" y="-62" font-family="Helvetica,sans-Serif" font-size="10.00">AbstractProcessorData.h</text>
</a>
</g>
</g>
<!-- Node14&#45;&gt;Node15 -->
<g id="edge22_Node000014_Node000015" class="edge">
<title>Node14&#45;&gt;Node15</title>
<g id="a_edge22_Node000014_Node000015"><a xlink:title=" ">
<path fill="none" stroke="#63b8ff" d="M1164.22,-109.98C1118.44,-100.76 1045.33,-86.03 995.92,-76.07"/>
<polygon fill="#63b8ff" stroke="#63b8ff" points="996.55,-72.63 986.06,-74.08 995.17,-79.49 996.55,-72.63"/>
</a>
</g>
</g>
<!-- Node15&#45;&gt;Node3 -->
<g id="edge23_Node000015_Node000003" class="edge">
<title>Node15&#45;&gt;Node3</title>
<g id="a_edge23_Node000015_Node000003"><a xlink:title=" ">
<path fill="none" stroke="#63b8ff" d="M877.76,-54.98C796.02,-44.39 658.27,-26.54 584.57,-16.99"/>
<polygon fill="#63b8ff" stroke="#63b8ff" points="584.97,-13.51 574.6,-15.7 584.07,-20.46 584.97,-13.51"/>
</a>
</g>
</g>
<!-- Node16&#45;&gt;Node15 -->
<g id="edge25_Node000016_Node000015" class="edge">
<title>Node16&#45;&gt;Node15</title>
<g id="a_edge25_Node000016_Node000015"><a xlink:title=" ">
<path fill="none" stroke="#63b8ff" d="M897.55,-109.75C905.56,-102.03 917.43,-90.6 927.09,-81.28"/>
<polygon fill="#63b8ff" stroke="#63b8ff" points="929.79,-83.55 934.56,-74.09 924.93,-78.51 929.79,-83.55"/>
</a>
</g>
</g>
<!-- Node17&#45;&gt;Node15 -->
<g id="edge27_Node000017_Node000015" class="edge">
<title>Node17&#45;&gt;Node15</title>
<g id="a_edge27_Node000017_Node000015"><a xlink:title=" ">
<path fill="none" stroke="#63b8ff" d="M1024.05,-109.98C1009.02,-101.69 985.93,-88.94 968.31,-79.22"/>
<polygon fill="#63b8ff" stroke="#63b8ff" points="969.62,-75.94 959.18,-74.17 966.24,-82.07 969.62,-75.94"/>
</a>
</g>
</g>
</g>
</svg>
