<?xml version="1.0" encoding="UTF-8" standalone="no"?>
<!DOCTYPE svg PUBLIC "-//W3C//DTD SVG 1.1//EN"
 "http://www.w3.org/Graphics/SVG/1.1/DTD/svg11.dtd">
<!-- Generated by graphviz version 2.43.0 (0)
 -->
<!-- Title: Source/MemaClientCommon/MemaClientControlComponentBase.cpp Pages: 1 -->
<svg width="318pt" height="159pt"
 viewBox="0.00 0.00 318.00 159.00" xmlns="http://www.w3.org/2000/svg" xmlns:xlink="http://www.w3.org/1999/xlink">
<g id="graph0" class="graph" transform="scale(1 1) rotate(0) translate(4 155)">
<title>Source/MemaClientCommon/MemaClientControlComponentBase.cpp</title>
<!-- Node1 -->
<g id="Node000001" class="node">
<title>Node1</title>
<g id="a_Node000001"><a xlink:title=" ">
<polygon fill="#999999" stroke="#666666" points="273,-151 58,-151 58,-121 273,-121 273,-151"/>
<text text-anchor="start" x="66" y="-139" font-family="Helvetica,sans-Serif" font-size="10.00">Source/MemaClientCommon</text>
<text text-anchor="middle" x="165.5" y="-128" font-family="Helvetica,sans-Serif" font-size="10.00">/MemaClientControlComponentBase.cpp</text>
</a>
</g>
</g>
<!-- Node2 -->
<g id="Node000002" class="node">
<title>Node2</title>
<g id="a_Node000002"><a xlink:href="MemaClientControlComponentBase_8h.html" target="_top" xlink:title=" ">
<polygon fill="white" stroke="#666666" points="167,-85 0,-85 0,-55 167,-55 167,-85"/>
<text text-anchor="start" x="8" y="-73" font-family="Helvetica,sans-Serif" font-size="10.00">MemaClientControlComponent</text>
<text text-anchor="middle" x="83.5" y="-62" font-family="Helvetica,sans-Serif" font-size="10.00">Base.h</text>
</a>
</g>
</g>
<!-- Node1&#45;&gt;Node2 -->
<g id="edge1_Node000001_Node000002" class="edge">
<title>Node1&#45;&gt;Node2</title>
<g id="a_edge1_Node000001_Node000002"><a xlink:title=" ">
<path fill="none" stroke="#63b8ff" d="M147.3,-120.8C136.26,-112.18 121.99,-101.04 109.74,-91.48"/>
<polygon fill="#63b8ff" stroke="#63b8ff" points="111.68,-88.56 101.65,-85.16 107.38,-94.08 111.68,-88.56"/>
</a>
</g>
</g>
<!-- Node4 -->
<g id="Node000004" class="node">
<title>Node4</title>
<g id="a_Node000004"><a xlink:title=" ">
<polygon fill="#e0e0e0" stroke="#999999" points="310,-79.5 185,-79.5 185,-60.5 310,-60.5 310,-79.5"/>
<text text-anchor="middle" x="247.5" y="-67.5" font-family="Helvetica,sans-Serif" font-size="10.00">CustomLookAndFeel.h</text>
</a>
</g>
</g>
<!-- Node1&#45;&gt;Node4 -->
<g id="edge3_Node000001_Node000004" class="edge">
<title>Node1&#45;&gt;Node4</title>
<g id="a_edge3_Node000001_Node000004"><a xlink:title=" ">
<path fill="none" stroke="#63b8ff" d="M183.7,-120.8C196.86,-110.53 214.61,-96.67 228.05,-86.18"/>
<polygon fill="#63b8ff" stroke="#63b8ff" points="230.44,-88.76 236.17,-79.84 226.13,-83.24 230.44,-88.76"/>
</a>
</g>
</g>
<!-- Node3 -->
<g id="Node000003" class="node">
<title>Node3</title>
<g id="a_Node000003"><a xlink:title=" ">
<polygon fill="#e0e0e0" stroke="#999999" points="123.5,-19 43.5,-19 43.5,0 123.5,0 123.5,-19"/>
<text text-anchor="middle" x="83.5" y="-7" font-family="Helvetica,sans-Serif" font-size="10.00">JuceHeader.h</text>
</a>
</g>
</g>
<!-- Node2&#45;&gt;Node3 -->
<g id="edge2_Node000002_Node000003" class="edge">
<title>Node2&#45;&gt;Node3</title>
<g id="a_edge2_Node000002_Node000003"><a xlink:title=" ">
<path fill="none" stroke="#63b8ff" d="M83.5,-54.84C83.5,-47.21 83.5,-37.7 83.5,-29.45"/>
<polygon fill="#63b8ff" stroke="#63b8ff" points="87,-29.27 83.5,-19.27 80,-29.27 87,-29.27"/>
</a>
</g>
</g>
</g>
</svg>
