<?xml version="1.0" encoding="UTF-8" standalone="no"?>
<!DOCTYPE svg PUBLIC "-//W3C//DTD SVG 1.1//EN"
 "http://www.w3.org/Graphics/SVG/1.1/DTD/svg11.dtd">
<!-- Generated by graphviz version 2.43.0 (0)
 -->
<!-- Title: MemaRe/Main.cpp Pages: 1 -->
<svg width="547pt" height="203pt"
 viewBox="0.00 0.00 547.34 203.00" xmlns="http://www.w3.org/2000/svg" xmlns:xlink="http://www.w3.org/1999/xlink">
<g id="graph0" class="graph" transform="scale(1 1) rotate(0) translate(4 199)">
<title>MemaRe/Main.cpp</title>
<!-- Node1 -->
<g id="Node000001" class="node">
<title>Node1</title>
<g id="a_Node000001"><a xlink:title=" ">
<polygon fill="#999999" stroke="#666666" points="165.34,-195 58.34,-195 58.34,-176 165.34,-176 165.34,-195"/>
<text text-anchor="middle" x="111.84" y="-183" font-family="Helvetica,sans-Serif" font-size="10.00">MemaRe/Main.cpp</text>
</a>
</g>
</g>
<!-- Node2 -->
<g id="Node000002" class="node">
<title>Node2</title>
<g id="a_Node000002"><a xlink:title=" ">
<polygon fill="#e0e0e0" stroke="#999999" points="92.84,-19 12.84,-19 12.84,0 92.84,0 92.84,-19"/>
<text text-anchor="middle" x="52.84" y="-7" font-family="Helvetica,sans-Serif" font-size="10.00">JuceHeader.h</text>
</a>
</g>
</g>
<!-- Node1&#45;&gt;Node2 -->
<g id="edge1_Node000001_Node000002" class="edge">
<title>Node1&#45;&gt;Node2</title>
<g id="a_edge1_Node000001_Node000002"><a xlink:title=" ">
<path fill="none" stroke="#63b8ff" d="M94.81,-175.78C68.63,-161.2 19.84,-129.09 3.84,-85 -0.71,-72.47 -1.56,-67.19 3.84,-55 9.16,-42.97 19.52,-32.8 29.35,-25.24"/>
<polygon fill="#63b8ff" stroke="#63b8ff" points="31.6,-27.93 37.71,-19.27 27.53,-22.23 31.6,-27.93"/>
</a>
</g>
</g>
<!-- Node3 -->
<g id="Node000003" class="node">
<title>Node3</title>
<g id="a_Node000003"><a xlink:href="MemaRe_2MainComponent_8h.html" target="_top" xlink:title=" ">
<polygon fill="white" stroke="#666666" points="164.84,-140 58.84,-140 58.84,-121 164.84,-121 164.84,-140"/>
<text text-anchor="middle" x="111.84" y="-128" font-family="Helvetica,sans-Serif" font-size="10.00">MainComponent.h</text>
</a>
</g>
</g>
<!-- Node1&#45;&gt;Node3 -->
<g id="edge2_Node000001_Node000003" class="edge">
<title>Node1&#45;&gt;Node3</title>
<g id="a_edge2_Node000001_Node000003"><a xlink:title=" ">
<path fill="none" stroke="#63b8ff" d="M111.84,-175.75C111.84,-168.8 111.84,-158.85 111.84,-150.13"/>
<polygon fill="#63b8ff" stroke="#63b8ff" points="115.34,-150.09 111.84,-140.09 108.34,-150.09 115.34,-150.09"/>
</a>
</g>
</g>
<!-- Node8 -->
<g id="Node000008" class="node">
<title>Node8</title>
<g id="a_Node000008"><a xlink:title=" ">
<polygon fill="#e0e0e0" stroke="#999999" points="308.34,-140 183.34,-140 183.34,-121 308.34,-121 308.34,-140"/>
<text text-anchor="middle" x="245.84" y="-128" font-family="Helvetica,sans-Serif" font-size="10.00">CustomLookAndFeel.h</text>
</a>
</g>
</g>
<!-- Node1&#45;&gt;Node8 -->
<g id="edge10_Node000001_Node000008" class="edge">
<title>Node1&#45;&gt;Node8</title>
<g id="a_edge10_Node000001_Node000008"><a xlink:title=" ">
<path fill="none" stroke="#63b8ff" d="M133.37,-175.98C155.31,-167.3 189.58,-153.75 214.52,-143.88"/>
<polygon fill="#63b8ff" stroke="#63b8ff" points="215.9,-147.1 223.91,-140.17 213.33,-140.59 215.9,-147.1"/>
</a>
</g>
</g>
<!-- Node3&#45;&gt;Node2 -->
<g id="edge3_Node000003_Node000002" class="edge">
<title>Node3&#45;&gt;Node2</title>
<g id="a_edge3_Node000003_Node000002"><a xlink:title=" ">
<path fill="none" stroke="#63b8ff" d="M66.38,-120.96C46.06,-114.64 24,-103.72 11.84,-85 -0.95,-65.32 17.96,-41.35 34.13,-26.01"/>
<polygon fill="#63b8ff" stroke="#63b8ff" points="36.58,-28.51 41.69,-19.23 31.91,-23.3 36.58,-28.51"/>
</a>
</g>
</g>
<!-- Node4 -->
<g id="Node000004" class="node">
<title>Node4</title>
<g id="a_Node000004"><a xlink:href="MemaReAppConfiguration_8h.html" target="_top" xlink:title=" ">
<polygon fill="white" stroke="#666666" points="374.34,-79.5 221.34,-79.5 221.34,-60.5 374.34,-60.5 374.34,-79.5"/>
<text text-anchor="middle" x="297.84" y="-67.5" font-family="Helvetica,sans-Serif" font-size="10.00">MemaReAppConfiguration.h</text>
</a>
</g>
</g>
<!-- Node3&#45;&gt;Node4 -->
<g id="edge4_Node000003_Node000004" class="edge">
<title>Node3&#45;&gt;Node4</title>
<g id="a_edge4_Node000003_Node000004"><a xlink:title=" ">
<path fill="none" stroke="#63b8ff" d="M138.88,-120.99C171.12,-110.86 225.13,-93.87 261.12,-82.55"/>
<polygon fill="#63b8ff" stroke="#63b8ff" points="262.27,-85.86 270.76,-79.52 260.17,-79.18 262.27,-85.86"/>
</a>
</g>
</g>
<!-- Node6 -->
<g id="Node000006" class="node">
<title>Node6</title>
<g id="a_Node000006"><a xlink:href="MemaClientControlComponentBase_8h.html" target="_top" xlink:title=" ">
<polygon fill="white" stroke="#666666" points="202.84,-85 20.84,-85 20.84,-55 202.84,-55 202.84,-85"/>
<text text-anchor="start" x="28.84" y="-73" font-family="Helvetica,sans-Serif" font-size="10.00">MemaClientCommon/MemaClient</text>
<text text-anchor="middle" x="111.84" y="-62" font-family="Helvetica,sans-Serif" font-size="10.00">ControlComponentBase.h</text>
</a>
</g>
</g>
<!-- Node3&#45;&gt;Node6 -->
<g id="edge7_Node000003_Node000006" class="edge">
<title>Node3&#45;&gt;Node6</title>
<g id="a_edge7_Node000003_Node000006"><a xlink:title=" ">
<path fill="none" stroke="#63b8ff" d="M111.84,-120.87C111.84,-114.11 111.84,-104.35 111.84,-95.26"/>
<polygon fill="#63b8ff" stroke="#63b8ff" points="115.34,-95.11 111.84,-85.11 108.34,-95.11 115.34,-95.11"/>
</a>
</g>
</g>
<!-- Node7 -->
<g id="Node000007" class="node">
<title>Node7</title>
<g id="a_Node000007"><a xlink:title=" ">
<polygon fill="#e0e0e0" stroke="#999999" points="539.34,-79.5 392.34,-79.5 392.34,-60.5 539.34,-60.5 539.34,-79.5"/>
<text text-anchor="middle" x="465.84" y="-67.5" font-family="Helvetica,sans-Serif" font-size="10.00">ServiceTopologyManager.h</text>
</a>
</g>
</g>
<!-- Node3&#45;&gt;Node7 -->
<g id="edge9_Node000003_Node000007" class="edge">
<title>Node3&#45;&gt;Node7</title>
<g id="a_edge9_Node000003_Node000007"><a xlink:title=" ">
<path fill="none" stroke="#63b8ff" d="M164.51,-120.99C219.31,-112.12 307.62,-97.74 383.84,-85 390.99,-83.8 398.48,-82.54 405.92,-81.28"/>
<polygon fill="#63b8ff" stroke="#63b8ff" points="406.71,-84.7 415.98,-79.57 405.53,-77.79 406.71,-84.7"/>
</a>
</g>
</g>
<!-- Node4&#45;&gt;Node2 -->
<g id="edge5_Node000004_Node000002" class="edge">
<title>Node4&#45;&gt;Node2</title>
<g id="a_edge5_Node000004_Node000002"><a xlink:title=" ">
<path fill="none" stroke="#63b8ff" d="M262.21,-60.49C218.94,-50.16 145.86,-32.71 98.49,-21.4"/>
<polygon fill="#63b8ff" stroke="#63b8ff" points="99.04,-17.93 88.5,-19.02 97.42,-24.74 99.04,-17.93"/>
</a>
</g>
</g>
<!-- Node5 -->
<g id="Node000005" class="node">
<title>Node5</title>
<g id="a_Node000005"><a xlink:title=" ">
<polygon fill="#e0e0e0" stroke="#999999" points="364.84,-19 230.84,-19 230.84,0 364.84,0 364.84,-19"/>
<text text-anchor="middle" x="297.84" y="-7" font-family="Helvetica,sans-Serif" font-size="10.00">AppConfigurationBase.h</text>
</a>
</g>
</g>
<!-- Node4&#45;&gt;Node5 -->
<g id="edge6_Node000004_Node000005" class="edge">
<title>Node4&#45;&gt;Node5</title>
<g id="a_edge6_Node000004_Node000005"><a xlink:title=" ">
<path fill="none" stroke="#63b8ff" d="M297.84,-60.37C297.84,-52.25 297.84,-39.81 297.84,-29.39"/>
<polygon fill="#63b8ff" stroke="#63b8ff" points="301.34,-29.17 297.84,-19.17 294.34,-29.17 301.34,-29.17"/>
</a>
</g>
</g>
<!-- Node6&#45;&gt;Node2 -->
<g id="edge8_Node000006_Node000002" class="edge">
<title>Node6&#45;&gt;Node2</title>
<g id="a_edge8_Node000006_Node000002"><a xlink:title=" ">
<path fill="none" stroke="#63b8ff" d="M97.55,-54.84C88.9,-46.26 77.85,-35.3 68.89,-26.42"/>
<polygon fill="#63b8ff" stroke="#63b8ff" points="71.24,-23.82 61.68,-19.27 66.31,-28.79 71.24,-23.82"/>
</a>
</g>
</g>
</g>
</svg>
