<?xml version="1.0" encoding="UTF-8" standalone="no"?>
<!DOCTYPE svg PUBLIC "-//W3C//DTD SVG 1.1//EN"
 "http://www.w3.org/Graphics/SVG/1.1/DTD/svg11.dtd">
<!-- Generated by graphviz version 2.43.0 (0)
 -->
<!-- Title: MemaRe/MainComponent.cpp Pages: 1 -->
<svg width="1801pt" height="280pt"
 viewBox="0.00 0.00 1800.50 280.00" xmlns="http://www.w3.org/2000/svg" xmlns:xlink="http://www.w3.org/1999/xlink">
<g id="graph0" class="graph" transform="scale(1 1) rotate(0) translate(4 276)">
<title>MemaRe/MainComponent.cpp</title>
<!-- Node1 -->
<g id="Node000001" class="node">
<title>Node1</title>
<g id="a_Node000001"><a xlink:title=" ">
<polygon fill="#999999" stroke="#666666" points="1349.5,-272 1185.5,-272 1185.5,-253 1349.5,-253 1349.5,-272"/>
<text text-anchor="middle" x="1267.5" y="-260" font-family="Helvetica,sans-Serif" font-size="10.00">MemaRe/MainComponent.cpp</text>
</a>
</g>
</g>
<!-- Node2 -->
<g id="Node000002" class="node">
<title>Node2</title>
<g id="a_Node000002"><a xlink:href="MemaRe_2MainComponent_8h.html" target="_top" xlink:title=" ">
<polygon fill="white" stroke="#666666" points="151.5,-145.5 45.5,-145.5 45.5,-126.5 151.5,-126.5 151.5,-145.5"/>
<text text-anchor="middle" x="98.5" y="-133.5" font-family="Helvetica,sans-Serif" font-size="10.00">MainComponent.h</text>
</a>
</g>
</g>
<!-- Node1&#45;&gt;Node2 -->
<g id="edge1_Node000001_Node000002" class="edge">
<title>Node1&#45;&gt;Node2</title>
<g id="a_edge1_Node000001_Node000002"><a xlink:title=" ">
<path fill="none" stroke="#63b8ff" d="M1185.26,-259.07C1052.75,-254.55 783.9,-242.85 557.5,-217 379.79,-196.71 336.03,-185.38 160.5,-151 155.42,-150 150.12,-148.9 144.85,-147.77"/>
<polygon fill="#63b8ff" stroke="#63b8ff" points="145.33,-144.29 134.82,-145.57 143.83,-151.13 145.33,-144.29"/>
</a>
</g>
</g>
<!-- Node8 -->
<g id="Node000008" class="node">
<title>Node8</title>
<g id="a_Node000008"><a xlink:href="CustomPopupMenuComponent_8h.html" target="_top" xlink:title=" ">
<polygon fill="white" stroke="#666666" points="1726.5,-79.5 1550.5,-79.5 1550.5,-60.5 1726.5,-60.5 1726.5,-79.5"/>
<text text-anchor="middle" x="1638.5" y="-67.5" font-family="Helvetica,sans-Serif" font-size="10.00">CustomPopupMenuComponent.h</text>
</a>
</g>
</g>
<!-- Node1&#45;&gt;Node8 -->
<g id="edge9_Node000001_Node000008" class="edge">
<title>Node1&#45;&gt;Node8</title>
<g id="a_edge9_Node000001_Node000008"><a xlink:title=" ">
<path fill="none" stroke="#63b8ff" d="M1349.51,-258.35C1462.63,-253.14 1655.1,-240.86 1676.5,-217 1709.63,-180.07 1672.93,-117.87 1651.6,-88"/>
<polygon fill="#63b8ff" stroke="#63b8ff" points="1654.33,-85.8 1645.57,-79.84 1648.7,-89.96 1654.33,-85.8"/>
</a>
</g>
</g>
<!-- Node9 -->
<g id="Node000009" class="node">
<title>Node9</title>
<g id="a_Node000009"><a xlink:href="MemaReComponent_8h.html" target="_top" xlink:title=" ">
<polygon fill="white" stroke="#666666" points="906,-211.5 781,-211.5 781,-192.5 906,-192.5 906,-211.5"/>
<text text-anchor="middle" x="843.5" y="-199.5" font-family="Helvetica,sans-Serif" font-size="10.00">MemaReComponent.h</text>
</a>
</g>
</g>
<!-- Node1&#45;&gt;Node9 -->
<g id="edge11_Node000001_Node000009" class="edge">
<title>Node1&#45;&gt;Node9</title>
<g id="a_edge11_Node000001_Node000009"><a xlink:title=" ">
<path fill="none" stroke="#63b8ff" d="M1205.85,-252.99C1128.76,-242.36 997.02,-224.18 915.42,-212.92"/>
<polygon fill="#63b8ff" stroke="#63b8ff" points="915.61,-209.42 905.23,-211.52 914.66,-216.35 915.61,-209.42"/>
</a>
</g>
</g>
<!-- Node14 -->
<g id="Node000014" class="node">
<title>Node14</title>
<g id="a_Node000014"><a xlink:href="MemaClientDiscoverComponent_8h.html" target="_top" xlink:title=" ">
<polygon fill="white" stroke="#666666" points="351.5,-151 169.5,-151 169.5,-121 351.5,-121 351.5,-151"/>
<text text-anchor="start" x="177.5" y="-139" font-family="Helvetica,sans-Serif" font-size="10.00">MemaClientCommon/MemaClient</text>
<text text-anchor="middle" x="260.5" y="-128" font-family="Helvetica,sans-Serif" font-size="10.00">DiscoverComponent.h</text>
</a>
</g>
</g>
<!-- Node1&#45;&gt;Node14 -->
<g id="edge25_Node000001_Node000014" class="edge">
<title>Node1&#45;&gt;Node14</title>
<g id="a_edge25_Node000001_Node000014"><a xlink:title=" ">
<path fill="none" stroke="#63b8ff" d="M1185.26,-255.79C1086.73,-248.56 916.73,-234.86 771.5,-217 622.93,-198.73 451.17,-170.33 349.42,-152.74"/>
<polygon fill="#63b8ff" stroke="#63b8ff" points="349.95,-149.28 339.5,-151.02 348.75,-156.18 349.95,-149.28"/>
</a>
</g>
</g>
<!-- Node15 -->
<g id="Node000015" class="node">
<title>Node15</title>
<g id="a_Node000015"><a xlink:href="MemaClientConnectingComponent_8h.html" target="_top" xlink:title=" ">
<polygon fill="white" stroke="#666666" points="1212.5,-85 1030.5,-85 1030.5,-55 1212.5,-55 1212.5,-85"/>
<text text-anchor="start" x="1038.5" y="-73" font-family="Helvetica,sans-Serif" font-size="10.00">MemaClientCommon/MemaClient</text>
<text text-anchor="middle" x="1121.5" y="-62" font-family="Helvetica,sans-Serif" font-size="10.00">ConnectingComponent.h</text>
</a>
</g>
</g>
<!-- Node1&#45;&gt;Node15 -->
<g id="edge28_Node000001_Node000015" class="edge">
<title>Node1&#45;&gt;Node15</title>
<g id="a_edge28_Node000001_Node000015"><a xlink:title=" ">
<path fill="none" stroke="#63b8ff" d="M1185.42,-260.08C1110.98,-256.86 1009.09,-246.91 983.5,-217 942.78,-169.4 1027.13,-116.72 1081.09,-89.53"/>
<polygon fill="#63b8ff" stroke="#63b8ff" points="1082.7,-92.63 1090.12,-85.07 1079.61,-86.36 1082.7,-92.63"/>
</a>
</g>
</g>
<!-- Node16 -->
<g id="Node000016" class="node">
<title>Node16</title>
<g id="a_Node000016"><a xlink:href="MemaServiceData_8h.html" target="_top" xlink:title=" ">
<polygon fill="white" stroke="#666666" points="1156.5,-217 992.5,-217 992.5,-187 1156.5,-187 1156.5,-217"/>
<text text-anchor="start" x="1000.5" y="-205" font-family="Helvetica,sans-Serif" font-size="10.00">MemaProcessor/MemaService</text>
<text text-anchor="middle" x="1074.5" y="-194" font-family="Helvetica,sans-Serif" font-size="10.00">Data.h</text>
</a>
</g>
</g>
<!-- Node1&#45;&gt;Node16 -->
<g id="edge30_Node000001_Node000016" class="edge">
<title>Node1&#45;&gt;Node16</title>
<g id="a_edge30_Node000001_Node000016"><a xlink:title=" ">
<path fill="none" stroke="#63b8ff" d="M1239.44,-252.99C1211.05,-244.39 1166.4,-230.86 1130.71,-220.04"/>
<polygon fill="#63b8ff" stroke="#63b8ff" points="1131.49,-216.62 1120.9,-217.06 1129.45,-223.31 1131.49,-216.62"/>
</a>
</g>
</g>
<!-- Node17 -->
<g id="Node000017" class="node">
<title>Node17</title>
<g id="a_Node000017"><a xlink:href="AboutComponent_8h.html" target="_top" xlink:title=" ">
<polygon fill="white" stroke="#666666" points="1526.5,-211.5 1416.5,-211.5 1416.5,-192.5 1526.5,-192.5 1526.5,-211.5"/>
<text text-anchor="middle" x="1471.5" y="-199.5" font-family="Helvetica,sans-Serif" font-size="10.00">AboutComponent.h</text>
</a>
</g>
</g>
<!-- Node1&#45;&gt;Node17 -->
<g id="edge32_Node000001_Node000017" class="edge">
<title>Node1&#45;&gt;Node17</title>
<g id="a_edge32_Node000001_Node000017"><a xlink:title=" ">
<path fill="none" stroke="#63b8ff" d="M1297.16,-252.99C1332.74,-242.79 1392.52,-225.65 1431.98,-214.33"/>
<polygon fill="#63b8ff" stroke="#63b8ff" points="1433.15,-217.64 1441.8,-211.52 1431.22,-210.91 1433.15,-217.64"/>
</a>
</g>
</g>
<!-- Node18 -->
<g id="Node000018" class="node">
<title>Node18</title>
<g id="a_Node000018"><a xlink:title=" ">
<polygon fill="#e0e0e0" stroke="#999999" points="1435,-145.5 1310,-145.5 1310,-126.5 1435,-126.5 1435,-145.5"/>
<text text-anchor="middle" x="1372.5" y="-133.5" font-family="Helvetica,sans-Serif" font-size="10.00">CustomLookAndFeel.h</text>
</a>
</g>
</g>
<!-- Node1&#45;&gt;Node18 -->
<g id="edge34_Node000001_Node000018" class="edge">
<title>Node1&#45;&gt;Node18</title>
<g id="a_edge34_Node000001_Node000018"><a xlink:title=" ">
<path fill="none" stroke="#63b8ff" d="M1313.53,-252.99C1334.17,-246.67 1356.71,-235.76 1369.5,-217 1381.77,-199.01 1380.14,-173.07 1377.04,-155.66"/>
<polygon fill="#63b8ff" stroke="#63b8ff" points="1380.4,-154.67 1374.91,-145.61 1373.56,-156.12 1380.4,-154.67"/>
</a>
</g>
</g>
<!-- Node19 -->
<g id="Node000019" class="node">
<title>Node19</title>
<g id="a_Node000019"><a xlink:title=" ">
<polygon fill="#e0e0e0" stroke="#999999" points="1668,-211.5 1545,-211.5 1545,-192.5 1668,-192.5 1668,-211.5"/>
<text text-anchor="middle" x="1606.5" y="-199.5" font-family="Helvetica,sans-Serif" font-size="10.00">WebUpdateDetector.h</text>
</a>
</g>
</g>
<!-- Node1&#45;&gt;Node19 -->
<g id="edge35_Node000001_Node000019" class="edge">
<title>Node1&#45;&gt;Node19</title>
<g id="a_edge35_Node000001_Node000019"><a xlink:title=" ">
<path fill="none" stroke="#63b8ff" d="M1321.74,-252.99C1375.93,-244.36 1461.6,-230.42 1535.5,-217 1541.67,-215.88 1548.12,-214.67 1554.53,-213.44"/>
<polygon fill="#63b8ff" stroke="#63b8ff" points="1555.34,-216.84 1564.49,-211.5 1554.01,-209.97 1555.34,-216.84"/>
</a>
</g>
</g>
<!-- Node20 -->
<g id="Node000020" class="node">
<title>Node20</title>
<g id="a_Node000020"><a xlink:href="MemaMessages_8h.html" target="_top" xlink:title=" ">
<polygon fill="white" stroke="#666666" points="1360.5,-211.5 1174.5,-211.5 1174.5,-192.5 1360.5,-192.5 1360.5,-211.5"/>
<text text-anchor="middle" x="1267.5" y="-199.5" font-family="Helvetica,sans-Serif" font-size="10.00">MemaProcessor/MemaMessages.h</text>
</a>
</g>
</g>
<!-- Node1&#45;&gt;Node20 -->
<g id="edge36_Node000001_Node000020" class="edge">
<title>Node1&#45;&gt;Node20</title>
<g id="a_edge36_Node000001_Node000020"><a xlink:title=" ">
<path fill="none" stroke="#63b8ff" d="M1267.5,-252.87C1267.5,-244.75 1267.5,-232.31 1267.5,-221.89"/>
<polygon fill="#63b8ff" stroke="#63b8ff" points="1271,-221.67 1267.5,-211.67 1264,-221.67 1271,-221.67"/>
</a>
</g>
</g>
<!-- Node21 -->
<g id="Node000021" class="node">
<title>Node21</title>
<g id="a_Node000021"><a xlink:title=" ">
<polygon fill="#e0e0e0" stroke="#999999" points="1792.5,-211.5 1724.5,-211.5 1724.5,-192.5 1792.5,-192.5 1792.5,-211.5"/>
<text text-anchor="middle" x="1758.5" y="-199.5" font-family="Helvetica,sans-Serif" font-size="10.00">iOS_utils.h</text>
</a>
</g>
</g>
<!-- Node1&#45;&gt;Node21 -->
<g id="edge40_Node000001_Node000021" class="edge">
<title>Node1&#45;&gt;Node21</title>
<g id="a_edge40_Node000001_Node000021"><a xlink:title=" ">
<path fill="none" stroke="#63b8ff" d="M1349.8,-257.76C1439.25,-252.65 1586.06,-241.18 1710.5,-217 1714.46,-216.23 1718.57,-215.28 1722.63,-214.24"/>
<polygon fill="#63b8ff" stroke="#63b8ff" points="1723.84,-217.53 1732.56,-211.51 1721.99,-210.78 1723.84,-217.53"/>
</a>
</g>
</g>
<!-- Node3 -->
<g id="Node000003" class="node">
<title>Node3</title>
<g id="a_Node000003"><a xlink:title=" ">
<polygon fill="#e0e0e0" stroke="#999999" points="881.5,-19 801.5,-19 801.5,0 881.5,0 881.5,-19"/>
<text text-anchor="middle" x="841.5" y="-7" font-family="Helvetica,sans-Serif" font-size="10.00">JuceHeader.h</text>
</a>
</g>
</g>
<!-- Node2&#45;&gt;Node3 -->
<g id="edge2_Node000002_Node000003" class="edge">
<title>Node2&#45;&gt;Node3</title>
<g id="a_edge2_Node000002_Node000003"><a xlink:title=" ">
<path fill="none" stroke="#63b8ff" d="M109.46,-126.26C135.26,-105.73 197.84,-56.03 200.5,-55 308.08,-13.62 659.67,-10.05 791.22,-10.21"/>
<polygon fill="#63b8ff" stroke="#63b8ff" points="791.41,-13.71 801.42,-10.23 791.42,-6.71 791.41,-13.71"/>
</a>
</g>
</g>
<!-- Node4 -->
<g id="Node000004" class="node">
<title>Node4</title>
<g id="a_Node000004"><a xlink:href="MemaReAppConfiguration_8h.html" target="_top" xlink:title=" ">
<polygon fill="white" stroke="#666666" points="153,-79.5 0,-79.5 0,-60.5 153,-60.5 153,-79.5"/>
<text text-anchor="middle" x="76.5" y="-67.5" font-family="Helvetica,sans-Serif" font-size="10.00">MemaReAppConfiguration.h</text>
</a>
</g>
</g>
<!-- Node2&#45;&gt;Node4 -->
<g id="edge3_Node000002_Node000004" class="edge">
<title>Node2&#45;&gt;Node4</title>
<g id="a_edge3_Node000002_Node000004"><a xlink:title=" ">
<path fill="none" stroke="#63b8ff" d="M95.53,-126.37C92.3,-116.97 87.04,-101.67 82.87,-89.53"/>
<polygon fill="#63b8ff" stroke="#63b8ff" points="86.12,-88.22 79.56,-79.91 79.5,-90.5 86.12,-88.22"/>
</a>
</g>
</g>
<!-- Node6 -->
<g id="Node000006" class="node">
<title>Node6</title>
<g id="a_Node000006"><a xlink:href="MemaClientControlComponentBase_8h.html" target="_top" xlink:title=" ">
<polygon fill="white" stroke="#666666" points="722.5,-85 540.5,-85 540.5,-55 722.5,-55 722.5,-85"/>
<text text-anchor="start" x="548.5" y="-73" font-family="Helvetica,sans-Serif" font-size="10.00">MemaClientCommon/MemaClient</text>
<text text-anchor="middle" x="631.5" y="-62" font-family="Helvetica,sans-Serif" font-size="10.00">ControlComponentBase.h</text>
</a>
</g>
</g>
<!-- Node2&#45;&gt;Node6 -->
<g id="edge6_Node000002_Node000006" class="edge">
<title>Node2&#45;&gt;Node6</title>
<g id="a_edge6_Node000002_Node000006"><a xlink:title=" ">
<path fill="none" stroke="#63b8ff" d="M133.12,-126.44C142,-124.44 151.57,-122.48 160.5,-121 287.11,-100.06 434.39,-86.07 530.09,-78.34"/>
<polygon fill="#63b8ff" stroke="#63b8ff" points="530.66,-81.8 540.34,-77.52 530.1,-74.82 530.66,-81.8"/>
</a>
</g>
</g>
<!-- Node7 -->
<g id="Node000007" class="node">
<title>Node7</title>
<g id="a_Node000007"><a xlink:title=" ">
<polygon fill="#e0e0e0" stroke="#999999" points="357,-79.5 210,-79.5 210,-60.5 357,-60.5 357,-79.5"/>
<text text-anchor="middle" x="283.5" y="-67.5" font-family="Helvetica,sans-Serif" font-size="10.00">ServiceTopologyManager.h</text>
</a>
</g>
</g>
<!-- Node2&#45;&gt;Node7 -->
<g id="edge8_Node000002_Node000007" class="edge">
<title>Node2&#45;&gt;Node7</title>
<g id="a_edge8_Node000002_Node000007"><a xlink:title=" ">
<path fill="none" stroke="#63b8ff" d="M123.45,-126.37C155.81,-115.17 212.44,-95.58 248.93,-82.96"/>
<polygon fill="#63b8ff" stroke="#63b8ff" points="250.34,-86.17 258.65,-79.6 248.06,-79.56 250.34,-86.17"/>
</a>
</g>
</g>
<!-- Node4&#45;&gt;Node3 -->
<g id="edge4_Node000004_Node000003" class="edge">
<title>Node4&#45;&gt;Node3</title>
<g id="a_edge4_Node000004_Node000003"><a xlink:title=" ">
<path fill="none" stroke="#63b8ff" d="M126.94,-60.44C140.11,-58.43 154.31,-56.45 167.5,-55 399.8,-29.51 678.85,-16.74 791.11,-12.33"/>
<polygon fill="#63b8ff" stroke="#63b8ff" points="791.27,-15.83 801.13,-11.94 791,-8.83 791.27,-15.83"/>
</a>
</g>
</g>
<!-- Node5 -->
<g id="Node000005" class="node">
<title>Node5</title>
<g id="a_Node000005"><a xlink:title=" ">
<polygon fill="#e0e0e0" stroke="#999999" points="143.5,-19 9.5,-19 9.5,0 143.5,0 143.5,-19"/>
<text text-anchor="middle" x="76.5" y="-7" font-family="Helvetica,sans-Serif" font-size="10.00">AppConfigurationBase.h</text>
</a>
</g>
</g>
<!-- Node4&#45;&gt;Node5 -->
<g id="edge5_Node000004_Node000005" class="edge">
<title>Node4&#45;&gt;Node5</title>
<g id="a_edge5_Node000004_Node000005"><a xlink:title=" ">
<path fill="none" stroke="#63b8ff" d="M76.5,-60.37C76.5,-52.25 76.5,-39.81 76.5,-29.39"/>
<polygon fill="#63b8ff" stroke="#63b8ff" points="80,-29.17 76.5,-19.17 73,-29.17 80,-29.17"/>
</a>
</g>
</g>
<!-- Node6&#45;&gt;Node3 -->
<g id="edge7_Node000006_Node000003" class="edge">
<title>Node6&#45;&gt;Node3</title>
<g id="a_edge7_Node000006_Node000003"><a xlink:title=" ">
<path fill="none" stroke="#63b8ff" d="M681.8,-54.99C718.2,-44.85 766.76,-31.32 800.75,-21.85"/>
<polygon fill="#63b8ff" stroke="#63b8ff" points="802.1,-25.11 810.79,-19.05 800.22,-18.37 802.1,-25.11"/>
</a>
</g>
</g>
<!-- Node8&#45;&gt;Node3 -->
<g id="edge10_Node000008_Node000003" class="edge">
<title>Node8&#45;&gt;Node3</title>
<g id="a_edge10_Node000008_Node000003"><a xlink:title=" ">
<path fill="none" stroke="#63b8ff" d="M1550.25,-60.77C1528.14,-58.79 1504.46,-56.75 1482.5,-55 1262.69,-37.51 1000.16,-20.5 891.94,-13.65"/>
<polygon fill="#63b8ff" stroke="#63b8ff" points="891.85,-10.14 881.65,-13 891.41,-17.13 891.85,-10.14"/>
</a>
</g>
</g>
<!-- Node9&#45;&gt;Node3 -->
<g id="edge12_Node000009_Node000003" class="edge">
<title>Node9&#45;&gt;Node3</title>
<g id="a_edge12_Node000009_Node000003"><a xlink:title=" ">
<path fill="none" stroke="#63b8ff" d="M878.39,-192.45C902.43,-185 933.67,-172.02 954.5,-151 985.87,-119.34 1009.89,-90.92 983.5,-55 962.59,-26.54 923.52,-15.78 891.65,-11.94"/>
<polygon fill="#63b8ff" stroke="#63b8ff" points="891.89,-8.45 881.58,-10.92 891.18,-15.41 891.89,-8.45"/>
</a>
</g>
</g>
<!-- Node10 -->
<g id="Node000010" class="node">
<title>Node10</title>
<g id="a_Node000010"><a xlink:href="FaderbankControlComponent_8h.html" target="_top" xlink:title=" ">
<polygon fill="white" stroke="#666666" points="543,-151 370,-151 370,-121 543,-121 543,-151"/>
<text text-anchor="start" x="378" y="-139" font-family="Helvetica,sans-Serif" font-size="10.00">MemaClientCommon/Faderbank</text>
<text text-anchor="middle" x="456.5" y="-128" font-family="Helvetica,sans-Serif" font-size="10.00">ControlComponent.h</text>
</a>
</g>
</g>
<!-- Node9&#45;&gt;Node10 -->
<g id="edge13_Node000009_Node000010" class="edge">
<title>Node9&#45;&gt;Node10</title>
<g id="a_edge13_Node000009_Node000010"><a xlink:title=" ">
<path fill="none" stroke="#63b8ff" d="M791.71,-192.44C730.41,-182.3 627.1,-165.21 551.34,-152.68"/>
<polygon fill="#63b8ff" stroke="#63b8ff" points="551.74,-149.2 541.31,-151.02 550.6,-156.11 551.74,-149.2"/>
</a>
</g>
</g>
<!-- Node11 -->
<g id="Node000011" class="node">
<title>Node11</title>
<g id="a_Node000011"><a xlink:href="PanningControlComponent_8h.html" target="_top" xlink:title=" ">
<polygon fill="white" stroke="#666666" points="722,-151 561,-151 561,-121 722,-121 722,-151"/>
<text text-anchor="start" x="569" y="-139" font-family="Helvetica,sans-Serif" font-size="10.00">MemaClientCommon/Panning</text>
<text text-anchor="middle" x="641.5" y="-128" font-family="Helvetica,sans-Serif" font-size="10.00">ControlComponent.h</text>
</a>
</g>
</g>
<!-- Node9&#45;&gt;Node11 -->
<g id="edge16_Node000009_Node000011" class="edge">
<title>Node9&#45;&gt;Node11</title>
<g id="a_edge16_Node000009_Node000011"><a xlink:title=" ">
<path fill="none" stroke="#63b8ff" d="M816.26,-192.37C785.48,-182.62 734.62,-166.5 695.68,-154.16"/>
<polygon fill="#63b8ff" stroke="#63b8ff" points="696.64,-150.8 686.05,-151.12 694.53,-157.47 696.64,-150.8"/>
</a>
</g>
</g>
<!-- Node12 -->
<g id="Node000012" class="node">
<title>Node12</title>
<g id="a_Node000012"><a xlink:href="MemaClientCommon_2PluginControlComponent_8h.html" target="_top" xlink:title=" ">
<polygon fill="white" stroke="#666666" points="928.5,-151 740.5,-151 740.5,-121 928.5,-121 928.5,-151"/>
<text text-anchor="start" x="748.5" y="-139" font-family="Helvetica,sans-Serif" font-size="10.00">MemaClientCommon/PluginControl</text>
<text text-anchor="middle" x="834.5" y="-128" font-family="Helvetica,sans-Serif" font-size="10.00">Component.h</text>
</a>
</g>
</g>
<!-- Node9&#45;&gt;Node12 -->
<g id="edge19_Node000009_Node000012" class="edge">
<title>Node9&#45;&gt;Node12</title>
<g id="a_edge19_Node000009_Node000012"><a xlink:title=" ">
<path fill="none" stroke="#63b8ff" d="M842.29,-192.37C841.17,-184.4 839.45,-172.2 837.91,-161.27"/>
<polygon fill="#63b8ff" stroke="#63b8ff" points="841.38,-160.78 836.52,-151.36 834.45,-161.75 841.38,-160.78"/>
</a>
</g>
</g>
<!-- Node13 -->
<g id="Node000013" class="node">
<title>Node13</title>
<g id="a_Node000013"><a xlink:href="MemaPluginParameterInfo_8h.html" target="_top" xlink:title=" ">
<polygon fill="white" stroke="#666666" points="974.5,-85 816.5,-85 816.5,-55 974.5,-55 974.5,-85"/>
<text text-anchor="start" x="824.5" y="-73" font-family="Helvetica,sans-Serif" font-size="10.00">MemaProcessor/MemaPlugin</text>
<text text-anchor="middle" x="895.5" y="-62" font-family="Helvetica,sans-Serif" font-size="10.00">ParameterInfo.h</text>
</a>
</g>
</g>
<!-- Node9&#45;&gt;Node13 -->
<g id="edge24_Node000009_Node000013" class="edge">
<title>Node9&#45;&gt;Node13</title>
<g id="a_edge24_Node000009_Node000013"><a xlink:title=" ">
<path fill="none" stroke="#63b8ff" d="M878.04,-192.39C899.21,-185.13 924.65,-172.39 937.5,-151 949.09,-131.7 934.49,-108.9 919.42,-92.59"/>
<polygon fill="#63b8ff" stroke="#63b8ff" points="921.6,-89.81 912.09,-85.14 916.61,-94.72 921.6,-89.81"/>
</a>
</g>
</g>
<!-- Node10&#45;&gt;Node3 -->
<g id="edge14_Node000010_Node000003" class="edge">
<title>Node10&#45;&gt;Node3</title>
<g id="a_edge14_Node000010_Node000003"><a xlink:title=" ">
<path fill="none" stroke="#63b8ff" d="M465.19,-120.98C477.48,-102.48 501.78,-70.48 531.5,-55 575.66,-32 715.28,-19.14 791.19,-13.67"/>
<polygon fill="#63b8ff" stroke="#63b8ff" points="791.73,-17.14 801.46,-12.95 791.24,-10.16 791.73,-17.14"/>
</a>
</g>
</g>
<!-- Node10&#45;&gt;Node6 -->
<g id="edge15_Node000010_Node000006" class="edge">
<title>Node10&#45;&gt;Node6</title>
<g id="a_edge15_Node000010_Node000006"><a xlink:title=" ">
<path fill="none" stroke="#63b8ff" d="M494.9,-120.95C521.01,-111.41 555.72,-98.71 583.63,-88.51"/>
<polygon fill="#63b8ff" stroke="#63b8ff" points="585,-91.73 593.19,-85.01 582.59,-85.16 585,-91.73"/>
</a>
</g>
</g>
<!-- Node11&#45;&gt;Node3 -->
<g id="edge17_Node000011_Node000003" class="edge">
<title>Node11&#45;&gt;Node3</title>
<g id="a_edge17_Node000011_Node000003"><a xlink:title=" ">
<path fill="none" stroke="#63b8ff" d="M668.24,-120.95C686.33,-111.24 710.64,-97.82 731.5,-85 763.62,-65.25 799.57,-40.35 821.37,-24.92"/>
<polygon fill="#63b8ff" stroke="#63b8ff" points="823.4,-27.77 829.52,-19.12 819.34,-22.07 823.4,-27.77"/>
</a>
</g>
</g>
<!-- Node11&#45;&gt;Node6 -->
<g id="edge18_Node000011_Node000006" class="edge">
<title>Node11&#45;&gt;Node6</title>
<g id="a_edge18_Node000011_Node000006"><a xlink:title=" ">
<path fill="none" stroke="#63b8ff" d="M639.28,-120.8C638.1,-113.26 636.62,-103.78 635.27,-95.13"/>
<polygon fill="#63b8ff" stroke="#63b8ff" points="638.72,-94.5 633.71,-85.16 631.8,-95.58 638.72,-94.5"/>
</a>
</g>
</g>
<!-- Node12&#45;&gt;Node3 -->
<g id="edge20_Node000012_Node000003" class="edge">
<title>Node12&#45;&gt;Node3</title>
<g id="a_edge20_Node000012_Node000003"><a xlink:title=" ">
<path fill="none" stroke="#63b8ff" d="M823.94,-120.84C813.37,-104.84 799.7,-78.05 807.5,-55 811.06,-44.47 818.22,-34.48 825.05,-26.63"/>
<polygon fill="#63b8ff" stroke="#63b8ff" points="827.63,-29.01 831.89,-19.31 822.51,-24.23 827.63,-29.01"/>
</a>
</g>
</g>
<!-- Node12&#45;&gt;Node6 -->
<g id="edge21_Node000012_Node000006" class="edge">
<title>Node12&#45;&gt;Node6</title>
<g id="a_edge21_Node000012_Node000006"><a xlink:title=" ">
<path fill="none" stroke="#63b8ff" d="M789.95,-120.95C759.28,-111.28 718.34,-98.38 685.77,-88.11"/>
<polygon fill="#63b8ff" stroke="#63b8ff" points="686.53,-84.68 675.95,-85.01 684.43,-91.36 686.53,-84.68"/>
</a>
</g>
</g>
<!-- Node12&#45;&gt;Node13 -->
<g id="edge22_Node000012_Node000013" class="edge">
<title>Node12&#45;&gt;Node13</title>
<g id="a_edge22_Node000012_Node000013"><a xlink:title=" ">
<path fill="none" stroke="#63b8ff" d="M848.04,-120.8C855.94,-112.51 866.06,-101.89 874.92,-92.59"/>
<polygon fill="#63b8ff" stroke="#63b8ff" points="877.63,-94.82 882,-85.16 872.57,-89.99 877.63,-94.82"/>
</a>
</g>
</g>
<!-- Node13&#45;&gt;Node3 -->
<g id="edge23_Node000013_Node000003" class="edge">
<title>Node13&#45;&gt;Node3</title>
<g id="a_edge23_Node000013_Node000003"><a xlink:title=" ">
<path fill="none" stroke="#63b8ff" d="M882.43,-54.84C874.59,-46.35 864.59,-35.52 856.44,-26.69"/>
<polygon fill="#63b8ff" stroke="#63b8ff" points="858.95,-24.24 849.59,-19.27 853.8,-28.99 858.95,-24.24"/>
</a>
</g>
</g>
<!-- Node14&#45;&gt;Node3 -->
<g id="edge26_Node000014_Node000003" class="edge">
<title>Node14&#45;&gt;Node3</title>
<g id="a_edge26_Node000014_Node000003"><a xlink:title=" ">
<path fill="none" stroke="#63b8ff" d="M293.75,-120.96C337.9,-102.9 418.68,-71.85 490.5,-55 595.87,-30.28 722.48,-18.51 791.17,-13.57"/>
<polygon fill="#63b8ff" stroke="#63b8ff" points="791.54,-17.05 801.28,-12.86 791.06,-10.07 791.54,-17.05"/>
</a>
</g>
</g>
<!-- Node14&#45;&gt;Node7 -->
<g id="edge27_Node000014_Node000007" class="edge">
<title>Node14&#45;&gt;Node7</title>
<g id="a_edge27_Node000014_Node000007"><a xlink:title=" ">
<path fill="none" stroke="#63b8ff" d="M265.6,-120.8C268.94,-111.5 273.34,-99.27 276.94,-89.26"/>
<polygon fill="#63b8ff" stroke="#63b8ff" points="280.23,-90.44 280.32,-79.84 273.65,-88.07 280.23,-90.44"/>
</a>
</g>
</g>
<!-- Node15&#45;&gt;Node3 -->
<g id="edge29_Node000015_Node000003" class="edge">
<title>Node15&#45;&gt;Node3</title>
<g id="a_edge29_Node000015_Node000003"><a xlink:title=" ">
<path fill="none" stroke="#63b8ff" d="M1054.43,-54.99C1004.35,-44.52 936.98,-30.45 891.54,-20.96"/>
<polygon fill="#63b8ff" stroke="#63b8ff" points="892.13,-17.5 881.63,-18.88 890.7,-24.35 892.13,-17.5"/>
</a>
</g>
</g>
<!-- Node16&#45;&gt;Node3 -->
<g id="edge31_Node000016_Node000003" class="edge">
<title>Node16&#45;&gt;Node3</title>
<g id="a_edge31_Node000016_Node000003"><a xlink:title=" ">
<path fill="none" stroke="#63b8ff" d="M1108.28,-186.87C1164.49,-161.46 1266.81,-105.92 1221.5,-55 1199.94,-30.77 990.04,-17.61 891.77,-12.73"/>
<polygon fill="#63b8ff" stroke="#63b8ff" points="891.93,-9.23 881.77,-12.24 891.59,-16.23 891.93,-9.23"/>
</a>
</g>
</g>
<!-- Node17&#45;&gt;Node3 -->
<g id="edge33_Node000017_Node000003" class="edge">
<title>Node17&#45;&gt;Node3</title>
<g id="a_edge33_Node000017_Node000003"><a xlink:title=" ">
<path fill="none" stroke="#63b8ff" d="M1470.83,-192.28C1469.14,-176.09 1463.27,-141.18 1443.5,-121 1384.74,-61.04 1348.23,-74.19 1266.5,-55 1133.62,-23.8 972.21,-14.46 891.92,-11.68"/>
<polygon fill="#63b8ff" stroke="#63b8ff" points="891.72,-8.17 881.61,-11.34 891.49,-15.16 891.72,-8.17"/>
</a>
</g>
</g>
<!-- Node20&#45;&gt;Node3 -->
<g id="edge37_Node000020_Node000003" class="edge">
<title>Node20&#45;&gt;Node3</title>
<g id="a_edge37_Node000020_Node000003"><a xlink:title=" ">
<path fill="none" stroke="#63b8ff" d="M1269.05,-192.49C1273.1,-167.24 1281.15,-92.14 1241.5,-55 1216.42,-31.51 993.63,-17.84 891.84,-12.77"/>
<polygon fill="#63b8ff" stroke="#63b8ff" points="891.95,-9.27 881.79,-12.28 891.61,-16.27 891.95,-9.27"/>
</a>
</g>
</g>
<!-- Node20&#45;&gt;Node13 -->
<g id="edge39_Node000020_Node000013" class="edge">
<title>Node20&#45;&gt;Node13</title>
<g id="a_edge39_Node000020_Node000013"><a xlink:title=" ">
<path fill="none" stroke="#63b8ff" d="M1243.09,-192.47C1182.83,-171.41 1026.01,-116.61 945.22,-88.37"/>
<polygon fill="#63b8ff" stroke="#63b8ff" points="946.35,-85.06 935.75,-85.07 944.04,-91.67 946.35,-85.06"/>
</a>
</g>
</g>
<!-- Node20&#45;&gt;Node18 -->
<g id="edge38_Node000020_Node000018" class="edge">
<title>Node20&#45;&gt;Node18</title>
<g id="a_edge38_Node000020_Node000018"><a xlink:title=" ">
<path fill="none" stroke="#63b8ff" d="M1281.66,-192.37C1299.04,-181.78 1328.74,-163.67 1349.43,-151.06"/>
<polygon fill="#63b8ff" stroke="#63b8ff" points="1351.51,-153.89 1358.23,-145.7 1347.87,-147.92 1351.51,-153.89"/>
</a>
</g>
</g>
</g>
</svg>
