<?xml version="1.0" encoding="UTF-8" standalone="no"?>
<!DOCTYPE svg PUBLIC "-//W3C//DTD SVG 1.1//EN"
 "http://www.w3.org/Graphics/SVG/1.1/DTD/svg11.dtd">
<!-- Generated by graphviz version 2.43.0 (0)
 -->
<!-- Title: MemaMo/MainComponent.cpp Pages: 1 -->
<!--zoomable 214 -->

<svg id="main" version="1.1" xmlns="http://www.w3.org/2000/svg" xmlns:xlink="http://www.w3.org/1999/xlink" xml:space="preserve" onload="init(evt)">
<style type="text/css"><![CDATA[
.node, .edge {opacity: 0.7;}
.node.selected, .edge.selected {opacity: 1;}
.edge:hover path { stroke: red; }
.edge:hover polygon { stroke: red; fill: red; }
]]></style>

<defs>
  <circle id="rim" cx="0" cy="0" r="7"/>
  <circle id="rim2" cx="0" cy="0" r="3.5"/>
  <g id="zoomPlus">
    <use xlink:href="#rim" fill="#404040"><set attributeName="fill" to="#808080" begin="zoomplus.mouseover" end="zoomplus.mouseout"/></use>
    <path d="M-4,0h8M0,-4v8" fill="none" stroke="white" stroke-width="1.5" pointer-events="none"/>
  </g>
  <g id="zoomMin">
    <use xlink:href="#rim" fill="#404040"><set attributeName="fill" to="#808080" begin="zoomminus.mouseover" end="zoomminus.mouseout"/></use>
    <path d="M-4,0h8" fill="none" stroke="white" stroke-width="1.5" pointer-events="none"/>
  </g>
  <g id="arrowUp" transform="translate(30 24)">
    <use xlink:href="#rim"/>
    <path pointer-events="none" fill="none" stroke="white" stroke-width="1.5" d="M0,-3.0v7 M-2.5,-0.5L0,-3.0L2.5,-0.5"/>
  </g>
  <g id="arrowRight" transform="rotate(90) translate(36 -43)">
    <use xlink:href="#rim"/>
    <path pointer-events="none" fill="none" stroke="white" stroke-width="1.5" d="M0,-3.0v7 M-2.5,-0.5L0,-3.0L2.5,-0.5"/>
  </g>
  <g id="arrowDown" transform="rotate(180) translate(-30 -48)">
    <use xlink:href="#rim"/>
    <path pointer-events="none" fill="none" stroke="white" stroke-width="1.5" d="M0,-3.0v7 M-2.5,-0.5L0,-3.0L2.5,-0.5"/>
  </g>
  <g id="arrowLeft" transform="rotate(270) translate(-36 17)">
    <use xlink:href="#rim"/>
    <path pointer-events="none" fill="none" stroke="white" stroke-width="1.5" d="M0,-3.0v7 M-2.5,-0.5L0,-3.0L2.5,-0.5"/>
  </g>
  <g id="resetDef">
    <use xlink:href="#rim2" fill="#404040"><set attributeName="fill" to="#808080" begin="reset.mouseover" end="reset.mouseout"/></use>
  </g>
</defs>
<script type="application/ecmascript">
var viewWidth = 1491;
var viewHeight = 214;
var sectionId = 'dynsection-0';
</script>
<script type="application/ecmascript" xlink:href="svg.min.js"/>
<svg id="graph" class="graph">
<g id="viewport">
<title>MemaMo/MainComponent.cpp</title>
<!-- Node1 -->
<g id="Node000001" class="node">
<title>Node1</title>
<g id="a_Node000001"><a xlink:title=" ">
<polygon fill="#999999" stroke="#666666" points="979.5,-206 813.5,-206 813.5,-187 979.5,-187 979.5,-206"/>
<text text-anchor="middle" x="896.5" y="-194" font-family="Helvetica,sans-Serif" font-size="10.00">MemaMo/MainComponent.cpp</text>
</a>
</g>
</g>
<!-- Node2 -->
<g id="Node000002" class="node">
<title>Node2</title>
<g id="a_Node000002"><a xlink:href="MemaMo_2MainComponent_8h.html" target="_top" xlink:title=" ">
<polygon fill="white" stroke="#666666" points="257.5,-145.5 151.5,-145.5 151.5,-126.5 257.5,-126.5 257.5,-145.5"/>
<text text-anchor="middle" x="204.5" y="-133.5" font-family="Helvetica,sans-Serif" font-size="10.00">MainComponent.h</text>
</a>
</g>
</g>
<!-- Node1&#45;&gt;Node2 -->
<g id="edge1_Node000001_Node000002" class="edge">
<title>Node1&#45;&gt;Node2</title>
<g id="a_edge1_Node000001_Node000002"><a xlink:title=" ">
<path fill="none" stroke="#63b8ff" d="M813.02,-191.89C695.47,-186.25 474.58,-173.56 287.5,-151 278.75,-149.94 269.52,-148.61 260.51,-147.19"/>
<polygon fill="#63b8ff" stroke="#63b8ff" points="260.92,-143.71 250.49,-145.55 259.79,-150.61 260.92,-143.71"/>
</a>
</g>
</g>
<!-- Node7 -->
<g id="Node000007" class="node">
<title>Node7</title>
<g id="a_Node000007"><a xlink:href="CustomPopupMenuComponent_8h.html" target="_top" xlink:title=" ">
<polygon fill="white" stroke="#666666" points="946.5,-79.5 770.5,-79.5 770.5,-60.5 946.5,-60.5 946.5,-79.5"/>
<text text-anchor="middle" x="858.5" y="-67.5" font-family="Helvetica,sans-Serif" font-size="10.00">CustomPopupMenuComponent.h</text>
</a>
</g>
</g>
<!-- Node1&#45;&gt;Node7 -->
<g id="edge7_Node000001_Node000007" class="edge">
<title>Node1&#45;&gt;Node7</title>
<g id="a_edge7_Node000001_Node000007"><a xlink:title=" ">
<path fill="none" stroke="#63b8ff" d="M893.78,-186.98C890.94,-178.03 886.35,-163.54 882.5,-151 876.06,-130.05 868.86,-105.96 864.04,-89.73"/>
<polygon fill="#63b8ff" stroke="#63b8ff" points="867.32,-88.48 861.12,-79.89 860.61,-90.47 867.32,-88.48"/>
</a>
</g>
</g>
<!-- Node8 -->
<g id="Node000008" class="node">
<title>Node8</title>
<g id="a_Node000008"><a xlink:href="MemaMoComponent_8h.html" target="_top" xlink:title=" ">
<polygon fill="white" stroke="#666666" points="1092.5,-79.5 964.5,-79.5 964.5,-60.5 1092.5,-60.5 1092.5,-79.5"/>
<text text-anchor="middle" x="1028.5" y="-67.5" font-family="Helvetica,sans-Serif" font-size="10.00">MemaMoComponent.h</text>
</a>
</g>
</g>
<!-- Node1&#45;&gt;Node8 -->
<g id="edge9_Node000001_Node000008" class="edge">
<title>Node1&#45;&gt;Node8</title>
<g id="a_edge9_Node000001_Node000008"><a xlink:title=" ">
<path fill="none" stroke="#63b8ff" d="M897.1,-186.57C898.56,-171.34 903.57,-140.13 920.5,-121 936.83,-102.55 961.37,-90.44 982.94,-82.77"/>
<polygon fill="#63b8ff" stroke="#63b8ff" points="984.22,-86.03 992.6,-79.55 982.01,-79.39 984.22,-86.03"/>
</a>
</g>
</g>
<!-- Node9 -->
<g id="Node000009" class="node">
<title>Node9</title>
<g id="a_Node000009"><a xlink:href="MemaClientDiscoverComponent_8h.html" target="_top" xlink:title=" ">
<polygon fill="white" stroke="#666666" points="478.5,-151 296.5,-151 296.5,-121 478.5,-121 478.5,-151"/>
<text text-anchor="start" x="304.5" y="-139" font-family="Helvetica,sans-Serif" font-size="10.00">MemaClientCommon/MemaClient</text>
<text text-anchor="middle" x="387.5" y="-128" font-family="Helvetica,sans-Serif" font-size="10.00">DiscoverComponent.h</text>
</a>
</g>
</g>
<!-- Node1&#45;&gt;Node9 -->
<g id="edge11_Node000001_Node000009" class="edge">
<title>Node1&#45;&gt;Node9</title>
<g id="a_edge11_Node000001_Node000009"><a xlink:title=" ">
<path fill="none" stroke="#63b8ff" d="M822.49,-186.99C734.52,-176.88 587.28,-159.96 488.8,-148.64"/>
<polygon fill="#63b8ff" stroke="#63b8ff" points="489.16,-145.16 478.82,-147.5 488.36,-152.12 489.16,-145.16"/>
</a>
</g>
</g>
<!-- Node10 -->
<g id="Node000010" class="node">
<title>Node10</title>
<g id="a_Node000010"><a xlink:href="MemaClientConnectingComponent_8h.html" target="_top" xlink:title=" ">
<polygon fill="white" stroke="#666666" points="1292.5,-85 1110.5,-85 1110.5,-55 1292.5,-55 1292.5,-85"/>
<text text-anchor="start" x="1118.5" y="-73" font-family="Helvetica,sans-Serif" font-size="10.00">MemaClientCommon/MemaClient</text>
<text text-anchor="middle" x="1201.5" y="-62" font-family="Helvetica,sans-Serif" font-size="10.00">ConnectingComponent.h</text>
</a>
</g>
</g>
<!-- Node1&#45;&gt;Node10 -->
<g id="edge14_Node000001_Node000010" class="edge">
<title>Node1&#45;&gt;Node10</title>
<g id="a_edge14_Node000001_Node000010"><a xlink:title=" ">
<path fill="none" stroke="#63b8ff" d="M900.43,-186.97C908.18,-171.19 926.98,-137.56 953.5,-121 966.8,-112.69 1042.49,-98.08 1106.79,-86.8"/>
<polygon fill="#63b8ff" stroke="#63b8ff" points="1107.75,-90.18 1117,-85.02 1106.55,-83.29 1107.75,-90.18"/>
</a>
</g>
</g>
<!-- Node11 -->
<g id="Node000011" class="node">
<title>Node11</title>
<g id="a_Node000011"><a xlink:href="MemaServiceData_8h.html" target="_top" xlink:title=" ">
<polygon fill="white" stroke="#666666" points="1126.5,-151 962.5,-151 962.5,-121 1126.5,-121 1126.5,-151"/>
<text text-anchor="start" x="970.5" y="-139" font-family="Helvetica,sans-Serif" font-size="10.00">MemaProcessor/MemaService</text>
<text text-anchor="middle" x="1044.5" y="-128" font-family="Helvetica,sans-Serif" font-size="10.00">Data.h</text>
</a>
</g>
</g>
<!-- Node1&#45;&gt;Node11 -->
<g id="edge16_Node000001_Node000011" class="edge">
<title>Node1&#45;&gt;Node11</title>
<g id="a_edge16_Node000001_Node000011"><a xlink:title=" ">
<path fill="none" stroke="#63b8ff" d="M918.02,-186.99C939.23,-178.61 972.28,-165.55 999.28,-154.87"/>
<polygon fill="#63b8ff" stroke="#63b8ff" points="1000.91,-158 1008.92,-151.06 998.33,-151.49 1000.91,-158"/>
</a>
</g>
</g>
<!-- Node12 -->
<g id="Node000012" class="node">
<title>Node12</title>
<g id="a_Node000012"><a xlink:href="AboutComponent_8h.html" target="_top" xlink:title=" ">
<polygon fill="white" stroke="#666666" points="1254.5,-145.5 1144.5,-145.5 1144.5,-126.5 1254.5,-126.5 1254.5,-145.5"/>
<text text-anchor="middle" x="1199.5" y="-133.5" font-family="Helvetica,sans-Serif" font-size="10.00">AboutComponent.h</text>
</a>
</g>
</g>
<!-- Node1&#45;&gt;Node12 -->
<g id="edge18_Node000001_Node000012" class="edge">
<title>Node1&#45;&gt;Node12</title>
<g id="a_edge18_Node000001_Node000012"><a xlink:title=" ">
<path fill="none" stroke="#63b8ff" d="M944.65,-186.99C992.98,-178.34 1069.52,-164.36 1135.5,-151 1140.59,-149.97 1145.91,-148.86 1151.21,-147.73"/>
<polygon fill="#63b8ff" stroke="#63b8ff" points="1152.26,-151.09 1161.3,-145.56 1150.79,-144.24 1152.26,-151.09"/>
</a>
</g>
</g>
<!-- Node13 -->
<g id="Node000013" class="node">
<title>Node13</title>
<g id="a_Node000013"><a xlink:title=" ">
<polygon fill="#e0e0e0" stroke="#999999" points="752,-79.5 627,-79.5 627,-60.5 752,-60.5 752,-79.5"/>
<text text-anchor="middle" x="689.5" y="-67.5" font-family="Helvetica,sans-Serif" font-size="10.00">CustomLookAndFeel.h</text>
</a>
</g>
</g>
<!-- Node1&#45;&gt;Node13 -->
<g id="edge20_Node000001_Node000013" class="edge">
<title>Node1&#45;&gt;Node13</title>
<g id="a_edge20_Node000001_Node000013"><a xlink:title=" ">
<path fill="none" stroke="#63b8ff" d="M882.27,-186.94C847.04,-165.75 755.49,-110.69 712.47,-84.82"/>
<polygon fill="#63b8ff" stroke="#63b8ff" points="714.2,-81.77 703.83,-79.62 710.59,-87.77 714.2,-81.77"/>
</a>
</g>
</g>
<!-- Node14 -->
<g id="Node000014" class="node">
<title>Node14</title>
<g id="a_Node000014"><a xlink:title=" ">
<polygon fill="#e0e0e0" stroke="#999999" points="1396,-145.5 1273,-145.5 1273,-126.5 1396,-126.5 1396,-145.5"/>
<text text-anchor="middle" x="1334.5" y="-133.5" font-family="Helvetica,sans-Serif" font-size="10.00">WebUpdateDetector.h</text>
</a>
</g>
</g>
<!-- Node1&#45;&gt;Node14 -->
<g id="edge21_Node000001_Node000014" class="edge">
<title>Node1&#45;&gt;Node14</title>
<g id="a_edge21_Node000001_Node000014"><a xlink:title=" ">
<path fill="none" stroke="#63b8ff" d="M979.83,-187.17C1054.37,-179.3 1166.52,-166.42 1263.5,-151 1270.17,-149.94 1277.17,-148.71 1284.06,-147.42"/>
<polygon fill="#63b8ff" stroke="#63b8ff" points="1284.88,-150.83 1294.04,-145.52 1283.56,-143.95 1284.88,-150.83"/>
</a>
</g>
</g>
<!-- Node15 -->
<g id="Node000015" class="node">
<title>Node15</title>
<g id="a_Node000015"><a xlink:href="MemaMessages_8h.html" target="_top" xlink:title=" ">
<polygon fill="white" stroke="#666666" points="732.5,-145.5 546.5,-145.5 546.5,-126.5 732.5,-126.5 732.5,-145.5"/>
<text text-anchor="middle" x="639.5" y="-133.5" font-family="Helvetica,sans-Serif" font-size="10.00">MemaProcessor/MemaMessages.h</text>
</a>
</g>
</g>
<!-- Node1&#45;&gt;Node15 -->
<g id="edge22_Node000001_Node000015" class="edge">
<title>Node1&#45;&gt;Node15</title>
<g id="a_edge22_Node000001_Node000015"><a xlink:title=" ">
<path fill="none" stroke="#63b8ff" d="M859.13,-186.99C813.55,-176.62 736.44,-159.07 686.77,-147.76"/>
<polygon fill="#63b8ff" stroke="#63b8ff" points="687.44,-144.32 676.92,-145.52 685.89,-151.15 687.44,-144.32"/>
</a>
</g>
</g>
<!-- Node17 -->
<g id="Node000017" class="node">
<title>Node17</title>
<g id="a_Node000017"><a xlink:title=" ">
<polygon fill="#e0e0e0" stroke="#999999" points="1482.5,-145.5 1414.5,-145.5 1414.5,-126.5 1482.5,-126.5 1482.5,-145.5"/>
<text text-anchor="middle" x="1448.5" y="-133.5" font-family="Helvetica,sans-Serif" font-size="10.00">iOS_utils.h</text>
</a>
</g>
</g>
<!-- Node1&#45;&gt;Node17 -->
<g id="edge27_Node000001_Node000017" class="edge">
<title>Node1&#45;&gt;Node17</title>
<g id="a_edge27_Node000001_Node000017"><a xlink:title=" ">
<path fill="none" stroke="#63b8ff" d="M979.76,-194.01C1081.25,-190.88 1257.52,-181.15 1405.5,-151 1408.91,-150.31 1412.43,-149.43 1415.92,-148.46"/>
<polygon fill="#63b8ff" stroke="#63b8ff" points="1417,-151.79 1425.55,-145.54 1414.96,-145.09 1417,-151.79"/>
</a>
</g>
</g>
<!-- Node3 -->
<g id="Node000003" class="node">
<title>Node3</title>
<g id="a_Node000003"><a xlink:title=" ">
<polygon fill="#e0e0e0" stroke="#999999" points="734.5,-19 654.5,-19 654.5,0 734.5,0 734.5,-19"/>
<text text-anchor="middle" x="694.5" y="-7" font-family="Helvetica,sans-Serif" font-size="10.00">JuceHeader.h</text>
</a>
</g>
</g>
<!-- Node2&#45;&gt;Node3 -->
<g id="edge2_Node000002_Node000003" class="edge">
<title>Node2&#45;&gt;Node3</title>
<g id="a_edge2_Node000002_Node000003"><a xlink:title=" ">
<path fill="none" stroke="#63b8ff" d="M200.81,-126.19C194.63,-109.85 184.51,-74.69 202.5,-55 231.88,-22.85 524.37,-13.7 643.95,-11.3"/>
<polygon fill="#63b8ff" stroke="#63b8ff" points="644.37,-14.79 654.3,-11.1 644.23,-7.79 644.37,-14.79"/>
</a>
</g>
</g>
<!-- Node4 -->
<g id="Node000004" class="node">
<title>Node4</title>
<g id="a_Node000004"><a xlink:href="MemaMoAppConfiguration_8h.html" target="_top" xlink:title=" ">
<polygon fill="white" stroke="#666666" points="155,-79.5 0,-79.5 0,-60.5 155,-60.5 155,-79.5"/>
<text text-anchor="middle" x="77.5" y="-67.5" font-family="Helvetica,sans-Serif" font-size="10.00">MemaMoAppConfiguration.h</text>
</a>
</g>
</g>
<!-- Node2&#45;&gt;Node4 -->
<g id="edge3_Node000002_Node000004" class="edge">
<title>Node2&#45;&gt;Node4</title>
<g id="a_edge3_Node000002_Node000004"><a xlink:title=" ">
<path fill="none" stroke="#63b8ff" d="M187.37,-126.37C165.88,-115.54 128.8,-96.85 103.73,-84.22"/>
<polygon fill="#63b8ff" stroke="#63b8ff" points="105.27,-81.07 94.76,-79.7 102.12,-87.32 105.27,-81.07"/>
</a>
</g>
</g>
<!-- Node6 -->
<g id="Node000006" class="node">
<title>Node6</title>
<g id="a_Node000006"><a xlink:title=" ">
<polygon fill="#e0e0e0" stroke="#999999" points="359,-79.5 212,-79.5 212,-60.5 359,-60.5 359,-79.5"/>
<text text-anchor="middle" x="285.5" y="-67.5" font-family="Helvetica,sans-Serif" font-size="10.00">ServiceTopologyManager.h</text>
</a>
</g>
</g>
<!-- Node2&#45;&gt;Node6 -->
<g id="edge6_Node000002_Node000006" class="edge">
<title>Node2&#45;&gt;Node6</title>
<g id="a_edge6_Node000002_Node000006"><a xlink:title=" ">
<path fill="none" stroke="#63b8ff" d="M215.42,-126.37C228.47,-116.06 250.51,-98.65 266.4,-86.09"/>
<polygon fill="#63b8ff" stroke="#63b8ff" points="268.81,-88.64 274.49,-79.7 264.47,-83.15 268.81,-88.64"/>
</a>
</g>
</g>
<!-- Node4&#45;&gt;Node3 -->
<g id="edge4_Node000004_Node000003" class="edge">
<title>Node4&#45;&gt;Node3</title>
<g id="a_edge4_Node000004_Node000003"><a xlink:title=" ">
<path fill="none" stroke="#63b8ff" d="M129.48,-60.47C142.52,-58.5 156.5,-56.54 169.5,-55 343.3,-34.43 550.56,-19.75 644.19,-13.65"/>
<polygon fill="#63b8ff" stroke="#63b8ff" points="644.48,-17.14 654.23,-13 644.03,-10.15 644.48,-17.14"/>
</a>
</g>
</g>
<!-- Node5 -->
<g id="Node000005" class="node">
<title>Node5</title>
<g id="a_Node000005"><a xlink:title=" ">
<polygon fill="#e0e0e0" stroke="#999999" points="144.5,-19 10.5,-19 10.5,0 144.5,0 144.5,-19"/>
<text text-anchor="middle" x="77.5" y="-7" font-family="Helvetica,sans-Serif" font-size="10.00">AppConfigurationBase.h</text>
</a>
</g>
</g>
<!-- Node4&#45;&gt;Node5 -->
<g id="edge5_Node000004_Node000005" class="edge">
<title>Node4&#45;&gt;Node5</title>
<g id="a_edge5_Node000004_Node000005"><a xlink:title=" ">
<path fill="none" stroke="#63b8ff" d="M77.5,-60.37C77.5,-52.25 77.5,-39.81 77.5,-29.39"/>
<polygon fill="#63b8ff" stroke="#63b8ff" points="81,-29.17 77.5,-19.17 74,-29.17 81,-29.17"/>
</a>
</g>
</g>
<!-- Node7&#45;&gt;Node3 -->
<g id="edge8_Node000007_Node000003" class="edge">
<title>Node7&#45;&gt;Node3</title>
<g id="a_edge8_Node000007_Node000003"><a xlink:title=" ">
<path fill="none" stroke="#63b8ff" d="M834.65,-60.49C806.6,-50.49 759.83,-33.8 728.1,-22.49"/>
<polygon fill="#63b8ff" stroke="#63b8ff" points="728.97,-19.08 718.38,-19.02 726.62,-25.67 728.97,-19.08"/>
</a>
</g>
</g>
<!-- Node8&#45;&gt;Node3 -->
<g id="edge10_Node000008_Node000003" class="edge">
<title>Node8&#45;&gt;Node3</title>
<g id="a_edge10_Node000008_Node000003"><a xlink:title=" ">
<path fill="none" stroke="#63b8ff" d="M984.91,-60.49C975.23,-58.64 965.02,-56.72 955.5,-55 882.35,-41.75 797.47,-27.48 744.86,-18.77"/>
<polygon fill="#63b8ff" stroke="#63b8ff" points="745.22,-15.28 734.79,-17.1 744.08,-22.19 745.22,-15.28"/>
</a>
</g>
</g>
<!-- Node9&#45;&gt;Node3 -->
<g id="edge12_Node000009_Node000003" class="edge">
<title>Node9&#45;&gt;Node3</title>
<g id="a_edge12_Node000009_Node000003"><a xlink:title=" ">
<path fill="none" stroke="#63b8ff" d="M391.14,-120.87C396.63,-102.55 408.89,-71.07 431.5,-55 464.87,-31.29 577.58,-19.1 644.13,-13.83"/>
<polygon fill="#63b8ff" stroke="#63b8ff" points="644.69,-17.3 654.4,-13.05 644.16,-10.32 644.69,-17.3"/>
</a>
</g>
</g>
<!-- Node9&#45;&gt;Node6 -->
<g id="edge13_Node000009_Node000006" class="edge">
<title>Node9&#45;&gt;Node6</title>
<g id="a_edge13_Node000009_Node000006"><a xlink:title=" ">
<path fill="none" stroke="#63b8ff" d="M365.12,-120.95C348.09,-110.27 324.79,-95.65 307.79,-84.98"/>
<polygon fill="#63b8ff" stroke="#63b8ff" points="309.41,-81.87 299.07,-79.52 305.68,-87.8 309.41,-81.87"/>
</a>
</g>
</g>
<!-- Node10&#45;&gt;Node3 -->
<g id="edge15_Node000010_Node000003" class="edge">
<title>Node10&#45;&gt;Node3</title>
<g id="a_edge15_Node000010_Node000003"><a xlink:title=" ">
<path fill="none" stroke="#63b8ff" d="M1110.5,-56.14C1107.46,-55.75 1104.46,-55.37 1101.5,-55 973.34,-39.03 822.07,-23.31 745.06,-15.53"/>
<polygon fill="#63b8ff" stroke="#63b8ff" points="745,-12.01 734.7,-14.49 744.29,-18.97 745,-12.01"/>
</a>
</g>
</g>
<!-- Node11&#45;&gt;Node3 -->
<g id="edge17_Node000011_Node000003" class="edge">
<title>Node11&#45;&gt;Node3</title>
<g id="a_edge17_Node000011_Node000003"><a xlink:title=" ">
<path fill="none" stroke="#63b8ff" d="M1126.84,-121.56C1199.84,-109.24 1295.81,-91.91 1301.5,-85 1309.98,-74.71 1310.58,-64.77 1301.5,-55 1263.95,-14.6 883.81,-10.5 744.94,-10.36"/>
<polygon fill="#63b8ff" stroke="#63b8ff" points="744.59,-6.86 734.59,-10.36 744.59,-13.86 744.59,-6.86"/>
</a>
</g>
</g>
<!-- Node12&#45;&gt;Node3 -->
<g id="edge19_Node000012_Node000003" class="edge">
<title>Node12&#45;&gt;Node3</title>
<g id="a_edge19_Node000012_Node000003"><a xlink:title=" ">
<path fill="none" stroke="#63b8ff" d="M1233.56,-126.49C1278.59,-113.73 1348.87,-87.61 1318.5,-55 1279.73,-13.37 886.49,-10.07 744.93,-10.25"/>
<polygon fill="#63b8ff" stroke="#63b8ff" points="744.78,-6.75 734.79,-10.27 744.79,-13.75 744.78,-6.75"/>
</a>
</g>
</g>
<!-- Node15&#45;&gt;Node3 -->
<g id="edge23_Node000015_Node000003" class="edge">
<title>Node15&#45;&gt;Node3</title>
<g id="a_edge23_Node000015_Node000003"><a xlink:title=" ">
<path fill="none" stroke="#63b8ff" d="M546.43,-126.51C480.57,-116.83 409.66,-96.58 444.5,-55 469.46,-25.21 578.63,-15.34 644.17,-12.09"/>
<polygon fill="#63b8ff" stroke="#63b8ff" points="644.47,-15.58 654.29,-11.62 644.14,-8.59 644.47,-15.58"/>
</a>
</g>
</g>
<!-- Node15&#45;&gt;Node13 -->
<g id="edge24_Node000015_Node000013" class="edge">
<title>Node15&#45;&gt;Node13</title>
<g id="a_edge24_Node000015_Node000013"><a xlink:title=" ">
<path fill="none" stroke="#63b8ff" d="M646.24,-126.37C653.88,-116.59 666.51,-100.42 676.16,-88.08"/>
<polygon fill="#63b8ff" stroke="#63b8ff" points="679.14,-89.94 682.54,-79.91 673.63,-85.63 679.14,-89.94"/>
</a>
</g>
</g>
<!-- Node16 -->
<g id="Node000016" class="node">
<title>Node16</title>
<g id="a_Node000016"><a xlink:href="MemaPluginParameterInfo_8h.html" target="_top" xlink:title=" ">
<polygon fill="white" stroke="#666666" points="609,-79.5 454,-79.5 454,-60.5 609,-60.5 609,-79.5"/>
<text text-anchor="middle" x="531.5" y="-67.5" font-family="Helvetica,sans-Serif" font-size="10.00">MemaPluginParameterInfo.h</text>
</a>
</g>
</g>
<!-- Node15&#45;&gt;Node16 -->
<g id="edge25_Node000015_Node000016" class="edge">
<title>Node15&#45;&gt;Node16</title>
<g id="a_edge25_Node000015_Node000016"><a xlink:title=" ">
<path fill="none" stroke="#63b8ff" d="M624.93,-126.37C606.98,-115.73 576.23,-97.51 554.94,-84.89"/>
<polygon fill="#63b8ff" stroke="#63b8ff" points="556.57,-81.79 546.18,-79.7 553,-87.81 556.57,-81.79"/>
</a>
</g>
</g>
<!-- Node16&#45;&gt;Node3 -->
<g id="edge26_Node000016_Node000003" class="edge">
<title>Node16&#45;&gt;Node3</title>
<g id="a_edge26_Node000016_Node000003"><a xlink:title=" ">
<path fill="none" stroke="#63b8ff" d="M555.2,-60.49C583.09,-50.49 629.57,-33.8 661.1,-22.49"/>
<polygon fill="#63b8ff" stroke="#63b8ff" points="662.54,-25.69 670.77,-19.02 660.18,-19.1 662.54,-25.69"/>
</a>
</g>
</g>
</g>
</svg>

<g id="navigator" transform="translate(0 0)" fill="#404254">
  <rect fill="#f2f5e9" fill-opacity="0.5" stroke="#606060" stroke-width=".5" x="0" y="0" width="60" height="60"/>
  <use id="zoomplus" xlink:href="#zoomPlus" x="17" y="9" onmousedown="handleZoom(evt,'in')"/>
  <use id="zoomminus" xlink:href="#zoomMin" x="42" y="9" onmousedown="handleZoom(evt,'out')"/>
  <use id="reset" xlink:href="#resetDef" x="30" y="36" onmousedown="handleReset()"/>
   <use id="arrowup" xlink:href="#arrowUp" x="0" y="0" onmousedown="handlePan(0,-1)"/>
  <use id="arrowright" xlink:href="#arrowRight" x="0" y="0" onmousedown="handlePan(1,0)"/>
  <use id="arrowdown" xlink:href="#arrowDown" x="0" y="0" onmousedown="handlePan(0,1)"/>
  <use id="arrowleft" xlink:href="#arrowLeft" x="0" y="0" onmousedown="handlePan(-1,0)"/>
</g>
<svg viewBox="0 0 15 15" width="100%" height="30px" preserveAspectRatio="xMaxYMin meet">
 <g id="arrow_out" transform="scale(0.3 0.3)">
  <a xlink:href="MemaMo_2MainComponent_8cpp__incl_org.svg" target="_base">
   <rect id="button" ry="5" rx="5" y="6" x="6" height="38" width="38"
        fill="#f2f5e9" fill-opacity="0.5" stroke="#606060" stroke-width="1.0"/>
   <path id="arrow"
     d="M 11.500037,31.436501 C 11.940474,20.09759 22.043105,11.32322 32.158766,21.979434 L 37.068811,17.246167 C 37.068811,17.246167 37.088388,32 37.088388,32 L 22.160133,31.978069 C 22.160133,31.978069 26.997745,27.140456 26.997745,27.140456 C 18.528582,18.264221 13.291696,25.230495 11.500037,31.436501 z"
     style="fill:#404040;"/>
  </a>
 </g>
</svg>

<style type='text/css'>
<![CDATA[
[data-mouse-over-selected='false'] { opacity: 0.7; }
[data-mouse-over-selected='true']  { opacity: 1.0; }
]]>
</style>
<script type="application/ecmascript"><![CDATA[
document.addEventListener('DOMContentLoaded', (event) => {
  highlightEdges();
  highlightAdjacentNodes();
});
]]></script>
</svg>
