<?xml version="1.0" encoding="UTF-8" standalone="no"?>
<!DOCTYPE svg PUBLIC "-//W3C//DTD SVG 1.1//EN"
 "http://www.w3.org/Graphics/SVG/1.1/DTD/svg11.dtd">
<!-- Generated by graphviz version 2.43.0 (0)
 -->
<!-- Title: Source/MemaProcessor/MemaProcessor.h Pages: 1 -->
<svg width="1219pt" height="269pt"
 viewBox="0.00 0.00 1218.98 269.00" xmlns="http://www.w3.org/2000/svg" xmlns:xlink="http://www.w3.org/1999/xlink">
<g id="graph0" class="graph" transform="scale(1 1) rotate(0) translate(4 265)">
<title>Source/MemaProcessor/MemaProcessor.h</title>
<!-- Node1 -->
<g id="Node000001" class="node">
<title>Node1</title>
<g id="a_Node000001"><a xlink:title=" ">
<polygon fill="#999999" stroke="#666666" points="567.98,-261 436.98,-261 436.98,-231 567.98,-231 567.98,-261"/>
<text text-anchor="start" x="444.98" y="-249" font-family="Helvetica,sans-Serif" font-size="10.00">Source/MemaProcessor</text>
<text text-anchor="middle" x="502.48" y="-238" font-family="Helvetica,sans-Serif" font-size="10.00">/MemaProcessor.h</text>
</a>
</g>
</g>
<!-- Node2 -->
<g id="Node000002" class="node">
<title>Node2</title>
<g id="a_Node000002"><a xlink:title=" ">
<polygon fill="#e0e0e0" stroke="#999999" points="497.48,-19 417.48,-19 417.48,0 497.48,0 497.48,-19"/>
<text text-anchor="middle" x="457.48" y="-7" font-family="Helvetica,sans-Serif" font-size="10.00">JuceHeader.h</text>
</a>
</g>
</g>
<!-- Node1&#45;&gt;Node2 -->
<g id="edge1_Node000001_Node000002" class="edge">
<title>Node1&#45;&gt;Node2</title>
<g id="a_edge1_Node000001_Node000002"><a xlink:title=" ">
<path fill="none" stroke="#63b8ff" d="M436.7,-245.74C354.16,-244.7 209.36,-236.35 93.48,-195 50.39,-179.63 28.55,-180.07 6.48,-140 -17.14,-97.13 31.23,-73.66 76.48,-55 135.18,-30.79 317.84,-17.96 407.21,-12.98"/>
<polygon fill="#63b8ff" stroke="#63b8ff" points="407.58,-16.47 417.38,-12.43 407.2,-9.48 407.58,-16.47"/>
</a>
</g>
</g>
<!-- Node3 -->
<g id="Node000003" class="node">
<title>Node3</title>
<g id="a_Node000003"><a xlink:href="MemaMessages_8h.html" target="_top" xlink:title=" ">
<polygon fill="white" stroke="#666666" points="207.98,-195 102.98,-195 102.98,-176 207.98,-176 207.98,-195"/>
<text text-anchor="middle" x="155.48" y="-183" font-family="Helvetica,sans-Serif" font-size="10.00">MemaMessages.h</text>
</a>
</g>
</g>
<!-- Node1&#45;&gt;Node3 -->
<g id="edge2_Node000001_Node000003" class="edge">
<title>Node1&#45;&gt;Node3</title>
<g id="a_edge2_Node000001_Node000003"><a xlink:title=" ">
<path fill="none" stroke="#63b8ff" d="M436.8,-233.93C373.24,-223.21 277.69,-207.1 215.95,-196.7"/>
<polygon fill="#63b8ff" stroke="#63b8ff" points="216.41,-193.22 205.97,-195.01 215.25,-200.13 216.41,-193.22"/>
</a>
</g>
</g>
<!-- Node5 -->
<g id="Node000005" class="node">
<title>Node5</title>
<g id="a_Node000005"><a xlink:href="MemaPluginParameterInfo_8h.html" target="_top" xlink:title=" ">
<polygon fill="white" stroke="#666666" points="323.98,-134.5 168.98,-134.5 168.98,-115.5 323.98,-115.5 323.98,-134.5"/>
<text text-anchor="middle" x="246.48" y="-122.5" font-family="Helvetica,sans-Serif" font-size="10.00">MemaPluginParameterInfo.h</text>
</a>
</g>
</g>
<!-- Node1&#45;&gt;Node5 -->
<g id="edge17_Node000001_Node000005" class="edge">
<title>Node1&#45;&gt;Node5</title>
<g id="a_edge17_Node000001_Node000005"><a xlink:title=" ">
<path fill="none" stroke="#63b8ff" d="M472.36,-231C422.28,-207.72 322.62,-161.39 274.18,-138.88"/>
<polygon fill="#63b8ff" stroke="#63b8ff" points="275.48,-135.62 264.94,-134.58 272.53,-141.97 275.48,-135.62"/>
</a>
</g>
</g>
<!-- Node6 -->
<g id="Node000006" class="node">
<title>Node6</title>
<g id="a_Node000006"><a xlink:href="ProcessorDataAnalyzer_8h.html" target="_top" xlink:title=" ">
<polygon fill="white" stroke="#666666" points="571.48,-195 433.48,-195 433.48,-176 571.48,-176 571.48,-195"/>
<text text-anchor="middle" x="502.48" y="-183" font-family="Helvetica,sans-Serif" font-size="10.00">ProcessorDataAnalyzer.h</text>
</a>
</g>
</g>
<!-- Node1&#45;&gt;Node6 -->
<g id="edge7_Node000001_Node000006" class="edge">
<title>Node1&#45;&gt;Node6</title>
<g id="a_edge7_Node000001_Node000006"><a xlink:title=" ">
<path fill="none" stroke="#63b8ff" d="M502.48,-230.84C502.48,-223.21 502.48,-213.7 502.48,-205.45"/>
<polygon fill="#63b8ff" stroke="#63b8ff" points="505.98,-205.27 502.48,-195.27 498.98,-205.27 505.98,-205.27"/>
</a>
</g>
</g>
<!-- Node11 -->
<g id="Node000011" class="node">
<title>Node11</title>
<g id="a_Node000011"><a xlink:href="MemaProcessorEditor_8h.html" target="_top" xlink:title=" ">
<polygon fill="white" stroke="#666666" points="988.48,-140 854.48,-140 854.48,-110 988.48,-110 988.48,-140"/>
<text text-anchor="start" x="862.48" y="-128" font-family="Helvetica,sans-Serif" font-size="10.00">../MemaProcessorEditor</text>
<text text-anchor="middle" x="921.48" y="-117" font-family="Helvetica,sans-Serif" font-size="10.00">/MemaProcessorEditor.h</text>
</a>
</g>
</g>
<!-- Node1&#45;&gt;Node11 -->
<g id="edge18_Node000001_Node000011" class="edge">
<title>Node1&#45;&gt;Node11</title>
<g id="a_edge18_Node000001_Node000011"><a xlink:title=" ">
<path fill="none" stroke="#63b8ff" d="M551.77,-231C629.21,-209.01 779.07,-166.45 862.24,-142.82"/>
<polygon fill="#63b8ff" stroke="#63b8ff" points="863.38,-146.14 872.04,-140.04 861.47,-139.4 863.38,-146.14"/>
</a>
</g>
</g>
<!-- Node13 -->
<g id="Node000013" class="node">
<title>Node13</title>
<g id="a_Node000013"><a xlink:href="MemaAppConfiguration_8h.html" target="_top" xlink:title=" ">
<polygon fill="white" stroke="#666666" points="1045.98,-195 896.98,-195 896.98,-176 1045.98,-176 1045.98,-195"/>
<text text-anchor="middle" x="971.48" y="-183" font-family="Helvetica,sans-Serif" font-size="10.00">../MemaAppConfiguration.h</text>
</a>
</g>
</g>
<!-- Node1&#45;&gt;Node13 -->
<g id="edge22_Node000001_Node000013" class="edge">
<title>Node1&#45;&gt;Node13</title>
<g id="a_edge22_Node000001_Node000013"><a xlink:title=" ">
<path fill="none" stroke="#63b8ff" d="M568.18,-236.8C653.47,-226.17 802.14,-207.62 893.18,-196.27"/>
<polygon fill="#63b8ff" stroke="#63b8ff" points="893.68,-199.73 903.17,-195.02 892.81,-192.78 893.68,-199.73"/>
</a>
</g>
</g>
<!-- Node15 -->
<g id="Node000015" class="node">
<title>Node15</title>
<g id="a_Node000015"><a xlink:title=" ">
<polygon fill="#e0e0e0" stroke="#999999" points="1210.98,-195 1063.98,-195 1063.98,-176 1210.98,-176 1210.98,-195"/>
<text text-anchor="middle" x="1137.48" y="-183" font-family="Helvetica,sans-Serif" font-size="10.00">ServiceTopologyManager.h</text>
</a>
</g>
</g>
<!-- Node1&#45;&gt;Node15 -->
<g id="edge25_Node000001_Node000015" class="edge">
<title>Node1&#45;&gt;Node15</title>
<g id="a_edge25_Node000001_Node000015"><a xlink:title=" ">
<path fill="none" stroke="#63b8ff" d="M568.35,-239.28C670,-230.41 871.51,-212.59 1053.68,-195.07"/>
<polygon fill="#63b8ff" stroke="#63b8ff" points="1054.1,-198.54 1063.71,-194.1 1053.43,-191.57 1054.1,-198.54"/>
</a>
</g>
</g>
<!-- Node3&#45;&gt;Node2 -->
<g id="edge3_Node000003_Node000002" class="edge">
<title>Node3&#45;&gt;Node2</title>
<g id="a_edge3_Node000003_Node000002"><a xlink:title=" ">
<path fill="none" stroke="#63b8ff" d="M102.74,-175.95C52.58,-165.53 -11.39,-144.86 16.48,-110 64.98,-49.34 302.06,-23 407.15,-14.17"/>
<polygon fill="#63b8ff" stroke="#63b8ff" points="407.52,-17.66 417.2,-13.35 406.95,-10.68 407.52,-17.66"/>
</a>
</g>
</g>
<!-- Node4 -->
<g id="Node000004" class="node">
<title>Node4</title>
<g id="a_Node000004"><a xlink:title=" ">
<polygon fill="#e0e0e0" stroke="#999999" points="150.98,-134.5 25.98,-134.5 25.98,-115.5 150.98,-115.5 150.98,-134.5"/>
<text text-anchor="middle" x="88.48" y="-122.5" font-family="Helvetica,sans-Serif" font-size="10.00">CustomLookAndFeel.h</text>
</a>
</g>
</g>
<!-- Node3&#45;&gt;Node4 -->
<g id="edge4_Node000003_Node000004" class="edge">
<title>Node3&#45;&gt;Node4</title>
<g id="a_edge4_Node000003_Node000004"><a xlink:title=" ">
<path fill="none" stroke="#63b8ff" d="M145.59,-175.87C135.2,-166.8 118.64,-152.34 106.02,-141.32"/>
<polygon fill="#63b8ff" stroke="#63b8ff" points="108.24,-138.61 98.4,-134.67 103.63,-143.88 108.24,-138.61"/>
</a>
</g>
</g>
<!-- Node3&#45;&gt;Node5 -->
<g id="edge5_Node000003_Node000005" class="edge">
<title>Node3&#45;&gt;Node5</title>
<g id="a_edge5_Node000003_Node000005"><a xlink:title=" ">
<path fill="none" stroke="#63b8ff" d="M168.9,-175.87C183.56,-166.45 207.23,-151.23 224.58,-140.08"/>
<polygon fill="#63b8ff" stroke="#63b8ff" points="226.48,-143.02 232.99,-134.67 222.69,-137.13 226.48,-143.02"/>
</a>
</g>
</g>
<!-- Node5&#45;&gt;Node2 -->
<g id="edge6_Node000005_Node000002" class="edge">
<title>Node5&#45;&gt;Node2</title>
<g id="a_edge6_Node000005_Node000002"><a xlink:title=" ">
<path fill="none" stroke="#63b8ff" d="M256.04,-115.34C272.09,-101.17 305.9,-72.83 338.48,-55 363.7,-41.2 394.1,-29.91 417.86,-22.16"/>
<polygon fill="#63b8ff" stroke="#63b8ff" points="419.13,-25.43 427.6,-19.06 417.01,-18.76 419.13,-25.43"/>
</a>
</g>
</g>
<!-- Node6&#45;&gt;Node2 -->
<g id="edge8_Node000006_Node000002" class="edge">
<title>Node6&#45;&gt;Node2</title>
<g id="a_edge8_Node000006_Node000002"><a xlink:title=" ">
<path fill="none" stroke="#63b8ff" d="M433.47,-177.37C409.91,-171.24 385.88,-160.11 371.48,-140 342.19,-99.12 401.11,-49.13 435.34,-24.96"/>
<polygon fill="#63b8ff" stroke="#63b8ff" points="437.58,-27.67 443.84,-19.13 433.62,-21.9 437.58,-27.67"/>
</a>
</g>
</g>
<!-- Node7 -->
<g id="Node000007" class="node">
<title>Node7</title>
<g id="a_Node000007"><a xlink:href="ProcessorAudioSignalData_8h.html" target="_top" xlink:title=" ">
<polygon fill="white" stroke="#666666" points="534.48,-134.5 380.48,-134.5 380.48,-115.5 534.48,-115.5 534.48,-134.5"/>
<text text-anchor="middle" x="457.48" y="-122.5" font-family="Helvetica,sans-Serif" font-size="10.00">ProcessorAudioSignalData.h</text>
</a>
</g>
</g>
<!-- Node6&#45;&gt;Node7 -->
<g id="edge9_Node000006_Node000007" class="edge">
<title>Node6&#45;&gt;Node7</title>
<g id="a_edge9_Node000006_Node000007"><a xlink:title=" ">
<path fill="none" stroke="#63b8ff" d="M495.84,-175.87C489.19,-167.23 478.79,-153.7 470.49,-142.92"/>
<polygon fill="#63b8ff" stroke="#63b8ff" points="473.02,-140.46 464.14,-134.67 467.47,-144.73 473.02,-140.46"/>
</a>
</g>
</g>
<!-- Node9 -->
<g id="Node000009" class="node">
<title>Node9</title>
<g id="a_Node000009"><a xlink:href="ProcessorLevelData_8h.html" target="_top" xlink:title=" ">
<polygon fill="white" stroke="#666666" points="674.48,-134.5 552.48,-134.5 552.48,-115.5 674.48,-115.5 674.48,-134.5"/>
<text text-anchor="middle" x="613.48" y="-122.5" font-family="Helvetica,sans-Serif" font-size="10.00">ProcessorLevelData.h</text>
</a>
</g>
</g>
<!-- Node6&#45;&gt;Node9 -->
<g id="edge13_Node000006_Node000009" class="edge">
<title>Node6&#45;&gt;Node9</title>
<g id="a_edge13_Node000006_Node000009"><a xlink:title=" ">
<path fill="none" stroke="#63b8ff" d="M518.86,-175.87C537.05,-166.28 566.67,-150.67 587.93,-139.47"/>
<polygon fill="#63b8ff" stroke="#63b8ff" points="589.82,-142.43 597.03,-134.67 586.55,-136.23 589.82,-142.43"/>
</a>
</g>
</g>
<!-- Node10 -->
<g id="Node000010" class="node">
<title>Node10</title>
<g id="a_Node000010"><a xlink:href="ProcessorSpectrumData_8h.html" target="_top" xlink:title=" ">
<polygon fill="white" stroke="#666666" points="835.98,-134.5 692.98,-134.5 692.98,-115.5 835.98,-115.5 835.98,-134.5"/>
<text text-anchor="middle" x="764.48" y="-122.5" font-family="Helvetica,sans-Serif" font-size="10.00">ProcessorSpectrumData.h</text>
</a>
</g>
</g>
<!-- Node6&#45;&gt;Node10 -->
<g id="edge15_Node000006_Node000010" class="edge">
<title>Node6&#45;&gt;Node10</title>
<g id="a_edge15_Node000006_Node000010"><a xlink:title=" ">
<path fill="none" stroke="#63b8ff" d="M540.57,-175.99C587.05,-165.62 665.65,-148.07 716.29,-136.76"/>
<polygon fill="#63b8ff" stroke="#63b8ff" points="717.34,-140.11 726.33,-134.52 715.81,-133.28 717.34,-140.11"/>
</a>
</g>
</g>
<!-- Node7&#45;&gt;Node2 -->
<g id="edge10_Node000007_Node000002" class="edge">
<title>Node7&#45;&gt;Node2</title>
<g id="a_edge10_Node000007_Node000002"><a xlink:title=" ">
<path fill="none" stroke="#63b8ff" d="M457.48,-115.47C457.48,-97.23 457.48,-54.07 457.48,-29.14"/>
<polygon fill="#63b8ff" stroke="#63b8ff" points="460.98,-29.13 457.48,-19.13 453.98,-29.13 460.98,-29.13"/>
</a>
</g>
</g>
<!-- Node8 -->
<g id="Node000008" class="node">
<title>Node8</title>
<g id="a_Node000008"><a xlink:href="AbstractProcessorData_8h.html" target="_top" xlink:title=" ">
<polygon fill="white" stroke="#666666" points="652.98,-74 515.98,-74 515.98,-55 652.98,-55 652.98,-74"/>
<text text-anchor="middle" x="584.48" y="-62" font-family="Helvetica,sans-Serif" font-size="10.00">AbstractProcessorData.h</text>
</a>
</g>
</g>
<!-- Node7&#45;&gt;Node8 -->
<g id="edge11_Node000007_Node000008" class="edge">
<title>Node7&#45;&gt;Node8</title>
<g id="a_edge11_Node000007_Node000008"><a xlink:title=" ">
<path fill="none" stroke="#63b8ff" d="M475.94,-115.49C497.2,-105.7 532.33,-89.52 556.84,-78.23"/>
<polygon fill="#63b8ff" stroke="#63b8ff" points="558.37,-81.38 565.99,-74.02 555.44,-75.02 558.37,-81.38"/>
</a>
</g>
</g>
<!-- Node8&#45;&gt;Node2 -->
<g id="edge12_Node000008_Node000002" class="edge">
<title>Node8&#45;&gt;Node2</title>
<g id="a_edge12_Node000008_Node000002"><a xlink:title=" ">
<path fill="none" stroke="#63b8ff" d="M564.07,-54.98C543.46,-46.38 511.37,-32.99 487.78,-23.15"/>
<polygon fill="#63b8ff" stroke="#63b8ff" points="488.83,-19.79 478.25,-19.17 486.13,-26.25 488.83,-19.79"/>
</a>
</g>
</g>
<!-- Node9&#45;&gt;Node8 -->
<g id="edge14_Node000009_Node000008" class="edge">
<title>Node9&#45;&gt;Node8</title>
<g id="a_edge14_Node000009_Node000008"><a xlink:title=" ">
<path fill="none" stroke="#63b8ff" d="M609.2,-115.37C605.04,-106.99 598.61,-94.01 593.35,-83.39"/>
<polygon fill="#63b8ff" stroke="#63b8ff" points="596.35,-81.57 588.77,-74.17 590.08,-84.68 596.35,-81.57"/>
</a>
</g>
</g>
<!-- Node10&#45;&gt;Node8 -->
<g id="edge16_Node000010_Node000008" class="edge">
<title>Node10&#45;&gt;Node8</title>
<g id="a_edge16_Node000010_Node000008"><a xlink:title=" ">
<path fill="none" stroke="#63b8ff" d="M738.3,-115.49C707.24,-105.4 655.29,-88.51 620.46,-77.19"/>
<polygon fill="#63b8ff" stroke="#63b8ff" points="621.27,-73.78 610.68,-74.02 619.11,-80.44 621.27,-73.78"/>
</a>
</g>
</g>
<!-- Node11&#45;&gt;Node2 -->
<g id="edge19_Node000011_Node000002" class="edge">
<title>Node11&#45;&gt;Node2</title>
<g id="a_edge19_Node000011_Node000002"><a xlink:title=" ">
<path fill="none" stroke="#63b8ff" d="M871.32,-109.98C819.08,-95.54 734.79,-72.71 661.48,-55 609.23,-42.38 549.07,-29.45 507.69,-20.8"/>
<polygon fill="#63b8ff" stroke="#63b8ff" points="508.36,-17.37 497.85,-18.75 506.93,-24.22 508.36,-17.37"/>
</a>
</g>
</g>
<!-- Node12 -->
<g id="Node000012" class="node">
<title>Node12</title>
<g id="a_Node000012"><a xlink:href="AudioSelectComponent_8h.html" target="_top" xlink:title=" ">
<polygon fill="white" stroke="#666666" points="953.48,-74 813.48,-74 813.48,-55 953.48,-55 953.48,-74"/>
<text text-anchor="middle" x="883.48" y="-62" font-family="Helvetica,sans-Serif" font-size="10.00">AudioSelectComponent.h</text>
</a>
</g>
</g>
<!-- Node11&#45;&gt;Node12 -->
<g id="edge20_Node000011_Node000012" class="edge">
<title>Node11&#45;&gt;Node12</title>
<g id="a_edge20_Node000011_Node000012"><a xlink:title=" ">
<path fill="none" stroke="#63b8ff" d="M912.28,-109.84C906.99,-101.69 900.3,-91.4 894.7,-82.78"/>
<polygon fill="#63b8ff" stroke="#63b8ff" points="897.55,-80.75 889.17,-74.27 891.68,-84.56 897.55,-80.75"/>
</a>
</g>
</g>
<!-- Node12&#45;&gt;Node2 -->
<g id="edge21_Node000012_Node000002" class="edge">
<title>Node12&#45;&gt;Node2</title>
<g id="a_edge21_Node000012_Node000002"><a xlink:title=" ">
<path fill="none" stroke="#63b8ff" d="M815.03,-54.98C729.22,-44.31 584.15,-26.26 507.84,-16.77"/>
<polygon fill="#63b8ff" stroke="#63b8ff" points="507.9,-13.25 497.55,-15.49 507.04,-20.19 507.9,-13.25"/>
</a>
</g>
</g>
<!-- Node13&#45;&gt;Node2 -->
<g id="edge23_Node000013_Node000002" class="edge">
<title>Node13&#45;&gt;Node2</title>
<g id="a_edge23_Node000013_Node000002"><a xlink:title=" ">
<path fill="none" stroke="#63b8ff" d="M978.37,-175.93C984.74,-167.4 993.78,-153.65 997.48,-140 1008.15,-100.56 997.39,-76.21 962.48,-55 924.2,-31.74 627.48,-17.33 507.54,-12.41"/>
<polygon fill="#63b8ff" stroke="#63b8ff" points="507.64,-8.91 497.51,-12 507.36,-15.9 507.64,-8.91"/>
</a>
</g>
</g>
<!-- Node14 -->
<g id="Node000014" class="node">
<title>Node14</title>
<g id="a_Node000014"><a xlink:title=" ">
<polygon fill="#e0e0e0" stroke="#999999" points="1178.48,-134.5 1044.48,-134.5 1044.48,-115.5 1178.48,-115.5 1178.48,-134.5"/>
<text text-anchor="middle" x="1111.48" y="-122.5" font-family="Helvetica,sans-Serif" font-size="10.00">AppConfigurationBase.h</text>
</a>
</g>
</g>
<!-- Node13&#45;&gt;Node14 -->
<g id="edge24_Node000013_Node000014" class="edge">
<title>Node13&#45;&gt;Node14</title>
<g id="a_edge24_Node000013_Node000014"><a xlink:title=" ">
<path fill="none" stroke="#63b8ff" d="M991.83,-175.99C1015.47,-166.12 1054.68,-149.73 1081.73,-138.43"/>
<polygon fill="#63b8ff" stroke="#63b8ff" points="1083.22,-141.6 1091.09,-134.52 1080.52,-135.14 1083.22,-141.6"/>
</a>
</g>
</g>
</g>
</svg>
