<?xml version="1.0" encoding="UTF-8" standalone="no"?>
<!DOCTYPE svg PUBLIC "-//W3C//DTD SVG 1.1//EN"
 "http://www.w3.org/Graphics/SVG/1.1/DTD/svg11.dtd">
<!-- Generated by graphviz version 2.43.0 (0)
 -->
<!-- Title: Source/MemaProcessor/MemaMessages.h Pages: 1 -->
<svg width="1983pt" height="302pt"
 viewBox="0.00 0.00 1982.50 302.00" xmlns="http://www.w3.org/2000/svg" xmlns:xlink="http://www.w3.org/1999/xlink">
<g id="graph0" class="graph" transform="scale(1 1) rotate(0) translate(4 298)">
<title>Source/MemaProcessor/MemaMessages.h</title>
<!-- Node1 -->
<g id="Node000001" class="node">
<title>Node1</title>
<g id="a_Node000001"><a xlink:title=" ">
<polygon fill="#999999" stroke="#666666" points="522.5,-294 391.5,-294 391.5,-264 522.5,-264 522.5,-294"/>
<text text-anchor="start" x="399.5" y="-282" font-family="Helvetica,sans-Serif" font-size="10.00">Source/MemaProcessor</text>
<text text-anchor="middle" x="457" y="-271" font-family="Helvetica,sans-Serif" font-size="10.00">/MemaMessages.h</text>
</a>
</g>
</g>
<!-- Node2 -->
<g id="Node000002" class="node">
<title>Node2</title>
<g id="a_Node000002"><a xlink:href="MemaMo_2MainComponent_8cpp.html" target="_top" xlink:title=" ">
<polygon fill="white" stroke="#666666" points="166,-222.5 0,-222.5 0,-203.5 166,-203.5 166,-222.5"/>
<text text-anchor="middle" x="83" y="-210.5" font-family="Helvetica,sans-Serif" font-size="10.00">MemaMo/MainComponent.cpp</text>
</a>
</g>
</g>
<!-- Node1&#45;&gt;Node2 -->
<g id="edge1_Node000001_Node000002" class="edge">
<title>Node1&#45;&gt;Node2</title>
<g id="a_edge1_Node000001_Node000002"><a xlink:title=" ">
<path fill="none" stroke="#63b8ff" d="M381.23,-265.03C307.17,-252.36 196.56,-233.43 132.93,-222.54"/>
<polygon fill="#63b8ff" stroke="#63b8ff" points="380.98,-268.54 391.43,-266.78 382.16,-261.64 380.98,-268.54"/>
</a>
</g>
</g>
<!-- Node3 -->
<g id="Node000003" class="node">
<title>Node3</title>
<g id="a_Node000003"><a xlink:href="MemaMoComponent_8cpp.html" target="_top" xlink:title=" ">
<polygon fill="white" stroke="#666666" points="440,-24.5 252,-24.5 252,-5.5 440,-5.5 440,-24.5"/>
<text text-anchor="middle" x="346" y="-12.5" font-family="Helvetica,sans-Serif" font-size="10.00">MemaMo/MemaMoComponent.cpp</text>
</a>
</g>
</g>
<!-- Node1&#45;&gt;Node3 -->
<g id="edge2_Node000001_Node000003" class="edge">
<title>Node1&#45;&gt;Node3</title>
<g id="a_edge2_Node000001_Node000003"><a xlink:title=" ">
<path fill="none" stroke="#63b8ff" d="M381.71,-264.45C324.57,-249.79 249.77,-220.19 213,-162 175.82,-103.16 281.24,-45.83 326.48,-24.62"/>
<polygon fill="#63b8ff" stroke="#63b8ff" points="380.9,-267.85 391.44,-266.85 382.57,-261.06 380.9,-267.85"/>
</a>
</g>
</g>
<!-- Node4 -->
<g id="Node000004" class="node">
<title>Node4</title>
<g id="a_Node000004"><a xlink:href="MemaRe_2MainComponent_8cpp.html" target="_top" xlink:title=" ">
<polygon fill="white" stroke="#666666" points="743,-222.5 579,-222.5 579,-203.5 743,-203.5 743,-222.5"/>
<text text-anchor="middle" x="661" y="-210.5" font-family="Helvetica,sans-Serif" font-size="10.00">MemaRe/MainComponent.cpp</text>
</a>
</g>
</g>
<!-- Node1&#45;&gt;Node4 -->
<g id="edge3_Node000001_Node000004" class="edge">
<title>Node1&#45;&gt;Node4</title>
<g id="a_edge3_Node000001_Node000004"><a xlink:title=" ">
<path fill="none" stroke="#63b8ff" d="M511.53,-260.89C551.03,-248.5 602.76,-232.27 633.85,-222.52"/>
<polygon fill="#63b8ff" stroke="#63b8ff" points="510.26,-257.62 501.77,-263.95 512.36,-264.3 510.26,-257.62"/>
</a>
</g>
</g>
<!-- Node5 -->
<g id="Node000005" class="node">
<title>Node5</title>
<g id="a_Node000005"><a xlink:href="MemaReComponent_8cpp.html" target="_top" xlink:title=" ">
<polygon fill="white" stroke="#666666" points="1357.5,-156.5 1174.5,-156.5 1174.5,-137.5 1357.5,-137.5 1357.5,-156.5"/>
<text text-anchor="middle" x="1266" y="-144.5" font-family="Helvetica,sans-Serif" font-size="10.00">MemaRe/MemaReComponent.cpp</text>
</a>
</g>
</g>
<!-- Node1&#45;&gt;Node5 -->
<g id="edge4_Node000001_Node000005" class="edge">
<title>Node1&#45;&gt;Node5</title>
<g id="a_edge4_Node000001_Node000005"><a xlink:title=" ">
<path fill="none" stroke="#63b8ff" d="M487.1,-258.27C500.65,-249.23 516.77,-238.27 531,-228 548.73,-215.21 549.52,-205.66 570,-198 694.06,-151.58 1033.19,-175.1 1165,-162 1179.71,-160.54 1195.57,-158.54 1210.26,-156.51"/>
<polygon fill="#63b8ff" stroke="#63b8ff" points="485.01,-255.46 478.61,-263.9 488.88,-261.29 485.01,-255.46"/>
</a>
</g>
</g>
<!-- Node6 -->
<g id="Node000006" class="node">
<title>Node6</title>
<g id="a_Node000006"><a xlink:href="MemaProcessor_8h.html" target="_top" xlink:title=" ">
<polygon fill="white" stroke="#666666" points="522.5,-228 391.5,-228 391.5,-198 522.5,-198 522.5,-228"/>
<text text-anchor="start" x="399.5" y="-216" font-family="Helvetica,sans-Serif" font-size="10.00">Source/MemaProcessor</text>
<text text-anchor="middle" x="457" y="-205" font-family="Helvetica,sans-Serif" font-size="10.00">/MemaProcessor.h</text>
</a>
</g>
</g>
<!-- Node1&#45;&gt;Node6 -->
<g id="edge5_Node000001_Node000006" class="edge">
<title>Node1&#45;&gt;Node6</title>
<g id="a_edge5_Node000001_Node000006"><a xlink:title=" ">
<path fill="none" stroke="#63b8ff" d="M457,-253.54C457,-244.96 457,-235.61 457,-228.16"/>
<polygon fill="#63b8ff" stroke="#63b8ff" points="453.5,-253.8 457,-263.8 460.5,-253.8 453.5,-253.8"/>
</a>
</g>
</g>
<!-- Node6&#45;&gt;Node3 -->
<g id="edge6_Node000006_Node000003" class="edge">
<title>Node6&#45;&gt;Node3</title>
<g id="a_edge6_Node000006_Node000003"><a xlink:title=" ">
<path fill="none" stroke="#63b8ff" d="M474.73,-189.68C485.9,-172.72 496.12,-149.42 484,-132 457.74,-94.25 421.38,-126.54 387,-96 364.6,-76.1 352.74,-41.05 348.21,-24.77"/>
<polygon fill="#63b8ff" stroke="#63b8ff" points="471.83,-187.72 468.91,-197.91 477.54,-191.76 471.83,-187.72"/>
</a>
</g>
</g>
<!-- Node6&#45;&gt;Node5 -->
<g id="edge7_Node000006_Node000005" class="edge">
<title>Node6&#45;&gt;Node5</title>
<g id="a_edge7_Node000006_Node000005"><a xlink:title=" ">
<path fill="none" stroke="#63b8ff" d="M533.07,-198.47C534.39,-198.31 535.7,-198.15 537,-198 814.71,-165.85 886.76,-189.21 1165,-162 1179.8,-160.55 1195.76,-158.55 1210.53,-156.51"/>
<polygon fill="#63b8ff" stroke="#63b8ff" points="532.27,-195.05 522.83,-199.86 533.21,-201.99 532.27,-195.05"/>
</a>
</g>
</g>
<!-- Node7 -->
<g id="Node000007" class="node">
<title>Node7</title>
<g id="a_Node000007"><a xlink:href="Mema_8cpp.html" target="_top" xlink:title=" ">
<polygon fill="white" stroke="#666666" points="326,-156.5 222,-156.5 222,-137.5 326,-137.5 326,-156.5"/>
<text text-anchor="middle" x="274" y="-144.5" font-family="Helvetica,sans-Serif" font-size="10.00">Source/Mema.cpp</text>
</a>
</g>
</g>
<!-- Node6&#45;&gt;Node7 -->
<g id="edge8_Node000006_Node000007" class="edge">
<title>Node6&#45;&gt;Node7</title>
<g id="a_edge8_Node000006_Node000007"><a xlink:title=" ">
<path fill="none" stroke="#63b8ff" d="M407.18,-194.58C371.86,-182.23 326.01,-166.19 298.35,-156.52"/>
<polygon fill="#63b8ff" stroke="#63b8ff" points="406.25,-197.96 416.84,-197.95 408.56,-191.35 406.25,-197.96"/>
</a>
</g>
</g>
<!-- Node8 -->
<g id="Node000008" class="node">
<title>Node8</title>
<g id="a_Node000008"><a xlink:href="MemaProcessor_8cpp.html" target="_top" xlink:title=" ">
<polygon fill="white" stroke="#666666" points="475.5,-162 344.5,-162 344.5,-132 475.5,-132 475.5,-162"/>
<text text-anchor="start" x="352.5" y="-150" font-family="Helvetica,sans-Serif" font-size="10.00">Source/MemaProcessor</text>
<text text-anchor="middle" x="410" y="-139" font-family="Helvetica,sans-Serif" font-size="10.00">/MemaProcessor.cpp</text>
</a>
</g>
</g>
<!-- Node6&#45;&gt;Node8 -->
<g id="edge9_Node000006_Node000008" class="edge">
<title>Node6&#45;&gt;Node8</title>
<g id="a_edge9_Node000006_Node000008"><a xlink:title=" ">
<path fill="none" stroke="#63b8ff" d="M440.5,-189.53C433.81,-180.43 426.3,-170.19 420.4,-162.16"/>
<polygon fill="#63b8ff" stroke="#63b8ff" points="437.83,-191.81 446.57,-197.8 443.47,-187.66 437.83,-191.81"/>
</a>
</g>
</g>
<!-- Node9 -->
<g id="Node000009" class="node">
<title>Node9</title>
<g id="a_Node000009"><a xlink:href="AbstractAudioVisualizer_8h.html" target="_top" xlink:title=" ">
<polygon fill="white" stroke="#666666" points="1156.5,-162 997.5,-162 997.5,-132 1156.5,-132 1156.5,-162"/>
<text text-anchor="start" x="1005.5" y="-150" font-family="Helvetica,sans-Serif" font-size="10.00">Source/MemaProcessorEditor</text>
<text text-anchor="middle" x="1077" y="-139" font-family="Helvetica,sans-Serif" font-size="10.00">/AbstractAudioVisualizer.h</text>
</a>
</g>
</g>
<!-- Node6&#45;&gt;Node9 -->
<g id="edge10_Node000006_Node000009" class="edge">
<title>Node6&#45;&gt;Node9</title>
<g id="a_edge10_Node000006_Node000009"><a xlink:title=" ">
<path fill="none" stroke="#63b8ff" d="M533.08,-198.54C534.39,-198.35 535.7,-198.17 537,-198 699.85,-176.25 891.59,-160.92 997.17,-153.36"/>
<polygon fill="#63b8ff" stroke="#63b8ff" points="532.24,-195.12 522.86,-200.04 533.26,-202.05 532.24,-195.12"/>
</a>
</g>
</g>
<!-- Node10 -->
<g id="Node000010" class="node">
<title>Node10</title>
<g id="a_Node000010"><a xlink:href="SpectrumAudioComponent_8h.html" target="_top" xlink:title=" ">
<polygon fill="white" stroke="#666666" points="736.5,-96 577.5,-96 577.5,-66 736.5,-66 736.5,-96"/>
<text text-anchor="start" x="585.5" y="-84" font-family="Helvetica,sans-Serif" font-size="10.00">Source/MemaClientCommon</text>
<text text-anchor="middle" x="657" y="-73" font-family="Helvetica,sans-Serif" font-size="10.00">/SpectrumAudioComponent.h</text>
</a>
</g>
</g>
<!-- Node9&#45;&gt;Node10 -->
<g id="edge11_Node000009_Node000010" class="edge">
<title>Node9&#45;&gt;Node10</title>
<g id="a_edge11_Node000009_Node000010"><a xlink:title=" ">
<path fill="none" stroke="#63b8ff" d="M987.4,-132.71C920.57,-122.75 827.05,-108.7 745,-96 742.25,-95.57 739.45,-95.14 736.62,-94.7"/>
<polygon fill="#63b8ff" stroke="#63b8ff" points="987.07,-136.2 997.48,-134.21 988.1,-129.28 987.07,-136.2"/>
</a>
</g>
</g>
<!-- Node12 -->
<g id="Node000012" class="node">
<title>Node12</title>
<g id="a_Node000012"><a xlink:href="TwoDFieldMultisliderComponent_8h.html" target="_top" xlink:title=" ">
<polygon fill="white" stroke="#666666" points="1170,-96 984,-96 984,-66 1170,-66 1170,-96"/>
<text text-anchor="start" x="992" y="-84" font-family="Helvetica,sans-Serif" font-size="10.00">Source/MemaClientCommon</text>
<text text-anchor="middle" x="1077" y="-73" font-family="Helvetica,sans-Serif" font-size="10.00">/TwoDFieldMultisliderComponent.h</text>
</a>
</g>
</g>
<!-- Node9&#45;&gt;Node12 -->
<g id="edge14_Node000009_Node000012" class="edge">
<title>Node9&#45;&gt;Node12</title>
<g id="a_edge14_Node000009_Node000012"><a xlink:title=" ">
<path fill="none" stroke="#63b8ff" d="M1077,-121.54C1077,-112.96 1077,-103.61 1077,-96.16"/>
<polygon fill="#63b8ff" stroke="#63b8ff" points="1073.5,-121.8 1077,-131.8 1080.5,-121.8 1073.5,-121.8"/>
</a>
</g>
</g>
<!-- Node15 -->
<g id="Node000015" class="node">
<title>Node15</title>
<g id="a_Node000015"><a xlink:href="TwoDFieldOutputComponent_8h.html" target="_top" xlink:title=" ">
<polygon fill="white" stroke="#666666" points="921.5,-96 754.5,-96 754.5,-66 921.5,-66 921.5,-96"/>
<text text-anchor="start" x="762.5" y="-84" font-family="Helvetica,sans-Serif" font-size="10.00">Source/MemaClientCommon</text>
<text text-anchor="middle" x="838" y="-73" font-family="Helvetica,sans-Serif" font-size="10.00">/TwoDFieldOutputComponent.h</text>
</a>
</g>
</g>
<!-- Node9&#45;&gt;Node15 -->
<g id="edge17_Node000009_Node000015" class="edge">
<title>Node9&#45;&gt;Node15</title>
<g id="a_edge17_Node000009_Node000015"><a xlink:title=" ">
<path fill="none" stroke="#63b8ff" d="M1014.46,-129.25C975.85,-118.91 926.88,-105.8 890.33,-96.01"/>
<polygon fill="#63b8ff" stroke="#63b8ff" points="1013.99,-132.75 1024.55,-131.95 1015.8,-125.99 1013.99,-132.75"/>
</a>
</g>
</g>
<!-- Node17 -->
<g id="Node000017" class="node">
<title>Node17</title>
<g id="a_Node000017"><a xlink:href="WaveformAudioComponent_8h.html" target="_top" xlink:title=" ">
<polygon fill="white" stroke="#666666" points="559.5,-96 396.5,-96 396.5,-66 559.5,-66 559.5,-96"/>
<text text-anchor="start" x="404.5" y="-84" font-family="Helvetica,sans-Serif" font-size="10.00">Source/MemaClientCommon</text>
<text text-anchor="middle" x="478" y="-73" font-family="Helvetica,sans-Serif" font-size="10.00">/WaveformAudioComponent.h</text>
</a>
</g>
</g>
<!-- Node9&#45;&gt;Node17 -->
<g id="edge20_Node000009_Node000017" class="edge">
<title>Node9&#45;&gt;Node17</title>
<g id="a_edge20_Node000009_Node000017"><a xlink:title=" ">
<path fill="none" stroke="#63b8ff" d="M987.25,-138.73C885.43,-130.11 714.48,-114.57 568,-96 565.33,-95.66 562.62,-95.31 559.89,-94.94"/>
<polygon fill="#63b8ff" stroke="#63b8ff" points="987.24,-142.24 997.5,-139.59 987.82,-135.26 987.24,-142.24"/>
</a>
</g>
</g>
<!-- Node19 -->
<g id="Node000019" class="node">
<title>Node19</title>
<g id="a_Node000019"><a xlink:href="AbstractAudioVisualizer_8cpp.html" target="_top" xlink:title=" ">
<polygon fill="white" stroke="#666666" points="1974.5,-96 1815.5,-96 1815.5,-66 1974.5,-66 1974.5,-96"/>
<text text-anchor="start" x="1823.5" y="-84" font-family="Helvetica,sans-Serif" font-size="10.00">Source/MemaProcessorEditor</text>
<text text-anchor="middle" x="1895" y="-73" font-family="Helvetica,sans-Serif" font-size="10.00">/AbstractAudioVisualizer.cpp</text>
</a>
</g>
</g>
<!-- Node9&#45;&gt;Node19 -->
<g id="edge23_Node000009_Node000019" class="edge">
<title>Node9&#45;&gt;Node19</title>
<g id="a_edge23_Node000009_Node000019"><a xlink:title=" ">
<path fill="none" stroke="#63b8ff" d="M1166.7,-131.89C1448.68,-102.23 1523.24,-124.8 1802,-96 1806.39,-95.55 1810.88,-95.03 1815.41,-94.48"/>
<polygon fill="#63b8ff" stroke="#63b8ff" points="1166.15,-128.43 1156.58,-132.97 1166.89,-135.39 1166.15,-128.43"/>
</a>
</g>
</g>
<!-- Node20 -->
<g id="Node000020" class="node">
<title>Node20</title>
<g id="a_Node000020"><a xlink:href="InputControlComponent_8cpp.html" target="_top" xlink:title=" ">
<polygon fill="white" stroke="#666666" points="1583.5,-30 1424.5,-30 1424.5,0 1583.5,0 1583.5,-30"/>
<text text-anchor="start" x="1432.5" y="-18" font-family="Helvetica,sans-Serif" font-size="10.00">Source/MemaProcessorEditor</text>
<text text-anchor="middle" x="1504" y="-7" font-family="Helvetica,sans-Serif" font-size="10.00">/InputControlComponent.cpp</text>
</a>
</g>
</g>
<!-- Node9&#45;&gt;Node20 -->
<g id="edge24_Node000009_Node000020" class="edge">
<title>Node9&#45;&gt;Node20</title>
<g id="a_edge24_Node000009_Node000020"><a xlink:title=" ">
<path fill="none" stroke="#63b8ff" d="M1166.56,-131.67C1253.5,-117.68 1373.09,-98.17 1378,-96 1397.68,-87.3 1398.15,-78.02 1416,-66 1435.68,-52.75 1459.07,-39.57 1476.79,-30.07"/>
<polygon fill="#63b8ff" stroke="#63b8ff" points="1165.98,-128.22 1156.67,-133.26 1167.1,-135.13 1165.98,-128.22"/>
</a>
</g>
</g>
<!-- Node21 -->
<g id="Node000021" class="node">
<title>Node21</title>
<g id="a_Node000021"><a xlink:href="InputControlComponent_8h.html" target="_top" xlink:title=" ">
<polygon fill="white" stroke="#666666" points="1583.5,-96 1424.5,-96 1424.5,-66 1583.5,-66 1583.5,-96"/>
<text text-anchor="start" x="1432.5" y="-84" font-family="Helvetica,sans-Serif" font-size="10.00">Source/MemaProcessorEditor</text>
<text text-anchor="middle" x="1504" y="-73" font-family="Helvetica,sans-Serif" font-size="10.00">/InputControlComponent.h</text>
</a>
</g>
</g>
<!-- Node9&#45;&gt;Node21 -->
<g id="edge25_Node000009_Node000021" class="edge">
<title>Node9&#45;&gt;Node21</title>
<g id="a_edge25_Node000009_Node000021"><a xlink:title=" ">
<path fill="none" stroke="#63b8ff" d="M1166.73,-131.75C1275.91,-115.13 1304.9,-111.75 1411,-96 1415.36,-95.35 1419.84,-94.69 1424.35,-94.01"/>
<polygon fill="#63b8ff" stroke="#63b8ff" points="1165.98,-128.32 1156.62,-133.29 1167.03,-135.24 1165.98,-128.32"/>
</a>
</g>
</g>
<!-- Node23 -->
<g id="Node000023" class="node">
<title>Node23</title>
<g id="a_Node000023"><a xlink:href="MeterbridgeComponent_8h.html" target="_top" xlink:title=" ">
<polygon fill="white" stroke="#666666" points="1369.5,-96 1210.5,-96 1210.5,-66 1369.5,-66 1369.5,-96"/>
<text text-anchor="start" x="1218.5" y="-84" font-family="Helvetica,sans-Serif" font-size="10.00">Source/MemaProcessorEditor</text>
<text text-anchor="middle" x="1290" y="-73" font-family="Helvetica,sans-Serif" font-size="10.00">/MeterbridgeComponent.h</text>
</a>
</g>
</g>
<!-- Node9&#45;&gt;Node23 -->
<g id="edge28_Node000009_Node000023" class="edge">
<title>Node9&#45;&gt;Node23</title>
<g id="a_edge28_Node000009_Node000023"><a xlink:title=" ">
<path fill="none" stroke="#63b8ff" d="M1133.61,-128.99C1167.89,-118.69 1211.07,-105.72 1243.37,-96.01"/>
<polygon fill="#63b8ff" stroke="#63b8ff" points="1132.31,-125.73 1123.74,-131.95 1134.33,-132.43 1132.31,-125.73"/>
</a>
</g>
</g>
<!-- Node25 -->
<g id="Node000025" class="node">
<title>Node25</title>
<g id="a_Node000025"><a xlink:href="OutputControlComponent_8cpp.html" target="_top" xlink:title=" ">
<polygon fill="white" stroke="#666666" points="1943,-30 1779,-30 1779,0 1943,0 1943,-30"/>
<text text-anchor="start" x="1787" y="-18" font-family="Helvetica,sans-Serif" font-size="10.00">Source/MemaProcessorEditor</text>
<text text-anchor="middle" x="1861" y="-7" font-family="Helvetica,sans-Serif" font-size="10.00">/OutputControlComponent.cpp</text>
</a>
</g>
</g>
<!-- Node9&#45;&gt;Node25 -->
<g id="edge33_Node000009_Node000025" class="edge">
<title>Node9&#45;&gt;Node25</title>
<g id="a_edge33_Node000009_Node000025"><a xlink:title=" ">
<path fill="none" stroke="#63b8ff" d="M1166.92,-131.96C1315.01,-118.76 1648.37,-146.04 1770,-96 1779,-92.3 1822.51,-52.17 1845.96,-30.19"/>
<polygon fill="#63b8ff" stroke="#63b8ff" points="1166.19,-128.51 1156.58,-132.98 1166.87,-135.48 1166.19,-128.51"/>
</a>
</g>
</g>
<!-- Node26 -->
<g id="Node000026" class="node">
<title>Node26</title>
<g id="a_Node000026"><a xlink:href="OutputControlComponent_8h.html" target="_top" xlink:title=" ">
<polygon fill="white" stroke="#666666" points="1760.5,-96 1601.5,-96 1601.5,-66 1760.5,-66 1760.5,-96"/>
<text text-anchor="start" x="1609.5" y="-84" font-family="Helvetica,sans-Serif" font-size="10.00">Source/MemaProcessorEditor</text>
<text text-anchor="middle" x="1681" y="-73" font-family="Helvetica,sans-Serif" font-size="10.00">/OutputControlComponent.h</text>
</a>
</g>
</g>
<!-- Node9&#45;&gt;Node26 -->
<g id="edge34_Node000009_Node000026" class="edge">
<title>Node9&#45;&gt;Node26</title>
<g id="a_edge34_Node000009_Node000026"><a xlink:title=" ">
<path fill="none" stroke="#63b8ff" d="M1166.61,-131.86C1356.22,-109.32 1406.74,-118.62 1593,-96 1595.76,-95.66 1598.57,-95.31 1601.41,-94.93"/>
<polygon fill="#63b8ff" stroke="#63b8ff" points="1166.1,-128.4 1156.59,-133.07 1166.93,-135.35 1166.1,-128.4"/>
</a>
</g>
</g>
<!-- Node10&#45;&gt;Node3 -->
<g id="edge12_Node000010_Node000003" class="edge">
<title>Node10&#45;&gt;Node3</title>
<g id="a_edge12_Node000010_Node000003"><a xlink:title=" ">
<path fill="none" stroke="#63b8ff" d="M578.8,-63.91C518.02,-51.4 436.09,-34.54 387.39,-24.52"/>
<polygon fill="#63b8ff" stroke="#63b8ff" points="578.25,-67.37 588.75,-65.95 579.66,-60.51 578.25,-67.37"/>
</a>
</g>
</g>
<!-- Node11 -->
<g id="Node000011" class="node">
<title>Node11</title>
<g id="a_Node000011"><a xlink:href="SpectrumAudioComponent_8cpp.html" target="_top" xlink:title=" ">
<polygon fill="white" stroke="#666666" points="628,-30 458,-30 458,0 628,0 628,-30"/>
<text text-anchor="start" x="466" y="-18" font-family="Helvetica,sans-Serif" font-size="10.00">Source/MemaClientCommon</text>
<text text-anchor="middle" x="543" y="-7" font-family="Helvetica,sans-Serif" font-size="10.00">/SpectrumAudioComponent.cpp</text>
</a>
</g>
</g>
<!-- Node10&#45;&gt;Node11 -->
<g id="edge13_Node000010_Node000011" class="edge">
<title>Node10&#45;&gt;Node11</title>
<g id="a_edge13_Node000010_Node000011"><a xlink:title=" ">
<path fill="none" stroke="#63b8ff" d="M623.1,-60.97C605.4,-51.03 584.13,-39.09 567.96,-30.01"/>
<polygon fill="#63b8ff" stroke="#63b8ff" points="621.55,-64.11 631.98,-65.95 624.98,-58.01 621.55,-64.11"/>
</a>
</g>
</g>
<!-- Node13 -->
<g id="Node000013" class="node">
<title>Node13</title>
<g id="a_Node000013"><a xlink:href="PanningControlComponent_8cpp.html" target="_top" xlink:title=" ">
<polygon fill="white" stroke="#666666" points="1229,-30 1059,-30 1059,0 1229,0 1229,-30"/>
<text text-anchor="start" x="1067" y="-18" font-family="Helvetica,sans-Serif" font-size="10.00">Source/MemaClientCommon</text>
<text text-anchor="middle" x="1144" y="-7" font-family="Helvetica,sans-Serif" font-size="10.00">/PanningControlComponent.cpp</text>
</a>
</g>
</g>
<!-- Node12&#45;&gt;Node13 -->
<g id="edge15_Node000012_Node000013" class="edge">
<title>Node12&#45;&gt;Node13</title>
<g id="a_edge15_Node000012_Node000013"><a xlink:title=" ">
<path fill="none" stroke="#63b8ff" d="M1099.35,-58.65C1109.17,-49.27 1120.42,-38.53 1129.17,-30.16"/>
<polygon fill="#63b8ff" stroke="#63b8ff" points="1096.68,-56.36 1091.87,-65.8 1101.52,-61.42 1096.68,-56.36"/>
</a>
</g>
</g>
<!-- Node14 -->
<g id="Node000014" class="node">
<title>Node14</title>
<g id="a_Node000014"><a xlink:href="TwoDFieldMultisliderComponent_8cpp.html" target="_top" xlink:title=" ">
<polygon fill="white" stroke="#666666" points="1040.5,-30 843.5,-30 843.5,0 1040.5,0 1040.5,-30"/>
<text text-anchor="start" x="851.5" y="-18" font-family="Helvetica,sans-Serif" font-size="10.00">Source/MemaClientCommon</text>
<text text-anchor="middle" x="942" y="-7" font-family="Helvetica,sans-Serif" font-size="10.00">/TwoDFieldMultisliderComponent.cpp</text>
</a>
</g>
</g>
<!-- Node12&#45;&gt;Node14 -->
<g id="edge16_Node000012_Node000014" class="edge">
<title>Node12&#45;&gt;Node14</title>
<g id="a_edge16_Node000012_Node000014"><a xlink:title=" ">
<path fill="none" stroke="#63b8ff" d="M1038.29,-61.65C1017.06,-51.58 991.15,-39.3 971.56,-30.01"/>
<polygon fill="#63b8ff" stroke="#63b8ff" points="1036.84,-64.83 1047.37,-65.95 1039.84,-58.51 1036.84,-64.83"/>
</a>
</g>
</g>
<!-- Node15&#45;&gt;Node3 -->
<g id="edge18_Node000015_Node000003" class="edge">
<title>Node15&#45;&gt;Node3</title>
<g id="a_edge18_Node000015_Node000003"><a xlink:title=" ">
<path fill="none" stroke="#63b8ff" d="M744.25,-65.92C612,-48.07 577.23,-46.51 449,-30 435.58,-28.27 421.18,-26.35 407.53,-24.51"/>
<polygon fill="#63b8ff" stroke="#63b8ff" points="743.98,-69.42 754.36,-67.3 744.93,-62.48 743.98,-69.42"/>
</a>
</g>
</g>
<!-- Node16 -->
<g id="Node000016" class="node">
<title>Node16</title>
<g id="a_Node000016"><a xlink:href="TwoDFieldOutputComponent_8cpp.html" target="_top" xlink:title=" ">
<polygon fill="white" stroke="#666666" points="825.5,-30 646.5,-30 646.5,0 825.5,0 825.5,-30"/>
<text text-anchor="start" x="654.5" y="-18" font-family="Helvetica,sans-Serif" font-size="10.00">Source/MemaClientCommon</text>
<text text-anchor="middle" x="736" y="-7" font-family="Helvetica,sans-Serif" font-size="10.00">/TwoDFieldOutputComponent.cpp</text>
</a>
</g>
</g>
<!-- Node15&#45;&gt;Node16 -->
<g id="edge19_Node000015_Node000016" class="edge">
<title>Node15&#45;&gt;Node16</title>
<g id="a_edge19_Node000015_Node000016"><a xlink:title=" ">
<path fill="none" stroke="#63b8ff" d="M806.79,-60.42C791.14,-50.6 772.54,-38.93 758.33,-30.01"/>
<polygon fill="#63b8ff" stroke="#63b8ff" points="805.28,-63.6 815.62,-65.95 809.01,-57.68 805.28,-63.6"/>
</a>
</g>
</g>
<!-- Node17&#45;&gt;Node3 -->
<g id="edge21_Node000017_Node000003" class="edge">
<title>Node17&#45;&gt;Node3</title>
<g id="a_edge21_Node000017_Node000003"><a xlink:title=" ">
<path fill="none" stroke="#63b8ff" d="M439.76,-61.46C414.62,-49.27 382.92,-33.9 363.57,-24.52"/>
<polygon fill="#63b8ff" stroke="#63b8ff" points="438.51,-64.74 449.03,-65.95 441.56,-58.44 438.51,-64.74"/>
</a>
</g>
</g>
<!-- Node18 -->
<g id="Node000018" class="node">
<title>Node18</title>
<g id="a_Node000018"><a xlink:href="WaveformAudioComponent_8cpp.html" target="_top" xlink:title=" ">
<polygon fill="white" stroke="#666666" points="234,-30 60,-30 60,0 234,0 234,-30"/>
<text text-anchor="start" x="68" y="-18" font-family="Helvetica,sans-Serif" font-size="10.00">Source/MemaClientCommon</text>
<text text-anchor="middle" x="147" y="-7" font-family="Helvetica,sans-Serif" font-size="10.00">/WaveformAudioComponent.cpp</text>
</a>
</g>
</g>
<!-- Node17&#45;&gt;Node18 -->
<g id="edge22_Node000017_Node000018" class="edge">
<title>Node17&#45;&gt;Node18</title>
<g id="a_edge22_Node000017_Node000018"><a xlink:title=" ">
<path fill="none" stroke="#63b8ff" d="M395.46,-64.04C341.39,-53.59 271.38,-40.05 219.47,-30.01"/>
<polygon fill="#63b8ff" stroke="#63b8ff" points="394.88,-67.49 405.36,-65.95 396.21,-60.62 394.88,-67.49"/>
</a>
</g>
</g>
<!-- Node21&#45;&gt;Node20 -->
<g id="edge26_Node000021_Node000020" class="edge">
<title>Node21&#45;&gt;Node20</title>
<g id="a_edge26_Node000021_Node000020"><a xlink:title=" ">
<path fill="none" stroke="#63b8ff" d="M1504,-55.54C1504,-46.96 1504,-37.61 1504,-30.16"/>
<polygon fill="#63b8ff" stroke="#63b8ff" points="1500.5,-55.8 1504,-65.8 1507.5,-55.8 1500.5,-55.8"/>
</a>
</g>
</g>
<!-- Node22 -->
<g id="Node000022" class="node">
<title>Node22</title>
<g id="a_Node000022"><a xlink:href="MemaProcessorEditor_8cpp.html" target="_top" xlink:title=" ">
<polygon fill="white" stroke="#666666" points="1760.5,-30 1601.5,-30 1601.5,0 1760.5,0 1760.5,-30"/>
<text text-anchor="start" x="1609.5" y="-18" font-family="Helvetica,sans-Serif" font-size="10.00">Source/MemaProcessorEditor</text>
<text text-anchor="middle" x="1681" y="-7" font-family="Helvetica,sans-Serif" font-size="10.00">/MemaProcessorEditor.cpp</text>
</a>
</g>
</g>
<!-- Node21&#45;&gt;Node22 -->
<g id="edge27_Node000021_Node000022" class="edge">
<title>Node21&#45;&gt;Node22</title>
<g id="a_edge27_Node000021_Node000022"><a xlink:title=" ">
<path fill="none" stroke="#63b8ff" d="M1552.52,-62.46C1580.76,-52.25 1615.87,-39.55 1642.25,-30.01"/>
<polygon fill="#63b8ff" stroke="#63b8ff" points="1551.06,-59.26 1542.84,-65.95 1553.44,-65.85 1551.06,-59.26"/>
</a>
</g>
</g>
<!-- Node23&#45;&gt;Node3 -->
<g id="edge29_Node000023_Node000003" class="edge">
<title>Node23&#45;&gt;Node3</title>
<g id="a_edge29_Node000023_Node000003"><a xlink:title=" ">
<path fill="none" stroke="#63b8ff" d="M1199.96,-68.06C1192.88,-67.3 1185.83,-66.6 1179,-66 855.4,-37.66 772.46,-59.9 449,-30 433.73,-28.59 417.24,-26.57 402.03,-24.5"/>
<polygon fill="#63b8ff" stroke="#63b8ff" points="1200.02,-71.59 1210.35,-69.21 1200.8,-64.63 1200.02,-71.59"/>
</a>
</g>
</g>
<!-- Node23&#45;&gt;Node20 -->
<g id="edge30_Node000023_Node000020" class="edge">
<title>Node23&#45;&gt;Node20</title>
<g id="a_edge30_Node000023_Node000020"><a xlink:title=" ">
<path fill="none" stroke="#63b8ff" d="M1346.88,-62.99C1381.31,-52.69 1424.7,-39.72 1457.15,-30.01"/>
<polygon fill="#63b8ff" stroke="#63b8ff" points="1345.54,-59.74 1336.96,-65.95 1347.55,-66.44 1345.54,-59.74"/>
</a>
</g>
</g>
<!-- Node24 -->
<g id="Node000024" class="node">
<title>Node24</title>
<g id="a_Node000024"><a xlink:href="MeterbridgeComponent_8cpp.html" target="_top" xlink:title=" ">
<polygon fill="white" stroke="#666666" points="1406.5,-30 1247.5,-30 1247.5,0 1406.5,0 1406.5,-30"/>
<text text-anchor="start" x="1255.5" y="-18" font-family="Helvetica,sans-Serif" font-size="10.00">Source/MemaProcessorEditor</text>
<text text-anchor="middle" x="1327" y="-7" font-family="Helvetica,sans-Serif" font-size="10.00">/MeterbridgeComponent.cpp</text>
</a>
</g>
</g>
<!-- Node23&#45;&gt;Node24 -->
<g id="edge31_Node000023_Node000024" class="edge">
<title>Node23&#45;&gt;Node24</title>
<g id="a_edge31_Node000023_Node000024"><a xlink:title=" ">
<path fill="none" stroke="#63b8ff" d="M1303.32,-56.96C1308.5,-48 1314.26,-38.03 1318.81,-30.16"/>
<polygon fill="#63b8ff" stroke="#63b8ff" points="1300.19,-55.39 1298.21,-65.8 1306.25,-58.89 1300.19,-55.39"/>
</a>
</g>
</g>
<!-- Node23&#45;&gt;Node25 -->
<g id="edge32_Node000023_Node000025" class="edge">
<title>Node23&#45;&gt;Node25</title>
<g id="a_edge32_Node000023_Node000025"><a xlink:title=" ">
<path fill="none" stroke="#63b8ff" d="M1379.8,-69.92C1391.97,-68.58 1404.29,-67.25 1416,-66 1573.26,-49.27 1613.13,-50.03 1770,-30 1772.85,-29.64 1775.76,-29.25 1778.69,-28.86"/>
<polygon fill="#63b8ff" stroke="#63b8ff" points="1379.19,-66.46 1369.64,-71.04 1379.96,-73.42 1379.19,-66.46"/>
</a>
</g>
</g>
<!-- Node26&#45;&gt;Node22 -->
<g id="edge35_Node000026_Node000022" class="edge">
<title>Node26&#45;&gt;Node22</title>
<g id="a_edge35_Node000026_Node000022"><a xlink:title=" ">
<path fill="none" stroke="#63b8ff" d="M1681,-55.54C1681,-46.96 1681,-37.61 1681,-30.16"/>
<polygon fill="#63b8ff" stroke="#63b8ff" points="1677.5,-55.8 1681,-65.8 1684.5,-55.8 1677.5,-55.8"/>
</a>
</g>
</g>
<!-- Node26&#45;&gt;Node25 -->
<g id="edge36_Node000026_Node000025" class="edge">
<title>Node26&#45;&gt;Node25</title>
<g id="a_edge36_Node000026_Node000025"><a xlink:title=" ">
<path fill="none" stroke="#63b8ff" d="M1729.97,-62.59C1758.74,-52.36 1794.65,-39.59 1821.59,-30.01"/>
<polygon fill="#63b8ff" stroke="#63b8ff" points="1728.75,-59.31 1720.5,-65.95 1731.1,-65.9 1728.75,-59.31"/>
</a>
</g>
</g>
</g>
</svg>
