<?xml version="1.0" encoding="UTF-8" standalone="no"?>
<!DOCTYPE svg PUBLIC "-//W3C//DTD SVG 1.1//EN"
 "http://www.w3.org/Graphics/SVG/1.1/DTD/svg11.dtd">
<!-- Generated by graphviz version 2.43.0 (0)
 -->
<!-- Title: MemaMo/MemaMoAppConfiguration.h Pages: 1 -->
<svg width="452pt" height="137pt"
 viewBox="0.00 0.00 451.50 137.00" xmlns="http://www.w3.org/2000/svg" xmlns:xlink="http://www.w3.org/1999/xlink">
<g id="graph0" class="graph" transform="scale(1 1) rotate(0) translate(4 133)">
<title>MemaMo/MemaMoAppConfiguration.h</title>
<!-- Node1 -->
<g id="Node000001" class="node">
<title>Node1</title>
<g id="a_Node000001"><a xlink:title=" ">
<polygon fill="#999999" stroke="#666666" points="336,-129 132,-129 132,-110 336,-110 336,-129"/>
<text text-anchor="middle" x="234" y="-117" font-family="Helvetica,sans-Serif" font-size="10.00">MemaMo/MemaMoAppConfiguration.h</text>
</a>
</g>
</g>
<!-- Node2 -->
<g id="Node000002" class="node">
<title>Node2</title>
<g id="a_Node000002"><a xlink:href="MemaMo_2MainComponent_8h.html" target="_top" xlink:title=" ">
<polygon fill="white" stroke="#666666" points="210.5,-74 55.5,-74 55.5,-55 210.5,-55 210.5,-74"/>
<text text-anchor="middle" x="133" y="-62" font-family="Helvetica,sans-Serif" font-size="10.00">MemaMo/MainComponent.h</text>
</a>
</g>
</g>
<!-- Node1&#45;&gt;Node2 -->
<g id="edge1_Node000001_Node000002" class="edge">
<title>Node1&#45;&gt;Node2</title>
<g id="a_edge1_Node000001_Node000002"><a xlink:title=" ">
<path fill="none" stroke="#63b8ff" d="M208.72,-105.23C190.2,-95.51 165.58,-82.6 149.52,-74.17"/>
<polygon fill="#63b8ff" stroke="#63b8ff" points="207.29,-108.44 217.77,-109.98 210.54,-102.24 207.29,-108.44"/>
</a>
</g>
</g>
<!-- Node5 -->
<g id="Node000005" class="node">
<title>Node5</title>
<g id="a_Node000005"><a xlink:href="MemaMoAppConfiguration_8cpp.html" target="_top" xlink:title=" ">
<polygon fill="white" stroke="#666666" points="443.5,-74 228.5,-74 228.5,-55 443.5,-55 443.5,-74"/>
<text text-anchor="middle" x="336" y="-62" font-family="Helvetica,sans-Serif" font-size="10.00">MemaMo/MemaMoAppConfiguration.cpp</text>
</a>
</g>
</g>
<!-- Node1&#45;&gt;Node5 -->
<g id="edge4_Node000001_Node000005" class="edge">
<title>Node1&#45;&gt;Node5</title>
<g id="a_edge4_Node000001_Node000005"><a xlink:title=" ">
<path fill="none" stroke="#63b8ff" d="M259.27,-105.37C278.01,-95.63 303.02,-82.64 319.31,-74.17"/>
<polygon fill="#63b8ff" stroke="#63b8ff" points="257.65,-102.27 250.39,-109.98 260.88,-108.48 257.65,-102.27"/>
</a>
</g>
</g>
<!-- Node3 -->
<g id="Node000003" class="node">
<title>Node3</title>
<g id="a_Node000003"><a xlink:href="MemaMo_2Main_8cpp.html" target="_top" xlink:title=" ">
<polygon fill="white" stroke="#666666" points="110,-19 0,-19 0,0 110,0 110,-19"/>
<text text-anchor="middle" x="55" y="-7" font-family="Helvetica,sans-Serif" font-size="10.00">MemaMo/Main.cpp</text>
</a>
</g>
</g>
<!-- Node2&#45;&gt;Node3 -->
<g id="edge2_Node000002_Node000003" class="edge">
<title>Node2&#45;&gt;Node3</title>
<g id="a_edge2_Node000002_Node000003"><a xlink:title=" ">
<path fill="none" stroke="#63b8ff" d="M111.88,-49.15C97.79,-39.57 79.71,-27.29 67.76,-19.17"/>
<polygon fill="#63b8ff" stroke="#63b8ff" points="110.23,-52.26 120.47,-54.98 114.16,-46.47 110.23,-52.26"/>
</a>
</g>
</g>
<!-- Node4 -->
<g id="Node000004" class="node">
<title>Node4</title>
<g id="a_Node000004"><a xlink:href="MemaMo_2MainComponent_8cpp.html" target="_top" xlink:title=" ">
<polygon fill="white" stroke="#666666" points="294,-19 128,-19 128,0 294,0 294,-19"/>
<text text-anchor="middle" x="211" y="-7" font-family="Helvetica,sans-Serif" font-size="10.00">MemaMo/MainComponent.cpp</text>
</a>
</g>
</g>
<!-- Node2&#45;&gt;Node4 -->
<g id="edge3_Node000002_Node000004" class="edge">
<title>Node2&#45;&gt;Node4</title>
<g id="a_edge3_Node000002_Node000004"><a xlink:title=" ">
<path fill="none" stroke="#63b8ff" d="M154.12,-49.15C168.21,-39.57 186.29,-27.29 198.24,-19.17"/>
<polygon fill="#63b8ff" stroke="#63b8ff" points="151.84,-46.47 145.53,-54.98 155.77,-52.26 151.84,-46.47"/>
</a>
</g>
</g>
</g>
</svg>
