<?xml version="1.0" encoding="UTF-8" standalone="no"?>
<!DOCTYPE svg PUBLIC "-//W3C//DTD SVG 1.1//EN"
 "http://www.w3.org/Graphics/SVG/1.1/DTD/svg11.dtd">
<!-- Generated by graphviz version 2.43.0 (0)
 -->
<!-- Title: Source/MemaProcessor/MemaMessages.h Pages: 1 -->
<svg width="320pt" height="148pt"
 viewBox="0.00 0.00 319.61 148.00" xmlns="http://www.w3.org/2000/svg" xmlns:xlink="http://www.w3.org/1999/xlink">
<g id="graph0" class="graph" transform="scale(1 1) rotate(0) translate(4 144)">
<title>Source/MemaProcessor/MemaMessages.h</title>
<!-- Node1 -->
<g id="Node000001" class="node">
<title>Node1</title>
<g id="a_Node000001"><a xlink:title=" ">
<polygon fill="#999999" stroke="#666666" points="141.61,-140 10.61,-140 10.61,-110 141.61,-110 141.61,-140"/>
<text text-anchor="start" x="18.61" y="-128" font-family="Helvetica,sans-Serif" font-size="10.00">Source/MemaProcessor</text>
<text text-anchor="middle" x="76.11" y="-117" font-family="Helvetica,sans-Serif" font-size="10.00">/MemaMessages.h</text>
</a>
</g>
</g>
<!-- Node2 -->
<g id="Node000002" class="node">
<title>Node2</title>
<g id="a_Node000002"><a xlink:title=" ">
<polygon fill="#e0e0e0" stroke="#999999" points="149.11,-19 69.11,-19 69.11,0 149.11,0 149.11,-19"/>
<text text-anchor="middle" x="109.11" y="-7" font-family="Helvetica,sans-Serif" font-size="10.00">JuceHeader.h</text>
</a>
</g>
</g>
<!-- Node1&#45;&gt;Node2 -->
<g id="edge1_Node000001_Node000002" class="edge">
<title>Node1&#45;&gt;Node2</title>
<g id="a_edge1_Node000001_Node000002"><a xlink:title=" ">
<path fill="none" stroke="#63b8ff" d="M42.92,-109.95C17.69,-97.15 -10.42,-76.94 4.11,-55 16.52,-36.26 38.57,-25.39 59.28,-19.1"/>
<polygon fill="#63b8ff" stroke="#63b8ff" points="60.25,-22.46 68.97,-16.44 58.4,-15.71 60.25,-22.46"/>
</a>
</g>
</g>
<!-- Node3 -->
<g id="Node000003" class="node">
<title>Node3</title>
<g id="a_Node000003"><a xlink:title=" ">
<polygon fill="#e0e0e0" stroke="#999999" points="138.61,-74 13.61,-74 13.61,-55 138.61,-55 138.61,-74"/>
<text text-anchor="middle" x="76.11" y="-62" font-family="Helvetica,sans-Serif" font-size="10.00">CustomLookAndFeel.h</text>
</a>
</g>
</g>
<!-- Node1&#45;&gt;Node3 -->
<g id="edge2_Node000001_Node000003" class="edge">
<title>Node1&#45;&gt;Node3</title>
<g id="a_edge2_Node000001_Node000003"><a xlink:title=" ">
<path fill="none" stroke="#63b8ff" d="M76.11,-109.84C76.11,-102.21 76.11,-92.7 76.11,-84.45"/>
<polygon fill="#63b8ff" stroke="#63b8ff" points="79.61,-84.27 76.11,-74.27 72.61,-84.27 79.61,-84.27"/>
</a>
</g>
</g>
<!-- Node4 -->
<g id="Node000004" class="node">
<title>Node4</title>
<g id="a_Node000004"><a xlink:href="MemaPluginParameterInfo_8h.html" target="_top" xlink:title=" ">
<polygon fill="white" stroke="#666666" points="311.61,-74 156.61,-74 156.61,-55 311.61,-55 311.61,-74"/>
<text text-anchor="middle" x="234.11" y="-62" font-family="Helvetica,sans-Serif" font-size="10.00">MemaPluginParameterInfo.h</text>
</a>
</g>
</g>
<!-- Node1&#45;&gt;Node4 -->
<g id="edge3_Node000001_Node000004" class="edge">
<title>Node1&#45;&gt;Node4</title>
<g id="a_edge3_Node000001_Node000004"><a xlink:title=" ">
<path fill="none" stroke="#63b8ff" d="M113.96,-109.99C140.55,-100.14 175.79,-87.1 201.21,-77.68"/>
<polygon fill="#63b8ff" stroke="#63b8ff" points="202.62,-80.89 210.78,-74.14 200.19,-74.33 202.62,-80.89"/>
</a>
</g>
</g>
<!-- Node4&#45;&gt;Node2 -->
<g id="edge4_Node000004_Node000002" class="edge">
<title>Node4&#45;&gt;Node2</title>
<g id="a_edge4_Node000004_Node000002"><a xlink:title=" ">
<path fill="none" stroke="#63b8ff" d="M214.03,-54.98C193.74,-46.38 162.16,-32.99 138.94,-23.15"/>
<polygon fill="#63b8ff" stroke="#63b8ff" points="140.13,-19.85 129.56,-19.17 137.4,-26.3 140.13,-19.85"/>
</a>
</g>
</g>
</g>
</svg>
