<?xml version="1.0" encoding="UTF-8" standalone="no"?>
<!DOCTYPE svg PUBLIC "-//W3C//DTD SVG 1.1//EN"
 "http://www.w3.org/Graphics/SVG/1.1/DTD/svg11.dtd">
<!-- Generated by graphviz version 2.43.0 (0)
 -->
<!-- Title: Source/MemaProcessor/MemaProcessor.cpp Pages: 1 -->
<!--zoomable 324 -->

<svg id="main" version="1.1" xmlns="http://www.w3.org/2000/svg" xmlns:xlink="http://www.w3.org/1999/xlink" xml:space="preserve" onload="init(evt)">
<style type="text/css"><![CDATA[
.node, .edge {opacity: 0.7;}
.node.selected, .edge.selected {opacity: 1;}
.edge:hover path { stroke: red; }
.edge:hover polygon { stroke: red; fill: red; }
]]></style>

<defs>
  <circle id="rim" cx="0" cy="0" r="7"/>
  <circle id="rim2" cx="0" cy="0" r="3.5"/>
  <g id="zoomPlus">
    <use xlink:href="#rim" fill="#404040"><set attributeName="fill" to="#808080" begin="zoomplus.mouseover" end="zoomplus.mouseout"/></use>
    <path d="M-4,0h8M0,-4v8" fill="none" stroke="white" stroke-width="1.5" pointer-events="none"/>
  </g>
  <g id="zoomMin">
    <use xlink:href="#rim" fill="#404040"><set attributeName="fill" to="#808080" begin="zoomminus.mouseover" end="zoomminus.mouseout"/></use>
    <path d="M-4,0h8" fill="none" stroke="white" stroke-width="1.5" pointer-events="none"/>
  </g>
  <g id="arrowUp" transform="translate(30 24)">
    <use xlink:href="#rim"/>
    <path pointer-events="none" fill="none" stroke="white" stroke-width="1.5" d="M0,-3.0v7 M-2.5,-0.5L0,-3.0L2.5,-0.5"/>
  </g>
  <g id="arrowRight" transform="rotate(90) translate(36 -43)">
    <use xlink:href="#rim"/>
    <path pointer-events="none" fill="none" stroke="white" stroke-width="1.5" d="M0,-3.0v7 M-2.5,-0.5L0,-3.0L2.5,-0.5"/>
  </g>
  <g id="arrowDown" transform="rotate(180) translate(-30 -48)">
    <use xlink:href="#rim"/>
    <path pointer-events="none" fill="none" stroke="white" stroke-width="1.5" d="M0,-3.0v7 M-2.5,-0.5L0,-3.0L2.5,-0.5"/>
  </g>
  <g id="arrowLeft" transform="rotate(270) translate(-36 17)">
    <use xlink:href="#rim"/>
    <path pointer-events="none" fill="none" stroke="white" stroke-width="1.5" d="M0,-3.0v7 M-2.5,-0.5L0,-3.0L2.5,-0.5"/>
  </g>
  <g id="resetDef">
    <use xlink:href="#rim2" fill="#404040"><set attributeName="fill" to="#808080" begin="reset.mouseover" end="reset.mouseout"/></use>
  </g>
</defs>
<script type="application/ecmascript">
var viewWidth = 1431;
var viewHeight = 324;
var sectionId = 'dynsection-0';
</script>
<script type="application/ecmascript" xlink:href="svg.min.js"/>
<svg id="graph" class="graph">
<g id="viewport">
<title>Source/MemaProcessor/MemaProcessor.cpp</title>
<!-- Node1 -->
<g id="Node000001" class="node">
<title>Node1</title>
<g id="a_Node000001"><a xlink:title=" ">
<polygon fill="#999999" stroke="#666666" points="1163.85,-316 1032.85,-316 1032.85,-286 1163.85,-286 1163.85,-316"/>
<text text-anchor="start" x="1040.85" y="-304" font-family="Helvetica,sans-Serif" font-size="10.00">Source/MemaProcessor</text>
<text text-anchor="middle" x="1098.35" y="-293" font-family="Helvetica,sans-Serif" font-size="10.00">/MemaProcessor.cpp</text>
</a>
</g>
</g>
<!-- Node2 -->
<g id="Node000002" class="node">
<title>Node2</title>
<g id="a_Node000002"><a xlink:href="MemaProcessor_8h.html" target="_top" xlink:title=" ">
<polygon fill="white" stroke="#666666" points="885.85,-250 782.85,-250 782.85,-231 885.85,-231 885.85,-250"/>
<text text-anchor="middle" x="834.35" y="-238" font-family="Helvetica,sans-Serif" font-size="10.00">MemaProcessor.h</text>
</a>
</g>
</g>
<!-- Node1&#45;&gt;Node2 -->
<g id="edge1_Node000001_Node000002" class="edge">
<title>Node1&#45;&gt;Node2</title>
<g id="a_edge1_Node000001_Node000002"><a xlink:title=" ">
<path fill="none" stroke="#63b8ff" d="M1035.12,-285.99C988.38,-275.63 925.67,-261.73 882.85,-252.25"/>
<polygon fill="#63b8ff" stroke="#63b8ff" points="883.48,-248.8 872.96,-250.05 881.96,-255.63 883.48,-248.8"/>
</a>
</g>
</g>
<!-- Node5 -->
<g id="Node000005" class="node">
<title>Node5</title>
<g id="a_Node000005"><a xlink:title=" ">
<polygon fill="#e0e0e0" stroke="#999999" points="1054.85,-134.5 929.85,-134.5 929.85,-115.5 1054.85,-115.5 1054.85,-134.5"/>
<text text-anchor="middle" x="992.35" y="-122.5" font-family="Helvetica,sans-Serif" font-size="10.00">CustomLookAndFeel.h</text>
</a>
</g>
</g>
<!-- Node1&#45;&gt;Node5 -->
<g id="edge35_Node000001_Node000005" class="edge">
<title>Node1&#45;&gt;Node5</title>
<g id="a_edge35_Node000001_Node000005"><a xlink:title=" ">
<path fill="none" stroke="#63b8ff" d="M1090.88,-286C1078.35,-262.77 1052.07,-214.96 1027.35,-176 1020.21,-164.74 1011.64,-152.48 1004.77,-142.91"/>
<polygon fill="#63b8ff" stroke="#63b8ff" points="1007.5,-140.72 998.8,-134.69 1001.84,-144.84 1007.5,-140.72"/>
</a>
</g>
</g>
<!-- Node14 -->
<g id="Node000014" class="node">
<title>Node14</title>
<g id="a_Node000014"><a xlink:href="MemaAppConfiguration_8h.html" target="_top" xlink:title=" ">
<polygon fill="white" stroke="#666666" points="1223.85,-195 1074.85,-195 1074.85,-176 1223.85,-176 1223.85,-195"/>
<text text-anchor="middle" x="1149.35" y="-183" font-family="Helvetica,sans-Serif" font-size="10.00">../MemaAppConfiguration.h</text>
</a>
</g>
</g>
<!-- Node1&#45;&gt;Node14 -->
<g id="edge34_Node000001_Node000014" class="edge">
<title>Node1&#45;&gt;Node14</title>
<g id="a_edge34_Node000001_Node000014"><a xlink:title=" ">
<path fill="none" stroke="#63b8ff" d="M1104.81,-285.63C1114.07,-265.03 1131.1,-227.12 1141.21,-204.63"/>
<polygon fill="#63b8ff" stroke="#63b8ff" points="1144.53,-205.79 1145.43,-195.23 1138.14,-202.92 1144.53,-205.79"/>
</a>
</g>
</g>
<!-- Node17 -->
<g id="Node000017" class="node">
<title>Node17</title>
<g id="a_Node000017"><a xlink:href="InterprocessConnection_8h.html" target="_top" xlink:title=" ">
<polygon fill="white" stroke="#666666" points="1343.35,-74 1203.35,-74 1203.35,-55 1343.35,-55 1343.35,-74"/>
<text text-anchor="middle" x="1273.35" y="-62" font-family="Helvetica,sans-Serif" font-size="10.00">InterprocessConnection.h</text>
</a>
</g>
</g>
<!-- Node1&#45;&gt;Node17 -->
<g id="edge27_Node000001_Node000017" class="edge">
<title>Node1&#45;&gt;Node17</title>
<g id="a_edge27_Node000001_Node000017"><a xlink:title=" ">
<path fill="none" stroke="#63b8ff" d="M1124.67,-285.93C1154.9,-268.46 1203.97,-235.92 1232.35,-195 1256.35,-160.4 1266.82,-111.06 1270.96,-84.38"/>
<polygon fill="#63b8ff" stroke="#63b8ff" points="1274.47,-84.53 1272.4,-74.14 1267.54,-83.55 1274.47,-84.53"/>
</a>
</g>
</g>
<!-- Node18 -->
<g id="Node000018" class="node">
<title>Node18</title>
<g id="a_Node000018"><a xlink:href="MemaCommanders_8h.html" target="_top" xlink:title=" ">
<polygon fill="white" stroke="#666666" points="386.35,-195 264.35,-195 264.35,-176 386.35,-176 386.35,-195"/>
<text text-anchor="middle" x="325.35" y="-183" font-family="Helvetica,sans-Serif" font-size="10.00">MemaCommanders.h</text>
</a>
</g>
</g>
<!-- Node1&#45;&gt;Node18 -->
<g id="edge29_Node000001_Node000018" class="edge">
<title>Node1&#45;&gt;Node18</title>
<g id="a_edge29_Node000001_Node000018"><a xlink:title=" ">
<path fill="none" stroke="#63b8ff" d="M1032.78,-290.37C887.8,-269.08 541.21,-218.19 393.7,-196.54"/>
<polygon fill="#63b8ff" stroke="#63b8ff" points="393.83,-193.02 383.43,-195.03 392.81,-199.94 393.83,-193.02"/>
</a>
</g>
</g>
<!-- Node19 -->
<g id="Node000019" class="node">
<title>Node19</title>
<g id="a_Node000019"><a xlink:href="MemaServiceData_8h.html" target="_top" xlink:title=" ">
<polygon fill="white" stroke="#666666" points="1423.35,-250 1307.35,-250 1307.35,-231 1423.35,-231 1423.35,-250"/>
<text text-anchor="middle" x="1365.35" y="-238" font-family="Helvetica,sans-Serif" font-size="10.00">MemaServiceData.h</text>
</a>
</g>
</g>
<!-- Node1&#45;&gt;Node19 -->
<g id="edge32_Node000001_Node000019" class="edge">
<title>Node1&#45;&gt;Node19</title>
<g id="a_edge32_Node000001_Node000019"><a xlink:title=" ">
<path fill="none" stroke="#63b8ff" d="M1162.31,-285.99C1209.58,-275.63 1273,-261.73 1316.31,-252.25"/>
<polygon fill="#63b8ff" stroke="#63b8ff" points="1317.3,-255.61 1326.32,-250.05 1315.8,-248.78 1317.3,-255.61"/>
</a>
</g>
</g>
<!-- Node3 -->
<g id="Node000003" class="node">
<title>Node3</title>
<g id="a_Node000003"><a xlink:title=" ">
<polygon fill="#e0e0e0" stroke="#999999" points="724.35,-19 644.35,-19 644.35,0 724.35,0 724.35,-19"/>
<text text-anchor="middle" x="684.35" y="-7" font-family="Helvetica,sans-Serif" font-size="10.00">JuceHeader.h</text>
</a>
</g>
</g>
<!-- Node2&#45;&gt;Node3 -->
<g id="edge2_Node000002_Node000003" class="edge">
<title>Node2&#45;&gt;Node3</title>
<g id="a_edge2_Node000002_Node000003"><a xlink:title=" ">
<path fill="none" stroke="#63b8ff" d="M782.81,-236.6C753.53,-232 719.07,-220.94 700.35,-195 682.06,-169.65 723.49,-84.9 714.35,-55 711.27,-44.9 705.03,-35.02 699.04,-27.15"/>
<polygon fill="#63b8ff" stroke="#63b8ff" points="701.6,-24.74 692.57,-19.2 696.17,-29.16 701.6,-24.74"/>
</a>
</g>
</g>
<!-- Node4 -->
<g id="Node000004" class="node">
<title>Node4</title>
<g id="a_Node000004"><a xlink:href="MemaMessages_8h.html" target="_top" xlink:title=" ">
<polygon fill="white" stroke="#666666" points="1018.85,-195 913.85,-195 913.85,-176 1018.85,-176 1018.85,-195"/>
<text text-anchor="middle" x="966.35" y="-183" font-family="Helvetica,sans-Serif" font-size="10.00">MemaMessages.h</text>
</a>
</g>
</g>
<!-- Node2&#45;&gt;Node4 -->
<g id="edge3_Node000002_Node000004" class="edge">
<title>Node2&#45;&gt;Node4</title>
<g id="a_edge3_Node000002_Node000004"><a xlink:title=" ">
<path fill="none" stroke="#63b8ff" d="M855.56,-230.98C877.08,-222.34 910.64,-208.87 935.18,-199.02"/>
<polygon fill="#63b8ff" stroke="#63b8ff" points="936.79,-202.14 944.76,-195.17 934.18,-195.65 936.79,-202.14"/>
</a>
</g>
</g>
<!-- Node6 -->
<g id="Node000006" class="node">
<title>Node6</title>
<g id="a_Node000006"><a xlink:href="MemaPluginParameterInfo_8h.html" target="_top" xlink:title=" ">
<polygon fill="white" stroke="#666666" points="872.85,-134.5 717.85,-134.5 717.85,-115.5 872.85,-115.5 872.85,-134.5"/>
<text text-anchor="middle" x="795.35" y="-122.5" font-family="Helvetica,sans-Serif" font-size="10.00">MemaPluginParameterInfo.h</text>
</a>
</g>
</g>
<!-- Node2&#45;&gt;Node6 -->
<g id="edge18_Node000002_Node000006" class="edge">
<title>Node2&#45;&gt;Node6</title>
<g id="a_edge18_Node000002_Node000006"><a xlink:title=" ">
<path fill="none" stroke="#63b8ff" d="M844.02,-230.81C856.46,-218.53 875.35,-195.42 865.35,-176 856.92,-159.61 840.36,-147.41 825.46,-139.16"/>
<polygon fill="#63b8ff" stroke="#63b8ff" points="826.97,-136 816.48,-134.53 823.77,-142.23 826.97,-136"/>
</a>
</g>
</g>
<!-- Node7 -->
<g id="Node000007" class="node">
<title>Node7</title>
<g id="a_Node000007"><a xlink:href="ProcessorDataAnalyzer_8h.html" target="_top" xlink:title=" ">
<polygon fill="white" stroke="#666666" points="542.35,-195 404.35,-195 404.35,-176 542.35,-176 542.35,-195"/>
<text text-anchor="middle" x="473.35" y="-183" font-family="Helvetica,sans-Serif" font-size="10.00">ProcessorDataAnalyzer.h</text>
</a>
</g>
</g>
<!-- Node2&#45;&gt;Node7 -->
<g id="edge8_Node000002_Node000007" class="edge">
<title>Node2&#45;&gt;Node7</title>
<g id="a_edge8_Node000002_Node000007"><a xlink:title=" ">
<path fill="none" stroke="#63b8ff" d="M782.63,-231.91C719.17,-222.59 611.41,-206.77 541.31,-196.48"/>
<polygon fill="#63b8ff" stroke="#63b8ff" points="541.66,-192.99 531.25,-195 540.64,-199.92 541.66,-192.99"/>
</a>
</g>
</g>
<!-- Node12 -->
<g id="Node000012" class="node">
<title>Node12</title>
<g id="a_Node000012"><a xlink:href="MemaProcessorEditor_8h.html" target="_top" xlink:title=" ">
<polygon fill="white" stroke="#666666" points="661.35,-140 527.35,-140 527.35,-110 661.35,-110 661.35,-140"/>
<text text-anchor="start" x="535.35" y="-128" font-family="Helvetica,sans-Serif" font-size="10.00">../MemaProcessorEditor</text>
<text text-anchor="middle" x="594.35" y="-117" font-family="Helvetica,sans-Serif" font-size="10.00">/MemaProcessorEditor.h</text>
</a>
</g>
</g>
<!-- Node2&#45;&gt;Node12 -->
<g id="edge19_Node000002_Node000012" class="edge">
<title>Node2&#45;&gt;Node12</title>
<g id="a_edge19_Node000002_Node000012"><a xlink:title=" ">
<path fill="none" stroke="#63b8ff" d="M782.54,-232.51C748.23,-226.28 703.12,-214.95 667.35,-195 645.9,-183.03 625.94,-163.33 612.34,-148.04"/>
<polygon fill="#63b8ff" stroke="#63b8ff" points="614.65,-145.36 605.47,-140.08 609.35,-149.93 614.65,-145.36"/>
</a>
</g>
</g>
<!-- Node2&#45;&gt;Node14 -->
<g id="edge23_Node000002_Node000014" class="edge">
<title>Node2&#45;&gt;Node14</title>
<g id="a_edge23_Node000002_Node000014"><a xlink:title=" ">
<path fill="none" stroke="#63b8ff" d="M884.97,-230.98C940.45,-221.65 1029.45,-206.67 1088.65,-196.71"/>
<polygon fill="#63b8ff" stroke="#63b8ff" points="1089.33,-200.15 1098.61,-195.04 1088.17,-193.25 1089.33,-200.15"/>
</a>
</g>
</g>
<!-- Node16 -->
<g id="Node000016" class="node">
<title>Node16</title>
<g id="a_Node000016"><a xlink:title=" ">
<polygon fill="#e0e0e0" stroke="#999999" points="856.85,-195 709.85,-195 709.85,-176 856.85,-176 856.85,-195"/>
<text text-anchor="middle" x="783.35" y="-183" font-family="Helvetica,sans-Serif" font-size="10.00">ServiceTopologyManager.h</text>
</a>
</g>
</g>
<!-- Node2&#45;&gt;Node16 -->
<g id="edge26_Node000002_Node000016" class="edge">
<title>Node2&#45;&gt;Node16</title>
<g id="a_edge26_Node000002_Node000016"><a xlink:title=" ">
<path fill="none" stroke="#63b8ff" d="M825.93,-230.75C818.58,-223.11 807.72,-211.82 798.81,-202.56"/>
<polygon fill="#63b8ff" stroke="#63b8ff" points="801.08,-199.87 791.62,-195.09 796.03,-204.72 801.08,-199.87"/>
</a>
</g>
</g>
<!-- Node4&#45;&gt;Node3 -->
<g id="edge4_Node000004_Node000003" class="edge">
<title>Node4&#45;&gt;Node3</title>
<g id="a_edge4_Node000004_Node000003"><a xlink:title=" ">
<path fill="none" stroke="#63b8ff" d="M958.02,-175.89C943.44,-161.14 911.93,-130.64 881.35,-110 826.02,-72.65 754.75,-40.05 714.87,-23.04"/>
<polygon fill="#63b8ff" stroke="#63b8ff" points="716.01,-19.72 705.44,-19.05 713.29,-26.17 716.01,-19.72"/>
</a>
</g>
</g>
<!-- Node4&#45;&gt;Node5 -->
<g id="edge5_Node000004_Node000005" class="edge">
<title>Node4&#45;&gt;Node5</title>
<g id="a_edge5_Node000004_Node000005"><a xlink:title=" ">
<path fill="none" stroke="#63b8ff" d="M970.19,-175.87C973.92,-167.49 979.68,-154.51 984.4,-143.89"/>
<polygon fill="#63b8ff" stroke="#63b8ff" points="987.64,-145.23 988.5,-134.67 981.24,-142.38 987.64,-145.23"/>
</a>
</g>
</g>
<!-- Node4&#45;&gt;Node6 -->
<g id="edge6_Node000004_Node000006" class="edge">
<title>Node4&#45;&gt;Node6</title>
<g id="a_edge6_Node000004_Node000006"><a xlink:title=" ">
<path fill="none" stroke="#63b8ff" d="M941.49,-175.99C912.11,-165.94 863.05,-149.16 829.96,-137.84"/>
<polygon fill="#63b8ff" stroke="#63b8ff" points="830.84,-134.44 820.25,-134.52 828.58,-141.07 830.84,-134.44"/>
</a>
</g>
</g>
<!-- Node6&#45;&gt;Node3 -->
<g id="edge7_Node000006_Node000003" class="edge">
<title>Node6&#45;&gt;Node3</title>
<g id="a_edge7_Node000006_Node000003"><a xlink:title=" ">
<path fill="none" stroke="#63b8ff" d="M790.59,-115.22C782.79,-101.36 766.27,-74.05 747.35,-55 735.66,-43.22 720.53,-32.42 708.02,-24.41"/>
<polygon fill="#63b8ff" stroke="#63b8ff" points="709.81,-21.4 699.47,-19.09 706.12,-27.34 709.81,-21.4"/>
</a>
</g>
</g>
<!-- Node7&#45;&gt;Node3 -->
<g id="edge9_Node000007_Node000003" class="edge">
<title>Node7&#45;&gt;Node3</title>
<g id="a_edge9_Node000007_Node000003"><a xlink:title=" ">
<path fill="none" stroke="#63b8ff" d="M475.95,-175.8C483.32,-152.63 506.57,-88.86 548.35,-55 572.85,-35.15 606.48,-24.04 634.17,-17.89"/>
<polygon fill="#63b8ff" stroke="#63b8ff" points="635,-21.3 644.08,-15.84 633.58,-14.44 635,-21.3"/>
</a>
</g>
</g>
<!-- Node8 -->
<g id="Node000008" class="node">
<title>Node8</title>
<g id="a_Node000008"><a xlink:href="ProcessorAudioSignalData_8h.html" target="_top" xlink:title=" ">
<polygon fill="white" stroke="#666666" points="169.35,-134.5 15.35,-134.5 15.35,-115.5 169.35,-115.5 169.35,-134.5"/>
<text text-anchor="middle" x="92.35" y="-122.5" font-family="Helvetica,sans-Serif" font-size="10.00">ProcessorAudioSignalData.h</text>
</a>
</g>
</g>
<!-- Node7&#45;&gt;Node8 -->
<g id="edge10_Node000007_Node000008" class="edge">
<title>Node7&#45;&gt;Node8</title>
<g id="a_edge10_Node000007_Node000008"><a xlink:title=" ">
<path fill="none" stroke="#63b8ff" d="M415.39,-175.96C355.88,-167.14 260.61,-152.9 178.35,-140 170.49,-138.77 162.23,-137.45 154.06,-136.13"/>
<polygon fill="#63b8ff" stroke="#63b8ff" points="154.61,-132.68 144.18,-134.54 153.5,-139.59 154.61,-132.68"/>
</a>
</g>
</g>
<!-- Node10 -->
<g id="Node000010" class="node">
<title>Node10</title>
<g id="a_Node000010"><a xlink:href="ProcessorLevelData_8h.html" target="_top" xlink:title=" ">
<polygon fill="white" stroke="#666666" points="309.35,-134.5 187.35,-134.5 187.35,-115.5 309.35,-115.5 309.35,-134.5"/>
<text text-anchor="middle" x="248.35" y="-122.5" font-family="Helvetica,sans-Serif" font-size="10.00">ProcessorLevelData.h</text>
</a>
</g>
</g>
<!-- Node7&#45;&gt;Node10 -->
<g id="edge14_Node000007_Node000010" class="edge">
<title>Node7&#45;&gt;Node10</title>
<g id="a_edge14_Node000007_Node000010"><a xlink:title=" ">
<path fill="none" stroke="#63b8ff" d="M440.64,-175.99C401.06,-165.7 334.35,-148.36 290.83,-137.04"/>
<polygon fill="#63b8ff" stroke="#63b8ff" points="291.67,-133.65 281.11,-134.52 289.91,-140.42 291.67,-133.65"/>
</a>
</g>
</g>
<!-- Node11 -->
<g id="Node000011" class="node">
<title>Node11</title>
<g id="a_Node000011"><a xlink:href="ProcessorSpectrumData_8h.html" target="_top" xlink:title=" ">
<polygon fill="white" stroke="#666666" points="470.85,-134.5 327.85,-134.5 327.85,-115.5 470.85,-115.5 470.85,-134.5"/>
<text text-anchor="middle" x="399.35" y="-122.5" font-family="Helvetica,sans-Serif" font-size="10.00">ProcessorSpectrumData.h</text>
</a>
</g>
</g>
<!-- Node7&#45;&gt;Node11 -->
<g id="edge16_Node000007_Node000011" class="edge">
<title>Node7&#45;&gt;Node11</title>
<g id="a_edge16_Node000007_Node000011"><a xlink:title=" ">
<path fill="none" stroke="#63b8ff" d="M462.44,-175.87C450.85,-166.71 432.32,-152.06 418.34,-141.01"/>
<polygon fill="#63b8ff" stroke="#63b8ff" points="420.33,-138.12 410.32,-134.67 415.99,-143.61 420.33,-138.12"/>
</a>
</g>
</g>
<!-- Node8&#45;&gt;Node3 -->
<g id="edge11_Node000008_Node000003" class="edge">
<title>Node8&#45;&gt;Node3</title>
<g id="a_edge11_Node000008_Node000003"><a xlink:title=" ">
<path fill="none" stroke="#63b8ff" d="M109.94,-115.33C141.18,-100.34 208.8,-69.77 269.35,-55 398.37,-23.53 555.36,-14.31 634.14,-11.61"/>
<polygon fill="#63b8ff" stroke="#63b8ff" points="634.39,-15.11 644.27,-11.29 634.16,-8.11 634.39,-15.11"/>
</a>
</g>
</g>
<!-- Node9 -->
<g id="Node000009" class="node">
<title>Node9</title>
<g id="a_Node000009"><a xlink:href="AbstractProcessorData_8h.html" target="_top" xlink:title=" ">
<polygon fill="white" stroke="#666666" points="415.85,-74 278.85,-74 278.85,-55 415.85,-55 415.85,-74"/>
<text text-anchor="middle" x="347.35" y="-62" font-family="Helvetica,sans-Serif" font-size="10.00">AbstractProcessorData.h</text>
</a>
</g>
</g>
<!-- Node8&#45;&gt;Node9 -->
<g id="edge12_Node000008_Node000009" class="edge">
<title>Node8&#45;&gt;Node9</title>
<g id="a_edge12_Node000008_Node000009"><a xlink:title=" ">
<path fill="none" stroke="#63b8ff" d="M129.43,-115.49C174.66,-105.12 251.17,-87.57 300.45,-76.26"/>
<polygon fill="#63b8ff" stroke="#63b8ff" points="301.27,-79.66 310.23,-74.02 299.7,-72.84 301.27,-79.66"/>
</a>
</g>
</g>
<!-- Node9&#45;&gt;Node3 -->
<g id="edge13_Node000009_Node000003" class="edge">
<title>Node9&#45;&gt;Node3</title>
<g id="a_edge13_Node000009_Node000003"><a xlink:title=" ">
<path fill="none" stroke="#63b8ff" d="M401.5,-54.98C465.65,-44.9 571.68,-28.22 634.09,-18.41"/>
<polygon fill="#63b8ff" stroke="#63b8ff" points="634.76,-21.84 644.09,-16.83 633.67,-14.93 634.76,-21.84"/>
</a>
</g>
</g>
<!-- Node10&#45;&gt;Node9 -->
<g id="edge15_Node000010_Node000009" class="edge">
<title>Node10&#45;&gt;Node9</title>
<g id="a_edge15_Node000010_Node000009"><a xlink:title=" ">
<path fill="none" stroke="#63b8ff" d="M262.96,-115.37C279.05,-105.86 305.14,-90.45 324.05,-79.27"/>
<polygon fill="#63b8ff" stroke="#63b8ff" points="325.86,-82.27 332.69,-74.17 322.3,-76.24 325.86,-82.27"/>
</a>
</g>
</g>
<!-- Node11&#45;&gt;Node9 -->
<g id="edge17_Node000011_Node000009" class="edge">
<title>Node11&#45;&gt;Node9</title>
<g id="a_edge17_Node000011_Node000009"><a xlink:title=" ">
<path fill="none" stroke="#63b8ff" d="M391.68,-115.37C383.85,-106.55 371.5,-92.66 361.82,-81.77"/>
<polygon fill="#63b8ff" stroke="#63b8ff" points="364.32,-79.32 355.06,-74.17 359.09,-83.97 364.32,-79.32"/>
</a>
</g>
</g>
<!-- Node12&#45;&gt;Node3 -->
<g id="edge20_Node000012_Node000003" class="edge">
<title>Node12&#45;&gt;Node3</title>
<g id="a_edge20_Node000012_Node000003"><a xlink:title=" ">
<path fill="none" stroke="#63b8ff" d="M577.27,-109.96C561.92,-95.61 543.6,-72.94 556.35,-55 573.96,-30.24 606.38,-19.14 634.18,-14.21"/>
<polygon fill="#63b8ff" stroke="#63b8ff" points="634.83,-17.65 644.18,-12.66 633.76,-10.73 634.83,-17.65"/>
</a>
</g>
</g>
<!-- Node13 -->
<g id="Node000013" class="node">
<title>Node13</title>
<g id="a_Node000013"><a xlink:href="AudioSelectComponent_8h.html" target="_top" xlink:title=" ">
<polygon fill="white" stroke="#666666" points="705.35,-74 565.35,-74 565.35,-55 705.35,-55 705.35,-74"/>
<text text-anchor="middle" x="635.35" y="-62" font-family="Helvetica,sans-Serif" font-size="10.00">AudioSelectComponent.h</text>
</a>
</g>
</g>
<!-- Node12&#45;&gt;Node13 -->
<g id="edge21_Node000012_Node000013" class="edge">
<title>Node12&#45;&gt;Node13</title>
<g id="a_edge21_Node000012_Node000013"><a xlink:title=" ">
<path fill="none" stroke="#63b8ff" d="M604.28,-109.84C610.05,-101.61 617.36,-91.18 623.44,-82.51"/>
<polygon fill="#63b8ff" stroke="#63b8ff" points="626.34,-84.46 629.21,-74.27 620.61,-80.45 626.34,-84.46"/>
</a>
</g>
</g>
<!-- Node13&#45;&gt;Node3 -->
<g id="edge22_Node000013_Node000003" class="edge">
<title>Node13&#45;&gt;Node3</title>
<g id="a_edge22_Node000013_Node000003"><a xlink:title=" ">
<path fill="none" stroke="#63b8ff" d="M643.45,-54.75C650.51,-47.11 660.94,-35.82 669.5,-26.56"/>
<polygon fill="#63b8ff" stroke="#63b8ff" points="672.2,-28.81 676.41,-19.09 667.06,-24.06 672.2,-28.81"/>
</a>
</g>
</g>
<!-- Node14&#45;&gt;Node3 -->
<g id="edge24_Node000014_Node000003" class="edge">
<title>Node14&#45;&gt;Node3</title>
<g id="a_edge24_Node000014_Node000003"><a xlink:title=" ">
<path fill="none" stroke="#63b8ff" d="M1172.47,-175.98C1187.94,-168.92 1207.12,-157.23 1216.35,-140 1222.66,-128.25 1224.87,-120.26 1216.35,-110 1155.26,-36.42 854.94,-16.94 734.48,-12.05"/>
<polygon fill="#63b8ff" stroke="#63b8ff" points="734.54,-8.55 724.41,-11.66 734.27,-15.55 734.54,-8.55"/>
</a>
</g>
</g>
<!-- Node15 -->
<g id="Node000015" class="node">
<title>Node15</title>
<g id="a_Node000015"><a xlink:title=" ">
<polygon fill="#e0e0e0" stroke="#999999" points="1207.35,-134.5 1073.35,-134.5 1073.35,-115.5 1207.35,-115.5 1207.35,-134.5"/>
<text text-anchor="middle" x="1140.35" y="-122.5" font-family="Helvetica,sans-Serif" font-size="10.00">AppConfigurationBase.h</text>
</a>
</g>
</g>
<!-- Node14&#45;&gt;Node15 -->
<g id="edge25_Node000014_Node000015" class="edge">
<title>Node14&#45;&gt;Node15</title>
<g id="a_edge25_Node000014_Node000015"><a xlink:title=" ">
<path fill="none" stroke="#63b8ff" d="M1148.03,-175.87C1146.76,-167.66 1144.82,-155.04 1143.21,-144.55"/>
<polygon fill="#63b8ff" stroke="#63b8ff" points="1146.67,-144.02 1141.69,-134.67 1139.75,-145.08 1146.67,-144.02"/>
</a>
</g>
</g>
<!-- Node17&#45;&gt;Node3 -->
<g id="edge28_Node000017_Node000003" class="edge">
<title>Node17&#45;&gt;Node3</title>
<g id="a_edge28_Node000017_Node000003"><a xlink:title=" ">
<path fill="none" stroke="#63b8ff" d="M1203.24,-56.34C1198.54,-55.88 1193.88,-55.43 1189.35,-55 1022.93,-39.25 825.48,-22.37 734.65,-14.71"/>
<polygon fill="#63b8ff" stroke="#63b8ff" points="734.89,-11.22 724.63,-13.87 734.3,-18.2 734.89,-11.22"/>
</a>
</g>
</g>
<!-- Node18&#45;&gt;Node3 -->
<g id="edge30_Node000018_Node000003" class="edge">
<title>Node18&#45;&gt;Node3</title>
<g id="a_edge30_Node000018_Node000003"><a xlink:title=" ">
<path fill="none" stroke="#63b8ff" d="M264.01,-185.08C180.88,-184.41 39.07,-177.6 6.35,-140 -2.4,-129.94 -1.73,-120.6 6.35,-110 62.24,-36.68 115.67,-71.56 206.35,-55 360.58,-26.84 546.23,-16.04 633.87,-12.29"/>
<polygon fill="#63b8ff" stroke="#63b8ff" points="634.21,-15.78 644.06,-11.86 633.92,-8.78 634.21,-15.78"/>
</a>
</g>
</g>
<!-- Node18&#45;&gt;Node6 -->
<g id="edge31_Node000018_Node000006" class="edge">
<title>Node18&#45;&gt;Node6</title>
<g id="a_edge31_Node000018_Node000006"><a xlink:title=" ">
<path fill="none" stroke="#63b8ff" d="M386.8,-176.85C471.46,-166.31 624.02,-147.33 716.86,-135.77"/>
<polygon fill="#63b8ff" stroke="#63b8ff" points="717.55,-139.21 727.04,-134.5 716.68,-132.27 717.55,-139.21"/>
</a>
</g>
</g>
<!-- Node19&#45;&gt;Node3 -->
<g id="edge33_Node000019_Node000003" class="edge">
<title>Node19&#45;&gt;Node3</title>
<g id="a_edge33_Node000019_Node000003"><a xlink:title=" ">
<path fill="none" stroke="#63b8ff" d="M1368.1,-230.98C1376.97,-201.65 1401.49,-103.95 1352.35,-55 1308.88,-11.69 882.55,-9.55 734.61,-10.13"/>
<polygon fill="#63b8ff" stroke="#63b8ff" points="734.43,-6.63 724.45,-10.18 734.47,-13.63 734.43,-6.63"/>
</a>
</g>
</g>
</g>
</svg>

<g id="navigator" transform="translate(0 0)" fill="#404254">
  <rect fill="#f2f5e9" fill-opacity="0.5" stroke="#606060" stroke-width=".5" x="0" y="0" width="60" height="60"/>
  <use id="zoomplus" xlink:href="#zoomPlus" x="17" y="9" onmousedown="handleZoom(evt,'in')"/>
  <use id="zoomminus" xlink:href="#zoomMin" x="42" y="9" onmousedown="handleZoom(evt,'out')"/>
  <use id="reset" xlink:href="#resetDef" x="30" y="36" onmousedown="handleReset()"/>
   <use id="arrowup" xlink:href="#arrowUp" x="0" y="0" onmousedown="handlePan(0,-1)"/>
  <use id="arrowright" xlink:href="#arrowRight" x="0" y="0" onmousedown="handlePan(1,0)"/>
  <use id="arrowdown" xlink:href="#arrowDown" x="0" y="0" onmousedown="handlePan(0,1)"/>
  <use id="arrowleft" xlink:href="#arrowLeft" x="0" y="0" onmousedown="handlePan(-1,0)"/>
</g>
<svg viewBox="0 0 15 15" width="100%" height="30px" preserveAspectRatio="xMaxYMin meet">
 <g id="arrow_out" transform="scale(0.3 0.3)">
  <a xlink:href="MemaProcessor_8cpp__incl_org.svg" target="_base">
   <rect id="button" ry="5" rx="5" y="6" x="6" height="38" width="38"
        fill="#f2f5e9" fill-opacity="0.5" stroke="#606060" stroke-width="1.0"/>
   <path id="arrow"
     d="M 11.500037,31.436501 C 11.940474,20.09759 22.043105,11.32322 32.158766,21.979434 L 37.068811,17.246167 C 37.068811,17.246167 37.088388,32 37.088388,32 L 22.160133,31.978069 C 22.160133,31.978069 26.997745,27.140456 26.997745,27.140456 C 18.528582,18.264221 13.291696,25.230495 11.500037,31.436501 z"
     style="fill:#404040;"/>
  </a>
 </g>
</svg>

<style type='text/css'>
<![CDATA[
[data-mouse-over-selected='false'] { opacity: 0.7; }
[data-mouse-over-selected='true']  { opacity: 1.0; }
]]>
</style>
<script type="application/ecmascript"><![CDATA[
document.addEventListener('DOMContentLoaded', (event) => {
  highlightEdges();
  highlightAdjacentNodes();
});
]]></script>
</svg>
