<?xml version="1.0" encoding="UTF-8" standalone="no"?>
<!DOCTYPE svg PUBLIC "-//W3C//DTD SVG 1.1//EN"
 "http://www.w3.org/Graphics/SVG/1.1/DTD/svg11.dtd">
<!-- Generated by graphviz version 2.43.0 (0)
 -->
<!-- Title: Source/MemaClientCommon/MemaClientDiscoverComponent.cpp Pages: 1 -->
<svg width="685pt" height="159pt"
 viewBox="0.00 0.00 684.50 159.00" xmlns="http://www.w3.org/2000/svg" xmlns:xlink="http://www.w3.org/1999/xlink">
<g id="graph0" class="graph" transform="scale(1 1) rotate(0) translate(4 155)">
<title>Source/MemaClientCommon/MemaClientDiscoverComponent.cpp</title>
<!-- Node1 -->
<g id="Node000001" class="node">
<title>Node1</title>
<g id="a_Node000001"><a xlink:title=" ">
<polygon fill="#999999" stroke="#666666" points="459,-151 261,-151 261,-121 459,-121 459,-151"/>
<text text-anchor="start" x="269" y="-139" font-family="Helvetica,sans-Serif" font-size="10.00">Source/MemaClientCommon</text>
<text text-anchor="middle" x="360" y="-128" font-family="Helvetica,sans-Serif" font-size="10.00">/MemaClientDiscoverComponent.cpp</text>
</a>
</g>
</g>
<!-- Node2 -->
<g id="Node000002" class="node">
<title>Node2</title>
<g id="a_Node000002"><a xlink:href="MemaClientDiscoverComponent_8h.html" target="_top" xlink:title=" ">
<polygon fill="white" stroke="#666666" points="366,-79.5 182,-79.5 182,-60.5 366,-60.5 366,-79.5"/>
<text text-anchor="middle" x="274" y="-67.5" font-family="Helvetica,sans-Serif" font-size="10.00">MemaClientDiscoverComponent.h</text>
</a>
</g>
</g>
<!-- Node1&#45;&gt;Node2 -->
<g id="edge1_Node000001_Node000002" class="edge">
<title>Node1&#45;&gt;Node2</title>
<g id="a_edge1_Node000001_Node000002"><a xlink:title=" ">
<path fill="none" stroke="#63b8ff" d="M340.91,-120.8C326.98,-110.43 308.14,-96.4 294,-85.88"/>
<polygon fill="#63b8ff" stroke="#63b8ff" points="296,-83.01 285.88,-79.84 291.82,-88.62 296,-83.01"/>
</a>
</g>
</g>
<!-- Node5 -->
<g id="Node000005" class="node">
<title>Node5</title>
<g id="a_Node000005"><a xlink:href="MemaServiceData_8h.html" target="_top" xlink:title=" ">
<polygon fill="white" stroke="#666666" points="164,-85 0,-85 0,-55 164,-55 164,-85"/>
<text text-anchor="start" x="8" y="-73" font-family="Helvetica,sans-Serif" font-size="10.00">MemaProcessor/MemaService</text>
<text text-anchor="middle" x="82" y="-62" font-family="Helvetica,sans-Serif" font-size="10.00">Data.h</text>
</a>
</g>
</g>
<!-- Node1&#45;&gt;Node5 -->
<g id="edge4_Node000001_Node000005" class="edge">
<title>Node1&#45;&gt;Node5</title>
<g id="a_edge4_Node000001_Node000005"><a xlink:title=" ">
<path fill="none" stroke="#63b8ff" d="M298.99,-120.95C255.9,-111.03 198.02,-97.71 152.88,-87.32"/>
<polygon fill="#63b8ff" stroke="#63b8ff" points="153.4,-83.85 142.87,-85.01 151.83,-90.67 153.4,-83.85"/>
</a>
</g>
</g>
<!-- Node6 -->
<g id="Node000006" class="node">
<title>Node6</title>
<g id="a_Node000006"><a xlink:title=" ">
<polygon fill="#e0e0e0" stroke="#999999" points="509.5,-79.5 384.5,-79.5 384.5,-60.5 509.5,-60.5 509.5,-79.5"/>
<text text-anchor="middle" x="447" y="-67.5" font-family="Helvetica,sans-Serif" font-size="10.00">CustomLookAndFeel.h</text>
</a>
</g>
</g>
<!-- Node1&#45;&gt;Node6 -->
<g id="edge6_Node000001_Node000006" class="edge">
<title>Node1&#45;&gt;Node6</title>
<g id="a_edge6_Node000001_Node000006"><a xlink:title=" ">
<path fill="none" stroke="#63b8ff" d="M379.31,-120.8C393.49,-110.37 412.69,-96.24 427.02,-85.69"/>
<polygon fill="#63b8ff" stroke="#63b8ff" points="429.25,-88.4 435.23,-79.66 425.1,-82.76 429.25,-88.4"/>
</a>
</g>
</g>
<!-- Node7 -->
<g id="Node000007" class="node">
<title>Node7</title>
<g id="a_Node000007"><a xlink:title=" ">
<polygon fill="#e0e0e0" stroke="#999999" points="676.5,-79.5 527.5,-79.5 527.5,-60.5 676.5,-60.5 676.5,-79.5"/>
<text text-anchor="middle" x="602" y="-67.5" font-family="Helvetica,sans-Serif" font-size="10.00">ServiceTopologyTreeView.h</text>
</a>
</g>
</g>
<!-- Node1&#45;&gt;Node7 -->
<g id="edge7_Node000001_Node000007" class="edge">
<title>Node1&#45;&gt;Node7</title>
<g id="a_edge7_Node000001_Node000007"><a xlink:title=" ">
<path fill="none" stroke="#63b8ff" d="M413.11,-120.95C457.23,-109.29 519.16,-92.91 559.91,-82.13"/>
<polygon fill="#63b8ff" stroke="#63b8ff" points="561.02,-85.46 569.79,-79.52 559.23,-78.69 561.02,-85.46"/>
</a>
</g>
</g>
<!-- Node3 -->
<g id="Node000003" class="node">
<title>Node3</title>
<g id="a_Node000003"><a xlink:title=" ">
<polygon fill="#e0e0e0" stroke="#999999" points="152,-19 72,-19 72,0 152,0 152,-19"/>
<text text-anchor="middle" x="112" y="-7" font-family="Helvetica,sans-Serif" font-size="10.00">JuceHeader.h</text>
</a>
</g>
</g>
<!-- Node2&#45;&gt;Node3 -->
<g id="edge2_Node000002_Node000003" class="edge">
<title>Node2&#45;&gt;Node3</title>
<g id="a_edge2_Node000002_Node000003"><a xlink:title=" ">
<path fill="none" stroke="#63b8ff" d="M250.44,-60.49C222.73,-50.49 176.53,-33.8 145.19,-22.49"/>
<polygon fill="#63b8ff" stroke="#63b8ff" points="146.18,-19.12 135.58,-19.02 143.8,-25.71 146.18,-19.12"/>
</a>
</g>
</g>
<!-- Node4 -->
<g id="Node000004" class="node">
<title>Node4</title>
<g id="a_Node000004"><a xlink:title=" ">
<polygon fill="#e0e0e0" stroke="#999999" points="347.5,-19 200.5,-19 200.5,0 347.5,0 347.5,-19"/>
<text text-anchor="middle" x="274" y="-7" font-family="Helvetica,sans-Serif" font-size="10.00">ServiceTopologyManager.h</text>
</a>
</g>
</g>
<!-- Node2&#45;&gt;Node4 -->
<g id="edge3_Node000002_Node000004" class="edge">
<title>Node2&#45;&gt;Node4</title>
<g id="a_edge3_Node000002_Node000004"><a xlink:title=" ">
<path fill="none" stroke="#63b8ff" d="M274,-60.37C274,-52.25 274,-39.81 274,-29.39"/>
<polygon fill="#63b8ff" stroke="#63b8ff" points="277.5,-29.17 274,-19.17 270.5,-29.17 277.5,-29.17"/>
</a>
</g>
</g>
<!-- Node5&#45;&gt;Node3 -->
<g id="edge5_Node000005_Node000003" class="edge">
<title>Node5&#45;&gt;Node3</title>
<g id="a_edge5_Node000005_Node000003"><a xlink:title=" ">
<path fill="none" stroke="#63b8ff" d="M89.26,-54.84C93.35,-46.87 98.49,-36.84 102.86,-28.33"/>
<polygon fill="#63b8ff" stroke="#63b8ff" points="106.06,-29.76 107.5,-19.27 99.83,-26.57 106.06,-29.76"/>
</a>
</g>
</g>
</g>
</svg>
