<?xml version="1.0" encoding="UTF-8" standalone="no"?>
<!DOCTYPE svg PUBLIC "-//W3C//DTD SVG 1.1//EN"
 "http://www.w3.org/Graphics/SVG/1.1/DTD/svg11.dtd">
<!-- Generated by graphviz version 2.43.0 (0)
 -->
<!-- Title: Source/MemaAppConfiguration.h Pages: 1 -->
<svg width="2273pt" height="291pt"
 viewBox="0.00 0.00 2273.00 291.00" xmlns="http://www.w3.org/2000/svg" xmlns:xlink="http://www.w3.org/1999/xlink">
<g id="graph0" class="graph" transform="scale(1 1) rotate(0) translate(4 287)">
<title>Source/MemaAppConfiguration.h</title>
<!-- Node1 -->
<g id="Node000001" class="node">
<title>Node1</title>
<g id="a_Node000001"><a xlink:title=" ">
<polygon fill="#999999" stroke="#666666" points="617,-283 441,-283 441,-264 617,-264 617,-283"/>
<text text-anchor="middle" x="529" y="-271" font-family="Helvetica,sans-Serif" font-size="10.00">Source/MemaAppConfiguration.h</text>
</a>
</g>
</g>
<!-- Node2 -->
<g id="Node000002" class="node">
<title>Node2</title>
<g id="a_Node000002"><a xlink:href="HeadlessCLIMenu_8cpp.html" target="_top" xlink:title=" ">
<polygon fill="white" stroke="#666666" points="586,-156.5 426,-156.5 426,-137.5 586,-137.5 586,-156.5"/>
<text text-anchor="middle" x="506" y="-144.5" font-family="Helvetica,sans-Serif" font-size="10.00">Source/HeadlessCLIMenu.cpp</text>
</a>
</g>
</g>
<!-- Node1&#45;&gt;Node2 -->
<g id="edge1_Node000001_Node000002" class="edge">
<title>Node1&#45;&gt;Node2</title>
<g id="a_edge1_Node000001_Node000002"><a xlink:title=" ">
<path fill="none" stroke="#63b8ff" d="M525.6,-254.1C520.56,-226.81 511.3,-176.67 507.59,-156.62"/>
<polygon fill="#63b8ff" stroke="#63b8ff" points="522.16,-254.74 527.42,-263.94 529.04,-253.47 522.16,-254.74"/>
</a>
</g>
</g>
<!-- Node3 -->
<g id="Node000003" class="node">
<title>Node3</title>
<g id="a_Node000003"><a xlink:href="Mema_8h.html" target="_top" xlink:title=" ">
<polygon fill="white" stroke="#666666" points="414,-222.5 322,-222.5 322,-203.5 414,-203.5 414,-222.5"/>
<text text-anchor="middle" x="368" y="-210.5" font-family="Helvetica,sans-Serif" font-size="10.00">Source/Mema.h</text>
</a>
</g>
</g>
<!-- Node1&#45;&gt;Node3 -->
<g id="edge2_Node000001_Node000003" class="edge">
<title>Node1&#45;&gt;Node3</title>
<g id="a_edge2_Node000001_Node000003"><a xlink:title=" ">
<path fill="none" stroke="#63b8ff" d="M496.04,-260.52C464.91,-249.21 419,-232.53 391.44,-222.52"/>
<polygon fill="#63b8ff" stroke="#63b8ff" points="495,-263.87 505.59,-263.99 497.39,-257.29 495,-263.87"/>
</a>
</g>
</g>
<!-- Node6 -->
<g id="Node000006" class="node">
<title>Node6</title>
<g id="a_Node000006"><a xlink:href="MemaAppConfiguration_8cpp.html" target="_top" xlink:title=" ">
<polygon fill="white" stroke="#666666" points="938,-222.5 750,-222.5 750,-203.5 938,-203.5 938,-222.5"/>
<text text-anchor="middle" x="844" y="-210.5" font-family="Helvetica,sans-Serif" font-size="10.00">Source/MemaAppConfiguration.cpp</text>
</a>
</g>
</g>
<!-- Node1&#45;&gt;Node6 -->
<g id="edge5_Node000001_Node000006" class="edge">
<title>Node1&#45;&gt;Node6</title>
<g id="a_edge5_Node000001_Node000006"><a xlink:title=" ">
<path fill="none" stroke="#63b8ff" d="M584.98,-262.1C645.75,-250.82 741.66,-233.01 798.14,-222.52"/>
<polygon fill="#63b8ff" stroke="#63b8ff" points="584,-258.73 574.8,-263.99 585.27,-265.61 584,-258.73"/>
</a>
</g>
</g>
<!-- Node7 -->
<g id="Node000007" class="node">
<title>Node7</title>
<g id="a_Node000007"><a xlink:href="MemaProcessor_8cpp.html" target="_top" xlink:title=" ">
<polygon fill="white" stroke="#666666" points="735.5,-162 604.5,-162 604.5,-132 735.5,-132 735.5,-162"/>
<text text-anchor="start" x="612.5" y="-150" font-family="Helvetica,sans-Serif" font-size="10.00">Source/MemaProcessor</text>
<text text-anchor="middle" x="670" y="-139" font-family="Helvetica,sans-Serif" font-size="10.00">/MemaProcessor.cpp</text>
</a>
</g>
</g>
<!-- Node1&#45;&gt;Node7 -->
<g id="edge6_Node000001_Node000007" class="edge">
<title>Node1&#45;&gt;Node7</title>
<g id="a_edge6_Node000001_Node000007"><a xlink:title=" ">
<path fill="none" stroke="#63b8ff" d="M540.7,-255.56C552.29,-239.55 571.13,-215.45 591,-198 606.98,-183.97 627.29,-171.21 643.32,-162.09"/>
<polygon fill="#63b8ff" stroke="#63b8ff" points="537.69,-253.76 534.77,-263.94 543.4,-257.8 537.69,-253.76"/>
</a>
</g>
</g>
<!-- Node8 -->
<g id="Node000008" class="node">
<title>Node8</title>
<g id="a_Node000008"><a xlink:href="MemaProcessor_8h.html" target="_top" xlink:title=" ">
<polygon fill="white" stroke="#666666" points="731.5,-228 600.5,-228 600.5,-198 731.5,-198 731.5,-228"/>
<text text-anchor="start" x="608.5" y="-216" font-family="Helvetica,sans-Serif" font-size="10.00">Source/MemaProcessor</text>
<text text-anchor="middle" x="666" y="-205" font-family="Helvetica,sans-Serif" font-size="10.00">/MemaProcessor.h</text>
</a>
</g>
</g>
<!-- Node1&#45;&gt;Node8 -->
<g id="edge7_Node000001_Node000008" class="edge">
<title>Node1&#45;&gt;Node8</title>
<g id="a_edge7_Node000001_Node000008"><a xlink:title=" ">
<path fill="none" stroke="#63b8ff" d="M558.38,-259.95C580.32,-250.59 610.31,-237.78 633.06,-228.06"/>
<polygon fill="#63b8ff" stroke="#63b8ff" points="556.74,-256.85 548.92,-263.99 559.49,-263.29 556.74,-256.85"/>
</a>
</g>
</g>
<!-- Node29 -->
<g id="Node000029" class="node">
<title>Node29</title>
<g id="a_Node000029"><a xlink:href="MemaUIComponent_8h.html" target="_top" xlink:title=" ">
<polygon fill="white" stroke="#666666" points="303.5,-222.5 144.5,-222.5 144.5,-203.5 303.5,-203.5 303.5,-222.5"/>
<text text-anchor="middle" x="224" y="-210.5" font-family="Helvetica,sans-Serif" font-size="10.00">Source/MemaUIComponent.h</text>
</a>
</g>
</g>
<!-- Node1&#45;&gt;Node29 -->
<g id="edge40_Node000001_Node000029" class="edge">
<title>Node1&#45;&gt;Node29</title>
<g id="a_edge40_Node000001_Node000029"><a xlink:title=" ">
<path fill="none" stroke="#63b8ff" d="M474.79,-262.1C415.95,-250.82 323.09,-233.01 268.4,-222.52"/>
<polygon fill="#63b8ff" stroke="#63b8ff" points="474.17,-265.55 484.65,-263.99 475.49,-258.67 474.17,-265.55"/>
</a>
</g>
</g>
<!-- Node4 -->
<g id="Node000004" class="node">
<title>Node4</title>
<g id="a_Node000004"><a xlink:href="Source_2Main_8cpp.html" target="_top" xlink:title=" ">
<polygon fill="white" stroke="#666666" points="285.5,-156.5 188.5,-156.5 188.5,-137.5 285.5,-137.5 285.5,-156.5"/>
<text text-anchor="middle" x="237" y="-144.5" font-family="Helvetica,sans-Serif" font-size="10.00">Source/Main.cpp</text>
</a>
</g>
</g>
<!-- Node3&#45;&gt;Node4 -->
<g id="edge3_Node000003_Node000004" class="edge">
<title>Node3&#45;&gt;Node4</title>
<g id="a_edge3_Node000003_Node000004"><a xlink:title=" ">
<path fill="none" stroke="#63b8ff" d="M341.11,-198.86C315.3,-186.25 277.04,-167.56 254.81,-156.7"/>
<polygon fill="#63b8ff" stroke="#63b8ff" points="339.81,-202.12 350.33,-203.37 342.88,-195.83 339.81,-202.12"/>
</a>
</g>
</g>
<!-- Node5 -->
<g id="Node000005" class="node">
<title>Node5</title>
<g id="a_Node000005"><a xlink:href="Mema_8cpp.html" target="_top" xlink:title=" ">
<polygon fill="white" stroke="#666666" points="408,-156.5 304,-156.5 304,-137.5 408,-137.5 408,-156.5"/>
<text text-anchor="middle" x="356" y="-144.5" font-family="Helvetica,sans-Serif" font-size="10.00">Source/Mema.cpp</text>
</a>
</g>
</g>
<!-- Node3&#45;&gt;Node5 -->
<g id="edge4_Node000003_Node000005" class="edge">
<title>Node3&#45;&gt;Node5</title>
<g id="a_edge4_Node000003_Node000005"><a xlink:title=" ">
<path fill="none" stroke="#63b8ff" d="M364.52,-193.45C362.27,-181.43 359.43,-166.32 357.67,-156.91"/>
<polygon fill="#63b8ff" stroke="#63b8ff" points="361.1,-194.18 366.38,-203.37 367.98,-192.89 361.1,-194.18"/>
</a>
</g>
</g>
<!-- Node8&#45;&gt;Node2 -->
<g id="edge10_Node000008_Node000002" class="edge">
<title>Node8&#45;&gt;Node2</title>
<g id="a_edge10_Node000008_Node000002"><a xlink:title=" ">
<path fill="none" stroke="#63b8ff" d="M621.25,-194.1C590.54,-181.82 551.16,-166.06 527.29,-156.52"/>
<polygon fill="#63b8ff" stroke="#63b8ff" points="620.3,-197.49 630.89,-197.95 622.9,-190.99 620.3,-197.49"/>
</a>
</g>
</g>
<!-- Node8&#45;&gt;Node5 -->
<g id="edge11_Node000008_Node000005" class="edge">
<title>Node8&#45;&gt;Node5</title>
<g id="a_edge11_Node000008_Node000005"><a xlink:title=" ">
<path fill="none" stroke="#63b8ff" d="M590.4,-197.38C540.98,-187.68 475.07,-174.49 417,-162 409.03,-160.29 400.5,-158.37 392.41,-156.53"/>
<polygon fill="#63b8ff" stroke="#63b8ff" points="589.88,-200.84 600.37,-199.33 591.22,-193.97 589.88,-200.84"/>
</a>
</g>
</g>
<!-- Node8&#45;&gt;Node7 -->
<g id="edge12_Node000008_Node000007" class="edge">
<title>Node8&#45;&gt;Node7</title>
<g id="a_edge12_Node000008_Node000007"><a xlink:title=" ">
<path fill="none" stroke="#63b8ff" d="M667.53,-187.54C668.06,-178.96 668.65,-169.61 669.11,-162.16"/>
<polygon fill="#63b8ff" stroke="#63b8ff" points="664.02,-187.6 666.89,-197.8 671,-188.03 664.02,-187.6"/>
</a>
</g>
</g>
<!-- Node9 -->
<g id="Node000009" class="node">
<title>Node9</title>
<g id="a_Node000009"><a xlink:href="MemaMoComponent_8cpp.html" target="_top" xlink:title=" ">
<polygon fill="white" stroke="#666666" points="767,-24.5 579,-24.5 579,-5.5 767,-5.5 767,-24.5"/>
<text text-anchor="middle" x="673" y="-12.5" font-family="Helvetica,sans-Serif" font-size="10.00">MemaMo/MemaMoComponent.cpp</text>
</a>
</g>
</g>
<!-- Node8&#45;&gt;Node9 -->
<g id="edge8_Node000008_Node000009" class="edge">
<title>Node8&#45;&gt;Node9</title>
<g id="a_edge8_Node000008_Node000009"><a xlink:title=" ">
<path fill="none" stroke="#63b8ff" d="M711.57,-193.01C724.32,-185.34 736.69,-175.13 744,-162 764.75,-124.72 764.78,-103.81 745,-66 734.56,-46.04 712.13,-32.45 695.06,-24.53"/>
<polygon fill="#63b8ff" stroke="#63b8ff" points="709.78,-190 702.73,-197.91 713.17,-196.12 709.78,-190"/>
</a>
</g>
</g>
<!-- Node10 -->
<g id="Node000010" class="node">
<title>Node10</title>
<g id="a_Node000010"><a xlink:href="MemaReComponent_8cpp.html" target="_top" xlink:title=" ">
<polygon fill="white" stroke="#666666" points="1605.5,-156.5 1422.5,-156.5 1422.5,-137.5 1605.5,-137.5 1605.5,-156.5"/>
<text text-anchor="middle" x="1514" y="-144.5" font-family="Helvetica,sans-Serif" font-size="10.00">MemaRe/MemaReComponent.cpp</text>
</a>
</g>
</g>
<!-- Node8&#45;&gt;Node10 -->
<g id="edge9_Node000008_Node000010" class="edge">
<title>Node8&#45;&gt;Node10</title>
<g id="a_edge9_Node000008_Node000010"><a xlink:title=" ">
<path fill="none" stroke="#63b8ff" d="M742.01,-198C1039.74,-163.11 1118.62,-190.24 1413,-162 1427.89,-160.57 1443.95,-158.56 1458.8,-156.51"/>
<polygon fill="#63b8ff" stroke="#63b8ff" points="741.29,-194.56 731.78,-199.22 742.12,-201.52 741.29,-194.56"/>
</a>
</g>
</g>
<!-- Node11 -->
<g id="Node000011" class="node">
<title>Node11</title>
<g id="a_Node000011"><a xlink:href="AbstractAudioVisualizer_8h.html" target="_top" xlink:title=" ">
<polygon fill="white" stroke="#666666" points="1404.5,-162 1245.5,-162 1245.5,-132 1404.5,-132 1404.5,-162"/>
<text text-anchor="start" x="1253.5" y="-150" font-family="Helvetica,sans-Serif" font-size="10.00">Source/MemaProcessorEditor</text>
<text text-anchor="middle" x="1325" y="-139" font-family="Helvetica,sans-Serif" font-size="10.00">/AbstractAudioVisualizer.h</text>
</a>
</g>
</g>
<!-- Node8&#45;&gt;Node11 -->
<g id="edge13_Node000008_Node000011" class="edge">
<title>Node8&#45;&gt;Node11</title>
<g id="a_edge13_Node000008_Node000011"><a xlink:title=" ">
<path fill="none" stroke="#63b8ff" d="M741.76,-197.99C927.92,-173.11 1134.69,-158.86 1245.38,-152.31"/>
<polygon fill="#63b8ff" stroke="#63b8ff" points="741.23,-194.53 731.79,-199.34 742.17,-201.47 741.23,-194.53"/>
</a>
</g>
</g>
<!-- Node12 -->
<g id="Node000012" class="node">
<title>Node12</title>
<g id="a_Node000012"><a xlink:href="SpectrumAudioComponent_8h.html" target="_top" xlink:title=" ">
<polygon fill="white" stroke="#666666" points="1309.5,-96 1150.5,-96 1150.5,-66 1309.5,-66 1309.5,-96"/>
<text text-anchor="start" x="1158.5" y="-84" font-family="Helvetica,sans-Serif" font-size="10.00">Source/MemaClientCommon</text>
<text text-anchor="middle" x="1230" y="-73" font-family="Helvetica,sans-Serif" font-size="10.00">/SpectrumAudioComponent.h</text>
</a>
</g>
</g>
<!-- Node11&#45;&gt;Node12 -->
<g id="edge14_Node000011_Node000012" class="edge">
<title>Node11&#45;&gt;Node12</title>
<g id="a_edge14_Node000011_Node000012"><a xlink:title=" ">
<path fill="none" stroke="#63b8ff" d="M1295.35,-126.03C1280.98,-116.34 1264.05,-104.94 1251.02,-96.16"/>
<polygon fill="#63b8ff" stroke="#63b8ff" points="1293.67,-129.11 1303.92,-131.8 1297.58,-123.31 1293.67,-129.11"/>
</a>
</g>
</g>
<!-- Node14 -->
<g id="Node000014" class="node">
<title>Node14</title>
<g id="a_Node000014"><a xlink:href="TwoDFieldMultisliderComponent_8h.html" target="_top" xlink:title=" ">
<polygon fill="white" stroke="#666666" points="1513,-96 1327,-96 1327,-66 1513,-66 1513,-96"/>
<text text-anchor="start" x="1335" y="-84" font-family="Helvetica,sans-Serif" font-size="10.00">Source/MemaClientCommon</text>
<text text-anchor="middle" x="1420" y="-73" font-family="Helvetica,sans-Serif" font-size="10.00">/TwoDFieldMultisliderComponent.h</text>
</a>
</g>
</g>
<!-- Node11&#45;&gt;Node14 -->
<g id="edge17_Node000011_Node000014" class="edge">
<title>Node11&#45;&gt;Node14</title>
<g id="a_edge17_Node000011_Node000014"><a xlink:title=" ">
<path fill="none" stroke="#63b8ff" d="M1354.65,-126.03C1369.02,-116.34 1385.95,-104.94 1398.98,-96.16"/>
<polygon fill="#63b8ff" stroke="#63b8ff" points="1352.42,-123.31 1346.08,-131.8 1356.33,-129.11 1352.42,-123.31"/>
</a>
</g>
</g>
<!-- Node17 -->
<g id="Node000017" class="node">
<title>Node17</title>
<g id="a_Node000017"><a xlink:href="TwoDFieldOutputComponent_8h.html" target="_top" xlink:title=" ">
<polygon fill="white" stroke="#666666" points="736.5,-96 569.5,-96 569.5,-66 736.5,-66 736.5,-96"/>
<text text-anchor="start" x="577.5" y="-84" font-family="Helvetica,sans-Serif" font-size="10.00">Source/MemaClientCommon</text>
<text text-anchor="middle" x="653" y="-73" font-family="Helvetica,sans-Serif" font-size="10.00">/TwoDFieldOutputComponent.h</text>
</a>
</g>
</g>
<!-- Node11&#45;&gt;Node17 -->
<g id="edge20_Node000011_Node000017" class="edge">
<title>Node11&#45;&gt;Node17</title>
<g id="a_edge20_Node000011_Node000017"><a xlink:title=" ">
<path fill="none" stroke="#63b8ff" d="M1234.9,-138.11C1127.32,-128.6 941.95,-111.89 783,-96 767.98,-94.5 751.99,-92.83 736.55,-91.19"/>
<polygon fill="#63b8ff" stroke="#63b8ff" points="1234.8,-141.62 1245.07,-139.01 1235.41,-134.64 1234.8,-141.62"/>
</a>
</g>
</g>
<!-- Node19 -->
<g id="Node000019" class="node">
<title>Node19</title>
<g id="a_Node000019"><a xlink:href="WaveformAudioComponent_8h.html" target="_top" xlink:title=" ">
<polygon fill="white" stroke="#666666" points="955.5,-96 792.5,-96 792.5,-66 955.5,-66 955.5,-96"/>
<text text-anchor="start" x="800.5" y="-84" font-family="Helvetica,sans-Serif" font-size="10.00">Source/MemaClientCommon</text>
<text text-anchor="middle" x="874" y="-73" font-family="Helvetica,sans-Serif" font-size="10.00">/WaveformAudioComponent.h</text>
</a>
</g>
</g>
<!-- Node11&#45;&gt;Node19 -->
<g id="edge23_Node000011_Node000019" class="edge">
<title>Node11&#45;&gt;Node19</title>
<g id="a_edge23_Node000011_Node000019"><a xlink:title=" ">
<path fill="none" stroke="#63b8ff" d="M1235.27,-134C1162.2,-124.12 1056.37,-109.58 964,-96 961.34,-95.61 958.64,-95.21 955.91,-94.8"/>
<polygon fill="#63b8ff" stroke="#63b8ff" points="1234.99,-137.49 1245.36,-135.36 1235.92,-130.55 1234.99,-137.49"/>
</a>
</g>
</g>
<!-- Node21 -->
<g id="Node000021" class="node">
<title>Node21</title>
<g id="a_Node000021"><a xlink:href="AbstractAudioVisualizer_8cpp.html" target="_top" xlink:title=" ">
<polygon fill="white" stroke="#666666" points="1132.5,-96 973.5,-96 973.5,-66 1132.5,-66 1132.5,-96"/>
<text text-anchor="start" x="981.5" y="-84" font-family="Helvetica,sans-Serif" font-size="10.00">Source/MemaProcessorEditor</text>
<text text-anchor="middle" x="1053" y="-73" font-family="Helvetica,sans-Serif" font-size="10.00">/AbstractAudioVisualizer.cpp</text>
</a>
</g>
</g>
<!-- Node11&#45;&gt;Node21 -->
<g id="edge26_Node000011_Node000021" class="edge">
<title>Node11&#45;&gt;Node21</title>
<g id="a_edge26_Node000011_Node000021"><a xlink:title=" ">
<path fill="none" stroke="#63b8ff" d="M1255.51,-129.65C1211.31,-119.25 1154.68,-105.93 1112.55,-96.01"/>
<polygon fill="#63b8ff" stroke="#63b8ff" points="1254.77,-133.07 1265.31,-131.95 1256.38,-126.26 1254.77,-133.07"/>
</a>
</g>
</g>
<!-- Node22 -->
<g id="Node000022" class="node">
<title>Node22</title>
<g id="a_Node000022"><a xlink:href="InputControlComponent_8cpp.html" target="_top" xlink:title=" ">
<polygon fill="white" stroke="#666666" points="1905.5,-30 1746.5,-30 1746.5,0 1905.5,0 1905.5,-30"/>
<text text-anchor="start" x="1754.5" y="-18" font-family="Helvetica,sans-Serif" font-size="10.00">Source/MemaProcessorEditor</text>
<text text-anchor="middle" x="1826" y="-7" font-family="Helvetica,sans-Serif" font-size="10.00">/InputControlComponent.cpp</text>
</a>
</g>
</g>
<!-- Node11&#45;&gt;Node22 -->
<g id="edge27_Node000011_Node000022" class="edge">
<title>Node11&#45;&gt;Node22</title>
<g id="a_edge27_Node000011_Node000022"><a xlink:title=" ">
<path fill="none" stroke="#63b8ff" d="M1414.76,-131.84C1542.41,-115.46 1584.43,-144.39 1700,-96 1719.85,-87.69 1720.15,-78.02 1738,-66 1757.68,-52.75 1781.07,-39.57 1798.79,-30.07"/>
<polygon fill="#63b8ff" stroke="#63b8ff" points="1414.05,-128.4 1404.61,-133.21 1414.99,-135.34 1414.05,-128.4"/>
</a>
</g>
</g>
<!-- Node23 -->
<g id="Node000023" class="node">
<title>Node23</title>
<g id="a_Node000023"><a xlink:href="InputControlComponent_8h.html" target="_top" xlink:title=" ">
<polygon fill="white" stroke="#666666" points="1905.5,-96 1746.5,-96 1746.5,-66 1905.5,-66 1905.5,-96"/>
<text text-anchor="start" x="1754.5" y="-84" font-family="Helvetica,sans-Serif" font-size="10.00">Source/MemaProcessorEditor</text>
<text text-anchor="middle" x="1826" y="-73" font-family="Helvetica,sans-Serif" font-size="10.00">/InputControlComponent.h</text>
</a>
</g>
</g>
<!-- Node11&#45;&gt;Node23 -->
<g id="edge28_Node000011_Node000023" class="edge">
<title>Node11&#45;&gt;Node23</title>
<g id="a_edge28_Node000011_Node000023"><a xlink:title=" ">
<path fill="none" stroke="#63b8ff" d="M1414.55,-131.83C1556.5,-112.83 1594.29,-114.24 1733,-96 1737.37,-95.43 1741.85,-94.82 1746.38,-94.19"/>
<polygon fill="#63b8ff" stroke="#63b8ff" points="1414.04,-128.36 1404.6,-133.17 1414.98,-135.3 1414.04,-128.36"/>
</a>
</g>
</g>
<!-- Node25 -->
<g id="Node000025" class="node">
<title>Node25</title>
<g id="a_Node000025"><a xlink:href="MeterbridgeComponent_8h.html" target="_top" xlink:title=" ">
<polygon fill="white" stroke="#666666" points="1691.5,-96 1532.5,-96 1532.5,-66 1691.5,-66 1691.5,-96"/>
<text text-anchor="start" x="1540.5" y="-84" font-family="Helvetica,sans-Serif" font-size="10.00">Source/MemaProcessorEditor</text>
<text text-anchor="middle" x="1612" y="-73" font-family="Helvetica,sans-Serif" font-size="10.00">/MeterbridgeComponent.h</text>
</a>
</g>
</g>
<!-- Node11&#45;&gt;Node25 -->
<g id="edge31_Node000011_Node000025" class="edge">
<title>Node11&#45;&gt;Node25</title>
<g id="a_edge31_Node000011_Node000025"><a xlink:title=" ">
<path fill="none" stroke="#63b8ff" d="M1398.03,-129.71C1444.71,-119.31 1504.62,-105.95 1549.16,-96.01"/>
<polygon fill="#63b8ff" stroke="#63b8ff" points="1396.98,-126.36 1387.98,-131.95 1398.51,-133.19 1396.98,-126.36"/>
</a>
</g>
</g>
<!-- Node27 -->
<g id="Node000027" class="node">
<title>Node27</title>
<g id="a_Node000027"><a xlink:href="OutputControlComponent_8cpp.html" target="_top" xlink:title=" ">
<polygon fill="white" stroke="#666666" points="2265,-30 2101,-30 2101,0 2265,0 2265,-30"/>
<text text-anchor="start" x="2109" y="-18" font-family="Helvetica,sans-Serif" font-size="10.00">Source/MemaProcessorEditor</text>
<text text-anchor="middle" x="2183" y="-7" font-family="Helvetica,sans-Serif" font-size="10.00">/OutputControlComponent.cpp</text>
</a>
</g>
</g>
<!-- Node11&#45;&gt;Node27 -->
<g id="edge36_Node000011_Node000027" class="edge">
<title>Node11&#45;&gt;Node27</title>
<g id="a_edge36_Node000011_Node000027"><a xlink:title=" ">
<path fill="none" stroke="#63b8ff" d="M1414.62,-131.99C1579.11,-117.58 1954.95,-151.87 2092,-96 2126.48,-81.95 2156.78,-49.08 2172.2,-30.14"/>
<polygon fill="#63b8ff" stroke="#63b8ff" points="1414.19,-128.51 1404.58,-132.96 1414.87,-135.48 1414.19,-128.51"/>
</a>
</g>
</g>
<!-- Node28 -->
<g id="Node000028" class="node">
<title>Node28</title>
<g id="a_Node000028"><a xlink:href="OutputControlComponent_8h.html" target="_top" xlink:title=" ">
<polygon fill="white" stroke="#666666" points="2082.5,-96 1923.5,-96 1923.5,-66 2082.5,-66 2082.5,-96"/>
<text text-anchor="start" x="1931.5" y="-84" font-family="Helvetica,sans-Serif" font-size="10.00">Source/MemaProcessorEditor</text>
<text text-anchor="middle" x="2003" y="-73" font-family="Helvetica,sans-Serif" font-size="10.00">/OutputControlComponent.h</text>
</a>
</g>
</g>
<!-- Node11&#45;&gt;Node28 -->
<g id="edge37_Node000011_Node000028" class="edge">
<title>Node11&#45;&gt;Node28</title>
<g id="a_edge37_Node000011_Node000028"><a xlink:title=" ">
<path fill="none" stroke="#63b8ff" d="M1414.61,-131.88C1636.94,-106.84 1696.04,-121.22 1915,-96 1917.77,-95.68 1920.58,-95.34 1923.42,-94.98"/>
<polygon fill="#63b8ff" stroke="#63b8ff" points="1414.12,-128.41 1404.58,-133.02 1414.92,-135.37 1414.12,-128.41"/>
</a>
</g>
</g>
<!-- Node12&#45;&gt;Node9 -->
<g id="edge15_Node000012_Node000009" class="edge">
<title>Node12&#45;&gt;Node9</title>
<g id="a_edge15_Node000012_Node000009"><a xlink:title=" ">
<path fill="none" stroke="#63b8ff" d="M1140.09,-65.94C977.56,-45.47 934.58,-48.59 776,-30 762.02,-28.36 747,-26.42 732.86,-24.52"/>
<polygon fill="#63b8ff" stroke="#63b8ff" points="1140.09,-69.47 1150.46,-67.25 1140.98,-62.52 1140.09,-69.47"/>
</a>
</g>
</g>
<!-- Node13 -->
<g id="Node000013" class="node">
<title>Node13</title>
<g id="a_Node000013"><a xlink:href="SpectrumAudioComponent_8cpp.html" target="_top" xlink:title=" ">
<polygon fill="white" stroke="#666666" points="1147,-30 977,-30 977,0 1147,0 1147,-30"/>
<text text-anchor="start" x="985" y="-18" font-family="Helvetica,sans-Serif" font-size="10.00">Source/MemaClientCommon</text>
<text text-anchor="middle" x="1062" y="-7" font-family="Helvetica,sans-Serif" font-size="10.00">/SpectrumAudioComponent.cpp</text>
</a>
</g>
</g>
<!-- Node12&#45;&gt;Node13 -->
<g id="edge16_Node000012_Node000013" class="edge">
<title>Node12&#45;&gt;Node13</title>
<g id="a_edge16_Node000012_Node000013"><a xlink:title=" ">
<path fill="none" stroke="#63b8ff" d="M1183.6,-62.32C1156.86,-52.14 1123.71,-39.51 1098.78,-30.01"/>
<polygon fill="#63b8ff" stroke="#63b8ff" points="1182.54,-65.67 1193.13,-65.95 1185.03,-59.12 1182.54,-65.67"/>
</a>
</g>
</g>
<!-- Node15 -->
<g id="Node000015" class="node">
<title>Node15</title>
<g id="a_Node000015"><a xlink:href="PanningControlComponent_8cpp.html" target="_top" xlink:title=" ">
<polygon fill="white" stroke="#666666" points="1551,-30 1381,-30 1381,0 1551,0 1551,-30"/>
<text text-anchor="start" x="1389" y="-18" font-family="Helvetica,sans-Serif" font-size="10.00">Source/MemaClientCommon</text>
<text text-anchor="middle" x="1466" y="-7" font-family="Helvetica,sans-Serif" font-size="10.00">/PanningControlComponent.cpp</text>
</a>
</g>
</g>
<!-- Node14&#45;&gt;Node15 -->
<g id="edge18_Node000014_Node000015" class="edge">
<title>Node14&#45;&gt;Node15</title>
<g id="a_edge18_Node000014_Node000015"><a xlink:title=" ">
<path fill="none" stroke="#63b8ff" d="M1436.15,-57.53C1442.69,-48.43 1450.05,-38.19 1455.82,-30.16"/>
<polygon fill="#63b8ff" stroke="#63b8ff" points="1433.2,-55.63 1430.21,-65.8 1438.89,-59.72 1433.2,-55.63"/>
</a>
</g>
</g>
<!-- Node16 -->
<g id="Node000016" class="node">
<title>Node16</title>
<g id="a_Node000016"><a xlink:href="TwoDFieldMultisliderComponent_8cpp.html" target="_top" xlink:title=" ">
<polygon fill="white" stroke="#666666" points="1362.5,-30 1165.5,-30 1165.5,0 1362.5,0 1362.5,-30"/>
<text text-anchor="start" x="1173.5" y="-18" font-family="Helvetica,sans-Serif" font-size="10.00">Source/MemaClientCommon</text>
<text text-anchor="middle" x="1264" y="-7" font-family="Helvetica,sans-Serif" font-size="10.00">/TwoDFieldMultisliderComponent.cpp</text>
</a>
</g>
</g>
<!-- Node14&#45;&gt;Node16 -->
<g id="edge19_Node000014_Node000016" class="edge">
<title>Node14&#45;&gt;Node16</title>
<g id="a_edge19_Node000014_Node000016"><a xlink:title=" ">
<path fill="none" stroke="#63b8ff" d="M1376.26,-62.05C1351.54,-51.91 1321.1,-39.43 1298.16,-30.01"/>
<polygon fill="#63b8ff" stroke="#63b8ff" points="1375.18,-65.4 1385.77,-65.95 1377.84,-58.92 1375.18,-65.4"/>
</a>
</g>
</g>
<!-- Node17&#45;&gt;Node9 -->
<g id="edge21_Node000017_Node000009" class="edge">
<title>Node17&#45;&gt;Node9</title>
<g id="a_edge21_Node000017_Node000009"><a xlink:title=" ">
<path fill="none" stroke="#63b8ff" d="M660.52,-55.94C663.92,-45.06 667.73,-32.86 670.24,-24.84"/>
<polygon fill="#63b8ff" stroke="#63b8ff" points="657.08,-55.21 657.44,-65.8 663.76,-57.3 657.08,-55.21"/>
</a>
</g>
</g>
<!-- Node18 -->
<g id="Node000018" class="node">
<title>Node18</title>
<g id="a_Node000018"><a xlink:href="TwoDFieldOutputComponent_8cpp.html" target="_top" xlink:title=" ">
<polygon fill="white" stroke="#666666" points="560.5,-30 381.5,-30 381.5,0 560.5,0 560.5,-30"/>
<text text-anchor="start" x="389.5" y="-18" font-family="Helvetica,sans-Serif" font-size="10.00">Source/MemaClientCommon</text>
<text text-anchor="middle" x="471" y="-7" font-family="Helvetica,sans-Serif" font-size="10.00">/TwoDFieldOutputComponent.cpp</text>
</a>
</g>
</g>
<!-- Node17&#45;&gt;Node18 -->
<g id="edge22_Node000017_Node000018" class="edge">
<title>Node17&#45;&gt;Node18</title>
<g id="a_edge22_Node000017_Node000018"><a xlink:title=" ">
<path fill="none" stroke="#63b8ff" d="M603.49,-62.59C574.39,-52.36 538.09,-39.59 510.85,-30.01"/>
<polygon fill="#63b8ff" stroke="#63b8ff" points="602.46,-65.94 613.06,-65.95 604.79,-59.34 602.46,-65.94"/>
</a>
</g>
</g>
<!-- Node19&#45;&gt;Node9 -->
<g id="edge24_Node000019_Node000009" class="edge">
<title>Node19&#45;&gt;Node9</title>
<g id="a_edge24_Node000019_Node000009"><a xlink:title=" ">
<path fill="none" stroke="#63b8ff" d="M820.27,-62.89C781.35,-50.5 730.38,-34.27 699.75,-24.52"/>
<polygon fill="#63b8ff" stroke="#63b8ff" points="819.3,-66.26 829.89,-65.95 821.42,-59.59 819.3,-66.26"/>
</a>
</g>
</g>
<!-- Node20 -->
<g id="Node000020" class="node">
<title>Node20</title>
<g id="a_Node000020"><a xlink:href="WaveformAudioComponent_8cpp.html" target="_top" xlink:title=" ">
<polygon fill="white" stroke="#666666" points="959,-30 785,-30 785,0 959,0 959,-30"/>
<text text-anchor="start" x="793" y="-18" font-family="Helvetica,sans-Serif" font-size="10.00">Source/MemaClientCommon</text>
<text text-anchor="middle" x="872" y="-7" font-family="Helvetica,sans-Serif" font-size="10.00">/WaveformAudioComponent.cpp</text>
</a>
</g>
</g>
<!-- Node19&#45;&gt;Node20 -->
<g id="edge25_Node000019_Node000020" class="edge">
<title>Node19&#45;&gt;Node20</title>
<g id="a_edge25_Node000019_Node000020"><a xlink:title=" ">
<path fill="none" stroke="#63b8ff" d="M873.24,-55.54C872.97,-46.96 872.68,-37.61 872.44,-30.16"/>
<polygon fill="#63b8ff" stroke="#63b8ff" points="869.75,-55.91 873.56,-65.8 876.74,-55.69 869.75,-55.91"/>
</a>
</g>
</g>
<!-- Node23&#45;&gt;Node22 -->
<g id="edge29_Node000023_Node000022" class="edge">
<title>Node23&#45;&gt;Node22</title>
<g id="a_edge29_Node000023_Node000022"><a xlink:title=" ">
<path fill="none" stroke="#63b8ff" d="M1826,-55.54C1826,-46.96 1826,-37.61 1826,-30.16"/>
<polygon fill="#63b8ff" stroke="#63b8ff" points="1822.5,-55.8 1826,-65.8 1829.5,-55.8 1822.5,-55.8"/>
</a>
</g>
</g>
<!-- Node24 -->
<g id="Node000024" class="node">
<title>Node24</title>
<g id="a_Node000024"><a xlink:href="MemaProcessorEditor_8cpp.html" target="_top" xlink:title=" ">
<polygon fill="white" stroke="#666666" points="2082.5,-30 1923.5,-30 1923.5,0 2082.5,0 2082.5,-30"/>
<text text-anchor="start" x="1931.5" y="-18" font-family="Helvetica,sans-Serif" font-size="10.00">Source/MemaProcessorEditor</text>
<text text-anchor="middle" x="2003" y="-7" font-family="Helvetica,sans-Serif" font-size="10.00">/MemaProcessorEditor.cpp</text>
</a>
</g>
</g>
<!-- Node23&#45;&gt;Node24 -->
<g id="edge30_Node000023_Node000024" class="edge">
<title>Node23&#45;&gt;Node24</title>
<g id="a_edge30_Node000023_Node000024"><a xlink:title=" ">
<path fill="none" stroke="#63b8ff" d="M1874.52,-62.46C1902.76,-52.25 1937.87,-39.55 1964.25,-30.01"/>
<polygon fill="#63b8ff" stroke="#63b8ff" points="1873.06,-59.26 1864.84,-65.95 1875.44,-65.85 1873.06,-59.26"/>
</a>
</g>
</g>
<!-- Node25&#45;&gt;Node9 -->
<g id="edge32_Node000025_Node000009" class="edge">
<title>Node25&#45;&gt;Node9</title>
<g id="a_edge32_Node000025_Node000009"><a xlink:title=" ">
<path fill="none" stroke="#63b8ff" d="M1522.31,-66.03C1522.21,-66.02 1522.1,-66.01 1522,-66 1191.76,-32.44 1106.55,-60.38 776,-30 760.72,-28.6 744.24,-26.58 729.03,-24.52"/>
<polygon fill="#63b8ff" stroke="#63b8ff" points="1521.74,-69.49 1532.07,-67.12 1522.52,-62.53 1521.74,-69.49"/>
</a>
</g>
</g>
<!-- Node25&#45;&gt;Node22 -->
<g id="edge33_Node000025_Node000022" class="edge">
<title>Node25&#45;&gt;Node22</title>
<g id="a_edge33_Node000025_Node000022"><a xlink:title=" ">
<path fill="none" stroke="#63b8ff" d="M1668.88,-62.99C1703.31,-52.69 1746.7,-39.72 1779.15,-30.01"/>
<polygon fill="#63b8ff" stroke="#63b8ff" points="1667.54,-59.74 1658.96,-65.95 1669.55,-66.44 1667.54,-59.74"/>
</a>
</g>
</g>
<!-- Node26 -->
<g id="Node000026" class="node">
<title>Node26</title>
<g id="a_Node000026"><a xlink:href="MeterbridgeComponent_8cpp.html" target="_top" xlink:title=" ">
<polygon fill="white" stroke="#666666" points="1728.5,-30 1569.5,-30 1569.5,0 1728.5,0 1728.5,-30"/>
<text text-anchor="start" x="1577.5" y="-18" font-family="Helvetica,sans-Serif" font-size="10.00">Source/MemaProcessorEditor</text>
<text text-anchor="middle" x="1649" y="-7" font-family="Helvetica,sans-Serif" font-size="10.00">/MeterbridgeComponent.cpp</text>
</a>
</g>
</g>
<!-- Node25&#45;&gt;Node26 -->
<g id="edge34_Node000025_Node000026" class="edge">
<title>Node25&#45;&gt;Node26</title>
<g id="a_edge34_Node000025_Node000026"><a xlink:title=" ">
<path fill="none" stroke="#63b8ff" d="M1625.32,-56.96C1630.5,-48 1636.26,-38.03 1640.81,-30.16"/>
<polygon fill="#63b8ff" stroke="#63b8ff" points="1622.19,-55.39 1620.21,-65.8 1628.25,-58.89 1622.19,-55.39"/>
</a>
</g>
</g>
<!-- Node25&#45;&gt;Node27 -->
<g id="edge35_Node000025_Node000027" class="edge">
<title>Node25&#45;&gt;Node27</title>
<g id="a_edge35_Node000025_Node000027"><a xlink:title=" ">
<path fill="none" stroke="#63b8ff" d="M1701.8,-69.92C1713.97,-68.58 1726.29,-67.25 1738,-66 1895.26,-49.27 1935.13,-50.03 2092,-30 2094.85,-29.64 2097.76,-29.25 2100.69,-28.86"/>
<polygon fill="#63b8ff" stroke="#63b8ff" points="1701.19,-66.46 1691.64,-71.04 1701.96,-73.42 1701.19,-66.46"/>
</a>
</g>
</g>
<!-- Node28&#45;&gt;Node24 -->
<g id="edge38_Node000028_Node000024" class="edge">
<title>Node28&#45;&gt;Node24</title>
<g id="a_edge38_Node000028_Node000024"><a xlink:title=" ">
<path fill="none" stroke="#63b8ff" d="M2003,-55.54C2003,-46.96 2003,-37.61 2003,-30.16"/>
<polygon fill="#63b8ff" stroke="#63b8ff" points="1999.5,-55.8 2003,-65.8 2006.5,-55.8 1999.5,-55.8"/>
</a>
</g>
</g>
<!-- Node28&#45;&gt;Node27 -->
<g id="edge39_Node000028_Node000027" class="edge">
<title>Node28&#45;&gt;Node27</title>
<g id="a_edge39_Node000028_Node000027"><a xlink:title=" ">
<path fill="none" stroke="#63b8ff" d="M2051.97,-62.59C2080.74,-52.36 2116.65,-39.59 2143.59,-30.01"/>
<polygon fill="#63b8ff" stroke="#63b8ff" points="2050.75,-59.31 2042.5,-65.95 2053.1,-65.9 2050.75,-59.31"/>
</a>
</g>
</g>
<!-- Node29&#45;&gt;Node4 -->
<g id="edge41_Node000029_Node000004" class="edge">
<title>Node29&#45;&gt;Node4</title>
<g id="a_edge41_Node000029_Node000004"><a xlink:title=" ">
<path fill="none" stroke="#63b8ff" d="M227.77,-193.45C230.21,-181.43 233.28,-166.32 235.19,-156.91"/>
<polygon fill="#63b8ff" stroke="#63b8ff" points="224.31,-192.87 225.75,-203.37 231.17,-194.27 224.31,-192.87"/>
</a>
</g>
</g>
<!-- Node30 -->
<g id="Node000030" class="node">
<title>Node30</title>
<g id="a_Node000030"><a xlink:href="MemaUIComponent_8cpp.html" target="_top" xlink:title=" ">
<polygon fill="white" stroke="#666666" points="170,-156.5 0,-156.5 0,-137.5 170,-137.5 170,-156.5"/>
<text text-anchor="middle" x="85" y="-144.5" font-family="Helvetica,sans-Serif" font-size="10.00">Source/MemaUIComponent.cpp</text>
</a>
</g>
</g>
<!-- Node29&#45;&gt;Node30 -->
<g id="edge42_Node000029_Node000030" class="edge">
<title>Node29&#45;&gt;Node30</title>
<g id="a_edge42_Node000029_Node000030"><a xlink:title=" ">
<path fill="none" stroke="#63b8ff" d="M195.83,-199.03C168.43,-186.42 127.59,-167.61 103.89,-156.7"/>
<polygon fill="#63b8ff" stroke="#63b8ff" points="194.71,-202.37 205.25,-203.37 197.63,-196.01 194.71,-202.37"/>
</a>
</g>
</g>
</g>
</svg>
