<?xml version="1.0" encoding="UTF-8" standalone="no"?>
<!DOCTYPE svg PUBLIC "-//W3C//DTD SVG 1.1//EN"
 "http://www.w3.org/Graphics/SVG/1.1/DTD/svg11.dtd">
<!-- Generated by graphviz version 2.43.0 (0)
 -->
<!-- Title: MemaRe/MainComponent.h Pages: 1 -->
<svg width="541pt" height="148pt"
 viewBox="0.00 0.00 541.47 148.00" xmlns="http://www.w3.org/2000/svg" xmlns:xlink="http://www.w3.org/1999/xlink">
<g id="graph0" class="graph" transform="scale(1 1) rotate(0) translate(4 144)">
<title>MemaRe/MainComponent.h</title>
<!-- Node1 -->
<g id="Node000001" class="node">
<title>Node1</title>
<g id="a_Node000001"><a xlink:title=" ">
<polygon fill="#999999" stroke="#666666" points="274.97,-140 122.97,-140 122.97,-121 274.97,-121 274.97,-140"/>
<text text-anchor="middle" x="198.97" y="-128" font-family="Helvetica,sans-Serif" font-size="10.00">MemaRe/MainComponent.h</text>
</a>
</g>
</g>
<!-- Node2 -->
<g id="Node000002" class="node">
<title>Node2</title>
<g id="a_Node000002"><a xlink:title=" ">
<polygon fill="#e0e0e0" stroke="#999999" points="145.97,-19 65.97,-19 65.97,0 145.97,0 145.97,-19"/>
<text text-anchor="middle" x="105.97" y="-7" font-family="Helvetica,sans-Serif" font-size="10.00">JuceHeader.h</text>
</a>
</g>
</g>
<!-- Node1&#45;&gt;Node2 -->
<g id="edge1_Node000001_Node000002" class="edge">
<title>Node1&#45;&gt;Node2</title>
<g id="a_edge1_Node000001_Node000002"><a xlink:title=" ">
<path fill="none" stroke="#63b8ff" d="M122.91,-121.65C75.47,-115.01 20.71,-103.53 5.97,-85 -2.34,-74.57 -1.3,-66.18 5.97,-55 17.3,-37.55 37.23,-26.89 56.34,-20.4"/>
<polygon fill="#63b8ff" stroke="#63b8ff" points="57.38,-23.74 65.9,-17.45 55.32,-17.05 57.38,-23.74"/>
</a>
</g>
</g>
<!-- Node3 -->
<g id="Node000003" class="node">
<title>Node3</title>
<g id="a_Node000003"><a xlink:href="MemaReAppConfiguration_8h.html" target="_top" xlink:title=" ">
<polygon fill="white" stroke="#666666" points="368.47,-79.5 215.47,-79.5 215.47,-60.5 368.47,-60.5 368.47,-79.5"/>
<text text-anchor="middle" x="291.97" y="-67.5" font-family="Helvetica,sans-Serif" font-size="10.00">MemaReAppConfiguration.h</text>
</a>
</g>
</g>
<!-- Node1&#45;&gt;Node3 -->
<g id="edge2_Node000001_Node000003" class="edge">
<title>Node1&#45;&gt;Node3</title>
<g id="a_edge2_Node000001_Node000003"><a xlink:title=" ">
<path fill="none" stroke="#63b8ff" d="M212.69,-120.87C227.66,-111.45 251.86,-96.23 269.59,-85.08"/>
<polygon fill="#63b8ff" stroke="#63b8ff" points="271.59,-87.95 278.19,-79.67 267.86,-82.03 271.59,-87.95"/>
</a>
</g>
</g>
<!-- Node5 -->
<g id="Node000005" class="node">
<title>Node5</title>
<g id="a_Node000005"><a xlink:href="MemaClientControlComponentBase_8h.html" target="_top" xlink:title=" ">
<polygon fill="white" stroke="#666666" points="196.97,-85 14.97,-85 14.97,-55 196.97,-55 196.97,-85"/>
<text text-anchor="start" x="22.97" y="-73" font-family="Helvetica,sans-Serif" font-size="10.00">MemaClientCommon/MemaClient</text>
<text text-anchor="middle" x="105.97" y="-62" font-family="Helvetica,sans-Serif" font-size="10.00">ControlComponentBase.h</text>
</a>
</g>
</g>
<!-- Node1&#45;&gt;Node5 -->
<g id="edge5_Node000001_Node000005" class="edge">
<title>Node1&#45;&gt;Node5</title>
<g id="a_edge5_Node000001_Node000005"><a xlink:title=" ">
<path fill="none" stroke="#63b8ff" d="M185.24,-120.87C172.63,-112.93 153.45,-100.87 137.12,-90.6"/>
<polygon fill="#63b8ff" stroke="#63b8ff" points="138.73,-87.48 128.41,-85.11 135.01,-93.4 138.73,-87.48"/>
</a>
</g>
</g>
<!-- Node6 -->
<g id="Node000006" class="node">
<title>Node6</title>
<g id="a_Node000006"><a xlink:title=" ">
<polygon fill="#e0e0e0" stroke="#999999" points="533.47,-79.5 386.47,-79.5 386.47,-60.5 533.47,-60.5 533.47,-79.5"/>
<text text-anchor="middle" x="459.97" y="-67.5" font-family="Helvetica,sans-Serif" font-size="10.00">ServiceTopologyManager.h</text>
</a>
</g>
</g>
<!-- Node1&#45;&gt;Node6 -->
<g id="edge7_Node000001_Node000006" class="edge">
<title>Node1&#45;&gt;Node6</title>
<g id="a_edge7_Node000001_Node000006"><a xlink:title=" ">
<path fill="none" stroke="#63b8ff" d="M236.92,-120.99C283.21,-110.62 361.52,-93.07 411.96,-81.76"/>
<polygon fill="#63b8ff" stroke="#63b8ff" points="412.98,-85.12 421.97,-79.52 411.45,-78.29 412.98,-85.12"/>
</a>
</g>
</g>
<!-- Node3&#45;&gt;Node2 -->
<g id="edge3_Node000003_Node000002" class="edge">
<title>Node3&#45;&gt;Node2</title>
<g id="a_edge3_Node000003_Node000002"><a xlink:title=" ">
<path fill="none" stroke="#63b8ff" d="M264.92,-60.49C232.69,-50.36 178.67,-33.37 142.69,-22.05"/>
<polygon fill="#63b8ff" stroke="#63b8ff" points="143.63,-18.68 133.05,-19.02 141.53,-25.36 143.63,-18.68"/>
</a>
</g>
</g>
<!-- Node4 -->
<g id="Node000004" class="node">
<title>Node4</title>
<g id="a_Node000004"><a xlink:title=" ">
<polygon fill="#e0e0e0" stroke="#999999" points="358.97,-19 224.97,-19 224.97,0 358.97,0 358.97,-19"/>
<text text-anchor="middle" x="291.97" y="-7" font-family="Helvetica,sans-Serif" font-size="10.00">AppConfigurationBase.h</text>
</a>
</g>
</g>
<!-- Node3&#45;&gt;Node4 -->
<g id="edge4_Node000003_Node000004" class="edge">
<title>Node3&#45;&gt;Node4</title>
<g id="a_edge4_Node000003_Node000004"><a xlink:title=" ">
<path fill="none" stroke="#63b8ff" d="M291.97,-60.37C291.97,-52.25 291.97,-39.81 291.97,-29.39"/>
<polygon fill="#63b8ff" stroke="#63b8ff" points="295.47,-29.17 291.97,-19.17 288.47,-29.17 295.47,-29.17"/>
</a>
</g>
</g>
<!-- Node5&#45;&gt;Node2 -->
<g id="edge6_Node000005_Node000002" class="edge">
<title>Node5&#45;&gt;Node2</title>
<g id="a_edge6_Node000005_Node000002"><a xlink:title=" ">
<path fill="none" stroke="#63b8ff" d="M105.97,-54.84C105.97,-47.21 105.97,-37.7 105.97,-29.45"/>
<polygon fill="#63b8ff" stroke="#63b8ff" points="109.47,-29.27 105.97,-19.27 102.47,-29.27 109.47,-29.27"/>
</a>
</g>
</g>
</g>
</svg>
