<?xml version="1.0" encoding="UTF-8" standalone="no"?>
<!DOCTYPE svg PUBLIC "-//W3C//DTD SVG 1.1//EN"
 "http://www.w3.org/Graphics/SVG/1.1/DTD/svg11.dtd">
<!-- Generated by graphviz version 2.43.0 (0)
 -->
<!-- Title: Source/MemaProcessorEditor/PluginControlComponent.h Pages: 1 -->
<svg width="325pt" height="159pt"
 viewBox="0.00 0.00 325.05 159.00" xmlns="http://www.w3.org/2000/svg" xmlns:xlink="http://www.w3.org/1999/xlink">

<svg id="main" version="1.1" xmlns="http://www.w3.org/2000/svg" xmlns:xlink="http://www.w3.org/1999/xlink" xml:space="preserve" onload="init(evt)">
<style type="text/css"><![CDATA[
.node, .edge {opacity: 0.7;}
.node.selected, .edge.selected {opacity: 1;}
.edge:hover path { stroke: red; }
.edge:hover polygon { stroke: red; fill: red; }
]]></style>
<script type="application/ecmascript" xlink:href="svg.min.js"/>
<svg id="graph" class="graph">
<g id="graph0" class="graph" transform="scale(1 1) rotate(0) translate(4 155)">
<title>Source/MemaProcessorEditor/PluginControlComponent.h</title>
<!-- Node1 -->
<g id="Node000001" class="node">
<title>Node1</title>
<g id="a_Node000001"><a xlink:title=" ">
<polygon fill="#999999" stroke="#666666" points="175.55,-151 16.55,-151 16.55,-121 175.55,-121 175.55,-151"/>
<text text-anchor="start" x="24.55" y="-139" font-family="Helvetica,sans-Serif" font-size="10.00">Source/MemaProcessorEditor</text>
<text text-anchor="middle" x="96.05" y="-128" font-family="Helvetica,sans-Serif" font-size="10.00">/PluginControlComponent.h</text>
</a>
</g>
</g>
<!-- Node2 -->
<g id="Node000002" class="node">
<title>Node2</title>
<g id="a_Node000002"><a xlink:title=" ">
<polygon fill="#e0e0e0" stroke="#999999" points="80.05,-19 0.05,-19 0.05,0 80.05,0 80.05,-19"/>
<text text-anchor="middle" x="40.05" y="-7" font-family="Helvetica,sans-Serif" font-size="10.00">JuceHeader.h</text>
</a>
</g>
</g>
<!-- Node1&#45;&gt;Node2 -->
<g id="edge1_Node000001_Node000002" class="edge">
<title>Node1&#45;&gt;Node2</title>
<g id="a_edge1_Node000001_Node000002"><a xlink:title=" ">
<path fill="none" stroke="#63b8ff" d="M48.94,-120.89C31.7,-113.2 14,-101.72 4.05,-85 -7.58,-65.44 8.97,-41.57 23.27,-26.2"/>
<polygon fill="#63b8ff" stroke="#63b8ff" points="25.84,-28.58 30.39,-19.01 20.87,-23.66 25.84,-28.58"/>
</a>
</g>
</g>
<!-- Node3 -->
<g id="Node000003" class="node">
<title>Node3</title>
<g id="a_Node000003"><a xlink:href="MemaPluginParameterInfo_8h.html" target="_top" xlink:title=" ">
<polygon fill="white" stroke="#666666" points="179.55,-85 12.55,-85 12.55,-55 179.55,-55 179.55,-85"/>
<text text-anchor="start" x="20.55" y="-73" font-family="Helvetica,sans-Serif" font-size="10.00">../MemaProcessor/MemaPlugin</text>
<text text-anchor="middle" x="96.05" y="-62" font-family="Helvetica,sans-Serif" font-size="10.00">ParameterInfo.h</text>
</a>
</g>
</g>
<!-- Node1&#45;&gt;Node3 -->
<g id="edge2_Node000001_Node000003" class="edge">
<title>Node1&#45;&gt;Node3</title>
<g id="a_edge2_Node000001_Node000003"><a xlink:title=" ">
<path fill="none" stroke="#63b8ff" d="M96.05,-120.8C96.05,-113.34 96.05,-103.99 96.05,-95.41"/>
<polygon fill="#63b8ff" stroke="#63b8ff" points="99.55,-95.16 96.05,-85.16 92.55,-95.16 99.55,-95.16"/>
</a>
</g>
</g>
<!-- Node4 -->
<g id="Node000004" class="node">
<title>Node4</title>
<g id="a_Node000004"><a xlink:title=" ">
<polygon fill="#e0e0e0" stroke="#999999" points="317.05,-79.5 197.05,-79.5 197.05,-60.5 317.05,-60.5 317.05,-79.5"/>
<text text-anchor="middle" x="257.05" y="-67.5" font-family="Helvetica,sans-Serif" font-size="10.00">FixedFontTextEditor.h</text>
</a>
</g>
</g>
<!-- Node1&#45;&gt;Node4 -->
<g id="edge4_Node000001_Node000004" class="edge">
<title>Node1&#45;&gt;Node4</title>
<g id="a_edge4_Node000001_Node000004"><a xlink:title=" ">
<path fill="none" stroke="#63b8ff" d="M131.39,-120.95C159.75,-109.68 199.16,-94.01 226.25,-83.25"/>
<polygon fill="#63b8ff" stroke="#63b8ff" points="227.63,-86.46 235.63,-79.52 225.04,-79.96 227.63,-86.46"/>
</a>
</g>
</g>
<!-- Node3&#45;&gt;Node2 -->
<g id="edge3_Node000003_Node000002" class="edge">
<title>Node3&#45;&gt;Node2</title>
<g id="a_edge3_Node000003_Node000002"><a xlink:title=" ">
<path fill="none" stroke="#63b8ff" d="M82.5,-54.84C74.37,-46.35 64,-35.52 55.55,-26.69"/>
<polygon fill="#63b8ff" stroke="#63b8ff" points="57.89,-24.07 48.45,-19.27 52.83,-28.91 57.89,-24.07"/>
</a>
</g>
</g>
</g>
</svg>
</svg>

<style type='text/css'>
<![CDATA[
[data-mouse-over-selected='false'] { opacity: 0.7; }
[data-mouse-over-selected='true']  { opacity: 1.0; }
]]>
</style>
<script type="application/ecmascript"><![CDATA[
document.addEventListener('DOMContentLoaded', (event) => {
  highlightEdges();
  highlightAdjacentNodes();
});
]]></script>
</svg>
