<?xml version="1.0" encoding="UTF-8" standalone="no"?>
<!DOCTYPE svg PUBLIC "-//W3C//DTD SVG 1.1//EN"
 "http://www.w3.org/Graphics/SVG/1.1/DTD/svg11.dtd">
<!-- Generated by graphviz version 2.43.0 (0)
 -->
<!-- Title: Source/MemaProcessor/MemaCommanders.h Pages: 1 -->
<svg width="204pt" height="148pt"
 viewBox="0.00 0.00 204.00 148.00" xmlns="http://www.w3.org/2000/svg" xmlns:xlink="http://www.w3.org/1999/xlink">
<g id="graph0" class="graph" transform="scale(1 1) rotate(0) translate(4 144)">
<title>Source/MemaProcessor/MemaCommanders.h</title>
<!-- Node1 -->
<g id="Node000001" class="node">
<title>Node1</title>
<g id="a_Node000001"><a xlink:title=" ">
<polygon fill="#999999" stroke="#666666" points="131,-140 0,-140 0,-110 131,-110 131,-140"/>
<text text-anchor="start" x="8" y="-128" font-family="Helvetica,sans-Serif" font-size="10.00">Source/MemaProcessor</text>
<text text-anchor="middle" x="65.5" y="-117" font-family="Helvetica,sans-Serif" font-size="10.00">/MemaCommanders.h</text>
</a>
</g>
</g>
<!-- Node2 -->
<g id="Node000002" class="node">
<title>Node2</title>
<g id="a_Node000002"><a xlink:title=" ">
<polygon fill="#e0e0e0" stroke="#999999" points="105.5,-19 25.5,-19 25.5,0 105.5,0 105.5,-19"/>
<text text-anchor="middle" x="65.5" y="-7" font-family="Helvetica,sans-Serif" font-size="10.00">JuceHeader.h</text>
</a>
</g>
</g>
<!-- Node1&#45;&gt;Node2 -->
<g id="edge1_Node000001_Node000002" class="edge">
<title>Node1&#45;&gt;Node2</title>
<g id="a_edge1_Node000001_Node000002"><a xlink:title=" ">
<path fill="none" stroke="#63b8ff" d="M52.51,-109.92C44.76,-100.51 35.64,-87.44 31.5,-74 29.02,-65.93 28.79,-63 31.5,-55 35.06,-44.47 42.22,-34.48 49.05,-26.63"/>
<polygon fill="#63b8ff" stroke="#63b8ff" points="51.63,-29.01 55.89,-19.31 46.51,-24.23 51.63,-29.01"/>
</a>
</g>
</g>
<!-- Node3 -->
<g id="Node000003" class="node">
<title>Node3</title>
<g id="a_Node000003"><a xlink:href="MemaPluginParameterInfo_8h.html" target="_top" xlink:title=" ">
<polygon fill="white" stroke="#666666" points="196,-74 41,-74 41,-55 196,-55 196,-74"/>
<text text-anchor="middle" x="118.5" y="-62" font-family="Helvetica,sans-Serif" font-size="10.00">MemaPluginParameterInfo.h</text>
</a>
</g>
</g>
<!-- Node1&#45;&gt;Node3 -->
<g id="edge2_Node000001_Node000003" class="edge">
<title>Node1&#45;&gt;Node3</title>
<g id="a_edge2_Node000001_Node000003"><a xlink:title=" ">
<path fill="none" stroke="#63b8ff" d="M78.33,-109.84C86.02,-101.35 95.83,-90.52 103.83,-81.69"/>
<polygon fill="#63b8ff" stroke="#63b8ff" points="106.44,-84.03 110.56,-74.27 101.25,-79.33 106.44,-84.03"/>
</a>
</g>
</g>
<!-- Node3&#45;&gt;Node2 -->
<g id="edge3_Node000003_Node000002" class="edge">
<title>Node3&#45;&gt;Node2</title>
<g id="a_edge3_Node000003_Node000002"><a xlink:title=" ">
<path fill="none" stroke="#63b8ff" d="M109.75,-54.75C102.03,-47.03 90.6,-35.6 81.28,-26.28"/>
<polygon fill="#63b8ff" stroke="#63b8ff" points="83.64,-23.69 74.09,-19.09 78.69,-28.64 83.64,-23.69"/>
</a>
</g>
</g>
</g>
</svg>
