<?xml version="1.0" encoding="UTF-8" standalone="no"?>
<!DOCTYPE svg PUBLIC "-//W3C//DTD SVG 1.1//EN"
 "http://www.w3.org/Graphics/SVG/1.1/DTD/svg11.dtd">
<!-- Generated by graphviz version 2.43.0 (0)
 -->
<!-- Title: Source/MemaProcessorEditor/MemaProcessorEditor.cpp Pages: 1 -->
<svg width="1606pt" height="467pt"
 viewBox="0.00 0.00 1606.00 467.00" xmlns="http://www.w3.org/2000/svg" xmlns:xlink="http://www.w3.org/1999/xlink">
<g id="graph0" class="graph" transform="scale(1 1) rotate(0) translate(4 463)">
<title>Source/MemaProcessorEditor/MemaProcessorEditor.cpp</title>
<!-- Node1 -->
<g id="Node000001" class="node">
<title>Node1</title>
<g id="a_Node000001"><a xlink:title=" ">
<polygon fill="#999999" stroke="#666666" points="508.5,-459 349.5,-459 349.5,-429 508.5,-429 508.5,-459"/>
<text text-anchor="start" x="357.5" y="-447" font-family="Helvetica,sans-Serif" font-size="10.00">Source/MemaProcessorEditor</text>
<text text-anchor="middle" x="429" y="-436" font-family="Helvetica,sans-Serif" font-size="10.00">/MemaProcessorEditor.cpp</text>
</a>
</g>
</g>
<!-- Node2 -->
<g id="Node000002" class="node">
<title>Node2</title>
<g id="a_Node000002"><a xlink:href="MemaProcessorEditor_8h.html" target="_top" xlink:title=" ">
<polygon fill="white" stroke="#666666" points="373.5,-200.5 242.5,-200.5 242.5,-181.5 373.5,-181.5 373.5,-200.5"/>
<text text-anchor="middle" x="308" y="-188.5" font-family="Helvetica,sans-Serif" font-size="10.00">MemaProcessorEditor.h</text>
</a>
</g>
</g>
<!-- Node1&#45;&gt;Node2 -->
<g id="edge1_Node000001_Node000002" class="edge">
<title>Node1&#45;&gt;Node2</title>
<g id="a_edge1_Node000001_Node000002"><a xlink:title=" ">
<path fill="none" stroke="#63b8ff" d="M422.15,-428.79C401.42,-385.79 339.42,-257.17 316.57,-209.79"/>
<polygon fill="#63b8ff" stroke="#63b8ff" points="319.7,-208.22 312.21,-200.73 313.4,-211.26 319.7,-208.22"/>
</a>
</g>
</g>
<!-- Node3 -->
<g id="Node000003" class="node">
<title>Node3</title>
<g id="a_Node000003"><a xlink:title=" ">
<polygon fill="#e0e0e0" stroke="#999999" points="683,-19 603,-19 603,0 683,0 683,-19"/>
<text text-anchor="middle" x="643" y="-7" font-family="Helvetica,sans-Serif" font-size="10.00">JuceHeader.h</text>
</a>
</g>
</g>
<!-- Node1&#45;&gt;Node3 -->
<g id="edge5_Node000001_Node000003" class="edge">
<title>Node1&#45;&gt;Node3</title>
<g id="a_edge5_Node000001_Node000003"><a xlink:title=" ">
<path fill="none" stroke="#63b8ff" d="M349.31,-436.24C225.25,-423.49 0,-390.43 0,-318.5 0,-318.5 0,-318.5 0,-124 0,-69.27 50.37,-73.17 102,-55 191.74,-23.41 476.45,-13.97 592.76,-11.39"/>
<polygon fill="#63b8ff" stroke="#63b8ff" points="592.9,-14.89 602.82,-11.17 592.75,-7.89 592.9,-14.89"/>
</a>
</g>
</g>
<!-- Node5 -->
<g id="Node000005" class="node">
<title>Node5</title>
<g id="a_Node000005"><a xlink:href="MemaProcessorEditor_2PluginControlComponent_8h.html" target="_top" xlink:title=" ">
<polygon fill="white" stroke="#666666" points="186,-206 36,-206 36,-176 186,-176 186,-206"/>
<text text-anchor="start" x="44" y="-194" font-family="Helvetica,sans-Serif" font-size="10.00">../MemaProcessorEditor</text>
<text text-anchor="middle" x="111" y="-183" font-family="Helvetica,sans-Serif" font-size="10.00">/PluginControlComponent.h</text>
</a>
</g>
</g>
<!-- Node1&#45;&gt;Node5 -->
<g id="edge6_Node000001_Node000005" class="edge">
<title>Node1&#45;&gt;Node5</title>
<g id="a_edge6_Node000001_Node000005"><a xlink:title=" ">
<path fill="none" stroke="#63b8ff" d="M408.93,-428.95C368.53,-400.45 274.82,-333.35 200,-272 176.59,-252.81 151,-229.55 133.3,-213.07"/>
<polygon fill="#63b8ff" stroke="#63b8ff" points="135.45,-210.29 125.75,-206.01 130.66,-215.4 135.45,-210.29"/>
</a>
</g>
</g>
<!-- Node8 -->
<g id="Node000008" class="node">
<title>Node8</title>
<g id="a_Node000008"><a xlink:href="InputControlComponent_8h.html" target="_top" xlink:title=" ">
<polygon fill="white" stroke="#666666" points="565.5,-393 420.5,-393 420.5,-363 565.5,-363 565.5,-393"/>
<text text-anchor="start" x="428.5" y="-381" font-family="Helvetica,sans-Serif" font-size="10.00">../MemaProcessorEditor</text>
<text text-anchor="middle" x="493" y="-370" font-family="Helvetica,sans-Serif" font-size="10.00">/InputControlComponent.h</text>
</a>
</g>
</g>
<!-- Node1&#45;&gt;Node8 -->
<g id="edge11_Node000001_Node000008" class="edge">
<title>Node1&#45;&gt;Node8</title>
<g id="a_edge11_Node000001_Node000008"><a xlink:title=" ">
<path fill="none" stroke="#63b8ff" d="M443.2,-428.8C451.57,-420.43 462.32,-409.68 471.69,-400.31"/>
<polygon fill="#63b8ff" stroke="#63b8ff" points="474.24,-402.71 478.84,-393.16 469.29,-397.76 474.24,-402.71"/>
</a>
</g>
</g>
<!-- Node22 -->
<g id="Node000022" class="node">
<title>Node22</title>
<g id="a_Node000022"><a xlink:href="CrosspointsControlComponent_8h.html" target="_top" xlink:title=" ">
<polygon fill="white" stroke="#666666" points="1289.5,-272 1112.5,-272 1112.5,-242 1289.5,-242 1289.5,-272"/>
<text text-anchor="start" x="1120.5" y="-260" font-family="Helvetica,sans-Serif" font-size="10.00">../MemaProcessorEditor</text>
<text text-anchor="middle" x="1201" y="-249" font-family="Helvetica,sans-Serif" font-size="10.00">/CrosspointsControlComponent.h</text>
</a>
</g>
</g>
<!-- Node1&#45;&gt;Node22 -->
<g id="edge40_Node000001_Node000022" class="edge">
<title>Node1&#45;&gt;Node22</title>
<g id="a_edge40_Node000001_Node000022"><a xlink:title=" ">
<path fill="none" stroke="#63b8ff" d="M508.76,-440.79C598.95,-436.74 749.56,-425.31 875,-393 984.86,-364.7 1106.37,-306.7 1165.19,-276.78"/>
<polygon fill="#63b8ff" stroke="#63b8ff" points="1167.11,-279.72 1174.42,-272.05 1163.92,-273.49 1167.11,-279.72"/>
</a>
</g>
</g>
<!-- Node23 -->
<g id="Node000023" class="node">
<title>Node23</title>
<g id="a_Node000023"><a xlink:href="OutputControlComponent_8h.html" target="_top" xlink:title=" ">
<polygon fill="white" stroke="#666666" points="865.5,-393 712.5,-393 712.5,-363 865.5,-363 865.5,-393"/>
<text text-anchor="start" x="720.5" y="-381" font-family="Helvetica,sans-Serif" font-size="10.00">../MemaProcessorEditor</text>
<text text-anchor="middle" x="789" y="-370" font-family="Helvetica,sans-Serif" font-size="10.00">/OutputControlComponent.h</text>
</a>
</g>
</g>
<!-- Node1&#45;&gt;Node23 -->
<g id="edge45_Node000001_Node000023" class="edge">
<title>Node1&#45;&gt;Node23</title>
<g id="a_edge45_Node000001_Node000023"><a xlink:title=" ">
<path fill="none" stroke="#63b8ff" d="M508,-428.95C565.43,-418.75 643.13,-404.93 702.27,-394.42"/>
<polygon fill="#63b8ff" stroke="#63b8ff" points="703.11,-397.82 712.34,-392.63 701.88,-390.93 703.11,-397.82"/>
</a>
</g>
</g>
<!-- Node2&#45;&gt;Node3 -->
<g id="edge2_Node000002_Node000003" class="edge">
<title>Node2&#45;&gt;Node3</title>
<g id="a_edge2_Node000002_Node000003"><a xlink:title=" ">
<path fill="none" stroke="#63b8ff" d="M300.78,-181.19C282.41,-157.67 237.61,-92.62 271,-55 292.01,-31.33 496.15,-17.93 592.78,-12.86"/>
<polygon fill="#63b8ff" stroke="#63b8ff" points="593.09,-16.35 602.9,-12.34 592.73,-9.36 593.09,-16.35"/>
</a>
</g>
</g>
<!-- Node4 -->
<g id="Node000004" class="node">
<title>Node4</title>
<g id="a_Node000004"><a xlink:href="AudioSelectComponent_8h.html" target="_top" xlink:title=" ">
<polygon fill="white" stroke="#666666" points="420,-74 280,-74 280,-55 420,-55 420,-74"/>
<text text-anchor="middle" x="350" y="-62" font-family="Helvetica,sans-Serif" font-size="10.00">AudioSelectComponent.h</text>
</a>
</g>
</g>
<!-- Node2&#45;&gt;Node4 -->
<g id="edge3_Node000002_Node000004" class="edge">
<title>Node2&#45;&gt;Node4</title>
<g id="a_edge3_Node000002_Node000004"><a xlink:title=" ">
<path fill="none" stroke="#63b8ff" d="M310.89,-181.44C317.66,-161.36 334.69,-110.87 343.89,-83.62"/>
<polygon fill="#63b8ff" stroke="#63b8ff" points="347.21,-84.71 347.09,-74.12 340.58,-82.47 347.21,-84.71"/>
</a>
</g>
</g>
<!-- Node4&#45;&gt;Node3 -->
<g id="edge4_Node000004_Node000003" class="edge">
<title>Node4&#45;&gt;Node3</title>
<g id="a_edge4_Node000004_Node000003"><a xlink:title=" ">
<path fill="none" stroke="#63b8ff" d="M397.08,-54.98C450.68,-45.29 537.91,-29.51 592.79,-19.58"/>
<polygon fill="#63b8ff" stroke="#63b8ff" points="593.43,-23.02 602.64,-17.8 592.18,-16.14 593.43,-23.02"/>
</a>
</g>
</g>
<!-- Node5&#45;&gt;Node3 -->
<g id="edge7_Node000005_Node000003" class="edge">
<title>Node5&#45;&gt;Node3</title>
<g id="a_edge7_Node000005_Node000003"><a xlink:title=" ">
<path fill="none" stroke="#63b8ff" d="M89.83,-175.79C68.63,-159.76 41.25,-132.93 57,-110 117.36,-22.11 462.13,-11.28 592.8,-10.37"/>
<polygon fill="#63b8ff" stroke="#63b8ff" points="592.96,-13.87 602.94,-10.32 592.92,-6.87 592.96,-13.87"/>
</a>
</g>
</g>
<!-- Node6 -->
<g id="Node000006" class="node">
<title>Node6</title>
<g id="a_Node000006"><a xlink:href="MemaPluginParameterInfo_8h.html" target="_top" xlink:title=" ">
<polygon fill="white" stroke="#666666" points="800.5,-140 633.5,-140 633.5,-110 800.5,-110 800.5,-140"/>
<text text-anchor="start" x="641.5" y="-128" font-family="Helvetica,sans-Serif" font-size="10.00">../MemaProcessor/MemaPlugin</text>
<text text-anchor="middle" x="717" y="-117" font-family="Helvetica,sans-Serif" font-size="10.00">ParameterInfo.h</text>
</a>
</g>
</g>
<!-- Node5&#45;&gt;Node6 -->
<g id="edge8_Node000005_Node000006" class="edge">
<title>Node5&#45;&gt;Node6</title>
<g id="a_edge8_Node000005_Node000006"><a xlink:title=" ">
<path fill="none" stroke="#63b8ff" d="M186.12,-181.33C201.93,-179.54 218.51,-177.68 234,-176 369.18,-161.31 525.75,-145.28 623.1,-135.44"/>
<polygon fill="#63b8ff" stroke="#63b8ff" points="623.61,-138.9 633.21,-134.41 622.91,-131.94 623.61,-138.9"/>
</a>
</g>
</g>
<!-- Node7 -->
<g id="Node000007" class="node">
<title>Node7</title>
<g id="a_Node000007"><a xlink:title=" ">
<polygon fill="#e0e0e0" stroke="#999999" points="186,-134.5 66,-134.5 66,-115.5 186,-115.5 186,-134.5"/>
<text text-anchor="middle" x="126" y="-122.5" font-family="Helvetica,sans-Serif" font-size="10.00">FixedFontTextEditor.h</text>
</a>
</g>
</g>
<!-- Node5&#45;&gt;Node7 -->
<g id="edge10_Node000005_Node000007" class="edge">
<title>Node5&#45;&gt;Node7</title>
<g id="a_edge10_Node000005_Node000007"><a xlink:title=" ">
<path fill="none" stroke="#63b8ff" d="M114.33,-175.8C116.46,-166.7 119.25,-154.79 121.57,-144.9"/>
<polygon fill="#63b8ff" stroke="#63b8ff" points="125.05,-145.38 123.93,-134.84 118.24,-143.78 125.05,-145.38"/>
</a>
</g>
</g>
<!-- Node6&#45;&gt;Node3 -->
<g id="edge9_Node000006_Node000003" class="edge">
<title>Node6&#45;&gt;Node3</title>
<g id="a_edge9_Node000006_Node000003"><a xlink:title=" ">
<path fill="none" stroke="#63b8ff" d="M707.63,-109.63C694.02,-88.75 668.81,-50.09 654.23,-27.72"/>
<polygon fill="#63b8ff" stroke="#63b8ff" points="657.08,-25.69 648.69,-19.23 651.22,-29.52 657.08,-25.69"/>
</a>
</g>
</g>
<!-- Node8&#45;&gt;Node3 -->
<g id="edge12_Node000008_Node000003" class="edge">
<title>Node8&#45;&gt;Node3</title>
<g id="a_edge12_Node000008_Node000003"><a xlink:title=" ">
<path fill="none" stroke="#63b8ff" d="M424.03,-362.98C341.41,-341.68 214,-292.55 214,-192 214,-192 214,-192 214,-124 214,-87.87 226.46,-74.32 257,-55 311.68,-20.4 501.2,-12.67 592.74,-10.96"/>
<polygon fill="#63b8ff" stroke="#63b8ff" points="592.94,-14.46 602.88,-10.79 592.82,-7.46 592.94,-14.46"/>
</a>
</g>
</g>
<!-- Node9 -->
<g id="Node000009" class="node">
<title>Node9</title>
<g id="a_Node000009"><a xlink:href="AbstractAudioVisualizer_8h.html" target="_top" xlink:title=" ">
<polygon fill="white" stroke="#666666" points="607.5,-327 466.5,-327 466.5,-308 607.5,-308 607.5,-327"/>
<text text-anchor="middle" x="537" y="-315" font-family="Helvetica,sans-Serif" font-size="10.00">AbstractAudioVisualizer.h</text>
</a>
</g>
</g>
<!-- Node8&#45;&gt;Node9 -->
<g id="edge13_Node000008_Node000009" class="edge">
<title>Node8&#45;&gt;Node9</title>
<g id="a_edge13_Node000008_Node000009"><a xlink:title=" ">
<path fill="none" stroke="#63b8ff" d="M503.65,-362.84C509.84,-354.61 517.69,-344.18 524.21,-335.51"/>
<polygon fill="#63b8ff" stroke="#63b8ff" points="527.19,-337.36 530.41,-327.27 521.6,-333.15 527.19,-337.36"/>
</a>
</g>
</g>
<!-- Node21 -->
<g id="Node000021" class="node">
<title>Node21</title>
<g id="a_Node000021"><a xlink:href="MemaCommanders_8h.html" target="_top" xlink:title=" ">
<polygon fill="white" stroke="#666666" points="1173,-200.5 961,-200.5 961,-181.5 1173,-181.5 1173,-200.5"/>
<text text-anchor="middle" x="1067" y="-188.5" font-family="Helvetica,sans-Serif" font-size="10.00">../MemaProcessor/MemaCommanders.h</text>
</a>
</g>
</g>
<!-- Node8&#45;&gt;Node21 -->
<g id="edge37_Node000008_Node000021" class="edge">
<title>Node8&#45;&gt;Node21</title>
<g id="a_edge37_Node000008_Node000021"><a xlink:title=" ">
<path fill="none" stroke="#63b8ff" d="M536.61,-362.94C645.88,-327.73 929.81,-236.21 1030.74,-203.69"/>
<polygon fill="#63b8ff" stroke="#63b8ff" points="1032.03,-206.95 1040.48,-200.55 1029.89,-200.28 1032.03,-206.95"/>
</a>
</g>
</g>
<!-- Node9&#45;&gt;Node3 -->
<g id="edge14_Node000009_Node000003" class="edge">
<title>Node9&#45;&gt;Node3</title>
<g id="a_edge14_Node000009_Node000003"><a xlink:title=" ">
<path fill="none" stroke="#63b8ff" d="M522.75,-307.85C477.83,-279.52 345.18,-186.85 397,-110 440.61,-45.32 534.16,-22.67 592.5,-14.75"/>
<polygon fill="#63b8ff" stroke="#63b8ff" points="593.13,-18.2 602.61,-13.48 592.25,-11.25 593.13,-18.2"/>
</a>
</g>
</g>
<!-- Node10 -->
<g id="Node000010" class="node">
<title>Node10</title>
<g id="a_Node000010"><a xlink:href="MemaProcessor_8h.html" target="_top" xlink:title=" ">
<polygon fill="white" stroke="#666666" points="721.5,-266.5 528.5,-266.5 528.5,-247.5 721.5,-247.5 721.5,-266.5"/>
<text text-anchor="middle" x="625" y="-254.5" font-family="Helvetica,sans-Serif" font-size="10.00">../MemaProcessor/MemaProcessor.h</text>
</a>
</g>
</g>
<!-- Node9&#45;&gt;Node10 -->
<g id="edge15_Node000009_Node000010" class="edge">
<title>Node9&#45;&gt;Node10</title>
<g id="a_edge15_Node000009_Node000010"><a xlink:title=" ">
<path fill="none" stroke="#63b8ff" d="M549.98,-307.87C564.02,-298.54 586.63,-283.51 603.36,-272.38"/>
<polygon fill="#63b8ff" stroke="#63b8ff" points="605.57,-275.12 611.96,-266.67 601.7,-269.29 605.57,-275.12"/>
</a>
</g>
</g>
<!-- Node10&#45;&gt;Node2 -->
<g id="edge32_Node000010_Node000002" class="edge">
<title>Node10&#45;&gt;Node2</title>
<g id="a_edge32_Node000010_Node000002"><a xlink:title=" ">
<path fill="none" stroke="#63b8ff" d="M582.58,-247.44C525.04,-235.82 422.34,-215.09 360.16,-202.53"/>
<polygon fill="#63b8ff" stroke="#63b8ff" points="360.67,-199.06 350.17,-200.51 359.28,-205.92 360.67,-199.06"/>
</a>
</g>
</g>
<!-- Node10&#45;&gt;Node3 -->
<g id="edge16_Node000010_Node000003" class="edge">
<title>Node10&#45;&gt;Node3</title>
<g id="a_edge16_Node000010_Node000003"><a xlink:title=" ">
<path fill="none" stroke="#63b8ff" d="M624.47,-247.42C623.18,-224.85 620.33,-162.01 625,-110 627.56,-81.51 634.15,-48.98 638.61,-29.1"/>
<polygon fill="#63b8ff" stroke="#63b8ff" points="642.05,-29.74 640.88,-19.21 635.23,-28.17 642.05,-29.74"/>
</a>
</g>
</g>
<!-- Node10&#45;&gt;Node6 -->
<g id="edge31_Node000010_Node000006" class="edge">
<title>Node10&#45;&gt;Node6</title>
<g id="a_edge31_Node000010_Node000006"><a xlink:title=" ">
<path fill="none" stroke="#63b8ff" d="M628.15,-247.02C633.82,-231.58 646.79,-199.4 664,-176 671.73,-165.49 681.83,-155.33 691.14,-146.95"/>
<polygon fill="#63b8ff" stroke="#63b8ff" points="693.47,-149.57 698.7,-140.36 688.87,-144.29 693.47,-149.57"/>
</a>
</g>
</g>
<!-- Node11 -->
<g id="Node000011" class="node">
<title>Node11</title>
<g id="a_Node000011"><a xlink:href="MemaMessages_8h.html" target="_top" xlink:title=" ">
<polygon fill="white" stroke="#666666" points="942.5,-200.5 837.5,-200.5 837.5,-181.5 942.5,-181.5 942.5,-200.5"/>
<text text-anchor="middle" x="890" y="-188.5" font-family="Helvetica,sans-Serif" font-size="10.00">MemaMessages.h</text>
</a>
</g>
</g>
<!-- Node10&#45;&gt;Node11 -->
<g id="edge17_Node000010_Node000011" class="edge">
<title>Node10&#45;&gt;Node11</title>
<g id="a_edge17_Node000010_Node000011"><a xlink:title=" ">
<path fill="none" stroke="#63b8ff" d="M660.46,-247.44C708.06,-235.94 792.65,-215.51 844.77,-202.92"/>
<polygon fill="#63b8ff" stroke="#63b8ff" points="845.85,-206.26 854.75,-200.51 844.2,-199.46 845.85,-206.26"/>
</a>
</g>
</g>
<!-- Node13 -->
<g id="Node000013" class="node">
<title>Node13</title>
<g id="a_Node000013"><a xlink:href="ProcessorDataAnalyzer_8h.html" target="_top" xlink:title=" ">
<polygon fill="white" stroke="#666666" points="1367,-200.5 1229,-200.5 1229,-181.5 1367,-181.5 1367,-200.5"/>
<text text-anchor="middle" x="1298" y="-188.5" font-family="Helvetica,sans-Serif" font-size="10.00">ProcessorDataAnalyzer.h</text>
</a>
</g>
</g>
<!-- Node10&#45;&gt;Node13 -->
<g id="edge21_Node000010_Node000013" class="edge">
<title>Node10&#45;&gt;Node13</title>
<g id="a_edge21_Node000010_Node000013"><a xlink:title=" ">
<path fill="none" stroke="#63b8ff" d="M721.69,-248.22C832.85,-239.07 1020.75,-222.96 1182,-206 1194.34,-204.7 1207.4,-203.23 1220.14,-201.73"/>
<polygon fill="#63b8ff" stroke="#63b8ff" points="1220.74,-205.18 1230.26,-200.53 1219.92,-198.23 1220.74,-205.18"/>
</a>
</g>
</g>
<!-- Node18 -->
<g id="Node000018" class="node">
<title>Node18</title>
<g id="a_Node000018"><a xlink:href="MemaAppConfiguration_8h.html" target="_top" xlink:title=" ">
<polygon fill="white" stroke="#666666" points="578.5,-200.5 429.5,-200.5 429.5,-181.5 578.5,-181.5 578.5,-200.5"/>
<text text-anchor="middle" x="504" y="-188.5" font-family="Helvetica,sans-Serif" font-size="10.00">../MemaAppConfiguration.h</text>
</a>
</g>
</g>
<!-- Node10&#45;&gt;Node18 -->
<g id="edge33_Node000010_Node000018" class="edge">
<title>Node10&#45;&gt;Node18</title>
<g id="a_edge33_Node000010_Node000018"><a xlink:title=" ">
<path fill="none" stroke="#63b8ff" d="M608.68,-247.37C588.29,-236.59 553.19,-218.02 529.3,-205.38"/>
<polygon fill="#63b8ff" stroke="#63b8ff" points="530.92,-202.28 520.45,-200.7 527.65,-208.47 530.92,-202.28"/>
</a>
</g>
</g>
<!-- Node20 -->
<g id="Node000020" class="node">
<title>Node20</title>
<g id="a_Node000020"><a xlink:title=" ">
<polygon fill="#e0e0e0" stroke="#999999" points="819.5,-200.5 672.5,-200.5 672.5,-181.5 819.5,-181.5 819.5,-200.5"/>
<text text-anchor="middle" x="746" y="-188.5" font-family="Helvetica,sans-Serif" font-size="10.00">ServiceTopologyManager.h</text>
</a>
</g>
</g>
<!-- Node10&#45;&gt;Node20 -->
<g id="edge36_Node000010_Node000020" class="edge">
<title>Node10&#45;&gt;Node20</title>
<g id="a_edge36_Node000010_Node000020"><a xlink:title=" ">
<path fill="none" stroke="#63b8ff" d="M641.32,-247.37C661.71,-236.59 696.81,-218.02 720.7,-205.38"/>
<polygon fill="#63b8ff" stroke="#63b8ff" points="722.35,-208.47 729.55,-200.7 719.08,-202.28 722.35,-208.47"/>
</a>
</g>
</g>
<!-- Node11&#45;&gt;Node3 -->
<g id="edge18_Node000011_Node000003" class="edge">
<title>Node11&#45;&gt;Node3</title>
<g id="a_edge18_Node000011_Node000003"><a xlink:title=" ">
<path fill="none" stroke="#63b8ff" d="M882.66,-181.36C869.25,-165.89 839.45,-132.92 810,-110 763.94,-74.15 703.91,-41.33 669.79,-23.81"/>
<polygon fill="#63b8ff" stroke="#63b8ff" points="670.99,-20.49 660.49,-19.08 667.81,-26.73 670.99,-20.49"/>
</a>
</g>
</g>
<!-- Node11&#45;&gt;Node6 -->
<g id="edge20_Node000011_Node000006" class="edge">
<title>Node11&#45;&gt;Node6</title>
<g id="a_edge20_Node000011_Node000006"><a xlink:title=" ">
<path fill="none" stroke="#63b8ff" d="M866.67,-181.37C840.65,-171.74 797.85,-155.91 764.68,-143.64"/>
<polygon fill="#63b8ff" stroke="#63b8ff" points="765.75,-140.3 755.16,-140.12 763.32,-146.87 765.75,-140.3"/>
</a>
</g>
</g>
<!-- Node12 -->
<g id="Node000012" class="node">
<title>Node12</title>
<g id="a_Node000012"><a xlink:title=" ">
<polygon fill="#e0e0e0" stroke="#999999" points="981.5,-134.5 856.5,-134.5 856.5,-115.5 981.5,-115.5 981.5,-134.5"/>
<text text-anchor="middle" x="919" y="-122.5" font-family="Helvetica,sans-Serif" font-size="10.00">CustomLookAndFeel.h</text>
</a>
</g>
</g>
<!-- Node11&#45;&gt;Node12 -->
<g id="edge19_Node000011_Node000012" class="edge">
<title>Node11&#45;&gt;Node12</title>
<g id="a_edge19_Node000011_Node000012"><a xlink:title=" ">
<path fill="none" stroke="#63b8ff" d="M893.91,-181.37C898.21,-171.88 905.24,-156.36 910.77,-144.16"/>
<polygon fill="#63b8ff" stroke="#63b8ff" points="914.03,-145.46 914.96,-134.91 907.65,-142.57 914.03,-145.46"/>
</a>
</g>
</g>
<!-- Node13&#45;&gt;Node3 -->
<g id="edge22_Node000013_Node000003" class="edge">
<title>Node13&#45;&gt;Node3</title>
<g id="a_edge22_Node000013_Node000003"><a xlink:title=" ">
<path fill="none" stroke="#63b8ff" d="M1248.18,-181.47C1190.44,-171.19 1099.12,-153.6 1067,-140 1044.87,-130.63 1042.93,-121.81 1022,-110 971.96,-81.76 959.83,-72.19 905,-55 833.39,-32.55 747.01,-20.66 693.54,-14.98"/>
<polygon fill="#63b8ff" stroke="#63b8ff" points="693.6,-11.47 683.29,-13.92 692.88,-18.43 693.6,-11.47"/>
</a>
</g>
</g>
<!-- Node14 -->
<g id="Node000014" class="node">
<title>Node14</title>
<g id="a_Node000014"><a xlink:href="ProcessorAudioSignalData_8h.html" target="_top" xlink:title=" ">
<polygon fill="white" stroke="#666666" points="1230,-134.5 1076,-134.5 1076,-115.5 1230,-115.5 1230,-134.5"/>
<text text-anchor="middle" x="1153" y="-122.5" font-family="Helvetica,sans-Serif" font-size="10.00">ProcessorAudioSignalData.h</text>
</a>
</g>
</g>
<!-- Node13&#45;&gt;Node14 -->
<g id="edge23_Node000013_Node000014" class="edge">
<title>Node13&#45;&gt;Node14</title>
<g id="a_edge23_Node000013_Node000014"><a xlink:title=" ">
<path fill="none" stroke="#63b8ff" d="M1278.44,-181.37C1253.69,-170.44 1210.83,-151.52 1182.19,-138.88"/>
<polygon fill="#63b8ff" stroke="#63b8ff" points="1183.27,-135.54 1172.71,-134.7 1180.44,-141.94 1183.27,-135.54"/>
</a>
</g>
</g>
<!-- Node16 -->
<g id="Node000016" class="node">
<title>Node16</title>
<g id="a_Node000016"><a xlink:href="ProcessorLevelData_8h.html" target="_top" xlink:title=" ">
<polygon fill="white" stroke="#666666" points="1532,-134.5 1410,-134.5 1410,-115.5 1532,-115.5 1532,-134.5"/>
<text text-anchor="middle" x="1471" y="-122.5" font-family="Helvetica,sans-Serif" font-size="10.00">ProcessorLevelData.h</text>
</a>
</g>
</g>
<!-- Node13&#45;&gt;Node16 -->
<g id="edge27_Node000013_Node000016" class="edge">
<title>Node13&#45;&gt;Node16</title>
<g id="a_edge27_Node000013_Node000016"><a xlink:title=" ">
<path fill="none" stroke="#63b8ff" d="M1321.33,-181.37C1351.47,-170.22 1404.09,-150.75 1438.23,-138.12"/>
<polygon fill="#63b8ff" stroke="#63b8ff" points="1439.6,-141.35 1447.76,-134.6 1437.17,-134.78 1439.6,-141.35"/>
</a>
</g>
</g>
<!-- Node17 -->
<g id="Node000017" class="node">
<title>Node17</title>
<g id="a_Node000017"><a xlink:href="ProcessorSpectrumData_8h.html" target="_top" xlink:title=" ">
<polygon fill="white" stroke="#666666" points="1391.5,-134.5 1248.5,-134.5 1248.5,-115.5 1391.5,-115.5 1391.5,-134.5"/>
<text text-anchor="middle" x="1320" y="-122.5" font-family="Helvetica,sans-Serif" font-size="10.00">ProcessorSpectrumData.h</text>
</a>
</g>
</g>
<!-- Node13&#45;&gt;Node17 -->
<g id="edge29_Node000013_Node000017" class="edge">
<title>Node13&#45;&gt;Node17</title>
<g id="a_edge29_Node000013_Node000017"><a xlink:title=" ">
<path fill="none" stroke="#63b8ff" d="M1300.97,-181.37C1304.2,-171.97 1309.46,-156.67 1313.63,-144.53"/>
<polygon fill="#63b8ff" stroke="#63b8ff" points="1317,-145.5 1316.94,-134.91 1310.38,-143.22 1317,-145.5"/>
</a>
</g>
</g>
<!-- Node14&#45;&gt;Node3 -->
<g id="edge24_Node000014_Node000003" class="edge">
<title>Node14&#45;&gt;Node3</title>
<g id="a_edge24_Node000014_Node000003"><a xlink:title=" ">
<path fill="none" stroke="#63b8ff" d="M1144.96,-115.37C1130.18,-100.16 1097.02,-68.88 1062,-55 996.06,-28.87 789.57,-16.79 693.32,-12.47"/>
<polygon fill="#63b8ff" stroke="#63b8ff" points="693.39,-8.97 683.25,-12.03 693.08,-15.96 693.39,-8.97"/>
</a>
</g>
</g>
<!-- Node15 -->
<g id="Node000015" class="node">
<title>Node15</title>
<g id="a_Node000015"><a xlink:href="AbstractProcessorData_8h.html" target="_top" xlink:title=" ">
<polygon fill="white" stroke="#666666" points="1337.5,-74 1200.5,-74 1200.5,-55 1337.5,-55 1337.5,-74"/>
<text text-anchor="middle" x="1269" y="-62" font-family="Helvetica,sans-Serif" font-size="10.00">AbstractProcessorData.h</text>
</a>
</g>
</g>
<!-- Node14&#45;&gt;Node15 -->
<g id="edge25_Node000014_Node000015" class="edge">
<title>Node14&#45;&gt;Node15</title>
<g id="a_edge25_Node000014_Node000015"><a xlink:title=" ">
<path fill="none" stroke="#63b8ff" d="M1170.12,-115.37C1189.22,-105.73 1220.37,-90.03 1242.6,-78.81"/>
<polygon fill="#63b8ff" stroke="#63b8ff" points="1244.46,-81.8 1251.81,-74.17 1241.31,-75.55 1244.46,-81.8"/>
</a>
</g>
</g>
<!-- Node15&#45;&gt;Node3 -->
<g id="edge26_Node000015_Node000003" class="edge">
<title>Node15&#45;&gt;Node3</title>
<g id="a_edge26_Node000015_Node000003"><a xlink:title=" ">
<path fill="none" stroke="#63b8ff" d="M1200.22,-57.68C1073.17,-46.92 804.52,-24.18 693.08,-14.74"/>
<polygon fill="#63b8ff" stroke="#63b8ff" points="693.37,-11.25 683.11,-13.9 692.78,-18.23 693.37,-11.25"/>
</a>
</g>
</g>
<!-- Node16&#45;&gt;Node15 -->
<g id="edge28_Node000016_Node000015" class="edge">
<title>Node16&#45;&gt;Node15</title>
<g id="a_edge28_Node000016_Node000015"><a xlink:title=" ">
<path fill="none" stroke="#63b8ff" d="M1441.63,-115.49C1406.4,-105.29 1347.21,-88.15 1308.13,-76.83"/>
<polygon fill="#63b8ff" stroke="#63b8ff" points="1308.99,-73.44 1298.41,-74.02 1307.04,-80.16 1308.99,-73.44"/>
</a>
</g>
</g>
<!-- Node17&#45;&gt;Node15 -->
<g id="edge30_Node000017_Node000015" class="edge">
<title>Node17&#45;&gt;Node15</title>
<g id="a_edge30_Node000017_Node000015"><a xlink:title=" ">
<path fill="none" stroke="#63b8ff" d="M1312.47,-115.37C1304.79,-106.55 1292.68,-92.66 1283.19,-81.77"/>
<polygon fill="#63b8ff" stroke="#63b8ff" points="1285.77,-79.41 1276.56,-74.17 1280.49,-84.01 1285.77,-79.41"/>
</a>
</g>
</g>
<!-- Node18&#45;&gt;Node3 -->
<g id="edge34_Node000018_Node000003" class="edge">
<title>Node18&#45;&gt;Node3</title>
<g id="a_edge34_Node000018_Node000003"><a xlink:title=" ">
<path fill="none" stroke="#63b8ff" d="M513.06,-181.39C522.75,-171.88 538.18,-155.8 549,-140 572.93,-105.07 566.01,-88.42 592,-55 600.59,-43.95 612.23,-33.55 622.22,-25.59"/>
<polygon fill="#63b8ff" stroke="#63b8ff" points="624.65,-28.13 630.45,-19.26 620.39,-22.58 624.65,-28.13"/>
</a>
</g>
</g>
<!-- Node19 -->
<g id="Node000019" class="node">
<title>Node19</title>
<g id="a_Node000019"><a xlink:title=" ">
<polygon fill="#e0e0e0" stroke="#999999" points="540,-134.5 406,-134.5 406,-115.5 540,-115.5 540,-134.5"/>
<text text-anchor="middle" x="473" y="-122.5" font-family="Helvetica,sans-Serif" font-size="10.00">AppConfigurationBase.h</text>
</a>
</g>
</g>
<!-- Node18&#45;&gt;Node19 -->
<g id="edge35_Node000018_Node000019" class="edge">
<title>Node18&#45;&gt;Node19</title>
<g id="a_edge35_Node000018_Node000019"><a xlink:title=" ">
<path fill="none" stroke="#63b8ff" d="M499.82,-181.37C495.22,-171.88 487.71,-156.36 481.8,-144.16"/>
<polygon fill="#63b8ff" stroke="#63b8ff" points="484.82,-142.38 477.31,-134.91 478.52,-145.43 484.82,-142.38"/>
</a>
</g>
</g>
<!-- Node21&#45;&gt;Node3 -->
<g id="edge38_Node000021_Node000003" class="edge">
<title>Node21&#45;&gt;Node3</title>
<g id="a_edge38_Node000021_Node000003"><a xlink:title=" ">
<path fill="none" stroke="#63b8ff" d="M1061.02,-181.07C1049.48,-164.53 1022.46,-129.06 991,-110 895.09,-51.88 763.77,-26.44 693.03,-16.36"/>
<polygon fill="#63b8ff" stroke="#63b8ff" points="693.43,-12.88 683.04,-14.98 692.47,-19.82 693.43,-12.88"/>
</a>
</g>
</g>
<!-- Node21&#45;&gt;Node6 -->
<g id="edge39_Node000021_Node000006" class="edge">
<title>Node21&#45;&gt;Node6</title>
<g id="a_edge39_Node000021_Node000006"><a xlink:title=" ">
<path fill="none" stroke="#63b8ff" d="M1020.16,-181.44C964.95,-171.34 872.05,-154.35 803.61,-141.84"/>
<polygon fill="#63b8ff" stroke="#63b8ff" points="804.16,-138.38 793.7,-140.02 802.91,-145.27 804.16,-138.38"/>
</a>
</g>
</g>
<!-- Node22&#45;&gt;Node3 -->
<g id="edge41_Node000022_Node000003" class="edge">
<title>Node22&#45;&gt;Node3</title>
<g id="a_edge41_Node000022_Node000003"><a xlink:title=" ">
<path fill="none" stroke="#63b8ff" d="M1289.5,-249.63C1412.12,-237.33 1611.11,-202.76 1541,-110 1486.96,-38.51 1435.33,-70.13 1347,-55 1104.7,-13.48 809.54,-9.71 693.39,-10.02"/>
<polygon fill="#63b8ff" stroke="#63b8ff" points="693.03,-6.52 683.04,-10.06 693.05,-13.52 693.03,-6.52"/>
</a>
</g>
</g>
<!-- Node22&#45;&gt;Node12 -->
<g id="edge44_Node000022_Node000012" class="edge">
<title>Node22&#45;&gt;Node12</title>
<g id="a_edge44_Node000022_Node000012"><a xlink:title=" ">
<path fill="none" stroke="#63b8ff" d="M1201.93,-241.92C1202.28,-223.95 1199.96,-193.16 1182,-176 1168.26,-162.87 1064.72,-146.11 991.74,-135.71"/>
<polygon fill="#63b8ff" stroke="#63b8ff" points="992.05,-132.22 981.66,-134.29 991.07,-139.15 992.05,-132.22"/>
</a>
</g>
</g>
<!-- Node22&#45;&gt;Node13 -->
<g id="edge43_Node000022_Node000013" class="edge">
<title>Node22&#45;&gt;Node13</title>
<g id="a_edge43_Node000022_Node000013"><a xlink:title=" ">
<path fill="none" stroke="#63b8ff" d="M1222.53,-241.8C1238.48,-231.27 1260.15,-216.97 1276.18,-206.4"/>
<polygon fill="#63b8ff" stroke="#63b8ff" points="1278.46,-209.09 1284.88,-200.66 1274.6,-203.24 1278.46,-209.09"/>
</a>
</g>
</g>
<!-- Node22&#45;&gt;Node21 -->
<g id="edge42_Node000022_Node000021" class="edge">
<title>Node22&#45;&gt;Node21</title>
<g id="a_edge42_Node000022_Node000021"><a xlink:title=" ">
<path fill="none" stroke="#63b8ff" d="M1171.59,-241.95C1148.51,-230.93 1116.62,-215.7 1094.14,-204.96"/>
<polygon fill="#63b8ff" stroke="#63b8ff" points="1095.37,-201.67 1084.83,-200.52 1092.35,-207.99 1095.37,-201.67"/>
</a>
</g>
</g>
<!-- Node23&#45;&gt;Node3 -->
<g id="edge46_Node000023_Node000003" class="edge">
<title>Node23&#45;&gt;Node3</title>
<g id="a_edge46_Node000023_Node000003"><a xlink:title=" ">
<path fill="none" stroke="#63b8ff" d="M865.84,-373.7C1067.78,-364.01 1598,-331.55 1598,-258 1598,-258 1598,-258 1598,-124 1598,-46.56 1513.38,-72.77 1438,-55 1295.6,-21.43 845.18,-12.95 693.45,-11.02"/>
<polygon fill="#63b8ff" stroke="#63b8ff" points="693.09,-7.52 683.05,-10.89 693.01,-14.52 693.09,-7.52"/>
</a>
</g>
</g>
<!-- Node23&#45;&gt;Node9 -->
<g id="edge47_Node000023_Node000009" class="edge">
<title>Node23&#45;&gt;Node9</title>
<g id="a_edge47_Node000023_Node000009"><a xlink:title=" ">
<path fill="none" stroke="#63b8ff" d="M728.64,-362.99C684.21,-352.67 624.67,-338.85 583.81,-329.37"/>
<polygon fill="#63b8ff" stroke="#63b8ff" points="584.38,-325.91 573.85,-327.05 582.8,-332.72 584.38,-325.91"/>
</a>
</g>
</g>
<!-- Node23&#45;&gt;Node21 -->
<g id="edge48_Node000023_Node000021" class="edge">
<title>Node23&#45;&gt;Node21</title>
<g id="a_edge48_Node000023_Node000021"><a xlink:title=" ">
<path fill="none" stroke="#63b8ff" d="M834.06,-362.96C858.38,-354.38 888.39,-342.14 913,-327 969.81,-292.05 1026.05,-235.83 1052.06,-208.28"/>
<polygon fill="#63b8ff" stroke="#63b8ff" points="1054.86,-210.41 1059.12,-200.71 1049.74,-205.63 1054.86,-210.41"/>
</a>
</g>
</g>
</g>
</svg>
