<?xml version="1.0" encoding="UTF-8" standalone="no"?>
<!DOCTYPE svg PUBLIC "-//W3C//DTD SVG 1.1//EN"
 "http://www.w3.org/Graphics/SVG/1.1/DTD/svg11.dtd">
<!-- Generated by graphviz version 2.43.0 (0)
 -->
<!-- Title: MemaRe/MemaReComponent.h Pages: 1 -->
<svg width="606pt" height="214pt"
 viewBox="0.00 0.00 605.66 214.00" xmlns="http://www.w3.org/2000/svg" xmlns:xlink="http://www.w3.org/1999/xlink">
<g id="graph0" class="graph" transform="scale(1 1) rotate(0) translate(4 210)">
<title>MemaRe/MemaReComponent.h</title>
<!-- Node1 -->
<g id="Node000001" class="node">
<title>Node1</title>
<g id="a_Node000001"><a xlink:title=" ">
<polygon fill="#999999" stroke="#666666" points="380.98,-206 208.98,-206 208.98,-187 380.98,-187 380.98,-206"/>
<text text-anchor="middle" x="294.98" y="-194" font-family="Helvetica,sans-Serif" font-size="10.00">MemaRe/MemaReComponent.h</text>
</a>
</g>
</g>
<!-- Node2 -->
<g id="Node000002" class="node">
<title>Node2</title>
<g id="a_Node000002"><a xlink:title=" ">
<polygon fill="#e0e0e0" stroke="#999999" points="318.98,-19 238.98,-19 238.98,0 318.98,0 318.98,-19"/>
<text text-anchor="middle" x="278.98" y="-7" font-family="Helvetica,sans-Serif" font-size="10.00">JuceHeader.h</text>
</a>
</g>
</g>
<!-- Node1&#45;&gt;Node2 -->
<g id="edge1_Node000001_Node000002" class="edge">
<title>Node1&#45;&gt;Node2</title>
<g id="a_edge1_Node000001_Node000002"><a xlink:title=" ">
<path fill="none" stroke="#63b8ff" d="M208.82,-193.73C135.67,-190.18 38.73,-179.97 13.98,-151 -51.7,-74.1 134.81,-33.01 228.66,-17.66"/>
<polygon fill="#63b8ff" stroke="#63b8ff" points="229.48,-21.08 238.8,-16.04 228.38,-14.16 229.48,-21.08"/>
</a>
</g>
</g>
<!-- Node3 -->
<g id="Node000003" class="node">
<title>Node3</title>
<g id="a_Node000003"><a xlink:href="FaderbankControlComponent_8h.html" target="_top" xlink:title=" ">
<polygon fill="white" stroke="#666666" points="196.48,-151 23.48,-151 23.48,-121 196.48,-121 196.48,-151"/>
<text text-anchor="start" x="31.48" y="-139" font-family="Helvetica,sans-Serif" font-size="10.00">MemaClientCommon/Faderbank</text>
<text text-anchor="middle" x="109.98" y="-128" font-family="Helvetica,sans-Serif" font-size="10.00">ControlComponent.h</text>
</a>
</g>
</g>
<!-- Node1&#45;&gt;Node3 -->
<g id="edge2_Node000001_Node000003" class="edge">
<title>Node1&#45;&gt;Node3</title>
<g id="a_edge2_Node000001_Node000003"><a xlink:title=" ">
<path fill="none" stroke="#63b8ff" d="M268.08,-186.99C240.99,-178.43 198.44,-164.97 164.3,-154.18"/>
<polygon fill="#63b8ff" stroke="#63b8ff" points="165.05,-150.74 154.46,-151.06 162.94,-157.42 165.05,-150.74"/>
</a>
</g>
</g>
<!-- Node5 -->
<g id="Node000005" class="node">
<title>Node5</title>
<g id="a_Node000005"><a xlink:href="PanningControlComponent_8h.html" target="_top" xlink:title=" ">
<polygon fill="white" stroke="#666666" points="375.48,-151 214.48,-151 214.48,-121 375.48,-121 375.48,-151"/>
<text text-anchor="start" x="222.48" y="-139" font-family="Helvetica,sans-Serif" font-size="10.00">MemaClientCommon/Panning</text>
<text text-anchor="middle" x="294.98" y="-128" font-family="Helvetica,sans-Serif" font-size="10.00">ControlComponent.h</text>
</a>
</g>
</g>
<!-- Node1&#45;&gt;Node5 -->
<g id="edge6_Node000001_Node000005" class="edge">
<title>Node1&#45;&gt;Node5</title>
<g id="a_edge6_Node000001_Node000005"><a xlink:title=" ">
<path fill="none" stroke="#63b8ff" d="M294.98,-186.87C294.98,-180.11 294.98,-170.35 294.98,-161.26"/>
<polygon fill="#63b8ff" stroke="#63b8ff" points="298.48,-161.11 294.98,-151.11 291.48,-161.11 298.48,-161.11"/>
</a>
</g>
</g>
<!-- Node6 -->
<g id="Node000006" class="node">
<title>Node6</title>
<g id="a_Node000006"><a xlink:href="MemaClientCommon_2PluginControlComponent_8h.html" target="_top" xlink:title=" ">
<polygon fill="white" stroke="#666666" points="581.98,-151 393.98,-151 393.98,-121 581.98,-121 581.98,-151"/>
<text text-anchor="start" x="401.98" y="-139" font-family="Helvetica,sans-Serif" font-size="10.00">MemaClientCommon/PluginControl</text>
<text text-anchor="middle" x="487.98" y="-128" font-family="Helvetica,sans-Serif" font-size="10.00">Component.h</text>
</a>
</g>
</g>
<!-- Node1&#45;&gt;Node6 -->
<g id="edge9_Node000001_Node000006" class="edge">
<title>Node1&#45;&gt;Node6</title>
<g id="a_edge9_Node000001_Node000006"><a xlink:title=" ">
<path fill="none" stroke="#63b8ff" d="M323.05,-186.99C351.43,-178.39 396.09,-164.86 431.78,-154.04"/>
<polygon fill="#63b8ff" stroke="#63b8ff" points="433.03,-157.31 441.58,-151.06 431,-150.62 433.03,-157.31"/>
</a>
</g>
</g>
<!-- Node7 -->
<g id="Node000007" class="node">
<title>Node7</title>
<g id="a_Node000007"><a xlink:href="MemaPluginParameterInfo_8h.html" target="_top" xlink:title=" ">
<polygon fill="white" stroke="#666666" points="566.98,-85 408.98,-85 408.98,-55 566.98,-55 566.98,-85"/>
<text text-anchor="start" x="416.98" y="-73" font-family="Helvetica,sans-Serif" font-size="10.00">MemaProcessor/MemaPlugin</text>
<text text-anchor="middle" x="487.98" y="-62" font-family="Helvetica,sans-Serif" font-size="10.00">ParameterInfo.h</text>
</a>
</g>
</g>
<!-- Node1&#45;&gt;Node7 -->
<g id="edge14_Node000001_Node000007" class="edge">
<title>Node1&#45;&gt;Node7</title>
<g id="a_edge14_Node000001_Node000007"><a xlink:title=" ">
<path fill="none" stroke="#63b8ff" d="M381.24,-194.57C458.73,-191.68 564.33,-181.96 590.98,-151 612.55,-125.95 576.04,-103.46 540.67,-88.75"/>
<polygon fill="#63b8ff" stroke="#63b8ff" points="541.84,-85.45 531.26,-85 539.25,-91.96 541.84,-85.45"/>
</a>
</g>
</g>
<!-- Node3&#45;&gt;Node2 -->
<g id="edge3_Node000003_Node000002" class="edge">
<title>Node3&#45;&gt;Node2</title>
<g id="a_edge3_Node000003_Node000002"><a xlink:title=" ">
<path fill="none" stroke="#63b8ff" d="M109.94,-120.85C110.66,-103.11 114.59,-72.84 131.98,-55 157.26,-29.07 197.09,-18.13 228.91,-13.57"/>
<polygon fill="#63b8ff" stroke="#63b8ff" points="229.45,-17.03 238.94,-12.3 228.58,-10.08 229.45,-17.03"/>
</a>
</g>
</g>
<!-- Node4 -->
<g id="Node000004" class="node">
<title>Node4</title>
<g id="a_Node000004"><a xlink:href="MemaClientControlComponentBase_8h.html" target="_top" xlink:title=" ">
<polygon fill="white" stroke="#666666" points="307.48,-85 140.48,-85 140.48,-55 307.48,-55 307.48,-85"/>
<text text-anchor="start" x="148.48" y="-73" font-family="Helvetica,sans-Serif" font-size="10.00">MemaClientControlComponent</text>
<text text-anchor="middle" x="223.98" y="-62" font-family="Helvetica,sans-Serif" font-size="10.00">Base.h</text>
</a>
</g>
</g>
<!-- Node3&#45;&gt;Node4 -->
<g id="edge4_Node000003_Node000004" class="edge">
<title>Node3&#45;&gt;Node4</title>
<g id="a_edge4_Node000003_Node000004"><a xlink:title=" ">
<path fill="none" stroke="#63b8ff" d="M135,-120.95C151.19,-111.87 172.46,-99.93 190.15,-90"/>
<polygon fill="#63b8ff" stroke="#63b8ff" points="192.02,-92.96 199.03,-85.01 188.59,-86.86 192.02,-92.96"/>
</a>
</g>
</g>
<!-- Node4&#45;&gt;Node2 -->
<g id="edge5_Node000004_Node000002" class="edge">
<title>Node4&#45;&gt;Node2</title>
<g id="a_edge5_Node000004_Node000002"><a xlink:title=" ">
<path fill="none" stroke="#63b8ff" d="M237.3,-54.84C245.28,-46.35 255.46,-35.52 263.76,-26.69"/>
<polygon fill="#63b8ff" stroke="#63b8ff" points="266.44,-28.95 270.74,-19.27 261.34,-24.15 266.44,-28.95"/>
</a>
</g>
</g>
<!-- Node5&#45;&gt;Node2 -->
<g id="edge7_Node000005_Node000002" class="edge">
<title>Node5&#45;&gt;Node2</title>
<g id="a_edge7_Node000005_Node000002"><a xlink:title=" ">
<path fill="none" stroke="#63b8ff" d="M304.13,-120.9C313.41,-104.74 325.31,-77.57 316.98,-55 312.92,-43.99 304.79,-33.86 297.09,-26.05"/>
<polygon fill="#63b8ff" stroke="#63b8ff" points="299.37,-23.39 289.7,-19.07 294.57,-28.48 299.37,-23.39"/>
</a>
</g>
</g>
<!-- Node5&#45;&gt;Node4 -->
<g id="edge8_Node000005_Node000004" class="edge">
<title>Node5&#45;&gt;Node4</title>
<g id="a_edge8_Node000005_Node000004"><a xlink:title=" ">
<path fill="none" stroke="#63b8ff" d="M279.23,-120.8C269.85,-112.34 257.78,-101.46 247.32,-92.03"/>
<polygon fill="#63b8ff" stroke="#63b8ff" points="249.47,-89.26 239.7,-85.16 244.78,-94.46 249.47,-89.26"/>
</a>
</g>
</g>
<!-- Node6&#45;&gt;Node2 -->
<g id="edge10_Node000006_Node000002" class="edge">
<title>Node6&#45;&gt;Node2</title>
<g id="a_edge10_Node000006_Node000002"><a xlink:title=" ">
<path fill="none" stroke="#63b8ff" d="M462.43,-120.79C444.8,-110.91 420.85,-97.35 399.98,-85 365.31,-64.48 325.63,-39.82 301.44,-24.66"/>
<polygon fill="#63b8ff" stroke="#63b8ff" points="303.01,-21.51 292.68,-19.15 299.29,-27.43 303.01,-21.51"/>
</a>
</g>
</g>
<!-- Node6&#45;&gt;Node4 -->
<g id="edge11_Node000006_Node000004" class="edge">
<title>Node6&#45;&gt;Node4</title>
<g id="a_edge11_Node000006_Node000004"><a xlink:title=" ">
<path fill="none" stroke="#63b8ff" d="M430.05,-120.95C389.21,-111.06 334.39,-97.77 291.56,-87.38"/>
<polygon fill="#63b8ff" stroke="#63b8ff" points="292.33,-83.97 281.79,-85.01 290.68,-90.77 292.33,-83.97"/>
</a>
</g>
</g>
<!-- Node6&#45;&gt;Node7 -->
<g id="edge12_Node000006_Node000007" class="edge">
<title>Node6&#45;&gt;Node7</title>
<g id="a_edge12_Node000006_Node000007"><a xlink:title=" ">
<path fill="none" stroke="#63b8ff" d="M487.98,-120.8C487.98,-113.34 487.98,-103.99 487.98,-95.41"/>
<polygon fill="#63b8ff" stroke="#63b8ff" points="491.48,-95.16 487.98,-85.16 484.48,-95.16 491.48,-95.16"/>
</a>
</g>
</g>
<!-- Node7&#45;&gt;Node2 -->
<g id="edge13_Node000007_Node000002" class="edge">
<title>Node7&#45;&gt;Node2</title>
<g id="a_edge13_Node000007_Node000002"><a xlink:title=" ">
<path fill="none" stroke="#63b8ff" d="M437.92,-54.99C401.7,-44.85 353.36,-31.32 319.54,-21.85"/>
<polygon fill="#63b8ff" stroke="#63b8ff" points="320.12,-18.38 309.54,-19.05 318.23,-25.12 320.12,-18.38"/>
</a>
</g>
</g>
</g>
</svg>
