<?xml version="1.0" encoding="UTF-8" standalone="no"?>
<!DOCTYPE svg PUBLIC "-//W3C//DTD SVG 1.1//EN"
 "http://www.w3.org/Graphics/SVG/1.1/DTD/svg11.dtd">
<!-- Generated by graphviz version 2.43.0 (0)
 -->
<!-- Title: MemaMo/MemaMoComponent.cpp Pages: 1 -->
<!--zoomable 434 -->

<svg id="main" version="1.1" xmlns="http://www.w3.org/2000/svg" xmlns:xlink="http://www.w3.org/1999/xlink" xml:space="preserve" onload="init(evt)">
<style type="text/css"><![CDATA[
.node, .edge {opacity: 0.7;}
.node.selected, .edge.selected {opacity: 1;}
.edge:hover path { stroke: red; }
.edge:hover polygon { stroke: red; fill: red; }
]]></style>

<defs>
  <circle id="rim" cx="0" cy="0" r="7"/>
  <circle id="rim2" cx="0" cy="0" r="3.5"/>
  <g id="zoomPlus">
    <use xlink:href="#rim" fill="#404040"><set attributeName="fill" to="#808080" begin="zoomplus.mouseover" end="zoomplus.mouseout"/></use>
    <path d="M-4,0h8M0,-4v8" fill="none" stroke="white" stroke-width="1.5" pointer-events="none"/>
  </g>
  <g id="zoomMin">
    <use xlink:href="#rim" fill="#404040"><set attributeName="fill" to="#808080" begin="zoomminus.mouseover" end="zoomminus.mouseout"/></use>
    <path d="M-4,0h8" fill="none" stroke="white" stroke-width="1.5" pointer-events="none"/>
  </g>
  <g id="arrowUp" transform="translate(30 24)">
    <use xlink:href="#rim"/>
    <path pointer-events="none" fill="none" stroke="white" stroke-width="1.5" d="M0,-3.0v7 M-2.5,-0.5L0,-3.0L2.5,-0.5"/>
  </g>
  <g id="arrowRight" transform="rotate(90) translate(36 -43)">
    <use xlink:href="#rim"/>
    <path pointer-events="none" fill="none" stroke="white" stroke-width="1.5" d="M0,-3.0v7 M-2.5,-0.5L0,-3.0L2.5,-0.5"/>
  </g>
  <g id="arrowDown" transform="rotate(180) translate(-30 -48)">
    <use xlink:href="#rim"/>
    <path pointer-events="none" fill="none" stroke="white" stroke-width="1.5" d="M0,-3.0v7 M-2.5,-0.5L0,-3.0L2.5,-0.5"/>
  </g>
  <g id="arrowLeft" transform="rotate(270) translate(-36 17)">
    <use xlink:href="#rim"/>
    <path pointer-events="none" fill="none" stroke="white" stroke-width="1.5" d="M0,-3.0v7 M-2.5,-0.5L0,-3.0L2.5,-0.5"/>
  </g>
  <g id="resetDef">
    <use xlink:href="#rim2" fill="#404040"><set attributeName="fill" to="#808080" begin="reset.mouseover" end="reset.mouseout"/></use>
  </g>
</defs>
<script type="application/ecmascript">
var viewWidth = 1694;
var viewHeight = 434;
var sectionId = 'dynsection-0';
</script>
<script type="application/ecmascript" xlink:href="svg.min.js"/>
<svg id="graph" class="graph">
<g id="viewport">
<title>MemaMo/MemaMoComponent.cpp</title>
<!-- Node1 -->
<g id="Node000001" class="node">
<title>Node1</title>
<g id="a_Node000001"><a xlink:title=" ">
<polygon fill="#999999" stroke="#666666" points="677,-426 489,-426 489,-407 677,-407 677,-426"/>
<text text-anchor="middle" x="583" y="-414" font-family="Helvetica,sans-Serif" font-size="10.00">MemaMo/MemaMoComponent.cpp</text>
</a>
</g>
</g>
<!-- Node2 -->
<g id="Node000002" class="node">
<title>Node2</title>
<g id="a_Node000002"><a xlink:href="MemaMoComponent_8h.html" target="_top" xlink:title=" ">
<polygon fill="white" stroke="#666666" points="128,-250 0,-250 0,-231 128,-231 128,-250"/>
<text text-anchor="middle" x="64" y="-238" font-family="Helvetica,sans-Serif" font-size="10.00">MemaMoComponent.h</text>
</a>
</g>
</g>
<!-- Node1&#45;&gt;Node2 -->
<g id="edge1_Node000001_Node000002" class="edge">
<title>Node1&#45;&gt;Node2</title>
<g id="a_edge1_Node000001_Node000002"><a xlink:title=" ">
<path fill="none" stroke="#63b8ff" d="M488.76,-413.5C350.96,-409.64 107.68,-398.91 79,-371 49.36,-342.16 54.39,-288.5 59.7,-260.16"/>
<polygon fill="#63b8ff" stroke="#63b8ff" points="63.14,-260.83 61.75,-250.33 56.28,-259.4 63.14,-260.83"/>
</a>
</g>
</g>
<!-- Node4 -->
<g id="Node000004" class="node">
<title>Node4</title>
<g id="a_Node000004"><a xlink:href="MeterbridgeComponent_8h.html" target="_top" xlink:title=" ">
<polygon fill="white" stroke="#666666" points="232,-371 88,-371 88,-341 232,-341 232,-371"/>
<text text-anchor="start" x="96" y="-359" font-family="Helvetica,sans-Serif" font-size="10.00">MemaProcessorEditor</text>
<text text-anchor="middle" x="160" y="-348" font-family="Helvetica,sans-Serif" font-size="10.00">/MeterbridgeComponent.h</text>
</a>
</g>
</g>
<!-- Node1&#45;&gt;Node4 -->
<g id="edge3_Node000001_Node000004" class="edge">
<title>Node1&#45;&gt;Node4</title>
<g id="a_edge3_Node000001_Node000004"><a xlink:title=" ">
<path fill="none" stroke="#63b8ff" d="M510.82,-407C443.82,-398.9 341.05,-385.97 242.53,-371.2"/>
<polygon fill="#63b8ff" stroke="#63b8ff" points="242.81,-367.7 232.4,-369.67 241.77,-374.62 242.81,-367.7"/>
</a>
</g>
</g>
<!-- Node6 -->
<g id="Node000006" class="node">
<title>Node6</title>
<g id="a_Node000006"><a xlink:href="MemaProcessor_8h.html" target="_top" xlink:title=" ">
<polygon fill="white" stroke="#666666" points="736.5,-250 543.5,-250 543.5,-231 736.5,-231 736.5,-250"/>
<text text-anchor="middle" x="640" y="-238" font-family="Helvetica,sans-Serif" font-size="10.00">../MemaProcessor/MemaProcessor.h</text>
</a>
</g>
</g>
<!-- Node1&#45;&gt;Node6 -->
<g id="edge44_Node000001_Node000006" class="edge">
<title>Node1&#45;&gt;Node6</title>
<g id="a_edge44_Node000001_Node000006"><a xlink:title=" ">
<path fill="none" stroke="#63b8ff" d="M593.21,-406.72C602.09,-398.46 614.53,-385.25 621,-371 637.62,-334.4 640.34,-286.54 640.44,-260.46"/>
<polygon fill="#63b8ff" stroke="#63b8ff" points="643.94,-260.1 640.34,-250.13 636.94,-260.17 643.94,-260.1"/>
</a>
</g>
</g>
<!-- Node7 -->
<g id="Node000007" class="node">
<title>Node7</title>
<g id="a_Node000007"><a xlink:href="MemaMessages_8h.html" target="_top" xlink:title=" ">
<polygon fill="white" stroke="#666666" points="875.5,-195 770.5,-195 770.5,-176 875.5,-176 875.5,-195"/>
<text text-anchor="middle" x="823" y="-183" font-family="Helvetica,sans-Serif" font-size="10.00">MemaMessages.h</text>
</a>
</g>
</g>
<!-- Node1&#45;&gt;Node7 -->
<g id="edge43_Node000001_Node000007" class="edge">
<title>Node1&#45;&gt;Node7</title>
<g id="a_edge43_Node000001_Node000007"><a xlink:title=" ">
<path fill="none" stroke="#63b8ff" d="M594.9,-406.68C606.47,-397.96 624.37,-384.07 639,-371 704.93,-312.1 777.44,-235.6 808.05,-202.7"/>
<polygon fill="#63b8ff" stroke="#63b8ff" points="810.67,-205.03 814.9,-195.32 805.53,-200.27 810.67,-205.03"/>
</a>
</g>
</g>
<!-- Node10 -->
<g id="Node000010" class="node">
<title>Node10</title>
<g id="a_Node000010"><a xlink:href="ProcessorDataAnalyzer_8h.html" target="_top" xlink:title=" ">
<polygon fill="white" stroke="#666666" points="1260,-195 1122,-195 1122,-176 1260,-176 1260,-195"/>
<text text-anchor="middle" x="1191" y="-183" font-family="Helvetica,sans-Serif" font-size="10.00">ProcessorDataAnalyzer.h</text>
</a>
</g>
</g>
<!-- Node1&#45;&gt;Node10 -->
<g id="edge45_Node000001_Node000010" class="edge">
<title>Node1&#45;&gt;Node10</title>
<g id="a_edge45_Node000001_Node000010"><a xlink:title=" ">
<path fill="none" stroke="#63b8ff" d="M605.72,-406.94C698.65,-371.94 1049.93,-239.63 1158.7,-198.67"/>
<polygon fill="#63b8ff" stroke="#63b8ff" points="1160.04,-201.9 1168.16,-195.1 1157.57,-195.35 1160.04,-201.9"/>
</a>
</g>
</g>
<!-- Node20 -->
<g id="Node000020" class="node">
<title>Node20</title>
<g id="a_Node000020"><a xlink:href="TwoDFieldOutputComponent_8h.html" target="_top" xlink:title=" ">
<polygon fill="white" stroke="#666666" points="1498.5,-371 1325.5,-371 1325.5,-341 1498.5,-341 1498.5,-371"/>
<text text-anchor="start" x="1333.5" y="-359" font-family="Helvetica,sans-Serif" font-size="10.00">MemaClientCommon/TwoDField</text>
<text text-anchor="middle" x="1412" y="-348" font-family="Helvetica,sans-Serif" font-size="10.00">OutputComponent.h</text>
</a>
</g>
</g>
<!-- Node1&#45;&gt;Node20 -->
<g id="edge33_Node000001_Node000020" class="edge">
<title>Node1&#45;&gt;Node20</title>
<g id="a_edge33_Node000001_Node000020"><a xlink:title=" ">
<path fill="none" stroke="#63b8ff" d="M677.29,-408.85C835.92,-397.65 1154.52,-375.17 1314.97,-363.85"/>
<polygon fill="#63b8ff" stroke="#63b8ff" points="1315.58,-367.31 1325.31,-363.12 1315.09,-360.33 1315.58,-367.31"/>
</a>
</g>
</g>
<!-- Node22 -->
<g id="Node000022" class="node">
<title>Node22</title>
<g id="a_Node000022"><a xlink:href="WaveformAudioComponent_8h.html" target="_top" xlink:title=" ">
<polygon fill="white" stroke="#666666" points="423.5,-371 250.5,-371 250.5,-341 423.5,-341 423.5,-371"/>
<text text-anchor="start" x="258.5" y="-359" font-family="Helvetica,sans-Serif" font-size="10.00">MemaClientCommon/Waveform</text>
<text text-anchor="middle" x="337" y="-348" font-family="Helvetica,sans-Serif" font-size="10.00">AudioComponent.h</text>
</a>
</g>
</g>
<!-- Node1&#45;&gt;Node22 -->
<g id="edge37_Node000001_Node000022" class="edge">
<title>Node1&#45;&gt;Node22</title>
<g id="a_edge37_Node000001_Node000022"><a xlink:title=" ">
<path fill="none" stroke="#63b8ff" d="M547.23,-406.99C510.36,-398.23 451.94,-384.33 406.03,-373.42"/>
<polygon fill="#63b8ff" stroke="#63b8ff" points="406.68,-369.97 396.14,-371.06 405.06,-376.78 406.68,-369.97"/>
</a>
</g>
</g>
<!-- Node23 -->
<g id="Node000023" class="node">
<title>Node23</title>
<g id="a_Node000023"><a xlink:href="SpectrumAudioComponent_8h.html" target="_top" xlink:title=" ">
<polygon fill="white" stroke="#666666" points="612,-371 442,-371 442,-341 612,-341 612,-371"/>
<text text-anchor="start" x="450" y="-359" font-family="Helvetica,sans-Serif" font-size="10.00">MemaClientCommon/Spectrum</text>
<text text-anchor="middle" x="527" y="-348" font-family="Helvetica,sans-Serif" font-size="10.00">AudioComponent.h</text>
</a>
</g>
</g>
<!-- Node1&#45;&gt;Node23 -->
<g id="edge40_Node000001_Node000023" class="edge">
<title>Node1&#45;&gt;Node23</title>
<g id="a_edge40_Node000001_Node000023"><a xlink:title=" ">
<path fill="none" stroke="#63b8ff" d="M574.74,-406.87C567.63,-399.44 557.07,-388.42 547.69,-378.62"/>
<polygon fill="#63b8ff" stroke="#63b8ff" points="549.95,-375.92 540.51,-371.11 544.9,-380.76 549.95,-375.92"/>
</a>
</g>
</g>
<!-- Node3 -->
<g id="Node000003" class="node">
<title>Node3</title>
<g id="a_Node000003"><a xlink:title=" ">
<polygon fill="#e0e0e0" stroke="#999999" points="646,-19 566,-19 566,0 646,0 646,-19"/>
<text text-anchor="middle" x="606" y="-7" font-family="Helvetica,sans-Serif" font-size="10.00">JuceHeader.h</text>
</a>
</g>
</g>
<!-- Node2&#45;&gt;Node3 -->
<g id="edge2_Node000002_Node000003" class="edge">
<title>Node2&#45;&gt;Node3</title>
<g id="a_edge2_Node000002_Node000003"><a xlink:title=" ">
<path fill="none" stroke="#63b8ff" d="M64.78,-230.64C67.99,-200.21 83.01,-99.36 144,-55 176.74,-31.19 442.82,-17.34 555.68,-12.48"/>
<polygon fill="#63b8ff" stroke="#63b8ff" points="555.95,-15.98 565.79,-12.05 555.65,-8.98 555.95,-15.98"/>
</a>
</g>
</g>
<!-- Node4&#45;&gt;Node3 -->
<g id="edge4_Node000004_Node000003" class="edge">
<title>Node4&#45;&gt;Node3</title>
<g id="a_edge4_Node000004_Node000003"><a xlink:title=" ">
<path fill="none" stroke="#63b8ff" d="M159.59,-340.67C159,-319.14 158,-277.17 158,-241.5 158,-241.5 158,-241.5 158,-124 158,-85.6 176.65,-74.03 210,-55 267.85,-22 462.67,-13.47 555.72,-11.26"/>
<polygon fill="#63b8ff" stroke="#63b8ff" points="555.82,-14.76 565.74,-11.04 555.66,-7.76 555.82,-14.76"/>
</a>
</g>
</g>
<!-- Node5 -->
<g id="Node000005" class="node">
<title>Node5</title>
<g id="a_Node000005"><a xlink:href="AbstractAudioVisualizer_8h.html" target="_top" xlink:title=" ">
<polygon fill="white" stroke="#666666" points="365.5,-305 224.5,-305 224.5,-286 365.5,-286 365.5,-305"/>
<text text-anchor="middle" x="295" y="-293" font-family="Helvetica,sans-Serif" font-size="10.00">AbstractAudioVisualizer.h</text>
</a>
</g>
</g>
<!-- Node4&#45;&gt;Node5 -->
<g id="edge5_Node000004_Node000005" class="edge">
<title>Node4&#45;&gt;Node5</title>
<g id="a_edge5_Node000004_Node000005"><a xlink:title=" ">
<path fill="none" stroke="#63b8ff" d="M192.34,-340.99C214.66,-331.31 244.1,-318.56 265.73,-309.18"/>
<polygon fill="#63b8ff" stroke="#63b8ff" points="267.28,-312.33 275.06,-305.14 264.5,-305.9 267.28,-312.33"/>
</a>
</g>
</g>
<!-- Node5&#45;&gt;Node3 -->
<g id="edge6_Node000005_Node000003" class="edge">
<title>Node5&#45;&gt;Node3</title>
<g id="a_edge6_Node000005_Node000003"><a xlink:title=" ">
<path fill="none" stroke="#63b8ff" d="M286,-285.92C269.03,-268.76 234,-228.28 234,-186.5 234,-186.5 234,-186.5 234,-124 234,-91.53 232.79,-75.46 258,-55 302.61,-18.81 470.42,-11.79 555.65,-10.6"/>
<polygon fill="#63b8ff" stroke="#63b8ff" points="555.91,-14.1 565.87,-10.48 555.83,-7.1 555.91,-14.1"/>
</a>
</g>
</g>
<!-- Node5&#45;&gt;Node6 -->
<g id="edge7_Node000005_Node000006" class="edge">
<title>Node5&#45;&gt;Node6</title>
<g id="a_edge7_Node000005_Node000006"><a xlink:title=" ">
<path fill="none" stroke="#63b8ff" d="M350.43,-285.98C411.45,-276.61 509.48,-261.55 574.31,-251.59"/>
<polygon fill="#63b8ff" stroke="#63b8ff" points="575.07,-255.02 584.42,-250.04 574.01,-248.1 575.07,-255.02"/>
</a>
</g>
</g>
<!-- Node6&#45;&gt;Node3 -->
<g id="edge8_Node000006_Node000003" class="edge">
<title>Node6&#45;&gt;Node3</title>
<g id="a_edge8_Node000006_Node000003"><a xlink:title=" ">
<path fill="none" stroke="#63b8ff" d="M576.65,-230.95C555.05,-224.66 533.07,-213.79 520,-195 498.43,-163.99 506.82,-145.4 520,-110 533.23,-74.46 565.5,-43.15 586.53,-25.54"/>
<polygon fill="#63b8ff" stroke="#63b8ff" points="588.95,-28.09 594.5,-19.07 584.53,-22.65 588.95,-28.09"/>
</a>
</g>
</g>
<!-- Node6&#45;&gt;Node7 -->
<g id="edge9_Node000006_Node000007" class="edge">
<title>Node6&#45;&gt;Node7</title>
<g id="a_edge9_Node000006_Node000007"><a xlink:title=" ">
<path fill="none" stroke="#63b8ff" d="M669.4,-230.98C700.39,-222.01 749.38,-207.82 783.67,-197.89"/>
<polygon fill="#63b8ff" stroke="#63b8ff" points="784.74,-201.23 793.37,-195.08 782.79,-194.5 784.74,-201.23"/>
</a>
</g>
</g>
<!-- Node9 -->
<g id="Node000009" class="node">
<title>Node9</title>
<g id="a_Node000009"><a xlink:href="MemaPluginParameterInfo_8h.html" target="_top" xlink:title=" ">
<polygon fill="white" stroke="#666666" points="683.5,-134.5 528.5,-134.5 528.5,-115.5 683.5,-115.5 683.5,-134.5"/>
<text text-anchor="middle" x="606" y="-122.5" font-family="Helvetica,sans-Serif" font-size="10.00">MemaPluginParameterInfo.h</text>
</a>
</g>
</g>
<!-- Node6&#45;&gt;Node9 -->
<g id="edge24_Node000006_Node000009" class="edge">
<title>Node6&#45;&gt;Node9</title>
<g id="a_edge24_Node000006_Node000009"><a xlink:title=" ">
<path fill="none" stroke="#63b8ff" d="M653.8,-230.88C670.9,-219.03 696.47,-196.83 685,-176 675.58,-158.88 657.55,-146.81 641.09,-138.82"/>
<polygon fill="#63b8ff" stroke="#63b8ff" points="642.22,-135.49 631.66,-134.58 639.35,-141.87 642.22,-135.49"/>
</a>
</g>
</g>
<!-- Node6&#45;&gt;Node10 -->
<g id="edge14_Node000006_Node000010" class="edge">
<title>Node6&#45;&gt;Node10</title>
<g id="a_edge14_Node000006_Node000010"><a xlink:title=" ">
<path fill="none" stroke="#63b8ff" d="M728.53,-230.98C834.41,-220.8 1010.05,-203.91 1111.67,-194.13"/>
<polygon fill="#63b8ff" stroke="#63b8ff" points="1112.26,-197.59 1121.88,-193.15 1111.59,-190.62 1112.26,-197.59"/>
</a>
</g>
</g>
<!-- Node15 -->
<g id="Node000015" class="node">
<title>Node15</title>
<g id="a_Node000015"><a xlink:href="MemaProcessorEditor_8h.html" target="_top" xlink:title=" ">
<polygon fill="white" stroke="#666666" points="836,-140 702,-140 702,-110 836,-110 836,-140"/>
<text text-anchor="start" x="710" y="-128" font-family="Helvetica,sans-Serif" font-size="10.00">../MemaProcessorEditor</text>
<text text-anchor="middle" x="769" y="-117" font-family="Helvetica,sans-Serif" font-size="10.00">/MemaProcessorEditor.h</text>
</a>
</g>
</g>
<!-- Node6&#45;&gt;Node15 -->
<g id="edge25_Node000006_Node000015" class="edge">
<title>Node6&#45;&gt;Node15</title>
<g id="a_edge25_Node000006_Node000015"><a xlink:title=" ">
<path fill="none" stroke="#63b8ff" d="M652.82,-230.81C665.27,-222.2 684.48,-208.38 700,-195 717.43,-179.97 735.79,-161.46 749.18,-147.4"/>
<polygon fill="#63b8ff" stroke="#63b8ff" points="751.76,-149.77 756.08,-140.09 746.67,-144.96 751.76,-149.77"/>
</a>
</g>
</g>
<!-- Node17 -->
<g id="Node000017" class="node">
<title>Node17</title>
<g id="a_Node000017"><a xlink:href="MemaAppConfiguration_8h.html" target="_top" xlink:title=" ">
<polygon fill="white" stroke="#666666" points="472.5,-195 323.5,-195 323.5,-176 472.5,-176 472.5,-195"/>
<text text-anchor="middle" x="398" y="-183" font-family="Helvetica,sans-Serif" font-size="10.00">../MemaAppConfiguration.h</text>
</a>
</g>
</g>
<!-- Node6&#45;&gt;Node17 -->
<g id="edge29_Node000006_Node000017" class="edge">
<title>Node6&#45;&gt;Node17</title>
<g id="a_edge29_Node000006_Node000017"><a xlink:title=" ">
<path fill="none" stroke="#63b8ff" d="M601.12,-230.98C559.26,-221.82 492.57,-207.21 447.12,-197.26"/>
<polygon fill="#63b8ff" stroke="#63b8ff" points="447.7,-193.8 437.19,-195.08 446.21,-200.64 447.7,-193.8"/>
</a>
</g>
</g>
<!-- Node19 -->
<g id="Node000019" class="node">
<title>Node19</title>
<g id="a_Node000019"><a xlink:title=" ">
<polygon fill="#e0e0e0" stroke="#999999" points="675.5,-195 528.5,-195 528.5,-176 675.5,-176 675.5,-195"/>
<text text-anchor="middle" x="602" y="-183" font-family="Helvetica,sans-Serif" font-size="10.00">ServiceTopologyManager.h</text>
</a>
</g>
</g>
<!-- Node6&#45;&gt;Node19 -->
<g id="edge32_Node000006_Node000019" class="edge">
<title>Node6&#45;&gt;Node19</title>
<g id="a_edge32_Node000006_Node000019"><a xlink:title=" ">
<path fill="none" stroke="#63b8ff" d="M633.73,-230.75C628.41,-223.34 620.64,-212.5 614.12,-203.41"/>
<polygon fill="#63b8ff" stroke="#63b8ff" points="616.83,-201.18 608.16,-195.09 611.14,-205.26 616.83,-201.18"/>
</a>
</g>
</g>
<!-- Node7&#45;&gt;Node3 -->
<g id="edge10_Node000007_Node000003" class="edge">
<title>Node7&#45;&gt;Node3</title>
<g id="a_edge10_Node000007_Node000003"><a xlink:title=" ">
<path fill="none" stroke="#63b8ff" d="M828.84,-175.76C834.25,-167.1 841.9,-153.26 845,-140 853.62,-103.12 864.69,-82.83 839,-55 814.91,-28.9 717.47,-17.77 656.48,-13.28"/>
<polygon fill="#63b8ff" stroke="#63b8ff" points="656.51,-9.78 646.29,-12.57 656.02,-16.76 656.51,-9.78"/>
</a>
</g>
</g>
<!-- Node8 -->
<g id="Node000008" class="node">
<title>Node8</title>
<g id="a_Node000008"><a xlink:title=" ">
<polygon fill="#e0e0e0" stroke="#999999" points="1017.5,-134.5 892.5,-134.5 892.5,-115.5 1017.5,-115.5 1017.5,-134.5"/>
<text text-anchor="middle" x="955" y="-122.5" font-family="Helvetica,sans-Serif" font-size="10.00">CustomLookAndFeel.h</text>
</a>
</g>
</g>
<!-- Node7&#45;&gt;Node8 -->
<g id="edge11_Node000007_Node000008" class="edge">
<title>Node7&#45;&gt;Node8</title>
<g id="a_edge11_Node000007_Node000008"><a xlink:title=" ">
<path fill="none" stroke="#63b8ff" d="M842.19,-175.99C864.39,-166.16 901.12,-149.88 926.62,-138.58"/>
<polygon fill="#63b8ff" stroke="#63b8ff" points="928.06,-141.77 935.78,-134.52 925.22,-135.37 928.06,-141.77"/>
</a>
</g>
</g>
<!-- Node7&#45;&gt;Node9 -->
<g id="edge12_Node000007_Node000009" class="edge">
<title>Node7&#45;&gt;Node9</title>
<g id="a_edge12_Node000007_Node000009"><a xlink:title=" ">
<path fill="none" stroke="#63b8ff" d="M791.45,-175.99C753.44,-165.75 689.48,-148.5 647.5,-137.19"/>
<polygon fill="#63b8ff" stroke="#63b8ff" points="648.16,-133.74 637.59,-134.52 646.34,-140.5 648.16,-133.74"/>
</a>
</g>
</g>
<!-- Node9&#45;&gt;Node3 -->
<g id="edge13_Node000009_Node000003" class="edge">
<title>Node9&#45;&gt;Node3</title>
<g id="a_edge13_Node000009_Node000003"><a xlink:title=" ">
<path fill="none" stroke="#63b8ff" d="M606,-115.47C606,-97.23 606,-54.07 606,-29.14"/>
<polygon fill="#63b8ff" stroke="#63b8ff" points="609.5,-29.13 606,-19.13 602.5,-29.13 609.5,-29.13"/>
</a>
</g>
</g>
<!-- Node10&#45;&gt;Node3 -->
<g id="edge15_Node000010_Node000003" class="edge">
<title>Node10&#45;&gt;Node3</title>
<g id="a_edge15_Node000010_Node000003"><a xlink:title=" ">
<path fill="none" stroke="#63b8ff" d="M1260.05,-184.67C1341.72,-183.23 1470.46,-175.23 1501,-140 1509.73,-129.92 1509.27,-120.46 1501,-110 1448.15,-43.22 836.87,-18.04 656.07,-12.02"/>
<polygon fill="#63b8ff" stroke="#63b8ff" points="656.15,-8.52 646.04,-11.69 655.92,-15.52 656.15,-8.52"/>
</a>
</g>
</g>
<!-- Node11 -->
<g id="Node000011" class="node">
<title>Node11</title>
<g id="a_Node000011"><a xlink:href="ProcessorAudioSignalData_8h.html" target="_top" xlink:title=" ">
<polygon fill="white" stroke="#666666" points="1190,-134.5 1036,-134.5 1036,-115.5 1190,-115.5 1190,-134.5"/>
<text text-anchor="middle" x="1113" y="-122.5" font-family="Helvetica,sans-Serif" font-size="10.00">ProcessorAudioSignalData.h</text>
</a>
</g>
</g>
<!-- Node10&#45;&gt;Node11 -->
<g id="edge16_Node000010_Node000011" class="edge">
<title>Node10&#45;&gt;Node11</title>
<g id="a_edge16_Node000010_Node000011"><a xlink:title=" ">
<path fill="none" stroke="#63b8ff" d="M1179.49,-175.87C1167.16,-166.62 1147.38,-151.78 1132.59,-140.69"/>
<polygon fill="#63b8ff" stroke="#63b8ff" points="1134.66,-137.87 1124.56,-134.67 1130.46,-143.47 1134.66,-137.87"/>
</a>
</g>
</g>
<!-- Node13 -->
<g id="Node000013" class="node">
<title>Node13</title>
<g id="a_Node000013"><a xlink:href="ProcessorLevelData_8h.html" target="_top" xlink:title=" ">
<polygon fill="white" stroke="#666666" points="1330,-134.5 1208,-134.5 1208,-115.5 1330,-115.5 1330,-134.5"/>
<text text-anchor="middle" x="1269" y="-122.5" font-family="Helvetica,sans-Serif" font-size="10.00">ProcessorLevelData.h</text>
</a>
</g>
</g>
<!-- Node10&#45;&gt;Node13 -->
<g id="edge20_Node000010_Node000013" class="edge">
<title>Node10&#45;&gt;Node13</title>
<g id="a_edge20_Node000010_Node000013"><a xlink:title=" ">
<path fill="none" stroke="#63b8ff" d="M1202.51,-175.87C1214.84,-166.62 1234.62,-151.78 1249.41,-140.69"/>
<polygon fill="#63b8ff" stroke="#63b8ff" points="1251.54,-143.47 1257.44,-134.67 1247.34,-137.87 1251.54,-143.47"/>
</a>
</g>
</g>
<!-- Node14 -->
<g id="Node000014" class="node">
<title>Node14</title>
<g id="a_Node000014"><a xlink:href="ProcessorSpectrumData_8h.html" target="_top" xlink:title=" ">
<polygon fill="white" stroke="#666666" points="1491.5,-134.5 1348.5,-134.5 1348.5,-115.5 1491.5,-115.5 1491.5,-134.5"/>
<text text-anchor="middle" x="1420" y="-122.5" font-family="Helvetica,sans-Serif" font-size="10.00">ProcessorSpectrumData.h</text>
</a>
</g>
</g>
<!-- Node10&#45;&gt;Node14 -->
<g id="edge22_Node000010_Node000014" class="edge">
<title>Node10&#45;&gt;Node14</title>
<g id="a_edge22_Node000010_Node000014"><a xlink:title=" ">
<path fill="none" stroke="#63b8ff" d="M1224.3,-175.99C1264.58,-165.7 1332.48,-148.36 1376.77,-137.04"/>
<polygon fill="#63b8ff" stroke="#63b8ff" points="1377.84,-140.38 1386.66,-134.52 1376.11,-133.6 1377.84,-140.38"/>
</a>
</g>
</g>
<!-- Node11&#45;&gt;Node3 -->
<g id="edge17_Node000011_Node000003" class="edge">
<title>Node11&#45;&gt;Node3</title>
<g id="a_edge17_Node000011_Node000003"><a xlink:title=" ">
<path fill="none" stroke="#63b8ff" d="M1087.54,-115.4C1044.71,-101.18 955.32,-72.61 878,-55 801.51,-37.58 711.45,-24.23 656.56,-16.87"/>
<polygon fill="#63b8ff" stroke="#63b8ff" points="656.77,-13.37 646.4,-15.52 655.85,-20.31 656.77,-13.37"/>
</a>
</g>
</g>
<!-- Node12 -->
<g id="Node000012" class="node">
<title>Node12</title>
<g id="a_Node000012"><a xlink:href="AbstractProcessorData_8h.html" target="_top" xlink:title=" ">
<polygon fill="white" stroke="#666666" points="1258.5,-74 1121.5,-74 1121.5,-55 1258.5,-55 1258.5,-74"/>
<text text-anchor="middle" x="1190" y="-62" font-family="Helvetica,sans-Serif" font-size="10.00">AbstractProcessorData.h</text>
</a>
</g>
</g>
<!-- Node11&#45;&gt;Node12 -->
<g id="edge18_Node000011_Node000012" class="edge">
<title>Node11&#45;&gt;Node12</title>
<g id="a_edge18_Node000011_Node000012"><a xlink:title=" ">
<path fill="none" stroke="#63b8ff" d="M1124.36,-115.37C1136.42,-106.21 1155.7,-91.56 1170.25,-80.51"/>
<polygon fill="#63b8ff" stroke="#63b8ff" points="1172.75,-83 1178.59,-74.17 1168.51,-77.43 1172.75,-83"/>
</a>
</g>
</g>
<!-- Node12&#45;&gt;Node3 -->
<g id="edge19_Node000012_Node000003" class="edge">
<title>Node12&#45;&gt;Node3</title>
<g id="a_edge19_Node000012_Node000003"><a xlink:title=" ">
<path fill="none" stroke="#63b8ff" d="M1121.29,-57.26C1002.38,-46.47 760.94,-24.56 656.27,-15.06"/>
<polygon fill="#63b8ff" stroke="#63b8ff" points="656.56,-11.57 646.28,-14.16 655.92,-18.55 656.56,-11.57"/>
</a>
</g>
</g>
<!-- Node13&#45;&gt;Node12 -->
<g id="edge21_Node000013_Node000012" class="edge">
<title>Node13&#45;&gt;Node12</title>
<g id="a_edge21_Node000013_Node000012"><a xlink:title=" ">
<path fill="none" stroke="#63b8ff" d="M1257.34,-115.37C1244.86,-106.12 1224.82,-91.28 1209.84,-80.19"/>
<polygon fill="#63b8ff" stroke="#63b8ff" points="1211.82,-77.31 1201.7,-74.17 1207.66,-82.93 1211.82,-77.31"/>
</a>
</g>
</g>
<!-- Node14&#45;&gt;Node12 -->
<g id="edge23_Node000014_Node000012" class="edge">
<title>Node14&#45;&gt;Node12</title>
<g id="a_edge23_Node000014_Node000012"><a xlink:title=" ">
<path fill="none" stroke="#63b8ff" d="M1386.56,-115.49C1346.1,-105.2 1277.9,-87.86 1233.42,-76.54"/>
<polygon fill="#63b8ff" stroke="#63b8ff" points="1234.04,-73.09 1223.48,-74.02 1232.31,-79.87 1234.04,-73.09"/>
</a>
</g>
</g>
<!-- Node15&#45;&gt;Node3 -->
<g id="edge26_Node000015_Node000003" class="edge">
<title>Node15&#45;&gt;Node3</title>
<g id="a_edge26_Node000015_Node000003"><a xlink:title=" ">
<path fill="none" stroke="#63b8ff" d="M741.24,-109.94C723.51,-100.55 700.3,-87.48 681,-74 659.95,-59.3 637.74,-39.94 623,-26.48"/>
<polygon fill="#63b8ff" stroke="#63b8ff" points="624.97,-23.54 615.25,-19.32 620.21,-28.68 624.97,-23.54"/>
</a>
</g>
</g>
<!-- Node16 -->
<g id="Node000016" class="node">
<title>Node16</title>
<g id="a_Node000016"><a xlink:href="AudioSelectComponent_8h.html" target="_top" xlink:title=" ">
<polygon fill="white" stroke="#666666" points="830,-74 690,-74 690,-55 830,-55 830,-74"/>
<text text-anchor="middle" x="760" y="-62" font-family="Helvetica,sans-Serif" font-size="10.00">AudioSelectComponent.h</text>
</a>
</g>
</g>
<!-- Node15&#45;&gt;Node16 -->
<g id="edge27_Node000015_Node000016" class="edge">
<title>Node15&#45;&gt;Node16</title>
<g id="a_edge27_Node000015_Node000016"><a xlink:title=" ">
<path fill="none" stroke="#63b8ff" d="M766.82,-109.84C765.63,-102.13 764.15,-92.49 762.87,-84.17"/>
<polygon fill="#63b8ff" stroke="#63b8ff" points="766.33,-83.62 761.35,-74.27 759.41,-84.68 766.33,-83.62"/>
</a>
</g>
</g>
<!-- Node16&#45;&gt;Node3 -->
<g id="edge28_Node000016_Node000003" class="edge">
<title>Node16&#45;&gt;Node3</title>
<g id="a_edge28_Node000016_Node000003"><a xlink:title=" ">
<path fill="none" stroke="#63b8ff" d="M735.26,-54.98C709.63,-46.16 669.37,-32.31 640.59,-22.41"/>
<polygon fill="#63b8ff" stroke="#63b8ff" points="641.53,-19.03 630.94,-19.08 639.25,-25.65 641.53,-19.03"/>
</a>
</g>
</g>
<!-- Node17&#45;&gt;Node3 -->
<g id="edge30_Node000017_Node000003" class="edge">
<title>Node17&#45;&gt;Node3</title>
<g id="a_edge30_Node000017_Node000003"><a xlink:title=" ">
<path fill="none" stroke="#63b8ff" d="M373.53,-175.86C357.73,-168.85 338.41,-157.27 329,-140 322.62,-128.29 321.33,-120.91 329,-110 380.48,-36.8 491.16,-17.19 555.95,-12.1"/>
<polygon fill="#63b8ff" stroke="#63b8ff" points="556.21,-15.59 565.94,-11.4 555.72,-8.61 556.21,-15.59"/>
</a>
</g>
</g>
<!-- Node18 -->
<g id="Node000018" class="node">
<title>Node18</title>
<g id="a_Node000018"><a xlink:title=" ">
<polygon fill="#e0e0e0" stroke="#999999" points="472,-134.5 338,-134.5 338,-115.5 472,-115.5 472,-134.5"/>
<text text-anchor="middle" x="405" y="-122.5" font-family="Helvetica,sans-Serif" font-size="10.00">AppConfigurationBase.h</text>
</a>
</g>
</g>
<!-- Node17&#45;&gt;Node18 -->
<g id="edge31_Node000017_Node000018" class="edge">
<title>Node17&#45;&gt;Node18</title>
<g id="a_edge31_Node000017_Node000018"><a xlink:title=" ">
<path fill="none" stroke="#63b8ff" d="M399.03,-175.87C400,-167.75 401.49,-155.31 402.74,-144.89"/>
<polygon fill="#63b8ff" stroke="#63b8ff" points="406.25,-145.01 403.96,-134.67 399.3,-144.18 406.25,-145.01"/>
</a>
</g>
</g>
<!-- Node20&#45;&gt;Node3 -->
<g id="edge34_Node000020_Node000003" class="edge">
<title>Node20&#45;&gt;Node3</title>
<g id="a_edge34_Node000020_Node000003"><a xlink:title=" ">
<path fill="none" stroke="#63b8ff" d="M1457.79,-340.91C1500.61,-324.56 1558,-293.03 1558,-241.5 1558,-241.5 1558,-241.5 1558,-124 1558,-32.33 852.95,-14.38 656.36,-11.16"/>
<polygon fill="#63b8ff" stroke="#63b8ff" points="656.35,-7.66 646.3,-11 656.24,-14.66 656.35,-7.66"/>
</a>
</g>
</g>
<!-- Node20&#45;&gt;Node5 -->
<g id="edge35_Node000020_Node000005" class="edge">
<title>Node20&#45;&gt;Node5</title>
<g id="a_edge35_Node000020_Node000005"><a xlink:title=" ">
<path fill="none" stroke="#63b8ff" d="M1325.28,-350.46C1114.95,-339.44 580.03,-311.43 375.87,-300.74"/>
<polygon fill="#63b8ff" stroke="#63b8ff" points="375.99,-297.24 365.82,-300.21 375.62,-304.23 375.99,-297.24"/>
</a>
</g>
</g>
<!-- Node21 -->
<g id="Node000021" class="node">
<title>Node21</title>
<g id="a_Node000021"><a xlink:title=" ">
<polygon fill="#e0e0e0" stroke="#999999" points="1685.5,-305 1586.5,-305 1586.5,-286 1685.5,-286 1685.5,-305"/>
<text text-anchor="middle" x="1636" y="-293" font-family="Helvetica,sans-Serif" font-size="10.00">TwoDFieldBase.h</text>
</a>
</g>
</g>
<!-- Node20&#45;&gt;Node21 -->
<g id="edge36_Node000020_Node000021" class="edge">
<title>Node20&#45;&gt;Node21</title>
<g id="a_edge36_Node000020_Node000021"><a xlink:title=" ">
<path fill="none" stroke="#63b8ff" d="M1465.65,-340.99C1504.81,-330.76 1557.18,-317.09 1593.46,-307.61"/>
<polygon fill="#63b8ff" stroke="#63b8ff" points="1594.46,-310.97 1603.25,-305.05 1592.69,-304.19 1594.46,-310.97"/>
</a>
</g>
</g>
<!-- Node22&#45;&gt;Node3 -->
<g id="edge38_Node000022_Node000003" class="edge">
<title>Node22&#45;&gt;Node3</title>
<g id="a_edge38_Node000022_Node000003"><a xlink:title=" ">
<path fill="none" stroke="#63b8ff" d="M273.74,-340.94C252.57,-333.41 230.45,-322.05 215,-305 195.22,-283.17 196,-270.96 196,-241.5 196,-241.5 196,-241.5 196,-124 196,-88.1 207.82,-74.44 238,-55 289.46,-21.86 467.62,-13.4 555.79,-11.24"/>
<polygon fill="#63b8ff" stroke="#63b8ff" points="555.9,-14.74 565.82,-11.01 555.74,-7.74 555.9,-14.74"/>
</a>
</g>
</g>
<!-- Node22&#45;&gt;Node5 -->
<g id="edge39_Node000022_Node000005" class="edge">
<title>Node22&#45;&gt;Node5</title>
<g id="a_edge39_Node000022_Node000005"><a xlink:title=" ">
<path fill="none" stroke="#63b8ff" d="M326.83,-340.84C320.92,-332.61 313.44,-322.18 307.21,-313.51"/>
<polygon fill="#63b8ff" stroke="#63b8ff" points="309.97,-311.35 301.29,-305.27 304.28,-315.43 309.97,-311.35"/>
</a>
</g>
</g>
<!-- Node23&#45;&gt;Node3 -->
<g id="edge41_Node000023_Node000003" class="edge">
<title>Node23&#45;&gt;Node3</title>
<g id="a_edge41_Node000023_Node000003"><a xlink:title=" ">
<path fill="none" stroke="#63b8ff" d="M492.24,-340.9C442.28,-318.48 352.11,-269.5 315,-195 307.83,-180.61 302.33,-154.16 320,-110 331.73,-80.68 337.81,-71.07 365,-55 424.11,-20.06 504.47,-11.49 555.79,-9.92"/>
<polygon fill="#63b8ff" stroke="#63b8ff" points="556.05,-13.42 565.97,-9.7 555.9,-6.42 556.05,-13.42"/>
</a>
</g>
</g>
<!-- Node23&#45;&gt;Node5 -->
<g id="edge42_Node000023_Node000005" class="edge">
<title>Node23&#45;&gt;Node5</title>
<g id="a_edge42_Node000023_Node000005"><a xlink:title=" ">
<path fill="none" stroke="#63b8ff" d="M471.43,-340.99C430.87,-330.76 376.64,-317.09 339.06,-307.61"/>
<polygon fill="#63b8ff" stroke="#63b8ff" points="339.47,-304.1 328.92,-305.05 337.76,-310.89 339.47,-304.1"/>
</a>
</g>
</g>
</g>
</svg>

<g id="navigator" transform="translate(0 0)" fill="#404254">
  <rect fill="#f2f5e9" fill-opacity="0.5" stroke="#606060" stroke-width=".5" x="0" y="0" width="60" height="60"/>
  <use id="zoomplus" xlink:href="#zoomPlus" x="17" y="9" onmousedown="handleZoom(evt,'in')"/>
  <use id="zoomminus" xlink:href="#zoomMin" x="42" y="9" onmousedown="handleZoom(evt,'out')"/>
  <use id="reset" xlink:href="#resetDef" x="30" y="36" onmousedown="handleReset()"/>
   <use id="arrowup" xlink:href="#arrowUp" x="0" y="0" onmousedown="handlePan(0,-1)"/>
  <use id="arrowright" xlink:href="#arrowRight" x="0" y="0" onmousedown="handlePan(1,0)"/>
  <use id="arrowdown" xlink:href="#arrowDown" x="0" y="0" onmousedown="handlePan(0,1)"/>
  <use id="arrowleft" xlink:href="#arrowLeft" x="0" y="0" onmousedown="handlePan(-1,0)"/>
</g>
<svg viewBox="0 0 15 15" width="100%" height="30px" preserveAspectRatio="xMaxYMin meet">
 <g id="arrow_out" transform="scale(0.3 0.3)">
  <a xlink:href="MemaMoComponent_8cpp__incl_org.svg" target="_base">
   <rect id="button" ry="5" rx="5" y="6" x="6" height="38" width="38"
        fill="#f2f5e9" fill-opacity="0.5" stroke="#606060" stroke-width="1.0"/>
   <path id="arrow"
     d="M 11.500037,31.436501 C 11.940474,20.09759 22.043105,11.32322 32.158766,21.979434 L 37.068811,17.246167 C 37.068811,17.246167 37.088388,32 37.088388,32 L 22.160133,31.978069 C 22.160133,31.978069 26.997745,27.140456 26.997745,27.140456 C 18.528582,18.264221 13.291696,25.230495 11.500037,31.436501 z"
     style="fill:#404040;"/>
  </a>
 </g>
</svg>

<style type='text/css'>
<![CDATA[
[data-mouse-over-selected='false'] { opacity: 0.7; }
[data-mouse-over-selected='true']  { opacity: 1.0; }
]]>
</style>
<script type="application/ecmascript"><![CDATA[
document.addEventListener('DOMContentLoaded', (event) => {
  highlightEdges();
  highlightAdjacentNodes();
});
]]></script>
</svg>
