<?xml version="1.0" encoding="UTF-8" standalone="no"?>
<!DOCTYPE svg PUBLIC "-//W3C//DTD SVG 1.1//EN"
 "http://www.w3.org/Graphics/SVG/1.1/DTD/svg11.dtd">
<!-- Generated by graphviz version 2.43.0 (0)
 -->
<!-- Title: Source/MemaClientCommon/PluginControlComponent.h Pages: 1 -->
<svg width="364pt" height="159pt"
 viewBox="0.00 0.00 364.25 159.00" xmlns="http://www.w3.org/2000/svg" xmlns:xlink="http://www.w3.org/1999/xlink">
<g id="graph0" class="graph" transform="scale(1 1) rotate(0) translate(4 155)">
<title>Source/MemaClientCommon/PluginControlComponent.h</title>
<!-- Node1 -->
<g id="Node000001" class="node">
<title>Node1</title>
<g id="a_Node000001"><a xlink:title=" ">
<polygon fill="#999999" stroke="#666666" points="175.25,-151 19.25,-151 19.25,-121 175.25,-121 175.25,-151"/>
<text text-anchor="start" x="27.25" y="-139" font-family="Helvetica,sans-Serif" font-size="10.00">Source/MemaClientCommon</text>
<text text-anchor="middle" x="97.25" y="-128" font-family="Helvetica,sans-Serif" font-size="10.00">/PluginControlComponent.h</text>
</a>
</g>
</g>
<!-- Node2 -->
<g id="Node000002" class="node">
<title>Node2</title>
<g id="a_Node000002"><a xlink:title=" ">
<polygon fill="#e0e0e0" stroke="#999999" points="137.25,-19 57.25,-19 57.25,0 137.25,0 137.25,-19"/>
<text text-anchor="middle" x="97.25" y="-7" font-family="Helvetica,sans-Serif" font-size="10.00">JuceHeader.h</text>
</a>
</g>
</g>
<!-- Node1&#45;&gt;Node2 -->
<g id="edge1_Node000001_Node000002" class="edge">
<title>Node1&#45;&gt;Node2</title>
<g id="a_edge1_Node000001_Node000002"><a xlink:title=" ">
<path fill="none" stroke="#63b8ff" d="M50.13,-120.89C32.89,-113.2 15.19,-101.72 5.25,-85 -1.57,-73.54 -1.84,-66.3 5.25,-55 14.94,-39.54 31.69,-29.33 48.26,-22.63"/>
<polygon fill="#63b8ff" stroke="#63b8ff" points="49.76,-25.81 57.94,-19.08 47.35,-19.24 49.76,-25.81"/>
</a>
</g>
</g>
<!-- Node3 -->
<g id="Node000003" class="node">
<title>Node3</title>
<g id="a_Node000003"><a xlink:href="MemaClientControlComponentBase_8h.html" target="_top" xlink:title=" ">
<polygon fill="white" stroke="#666666" points="180.75,-85 13.75,-85 13.75,-55 180.75,-55 180.75,-85"/>
<text text-anchor="start" x="21.75" y="-73" font-family="Helvetica,sans-Serif" font-size="10.00">MemaClientControlComponent</text>
<text text-anchor="middle" x="97.25" y="-62" font-family="Helvetica,sans-Serif" font-size="10.00">Base.h</text>
</a>
</g>
</g>
<!-- Node1&#45;&gt;Node3 -->
<g id="edge2_Node000001_Node000003" class="edge">
<title>Node1&#45;&gt;Node3</title>
<g id="a_edge2_Node000001_Node000003"><a xlink:title=" ">
<path fill="none" stroke="#63b8ff" d="M97.25,-120.8C97.25,-113.34 97.25,-103.99 97.25,-95.41"/>
<polygon fill="#63b8ff" stroke="#63b8ff" points="100.75,-95.16 97.25,-85.16 93.75,-95.16 100.75,-95.16"/>
</a>
</g>
</g>
<!-- Node4 -->
<g id="Node000004" class="node">
<title>Node4</title>
<g id="a_Node000004"><a xlink:href="MemaPluginParameterInfo_8h.html" target="_top" xlink:title=" ">
<polygon fill="white" stroke="#666666" points="356.25,-85 198.25,-85 198.25,-55 356.25,-55 356.25,-85"/>
<text text-anchor="start" x="206.25" y="-73" font-family="Helvetica,sans-Serif" font-size="10.00">MemaProcessor/MemaPlugin</text>
<text text-anchor="middle" x="277.25" y="-62" font-family="Helvetica,sans-Serif" font-size="10.00">ParameterInfo.h</text>
</a>
</g>
</g>
<!-- Node1&#45;&gt;Node4 -->
<g id="edge4_Node000001_Node000004" class="edge">
<title>Node1&#45;&gt;Node4</title>
<g id="a_edge4_Node000001_Node000004"><a xlink:title=" ">
<path fill="none" stroke="#63b8ff" d="M136.75,-120.95C163.71,-111.37 199.62,-98.6 228.38,-88.37"/>
<polygon fill="#63b8ff" stroke="#63b8ff" points="229.59,-91.66 237.84,-85.01 227.24,-85.06 229.59,-91.66"/>
</a>
</g>
</g>
<!-- Node3&#45;&gt;Node2 -->
<g id="edge3_Node000003_Node000002" class="edge">
<title>Node3&#45;&gt;Node2</title>
<g id="a_edge3_Node000003_Node000002"><a xlink:title=" ">
<path fill="none" stroke="#63b8ff" d="M97.25,-54.84C97.25,-47.21 97.25,-37.7 97.25,-29.45"/>
<polygon fill="#63b8ff" stroke="#63b8ff" points="100.75,-29.27 97.25,-19.27 93.75,-29.27 100.75,-29.27"/>
</a>
</g>
</g>
<!-- Node4&#45;&gt;Node2 -->
<g id="edge5_Node000004_Node000002" class="edge">
<title>Node4&#45;&gt;Node2</title>
<g id="a_edge5_Node000004_Node000002"><a xlink:title=" ">
<path fill="none" stroke="#63b8ff" d="M234.13,-54.99C203.34,-44.98 162.38,-31.67 133.31,-22.22"/>
<polygon fill="#63b8ff" stroke="#63b8ff" points="134.16,-18.82 123.56,-19.05 131.99,-25.47 134.16,-18.82"/>
</a>
</g>
</g>
</g>
</svg>
