<?xml version="1.0" encoding="UTF-8" standalone="no"?>
<!DOCTYPE svg PUBLIC "-//W3C//DTD SVG 1.1//EN"
 "http://www.w3.org/Graphics/SVG/1.1/DTD/svg11.dtd">
<!-- Generated by graphviz version 2.43.0 (0)
 -->
<!-- Title: Source/MemaClientCommon/PluginControlComponent.cpp Pages: 1 -->
<svg width="878pt" height="280pt"
 viewBox="0.00 0.00 877.56 280.00" xmlns="http://www.w3.org/2000/svg" xmlns:xlink="http://www.w3.org/1999/xlink">
<g id="graph0" class="graph" transform="scale(1 1) rotate(0) translate(4 276)">
<title>Source/MemaClientCommon/PluginControlComponent.cpp</title>
<!-- Node1 -->
<g id="Node000001" class="node">
<title>Node1</title>
<g id="a_Node000001"><a xlink:title=" ">
<polygon fill="#999999" stroke="#666666" points="344.56,-272 183.56,-272 183.56,-242 344.56,-242 344.56,-272"/>
<text text-anchor="start" x="191.56" y="-260" font-family="Helvetica,sans-Serif" font-size="10.00">Source/MemaClientCommon</text>
<text text-anchor="middle" x="264.06" y="-249" font-family="Helvetica,sans-Serif" font-size="10.00">/PluginControlComponent.cpp</text>
</a>
</g>
</g>
<!-- Node2 -->
<g id="Node000002" class="node">
<title>Node2</title>
<g id="a_Node000002"><a xlink:href="MemaClientCommon_2PluginControlComponent_8h.html" target="_top" xlink:title=" ">
<polygon fill="white" stroke="#666666" points="173.56,-140 26.56,-140 26.56,-121 173.56,-121 173.56,-140"/>
<text text-anchor="middle" x="100.06" y="-128" font-family="Helvetica,sans-Serif" font-size="10.00">PluginControlComponent.h</text>
</a>
</g>
</g>
<!-- Node1&#45;&gt;Node2 -->
<g id="edge1_Node000001_Node000002" class="edge">
<title>Node1&#45;&gt;Node2</title>
<g id="a_edge1_Node000001_Node000002"><a xlink:title=" ">
<path fill="none" stroke="#63b8ff" d="M186.38,-241.97C163.81,-234.55 140.77,-223.24 124.06,-206 109.47,-190.94 103.75,-166.95 101.51,-150.28"/>
<polygon fill="#63b8ff" stroke="#63b8ff" points="104.96,-149.69 100.44,-140.11 98,-150.41 104.96,-149.69"/>
</a>
</g>
</g>
<!-- Node6 -->
<g id="Node000006" class="node">
<title>Node6</title>
<g id="a_Node000006"><a xlink:title=" ">
<polygon fill="#e0e0e0" stroke="#999999" points="258.56,-200.5 133.56,-200.5 133.56,-181.5 258.56,-181.5 258.56,-200.5"/>
<text text-anchor="middle" x="196.06" y="-188.5" font-family="Helvetica,sans-Serif" font-size="10.00">CustomLookAndFeel.h</text>
</a>
</g>
</g>
<!-- Node1&#45;&gt;Node6 -->
<g id="edge7_Node000001_Node000006" class="edge">
<title>Node1&#45;&gt;Node6</title>
<g id="a_edge7_Node000001_Node000006"><a xlink:title=" ">
<path fill="none" stroke="#63b8ff" d="M248.97,-241.8C238.27,-231.72 223.9,-218.19 212.83,-207.78"/>
<polygon fill="#63b8ff" stroke="#63b8ff" points="215.14,-205.15 205.46,-200.84 210.34,-210.25 215.14,-205.15"/>
</a>
</g>
</g>
<!-- Node7 -->
<g id="Node000007" class="node">
<title>Node7</title>
<g id="a_Node000007"><a xlink:title=" ">
<polygon fill="#e0e0e0" stroke="#999999" points="387.06,-200.5 277.06,-200.5 277.06,-181.5 387.06,-181.5 387.06,-200.5"/>
<text text-anchor="middle" x="332.06" y="-188.5" font-family="Helvetica,sans-Serif" font-size="10.00">ToggleStateSlider.h</text>
</a>
</g>
</g>
<!-- Node1&#45;&gt;Node7 -->
<g id="edge8_Node000001_Node000007" class="edge">
<title>Node1&#45;&gt;Node7</title>
<g id="a_edge8_Node000001_Node000007"><a xlink:title=" ">
<path fill="none" stroke="#63b8ff" d="M279.16,-241.8C289.86,-231.72 304.23,-218.19 315.3,-207.78"/>
<polygon fill="#63b8ff" stroke="#63b8ff" points="317.78,-210.25 322.67,-200.84 312.99,-205.15 317.78,-210.25"/>
</a>
</g>
</g>
<!-- Node8 -->
<g id="Node000008" class="node">
<title>Node8</title>
<g id="a_Node000008"><a xlink:href="ProcessorDataAnalyzer_8h.html" target="_top" xlink:title=" ">
<polygon fill="white" stroke="#666666" points="575.06,-206 407.06,-206 407.06,-176 575.06,-176 575.06,-206"/>
<text text-anchor="start" x="415.06" y="-194" font-family="Helvetica,sans-Serif" font-size="10.00">MemaProcessor/ProcessorData</text>
<text text-anchor="middle" x="491.06" y="-183" font-family="Helvetica,sans-Serif" font-size="10.00">Analyzer.h</text>
</a>
</g>
</g>
<!-- Node1&#45;&gt;Node8 -->
<g id="edge9_Node000001_Node000008" class="edge">
<title>Node1&#45;&gt;Node8</title>
<g id="a_edge9_Node000001_Node000008"><a xlink:title=" ">
<path fill="none" stroke="#63b8ff" d="M313.88,-241.95C348.48,-232.2 394.74,-219.16 431.32,-208.84"/>
<polygon fill="#63b8ff" stroke="#63b8ff" points="432.69,-212.09 441.36,-206.01 430.79,-205.36 432.69,-212.09"/>
</a>
</g>
</g>
<!-- Node3 -->
<g id="Node000003" class="node">
<title>Node3</title>
<g id="a_Node000003"><a xlink:title=" ">
<polygon fill="#e0e0e0" stroke="#999999" points="372.06,-19 292.06,-19 292.06,0 372.06,0 372.06,-19"/>
<text text-anchor="middle" x="332.06" y="-7" font-family="Helvetica,sans-Serif" font-size="10.00">JuceHeader.h</text>
</a>
</g>
</g>
<!-- Node2&#45;&gt;Node3 -->
<g id="edge2_Node000002_Node000003" class="edge">
<title>Node2&#45;&gt;Node3</title>
<g id="a_edge2_Node000002_Node000003"><a xlink:title=" ">
<path fill="none" stroke="#63b8ff" d="M59.45,-120.99C39.75,-114.59 17.85,-103.61 6.06,-85 -1.07,-73.73 -2.7,-65.05 6.06,-55 41.23,-14.71 199.35,-9.55 281.76,-9.69"/>
<polygon fill="#63b8ff" stroke="#63b8ff" points="281.88,-13.19 291.9,-9.73 281.91,-6.19 281.88,-13.19"/>
</a>
</g>
</g>
<!-- Node4 -->
<g id="Node000004" class="node">
<title>Node4</title>
<g id="a_Node000004"><a xlink:href="MemaClientControlComponentBase_8h.html" target="_top" xlink:title=" ">
<polygon fill="white" stroke="#666666" points="182.56,-85 15.56,-85 15.56,-55 182.56,-55 182.56,-85"/>
<text text-anchor="start" x="23.56" y="-73" font-family="Helvetica,sans-Serif" font-size="10.00">MemaClientControlComponent</text>
<text text-anchor="middle" x="99.06" y="-62" font-family="Helvetica,sans-Serif" font-size="10.00">Base.h</text>
</a>
</g>
</g>
<!-- Node2&#45;&gt;Node4 -->
<g id="edge3_Node000002_Node000004" class="edge">
<title>Node2&#45;&gt;Node4</title>
<g id="a_edge3_Node000002_Node000004"><a xlink:title=" ">
<path fill="none" stroke="#63b8ff" d="M99.92,-120.87C99.8,-114.11 99.63,-104.35 99.48,-95.26"/>
<polygon fill="#63b8ff" stroke="#63b8ff" points="102.98,-95.05 99.31,-85.11 95.98,-95.17 102.98,-95.05"/>
</a>
</g>
</g>
<!-- Node5 -->
<g id="Node000005" class="node">
<title>Node5</title>
<g id="a_Node000005"><a xlink:href="MemaPluginParameterInfo_8h.html" target="_top" xlink:title=" ">
<polygon fill="white" stroke="#666666" points="358.06,-85 200.06,-85 200.06,-55 358.06,-55 358.06,-85"/>
<text text-anchor="start" x="208.06" y="-73" font-family="Helvetica,sans-Serif" font-size="10.00">MemaProcessor/MemaPlugin</text>
<text text-anchor="middle" x="279.06" y="-62" font-family="Helvetica,sans-Serif" font-size="10.00">ParameterInfo.h</text>
</a>
</g>
</g>
<!-- Node2&#45;&gt;Node5 -->
<g id="edge5_Node000002_Node000005" class="edge">
<title>Node2&#45;&gt;Node5</title>
<g id="a_edge5_Node000002_Node000005"><a xlink:title=" ">
<path fill="none" stroke="#63b8ff" d="M126.09,-120.99C152.3,-112.43 193.48,-98.97 226.51,-88.18"/>
<polygon fill="#63b8ff" stroke="#63b8ff" points="227.61,-91.5 236.03,-85.06 225.44,-84.84 227.61,-91.5"/>
</a>
</g>
</g>
<!-- Node4&#45;&gt;Node3 -->
<g id="edge4_Node000004_Node000003" class="edge">
<title>Node4&#45;&gt;Node3</title>
<g id="a_edge4_Node000004_Node000003"><a xlink:title=" ">
<path fill="none" stroke="#63b8ff" d="M154.87,-54.99C195.61,-44.76 250.07,-31.09 287.82,-21.61"/>
<polygon fill="#63b8ff" stroke="#63b8ff" points="289.15,-24.88 298,-19.05 287.44,-18.09 289.15,-24.88"/>
</a>
</g>
</g>
<!-- Node5&#45;&gt;Node3 -->
<g id="edge6_Node000005_Node000003" class="edge">
<title>Node5&#45;&gt;Node3</title>
<g id="a_edge6_Node000005_Node000003"><a xlink:title=" ">
<path fill="none" stroke="#63b8ff" d="M291.89,-54.84C299.59,-46.35 309.4,-35.52 317.4,-26.69"/>
<polygon fill="#63b8ff" stroke="#63b8ff" points="320,-29.03 324.12,-19.27 314.81,-24.33 320,-29.03"/>
</a>
</g>
</g>
<!-- Node8&#45;&gt;Node3 -->
<g id="edge10_Node000008_Node000003" class="edge">
<title>Node8&#45;&gt;Node3</title>
<g id="a_edge10_Node000008_Node000003"><a xlink:title=" ">
<path fill="none" stroke="#63b8ff" d="M456.2,-175.92C439.01,-167.56 419.04,-155.54 405.06,-140 377.4,-109.23 388.46,-90.42 367.06,-55 361.1,-45.13 353.26,-34.97 346.51,-26.85"/>
<polygon fill="#63b8ff" stroke="#63b8ff" points="349.15,-24.55 339.99,-19.23 343.83,-29.1 349.15,-24.55"/>
</a>
</g>
</g>
<!-- Node9 -->
<g id="Node000009" class="node">
<title>Node9</title>
<g id="a_Node000009"><a xlink:href="ProcessorAudioSignalData_8h.html" target="_top" xlink:title=" ">
<polygon fill="white" stroke="#666666" points="568.06,-140 414.06,-140 414.06,-121 568.06,-121 568.06,-140"/>
<text text-anchor="middle" x="491.06" y="-128" font-family="Helvetica,sans-Serif" font-size="10.00">ProcessorAudioSignalData.h</text>
</a>
</g>
</g>
<!-- Node8&#45;&gt;Node9 -->
<g id="edge11_Node000008_Node000009" class="edge">
<title>Node8&#45;&gt;Node9</title>
<g id="a_edge11_Node000008_Node000009"><a xlink:title=" ">
<path fill="none" stroke="#63b8ff" d="M491.06,-175.84C491.06,-168.21 491.06,-158.7 491.06,-150.45"/>
<polygon fill="#63b8ff" stroke="#63b8ff" points="494.56,-150.27 491.06,-140.27 487.56,-150.27 494.56,-150.27"/>
</a>
</g>
</g>
<!-- Node11 -->
<g id="Node000011" class="node">
<title>Node11</title>
<g id="a_Node000011"><a xlink:href="ProcessorLevelData_8h.html" target="_top" xlink:title=" ">
<polygon fill="white" stroke="#666666" points="708.06,-140 586.06,-140 586.06,-121 708.06,-121 708.06,-140"/>
<text text-anchor="middle" x="647.06" y="-128" font-family="Helvetica,sans-Serif" font-size="10.00">ProcessorLevelData.h</text>
</a>
</g>
</g>
<!-- Node8&#45;&gt;Node11 -->
<g id="edge15_Node000008_Node000011" class="edge">
<title>Node8&#45;&gt;Node11</title>
<g id="a_edge15_Node000008_Node000011"><a xlink:title=" ">
<path fill="none" stroke="#63b8ff" d="M528.43,-175.99C554.69,-166.14 589.48,-153.1 614.58,-143.68"/>
<polygon fill="#63b8ff" stroke="#63b8ff" points="615.89,-146.93 624.03,-140.14 613.43,-140.37 615.89,-146.93"/>
</a>
</g>
</g>
<!-- Node12 -->
<g id="Node000012" class="node">
<title>Node12</title>
<g id="a_Node000012"><a xlink:href="ProcessorSpectrumData_8h.html" target="_top" xlink:title=" ">
<polygon fill="white" stroke="#666666" points="869.56,-140 726.56,-140 726.56,-121 869.56,-121 869.56,-140"/>
<text text-anchor="middle" x="798.06" y="-128" font-family="Helvetica,sans-Serif" font-size="10.00">ProcessorSpectrumData.h</text>
</a>
</g>
</g>
<!-- Node8&#45;&gt;Node12 -->
<g id="edge17_Node000008_Node000012" class="edge">
<title>Node8&#45;&gt;Node12</title>
<g id="a_edge17_Node000008_Node000012"><a xlink:title=" ">
<path fill="none" stroke="#63b8ff" d="M564.6,-175.99C619.53,-165.52 693.42,-151.44 743.24,-141.95"/>
<polygon fill="#63b8ff" stroke="#63b8ff" points="744.01,-145.36 753.18,-140.05 742.7,-138.49 744.01,-145.36"/>
</a>
</g>
</g>
<!-- Node9&#45;&gt;Node3 -->
<g id="edge12_Node000009_Node000003" class="edge">
<title>Node9&#45;&gt;Node3</title>
<g id="a_edge12_Node000009_Node000003"><a xlink:title=" ">
<path fill="none" stroke="#63b8ff" d="M481.24,-120.87C464.85,-106.61 430.69,-77.46 400.06,-55 385.37,-44.22 368.19,-32.99 354.77,-24.51"/>
<polygon fill="#63b8ff" stroke="#63b8ff" points="356.49,-21.46 346.16,-19.11 352.78,-27.39 356.49,-21.46"/>
</a>
</g>
</g>
<!-- Node10 -->
<g id="Node000010" class="node">
<title>Node10</title>
<g id="a_Node000010"><a xlink:href="AbstractProcessorData_8h.html" target="_top" xlink:title=" ">
<polygon fill="white" stroke="#666666" points="669.56,-79.5 532.56,-79.5 532.56,-60.5 669.56,-60.5 669.56,-79.5"/>
<text text-anchor="middle" x="601.06" y="-67.5" font-family="Helvetica,sans-Serif" font-size="10.00">AbstractProcessorData.h</text>
</a>
</g>
</g>
<!-- Node9&#45;&gt;Node10 -->
<g id="edge13_Node000009_Node000010" class="edge">
<title>Node9&#45;&gt;Node10</title>
<g id="a_edge13_Node000009_Node000010"><a xlink:title=" ">
<path fill="none" stroke="#63b8ff" d="M507.3,-120.87C525.33,-111.28 554.68,-95.67 575.74,-84.47"/>
<polygon fill="#63b8ff" stroke="#63b8ff" points="577.58,-87.45 584.77,-79.67 574.29,-81.27 577.58,-87.45"/>
</a>
</g>
</g>
<!-- Node10&#45;&gt;Node3 -->
<g id="edge14_Node000010_Node000003" class="edge">
<title>Node10&#45;&gt;Node3</title>
<g id="a_edge14_Node000010_Node000003"><a xlink:title=" ">
<path fill="none" stroke="#63b8ff" d="M561.95,-60.49C514.14,-50.1 433.19,-32.49 381.22,-21.19"/>
<polygon fill="#63b8ff" stroke="#63b8ff" points="381.74,-17.72 371.23,-19.02 380.25,-24.56 381.74,-17.72"/>
</a>
</g>
</g>
<!-- Node11&#45;&gt;Node10 -->
<g id="edge16_Node000011_Node000010" class="edge">
<title>Node11&#45;&gt;Node10</title>
<g id="a_edge16_Node000011_Node000010"><a xlink:title=" ">
<path fill="none" stroke="#63b8ff" d="M640.28,-120.87C633.41,-112.14 622.63,-98.43 614.11,-87.59"/>
<polygon fill="#63b8ff" stroke="#63b8ff" points="616.81,-85.36 607.88,-79.67 611.31,-89.69 616.81,-85.36"/>
</a>
</g>
</g>
<!-- Node12&#45;&gt;Node10 -->
<g id="edge18_Node000012_Node000010" class="edge">
<title>Node12&#45;&gt;Node10</title>
<g id="a_edge18_Node000012_Node000010"><a xlink:title=" ">
<path fill="none" stroke="#63b8ff" d="M769.42,-120.99C735.13,-110.81 677.58,-93.72 639.47,-82.4"/>
<polygon fill="#63b8ff" stroke="#63b8ff" points="640.33,-79.01 629.74,-79.52 638.33,-85.72 640.33,-79.01"/>
</a>
</g>
</g>
</g>
</svg>
