<?xml version="1.0" encoding="UTF-8" standalone="no"?>
<!DOCTYPE svg PUBLIC "-//W3C//DTD SVG 1.1//EN"
 "http://www.w3.org/Graphics/SVG/1.1/DTD/svg11.dtd">
<!-- Generated by graphviz version 2.43.0 (0)
 -->
<!-- Title: Source/MemaUIComponent.cpp Pages: 1 -->
<svg width="664pt" height="192pt"
 viewBox="0.00 0.00 664.41 192.00" xmlns="http://www.w3.org/2000/svg" xmlns:xlink="http://www.w3.org/1999/xlink">
<g id="graph0" class="graph" transform="scale(1 1) rotate(0) translate(4 188)">
<title>Source/MemaUIComponent.cpp</title>
<!-- Node1 -->
<g id="Node000001" class="node">
<title>Node1</title>
<g id="a_Node000001"><a xlink:title=" ">
<polygon fill="#999999" stroke="#666666" points="424.41,-184 254.41,-184 254.41,-165 424.41,-165 424.41,-184"/>
<text text-anchor="middle" x="339.41" y="-172" font-family="Helvetica,sans-Serif" font-size="10.00">Source/MemaUIComponent.cpp</text>
</a>
</g>
</g>
<!-- Node2 -->
<g id="Node000002" class="node">
<title>Node2</title>
<g id="a_Node000002"><a xlink:href="MemaUIComponent_8h.html" target="_top" xlink:title=" ">
<polygon fill="white" stroke="#666666" points="333.91,-129 210.91,-129 210.91,-110 333.91,-110 333.91,-129"/>
<text text-anchor="middle" x="272.41" y="-117" font-family="Helvetica,sans-Serif" font-size="10.00">MemaUIComponent.h</text>
</a>
</g>
</g>
<!-- Node1&#45;&gt;Node2 -->
<g id="edge1_Node000001_Node000002" class="edge">
<title>Node1&#45;&gt;Node2</title>
<g id="a_edge1_Node000001_Node000002"><a xlink:title=" ">
<path fill="none" stroke="#63b8ff" d="M328.65,-164.98C318.65,-157.07 303.53,-145.11 291.48,-135.58"/>
<polygon fill="#63b8ff" stroke="#63b8ff" points="293.39,-132.63 283.37,-129.17 289.05,-138.12 293.39,-132.63"/>
</a>
</g>
</g>
<!-- Node5 -->
<g id="Node000005" class="node">
<title>Node5</title>
<g id="a_Node000005"><a xlink:title=" ">
<polygon fill="#e0e0e0" stroke="#999999" points="185.41,-19 51.41,-19 51.41,0 185.41,0 185.41,-19"/>
<text text-anchor="middle" x="118.41" y="-7" font-family="Helvetica,sans-Serif" font-size="10.00">AppConfigurationBase.h</text>
</a>
</g>
</g>
<!-- Node1&#45;&gt;Node5 -->
<g id="edge12_Node000001_Node000005" class="edge">
<title>Node1&#45;&gt;Node5</title>
<g id="a_edge12_Node000001_Node000005"><a xlink:title=" ">
<path fill="none" stroke="#63b8ff" d="M283.26,-164.96C197.1,-150.59 38.73,-118.69 5.41,-74 -13.91,-48.08 24.04,-31.26 61.07,-21.48"/>
<polygon fill="#63b8ff" stroke="#63b8ff" points="62.07,-24.84 70.93,-19.03 60.38,-18.04 62.07,-24.84"/>
</a>
</g>
</g>
<!-- Node8 -->
<g id="Node000008" class="node">
<title>Node8</title>
<g id="a_Node000008"><a xlink:href="AboutComponent_8h.html" target="_top" xlink:title=" ">
<polygon fill="white" stroke="#666666" points="462.41,-129 352.41,-129 352.41,-110 462.41,-110 462.41,-129"/>
<text text-anchor="middle" x="407.41" y="-117" font-family="Helvetica,sans-Serif" font-size="10.00">AboutComponent.h</text>
</a>
</g>
</g>
<!-- Node1&#45;&gt;Node8 -->
<g id="edge8_Node000001_Node000008" class="edge">
<title>Node1&#45;&gt;Node8</title>
<g id="a_edge8_Node000001_Node000008"><a xlink:title=" ">
<path fill="none" stroke="#63b8ff" d="M350.34,-164.98C360.49,-157.07 375.84,-145.11 388.06,-135.58"/>
<polygon fill="#63b8ff" stroke="#63b8ff" points="390.55,-138.08 396.29,-129.17 386.25,-132.56 390.55,-138.08"/>
</a>
</g>
</g>
<!-- Node9 -->
<g id="Node000009" class="node">
<title>Node9</title>
<g id="a_Node000009"><a xlink:href="CustomPopupMenuComponent_8h.html" target="_top" xlink:title=" ">
<polygon fill="white" stroke="#666666" points="656.41,-129 480.41,-129 480.41,-110 656.41,-110 656.41,-129"/>
<text text-anchor="middle" x="568.41" y="-117" font-family="Helvetica,sans-Serif" font-size="10.00">CustomPopupMenuComponent.h</text>
</a>
</g>
</g>
<!-- Node1&#45;&gt;Node9 -->
<g id="edge10_Node000001_Node000009" class="edge">
<title>Node1&#45;&gt;Node9</title>
<g id="a_edge10_Node000001_Node000009"><a xlink:title=" ">
<path fill="none" stroke="#63b8ff" d="M376.21,-164.98C415.65,-155.86 478.39,-141.33 521.39,-131.38"/>
<polygon fill="#63b8ff" stroke="#63b8ff" points="522.38,-134.75 531.33,-129.08 520.8,-127.93 522.38,-134.75"/>
</a>
</g>
</g>
<!-- Node3 -->
<g id="Node000003" class="node">
<title>Node3</title>
<g id="a_Node000003"><a xlink:title=" ">
<polygon fill="#e0e0e0" stroke="#999999" points="551.41,-19 471.41,-19 471.41,0 551.41,0 551.41,-19"/>
<text text-anchor="middle" x="511.41" y="-7" font-family="Helvetica,sans-Serif" font-size="10.00">JuceHeader.h</text>
</a>
</g>
</g>
<!-- Node2&#45;&gt;Node3 -->
<g id="edge2_Node000002_Node000003" class="edge">
<title>Node2&#45;&gt;Node3</title>
<g id="a_edge2_Node000002_Node000003"><a xlink:title=" ">
<path fill="none" stroke="#63b8ff" d="M334.07,-110.3C384.65,-102.6 451.38,-89.89 473.41,-74 489.01,-62.75 499.36,-42.95 505.27,-28.44"/>
<polygon fill="#63b8ff" stroke="#63b8ff" points="508.57,-29.6 508.79,-19.01 502.01,-27.15 508.57,-29.6"/>
</a>
</g>
</g>
<!-- Node4 -->
<g id="Node000004" class="node">
<title>Node4</title>
<g id="a_Node000004"><a xlink:href="MemaAppConfiguration_8h.html" target="_top" xlink:title=" ">
<polygon fill="white" stroke="#666666" points="320.41,-74 180.41,-74 180.41,-55 320.41,-55 320.41,-74"/>
<text text-anchor="middle" x="250.41" y="-62" font-family="Helvetica,sans-Serif" font-size="10.00">MemaAppConfiguration.h</text>
</a>
</g>
</g>
<!-- Node2&#45;&gt;Node4 -->
<g id="edge3_Node000002_Node000004" class="edge">
<title>Node2&#45;&gt;Node4</title>
<g id="a_edge3_Node000002_Node000004"><a xlink:title=" ">
<path fill="none" stroke="#63b8ff" d="M268.78,-109.75C265.83,-102.65 261.58,-92.4 257.91,-83.56"/>
<polygon fill="#63b8ff" stroke="#63b8ff" points="261.05,-81.98 253.98,-74.09 254.58,-84.67 261.05,-81.98"/>
</a>
</g>
</g>
<!-- Node6 -->
<g id="Node000006" class="node">
<title>Node6</title>
<g id="a_Node000006"><a xlink:title=" ">
<polygon fill="#e0e0e0" stroke="#999999" points="463.91,-74 338.91,-74 338.91,-55 463.91,-55 463.91,-74"/>
<text text-anchor="middle" x="401.41" y="-62" font-family="Helvetica,sans-Serif" font-size="10.00">CustomLookAndFeel.h</text>
</a>
</g>
</g>
<!-- Node2&#45;&gt;Node6 -->
<g id="edge6_Node000002_Node000006" class="edge">
<title>Node2&#45;&gt;Node6</title>
<g id="a_edge6_Node000002_Node000006"><a xlink:title=" ">
<path fill="none" stroke="#63b8ff" d="M293.14,-109.98C314.17,-101.34 346.96,-87.87 370.95,-78.02"/>
<polygon fill="#63b8ff" stroke="#63b8ff" points="372.39,-81.21 380.31,-74.17 369.73,-74.73 372.39,-81.21"/>
</a>
</g>
</g>
<!-- Node7 -->
<g id="Node000007" class="node">
<title>Node7</title>
<g id="a_Node000007"><a xlink:title=" ">
<polygon fill="#e0e0e0" stroke="#999999" points="161.91,-74 14.91,-74 14.91,-55 161.91,-55 161.91,-74"/>
<text text-anchor="middle" x="88.41" y="-62" font-family="Helvetica,sans-Serif" font-size="10.00">ServiceTopologyManager.h</text>
</a>
</g>
</g>
<!-- Node2&#45;&gt;Node7 -->
<g id="edge7_Node000002_Node000007" class="edge">
<title>Node2&#45;&gt;Node7</title>
<g id="a_edge7_Node000002_Node000007"><a xlink:title=" ">
<path fill="none" stroke="#63b8ff" d="M242.85,-109.98C211.69,-101.01 162.44,-86.82 127.96,-76.89"/>
<polygon fill="#63b8ff" stroke="#63b8ff" points="128.79,-73.49 118.21,-74.08 126.85,-80.21 128.79,-73.49"/>
</a>
</g>
</g>
<!-- Node4&#45;&gt;Node3 -->
<g id="edge4_Node000004_Node000003" class="edge">
<title>Node4&#45;&gt;Node3</title>
<g id="a_edge4_Node000004_Node000003"><a xlink:title=" ">
<path fill="none" stroke="#63b8ff" d="M292.35,-54.98C338.36,-45.64 412.18,-30.65 461.23,-20.69"/>
<polygon fill="#63b8ff" stroke="#63b8ff" points="462.2,-24.07 471.3,-18.65 460.8,-17.21 462.2,-24.07"/>
</a>
</g>
</g>
<!-- Node4&#45;&gt;Node5 -->
<g id="edge5_Node000004_Node000005" class="edge">
<title>Node4&#45;&gt;Node5</title>
<g id="a_edge5_Node000004_Node000005"><a xlink:title=" ">
<path fill="none" stroke="#63b8ff" d="M229.21,-54.98C207.68,-46.34 174.13,-32.87 149.59,-23.02"/>
<polygon fill="#63b8ff" stroke="#63b8ff" points="150.59,-19.65 140.01,-19.17 147.98,-26.14 150.59,-19.65"/>
</a>
</g>
</g>
<!-- Node8&#45;&gt;Node3 -->
<g id="edge9_Node000008_Node000003" class="edge">
<title>Node8&#45;&gt;Node3</title>
<g id="a_edge9_Node000008_Node000003"><a xlink:title=" ">
<path fill="none" stroke="#63b8ff" d="M450.02,-109.98C470.45,-103.6 493.29,-92.64 506.41,-74 515.47,-61.14 516.01,-42.98 514.7,-29.37"/>
<polygon fill="#63b8ff" stroke="#63b8ff" points="518.13,-28.66 513.31,-19.23 511.2,-29.61 518.13,-28.66"/>
</a>
</g>
</g>
<!-- Node9&#45;&gt;Node3 -->
<g id="edge11_Node000009_Node000003" class="edge">
<title>Node9&#45;&gt;Node3</title>
<g id="a_edge11_Node000009_Node000003"><a xlink:title=" ">
<path fill="none" stroke="#63b8ff" d="M566.01,-109.96C562.32,-97.45 554.58,-73.62 544.41,-55 539.07,-45.2 531.79,-35.15 525.43,-27.08"/>
<polygon fill="#63b8ff" stroke="#63b8ff" points="528.05,-24.75 519.02,-19.21 522.62,-29.17 528.05,-24.75"/>
</a>
</g>
</g>
</g>
</svg>
