<?xml version="1.0" encoding="UTF-8" standalone="no"?>
<!DOCTYPE svg PUBLIC "-//W3C//DTD SVG 1.1//EN"
 "http://www.w3.org/Graphics/SVG/1.1/DTD/svg11.dtd">
<!-- Generated by graphviz version 2.43.0 (0)
 -->
<!-- Title: Source/MemaProcessor/MemaPluginParameterInfo.h Pages: 1 -->
<svg width="2517pt" height="368pt"
 viewBox="0.00 0.00 2517.00 368.00" xmlns="http://www.w3.org/2000/svg" xmlns:xlink="http://www.w3.org/1999/xlink">
<g id="graph0" class="graph" transform="scale(1 1) rotate(0) translate(4 364)">
<title>Source/MemaProcessor/MemaPluginParameterInfo.h</title>
<!-- Node1 -->
<g id="Node000001" class="node">
<title>Node1</title>
<g id="a_Node000001"><a xlink:title=" ">
<polygon fill="#999999" stroke="#666666" points="1038.5,-360 880.5,-360 880.5,-330 1038.5,-330 1038.5,-360"/>
<text text-anchor="start" x="888.5" y="-348" font-family="Helvetica,sans-Serif" font-size="10.00">Source/MemaProcessor</text>
<text text-anchor="middle" x="959.5" y="-337" font-family="Helvetica,sans-Serif" font-size="10.00">/MemaPluginParameterInfo.h</text>
</a>
</g>
</g>
<!-- Node2 -->
<g id="Node000002" class="node">
<title>Node2</title>
<g id="a_Node000002"><a xlink:href="MemaReComponent_8h.html" target="_top" xlink:title=" ">
<polygon fill="white" stroke="#666666" points="1098.5,-222.5 926.5,-222.5 926.5,-203.5 1098.5,-203.5 1098.5,-222.5"/>
<text text-anchor="middle" x="1012.5" y="-210.5" font-family="Helvetica,sans-Serif" font-size="10.00">MemaRe/MemaReComponent.h</text>
</a>
</g>
</g>
<!-- Node1&#45;&gt;Node2 -->
<g id="edge1_Node000001_Node000002" class="edge">
<title>Node1&#45;&gt;Node2</title>
<g id="a_edge1_Node000001_Node000002"><a xlink:title=" ">
<path fill="none" stroke="#63b8ff" d="M977.11,-321.86C983.04,-313.52 989.23,-303.7 993.5,-294 1004.32,-269.44 1009.5,-237.81 1011.48,-222.74"/>
<polygon fill="#63b8ff" stroke="#63b8ff" points="974.25,-319.83 971.11,-329.95 979.88,-324 974.25,-319.83"/>
</a>
</g>
</g>
<!-- Node5 -->
<g id="Node000005" class="node">
<title>Node5</title>
<g id="a_Node000005"><a xlink:href="MemaClientCommon_2PluginControlComponent_8h.html" target="_top" xlink:title=" ">
<polygon fill="white" stroke="#666666" points="984.5,-294 828.5,-294 828.5,-264 984.5,-264 984.5,-294"/>
<text text-anchor="start" x="836.5" y="-282" font-family="Helvetica,sans-Serif" font-size="10.00">Source/MemaClientCommon</text>
<text text-anchor="middle" x="906.5" y="-271" font-family="Helvetica,sans-Serif" font-size="10.00">/PluginControlComponent.h</text>
</a>
</g>
</g>
<!-- Node1&#45;&gt;Node5 -->
<g id="edge4_Node000001_Node000005" class="edge">
<title>Node1&#45;&gt;Node5</title>
<g id="a_edge4_Node000001_Node000005"><a xlink:title=" ">
<path fill="none" stroke="#63b8ff" d="M941.35,-322.09C933.7,-312.85 925.02,-302.36 918.23,-294.16"/>
<polygon fill="#63b8ff" stroke="#63b8ff" points="938.66,-324.33 947.74,-329.8 944.06,-319.86 938.66,-324.33"/>
</a>
</g>
</g>
<!-- Node7 -->
<g id="Node000007" class="node">
<title>Node7</title>
<g id="a_Node000007"><a xlink:href="MemaCommanders_8h.html" target="_top" xlink:title=" ">
<polygon fill="white" stroke="#666666" points="741,-162 610,-162 610,-132 741,-132 741,-162"/>
<text text-anchor="start" x="618" y="-150" font-family="Helvetica,sans-Serif" font-size="10.00">Source/MemaProcessor</text>
<text text-anchor="middle" x="675.5" y="-139" font-family="Helvetica,sans-Serif" font-size="10.00">/MemaCommanders.h</text>
</a>
</g>
</g>
<!-- Node1&#45;&gt;Node7 -->
<g id="edge7_Node000001_Node000007" class="edge">
<title>Node1&#45;&gt;Node7</title>
<g id="a_edge7_Node000001_Node000007"><a xlink:title=" ">
<path fill="none" stroke="#63b8ff" d="M897.72,-326.87C872.62,-318.67 843.85,-307.63 819.5,-294 778.68,-271.15 770.27,-261.38 737.5,-228 716.7,-206.81 696.34,-178.73 684.91,-162.1"/>
<polygon fill="#63b8ff" stroke="#63b8ff" points="896.91,-330.29 907.5,-329.99 899.03,-323.62 896.91,-330.29"/>
</a>
</g>
</g>
<!-- Node17 -->
<g id="Node000017" class="node">
<title>Node17</title>
<g id="a_Node000017"><a xlink:href="MemaMessages_8h.html" target="_top" xlink:title=" ">
<polygon fill="white" stroke="#666666" points="1358,-294 1227,-294 1227,-264 1358,-264 1358,-294"/>
<text text-anchor="start" x="1235" y="-282" font-family="Helvetica,sans-Serif" font-size="10.00">Source/MemaProcessor</text>
<text text-anchor="middle" x="1292.5" y="-271" font-family="Helvetica,sans-Serif" font-size="10.00">/MemaMessages.h</text>
</a>
</g>
</g>
<!-- Node1&#45;&gt;Node17 -->
<g id="edge19_Node000001_Node000017" class="edge">
<title>Node1&#45;&gt;Node17</title>
<g id="a_edge19_Node000001_Node000017"><a xlink:title=" ">
<path fill="none" stroke="#63b8ff" d="M1042.64,-328.02C1099.62,-317.07 1174.14,-302.75 1226.93,-292.6"/>
<polygon fill="#63b8ff" stroke="#63b8ff" points="1041.74,-324.63 1032.58,-329.95 1043.06,-331.5 1041.74,-324.63"/>
</a>
</g>
</g>
<!-- Node20 -->
<g id="Node000020" class="node">
<title>Node20</title>
<g id="a_Node000020"><a xlink:href="MemaProcessor_8h.html" target="_top" xlink:title=" ">
<polygon fill="white" stroke="#666666" points="1698,-228 1567,-228 1567,-198 1698,-198 1698,-228"/>
<text text-anchor="start" x="1575" y="-216" font-family="Helvetica,sans-Serif" font-size="10.00">Source/MemaProcessor</text>
<text text-anchor="middle" x="1632.5" y="-205" font-family="Helvetica,sans-Serif" font-size="10.00">/MemaProcessor.h</text>
</a>
</g>
</g>
<!-- Node1&#45;&gt;Node20 -->
<g id="edge53_Node000001_Node000020" class="edge">
<title>Node1&#45;&gt;Node20</title>
<g id="a_edge53_Node000001_Node000020"><a xlink:title=" ">
<path fill="none" stroke="#63b8ff" d="M1048.93,-337.47C1132.08,-330.36 1259.07,-316.84 1367.5,-294 1449.33,-276.77 1542.34,-246 1593.54,-228.06"/>
<polygon fill="#63b8ff" stroke="#63b8ff" points="1048.43,-334 1038.76,-338.33 1049.01,-340.98 1048.43,-334"/>
</a>
</g>
</g>
<!-- Node36 -->
<g id="Node000036" class="node">
<title>Node36</title>
<g id="a_Node000036"><a xlink:href="MemaProcessorEditor_2PluginControlComponent_8h.html" target="_top" xlink:title=" ">
<polygon fill="white" stroke="#666666" points="269,-294 110,-294 110,-264 269,-264 269,-294"/>
<text text-anchor="start" x="118" y="-282" font-family="Helvetica,sans-Serif" font-size="10.00">Source/MemaProcessorEditor</text>
<text text-anchor="middle" x="189.5" y="-271" font-family="Helvetica,sans-Serif" font-size="10.00">/PluginControlComponent.h</text>
</a>
</g>
</g>
<!-- Node1&#45;&gt;Node36 -->
<g id="edge54_Node000001_Node000036" class="edge">
<title>Node1&#45;&gt;Node36</title>
<g id="a_edge54_Node000001_Node000036"><a xlink:title=" ">
<path fill="none" stroke="#63b8ff" d="M870.16,-336.57C718.71,-323.99 413.92,-298.65 269.24,-286.63"/>
<polygon fill="#63b8ff" stroke="#63b8ff" points="870.1,-340.08 880.36,-337.42 870.68,-333.11 870.1,-340.08"/>
</a>
</g>
</g>
<!-- Node3 -->
<g id="Node000003" class="node">
<title>Node3</title>
<g id="a_Node000003"><a xlink:href="MemaRe_2MainComponent_8cpp.html" target="_top" xlink:title=" ">
<polygon fill="white" stroke="#666666" points="1094.5,-156.5 930.5,-156.5 930.5,-137.5 1094.5,-137.5 1094.5,-156.5"/>
<text text-anchor="middle" x="1012.5" y="-144.5" font-family="Helvetica,sans-Serif" font-size="10.00">MemaRe/MainComponent.cpp</text>
</a>
</g>
</g>
<!-- Node2&#45;&gt;Node3 -->
<g id="edge2_Node000002_Node000003" class="edge">
<title>Node2&#45;&gt;Node3</title>
<g id="a_edge2_Node000002_Node000003"><a xlink:title=" ">
<path fill="none" stroke="#63b8ff" d="M1012.5,-193.08C1012.5,-181.13 1012.5,-166.22 1012.5,-156.91"/>
<polygon fill="#63b8ff" stroke="#63b8ff" points="1009,-193.37 1012.5,-203.37 1016,-193.37 1009,-193.37"/>
</a>
</g>
</g>
<!-- Node4 -->
<g id="Node000004" class="node">
<title>Node4</title>
<g id="a_Node000004"><a xlink:href="MemaReComponent_8cpp.html" target="_top" xlink:title=" ">
<polygon fill="white" stroke="#666666" points="1296,-156.5 1113,-156.5 1113,-137.5 1296,-137.5 1296,-156.5"/>
<text text-anchor="middle" x="1204.5" y="-144.5" font-family="Helvetica,sans-Serif" font-size="10.00">MemaRe/MemaReComponent.cpp</text>
</a>
</g>
</g>
<!-- Node2&#45;&gt;Node4 -->
<g id="edge3_Node000002_Node000004" class="edge">
<title>Node2&#45;&gt;Node4</title>
<g id="a_edge3_Node000002_Node000004"><a xlink:title=" ">
<path fill="none" stroke="#63b8ff" d="M1048.01,-200.16C1085.91,-187.53 1145.03,-167.82 1178.71,-156.6"/>
<polygon fill="#63b8ff" stroke="#63b8ff" points="1046.77,-196.89 1038.39,-203.37 1048.99,-203.53 1046.77,-196.89"/>
</a>
</g>
</g>
<!-- Node5&#45;&gt;Node2 -->
<g id="edge5_Node000005_Node000002" class="edge">
<title>Node5&#45;&gt;Node2</title>
<g id="a_edge5_Node000005_Node000002"><a xlink:title=" ">
<path fill="none" stroke="#63b8ff" d="M938.55,-258.65C958.51,-246.6 983.2,-231.69 998.39,-222.52"/>
<polygon fill="#63b8ff" stroke="#63b8ff" points="936.51,-255.79 929.76,-263.95 940.13,-261.78 936.51,-255.79"/>
</a>
</g>
</g>
<!-- Node6 -->
<g id="Node000006" class="node">
<title>Node6</title>
<g id="a_Node000006"><a xlink:href="MemaClientCommon_2PluginControlComponent_8cpp.html" target="_top" xlink:title=" ">
<polygon fill="white" stroke="#666666" points="908,-228 747,-228 747,-198 908,-198 908,-228"/>
<text text-anchor="start" x="755" y="-216" font-family="Helvetica,sans-Serif" font-size="10.00">Source/MemaClientCommon</text>
<text text-anchor="middle" x="827.5" y="-205" font-family="Helvetica,sans-Serif" font-size="10.00">/PluginControlComponent.cpp</text>
</a>
</g>
</g>
<!-- Node5&#45;&gt;Node6 -->
<g id="edge6_Node000005_Node000006" class="edge">
<title>Node5&#45;&gt;Node6</title>
<g id="a_edge6_Node000005_Node000006"><a xlink:title=" ">
<path fill="none" stroke="#63b8ff" d="M881.17,-257.48C869.36,-247.91 855.61,-236.77 844.98,-228.16"/>
<polygon fill="#63b8ff" stroke="#63b8ff" points="878.99,-260.22 888.97,-263.8 883.4,-254.78 878.99,-260.22"/>
</a>
</g>
</g>
<!-- Node8 -->
<g id="Node000008" class="node">
<title>Node8</title>
<g id="a_Node000008"><a xlink:href="MemaCommanders_8cpp.html" target="_top" xlink:title=" ">
<polygon fill="white" stroke="#666666" points="548.5,-96 412.5,-96 412.5,-66 548.5,-66 548.5,-96"/>
<text text-anchor="start" x="420.5" y="-84" font-family="Helvetica,sans-Serif" font-size="10.00">Source/MemaProcessor</text>
<text text-anchor="middle" x="480.5" y="-73" font-family="Helvetica,sans-Serif" font-size="10.00">/MemaCommanders.cpp</text>
</a>
</g>
</g>
<!-- Node7&#45;&gt;Node8 -->
<g id="edge8_Node000007_Node000008" class="edge">
<title>Node7&#45;&gt;Node8</title>
<g id="a_edge8_Node000007_Node000008"><a xlink:title=" ">
<path fill="none" stroke="#63b8ff" d="M622.86,-128.72C591.61,-118.47 552.51,-105.63 523.19,-96.01"/>
<polygon fill="#63b8ff" stroke="#63b8ff" points="622.11,-132.16 632.71,-131.95 624.3,-125.51 622.11,-132.16"/>
</a>
</g>
</g>
<!-- Node9 -->
<g id="Node000009" class="node">
<title>Node9</title>
<g id="a_Node000009"><a xlink:href="MemaProcessor_8cpp.html" target="_top" xlink:title=" ">
<polygon fill="white" stroke="#666666" points="698,-96 567,-96 567,-66 698,-66 698,-96"/>
<text text-anchor="start" x="575" y="-84" font-family="Helvetica,sans-Serif" font-size="10.00">Source/MemaProcessor</text>
<text text-anchor="middle" x="632.5" y="-73" font-family="Helvetica,sans-Serif" font-size="10.00">/MemaProcessor.cpp</text>
</a>
</g>
</g>
<!-- Node7&#45;&gt;Node9 -->
<g id="edge9_Node000007_Node000009" class="edge">
<title>Node7&#45;&gt;Node9</title>
<g id="a_edge9_Node000007_Node000009"><a xlink:title=" ">
<path fill="none" stroke="#63b8ff" d="M660.21,-123.24C654.14,-114.21 647.36,-104.11 642.02,-96.16"/>
<polygon fill="#63b8ff" stroke="#63b8ff" points="657.47,-125.45 665.96,-131.8 663.29,-121.54 657.47,-125.45"/>
</a>
</g>
</g>
<!-- Node10 -->
<g id="Node000010" class="node">
<title>Node10</title>
<g id="a_Node000010"><a xlink:href="CrosspointsControlComponent_8h.html" target="_top" xlink:title=" ">
<polygon fill="white" stroke="#666666" points="394,-96 217,-96 217,-66 394,-66 394,-96"/>
<text text-anchor="start" x="225" y="-84" font-family="Helvetica,sans-Serif" font-size="10.00">Source/MemaProcessorEditor</text>
<text text-anchor="middle" x="305.5" y="-73" font-family="Helvetica,sans-Serif" font-size="10.00">/CrosspointsControlComponent.h</text>
</a>
</g>
</g>
<!-- Node7&#45;&gt;Node10 -->
<g id="edge10_Node000007_Node000010" class="edge">
<title>Node7&#45;&gt;Node10</title>
<g id="a_edge10_Node000007_Node000010"><a xlink:title=" ">
<path fill="none" stroke="#63b8ff" d="M599.67,-132.88C537.66,-122.16 450.19,-107.03 386.76,-96.06"/>
<polygon fill="#63b8ff" stroke="#63b8ff" points="599.33,-136.38 609.78,-134.63 600.52,-129.48 599.33,-136.38"/>
</a>
</g>
</g>
<!-- Node13 -->
<g id="Node000013" class="node">
<title>Node13</title>
<g id="a_Node000013"><a xlink:href="InputControlComponent_8h.html" target="_top" xlink:title=" ">
<polygon fill="white" stroke="#666666" points="1052,-96 893,-96 893,-66 1052,-66 1052,-96"/>
<text text-anchor="start" x="901" y="-84" font-family="Helvetica,sans-Serif" font-size="10.00">Source/MemaProcessorEditor</text>
<text text-anchor="middle" x="972.5" y="-73" font-family="Helvetica,sans-Serif" font-size="10.00">/InputControlComponent.h</text>
</a>
</g>
</g>
<!-- Node7&#45;&gt;Node13 -->
<g id="edge13_Node000007_Node000013" class="edge">
<title>Node7&#45;&gt;Node13</title>
<g id="a_edge13_Node000007_Node000013"><a xlink:title=" ">
<path fill="none" stroke="#63b8ff" d="M750.47,-129.84C798.86,-119.42 861.18,-105.99 907.47,-96.01"/>
<polygon fill="#63b8ff" stroke="#63b8ff" points="749.72,-126.43 740.68,-131.95 751.19,-133.27 749.72,-126.43"/>
</a>
</g>
</g>
<!-- Node15 -->
<g id="Node000015" class="node">
<title>Node15</title>
<g id="a_Node000015"><a xlink:href="OutputControlComponent_8h.html" target="_top" xlink:title=" ">
<polygon fill="white" stroke="#666666" points="875,-96 716,-96 716,-66 875,-66 875,-96"/>
<text text-anchor="start" x="724" y="-84" font-family="Helvetica,sans-Serif" font-size="10.00">Source/MemaProcessorEditor</text>
<text text-anchor="middle" x="795.5" y="-73" font-family="Helvetica,sans-Serif" font-size="10.00">/OutputControlComponent.h</text>
</a>
</g>
</g>
<!-- Node7&#45;&gt;Node15 -->
<g id="edge16_Node000007_Node000015" class="edge">
<title>Node7&#45;&gt;Node15</title>
<g id="a_edge16_Node000007_Node000015"><a xlink:title=" ">
<path fill="none" stroke="#63b8ff" d="M710.67,-127.24C729.4,-117.25 752.05,-105.18 769.23,-96.01"/>
<polygon fill="#63b8ff" stroke="#63b8ff" points="709.01,-124.16 701.83,-131.95 712.31,-130.34 709.01,-124.16"/>
</a>
</g>
</g>
<!-- Node11 -->
<g id="Node000011" class="node">
<title>Node11</title>
<g id="a_Node000011"><a xlink:href="CrosspointsControlComponent_8cpp.html" target="_top" xlink:title=" ">
<polygon fill="white" stroke="#666666" points="399.5,-30 211.5,-30 211.5,0 399.5,0 399.5,-30"/>
<text text-anchor="start" x="219.5" y="-18" font-family="Helvetica,sans-Serif" font-size="10.00">Source/MemaProcessorEditor</text>
<text text-anchor="middle" x="305.5" y="-7" font-family="Helvetica,sans-Serif" font-size="10.00">/CrosspointsControlComponent.cpp</text>
</a>
</g>
</g>
<!-- Node10&#45;&gt;Node11 -->
<g id="edge11_Node000010_Node000011" class="edge">
<title>Node10&#45;&gt;Node11</title>
<g id="a_edge11_Node000010_Node000011"><a xlink:title=" ">
<path fill="none" stroke="#63b8ff" d="M305.5,-55.54C305.5,-46.96 305.5,-37.61 305.5,-30.16"/>
<polygon fill="#63b8ff" stroke="#63b8ff" points="302,-55.8 305.5,-65.8 309,-55.8 302,-55.8"/>
</a>
</g>
</g>
<!-- Node12 -->
<g id="Node000012" class="node">
<title>Node12</title>
<g id="a_Node000012"><a xlink:href="MemaProcessorEditor_8cpp.html" target="_top" xlink:title=" ">
<polygon fill="white" stroke="#666666" points="673,-30 514,-30 514,0 673,0 673,-30"/>
<text text-anchor="start" x="522" y="-18" font-family="Helvetica,sans-Serif" font-size="10.00">Source/MemaProcessorEditor</text>
<text text-anchor="middle" x="593.5" y="-7" font-family="Helvetica,sans-Serif" font-size="10.00">/MemaProcessorEditor.cpp</text>
</a>
</g>
</g>
<!-- Node10&#45;&gt;Node12 -->
<g id="edge12_Node000010_Node000012" class="edge">
<title>Node10&#45;&gt;Node12</title>
<g id="a_edge12_Node000010_Node000012"><a xlink:title=" ">
<path fill="none" stroke="#63b8ff" d="M378.49,-63.78C425.37,-53.36 485.65,-39.97 530.44,-30.01"/>
<polygon fill="#63b8ff" stroke="#63b8ff" points="377.71,-60.37 368.7,-65.95 379.22,-67.2 377.71,-60.37"/>
</a>
</g>
</g>
<!-- Node13&#45;&gt;Node12 -->
<g id="edge15_Node000013_Node000012" class="edge">
<title>Node13&#45;&gt;Node12</title>
<g id="a_edge15_Node000013_Node000012"><a xlink:title=" ">
<path fill="none" stroke="#63b8ff" d="M882.57,-64.81C818.98,-54.08 734.5,-39.81 673.3,-29.48"/>
<polygon fill="#63b8ff" stroke="#63b8ff" points="882.14,-68.29 892.59,-66.51 883.31,-61.39 882.14,-68.29"/>
</a>
</g>
</g>
<!-- Node14 -->
<g id="Node000014" class="node">
<title>Node14</title>
<g id="a_Node000014"><a xlink:href="InputControlComponent_8cpp.html" target="_top" xlink:title=" ">
<polygon fill="white" stroke="#666666" points="1136,-30 977,-30 977,0 1136,0 1136,-30"/>
<text text-anchor="start" x="985" y="-18" font-family="Helvetica,sans-Serif" font-size="10.00">Source/MemaProcessorEditor</text>
<text text-anchor="middle" x="1056.5" y="-7" font-family="Helvetica,sans-Serif" font-size="10.00">/InputControlComponent.cpp</text>
</a>
</g>
</g>
<!-- Node13&#45;&gt;Node14 -->
<g id="edge14_Node000013_Node000014" class="edge">
<title>Node13&#45;&gt;Node14</title>
<g id="a_edge14_Node000013_Node000014"><a xlink:title=" ">
<path fill="none" stroke="#63b8ff" d="M999.44,-59.48C1011.99,-49.91 1026.61,-38.77 1037.91,-30.16"/>
<polygon fill="#63b8ff" stroke="#63b8ff" points="996.98,-56.95 991.14,-65.8 1001.22,-62.52 996.98,-56.95"/>
</a>
</g>
</g>
<!-- Node15&#45;&gt;Node12 -->
<g id="edge17_Node000015_Node000012" class="edge">
<title>Node15&#45;&gt;Node12</title>
<g id="a_edge17_Node000015_Node000012"><a xlink:title=" ">
<path fill="none" stroke="#63b8ff" d="M741.39,-62.86C708.95,-52.58 668.23,-39.68 637.73,-30.01"/>
<polygon fill="#63b8ff" stroke="#63b8ff" points="740.58,-66.27 751.17,-65.95 742.69,-59.6 740.58,-66.27"/>
</a>
</g>
</g>
<!-- Node16 -->
<g id="Node000016" class="node">
<title>Node16</title>
<g id="a_Node000016"><a xlink:href="OutputControlComponent_8cpp.html" target="_top" xlink:title=" ">
<polygon fill="white" stroke="#666666" points="958.5,-30 794.5,-30 794.5,0 958.5,0 958.5,-30"/>
<text text-anchor="start" x="802.5" y="-18" font-family="Helvetica,sans-Serif" font-size="10.00">Source/MemaProcessorEditor</text>
<text text-anchor="middle" x="876.5" y="-7" font-family="Helvetica,sans-Serif" font-size="10.00">/OutputControlComponent.cpp</text>
</a>
</g>
</g>
<!-- Node15&#45;&gt;Node16 -->
<g id="edge18_Node000015_Node000016" class="edge">
<title>Node15&#45;&gt;Node16</title>
<g id="a_edge18_Node000015_Node000016"><a xlink:title=" ">
<path fill="none" stroke="#63b8ff" d="M821.47,-59.48C833.58,-49.91 847.68,-38.77 858.57,-30.16"/>
<polygon fill="#63b8ff" stroke="#63b8ff" points="819.15,-56.85 813.48,-65.8 823.49,-62.34 819.15,-56.85"/>
</a>
</g>
</g>
<!-- Node17&#45;&gt;Node3 -->
<g id="edge22_Node000017_Node000003" class="edge">
<title>Node17&#45;&gt;Node3</title>
<g id="a_edge22_Node000017_Node000003"><a xlink:title=" ">
<path fill="none" stroke="#63b8ff" d="M1227.04,-260.97C1200.84,-252.84 1170.91,-241.82 1145.5,-228 1126.6,-217.72 1125.54,-209.73 1107.5,-198 1082.18,-181.54 1050.87,-165.89 1031.28,-156.62"/>
<polygon fill="#63b8ff" stroke="#63b8ff" points="1226.3,-264.41 1236.88,-263.95 1228.32,-257.71 1226.3,-264.41"/>
</a>
</g>
</g>
<!-- Node17&#45;&gt;Node4 -->
<g id="edge23_Node000017_Node000004" class="edge">
<title>Node17&#45;&gt;Node4</title>
<g id="a_edge23_Node000017_Node000004"><a xlink:title=" ">
<path fill="none" stroke="#63b8ff" d="M1314.28,-256.37C1328.37,-239.67 1341.96,-216.4 1329.5,-198 1314.43,-175.74 1287.68,-163.39 1262.77,-156.54"/>
<polygon fill="#63b8ff" stroke="#63b8ff" points="1311.52,-254.2 1307.44,-263.98 1316.73,-258.88 1311.52,-254.2"/>
</a>
</g>
</g>
<!-- Node18 -->
<g id="Node000018" class="node">
<title>Node18</title>
<g id="a_Node000018"><a xlink:href="MemaMo_2MainComponent_8cpp.html" target="_top" xlink:title=" ">
<polygon fill="white" stroke="#666666" points="1320.5,-222.5 1154.5,-222.5 1154.5,-203.5 1320.5,-203.5 1320.5,-222.5"/>
<text text-anchor="middle" x="1237.5" y="-210.5" font-family="Helvetica,sans-Serif" font-size="10.00">MemaMo/MainComponent.cpp</text>
</a>
</g>
</g>
<!-- Node17&#45;&gt;Node18 -->
<g id="edge20_Node000017_Node000018" class="edge">
<title>Node17&#45;&gt;Node18</title>
<g id="a_edge20_Node000017_Node000018"><a xlink:title=" ">
<path fill="none" stroke="#63b8ff" d="M1273.55,-255.94C1263.78,-244.58 1252.42,-231.36 1245.1,-222.84"/>
<polygon fill="#63b8ff" stroke="#63b8ff" points="1271.12,-258.49 1280.29,-263.8 1276.43,-253.93 1271.12,-258.49"/>
</a>
</g>
</g>
<!-- Node19 -->
<g id="Node000019" class="node">
<title>Node19</title>
<g id="a_Node000019"><a xlink:href="MemaMoComponent_8cpp.html" target="_top" xlink:title=" ">
<polygon fill="white" stroke="#666666" points="1907.5,-24.5 1719.5,-24.5 1719.5,-5.5 1907.5,-5.5 1907.5,-24.5"/>
<text text-anchor="middle" x="1813.5" y="-12.5" font-family="Helvetica,sans-Serif" font-size="10.00">MemaMo/MemaMoComponent.cpp</text>
</a>
</g>
</g>
<!-- Node17&#45;&gt;Node19 -->
<g id="edge21_Node000017_Node000019" class="edge">
<title>Node17&#45;&gt;Node19</title>
<g id="a_edge21_Node000017_Node000019"><a xlink:title=" ">
<path fill="none" stroke="#63b8ff" d="M1334.65,-259.8C1381.54,-238.83 1458.82,-202.05 1520.5,-162 1538.26,-150.47 1538.02,-140.29 1557.5,-132 1617.46,-106.49 1805.35,-144.82 1848.5,-96 1867.68,-74.3 1838.76,-40.45 1822.83,-24.66"/>
<polygon fill="#63b8ff" stroke="#63b8ff" points="1333.12,-256.65 1325.4,-263.91 1335.96,-263.05 1333.12,-256.65"/>
</a>
</g>
</g>
<!-- Node17&#45;&gt;Node20 -->
<g id="edge24_Node000017_Node000020" class="edge">
<title>Node17&#45;&gt;Node20</title>
<g id="a_edge24_Node000017_Node000020"><a xlink:title=" ">
<path fill="none" stroke="#63b8ff" d="M1368.16,-263.76C1427.77,-252.54 1510.01,-237.06 1566.86,-226.36"/>
<polygon fill="#63b8ff" stroke="#63b8ff" points="1367.24,-260.37 1358.06,-265.66 1368.53,-267.25 1367.24,-260.37"/>
</a>
</g>
</g>
<!-- Node20&#45;&gt;Node4 -->
<g id="edge26_Node000020_Node000004" class="edge">
<title>Node20&#45;&gt;Node4</title>
<g id="a_edge26_Node000020_Node000004"><a xlink:title=" ">
<path fill="none" stroke="#63b8ff" d="M1556.52,-200.64C1472.05,-188.01 1337.56,-167.9 1261.6,-156.54"/>
<polygon fill="#63b8ff" stroke="#63b8ff" points="1556.16,-204.12 1566.56,-202.14 1557.19,-197.2 1556.16,-204.12"/>
</a>
</g>
</g>
<!-- Node20&#45;&gt;Node9 -->
<g id="edge29_Node000020_Node000009" class="edge">
<title>Node20&#45;&gt;Node9</title>
<g id="a_edge29_Node000020_Node000009"><a xlink:title=" ">
<path fill="none" stroke="#63b8ff" d="M1556.82,-209.09C1496.72,-204.43 1411.74,-192.46 1343.5,-162 1323.85,-153.23 1325.61,-139.66 1305.5,-132 1181.1,-84.58 839.63,-112.25 707.5,-96 704.48,-95.63 701.39,-95.21 698.28,-94.76"/>
<polygon fill="#63b8ff" stroke="#63b8ff" points="1556.76,-212.6 1566.99,-209.83 1557.27,-205.62 1556.76,-212.6"/>
</a>
</g>
</g>
<!-- Node20&#45;&gt;Node19 -->
<g id="edge25_Node000020_Node000019" class="edge">
<title>Node20&#45;&gt;Node19</title>
<g id="a_edge25_Node000020_Node000019"><a xlink:title=" ">
<path fill="none" stroke="#63b8ff" d="M1708,-203.18C1764.44,-195.16 1835.5,-181.57 1857.5,-162 1890.28,-132.84 1900.17,-105.22 1880.5,-66 1870.74,-46.54 1849.42,-32.72 1833.43,-24.61"/>
<polygon fill="#63b8ff" stroke="#63b8ff" points="1707.43,-199.73 1698,-204.57 1708.39,-206.66 1707.43,-199.73"/>
</a>
</g>
</g>
<!-- Node21 -->
<g id="Node000021" class="node">
<title>Node21</title>
<g id="a_Node000021"><a xlink:href="HeadlessCLIMenu_8cpp.html" target="_top" xlink:title=" ">
<polygon fill="white" stroke="#666666" points="1726.5,-156.5 1566.5,-156.5 1566.5,-137.5 1726.5,-137.5 1726.5,-156.5"/>
<text text-anchor="middle" x="1646.5" y="-144.5" font-family="Helvetica,sans-Serif" font-size="10.00">Source/HeadlessCLIMenu.cpp</text>
</a>
</g>
</g>
<!-- Node20&#45;&gt;Node21 -->
<g id="edge27_Node000020_Node000021" class="edge">
<title>Node20&#45;&gt;Node21</title>
<g id="a_edge27_Node000020_Node000021"><a xlink:title=" ">
<path fill="none" stroke="#63b8ff" d="M1637.76,-187.94C1640.14,-177.06 1642.81,-164.86 1644.57,-156.84"/>
<polygon fill="#63b8ff" stroke="#63b8ff" points="1634.32,-187.28 1635.61,-197.8 1641.16,-188.78 1634.32,-187.28"/>
</a>
</g>
</g>
<!-- Node22 -->
<g id="Node000022" class="node">
<title>Node22</title>
<g id="a_Node000022"><a xlink:href="Mema_8cpp.html" target="_top" xlink:title=" ">
<polygon fill="white" stroke="#666666" points="1848.5,-156.5 1744.5,-156.5 1744.5,-137.5 1848.5,-137.5 1848.5,-156.5"/>
<text text-anchor="middle" x="1796.5" y="-144.5" font-family="Helvetica,sans-Serif" font-size="10.00">Source/Mema.cpp</text>
</a>
</g>
</g>
<!-- Node20&#45;&gt;Node22 -->
<g id="edge28_Node000020_Node000022" class="edge">
<title>Node20&#45;&gt;Node22</title>
<g id="a_edge28_Node000020_Node000022"><a xlink:title=" ">
<path fill="none" stroke="#63b8ff" d="M1677.96,-194.26C1709.5,-181.95 1750.1,-166.11 1774.67,-156.52"/>
<polygon fill="#63b8ff" stroke="#63b8ff" points="1676.53,-191.06 1668.49,-197.95 1679.08,-197.58 1676.53,-191.06"/>
</a>
</g>
</g>
<!-- Node23 -->
<g id="Node000023" class="node">
<title>Node23</title>
<g id="a_Node000023"><a xlink:href="AbstractAudioVisualizer_8h.html" target="_top" xlink:title=" ">
<polygon fill="white" stroke="#666666" points="1511,-162 1352,-162 1352,-132 1511,-132 1511,-162"/>
<text text-anchor="start" x="1360" y="-150" font-family="Helvetica,sans-Serif" font-size="10.00">Source/MemaProcessorEditor</text>
<text text-anchor="middle" x="1431.5" y="-139" font-family="Helvetica,sans-Serif" font-size="10.00">/AbstractAudioVisualizer.h</text>
</a>
</g>
</g>
<!-- Node20&#45;&gt;Node23 -->
<g id="edge30_Node000020_Node000023" class="edge">
<title>Node20&#45;&gt;Node23</title>
<g id="a_edge30_Node000020_Node000023"><a xlink:title=" ">
<path fill="none" stroke="#63b8ff" d="M1578.66,-194.86C1546.38,-184.58 1505.86,-171.68 1475.51,-162.01"/>
<polygon fill="#63b8ff" stroke="#63b8ff" points="1577.8,-198.26 1588.39,-197.95 1579.92,-191.59 1577.8,-198.26"/>
</a>
</g>
</g>
<!-- Node23&#45;&gt;Node13 -->
<g id="edge45_Node000023_Node000013" class="edge">
<title>Node23&#45;&gt;Node13</title>
<g id="a_edge45_Node000023_Node000013"><a xlink:title=" ">
<path fill="none" stroke="#63b8ff" d="M1341.79,-132.47C1340.69,-132.31 1339.59,-132.15 1338.5,-132 1217.32,-114.89 1186.68,-113.11 1065.5,-96 1061.13,-95.38 1056.66,-94.74 1052.14,-94.09"/>
<polygon fill="#63b8ff" stroke="#63b8ff" points="1341.47,-135.96 1351.86,-133.91 1342.46,-129.03 1341.47,-135.96"/>
</a>
</g>
</g>
<!-- Node23&#45;&gt;Node14 -->
<g id="edge44_Node000023_Node000014" class="edge">
<title>Node23&#45;&gt;Node14</title>
<g id="a_edge44_Node000023_Node000014"><a xlink:title=" ">
<path fill="none" stroke="#63b8ff" d="M1341.67,-132.13C1258.31,-119.05 1145.72,-100.76 1136.5,-96 1105.96,-80.23 1079.79,-48.64 1066.29,-30.22"/>
<polygon fill="#63b8ff" stroke="#63b8ff" points="1341.26,-135.61 1351.68,-133.7 1342.35,-128.69 1341.26,-135.61"/>
</a>
</g>
</g>
<!-- Node23&#45;&gt;Node15 -->
<g id="edge52_Node000023_Node000015" class="edge">
<title>Node23&#45;&gt;Node15</title>
<g id="a_edge52_Node000023_Node000015"><a xlink:title=" ">
<path fill="none" stroke="#63b8ff" d="M1341.8,-132.39C1340.7,-132.25 1339.59,-132.13 1338.5,-132 1137.41,-108.92 1085.51,-119.74 884.5,-96 881.39,-95.63 878.23,-95.24 875.03,-94.82"/>
<polygon fill="#63b8ff" stroke="#63b8ff" points="1341.54,-135.88 1351.9,-133.64 1342.41,-128.93 1341.54,-135.88"/>
</a>
</g>
</g>
<!-- Node23&#45;&gt;Node16 -->
<g id="edge51_Node000023_Node000016" class="edge">
<title>Node23&#45;&gt;Node16</title>
<g id="a_edge51_Node000023_Node000016"><a xlink:title=" ">
<path fill="none" stroke="#63b8ff" d="M1341.79,-132.49C1340.69,-132.33 1339.59,-132.16 1338.5,-132 1229.64,-115.81 1192.62,-143.82 1093.5,-96 1075.94,-87.53 1078.53,-75.49 1061.5,-66 1029.97,-48.42 991.93,-36.76 958.57,-29.16"/>
<polygon fill="#63b8ff" stroke="#63b8ff" points="1341.45,-135.98 1351.85,-133.99 1342.48,-129.05 1341.45,-135.98"/>
</a>
</g>
</g>
<!-- Node24 -->
<g id="Node000024" class="node">
<title>Node24</title>
<g id="a_Node000024"><a xlink:href="SpectrumAudioComponent_8h.html" target="_top" xlink:title=" ">
<polygon fill="white" stroke="#666666" points="1839,-96 1680,-96 1680,-66 1839,-66 1839,-96"/>
<text text-anchor="start" x="1688" y="-84" font-family="Helvetica,sans-Serif" font-size="10.00">Source/MemaClientCommon</text>
<text text-anchor="middle" x="1759.5" y="-73" font-family="Helvetica,sans-Serif" font-size="10.00">/SpectrumAudioComponent.h</text>
</a>
</g>
</g>
<!-- Node23&#45;&gt;Node24 -->
<g id="edge31_Node000023_Node000024" class="edge">
<title>Node23&#45;&gt;Node24</title>
<g id="a_edge31_Node000023_Node000024"><a xlink:title=" ">
<path fill="none" stroke="#63b8ff" d="M1513.63,-129.98C1567.16,-119.53 1636.35,-106.03 1687.69,-96.01"/>
<polygon fill="#63b8ff" stroke="#63b8ff" points="1512.63,-126.6 1503.48,-131.95 1513.97,-133.47 1512.63,-126.6"/>
</a>
</g>
</g>
<!-- Node26 -->
<g id="Node000026" class="node">
<title>Node26</title>
<g id="a_Node000026"><a xlink:href="TwoDFieldMultisliderComponent_8h.html" target="_top" xlink:title=" ">
<polygon fill="white" stroke="#666666" points="2302.5,-96 2116.5,-96 2116.5,-66 2302.5,-66 2302.5,-96"/>
<text text-anchor="start" x="2124.5" y="-84" font-family="Helvetica,sans-Serif" font-size="10.00">Source/MemaClientCommon</text>
<text text-anchor="middle" x="2209.5" y="-73" font-family="Helvetica,sans-Serif" font-size="10.00">/TwoDFieldMultisliderComponent.h</text>
</a>
</g>
</g>
<!-- Node23&#45;&gt;Node26 -->
<g id="edge34_Node000023_Node000026" class="edge">
<title>Node23&#45;&gt;Node26</title>
<g id="a_edge34_Node000023_Node000026"><a xlink:title=" ">
<path fill="none" stroke="#63b8ff" d="M1521.26,-135.52C1533.43,-134.25 1545.77,-133.03 1557.5,-132 1801.96,-110.44 1864.35,-120.86 2108.5,-96 2111.05,-95.74 2113.64,-95.46 2116.25,-95.18"/>
<polygon fill="#63b8ff" stroke="#63b8ff" points="1520.67,-132.06 1511.09,-136.6 1521.41,-139.03 1520.67,-132.06"/>
</a>
</g>
</g>
<!-- Node29 -->
<g id="Node000029" class="node">
<title>Node29</title>
<g id="a_Node000029"><a xlink:href="TwoDFieldOutputComponent_8h.html" target="_top" xlink:title=" ">
<polygon fill="white" stroke="#666666" points="2099,-96 1932,-96 1932,-66 2099,-66 2099,-96"/>
<text text-anchor="start" x="1940" y="-84" font-family="Helvetica,sans-Serif" font-size="10.00">Source/MemaClientCommon</text>
<text text-anchor="middle" x="2015.5" y="-73" font-family="Helvetica,sans-Serif" font-size="10.00">/TwoDFieldOutputComponent.h</text>
</a>
</g>
</g>
<!-- Node23&#45;&gt;Node29 -->
<g id="edge37_Node000023_Node000029" class="edge">
<title>Node23&#45;&gt;Node29</title>
<g id="a_edge37_Node000023_Node000029"><a xlink:title=" ">
<path fill="none" stroke="#63b8ff" d="M1521.31,-136C1533.47,-134.65 1545.79,-133.29 1557.5,-132 1688.29,-117.6 1840.1,-101.06 1931.92,-91.08"/>
<polygon fill="#63b8ff" stroke="#63b8ff" points="1520.7,-132.55 1511.15,-137.13 1521.47,-139.5 1520.7,-132.55"/>
</a>
</g>
</g>
<!-- Node31 -->
<g id="Node000031" class="node">
<title>Node31</title>
<g id="a_Node000031"><a xlink:href="WaveformAudioComponent_8h.html" target="_top" xlink:title=" ">
<polygon fill="white" stroke="#666666" points="1485,-96 1322,-96 1322,-66 1485,-66 1485,-96"/>
<text text-anchor="start" x="1330" y="-84" font-family="Helvetica,sans-Serif" font-size="10.00">Source/MemaClientCommon</text>
<text text-anchor="middle" x="1403.5" y="-73" font-family="Helvetica,sans-Serif" font-size="10.00">/WaveformAudioComponent.h</text>
</a>
</g>
</g>
<!-- Node23&#45;&gt;Node31 -->
<g id="edge40_Node000023_Node000031" class="edge">
<title>Node23&#45;&gt;Node31</title>
<g id="a_edge40_Node000023_Node000031"><a xlink:title=" ">
<path fill="none" stroke="#63b8ff" d="M1421.17,-122.39C1417.32,-113.59 1413.07,-103.86 1409.7,-96.16"/>
<polygon fill="#63b8ff" stroke="#63b8ff" points="1418.07,-124.04 1425.29,-131.8 1424.48,-121.23 1418.07,-124.04"/>
</a>
</g>
</g>
<!-- Node33 -->
<g id="Node000033" class="node">
<title>Node33</title>
<g id="a_Node000033"><a xlink:href="AbstractAudioVisualizer_8cpp.html" target="_top" xlink:title=" ">
<polygon fill="white" stroke="#666666" points="1662,-96 1503,-96 1503,-66 1662,-66 1662,-96"/>
<text text-anchor="start" x="1511" y="-84" font-family="Helvetica,sans-Serif" font-size="10.00">Source/MemaProcessorEditor</text>
<text text-anchor="middle" x="1582.5" y="-73" font-family="Helvetica,sans-Serif" font-size="10.00">/AbstractAudioVisualizer.cpp</text>
</a>
</g>
</g>
<!-- Node23&#45;&gt;Node33 -->
<g id="edge43_Node000023_Node000033" class="edge">
<title>Node23&#45;&gt;Node33</title>
<g id="a_edge43_Node000023_Node000033"><a xlink:title=" ">
<path fill="none" stroke="#63b8ff" d="M1474.16,-127.92C1498.03,-117.8 1527.33,-105.38 1549.44,-96.01"/>
<polygon fill="#63b8ff" stroke="#63b8ff" points="1472.48,-124.83 1464.64,-131.95 1475.21,-131.28 1472.48,-124.83"/>
</a>
</g>
</g>
<!-- Node34 -->
<g id="Node000034" class="node">
<title>Node34</title>
<g id="a_Node000034"><a xlink:href="MeterbridgeComponent_8h.html" target="_top" xlink:title=" ">
<polygon fill="white" stroke="#666666" points="1304,-96 1145,-96 1145,-66 1304,-66 1304,-96"/>
<text text-anchor="start" x="1153" y="-84" font-family="Helvetica,sans-Serif" font-size="10.00">Source/MemaProcessorEditor</text>
<text text-anchor="middle" x="1224.5" y="-73" font-family="Helvetica,sans-Serif" font-size="10.00">/MeterbridgeComponent.h</text>
</a>
</g>
</g>
<!-- Node23&#45;&gt;Node34 -->
<g id="edge46_Node000023_Node000034" class="edge">
<title>Node23&#45;&gt;Node34</title>
<g id="a_edge46_Node000023_Node000034"><a xlink:title=" ">
<path fill="none" stroke="#63b8ff" d="M1376.48,-128.99C1343.17,-118.69 1301.21,-105.72 1269.82,-96.01"/>
<polygon fill="#63b8ff" stroke="#63b8ff" points="1375.49,-132.34 1386.07,-131.95 1377.55,-125.66 1375.49,-132.34"/>
</a>
</g>
</g>
<!-- Node24&#45;&gt;Node19 -->
<g id="edge32_Node000024_Node000019" class="edge">
<title>Node24&#45;&gt;Node19</title>
<g id="a_edge32_Node000024_Node000019"><a xlink:title=" ">
<path fill="none" stroke="#63b8ff" d="M1778.11,-57.94C1787.7,-46.58 1798.85,-33.36 1806.04,-24.84"/>
<polygon fill="#63b8ff" stroke="#63b8ff" points="1775.26,-55.9 1771.48,-65.8 1780.61,-60.41 1775.26,-55.9"/>
</a>
</g>
</g>
<!-- Node25 -->
<g id="Node000025" class="node">
<title>Node25</title>
<g id="a_Node000025"><a xlink:href="SpectrumAudioComponent_8cpp.html" target="_top" xlink:title=" ">
<polygon fill="white" stroke="#666666" points="1701.5,-30 1531.5,-30 1531.5,0 1701.5,0 1701.5,-30"/>
<text text-anchor="start" x="1539.5" y="-18" font-family="Helvetica,sans-Serif" font-size="10.00">Source/MemaClientCommon</text>
<text text-anchor="middle" x="1616.5" y="-7" font-family="Helvetica,sans-Serif" font-size="10.00">/SpectrumAudioComponent.cpp</text>
</a>
</g>
</g>
<!-- Node24&#45;&gt;Node25 -->
<g id="edge33_Node000024_Node000025" class="edge">
<title>Node24&#45;&gt;Node25</title>
<g id="a_edge33_Node000024_Node000025"><a xlink:title=" ">
<path fill="none" stroke="#63b8ff" d="M1718.8,-61.78C1696.25,-51.69 1668.66,-39.34 1647.81,-30.01"/>
<polygon fill="#63b8ff" stroke="#63b8ff" points="1717.56,-65.06 1728.12,-65.95 1720.42,-58.68 1717.56,-65.06"/>
</a>
</g>
</g>
<!-- Node27 -->
<g id="Node000027" class="node">
<title>Node27</title>
<g id="a_Node000027"><a xlink:href="PanningControlComponent_8cpp.html" target="_top" xlink:title=" ">
<polygon fill="white" stroke="#666666" points="2293.5,-30 2123.5,-30 2123.5,0 2293.5,0 2293.5,-30"/>
<text text-anchor="start" x="2131.5" y="-18" font-family="Helvetica,sans-Serif" font-size="10.00">Source/MemaClientCommon</text>
<text text-anchor="middle" x="2208.5" y="-7" font-family="Helvetica,sans-Serif" font-size="10.00">/PanningControlComponent.cpp</text>
</a>
</g>
</g>
<!-- Node26&#45;&gt;Node27 -->
<g id="edge35_Node000026_Node000027" class="edge">
<title>Node26&#45;&gt;Node27</title>
<g id="a_edge35_Node000026_Node000027"><a xlink:title=" ">
<path fill="none" stroke="#63b8ff" d="M2209.12,-55.54C2208.98,-46.96 2208.84,-37.61 2208.72,-30.16"/>
<polygon fill="#63b8ff" stroke="#63b8ff" points="2205.62,-55.85 2209.28,-65.8 2212.62,-55.74 2205.62,-55.85"/>
</a>
</g>
</g>
<!-- Node28 -->
<g id="Node000028" class="node">
<title>Node28</title>
<g id="a_Node000028"><a xlink:href="TwoDFieldMultisliderComponent_8cpp.html" target="_top" xlink:title=" ">
<polygon fill="white" stroke="#666666" points="2509,-30 2312,-30 2312,0 2509,0 2509,-30"/>
<text text-anchor="start" x="2320" y="-18" font-family="Helvetica,sans-Serif" font-size="10.00">Source/MemaClientCommon</text>
<text text-anchor="middle" x="2410.5" y="-7" font-family="Helvetica,sans-Serif" font-size="10.00">/TwoDFieldMultisliderComponent.cpp</text>
</a>
</g>
</g>
<!-- Node26&#45;&gt;Node28 -->
<g id="edge36_Node000026_Node000028" class="edge">
<title>Node26&#45;&gt;Node28</title>
<g id="a_edge36_Node000026_Node000028"><a xlink:title=" ">
<path fill="none" stroke="#63b8ff" d="M2263.34,-62.86C2295.62,-52.58 2336.14,-39.68 2366.49,-30.01"/>
<polygon fill="#63b8ff" stroke="#63b8ff" points="2262.08,-59.59 2253.61,-65.95 2264.2,-66.26 2262.08,-59.59"/>
</a>
</g>
</g>
<!-- Node29&#45;&gt;Node19 -->
<g id="edge38_Node000029_Node000019" class="edge">
<title>Node29&#45;&gt;Node19</title>
<g id="a_edge38_Node000029_Node000019"><a xlink:title=" ">
<path fill="none" stroke="#63b8ff" d="M1961.51,-62.89C1922.39,-50.5 1871.17,-34.27 1840.38,-24.52"/>
<polygon fill="#63b8ff" stroke="#63b8ff" points="1960.58,-66.27 1971.17,-65.95 1962.69,-59.6 1960.58,-66.27"/>
</a>
</g>
</g>
<!-- Node30 -->
<g id="Node000030" class="node">
<title>Node30</title>
<g id="a_Node000030"><a xlink:href="TwoDFieldOutputComponent_8cpp.html" target="_top" xlink:title=" ">
<polygon fill="white" stroke="#666666" points="2105,-30 1926,-30 1926,0 2105,0 2105,-30"/>
<text text-anchor="start" x="1934" y="-18" font-family="Helvetica,sans-Serif" font-size="10.00">Source/MemaClientCommon</text>
<text text-anchor="middle" x="2015.5" y="-7" font-family="Helvetica,sans-Serif" font-size="10.00">/TwoDFieldOutputComponent.cpp</text>
</a>
</g>
</g>
<!-- Node29&#45;&gt;Node30 -->
<g id="edge39_Node000029_Node000030" class="edge">
<title>Node29&#45;&gt;Node30</title>
<g id="a_edge39_Node000029_Node000030"><a xlink:title=" ">
<path fill="none" stroke="#63b8ff" d="M2015.5,-55.54C2015.5,-46.96 2015.5,-37.61 2015.5,-30.16"/>
<polygon fill="#63b8ff" stroke="#63b8ff" points="2012,-55.8 2015.5,-65.8 2019,-55.8 2012,-55.8"/>
</a>
</g>
</g>
<!-- Node31&#45;&gt;Node19 -->
<g id="edge41_Node000031_Node000019" class="edge">
<title>Node31&#45;&gt;Node19</title>
<g id="a_edge41_Node000031_Node000019"><a xlink:title=" ">
<path fill="none" stroke="#63b8ff" d="M1495.68,-65.61C1576.62,-52.98 1691.64,-35.02 1758.83,-24.53"/>
<polygon fill="#63b8ff" stroke="#63b8ff" points="1494.82,-62.2 1485.48,-67.2 1495.9,-69.12 1494.82,-62.2"/>
</a>
</g>
</g>
<!-- Node32 -->
<g id="Node000032" class="node">
<title>Node32</title>
<g id="a_Node000032"><a xlink:href="WaveformAudioComponent_8cpp.html" target="_top" xlink:title=" ">
<polygon fill="white" stroke="#666666" points="1505.5,-30 1331.5,-30 1331.5,0 1505.5,0 1505.5,-30"/>
<text text-anchor="start" x="1339.5" y="-18" font-family="Helvetica,sans-Serif" font-size="10.00">Source/MemaClientCommon</text>
<text text-anchor="middle" x="1418.5" y="-7" font-family="Helvetica,sans-Serif" font-size="10.00">/WaveformAudioComponent.cpp</text>
</a>
</g>
</g>
<!-- Node31&#45;&gt;Node32 -->
<g id="edge42_Node000031_Node000032" class="edge">
<title>Node31&#45;&gt;Node32</title>
<g id="a_edge42_Node000031_Node000032"><a xlink:title=" ">
<path fill="none" stroke="#63b8ff" d="M1409.17,-55.83C1411.19,-47.17 1413.41,-37.7 1415.18,-30.16"/>
<polygon fill="#63b8ff" stroke="#63b8ff" points="1405.7,-55.26 1406.83,-65.8 1412.52,-56.86 1405.7,-55.26"/>
</a>
</g>
</g>
<!-- Node34&#45;&gt;Node14 -->
<g id="edge48_Node000034_Node000014" class="edge">
<title>Node34&#45;&gt;Node14</title>
<g id="a_edge48_Node000034_Node000014"><a xlink:title=" ">
<path fill="none" stroke="#63b8ff" d="M1178.1,-62.32C1151.36,-52.14 1118.21,-39.51 1093.28,-30.01"/>
<polygon fill="#63b8ff" stroke="#63b8ff" points="1177.04,-65.67 1187.63,-65.95 1179.53,-59.12 1177.04,-65.67"/>
</a>
</g>
</g>
<!-- Node34&#45;&gt;Node16 -->
<g id="edge50_Node000034_Node000016" class="edge">
<title>Node34&#45;&gt;Node16</title>
<g id="a_edge50_Node000034_Node000016"><a xlink:title=" ">
<path fill="none" stroke="#63b8ff" d="M1138.07,-64.11C1081.18,-53.64 1007.39,-40.07 952.69,-30.01"/>
<polygon fill="#63b8ff" stroke="#63b8ff" points="1137.66,-67.59 1148.13,-65.95 1138.93,-60.7 1137.66,-67.59"/>
</a>
</g>
</g>
<!-- Node34&#45;&gt;Node19 -->
<g id="edge47_Node000034_Node000019" class="edge">
<title>Node34&#45;&gt;Node19</title>
<g id="a_edge47_Node000034_Node000019"><a xlink:title=" ">
<path fill="none" stroke="#63b8ff" d="M1314.21,-65.97C1491.04,-44.43 1537.72,-49.57 1710.5,-30 1724.67,-28.4 1739.9,-26.45 1754.19,-24.52"/>
<polygon fill="#63b8ff" stroke="#63b8ff" points="1313.54,-62.53 1304.04,-67.22 1314.39,-69.48 1313.54,-62.53"/>
</a>
</g>
</g>
<!-- Node35 -->
<g id="Node000035" class="node">
<title>Node35</title>
<g id="a_Node000035"><a xlink:href="MeterbridgeComponent_8cpp.html" target="_top" xlink:title=" ">
<polygon fill="white" stroke="#666666" points="1313,-30 1154,-30 1154,0 1313,0 1313,-30"/>
<text text-anchor="start" x="1162" y="-18" font-family="Helvetica,sans-Serif" font-size="10.00">Source/MemaProcessorEditor</text>
<text text-anchor="middle" x="1233.5" y="-7" font-family="Helvetica,sans-Serif" font-size="10.00">/MeterbridgeComponent.cpp</text>
</a>
</g>
</g>
<!-- Node34&#45;&gt;Node35 -->
<g id="edge49_Node000034_Node000035" class="edge">
<title>Node34&#45;&gt;Node35</title>
<g id="a_edge49_Node000034_Node000035"><a xlink:title=" ">
<path fill="none" stroke="#63b8ff" d="M1227.9,-55.83C1229.12,-47.17 1230.45,-37.7 1231.51,-30.16"/>
<polygon fill="#63b8ff" stroke="#63b8ff" points="1224.42,-55.41 1226.5,-65.8 1231.36,-56.38 1224.42,-55.41"/>
</a>
</g>
</g>
<!-- Node36&#45;&gt;Node12 -->
<g id="edge55_Node000036_Node000012" class="edge">
<title>Node36&#45;&gt;Node12</title>
<g id="a_edge55_Node000036_Node000012"><a xlink:title=" ">
<path fill="none" stroke="#63b8ff" d="M183,-253.96C172.75,-210.12 158.67,-117.04 207.5,-66 218,-55.03 404.06,-34.81 513.96,-23.75"/>
<polygon fill="#63b8ff" stroke="#63b8ff" points="179.62,-254.88 185.42,-263.74 186.41,-253.2 179.62,-254.88"/>
</a>
</g>
</g>
<!-- Node37 -->
<g id="Node000037" class="node">
<title>Node37</title>
<g id="a_Node000037"><a xlink:href="MemaProcessorEditor_2PluginControlComponent_8cpp.html" target="_top" xlink:title=" ">
<polygon fill="white" stroke="#666666" points="161,-228 0,-228 0,-198 161,-198 161,-228"/>
<text text-anchor="start" x="8" y="-216" font-family="Helvetica,sans-Serif" font-size="10.00">Source/MemaProcessorEditor</text>
<text text-anchor="middle" x="80.5" y="-205" font-family="Helvetica,sans-Serif" font-size="10.00">/PluginControlComponent.cpp</text>
</a>
</g>
</g>
<!-- Node36&#45;&gt;Node37 -->
<g id="edge56_Node000036_Node000037" class="edge">
<title>Node36&#45;&gt;Node37</title>
<g id="a_edge56_Node000036_Node000037"><a xlink:title=" ">
<path fill="none" stroke="#63b8ff" d="M156.62,-258.69C139.79,-248.82 119.69,-237.01 104.36,-228.01"/>
<polygon fill="#63b8ff" stroke="#63b8ff" points="155.18,-261.91 165.58,-263.95 158.73,-255.87 155.18,-261.91"/>
</a>
</g>
</g>
</g>
</svg>
