<?xml version="1.0" encoding="UTF-8" standalone="no"?>
<!DOCTYPE svg PUBLIC "-//W3C//DTD SVG 1.1//EN"
 "http://www.w3.org/Graphics/SVG/1.1/DTD/svg11.dtd">
<!-- Generated by graphviz version 2.43.0 (0)
 -->
<!-- Title: Source/MemaClientCommon/MemaClientControlComponentBase.h Pages: 1 -->
<svg width="967pt" height="225pt"
 viewBox="0.00 0.00 967.00 225.00" xmlns="http://www.w3.org/2000/svg" xmlns:xlink="http://www.w3.org/1999/xlink">
<g id="graph0" class="graph" transform="scale(1 1) rotate(0) translate(4 221)">
<title>Source/MemaClientCommon/MemaClientControlComponentBase.h</title>
<!-- Node1 -->
<g id="Node000001" class="node">
<title>Node1</title>
<g id="a_Node000001"><a xlink:title=" ">
<polygon fill="#999999" stroke="#666666" points="574,-217 371,-217 371,-187 574,-187 574,-217"/>
<text text-anchor="start" x="379" y="-205" font-family="Helvetica,sans-Serif" font-size="10.00">Source/MemaClientCommon</text>
<text text-anchor="middle" x="472.5" y="-194" font-family="Helvetica,sans-Serif" font-size="10.00">/MemaClientControlComponentBase.h</text>
</a>
</g>
</g>
<!-- Node2 -->
<g id="Node000002" class="node">
<title>Node2</title>
<g id="a_Node000002"><a xlink:href="MemaRe_2MainComponent_8h.html" target="_top" xlink:title=" ">
<polygon fill="white" stroke="#666666" points="187.5,-145.5 35.5,-145.5 35.5,-126.5 187.5,-126.5 187.5,-145.5"/>
<text text-anchor="middle" x="111.5" y="-133.5" font-family="Helvetica,sans-Serif" font-size="10.00">MemaRe/MainComponent.h</text>
</a>
</g>
</g>
<!-- Node1&#45;&gt;Node2 -->
<g id="edge1_Node000001_Node000002" class="edge">
<title>Node1&#45;&gt;Node2</title>
<g id="a_edge1_Node000001_Node000002"><a xlink:title=" ">
<path fill="none" stroke="#63b8ff" d="M383.04,-185.14C312.35,-172.61 216.43,-155.6 159.54,-145.52"/>
<polygon fill="#63b8ff" stroke="#63b8ff" points="382.82,-188.66 393.28,-186.95 384.04,-181.76 382.82,-188.66"/>
</a>
</g>
</g>
<!-- Node5 -->
<g id="Node000005" class="node">
<title>Node5</title>
<g id="a_Node000005"><a xlink:href="FaderbankControlComponent_8h.html" target="_top" xlink:title=" ">
<polygon fill="white" stroke="#666666" points="375.5,-151 205.5,-151 205.5,-121 375.5,-121 375.5,-151"/>
<text text-anchor="start" x="213.5" y="-139" font-family="Helvetica,sans-Serif" font-size="10.00">Source/MemaClientCommon</text>
<text text-anchor="middle" x="290.5" y="-128" font-family="Helvetica,sans-Serif" font-size="10.00">/FaderbankControlComponent.h</text>
</a>
</g>
</g>
<!-- Node1&#45;&gt;Node5 -->
<g id="edge4_Node000001_Node000005" class="edge">
<title>Node1&#45;&gt;Node5</title>
<g id="a_edge4_Node000001_Node000005"><a xlink:title=" ">
<path fill="none" stroke="#63b8ff" d="M422.99,-183.59C393.89,-173.36 357.59,-160.59 330.35,-151.01"/>
<polygon fill="#63b8ff" stroke="#63b8ff" points="421.96,-186.94 432.56,-186.95 424.29,-180.34 421.96,-186.94"/>
</a>
</g>
</g>
<!-- Node9 -->
<g id="Node000009" class="node">
<title>Node9</title>
<g id="a_Node000009"><a xlink:href="MemaClientControlComponentBase_8cpp.html" target="_top" xlink:title=" ">
<polygon fill="white" stroke="#666666" points="959,-151 744,-151 744,-121 959,-121 959,-151"/>
<text text-anchor="start" x="752" y="-139" font-family="Helvetica,sans-Serif" font-size="10.00">Source/MemaClientCommon</text>
<text text-anchor="middle" x="851.5" y="-128" font-family="Helvetica,sans-Serif" font-size="10.00">/MemaClientControlComponentBase.cpp</text>
</a>
</g>
</g>
<!-- Node1&#45;&gt;Node9 -->
<g id="edge9_Node000001_Node000009" class="edge">
<title>Node1&#45;&gt;Node9</title>
<g id="a_edge9_Node000001_Node000009"><a xlink:title=" ">
<path fill="none" stroke="#63b8ff" d="M565.86,-185.24C627.92,-174.75 708.71,-161.11 768.52,-151.01"/>
<polygon fill="#63b8ff" stroke="#63b8ff" points="564.95,-181.84 555.67,-186.95 566.12,-188.74 564.95,-181.84"/>
</a>
</g>
</g>
<!-- Node10 -->
<g id="Node000010" class="node">
<title>Node10</title>
<g id="a_Node000010"><a xlink:href="PanningControlComponent_8h.html" target="_top" xlink:title=" ">
<polygon fill="white" stroke="#666666" points="551.5,-151 393.5,-151 393.5,-121 551.5,-121 551.5,-151"/>
<text text-anchor="start" x="401.5" y="-139" font-family="Helvetica,sans-Serif" font-size="10.00">Source/MemaClientCommon</text>
<text text-anchor="middle" x="472.5" y="-128" font-family="Helvetica,sans-Serif" font-size="10.00">/PanningControlComponent.h</text>
</a>
</g>
</g>
<!-- Node1&#45;&gt;Node10 -->
<g id="edge10_Node000001_Node000010" class="edge">
<title>Node1&#45;&gt;Node10</title>
<g id="a_edge10_Node000001_Node000010"><a xlink:title=" ">
<path fill="none" stroke="#63b8ff" d="M472.5,-176.54C472.5,-167.96 472.5,-158.61 472.5,-151.16"/>
<polygon fill="#63b8ff" stroke="#63b8ff" points="469,-176.8 472.5,-186.8 476,-176.8 469,-176.8"/>
</a>
</g>
</g>
<!-- Node12 -->
<g id="Node000012" class="node">
<title>Node12</title>
<g id="a_Node000012"><a xlink:href="MemaClientCommon_2PluginControlComponent_8h.html" target="_top" xlink:title=" ">
<polygon fill="white" stroke="#666666" points="725.5,-151 569.5,-151 569.5,-121 725.5,-121 725.5,-151"/>
<text text-anchor="start" x="577.5" y="-139" font-family="Helvetica,sans-Serif" font-size="10.00">Source/MemaClientCommon</text>
<text text-anchor="middle" x="647.5" y="-128" font-family="Helvetica,sans-Serif" font-size="10.00">/PluginControlComponent.h</text>
</a>
</g>
</g>
<!-- Node1&#45;&gt;Node12 -->
<g id="edge13_Node000001_Node000012" class="edge">
<title>Node1&#45;&gt;Node12</title>
<g id="a_edge13_Node000001_Node000012"><a xlink:title=" ">
<path fill="none" stroke="#63b8ff" d="M520.47,-183.46C548.39,-173.25 583.1,-160.55 609.19,-151.01"/>
<polygon fill="#63b8ff" stroke="#63b8ff" points="519.09,-180.23 510.9,-186.95 521.5,-186.81 519.09,-180.23"/>
</a>
</g>
</g>
<!-- Node3 -->
<g id="Node000003" class="node">
<title>Node3</title>
<g id="a_Node000003"><a xlink:href="MemaRe_2Main_8cpp.html" target="_top" xlink:title=" ">
<polygon fill="white" stroke="#666666" points="107,-79.5 0,-79.5 0,-60.5 107,-60.5 107,-79.5"/>
<text text-anchor="middle" x="53.5" y="-67.5" font-family="Helvetica,sans-Serif" font-size="10.00">MemaRe/Main.cpp</text>
</a>
</g>
</g>
<!-- Node2&#45;&gt;Node3 -->
<g id="edge2_Node000002_Node000003" class="edge">
<title>Node2&#45;&gt;Node3</title>
<g id="a_edge2_Node000002_Node000003"><a xlink:title=" ">
<path fill="none" stroke="#63b8ff" d="M96.66,-118.62C85.5,-106.31 70.62,-89.89 61.57,-79.91"/>
<polygon fill="#63b8ff" stroke="#63b8ff" points="94.37,-121.31 103.68,-126.37 99.56,-116.61 94.37,-121.31"/>
</a>
</g>
</g>
<!-- Node4 -->
<g id="Node000004" class="node">
<title>Node4</title>
<g id="a_Node000004"><a xlink:href="MemaRe_2MainComponent_8cpp.html" target="_top" xlink:title=" ">
<polygon fill="white" stroke="#666666" points="278.5,-19 114.5,-19 114.5,0 278.5,0 278.5,-19"/>
<text text-anchor="middle" x="196.5" y="-7" font-family="Helvetica,sans-Serif" font-size="10.00">MemaRe/MainComponent.cpp</text>
</a>
</g>
</g>
<!-- Node2&#45;&gt;Node4 -->
<g id="edge3_Node000002_Node000004" class="edge">
<title>Node2&#45;&gt;Node4</title>
<g id="a_edge3_Node000002_Node000004"><a xlink:title=" ">
<path fill="none" stroke="#63b8ff" d="M119.52,-116.95C127.34,-100.19 140.14,-74.91 154.5,-55 164.32,-41.39 178.02,-27.63 187.06,-19.09"/>
<polygon fill="#63b8ff" stroke="#63b8ff" points="116.28,-115.6 115.32,-126.15 122.65,-118.51 116.28,-115.6"/>
</a>
</g>
</g>
<!-- Node6 -->
<g id="Node000006" class="node">
<title>Node6</title>
<g id="a_Node000006"><a xlink:href="MemaReComponent_8h.html" target="_top" xlink:title=" ">
<polygon fill="white" stroke="#666666" points="535.5,-79.5 363.5,-79.5 363.5,-60.5 535.5,-60.5 535.5,-79.5"/>
<text text-anchor="middle" x="449.5" y="-67.5" font-family="Helvetica,sans-Serif" font-size="10.00">MemaRe/MemaReComponent.h</text>
</a>
</g>
</g>
<!-- Node5&#45;&gt;Node6 -->
<g id="edge5_Node000005_Node000006" class="edge">
<title>Node5&#45;&gt;Node6</title>
<g id="a_edge5_Node000005_Node000006"><a xlink:title=" ">
<path fill="none" stroke="#63b8ff" d="M334.97,-117.1C365.49,-104.82 404.62,-89.06 428.34,-79.52"/>
<polygon fill="#63b8ff" stroke="#63b8ff" points="333.36,-113.97 325.39,-120.95 335.98,-120.47 333.36,-113.97"/>
</a>
</g>
</g>
<!-- Node8 -->
<g id="Node000008" class="node">
<title>Node8</title>
<g id="a_Node000008"><a xlink:href="FaderbankControlComponent_8cpp.html" target="_top" xlink:title=" ">
<polygon fill="white" stroke="#666666" points="345.5,-85 163.5,-85 163.5,-55 345.5,-55 345.5,-85"/>
<text text-anchor="start" x="171.5" y="-73" font-family="Helvetica,sans-Serif" font-size="10.00">Source/MemaClientCommon</text>
<text text-anchor="middle" x="254.5" y="-62" font-family="Helvetica,sans-Serif" font-size="10.00">/FaderbankControlComponent.cpp</text>
</a>
</g>
</g>
<!-- Node5&#45;&gt;Node8 -->
<g id="edge8_Node000005_Node000008" class="edge">
<title>Node5&#45;&gt;Node8</title>
<g id="a_edge8_Node000005_Node000008"><a xlink:title=" ">
<path fill="none" stroke="#63b8ff" d="M277.54,-111.96C272.5,-103 266.89,-93.03 262.47,-85.16"/>
<polygon fill="#63b8ff" stroke="#63b8ff" points="274.56,-113.8 282.51,-120.8 280.66,-110.36 274.56,-113.8"/>
</a>
</g>
</g>
<!-- Node6&#45;&gt;Node4 -->
<g id="edge6_Node000006_Node000004" class="edge">
<title>Node6&#45;&gt;Node4</title>
<g id="a_edge6_Node000006_Node000004"><a xlink:title=" ">
<path fill="none" stroke="#63b8ff" d="M402.71,-58.18C353.82,-46.88 278.13,-29.38 233.33,-19.02"/>
<polygon fill="#63b8ff" stroke="#63b8ff" points="402.18,-61.65 412.71,-60.49 403.76,-54.83 402.18,-61.65"/>
</a>
</g>
</g>
<!-- Node7 -->
<g id="Node000007" class="node">
<title>Node7</title>
<g id="a_Node000007"><a xlink:href="MemaReComponent_8cpp.html" target="_top" xlink:title=" ">
<polygon fill="white" stroke="#666666" points="541,-19 358,-19 358,0 541,0 541,-19"/>
<text text-anchor="middle" x="449.5" y="-7" font-family="Helvetica,sans-Serif" font-size="10.00">MemaRe/MemaReComponent.cpp</text>
</a>
</g>
</g>
<!-- Node6&#45;&gt;Node7 -->
<g id="edge7_Node000006_Node000007" class="edge">
<title>Node6&#45;&gt;Node7</title>
<g id="a_edge7_Node000006_Node000007"><a xlink:title=" ">
<path fill="none" stroke="#63b8ff" d="M449.5,-50.16C449.5,-39.74 449.5,-27.3 449.5,-19.17"/>
<polygon fill="#63b8ff" stroke="#63b8ff" points="446,-50.37 449.5,-60.37 453,-50.37 446,-50.37"/>
</a>
</g>
</g>
<!-- Node10&#45;&gt;Node6 -->
<g id="edge11_Node000010_Node000006" class="edge">
<title>Node10&#45;&gt;Node6</title>
<g id="a_edge11_Node000010_Node000006"><a xlink:title=" ">
<path fill="none" stroke="#63b8ff" d="M463.97,-111.28C460.03,-100.31 455.59,-87.94 452.68,-79.84"/>
<polygon fill="#63b8ff" stroke="#63b8ff" points="460.72,-112.57 467.4,-120.8 467.31,-110.2 460.72,-112.57"/>
</a>
</g>
</g>
<!-- Node11 -->
<g id="Node000011" class="node">
<title>Node11</title>
<g id="a_Node000011"><a xlink:href="PanningControlComponent_8cpp.html" target="_top" xlink:title=" ">
<polygon fill="white" stroke="#666666" points="723.5,-85 553.5,-85 553.5,-55 723.5,-55 723.5,-85"/>
<text text-anchor="start" x="561.5" y="-73" font-family="Helvetica,sans-Serif" font-size="10.00">Source/MemaClientCommon</text>
<text text-anchor="middle" x="638.5" y="-62" font-family="Helvetica,sans-Serif" font-size="10.00">/PanningControlComponent.cpp</text>
</a>
</g>
</g>
<!-- Node10&#45;&gt;Node11 -->
<g id="edge12_Node000010_Node000011" class="edge">
<title>Node10&#45;&gt;Node11</title>
<g id="a_edge12_Node000010_Node000011"><a xlink:title=" ">
<path fill="none" stroke="#63b8ff" d="M518.35,-117.32C544.77,-107.14 577.52,-94.51 602.16,-85.01"/>
<polygon fill="#63b8ff" stroke="#63b8ff" points="517,-114.09 508.93,-120.95 519.52,-120.62 517,-114.09"/>
</a>
</g>
</g>
<!-- Node12&#45;&gt;Node6 -->
<g id="edge14_Node000012_Node000006" class="edge">
<title>Node12&#45;&gt;Node6</title>
<g id="a_edge14_Node000012_Node000006"><a xlink:title=" ">
<path fill="none" stroke="#63b8ff" d="M594.09,-117.74C555.81,-105.36 505.9,-89.23 475.85,-79.52"/>
<polygon fill="#63b8ff" stroke="#63b8ff" points="593.46,-121.21 604.05,-120.95 595.61,-114.55 593.46,-121.21"/>
</a>
</g>
</g>
<!-- Node13 -->
<g id="Node000013" class="node">
<title>Node13</title>
<g id="a_Node000013"><a xlink:href="MemaClientCommon_2PluginControlComponent_8cpp.html" target="_top" xlink:title=" ">
<polygon fill="white" stroke="#666666" points="903,-85 742,-85 742,-55 903,-55 903,-85"/>
<text text-anchor="start" x="750" y="-73" font-family="Helvetica,sans-Serif" font-size="10.00">Source/MemaClientCommon</text>
<text text-anchor="middle" x="822.5" y="-62" font-family="Helvetica,sans-Serif" font-size="10.00">/PluginControlComponent.cpp</text>
</a>
</g>
</g>
<!-- Node12&#45;&gt;Node13 -->
<g id="edge15_Node000012_Node000013" class="edge">
<title>Node12&#45;&gt;Node13</title>
<g id="a_edge15_Node000012_Node000013"><a xlink:title=" ">
<path fill="none" stroke="#63b8ff" d="M695.47,-117.46C723.39,-107.25 758.1,-94.55 784.19,-85.01"/>
<polygon fill="#63b8ff" stroke="#63b8ff" points="694.09,-114.23 685.9,-120.95 696.5,-120.81 694.09,-114.23"/>
</a>
</g>
</g>
</g>
</svg>
