<?xml version="1.0" encoding="UTF-8" standalone="no"?>
<!DOCTYPE svg PUBLIC "-//W3C//DTD SVG 1.1//EN"
 "http://www.w3.org/Graphics/SVG/1.1/DTD/svg11.dtd">
<!-- Generated by graphviz version 2.43.0 (0)
 -->
<!-- Title: Source/MemaProcessor/MemaCommanders.h Pages: 1 -->
<svg width="936pt" height="170pt"
 viewBox="0.00 0.00 936.00 170.00" xmlns="http://www.w3.org/2000/svg" xmlns:xlink="http://www.w3.org/1999/xlink">
<g id="graph0" class="graph" transform="scale(1 1) rotate(0) translate(4 166)">
<title>Source/MemaProcessor/MemaCommanders.h</title>
<!-- Node1 -->
<g id="Node000001" class="node">
<title>Node1</title>
<g id="a_Node000001"><a xlink:title=" ">
<polygon fill="#999999" stroke="#666666" points="457.5,-162 326.5,-162 326.5,-132 457.5,-132 457.5,-162"/>
<text text-anchor="start" x="334.5" y="-150" font-family="Helvetica,sans-Serif" font-size="10.00">Source/MemaProcessor</text>
<text text-anchor="middle" x="392" y="-139" font-family="Helvetica,sans-Serif" font-size="10.00">/MemaCommanders.h</text>
</a>
</g>
</g>
<!-- Node2 -->
<g id="Node000002" class="node">
<title>Node2</title>
<g id="a_Node000002"><a xlink:href="MemaCommanders_8cpp.html" target="_top" xlink:title=" ">
<polygon fill="white" stroke="#666666" points="136,-96 0,-96 0,-66 136,-66 136,-96"/>
<text text-anchor="start" x="8" y="-84" font-family="Helvetica,sans-Serif" font-size="10.00">Source/MemaProcessor</text>
<text text-anchor="middle" x="68" y="-73" font-family="Helvetica,sans-Serif" font-size="10.00">/MemaCommanders.cpp</text>
</a>
</g>
</g>
<!-- Node1&#45;&gt;Node2 -->
<g id="edge1_Node000001_Node000002" class="edge">
<title>Node1&#45;&gt;Node2</title>
<g id="a_edge1_Node000001_Node000002"><a xlink:title=" ">
<path fill="none" stroke="#63b8ff" d="M316.48,-131.08C261.98,-120.32 189.01,-105.9 136.26,-95.48"/>
<polygon fill="#63b8ff" stroke="#63b8ff" points="315.95,-134.54 326.43,-133.05 317.3,-127.68 315.95,-134.54"/>
</a>
</g>
</g>
<!-- Node3 -->
<g id="Node000003" class="node">
<title>Node3</title>
<g id="a_Node000003"><a xlink:href="MemaProcessor_8cpp.html" target="_top" xlink:title=" ">
<polygon fill="white" stroke="#666666" points="285.5,-96 154.5,-96 154.5,-66 285.5,-66 285.5,-96"/>
<text text-anchor="start" x="162.5" y="-84" font-family="Helvetica,sans-Serif" font-size="10.00">Source/MemaProcessor</text>
<text text-anchor="middle" x="220" y="-73" font-family="Helvetica,sans-Serif" font-size="10.00">/MemaProcessor.cpp</text>
</a>
</g>
</g>
<!-- Node1&#45;&gt;Node3 -->
<g id="edge2_Node000001_Node000003" class="edge">
<title>Node1&#45;&gt;Node3</title>
<g id="a_edge2_Node000001_Node000003"><a xlink:title=" ">
<path fill="none" stroke="#63b8ff" d="M344.85,-128.46C317.41,-118.25 283.29,-105.55 257.66,-96.01"/>
<polygon fill="#63b8ff" stroke="#63b8ff" points="343.66,-131.75 354.25,-131.95 346.1,-125.19 343.66,-131.75"/>
</a>
</g>
</g>
<!-- Node4 -->
<g id="Node000004" class="node">
<title>Node4</title>
<g id="a_Node000004"><a xlink:href="CrosspointsControlComponent_8h.html" target="_top" xlink:title=" ">
<polygon fill="white" stroke="#666666" points="480.5,-96 303.5,-96 303.5,-66 480.5,-66 480.5,-96"/>
<text text-anchor="start" x="311.5" y="-84" font-family="Helvetica,sans-Serif" font-size="10.00">Source/MemaProcessorEditor</text>
<text text-anchor="middle" x="392" y="-73" font-family="Helvetica,sans-Serif" font-size="10.00">/CrosspointsControlComponent.h</text>
</a>
</g>
</g>
<!-- Node1&#45;&gt;Node4 -->
<g id="edge3_Node000001_Node000004" class="edge">
<title>Node1&#45;&gt;Node4</title>
<g id="a_edge3_Node000001_Node000004"><a xlink:title=" ">
<path fill="none" stroke="#63b8ff" d="M392,-121.54C392,-112.96 392,-103.61 392,-96.16"/>
<polygon fill="#63b8ff" stroke="#63b8ff" points="388.5,-121.8 392,-131.8 395.5,-121.8 388.5,-121.8"/>
</a>
</g>
</g>
<!-- Node7 -->
<g id="Node000007" class="node">
<title>Node7</title>
<g id="a_Node000007"><a xlink:href="InputControlComponent_8h.html" target="_top" xlink:title=" ">
<polygon fill="white" stroke="#666666" points="657.5,-96 498.5,-96 498.5,-66 657.5,-66 657.5,-96"/>
<text text-anchor="start" x="506.5" y="-84" font-family="Helvetica,sans-Serif" font-size="10.00">Source/MemaProcessorEditor</text>
<text text-anchor="middle" x="578" y="-73" font-family="Helvetica,sans-Serif" font-size="10.00">/InputControlComponent.h</text>
</a>
</g>
</g>
<!-- Node1&#45;&gt;Node7 -->
<g id="edge6_Node000001_Node000007" class="edge">
<title>Node1&#45;&gt;Node7</title>
<g id="a_edge6_Node000001_Node000007"><a xlink:title=" ">
<path fill="none" stroke="#63b8ff" d="M442.6,-128.59C472.34,-118.36 509.44,-105.59 537.28,-96.01"/>
<polygon fill="#63b8ff" stroke="#63b8ff" points="441.14,-125.39 432.82,-131.95 443.41,-132.01 441.14,-125.39"/>
</a>
</g>
</g>
<!-- Node9 -->
<g id="Node000009" class="node">
<title>Node9</title>
<g id="a_Node000009"><a xlink:href="OutputControlComponent_8h.html" target="_top" xlink:title=" ">
<polygon fill="white" stroke="#666666" points="834.5,-96 675.5,-96 675.5,-66 834.5,-66 834.5,-96"/>
<text text-anchor="start" x="683.5" y="-84" font-family="Helvetica,sans-Serif" font-size="10.00">Source/MemaProcessorEditor</text>
<text text-anchor="middle" x="755" y="-73" font-family="Helvetica,sans-Serif" font-size="10.00">/OutputControlComponent.h</text>
</a>
</g>
</g>
<!-- Node1&#45;&gt;Node9 -->
<g id="edge9_Node000001_Node000009" class="edge">
<title>Node1&#45;&gt;Node9</title>
<g id="a_edge9_Node000001_Node000009"><a xlink:title=" ">
<path fill="none" stroke="#63b8ff" d="M467.66,-132.66C528.49,-121.94 613.69,-106.91 675.51,-96.01"/>
<polygon fill="#63b8ff" stroke="#63b8ff" points="466.98,-129.23 457.74,-134.41 468.19,-136.12 466.98,-129.23"/>
</a>
</g>
</g>
<!-- Node5 -->
<g id="Node000005" class="node">
<title>Node5</title>
<g id="a_Node000005"><a xlink:href="CrosspointsControlComponent_8cpp.html" target="_top" xlink:title=" ">
<polygon fill="white" stroke="#666666" points="391,-30 203,-30 203,0 391,0 391,-30"/>
<text text-anchor="start" x="211" y="-18" font-family="Helvetica,sans-Serif" font-size="10.00">Source/MemaProcessorEditor</text>
<text text-anchor="middle" x="297" y="-7" font-family="Helvetica,sans-Serif" font-size="10.00">/CrosspointsControlComponent.cpp</text>
</a>
</g>
</g>
<!-- Node4&#45;&gt;Node5 -->
<g id="edge4_Node000004_Node000005" class="edge">
<title>Node4&#45;&gt;Node5</title>
<g id="a_edge4_Node000004_Node000005"><a xlink:title=" ">
<path fill="none" stroke="#63b8ff" d="M362.35,-60.03C347.98,-50.34 331.05,-38.94 318.02,-30.16"/>
<polygon fill="#63b8ff" stroke="#63b8ff" points="360.67,-63.11 370.92,-65.8 364.58,-57.31 360.67,-63.11"/>
</a>
</g>
</g>
<!-- Node6 -->
<g id="Node000006" class="node">
<title>Node6</title>
<g id="a_Node000006"><a xlink:href="MemaProcessorEditor_8cpp.html" target="_top" xlink:title=" ">
<polygon fill="white" stroke="#666666" points="568.5,-30 409.5,-30 409.5,0 568.5,0 568.5,-30"/>
<text text-anchor="start" x="417.5" y="-18" font-family="Helvetica,sans-Serif" font-size="10.00">Source/MemaProcessorEditor</text>
<text text-anchor="middle" x="489" y="-7" font-family="Helvetica,sans-Serif" font-size="10.00">/MemaProcessorEditor.cpp</text>
</a>
</g>
</g>
<!-- Node4&#45;&gt;Node6 -->
<g id="edge5_Node000004_Node000006" class="edge">
<title>Node4&#45;&gt;Node6</title>
<g id="a_edge5_Node000004_Node000006"><a xlink:title=" ">
<path fill="none" stroke="#63b8ff" d="M422.27,-60.03C436.95,-50.34 454.23,-38.94 467.53,-30.16"/>
<polygon fill="#63b8ff" stroke="#63b8ff" points="419.95,-57.37 413.53,-65.8 423.8,-63.21 419.95,-57.37"/>
</a>
</g>
</g>
<!-- Node7&#45;&gt;Node6 -->
<g id="edge8_Node000007_Node000006" class="edge">
<title>Node7&#45;&gt;Node6</title>
<g id="a_edge8_Node000007_Node000006"><a xlink:title=" ">
<path fill="none" stroke="#63b8ff" d="M549.84,-59.75C536.46,-50.13 520.78,-38.86 508.7,-30.16"/>
<polygon fill="#63b8ff" stroke="#63b8ff" points="548.09,-62.8 558.25,-65.8 552.17,-57.12 548.09,-62.8"/>
</a>
</g>
</g>
<!-- Node8 -->
<g id="Node000008" class="node">
<title>Node8</title>
<g id="a_Node000008"><a xlink:href="InputControlComponent_8cpp.html" target="_top" xlink:title=" ">
<polygon fill="white" stroke="#666666" points="745.5,-30 586.5,-30 586.5,0 745.5,0 745.5,-30"/>
<text text-anchor="start" x="594.5" y="-18" font-family="Helvetica,sans-Serif" font-size="10.00">Source/MemaProcessorEditor</text>
<text text-anchor="middle" x="666" y="-7" font-family="Helvetica,sans-Serif" font-size="10.00">/InputControlComponent.cpp</text>
</a>
</g>
</g>
<!-- Node7&#45;&gt;Node8 -->
<g id="edge7_Node000007_Node000008" class="edge">
<title>Node7&#45;&gt;Node8</title>
<g id="a_edge7_Node000007_Node000008"><a xlink:title=" ">
<path fill="none" stroke="#63b8ff" d="M605.84,-59.75C619.07,-50.13 634.57,-38.86 646.52,-30.16"/>
<polygon fill="#63b8ff" stroke="#63b8ff" points="603.56,-57.08 597.53,-65.8 607.68,-62.75 603.56,-57.08"/>
</a>
</g>
</g>
<!-- Node9&#45;&gt;Node6 -->
<g id="edge10_Node000009_Node000006" class="edge">
<title>Node9&#45;&gt;Node6</title>
<g id="a_edge10_Node000009_Node000006"><a xlink:title=" ">
<path fill="none" stroke="#63b8ff" d="M686.77,-63.58C643.58,-53.19 588.35,-39.9 547.24,-30.01"/>
<polygon fill="#63b8ff" stroke="#63b8ff" points="686.08,-67.02 696.63,-65.95 687.72,-60.21 686.08,-67.02"/>
</a>
</g>
</g>
<!-- Node10 -->
<g id="Node000010" class="node">
<title>Node10</title>
<g id="a_Node000010"><a xlink:href="OutputControlComponent_8cpp.html" target="_top" xlink:title=" ">
<polygon fill="white" stroke="#666666" points="928,-30 764,-30 764,0 928,0 928,-30"/>
<text text-anchor="start" x="772" y="-18" font-family="Helvetica,sans-Serif" font-size="10.00">Source/MemaProcessorEditor</text>
<text text-anchor="middle" x="846" y="-7" font-family="Helvetica,sans-Serif" font-size="10.00">/OutputControlComponent.cpp</text>
</a>
</g>
</g>
<!-- Node9&#45;&gt;Node10 -->
<g id="edge11_Node000009_Node000010" class="edge">
<title>Node9&#45;&gt;Node10</title>
<g id="a_edge11_Node000009_Node000010"><a xlink:title=" ">
<path fill="none" stroke="#63b8ff" d="M783.4,-60.03C797.17,-50.34 813.38,-38.94 825.86,-30.16"/>
<polygon fill="#63b8ff" stroke="#63b8ff" points="781.36,-57.18 775.2,-65.8 785.39,-62.91 781.36,-57.18"/>
</a>
</g>
</g>
</g>
</svg>
