<?xml version="1.0" encoding="UTF-8" standalone="no"?>
<!DOCTYPE svg PUBLIC "-//W3C//DTD SVG 1.1//EN"
 "http://www.w3.org/Graphics/SVG/1.1/DTD/svg11.dtd">
<!-- Generated by graphviz version 2.43.0 (0)
 -->
<!-- Title: Source/MemaProcessorEditor/PluginControlComponent.cpp Pages: 1 -->
<svg width="325pt" height="214pt"
 viewBox="0.00 0.00 325.25 214.00" xmlns="http://www.w3.org/2000/svg" xmlns:xlink="http://www.w3.org/1999/xlink">

<svg id="main" version="1.1" xmlns="http://www.w3.org/2000/svg" xmlns:xlink="http://www.w3.org/1999/xlink" xml:space="preserve" onload="init(evt)">
<style type="text/css"><![CDATA[
.node, .edge {opacity: 0.7;}
.node.selected, .edge.selected {opacity: 1;}
.edge:hover path { stroke: red; }
.edge:hover polygon { stroke: red; fill: red; }
]]></style>
<script type="application/ecmascript" xlink:href="svg.min.js"/>
<svg id="graph" class="graph">
<g id="graph0" class="graph" transform="scale(1 1) rotate(0) translate(4 210)">
<title>Source/MemaProcessorEditor/PluginControlComponent.cpp</title>
<!-- Node1 -->
<g id="Node000001" class="node">
<title>Node1</title>
<g id="a_Node000001"><a xlink:title=" ">
<polygon fill="#999999" stroke="#666666" points="176.75,-206 15.75,-206 15.75,-176 176.75,-176 176.75,-206"/>
<text text-anchor="start" x="23.75" y="-194" font-family="Helvetica,sans-Serif" font-size="10.00">Source/MemaProcessorEditor</text>
<text text-anchor="middle" x="96.25" y="-183" font-family="Helvetica,sans-Serif" font-size="10.00">/PluginControlComponent.cpp</text>
</a>
</g>
</g>
<!-- Node2 -->
<g id="Node000002" class="node">
<title>Node2</title>
<g id="a_Node000002"><a xlink:href="MemaProcessorEditor_2PluginControlComponent_8h.html" target="_top" xlink:title=" ">
<polygon fill="white" stroke="#666666" points="169.75,-140 22.75,-140 22.75,-121 169.75,-121 169.75,-140"/>
<text text-anchor="middle" x="96.25" y="-128" font-family="Helvetica,sans-Serif" font-size="10.00">PluginControlComponent.h</text>
</a>
</g>
</g>
<!-- Node1&#45;&gt;Node2 -->
<g id="edge1_Node000001_Node000002" class="edge">
<title>Node1&#45;&gt;Node2</title>
<g id="a_edge1_Node000001_Node000002"><a xlink:title=" ">
<path fill="none" stroke="#63b8ff" d="M96.25,-175.84C96.25,-168.21 96.25,-158.7 96.25,-150.45"/>
<polygon fill="#63b8ff" stroke="#63b8ff" points="99.75,-150.27 96.25,-140.27 92.75,-150.27 99.75,-150.27"/>
</a>
</g>
</g>
<!-- Node3 -->
<g id="Node000003" class="node">
<title>Node3</title>
<g id="a_Node000003"><a xlink:title=" ">
<polygon fill="#e0e0e0" stroke="#999999" points="80.25,-19 0.25,-19 0.25,0 80.25,0 80.25,-19"/>
<text text-anchor="middle" x="40.25" y="-7" font-family="Helvetica,sans-Serif" font-size="10.00">JuceHeader.h</text>
</a>
</g>
</g>
<!-- Node2&#45;&gt;Node3 -->
<g id="edge2_Node000002_Node000003" class="edge">
<title>Node2&#45;&gt;Node3</title>
<g id="a_edge2_Node000002_Node000003"><a xlink:title=" ">
<path fill="none" stroke="#63b8ff" d="M56.94,-120.92C37.53,-114.48 15.84,-103.49 4.25,-85 -7.84,-65.72 8.81,-41.78 23.27,-26.33"/>
<polygon fill="#63b8ff" stroke="#63b8ff" points="25.89,-28.65 30.46,-19.09 20.93,-23.71 25.89,-28.65"/>
</a>
</g>
</g>
<!-- Node4 -->
<g id="Node000004" class="node">
<title>Node4</title>
<g id="a_Node000004"><a xlink:href="MemaPluginParameterInfo_8h.html" target="_top" xlink:title=" ">
<polygon fill="white" stroke="#666666" points="179.75,-85 12.75,-85 12.75,-55 179.75,-55 179.75,-85"/>
<text text-anchor="start" x="20.75" y="-73" font-family="Helvetica,sans-Serif" font-size="10.00">../MemaProcessor/MemaPlugin</text>
<text text-anchor="middle" x="96.25" y="-62" font-family="Helvetica,sans-Serif" font-size="10.00">ParameterInfo.h</text>
</a>
</g>
</g>
<!-- Node2&#45;&gt;Node4 -->
<g id="edge3_Node000002_Node000004" class="edge">
<title>Node2&#45;&gt;Node4</title>
<g id="a_edge3_Node000002_Node000004"><a xlink:title=" ">
<path fill="none" stroke="#63b8ff" d="M96.25,-120.87C96.25,-114.11 96.25,-104.35 96.25,-95.26"/>
<polygon fill="#63b8ff" stroke="#63b8ff" points="99.75,-95.11 96.25,-85.11 92.75,-95.11 99.75,-95.11"/>
</a>
</g>
</g>
<!-- Node5 -->
<g id="Node000005" class="node">
<title>Node5</title>
<g id="a_Node000005"><a xlink:title=" ">
<polygon fill="#e0e0e0" stroke="#999999" points="317.25,-79.5 197.25,-79.5 197.25,-60.5 317.25,-60.5 317.25,-79.5"/>
<text text-anchor="middle" x="257.25" y="-67.5" font-family="Helvetica,sans-Serif" font-size="10.00">FixedFontTextEditor.h</text>
</a>
</g>
</g>
<!-- Node2&#45;&gt;Node5 -->
<g id="edge5_Node000002_Node000005" class="edge">
<title>Node2&#45;&gt;Node5</title>
<g id="a_edge5_Node000002_Node000005"><a xlink:title=" ">
<path fill="none" stroke="#63b8ff" d="M119.66,-120.99C147.2,-110.99 193.12,-94.3 224.26,-82.99"/>
<polygon fill="#63b8ff" stroke="#63b8ff" points="225.61,-86.22 233.81,-79.52 223.21,-79.64 225.61,-86.22"/>
</a>
</g>
</g>
<!-- Node4&#45;&gt;Node3 -->
<g id="edge4_Node000004_Node000003" class="edge">
<title>Node4&#45;&gt;Node3</title>
<g id="a_edge4_Node000004_Node000003"><a xlink:title=" ">
<path fill="none" stroke="#63b8ff" d="M82.69,-54.84C74.56,-46.35 64.2,-35.52 55.75,-26.69"/>
<polygon fill="#63b8ff" stroke="#63b8ff" points="58.08,-24.07 48.64,-19.27 53.03,-28.91 58.08,-24.07"/>
</a>
</g>
</g>
</g>
</svg>
</svg>

<style type='text/css'>
<![CDATA[
[data-mouse-over-selected='false'] { opacity: 0.7; }
[data-mouse-over-selected='true']  { opacity: 1.0; }
]]>
</style>
<script type="application/ecmascript"><![CDATA[
document.addEventListener('DOMContentLoaded', (event) => {
  highlightEdges();
  highlightAdjacentNodes();
});
]]></script>
</svg>
