<?xml version="1.0" encoding="UTF-8" standalone="no"?>
<!DOCTYPE svg PUBLIC "-//W3C//DTD SVG 1.1//EN"
 "http://www.w3.org/Graphics/SVG/1.1/DTD/svg11.dtd">
<!-- Generated by graphviz version 2.43.0 (0)
 -->
<!-- Title: MemaRe/MemaReComponent.cpp Pages: 1 -->
<!--zoomable 324 -->

<svg id="main" version="1.1" xmlns="http://www.w3.org/2000/svg" xmlns:xlink="http://www.w3.org/1999/xlink" xml:space="preserve" onload="init(evt)">
<style type="text/css"><![CDATA[
.node, .edge {opacity: 0.7;}
.node.selected, .edge.selected {opacity: 1;}
.edge:hover path { stroke: red; }
.edge:hover polygon { stroke: red; fill: red; }
]]></style>

<defs>
  <circle id="rim" cx="0" cy="0" r="7"/>
  <circle id="rim2" cx="0" cy="0" r="3.5"/>
  <g id="zoomPlus">
    <use xlink:href="#rim" fill="#404040"><set attributeName="fill" to="#808080" begin="zoomplus.mouseover" end="zoomplus.mouseout"/></use>
    <path d="M-4,0h8M0,-4v8" fill="none" stroke="white" stroke-width="1.5" pointer-events="none"/>
  </g>
  <g id="zoomMin">
    <use xlink:href="#rim" fill="#404040"><set attributeName="fill" to="#808080" begin="zoomminus.mouseover" end="zoomminus.mouseout"/></use>
    <path d="M-4,0h8" fill="none" stroke="white" stroke-width="1.5" pointer-events="none"/>
  </g>
  <g id="arrowUp" transform="translate(30 24)">
    <use xlink:href="#rim"/>
    <path pointer-events="none" fill="none" stroke="white" stroke-width="1.5" d="M0,-3.0v7 M-2.5,-0.5L0,-3.0L2.5,-0.5"/>
  </g>
  <g id="arrowRight" transform="rotate(90) translate(36 -43)">
    <use xlink:href="#rim"/>
    <path pointer-events="none" fill="none" stroke="white" stroke-width="1.5" d="M0,-3.0v7 M-2.5,-0.5L0,-3.0L2.5,-0.5"/>
  </g>
  <g id="arrowDown" transform="rotate(180) translate(-30 -48)">
    <use xlink:href="#rim"/>
    <path pointer-events="none" fill="none" stroke="white" stroke-width="1.5" d="M0,-3.0v7 M-2.5,-0.5L0,-3.0L2.5,-0.5"/>
  </g>
  <g id="arrowLeft" transform="rotate(270) translate(-36 17)">
    <use xlink:href="#rim"/>
    <path pointer-events="none" fill="none" stroke="white" stroke-width="1.5" d="M0,-3.0v7 M-2.5,-0.5L0,-3.0L2.5,-0.5"/>
  </g>
  <g id="resetDef">
    <use xlink:href="#rim2" fill="#404040"><set attributeName="fill" to="#808080" begin="reset.mouseover" end="reset.mouseout"/></use>
  </g>
</defs>
<script type="application/ecmascript">
var viewWidth = 1770;
var viewHeight = 324;
var sectionId = 'dynsection-0';
</script>
<script type="application/ecmascript" xlink:href="svg.min.js"/>
<svg id="graph" class="graph">
<g id="viewport">
<title>MemaRe/MemaReComponent.cpp</title>
<!-- Node1 -->
<g id="Node000001" class="node">
<title>Node1</title>
<g id="a_Node000001"><a xlink:title=" ">
<polygon fill="#999999" stroke="#666666" points="824.8,-316 641.8,-316 641.8,-297 824.8,-297 824.8,-316"/>
<text text-anchor="middle" x="733.3" y="-304" font-family="Helvetica,sans-Serif" font-size="10.00">MemaRe/MemaReComponent.cpp</text>
</a>
</g>
</g>
<!-- Node2 -->
<g id="Node000002" class="node">
<title>Node2</title>
<g id="a_Node000002"><a xlink:href="MemaReComponent_8h.html" target="_top" xlink:title=" ">
<polygon fill="white" stroke="#666666" points="446.8,-206 321.8,-206 321.8,-187 446.8,-187 446.8,-206"/>
<text text-anchor="middle" x="384.3" y="-194" font-family="Helvetica,sans-Serif" font-size="10.00">MemaReComponent.h</text>
</a>
</g>
</g>
<!-- Node1&#45;&gt;Node2 -->
<g id="edge1_Node000001_Node000002" class="edge">
<title>Node1&#45;&gt;Node2</title>
<g id="a_edge1_Node000001_Node000002"><a xlink:title=" ">
<path fill="none" stroke="#63b8ff" d="M705.63,-296.94C643.39,-277.68 492.35,-230.94 421.79,-209.1"/>
<polygon fill="#63b8ff" stroke="#63b8ff" points="422.57,-205.68 411.98,-206.07 420.5,-212.37 422.57,-205.68"/>
</a>
</g>
</g>
<!-- Node9 -->
<g id="Node000009" class="node">
<title>Node9</title>
<g id="a_Node000009"><a xlink:href="MemaMessages_8h.html" target="_top" xlink:title=" ">
<polygon fill="white" stroke="#666666" points="826.3,-206 640.3,-206 640.3,-187 826.3,-187 826.3,-206"/>
<text text-anchor="middle" x="733.3" y="-194" font-family="Helvetica,sans-Serif" font-size="10.00">MemaProcessor/MemaMessages.h</text>
</a>
</g>
</g>
<!-- Node1&#45;&gt;Node9 -->
<g id="edge16_Node000001_Node000009" class="edge">
<title>Node1&#45;&gt;Node9</title>
<g id="a_edge16_Node000001_Node000009"><a xlink:title=" ">
<path fill="none" stroke="#63b8ff" d="M733.3,-296.66C733.3,-279.17 733.3,-239.8 733.3,-216.27"/>
<polygon fill="#63b8ff" stroke="#63b8ff" points="736.8,-216.16 733.3,-206.16 729.8,-216.16 736.8,-216.16"/>
</a>
</g>
</g>
<!-- Node11 -->
<g id="Node000011" class="node">
<title>Node11</title>
<g id="a_Node000011"><a xlink:href="MemaProcessor_8h.html" target="_top" xlink:title=" ">
<polygon fill="white" stroke="#666666" points="1101.3,-261 917.3,-261 917.3,-242 1101.3,-242 1101.3,-261"/>
<text text-anchor="middle" x="1009.3" y="-249" font-family="Helvetica,sans-Serif" font-size="10.00">MemaProcessor/MemaProcessor.h</text>
</a>
</g>
</g>
<!-- Node1&#45;&gt;Node11 -->
<g id="edge20_Node000001_Node000011" class="edge">
<title>Node1&#45;&gt;Node11</title>
<g id="a_edge20_Node000001_Node000011"><a xlink:title=" ">
<path fill="none" stroke="#63b8ff" d="M777.65,-296.98C825.79,-287.74 902.73,-272.97 954.59,-263.01"/>
<polygon fill="#63b8ff" stroke="#63b8ff" points="955.45,-266.41 964.61,-261.08 954.13,-259.53 955.45,-266.41"/>
</a>
</g>
</g>
<!-- Node3 -->
<g id="Node000003" class="node">
<title>Node3</title>
<g id="a_Node000003"><a xlink:title=" ">
<polygon fill="#e0e0e0" stroke="#999999" points="900.3,-19 820.3,-19 820.3,0 900.3,0 900.3,-19"/>
<text text-anchor="middle" x="860.3" y="-7" font-family="Helvetica,sans-Serif" font-size="10.00">JuceHeader.h</text>
</a>
</g>
</g>
<!-- Node2&#45;&gt;Node3 -->
<g id="edge2_Node000002_Node000003" class="edge">
<title>Node2&#45;&gt;Node3</title>
<g id="a_edge2_Node000002_Node000003"><a xlink:title=" ">
<path fill="none" stroke="#63b8ff" d="M321.61,-192.6C219.58,-187.22 26.86,-174.12 6.3,-151 -2.56,-141.04 -1.47,-131.83 6.3,-121 59.63,-46.65 111.58,-72.9 201.3,-55 317.64,-31.79 676.37,-17.03 809.71,-12.22"/>
<polygon fill="#63b8ff" stroke="#63b8ff" points="810.17,-15.71 820.04,-11.85 809.92,-8.71 810.17,-15.71"/>
</a>
</g>
</g>
<!-- Node4 -->
<g id="Node000004" class="node">
<title>Node4</title>
<g id="a_Node000004"><a xlink:href="FaderbankControlComponent_8h.html" target="_top" xlink:title=" ">
<polygon fill="white" stroke="#666666" points="188.8,-151 15.8,-151 15.8,-121 188.8,-121 188.8,-151"/>
<text text-anchor="start" x="23.8" y="-139" font-family="Helvetica,sans-Serif" font-size="10.00">MemaClientCommon/Faderbank</text>
<text text-anchor="middle" x="102.3" y="-128" font-family="Helvetica,sans-Serif" font-size="10.00">ControlComponent.h</text>
</a>
</g>
</g>
<!-- Node2&#45;&gt;Node4 -->
<g id="edge3_Node000002_Node000004" class="edge">
<title>Node2&#45;&gt;Node4</title>
<g id="a_edge3_Node000002_Node000004"><a xlink:title=" ">
<path fill="none" stroke="#63b8ff" d="M343.3,-186.99C300.61,-178.14 232.71,-164.05 179.85,-153.09"/>
<polygon fill="#63b8ff" stroke="#63b8ff" points="180.33,-149.61 169.83,-151.01 178.91,-156.47 180.33,-149.61"/>
</a>
</g>
</g>
<!-- Node6 -->
<g id="Node000006" class="node">
<title>Node6</title>
<g id="a_Node000006"><a xlink:href="PanningControlComponent_8h.html" target="_top" xlink:title=" ">
<polygon fill="white" stroke="#666666" points="367.8,-151 206.8,-151 206.8,-121 367.8,-121 367.8,-151"/>
<text text-anchor="start" x="214.8" y="-139" font-family="Helvetica,sans-Serif" font-size="10.00">MemaClientCommon/Panning</text>
<text text-anchor="middle" x="287.3" y="-128" font-family="Helvetica,sans-Serif" font-size="10.00">ControlComponent.h</text>
</a>
</g>
</g>
<!-- Node2&#45;&gt;Node6 -->
<g id="edge7_Node000002_Node000006" class="edge">
<title>Node2&#45;&gt;Node6</title>
<g id="a_edge7_Node000002_Node000006"><a xlink:title=" ">
<path fill="none" stroke="#63b8ff" d="M369.99,-186.87C356.71,-178.86 336.46,-166.65 319.33,-156.31"/>
<polygon fill="#63b8ff" stroke="#63b8ff" points="321.08,-153.28 310.71,-151.11 317.46,-159.28 321.08,-153.28"/>
</a>
</g>
</g>
<!-- Node7 -->
<g id="Node000007" class="node">
<title>Node7</title>
<g id="a_Node000007"><a xlink:href="MemaClientCommon_2PluginControlComponent_8h.html" target="_top" xlink:title=" ">
<polygon fill="white" stroke="#666666" points="574.3,-151 386.3,-151 386.3,-121 574.3,-121 574.3,-151"/>
<text text-anchor="start" x="394.3" y="-139" font-family="Helvetica,sans-Serif" font-size="10.00">MemaClientCommon/PluginControl</text>
<text text-anchor="middle" x="480.3" y="-128" font-family="Helvetica,sans-Serif" font-size="10.00">Component.h</text>
</a>
</g>
</g>
<!-- Node2&#45;&gt;Node7 -->
<g id="edge10_Node000002_Node000007" class="edge">
<title>Node2&#45;&gt;Node7</title>
<g id="a_edge10_Node000002_Node000007"><a xlink:title=" ">
<path fill="none" stroke="#63b8ff" d="M398.47,-186.87C411.5,-178.93 431.29,-166.87 448.14,-156.6"/>
<polygon fill="#63b8ff" stroke="#63b8ff" points="450.42,-159.31 457.14,-151.11 446.78,-153.33 450.42,-159.31"/>
</a>
</g>
</g>
<!-- Node8 -->
<g id="Node000008" class="node">
<title>Node8</title>
<g id="a_Node000008"><a xlink:href="MemaPluginParameterInfo_8h.html" target="_top" xlink:title=" ">
<polygon fill="white" stroke="#666666" points="719.3,-85 561.3,-85 561.3,-55 719.3,-55 719.3,-85"/>
<text text-anchor="start" x="569.3" y="-73" font-family="Helvetica,sans-Serif" font-size="10.00">MemaProcessor/MemaPlugin</text>
<text text-anchor="middle" x="640.3" y="-62" font-family="Helvetica,sans-Serif" font-size="10.00">ParameterInfo.h</text>
</a>
</g>
</g>
<!-- Node2&#45;&gt;Node8 -->
<g id="edge15_Node000002_Node000008" class="edge">
<title>Node2&#45;&gt;Node8</title>
<g id="a_edge15_Node000002_Node000008"><a xlink:title=" ">
<path fill="none" stroke="#63b8ff" d="M447.13,-192.98C488.74,-188.68 542.89,-177.82 583.3,-151 604.38,-137.01 620.17,-112.37 629.72,-94.12"/>
<polygon fill="#63b8ff" stroke="#63b8ff" points="632.94,-95.51 634.26,-85 626.68,-92.4 632.94,-95.51"/>
</a>
</g>
</g>
<!-- Node4&#45;&gt;Node3 -->
<g id="edge4_Node000004_Node000003" class="edge">
<title>Node4&#45;&gt;Node3</title>
<g id="a_edge4_Node000004_Node000003"><a xlink:title=" ">
<path fill="none" stroke="#63b8ff" d="M127.7,-120.95C162.82,-102.27 228.78,-69.88 289.3,-55 387.47,-30.87 689.89,-17 810.19,-12.31"/>
<polygon fill="#63b8ff" stroke="#63b8ff" points="810.38,-15.81 820.24,-11.93 810.11,-8.81 810.38,-15.81"/>
</a>
</g>
</g>
<!-- Node5 -->
<g id="Node000005" class="node">
<title>Node5</title>
<g id="a_Node000005"><a xlink:href="MemaClientControlComponentBase_8h.html" target="_top" xlink:title=" ">
<polygon fill="white" stroke="#666666" points="487.8,-85 320.8,-85 320.8,-55 487.8,-55 487.8,-85"/>
<text text-anchor="start" x="328.8" y="-73" font-family="Helvetica,sans-Serif" font-size="10.00">MemaClientControlComponent</text>
<text text-anchor="middle" x="404.3" y="-62" font-family="Helvetica,sans-Serif" font-size="10.00">Base.h</text>
</a>
</g>
</g>
<!-- Node4&#45;&gt;Node5 -->
<g id="edge5_Node000004_Node000005" class="edge">
<title>Node4&#45;&gt;Node5</title>
<g id="a_edge5_Node000004_Node000005"><a xlink:title=" ">
<path fill="none" stroke="#63b8ff" d="M168.58,-120.95C215.69,-110.97 279.06,-97.54 328.23,-87.12"/>
<polygon fill="#63b8ff" stroke="#63b8ff" points="329.13,-90.51 338.18,-85.01 327.68,-83.66 329.13,-90.51"/>
</a>
</g>
</g>
<!-- Node5&#45;&gt;Node3 -->
<g id="edge6_Node000005_Node000003" class="edge">
<title>Node5&#45;&gt;Node3</title>
<g id="a_edge6_Node000005_Node000003"><a xlink:title=" ">
<path fill="none" stroke="#63b8ff" d="M487.92,-58.26C496.49,-57.16 505.07,-56.06 513.3,-55 619.02,-41.43 742.86,-25.55 810.3,-16.91"/>
<polygon fill="#63b8ff" stroke="#63b8ff" points="810.76,-20.38 820.23,-15.64 809.87,-13.44 810.76,-20.38"/>
</a>
</g>
</g>
<!-- Node6&#45;&gt;Node3 -->
<g id="edge8_Node000006_Node000003" class="edge">
<title>Node6&#45;&gt;Node3</title>
<g id="a_edge8_Node000006_Node000003"><a xlink:title=" ">
<path fill="none" stroke="#63b8ff" d="M287.07,-120.83C287.6,-102.48 291.57,-70.96 311.3,-55 349.59,-24.04 681.62,-14.09 809.96,-11.39"/>
<polygon fill="#63b8ff" stroke="#63b8ff" points="810.37,-14.88 820.29,-11.18 810.22,-7.88 810.37,-14.88"/>
</a>
</g>
</g>
<!-- Node6&#45;&gt;Node5 -->
<g id="edge9_Node000006_Node000005" class="edge">
<title>Node6&#45;&gt;Node5</title>
<g id="a_edge9_Node000006_Node000005"><a xlink:title=" ">
<path fill="none" stroke="#63b8ff" d="M312.98,-120.95C329.59,-111.87 351.43,-99.93 369.58,-90"/>
<polygon fill="#63b8ff" stroke="#63b8ff" points="371.59,-92.88 378.69,-85.01 368.24,-86.74 371.59,-92.88"/>
</a>
</g>
</g>
<!-- Node7&#45;&gt;Node3 -->
<g id="edge11_Node000007_Node000003" class="edge">
<title>Node7&#45;&gt;Node3</title>
<g id="a_edge11_Node000007_Node000003"><a xlink:title=" ">
<path fill="none" stroke="#63b8ff" d="M488.51,-120.99C500.14,-102.5 523.3,-70.5 552.3,-55 595.88,-31.72 734.4,-18.99 809.96,-13.62"/>
<polygon fill="#63b8ff" stroke="#63b8ff" points="810.46,-17.09 820.19,-12.91 809.97,-10.11 810.46,-17.09"/>
</a>
</g>
</g>
<!-- Node7&#45;&gt;Node5 -->
<g id="edge12_Node000007_Node000005" class="edge">
<title>Node7&#45;&gt;Node5</title>
<g id="a_edge12_Node000007_Node000005"><a xlink:title=" ">
<path fill="none" stroke="#63b8ff" d="M463.44,-120.8C453.3,-112.26 440.23,-101.25 428.95,-91.75"/>
<polygon fill="#63b8ff" stroke="#63b8ff" points="431.03,-88.93 421.12,-85.16 426.52,-94.28 431.03,-88.93"/>
</a>
</g>
</g>
<!-- Node7&#45;&gt;Node8 -->
<g id="edge13_Node000007_Node000008" class="edge">
<title>Node7&#45;&gt;Node8</title>
<g id="a_edge13_Node000007_Node000008"><a xlink:title=" ">
<path fill="none" stroke="#63b8ff" d="M515.42,-120.95C539.07,-111.49 570.47,-98.93 595.86,-88.78"/>
<polygon fill="#63b8ff" stroke="#63b8ff" points="597.29,-91.98 605.27,-85.01 594.69,-85.48 597.29,-91.98"/>
</a>
</g>
</g>
<!-- Node8&#45;&gt;Node3 -->
<g id="edge14_Node000008_Node000003" class="edge">
<title>Node8&#45;&gt;Node3</title>
<g id="a_edge14_Node000008_Node000003"><a xlink:title=" ">
<path fill="none" stroke="#63b8ff" d="M693,-54.99C731.3,-44.8 782.45,-31.2 818.07,-21.73"/>
<polygon fill="#63b8ff" stroke="#63b8ff" points="819.37,-25.01 828.14,-19.05 817.57,-18.24 819.37,-25.01"/>
</a>
</g>
</g>
<!-- Node9&#45;&gt;Node3 -->
<g id="edge17_Node000009_Node000003" class="edge">
<title>Node9&#45;&gt;Node3</title>
<g id="a_edge17_Node000009_Node000003"><a xlink:title=" ">
<path fill="none" stroke="#63b8ff" d="M752.88,-186.92C768.13,-179.38 788.89,-167.1 802.3,-151 833.33,-113.77 849.69,-57.66 856.46,-28.91"/>
<polygon fill="#63b8ff" stroke="#63b8ff" points="859.9,-29.54 858.66,-19.02 853.07,-28.02 859.9,-29.54"/>
</a>
</g>
</g>
<!-- Node9&#45;&gt;Node8 -->
<g id="edge19_Node000009_Node000008" class="edge">
<title>Node9&#45;&gt;Node8</title>
<g id="a_edge19_Node000009_Node000008"><a xlink:title=" ">
<path fill="none" stroke="#63b8ff" d="M709.47,-186.96C692.96,-179.83 671.78,-168.06 659.3,-151 647.49,-134.83 642.92,-112.37 641.2,-95.35"/>
<polygon fill="#63b8ff" stroke="#63b8ff" points="644.67,-94.8 640.43,-85.08 637.68,-95.32 644.67,-94.8"/>
</a>
</g>
</g>
<!-- Node10 -->
<g id="Node000010" class="node">
<title>Node10</title>
<g id="a_Node000010"><a xlink:title=" ">
<polygon fill="#e0e0e0" stroke="#999999" points="793.8,-145.5 668.8,-145.5 668.8,-126.5 793.8,-126.5 793.8,-145.5"/>
<text text-anchor="middle" x="731.3" y="-133.5" font-family="Helvetica,sans-Serif" font-size="10.00">CustomLookAndFeel.h</text>
</a>
</g>
</g>
<!-- Node9&#45;&gt;Node10 -->
<g id="edge18_Node000009_Node000010" class="edge">
<title>Node9&#45;&gt;Node10</title>
<g id="a_edge18_Node000009_Node000010"><a xlink:title=" ">
<path fill="none" stroke="#63b8ff" d="M733.01,-186.87C732.73,-178.75 732.31,-166.31 731.95,-155.89"/>
<polygon fill="#63b8ff" stroke="#63b8ff" points="735.44,-155.54 731.6,-145.67 728.44,-155.78 735.44,-155.54"/>
</a>
</g>
</g>
<!-- Node11&#45;&gt;Node3 -->
<g id="edge21_Node000011_Node000003" class="edge">
<title>Node11&#45;&gt;Node3</title>
<g id="a_edge21_Node000011_Node000003"><a xlink:title=" ">
<path fill="none" stroke="#63b8ff" d="M1019.38,-241.71C1032.84,-228.89 1053.55,-204.67 1040.3,-187 1006.15,-141.42 959.56,-189.2 917.3,-151 881.12,-118.28 867.45,-59.3 862.66,-29.23"/>
<polygon fill="#63b8ff" stroke="#63b8ff" points="866.12,-28.64 861.24,-19.24 859.19,-29.63 866.12,-28.64"/>
</a>
</g>
</g>
<!-- Node11&#45;&gt;Node8 -->
<g id="edge33_Node000011_Node000008" class="edge">
<title>Node11&#45;&gt;Node8</title>
<g id="a_edge33_Node000011_Node000008"><a xlink:title=" ">
<path fill="none" stroke="#63b8ff" d="M964.36,-241.98C936.96,-235.29 902.18,-224.03 875.3,-206 833.95,-178.26 843.95,-148.3 802.3,-121 779.49,-106.05 751.97,-95.37 726.14,-87.83"/>
<polygon fill="#63b8ff" stroke="#63b8ff" points="726.91,-84.41 716.33,-85.09 725.02,-91.15 726.91,-84.41"/>
</a>
</g>
</g>
<!-- Node11&#45;&gt;Node9 -->
<g id="edge22_Node000011_Node000009" class="edge">
<title>Node11&#45;&gt;Node9</title>
<g id="a_edge22_Node000011_Node000009"><a xlink:title=" ">
<path fill="none" stroke="#63b8ff" d="M964.96,-241.98C916.82,-232.74 839.88,-217.97 788.02,-208.01"/>
<polygon fill="#63b8ff" stroke="#63b8ff" points="788.48,-204.53 778,-206.08 787.16,-211.41 788.48,-204.53"/>
</a>
</g>
</g>
<!-- Node12 -->
<g id="Node000012" class="node">
<title>Node12</title>
<g id="a_Node000012"><a xlink:href="ProcessorDataAnalyzer_8h.html" target="_top" xlink:title=" ">
<polygon fill="white" stroke="#666666" points="1226.3,-206 1088.3,-206 1088.3,-187 1226.3,-187 1226.3,-206"/>
<text text-anchor="middle" x="1157.3" y="-194" font-family="Helvetica,sans-Serif" font-size="10.00">ProcessorDataAnalyzer.h</text>
</a>
</g>
</g>
<!-- Node11&#45;&gt;Node12 -->
<g id="edge23_Node000011_Node000012" class="edge">
<title>Node11&#45;&gt;Node12</title>
<g id="a_edge23_Node000011_Node000012"><a xlink:title=" ">
<path fill="none" stroke="#63b8ff" d="M1033.08,-241.98C1057.54,-233.23 1095.84,-219.51 1123.45,-209.62"/>
<polygon fill="#63b8ff" stroke="#63b8ff" points="1124.86,-212.84 1133.09,-206.17 1122.5,-206.25 1124.86,-212.84"/>
</a>
</g>
</g>
<!-- Node17 -->
<g id="Node000017" class="node">
<title>Node17</title>
<g id="a_Node000017"><a xlink:href="MemaProcessorEditor_8h.html" target="_top" xlink:title=" ">
<polygon fill="white" stroke="#666666" points="1572.3,-151 1438.3,-151 1438.3,-121 1572.3,-121 1572.3,-151"/>
<text text-anchor="start" x="1446.3" y="-139" font-family="Helvetica,sans-Serif" font-size="10.00">../MemaProcessorEditor</text>
<text text-anchor="middle" x="1505.3" y="-128" font-family="Helvetica,sans-Serif" font-size="10.00">/MemaProcessorEditor.h</text>
</a>
</g>
</g>
<!-- Node11&#45;&gt;Node17 -->
<g id="edge34_Node000011_Node000017" class="edge">
<title>Node11&#45;&gt;Node17</title>
<g id="a_edge34_Node000011_Node000017"><a xlink:title=" ">
<path fill="none" stroke="#63b8ff" d="M1056.65,-241.97C1102.49,-233.53 1173.87,-219.89 1235.3,-206 1307.27,-189.73 1389.32,-168.36 1443.89,-153.74"/>
<polygon fill="#63b8ff" stroke="#63b8ff" points="1445,-157.06 1453.75,-151.09 1443.19,-150.3 1445,-157.06"/>
</a>
</g>
</g>
<!-- Node19 -->
<g id="Node000019" class="node">
<title>Node19</title>
<g id="a_Node000019"><a xlink:href="MemaAppConfiguration_8h.html" target="_top" xlink:title=" ">
<polygon fill="white" stroke="#666666" points="1674.8,-206 1525.8,-206 1525.8,-187 1674.8,-187 1674.8,-206"/>
<text text-anchor="middle" x="1600.3" y="-194" font-family="Helvetica,sans-Serif" font-size="10.00">../MemaAppConfiguration.h</text>
</a>
</g>
</g>
<!-- Node11&#45;&gt;Node19 -->
<g id="edge38_Node000011_Node000019" class="edge">
<title>Node11&#45;&gt;Node19</title>
<g id="a_edge38_Node000011_Node000019"><a xlink:title=" ">
<path fill="none" stroke="#63b8ff" d="M1101.32,-242.25C1214.58,-232.09 1405.37,-214.98 1515.31,-205.12"/>
<polygon fill="#63b8ff" stroke="#63b8ff" points="1515.72,-208.6 1525.37,-204.22 1515.09,-201.63 1515.72,-208.6"/>
</a>
</g>
</g>
<!-- Node21 -->
<g id="Node000021" class="node">
<title>Node21</title>
<g id="a_Node000021"><a xlink:title=" ">
<polygon fill="#e0e0e0" stroke="#999999" points="1031.8,-206 884.8,-206 884.8,-187 1031.8,-187 1031.8,-206"/>
<text text-anchor="middle" x="958.3" y="-194" font-family="Helvetica,sans-Serif" font-size="10.00">ServiceTopologyManager.h</text>
</a>
</g>
</g>
<!-- Node11&#45;&gt;Node21 -->
<g id="edge41_Node000011_Node000021" class="edge">
<title>Node11&#45;&gt;Node21</title>
<g id="a_edge41_Node000011_Node000021"><a xlink:title=" ">
<path fill="none" stroke="#63b8ff" d="M1000.88,-241.75C993.53,-234.11 982.67,-222.82 973.76,-213.56"/>
<polygon fill="#63b8ff" stroke="#63b8ff" points="976.03,-210.87 966.57,-206.09 970.98,-215.72 976.03,-210.87"/>
</a>
</g>
</g>
<!-- Node12&#45;&gt;Node3 -->
<g id="edge24_Node000012_Node000003" class="edge">
<title>Node12&#45;&gt;Node3</title>
<g id="a_edge24_Node000012_Node000003"><a xlink:title=" ">
<path fill="none" stroke="#63b8ff" d="M1225.68,-186.96C1290.88,-178.12 1380.69,-163.82 1391.3,-151 1399.81,-140.73 1399.04,-131.86 1391.3,-121 1335.63,-42.85 1032.04,-19.1 910.57,-12.66"/>
<polygon fill="#63b8ff" stroke="#63b8ff" points="910.59,-9.16 900.43,-12.14 910.23,-16.15 910.59,-9.16"/>
</a>
</g>
</g>
<!-- Node13 -->
<g id="Node000013" class="node">
<title>Node13</title>
<g id="a_Node000013"><a xlink:href="ProcessorAudioSignalData_8h.html" target="_top" xlink:title=" ">
<polygon fill="white" stroke="#666666" points="1382.3,-145.5 1228.3,-145.5 1228.3,-126.5 1382.3,-126.5 1382.3,-145.5"/>
<text text-anchor="middle" x="1305.3" y="-133.5" font-family="Helvetica,sans-Serif" font-size="10.00">ProcessorAudioSignalData.h</text>
</a>
</g>
</g>
<!-- Node12&#45;&gt;Node13 -->
<g id="edge25_Node000012_Node000013" class="edge">
<title>Node12&#45;&gt;Node13</title>
<g id="a_edge25_Node000012_Node000013"><a xlink:title=" ">
<path fill="none" stroke="#63b8ff" d="M1178.83,-186.99C1203.93,-177.07 1245.62,-160.59 1274.23,-149.28"/>
<polygon fill="#63b8ff" stroke="#63b8ff" points="1275.74,-152.45 1283.76,-145.52 1273.17,-145.94 1275.74,-152.45"/>
</a>
</g>
</g>
<!-- Node15 -->
<g id="Node000015" class="node">
<title>Node15</title>
<g id="a_Node000015"><a xlink:href="ProcessorLevelData_8h.html" target="_top" xlink:title=" ">
<polygon fill="white" stroke="#666666" points="1210.3,-145.5 1088.3,-145.5 1088.3,-126.5 1210.3,-126.5 1210.3,-145.5"/>
<text text-anchor="middle" x="1149.3" y="-133.5" font-family="Helvetica,sans-Serif" font-size="10.00">ProcessorLevelData.h</text>
</a>
</g>
</g>
<!-- Node12&#45;&gt;Node15 -->
<g id="edge29_Node000012_Node000015" class="edge">
<title>Node12&#45;&gt;Node15</title>
<g id="a_edge29_Node000012_Node000015"><a xlink:title=" ">
<path fill="none" stroke="#63b8ff" d="M1156.12,-186.87C1155.01,-178.75 1153.31,-166.31 1151.89,-155.89"/>
<polygon fill="#63b8ff" stroke="#63b8ff" points="1155.31,-155.1 1150.49,-145.67 1148.38,-156.05 1155.31,-155.1"/>
</a>
</g>
</g>
<!-- Node16 -->
<g id="Node000016" class="node">
<title>Node16</title>
<g id="a_Node000016"><a xlink:href="ProcessorSpectrumData_8h.html" target="_top" xlink:title=" ">
<polygon fill="white" stroke="#666666" points="1069.8,-145.5 926.8,-145.5 926.8,-126.5 1069.8,-126.5 1069.8,-145.5"/>
<text text-anchor="middle" x="998.3" y="-133.5" font-family="Helvetica,sans-Serif" font-size="10.00">ProcessorSpectrumData.h</text>
</a>
</g>
</g>
<!-- Node12&#45;&gt;Node16 -->
<g id="edge31_Node000012_Node000016" class="edge">
<title>Node12&#45;&gt;Node16</title>
<g id="a_edge31_Node000012_Node000016"><a xlink:title=" ">
<path fill="none" stroke="#63b8ff" d="M1134.18,-186.99C1106.98,-176.99 1061.64,-160.3 1030.88,-148.99"/>
<polygon fill="#63b8ff" stroke="#63b8ff" points="1032.05,-145.68 1021.45,-145.52 1029.63,-152.25 1032.05,-145.68"/>
</a>
</g>
</g>
<!-- Node13&#45;&gt;Node3 -->
<g id="edge26_Node000013_Node000003" class="edge">
<title>Node13&#45;&gt;Node3</title>
<g id="a_edge26_Node000013_Node000003"><a xlink:title=" ">
<path fill="none" stroke="#63b8ff" d="M1292.26,-126.39C1266.38,-109.74 1206.17,-73.17 1150.3,-55 1068.96,-28.55 969.56,-17.65 910.79,-13.29"/>
<polygon fill="#63b8ff" stroke="#63b8ff" points="910.87,-9.78 900.65,-12.57 910.38,-16.77 910.87,-9.78"/>
</a>
</g>
</g>
<!-- Node14 -->
<g id="Node000014" class="node">
<title>Node14</title>
<g id="a_Node000014"><a xlink:href="AbstractProcessorData_8h.html" target="_top" xlink:title=" ">
<polygon fill="white" stroke="#666666" points="1141.8,-79.5 1004.8,-79.5 1004.8,-60.5 1141.8,-60.5 1141.8,-79.5"/>
<text text-anchor="middle" x="1073.3" y="-67.5" font-family="Helvetica,sans-Serif" font-size="10.00">AbstractProcessorData.h</text>
</a>
</g>
</g>
<!-- Node13&#45;&gt;Node14 -->
<g id="edge27_Node000013_Node000014" class="edge">
<title>Node13&#45;&gt;Node14</title>
<g id="a_edge27_Node000013_Node000014"><a xlink:title=" ">
<path fill="none" stroke="#63b8ff" d="M1274.02,-126.37C1232.74,-114.98 1159.98,-94.91 1114.33,-82.32"/>
<polygon fill="#63b8ff" stroke="#63b8ff" points="1115.04,-78.88 1104.47,-79.6 1113.18,-85.63 1115.04,-78.88"/>
</a>
</g>
</g>
<!-- Node14&#45;&gt;Node3 -->
<g id="edge28_Node000014_Node000003" class="edge">
<title>Node14&#45;&gt;Node3</title>
<g id="a_edge28_Node000014_Node000003"><a xlink:title=" ">
<path fill="none" stroke="#63b8ff" d="M1042.33,-60.49C1005.03,-50.25 942.24,-33 901.04,-21.69"/>
<polygon fill="#63b8ff" stroke="#63b8ff" points="901.88,-18.29 891.31,-19.02 900.03,-25.04 901.88,-18.29"/>
</a>
</g>
</g>
<!-- Node15&#45;&gt;Node14 -->
<g id="edge30_Node000015_Node000014" class="edge">
<title>Node15&#45;&gt;Node14</title>
<g id="a_edge30_Node000015_Node000014"><a xlink:title=" ">
<path fill="none" stroke="#63b8ff" d="M1139.05,-126.37C1127,-116.21 1106.74,-99.16 1091.89,-86.65"/>
<polygon fill="#63b8ff" stroke="#63b8ff" points="1093.78,-83.67 1083.88,-79.91 1089.27,-89.02 1093.78,-83.67"/>
</a>
</g>
</g>
<!-- Node16&#45;&gt;Node14 -->
<g id="edge32_Node000016_Node000014" class="edge">
<title>Node16&#45;&gt;Node14</title>
<g id="a_edge32_Node000016_Node000014"><a xlink:title=" ">
<path fill="none" stroke="#63b8ff" d="M1008.42,-126.37C1020.32,-116.21 1040.31,-99.16 1054.96,-86.65"/>
<polygon fill="#63b8ff" stroke="#63b8ff" points="1057.53,-89.06 1062.87,-79.91 1052.99,-83.73 1057.53,-89.06"/>
</a>
</g>
</g>
<!-- Node17&#45;&gt;Node3 -->
<g id="edge35_Node000017_Node000003" class="edge">
<title>Node17&#45;&gt;Node3</title>
<g id="a_edge35_Node000017_Node000003"><a xlink:title=" ">
<path fill="none" stroke="#63b8ff" d="M1521.04,-120.74C1538.29,-103.44 1561.28,-74.19 1543.3,-55 1500.31,-9.11 1061.48,-8.69 910.79,-9.91"/>
<polygon fill="#63b8ff" stroke="#63b8ff" points="910.41,-6.42 900.44,-10 910.47,-13.42 910.41,-6.42"/>
</a>
</g>
</g>
<!-- Node18 -->
<g id="Node000018" class="node">
<title>Node18</title>
<g id="a_Node000018"><a xlink:href="AudioSelectComponent_8h.html" target="_top" xlink:title=" ">
<polygon fill="white" stroke="#666666" points="1534.3,-79.5 1394.3,-79.5 1394.3,-60.5 1534.3,-60.5 1534.3,-79.5"/>
<text text-anchor="middle" x="1464.3" y="-67.5" font-family="Helvetica,sans-Serif" font-size="10.00">AudioSelectComponent.h</text>
</a>
</g>
</g>
<!-- Node17&#45;&gt;Node18 -->
<g id="edge36_Node000017_Node000018" class="edge">
<title>Node17&#45;&gt;Node18</title>
<g id="a_edge36_Node000017_Node000018"><a xlink:title=" ">
<path fill="none" stroke="#63b8ff" d="M1496.21,-120.8C1490.06,-111.21 1481.92,-98.5 1475.4,-88.32"/>
<polygon fill="#63b8ff" stroke="#63b8ff" points="1478.31,-86.38 1469.97,-79.84 1472.42,-90.15 1478.31,-86.38"/>
</a>
</g>
</g>
<!-- Node18&#45;&gt;Node3 -->
<g id="edge37_Node000018_Node000003" class="edge">
<title>Node18&#45;&gt;Node3</title>
<g id="a_edge37_Node000018_Node000003"><a xlink:title=" ">
<path fill="none" stroke="#63b8ff" d="M1417.31,-60.49C1405.27,-58.5 1392.33,-56.51 1380.3,-55 1208.7,-33.39 1003.88,-19.27 910.8,-13.48"/>
<polygon fill="#63b8ff" stroke="#63b8ff" points="910.74,-9.97 900.54,-12.85 910.31,-16.95 910.74,-9.97"/>
</a>
</g>
</g>
<!-- Node19&#45;&gt;Node3 -->
<g id="edge39_Node000019_Node000003" class="edge">
<title>Node19&#45;&gt;Node3</title>
<g id="a_edge39_Node000019_Node000003"><a xlink:title=" ">
<path fill="none" stroke="#63b8ff" d="M1601.02,-186.72C1602.52,-161.41 1602.97,-88.01 1561.3,-55 1510.61,-14.84 1062.62,-10.68 910.55,-10.43"/>
<polygon fill="#63b8ff" stroke="#63b8ff" points="910.55,-6.93 900.54,-10.42 910.54,-13.93 910.55,-6.93"/>
</a>
</g>
</g>
<!-- Node20 -->
<g id="Node000020" class="node">
<title>Node20</title>
<g id="a_Node000020"><a xlink:title=" ">
<polygon fill="#e0e0e0" stroke="#999999" points="1762.3,-145.5 1628.3,-145.5 1628.3,-126.5 1762.3,-126.5 1762.3,-145.5"/>
<text text-anchor="middle" x="1695.3" y="-133.5" font-family="Helvetica,sans-Serif" font-size="10.00">AppConfigurationBase.h</text>
</a>
</g>
</g>
<!-- Node19&#45;&gt;Node20 -->
<g id="edge40_Node000019_Node000020" class="edge">
<title>Node19&#45;&gt;Node20</title>
<g id="a_edge40_Node000019_Node000020"><a xlink:title=" ">
<path fill="none" stroke="#63b8ff" d="M1614.32,-186.87C1629.62,-177.45 1654.34,-162.23 1672.45,-151.08"/>
<polygon fill="#63b8ff" stroke="#63b8ff" points="1674.55,-153.89 1681.23,-145.67 1670.88,-147.93 1674.55,-153.89"/>
</a>
</g>
</g>
</g>
</svg>

<g id="navigator" transform="translate(0 0)" fill="#404254">
  <rect fill="#f2f5e9" fill-opacity="0.5" stroke="#606060" stroke-width=".5" x="0" y="0" width="60" height="60"/>
  <use id="zoomplus" xlink:href="#zoomPlus" x="17" y="9" onmousedown="handleZoom(evt,'in')"/>
  <use id="zoomminus" xlink:href="#zoomMin" x="42" y="9" onmousedown="handleZoom(evt,'out')"/>
  <use id="reset" xlink:href="#resetDef" x="30" y="36" onmousedown="handleReset()"/>
   <use id="arrowup" xlink:href="#arrowUp" x="0" y="0" onmousedown="handlePan(0,-1)"/>
  <use id="arrowright" xlink:href="#arrowRight" x="0" y="0" onmousedown="handlePan(1,0)"/>
  <use id="arrowdown" xlink:href="#arrowDown" x="0" y="0" onmousedown="handlePan(0,1)"/>
  <use id="arrowleft" xlink:href="#arrowLeft" x="0" y="0" onmousedown="handlePan(-1,0)"/>
</g>
<svg viewBox="0 0 15 15" width="100%" height="30px" preserveAspectRatio="xMaxYMin meet">
 <g id="arrow_out" transform="scale(0.3 0.3)">
  <a xlink:href="MemaReComponent_8cpp__incl_org.svg" target="_base">
   <rect id="button" ry="5" rx="5" y="6" x="6" height="38" width="38"
        fill="#f2f5e9" fill-opacity="0.5" stroke="#606060" stroke-width="1.0"/>
   <path id="arrow"
     d="M 11.500037,31.436501 C 11.940474,20.09759 22.043105,11.32322 32.158766,21.979434 L 37.068811,17.246167 C 37.068811,17.246167 37.088388,32 37.088388,32 L 22.160133,31.978069 C 22.160133,31.978069 26.997745,27.140456 26.997745,27.140456 C 18.528582,18.264221 13.291696,25.230495 11.500037,31.436501 z"
     style="fill:#404040;"/>
  </a>
 </g>
</svg>

<style type='text/css'>
<![CDATA[
[data-mouse-over-selected='false'] { opacity: 0.7; }
[data-mouse-over-selected='true']  { opacity: 1.0; }
]]>
</style>
<script type="application/ecmascript"><![CDATA[
document.addEventListener('DOMContentLoaded', (event) => {
  highlightEdges();
  highlightAdjacentNodes();
});
]]></script>
</svg>
