<?xml version="1.0" encoding="UTF-8" standalone="no"?>
<!DOCTYPE svg PUBLIC "-//W3C//DTD SVG 1.1//EN"
 "http://www.w3.org/Graphics/SVG/1.1/DTD/svg11.dtd">
<!-- Generated by graphviz version 2.43.0 (0)
 -->
<!-- Title: MemaMo/Main.cpp Pages: 1 -->
<svg width="407pt" height="192pt"
 viewBox="0.00 0.00 406.50 192.00" xmlns="http://www.w3.org/2000/svg" xmlns:xlink="http://www.w3.org/1999/xlink">

<svg id="main" version="1.1" xmlns="http://www.w3.org/2000/svg" xmlns:xlink="http://www.w3.org/1999/xlink" xml:space="preserve" onload="init(evt)">
<style type="text/css"><![CDATA[
.node, .edge {opacity: 0.7;}
.node.selected, .edge.selected {opacity: 1;}
.edge:hover path { stroke: red; }
.edge:hover polygon { stroke: red; fill: red; }
]]></style>
<script type="application/ecmascript" xlink:href="svg.min.js"/>
<svg id="graph" class="graph">
<g id="graph0" class="graph" transform="scale(1 1) rotate(0) translate(4 188)">
<title>MemaMo/Main.cpp</title>
<!-- Node1 -->
<g id="Node000001" class="node">
<title>Node1</title>
<g id="a_Node000001"><a xlink:title=" ">
<polygon fill="#999999" stroke="#666666" points="179,-184 69,-184 69,-165 179,-165 179,-184"/>
<text text-anchor="middle" x="124" y="-172" font-family="Helvetica,sans-Serif" font-size="10.00">MemaMo/Main.cpp</text>
</a>
</g>
</g>
<!-- Node2 -->
<g id="Node000002" class="node">
<title>Node2</title>
<g id="a_Node000002"><a xlink:title=" ">
<polygon fill="#e0e0e0" stroke="#999999" points="80,-19 0,-19 0,0 80,0 80,-19"/>
<text text-anchor="middle" x="40" y="-7" font-family="Helvetica,sans-Serif" font-size="10.00">JuceHeader.h</text>
</a>
</g>
</g>
<!-- Node1&#45;&gt;Node2 -->
<g id="edge1_Node000001_Node000002" class="edge">
<title>Node1&#45;&gt;Node2</title>
<g id="a_edge1_Node000001_Node000002"><a xlink:title=" ">
<path fill="none" stroke="#63b8ff" d="M105.24,-164.96C91.08,-157.51 72.37,-145.33 62,-129 42.34,-98.05 39.29,-53.94 39.32,-29.2"/>
<polygon fill="#63b8ff" stroke="#63b8ff" points="42.82,-29.09 39.51,-19.02 35.82,-28.96 42.82,-29.09"/>
</a>
</g>
</g>
<!-- Node3 -->
<g id="Node000003" class="node">
<title>Node3</title>
<g id="a_Node000003"><a xlink:href="MemaMo_2MainComponent_8h.html" target="_top" xlink:title=" ">
<polygon fill="white" stroke="#666666" points="177,-129 71,-129 71,-110 177,-110 177,-129"/>
<text text-anchor="middle" x="124" y="-117" font-family="Helvetica,sans-Serif" font-size="10.00">MainComponent.h</text>
</a>
</g>
</g>
<!-- Node1&#45;&gt;Node3 -->
<g id="edge2_Node000001_Node000003" class="edge">
<title>Node1&#45;&gt;Node3</title>
<g id="a_edge2_Node000001_Node000003"><a xlink:title=" ">
<path fill="none" stroke="#63b8ff" d="M124,-164.75C124,-157.8 124,-147.85 124,-139.13"/>
<polygon fill="#63b8ff" stroke="#63b8ff" points="127.5,-139.09 124,-129.09 120.5,-139.09 127.5,-139.09"/>
</a>
</g>
</g>
<!-- Node7 -->
<g id="Node000007" class="node">
<title>Node7</title>
<g id="a_Node000007"><a xlink:title=" ">
<polygon fill="#e0e0e0" stroke="#999999" points="320.5,-129 195.5,-129 195.5,-110 320.5,-110 320.5,-129"/>
<text text-anchor="middle" x="258" y="-117" font-family="Helvetica,sans-Serif" font-size="10.00">CustomLookAndFeel.h</text>
</a>
</g>
</g>
<!-- Node1&#45;&gt;Node7 -->
<g id="edge8_Node000001_Node000007" class="edge">
<title>Node1&#45;&gt;Node7</title>
<g id="a_edge8_Node000001_Node000007"><a xlink:title=" ">
<path fill="none" stroke="#63b8ff" d="M145.53,-164.98C167.47,-156.3 201.74,-142.75 226.69,-132.88"/>
<polygon fill="#63b8ff" stroke="#63b8ff" points="228.07,-136.1 236.08,-129.17 225.49,-129.59 228.07,-136.1"/>
</a>
</g>
</g>
<!-- Node3&#45;&gt;Node2 -->
<g id="edge3_Node000003_Node000002" class="edge">
<title>Node3&#45;&gt;Node2</title>
<g id="a_edge3_Node000003_Node000002"><a xlink:title=" ">
<path fill="none" stroke="#63b8ff" d="M110.59,-109.97C98.7,-101.87 81.49,-88.76 70,-74 59.36,-60.33 51.29,-42.29 46.22,-28.93"/>
<polygon fill="#63b8ff" stroke="#63b8ff" points="49.47,-27.62 42.8,-19.39 42.88,-29.98 49.47,-27.62"/>
</a>
</g>
</g>
<!-- Node4 -->
<g id="Node000004" class="node">
<title>Node4</title>
<g id="a_Node000004"><a xlink:href="MemaMoAppConfiguration_8h.html" target="_top" xlink:title=" ">
<polygon fill="white" stroke="#666666" points="233.5,-74 78.5,-74 78.5,-55 233.5,-55 233.5,-74"/>
<text text-anchor="middle" x="156" y="-62" font-family="Helvetica,sans-Serif" font-size="10.00">MemaMoAppConfiguration.h</text>
</a>
</g>
</g>
<!-- Node3&#45;&gt;Node4 -->
<g id="edge4_Node000003_Node000004" class="edge">
<title>Node3&#45;&gt;Node4</title>
<g id="a_edge4_Node000003_Node000004"><a xlink:title=" ">
<path fill="none" stroke="#63b8ff" d="M129.28,-109.75C133.71,-102.42 140.16,-91.73 145.62,-82.7"/>
<polygon fill="#63b8ff" stroke="#63b8ff" points="148.64,-84.46 150.81,-74.09 142.65,-80.84 148.64,-84.46"/>
</a>
</g>
</g>
<!-- Node6 -->
<g id="Node000006" class="node">
<title>Node6</title>
<g id="a_Node000006"><a xlink:title=" ">
<polygon fill="#e0e0e0" stroke="#999999" points="398.5,-74 251.5,-74 251.5,-55 398.5,-55 398.5,-74"/>
<text text-anchor="middle" x="325" y="-62" font-family="Helvetica,sans-Serif" font-size="10.00">ServiceTopologyManager.h</text>
</a>
</g>
</g>
<!-- Node3&#45;&gt;Node6 -->
<g id="edge7_Node000003_Node000006" class="edge">
<title>Node3&#45;&gt;Node6</title>
<g id="a_edge7_Node000003_Node000006"><a xlink:title=" ">
<path fill="none" stroke="#63b8ff" d="M156.29,-109.98C190.62,-100.93 245.06,-86.58 282.77,-76.64"/>
<polygon fill="#63b8ff" stroke="#63b8ff" points="283.68,-80.02 292.45,-74.08 281.89,-73.25 283.68,-80.02"/>
</a>
</g>
</g>
<!-- Node4&#45;&gt;Node2 -->
<g id="edge5_Node000004_Node000002" class="edge">
<title>Node4&#45;&gt;Node2</title>
<g id="a_edge5_Node000004_Node000002"><a xlink:title=" ">
<path fill="none" stroke="#63b8ff" d="M137.36,-54.98C118.7,-46.46 89.75,-33.23 68.26,-23.41"/>
<polygon fill="#63b8ff" stroke="#63b8ff" points="69.53,-20.14 58.98,-19.17 66.62,-26.51 69.53,-20.14"/>
</a>
</g>
</g>
<!-- Node5 -->
<g id="Node000005" class="node">
<title>Node5</title>
<g id="a_Node000005"><a xlink:title=" ">
<polygon fill="#e0e0e0" stroke="#999999" points="232,-19 98,-19 98,0 232,0 232,-19"/>
<text text-anchor="middle" x="165" y="-7" font-family="Helvetica,sans-Serif" font-size="10.00">AppConfigurationBase.h</text>
</a>
</g>
</g>
<!-- Node4&#45;&gt;Node5 -->
<g id="edge6_Node000004_Node000005" class="edge">
<title>Node4&#45;&gt;Node5</title>
<g id="a_edge6_Node000004_Node000005"><a xlink:title=" ">
<path fill="none" stroke="#63b8ff" d="M157.49,-54.75C158.67,-47.8 160.36,-37.85 161.84,-29.13"/>
<polygon fill="#63b8ff" stroke="#63b8ff" points="165.32,-29.53 163.54,-19.09 158.42,-28.36 165.32,-29.53"/>
</a>
</g>
</g>
</g>
</svg>
</svg>

<style type='text/css'>
<![CDATA[
[data-mouse-over-selected='false'] { opacity: 0.7; }
[data-mouse-over-selected='true']  { opacity: 1.0; }
]]>
</style>
<script type="application/ecmascript"><![CDATA[
document.addEventListener('DOMContentLoaded', (event) => {
  highlightEdges();
  highlightAdjacentNodes();
});
]]></script>
</svg>
