<?xml version="1.0" encoding="UTF-8" standalone="no"?>
<!DOCTYPE svg PUBLIC "-//W3C//DTD SVG 1.1//EN"
 "http://www.w3.org/Graphics/SVG/1.1/DTD/svg11.dtd">
<!-- Generated by graphviz version 2.43.0 (0)
 -->
<!-- Title: Source/MemaProcessor/MemaMessages.h Pages: 1 -->
<svg width="2108pt" height="302pt"
 viewBox="0.00 0.00 2108.00 302.00" xmlns="http://www.w3.org/2000/svg" xmlns:xlink="http://www.w3.org/1999/xlink">
<g id="graph0" class="graph" transform="scale(1 1) rotate(0) translate(4 298)">
<title>Source/MemaProcessor/MemaMessages.h</title>
<!-- Node1 -->
<g id="Node000001" class="node">
<title>Node1</title>
<g id="a_Node000001"><a xlink:title=" ">
<polygon fill="#999999" stroke="#666666" points="379.5,-294 248.5,-294 248.5,-264 379.5,-264 379.5,-294"/>
<text text-anchor="start" x="256.5" y="-282" font-family="Helvetica,sans-Serif" font-size="10.00">Source/MemaProcessor</text>
<text text-anchor="middle" x="314" y="-271" font-family="Helvetica,sans-Serif" font-size="10.00">/MemaMessages.h</text>
</a>
</g>
</g>
<!-- Node2 -->
<g id="Node000002" class="node">
<title>Node2</title>
<g id="a_Node000002"><a xlink:href="MemaMo_2MainComponent_8cpp.html" target="_top" xlink:title=" ">
<polygon fill="white" stroke="#666666" points="166,-222.5 0,-222.5 0,-203.5 166,-203.5 166,-222.5"/>
<text text-anchor="middle" x="83" y="-210.5" font-family="Helvetica,sans-Serif" font-size="10.00">MemaMo/MainComponent.cpp</text>
</a>
</g>
</g>
<!-- Node1&#45;&gt;Node2 -->
<g id="edge1_Node000001_Node000002" class="edge">
<title>Node1&#45;&gt;Node2</title>
<g id="a_edge1_Node000001_Node000002"><a xlink:title=" ">
<path fill="none" stroke="#63b8ff" d="M253.39,-261.21C208.52,-248.78 149.25,-232.35 113.74,-222.52"/>
<polygon fill="#63b8ff" stroke="#63b8ff" points="252.73,-264.66 263.31,-263.95 254.6,-257.91 252.73,-264.66"/>
</a>
</g>
</g>
<!-- Node3 -->
<g id="Node000003" class="node">
<title>Node3</title>
<g id="a_Node000003"><a xlink:href="MemaMoComponent_8cpp.html" target="_top" xlink:title=" ">
<polygon fill="white" stroke="#666666" points="597,-24.5 409,-24.5 409,-5.5 597,-5.5 597,-24.5"/>
<text text-anchor="middle" x="503" y="-12.5" font-family="Helvetica,sans-Serif" font-size="10.00">MemaMo/MemaMoComponent.cpp</text>
</a>
</g>
</g>
<!-- Node1&#45;&gt;Node3 -->
<g id="edge2_Node000001_Node000003" class="edge">
<title>Node1&#45;&gt;Node3</title>
<g id="a_edge2_Node000001_Node000003"><a xlink:title=" ">
<path fill="none" stroke="#63b8ff" d="M282.98,-258.22C243.05,-230.23 182.25,-177.41 213,-132 242.98,-87.71 398.93,-42.81 468.93,-24.53"/>
<polygon fill="#63b8ff" stroke="#63b8ff" points="281.16,-261.22 291.39,-263.97 285.11,-255.44 281.16,-261.22"/>
</a>
</g>
</g>
<!-- Node4 -->
<g id="Node000004" class="node">
<title>Node4</title>
<g id="a_Node000004"><a xlink:href="MemaRe_2MainComponent_8cpp.html" target="_top" xlink:title=" ">
<polygon fill="white" stroke="#666666" points="736,-222.5 572,-222.5 572,-203.5 736,-203.5 736,-222.5"/>
<text text-anchor="middle" x="654" y="-210.5" font-family="Helvetica,sans-Serif" font-size="10.00">MemaRe/MainComponent.cpp</text>
</a>
</g>
</g>
<!-- Node1&#45;&gt;Node4 -->
<g id="edge3_Node000001_Node000004" class="edge">
<title>Node1&#45;&gt;Node4</title>
<g id="a_edge3_Node000001_Node000004"><a xlink:title=" ">
<path fill="none" stroke="#63b8ff" d="M389.67,-263.76C456.86,-251.11 552.82,-233.05 608.74,-222.52"/>
<polygon fill="#63b8ff" stroke="#63b8ff" points="388.74,-260.37 379.56,-265.66 390.03,-267.25 388.74,-260.37"/>
</a>
</g>
</g>
<!-- Node5 -->
<g id="Node000005" class="node">
<title>Node5</title>
<g id="a_Node000005"><a xlink:href="MemaReComponent_8cpp.html" target="_top" xlink:title=" ">
<polygon fill="white" stroke="#666666" points="405.5,-156.5 222.5,-156.5 222.5,-137.5 405.5,-137.5 405.5,-156.5"/>
<text text-anchor="middle" x="314" y="-144.5" font-family="Helvetica,sans-Serif" font-size="10.00">MemaRe/MemaReComponent.cpp</text>
</a>
</g>
</g>
<!-- Node1&#45;&gt;Node5 -->
<g id="edge4_Node000001_Node000005" class="edge">
<title>Node1&#45;&gt;Node5</title>
<g id="a_edge4_Node000001_Node000005"><a xlink:title=" ">
<path fill="none" stroke="#63b8ff" d="M314,-253.57C314,-224.17 314,-176.31 314,-156.75"/>
<polygon fill="#63b8ff" stroke="#63b8ff" points="310.5,-253.84 314,-263.84 317.5,-253.84 310.5,-253.84"/>
</a>
</g>
</g>
<!-- Node6 -->
<g id="Node000006" class="node">
<title>Node6</title>
<g id="a_Node000006"><a xlink:href="MemaProcessor_8h.html" target="_top" xlink:title=" ">
<polygon fill="white" stroke="#666666" points="553.5,-228 422.5,-228 422.5,-198 553.5,-198 553.5,-228"/>
<text text-anchor="start" x="430.5" y="-216" font-family="Helvetica,sans-Serif" font-size="10.00">Source/MemaProcessor</text>
<text text-anchor="middle" x="488" y="-205" font-family="Helvetica,sans-Serif" font-size="10.00">/MemaProcessor.h</text>
</a>
</g>
</g>
<!-- Node1&#45;&gt;Node6 -->
<g id="edge5_Node000001_Node000006" class="edge">
<title>Node1&#45;&gt;Node6</title>
<g id="a_edge5_Node000001_Node000006"><a xlink:title=" ">
<path fill="none" stroke="#63b8ff" d="M361.7,-260.46C389.46,-250.25 423.97,-237.55 449.9,-228.01"/>
<polygon fill="#63b8ff" stroke="#63b8ff" points="360.36,-257.22 352.19,-263.95 362.78,-263.79 360.36,-257.22"/>
</a>
</g>
</g>
<!-- Node6&#45;&gt;Node3 -->
<g id="edge6_Node000006_Node000003" class="edge">
<title>Node6&#45;&gt;Node3</title>
<g id="a_edge6_Node000006_Node000003"><a xlink:title=" ">
<path fill="none" stroke="#63b8ff" d="M468.3,-190.05C462.16,-181.84 456.17,-172.05 453,-162 440.17,-121.31 436.67,-105.42 453,-66 460.33,-48.31 477.29,-33.61 489.43,-24.83"/>
<polygon fill="#63b8ff" stroke="#63b8ff" points="465.66,-192.36 474.64,-197.98 471.13,-187.99 465.66,-192.36"/>
</a>
</g>
</g>
<!-- Node6&#45;&gt;Node5 -->
<g id="edge7_Node000006_Node000005" class="edge">
<title>Node6&#45;&gt;Node5</title>
<g id="a_edge7_Node000006_Node000005"><a xlink:title=" ">
<path fill="none" stroke="#63b8ff" d="M440.2,-194.42C406.68,-182.09 363.34,-166.15 337.16,-156.52"/>
<polygon fill="#63b8ff" stroke="#63b8ff" points="439.22,-197.79 449.81,-197.95 441.64,-191.22 439.22,-197.79"/>
</a>
</g>
</g>
<!-- Node7 -->
<g id="Node000007" class="node">
<title>Node7</title>
<g id="a_Node000007"><a xlink:href="HeadlessCLIMenu_8cpp.html" target="_top" xlink:title=" ">
<polygon fill="white" stroke="#666666" points="622,-156.5 462,-156.5 462,-137.5 622,-137.5 622,-156.5"/>
<text text-anchor="middle" x="542" y="-144.5" font-family="Helvetica,sans-Serif" font-size="10.00">Source/HeadlessCLIMenu.cpp</text>
</a>
</g>
</g>
<!-- Node6&#45;&gt;Node7 -->
<g id="edge8_Node000006_Node000007" class="edge">
<title>Node6&#45;&gt;Node7</title>
<g id="a_edge8_Node000006_Node000007"><a xlink:title=" ">
<path fill="none" stroke="#63b8ff" d="M506.61,-189.94C516.2,-178.58 527.35,-165.36 534.54,-156.84"/>
<polygon fill="#63b8ff" stroke="#63b8ff" points="503.76,-187.9 499.98,-197.8 509.11,-192.41 503.76,-187.9"/>
</a>
</g>
</g>
<!-- Node8 -->
<g id="Node000008" class="node">
<title>Node8</title>
<g id="a_Node000008"><a xlink:href="Mema_8cpp.html" target="_top" xlink:title=" ">
<polygon fill="white" stroke="#666666" points="744,-156.5 640,-156.5 640,-137.5 744,-137.5 744,-156.5"/>
<text text-anchor="middle" x="692" y="-144.5" font-family="Helvetica,sans-Serif" font-size="10.00">Source/Mema.cpp</text>
</a>
</g>
</g>
<!-- Node6&#45;&gt;Node8 -->
<g id="edge9_Node000006_Node000008" class="edge">
<title>Node6&#45;&gt;Node8</title>
<g id="a_edge9_Node000006_Node000008"><a xlink:title=" ">
<path fill="none" stroke="#63b8ff" d="M542.53,-194.89C582.03,-182.5 633.76,-166.27 664.85,-156.52"/>
<polygon fill="#63b8ff" stroke="#63b8ff" points="541.26,-191.62 532.77,-197.95 543.36,-198.3 541.26,-191.62"/>
</a>
</g>
</g>
<!-- Node9 -->
<g id="Node000009" class="node">
<title>Node9</title>
<g id="a_Node000009"><a xlink:href="MemaProcessor_8cpp.html" target="_top" xlink:title=" ">
<polygon fill="white" stroke="#666666" points="893.5,-162 762.5,-162 762.5,-132 893.5,-132 893.5,-162"/>
<text text-anchor="start" x="770.5" y="-150" font-family="Helvetica,sans-Serif" font-size="10.00">Source/MemaProcessor</text>
<text text-anchor="middle" x="828" y="-139" font-family="Helvetica,sans-Serif" font-size="10.00">/MemaProcessor.cpp</text>
</a>
</g>
</g>
<!-- Node6&#45;&gt;Node9 -->
<g id="edge10_Node000006_Node000009" class="edge">
<title>Node6&#45;&gt;Node9</title>
<g id="a_edge10_Node000006_Node000009"><a xlink:title=" ">
<path fill="none" stroke="#63b8ff" d="M563.66,-197.76C623.27,-186.54 705.51,-171.06 762.36,-160.36"/>
<polygon fill="#63b8ff" stroke="#63b8ff" points="562.74,-194.37 553.56,-199.66 564.03,-201.25 562.74,-194.37"/>
</a>
</g>
</g>
<!-- Node10 -->
<g id="Node000010" class="node">
<title>Node10</title>
<g id="a_Node000010"><a xlink:href="AbstractAudioVisualizer_8h.html" target="_top" xlink:title=" ">
<polygon fill="white" stroke="#666666" points="1354.5,-162 1195.5,-162 1195.5,-132 1354.5,-132 1354.5,-162"/>
<text text-anchor="start" x="1203.5" y="-150" font-family="Helvetica,sans-Serif" font-size="10.00">Source/MemaProcessorEditor</text>
<text text-anchor="middle" x="1275" y="-139" font-family="Helvetica,sans-Serif" font-size="10.00">/AbstractAudioVisualizer.h</text>
</a>
</g>
</g>
<!-- Node6&#45;&gt;Node10 -->
<g id="edge11_Node000006_Node000010" class="edge">
<title>Node6&#45;&gt;Node10</title>
<g id="a_edge11_Node000006_Node000010"><a xlink:title=" ">
<path fill="none" stroke="#63b8ff" d="M563.9,-197.99C799.14,-168.38 1065.39,-155.55 1195.42,-150.62"/>
<polygon fill="#63b8ff" stroke="#63b8ff" points="563.26,-194.55 553.78,-199.28 564.14,-201.49 563.26,-194.55"/>
</a>
</g>
</g>
<!-- Node11 -->
<g id="Node000011" class="node">
<title>Node11</title>
<g id="a_Node000011"><a xlink:href="SpectrumAudioComponent_8h.html" target="_top" xlink:title=" ">
<polygon fill="white" stroke="#666666" points="979.5,-96 820.5,-96 820.5,-66 979.5,-66 979.5,-96"/>
<text text-anchor="start" x="828.5" y="-84" font-family="Helvetica,sans-Serif" font-size="10.00">Source/MemaClientCommon</text>
<text text-anchor="middle" x="900" y="-73" font-family="Helvetica,sans-Serif" font-size="10.00">/SpectrumAudioComponent.h</text>
</a>
</g>
</g>
<!-- Node10&#45;&gt;Node11 -->
<g id="edge12_Node000010_Node000011" class="edge">
<title>Node10&#45;&gt;Node11</title>
<g id="a_edge12_Node000010_Node000011"><a xlink:title=" ">
<path fill="none" stroke="#63b8ff" d="M1185.61,-130.74C1123.01,-120.06 1040.09,-105.91 979.74,-95.61"/>
<polygon fill="#63b8ff" stroke="#63b8ff" points="1185.03,-134.19 1195.47,-132.43 1186.2,-127.29 1185.03,-134.19"/>
</a>
</g>
</g>
<!-- Node13 -->
<g id="Node000013" class="node">
<title>Node13</title>
<g id="a_Node000013"><a xlink:href="TwoDFieldMultisliderComponent_8h.html" target="_top" xlink:title=" ">
<polygon fill="white" stroke="#666666" points="1368,-96 1182,-96 1182,-66 1368,-66 1368,-96"/>
<text text-anchor="start" x="1190" y="-84" font-family="Helvetica,sans-Serif" font-size="10.00">Source/MemaClientCommon</text>
<text text-anchor="middle" x="1275" y="-73" font-family="Helvetica,sans-Serif" font-size="10.00">/TwoDFieldMultisliderComponent.h</text>
</a>
</g>
</g>
<!-- Node10&#45;&gt;Node13 -->
<g id="edge15_Node000010_Node000013" class="edge">
<title>Node10&#45;&gt;Node13</title>
<g id="a_edge15_Node000010_Node000013"><a xlink:title=" ">
<path fill="none" stroke="#63b8ff" d="M1275,-121.54C1275,-112.96 1275,-103.61 1275,-96.16"/>
<polygon fill="#63b8ff" stroke="#63b8ff" points="1271.5,-121.8 1275,-131.8 1278.5,-121.8 1271.5,-121.8"/>
</a>
</g>
</g>
<!-- Node16 -->
<g id="Node000016" class="node">
<title>Node16</title>
<g id="a_Node000016"><a xlink:href="TwoDFieldOutputComponent_8h.html" target="_top" xlink:title=" ">
<polygon fill="white" stroke="#666666" points="1164.5,-96 997.5,-96 997.5,-66 1164.5,-66 1164.5,-96"/>
<text text-anchor="start" x="1005.5" y="-84" font-family="Helvetica,sans-Serif" font-size="10.00">Source/MemaClientCommon</text>
<text text-anchor="middle" x="1081" y="-73" font-family="Helvetica,sans-Serif" font-size="10.00">/TwoDFieldOutputComponent.h</text>
</a>
</g>
</g>
<!-- Node10&#45;&gt;Node16 -->
<g id="edge18_Node000010_Node000016" class="edge">
<title>Node10&#45;&gt;Node16</title>
<g id="a_edge18_Node000010_Node000016"><a xlink:title=" ">
<path fill="none" stroke="#63b8ff" d="M1222.63,-128.72C1191.54,-118.47 1152.64,-105.63 1123.47,-96.01"/>
<polygon fill="#63b8ff" stroke="#63b8ff" points="1221.83,-132.15 1232.43,-131.95 1224.03,-125.5 1221.83,-132.15"/>
</a>
</g>
</g>
<!-- Node18 -->
<g id="Node000018" class="node">
<title>Node18</title>
<g id="a_Node000018"><a xlink:href="WaveformAudioComponent_8h.html" target="_top" xlink:title=" ">
<polygon fill="white" stroke="#666666" points="625.5,-96 462.5,-96 462.5,-66 625.5,-66 625.5,-96"/>
<text text-anchor="start" x="470.5" y="-84" font-family="Helvetica,sans-Serif" font-size="10.00">Source/MemaClientCommon</text>
<text text-anchor="middle" x="544" y="-73" font-family="Helvetica,sans-Serif" font-size="10.00">/WaveformAudioComponent.h</text>
</a>
</g>
</g>
<!-- Node10&#45;&gt;Node18 -->
<g id="edge21_Node000010_Node000018" class="edge">
<title>Node10&#45;&gt;Node18</title>
<g id="a_edge21_Node000010_Node000018"><a xlink:title=" ">
<path fill="none" stroke="#63b8ff" d="M1185.15,-141.16C1060.97,-133.99 830,-118.85 634,-96 631.33,-95.69 628.62,-95.36 625.88,-95.01"/>
<polygon fill="#63b8ff" stroke="#63b8ff" points="1185.18,-144.67 1195.37,-141.75 1185.58,-137.68 1185.18,-144.67"/>
</a>
</g>
</g>
<!-- Node20 -->
<g id="Node000020" class="node">
<title>Node20</title>
<g id="a_Node000020"><a xlink:href="AbstractAudioVisualizer_8cpp.html" target="_top" xlink:title=" ">
<polygon fill="white" stroke="#666666" points="802.5,-96 643.5,-96 643.5,-66 802.5,-66 802.5,-96"/>
<text text-anchor="start" x="651.5" y="-84" font-family="Helvetica,sans-Serif" font-size="10.00">Source/MemaProcessorEditor</text>
<text text-anchor="middle" x="723" y="-73" font-family="Helvetica,sans-Serif" font-size="10.00">/AbstractAudioVisualizer.cpp</text>
</a>
</g>
</g>
<!-- Node10&#45;&gt;Node20 -->
<g id="edge24_Node000010_Node000020" class="edge">
<title>Node10&#45;&gt;Node20</title>
<g id="a_edge24_Node000010_Node000020"><a xlink:title=" ">
<path fill="none" stroke="#63b8ff" d="M1185.21,-137.68C1091.63,-128.69 940.79,-113.31 811,-96 808.24,-95.63 805.43,-95.25 802.6,-94.85"/>
<polygon fill="#63b8ff" stroke="#63b8ff" points="1184.92,-141.17 1195.21,-138.64 1185.59,-134.2 1184.92,-141.17"/>
</a>
</g>
</g>
<!-- Node21 -->
<g id="Node000021" class="node">
<title>Node21</title>
<g id="a_Node000021"><a xlink:href="InputControlComponent_8cpp.html" target="_top" xlink:title=" ">
<polygon fill="white" stroke="#666666" points="1740.5,-30 1581.5,-30 1581.5,0 1740.5,0 1740.5,-30"/>
<text text-anchor="start" x="1589.5" y="-18" font-family="Helvetica,sans-Serif" font-size="10.00">Source/MemaProcessorEditor</text>
<text text-anchor="middle" x="1661" y="-7" font-family="Helvetica,sans-Serif" font-size="10.00">/InputControlComponent.cpp</text>
</a>
</g>
</g>
<!-- Node10&#45;&gt;Node21 -->
<g id="edge25_Node000010_Node000021" class="edge">
<title>Node10&#45;&gt;Node21</title>
<g id="a_edge25_Node000010_Node000021"><a xlink:title=" ">
<path fill="none" stroke="#63b8ff" d="M1365.01,-140.98C1421.1,-135.18 1493.65,-122.73 1553,-96 1572.62,-87.16 1573.8,-78.92 1591,-66 1607.48,-53.62 1626.53,-40.06 1640.6,-30.19"/>
<polygon fill="#63b8ff" stroke="#63b8ff" points="1364.34,-137.52 1354.73,-141.98 1365.02,-144.49 1364.34,-137.52"/>
</a>
</g>
</g>
<!-- Node22 -->
<g id="Node000022" class="node">
<title>Node22</title>
<g id="a_Node000022"><a xlink:href="InputControlComponent_8h.html" target="_top" xlink:title=" ">
<polygon fill="white" stroke="#666666" points="1758.5,-96 1599.5,-96 1599.5,-66 1758.5,-66 1758.5,-96"/>
<text text-anchor="start" x="1607.5" y="-84" font-family="Helvetica,sans-Serif" font-size="10.00">Source/MemaProcessorEditor</text>
<text text-anchor="middle" x="1679" y="-73" font-family="Helvetica,sans-Serif" font-size="10.00">/InputControlComponent.h</text>
</a>
</g>
</g>
<!-- Node10&#45;&gt;Node22 -->
<g id="edge26_Node000010_Node000022" class="edge">
<title>Node10&#45;&gt;Node22</title>
<g id="a_edge26_Node000010_Node000022"><a xlink:title=" ">
<path fill="none" stroke="#63b8ff" d="M1364.98,-131.75C1435.22,-120.62 1531.89,-105.3 1599.35,-94.62"/>
<polygon fill="#63b8ff" stroke="#63b8ff" points="1364.15,-128.33 1354.82,-133.36 1365.24,-135.25 1364.15,-128.33"/>
</a>
</g>
</g>
<!-- Node24 -->
<g id="Node000024" class="node">
<title>Node24</title>
<g id="a_Node000024"><a xlink:href="MeterbridgeComponent_8h.html" target="_top" xlink:title=" ">
<polygon fill="white" stroke="#666666" points="1544.5,-96 1385.5,-96 1385.5,-66 1544.5,-66 1544.5,-96"/>
<text text-anchor="start" x="1393.5" y="-84" font-family="Helvetica,sans-Serif" font-size="10.00">Source/MemaProcessorEditor</text>
<text text-anchor="middle" x="1465" y="-73" font-family="Helvetica,sans-Serif" font-size="10.00">/MeterbridgeComponent.h</text>
</a>
</g>
</g>
<!-- Node10&#45;&gt;Node24 -->
<g id="edge29_Node000010_Node000024" class="edge">
<title>Node10&#45;&gt;Node24</title>
<g id="a_edge29_Node000010_Node000024"><a xlink:title=" ">
<path fill="none" stroke="#63b8ff" d="M1326.29,-128.72C1356.73,-118.47 1394.84,-105.63 1423.4,-96.01"/>
<polygon fill="#63b8ff" stroke="#63b8ff" points="1325.06,-125.45 1316.7,-131.95 1327.29,-132.08 1325.06,-125.45"/>
</a>
</g>
</g>
<!-- Node26 -->
<g id="Node000026" class="node">
<title>Node26</title>
<g id="a_Node000026"><a xlink:href="OutputControlComponent_8cpp.html" target="_top" xlink:title=" ">
<polygon fill="white" stroke="#666666" points="2100,-30 1936,-30 1936,0 2100,0 2100,-30"/>
<text text-anchor="start" x="1944" y="-18" font-family="Helvetica,sans-Serif" font-size="10.00">Source/MemaProcessorEditor</text>
<text text-anchor="middle" x="2018" y="-7" font-family="Helvetica,sans-Serif" font-size="10.00">/OutputControlComponent.cpp</text>
</a>
</g>
</g>
<!-- Node10&#45;&gt;Node26 -->
<g id="edge34_Node000010_Node000026" class="edge">
<title>Node10&#45;&gt;Node26</title>
<g id="a_edge34_Node000010_Node000026"><a xlink:title=" ">
<path fill="none" stroke="#63b8ff" d="M1364.81,-142.98C1535.46,-136.71 1894.12,-120.75 1945,-96 1974.76,-81.52 1998.1,-49.14 2009.79,-30.31"/>
<polygon fill="#63b8ff" stroke="#63b8ff" points="1364.46,-139.49 1354.6,-143.35 1364.72,-146.49 1364.46,-139.49"/>
</a>
</g>
</g>
<!-- Node27 -->
<g id="Node000027" class="node">
<title>Node27</title>
<g id="a_Node000027"><a xlink:href="OutputControlComponent_8h.html" target="_top" xlink:title=" ">
<polygon fill="white" stroke="#666666" points="1935.5,-96 1776.5,-96 1776.5,-66 1935.5,-66 1935.5,-96"/>
<text text-anchor="start" x="1784.5" y="-84" font-family="Helvetica,sans-Serif" font-size="10.00">Source/MemaProcessorEditor</text>
<text text-anchor="middle" x="1856" y="-73" font-family="Helvetica,sans-Serif" font-size="10.00">/OutputControlComponent.h</text>
</a>
</g>
</g>
<!-- Node10&#45;&gt;Node27 -->
<g id="edge35_Node000010_Node000027" class="edge">
<title>Node10&#45;&gt;Node27</title>
<g id="a_edge35_Node000010_Node000027"><a xlink:title=" ">
<path fill="none" stroke="#63b8ff" d="M1364.83,-138.43C1463.78,-129.73 1627.52,-114.28 1768,-96 1770.76,-95.64 1773.57,-95.26 1776.4,-94.87"/>
<polygon fill="#63b8ff" stroke="#63b8ff" points="1364.23,-134.97 1354.57,-139.33 1364.84,-141.94 1364.23,-134.97"/>
</a>
</g>
</g>
<!-- Node11&#45;&gt;Node3 -->
<g id="edge13_Node000011_Node000003" class="edge">
<title>Node11&#45;&gt;Node3</title>
<g id="a_edge13_Node000011_Node000003"><a xlink:title=" ">
<path fill="none" stroke="#63b8ff" d="M810.26,-65.53C731.86,-52.89 620.71,-34.98 555.81,-24.51"/>
<polygon fill="#63b8ff" stroke="#63b8ff" points="809.71,-68.99 820.14,-67.13 810.82,-62.08 809.71,-68.99"/>
</a>
</g>
</g>
<!-- Node12 -->
<g id="Node000012" class="node">
<title>Node12</title>
<g id="a_Node000012"><a xlink:href="SpectrumAudioComponent_8cpp.html" target="_top" xlink:title=" ">
<polygon fill="white" stroke="#666666" points="785,-30 615,-30 615,0 785,0 785,-30"/>
<text text-anchor="start" x="623" y="-18" font-family="Helvetica,sans-Serif" font-size="10.00">Source/MemaClientCommon</text>
<text text-anchor="middle" x="700" y="-7" font-family="Helvetica,sans-Serif" font-size="10.00">/SpectrumAudioComponent.cpp</text>
</a>
</g>
</g>
<!-- Node11&#45;&gt;Node12 -->
<g id="edge14_Node000011_Node000012" class="edge">
<title>Node11&#45;&gt;Node12</title>
<g id="a_edge14_Node000011_Node000012"><a xlink:title=" ">
<path fill="none" stroke="#63b8ff" d="M846.43,-62.86C814.31,-52.58 773.99,-39.68 743.79,-30.01"/>
<polygon fill="#63b8ff" stroke="#63b8ff" points="845.52,-66.24 856.11,-65.95 847.65,-59.57 845.52,-66.24"/>
</a>
</g>
</g>
<!-- Node14 -->
<g id="Node000014" class="node">
<title>Node14</title>
<g id="a_Node000014"><a xlink:href="PanningControlComponent_8cpp.html" target="_top" xlink:title=" ">
<polygon fill="white" stroke="#666666" points="1386,-30 1216,-30 1216,0 1386,0 1386,-30"/>
<text text-anchor="start" x="1224" y="-18" font-family="Helvetica,sans-Serif" font-size="10.00">Source/MemaClientCommon</text>
<text text-anchor="middle" x="1301" y="-7" font-family="Helvetica,sans-Serif" font-size="10.00">/PanningControlComponent.cpp</text>
</a>
</g>
</g>
<!-- Node13&#45;&gt;Node14 -->
<g id="edge16_Node000013_Node000014" class="edge">
<title>Node13&#45;&gt;Node14</title>
<g id="a_edge16_Node000013_Node000014"><a xlink:title=" ">
<path fill="none" stroke="#63b8ff" d="M1284.59,-56.39C1288.17,-47.59 1292.12,-37.86 1295.25,-30.16"/>
<polygon fill="#63b8ff" stroke="#63b8ff" points="1281.29,-55.21 1280.77,-65.8 1287.78,-57.85 1281.29,-55.21"/>
</a>
</g>
</g>
<!-- Node15 -->
<g id="Node000015" class="node">
<title>Node15</title>
<g id="a_Node000015"><a xlink:href="TwoDFieldMultisliderComponent_8cpp.html" target="_top" xlink:title=" ">
<polygon fill="white" stroke="#666666" points="1197.5,-30 1000.5,-30 1000.5,0 1197.5,0 1197.5,-30"/>
<text text-anchor="start" x="1008.5" y="-18" font-family="Helvetica,sans-Serif" font-size="10.00">Source/MemaClientCommon</text>
<text text-anchor="middle" x="1099" y="-7" font-family="Helvetica,sans-Serif" font-size="10.00">/TwoDFieldMultisliderComponent.cpp</text>
</a>
</g>
</g>
<!-- Node13&#45;&gt;Node15 -->
<g id="edge17_Node000013_Node000015" class="edge">
<title>Node13&#45;&gt;Node15</title>
<g id="a_edge17_Node000013_Node000015"><a xlink:title=" ">
<path fill="none" stroke="#63b8ff" d="M1226.76,-62.46C1198.68,-52.25 1163.76,-39.55 1137.53,-30.01"/>
<polygon fill="#63b8ff" stroke="#63b8ff" points="1225.78,-65.83 1236.38,-65.95 1228.17,-59.25 1225.78,-65.83"/>
</a>
</g>
</g>
<!-- Node16&#45;&gt;Node3 -->
<g id="edge19_Node000016_Node000003" class="edge">
<title>Node16&#45;&gt;Node3</title>
<g id="a_edge19_Node000016_Node000003"><a xlink:title=" ">
<path fill="none" stroke="#63b8ff" d="M987.32,-65.97C817.04,-45.45 772.19,-49.12 606,-30 591.93,-28.38 576.8,-26.44 562.59,-24.52"/>
<polygon fill="#63b8ff" stroke="#63b8ff" points="987.03,-69.46 997.38,-67.19 987.87,-62.51 987.03,-69.46"/>
</a>
</g>
</g>
<!-- Node17 -->
<g id="Node000017" class="node">
<title>Node17</title>
<g id="a_Node000017"><a xlink:href="TwoDFieldOutputComponent_8cpp.html" target="_top" xlink:title=" ">
<polygon fill="white" stroke="#666666" points="982.5,-30 803.5,-30 803.5,0 982.5,0 982.5,-30"/>
<text text-anchor="start" x="811.5" y="-18" font-family="Helvetica,sans-Serif" font-size="10.00">Source/MemaClientCommon</text>
<text text-anchor="middle" x="893" y="-7" font-family="Helvetica,sans-Serif" font-size="10.00">/TwoDFieldOutputComponent.cpp</text>
</a>
</g>
</g>
<!-- Node16&#45;&gt;Node17 -->
<g id="edge20_Node000016_Node000017" class="edge">
<title>Node16&#45;&gt;Node17</title>
<g id="a_edge20_Node000016_Node000017"><a xlink:title=" ">
<path fill="none" stroke="#63b8ff" d="M1030.25,-62.72C1000.13,-52.47 962.42,-39.63 934.16,-30.01"/>
<polygon fill="#63b8ff" stroke="#63b8ff" points="1029.15,-66.05 1039.74,-65.95 1031.4,-59.42 1029.15,-66.05"/>
</a>
</g>
</g>
<!-- Node18&#45;&gt;Node3 -->
<g id="edge22_Node000018_Node000003" class="edge">
<title>Node18&#45;&gt;Node3</title>
<g id="a_edge22_Node000018_Node000003"><a xlink:title=" ">
<path fill="none" stroke="#63b8ff" d="M529.44,-57.28C522.26,-46.07 514.01,-33.19 508.67,-24.84"/>
<polygon fill="#63b8ff" stroke="#63b8ff" points="526.56,-59.26 534.9,-65.8 532.45,-55.49 526.56,-59.26"/>
</a>
</g>
</g>
<!-- Node19 -->
<g id="Node000019" class="node">
<title>Node19</title>
<g id="a_Node000019"><a xlink:href="WaveformAudioComponent_8cpp.html" target="_top" xlink:title=" ">
<polygon fill="white" stroke="#666666" points="391,-30 217,-30 217,0 391,0 391,-30"/>
<text text-anchor="start" x="225" y="-18" font-family="Helvetica,sans-Serif" font-size="10.00">Source/MemaClientCommon</text>
<text text-anchor="middle" x="304" y="-7" font-family="Helvetica,sans-Serif" font-size="10.00">/WaveformAudioComponent.cpp</text>
</a>
</g>
</g>
<!-- Node18&#45;&gt;Node19 -->
<g id="edge23_Node000018_Node000019" class="edge">
<title>Node18&#45;&gt;Node19</title>
<g id="a_edge23_Node000018_Node000019"><a xlink:title=" ">
<path fill="none" stroke="#63b8ff" d="M481.2,-63.25C442.43,-52.91 393.25,-39.8 356.55,-30.01"/>
<polygon fill="#63b8ff" stroke="#63b8ff" points="480.77,-66.76 491.33,-65.95 482.57,-60 480.77,-66.76"/>
</a>
</g>
</g>
<!-- Node22&#45;&gt;Node21 -->
<g id="edge27_Node000022_Node000021" class="edge">
<title>Node22&#45;&gt;Node21</title>
<g id="a_edge27_Node000022_Node000021"><a xlink:title=" ">
<path fill="none" stroke="#63b8ff" d="M1672.28,-56.11C1669.82,-47.38 1667.13,-37.78 1664.98,-30.16"/>
<polygon fill="#63b8ff" stroke="#63b8ff" points="1668.93,-57.12 1675.01,-65.8 1675.67,-55.22 1668.93,-57.12"/>
</a>
</g>
</g>
<!-- Node23 -->
<g id="Node000023" class="node">
<title>Node23</title>
<g id="a_Node000023"><a xlink:href="MemaProcessorEditor_8cpp.html" target="_top" xlink:title=" ">
<polygon fill="white" stroke="#666666" points="1917.5,-30 1758.5,-30 1758.5,0 1917.5,0 1917.5,-30"/>
<text text-anchor="start" x="1766.5" y="-18" font-family="Helvetica,sans-Serif" font-size="10.00">Source/MemaProcessorEditor</text>
<text text-anchor="middle" x="1838" y="-7" font-family="Helvetica,sans-Serif" font-size="10.00">/MemaProcessorEditor.cpp</text>
</a>
</g>
</g>
<!-- Node22&#45;&gt;Node23 -->
<g id="edge28_Node000022_Node000023" class="edge">
<title>Node22&#45;&gt;Node23</title>
<g id="a_edge28_Node000022_Node000023"><a xlink:title=" ">
<path fill="none" stroke="#63b8ff" d="M1723.25,-62.19C1748.5,-52.02 1779.7,-39.47 1803.19,-30.01"/>
<polygon fill="#63b8ff" stroke="#63b8ff" points="1721.86,-58.97 1713.89,-65.95 1724.48,-65.47 1721.86,-58.97"/>
</a>
</g>
</g>
<!-- Node24&#45;&gt;Node3 -->
<g id="edge30_Node000024_Node000003" class="edge">
<title>Node24&#45;&gt;Node3</title>
<g id="a_edge30_Node000024_Node000003"><a xlink:title=" ">
<path fill="none" stroke="#63b8ff" d="M1375.26,-65.9C1034.01,-31.58 944.29,-60.83 606,-30 590.72,-28.61 574.24,-26.6 559.03,-24.53"/>
<polygon fill="#63b8ff" stroke="#63b8ff" points="1375.12,-69.41 1385.43,-66.93 1375.83,-62.44 1375.12,-69.41"/>
</a>
</g>
</g>
<!-- Node24&#45;&gt;Node21 -->
<g id="edge31_Node000024_Node000021" class="edge">
<title>Node24&#45;&gt;Node21</title>
<g id="a_edge31_Node000024_Node000021"><a xlink:title=" ">
<path fill="none" stroke="#63b8ff" d="M1517.91,-62.72C1549.32,-52.47 1588.62,-39.63 1618.09,-30.01"/>
<polygon fill="#63b8ff" stroke="#63b8ff" points="1516.43,-59.52 1508.01,-65.95 1518.61,-66.18 1516.43,-59.52"/>
</a>
</g>
</g>
<!-- Node25 -->
<g id="Node000025" class="node">
<title>Node25</title>
<g id="a_Node000025"><a xlink:href="MeterbridgeComponent_8cpp.html" target="_top" xlink:title=" ">
<polygon fill="white" stroke="#666666" points="1563.5,-30 1404.5,-30 1404.5,0 1563.5,0 1563.5,-30"/>
<text text-anchor="start" x="1412.5" y="-18" font-family="Helvetica,sans-Serif" font-size="10.00">Source/MemaProcessorEditor</text>
<text text-anchor="middle" x="1484" y="-7" font-family="Helvetica,sans-Serif" font-size="10.00">/MeterbridgeComponent.cpp</text>
</a>
</g>
</g>
<!-- Node24&#45;&gt;Node25 -->
<g id="edge32_Node000024_Node000025" class="edge">
<title>Node24&#45;&gt;Node25</title>
<g id="a_edge32_Node000024_Node000025"><a xlink:title=" ">
<path fill="none" stroke="#63b8ff" d="M1472.09,-56.11C1474.69,-47.38 1477.53,-37.78 1479.8,-30.16"/>
<polygon fill="#63b8ff" stroke="#63b8ff" points="1468.71,-55.21 1469.22,-65.8 1475.42,-57.21 1468.71,-55.21"/>
</a>
</g>
</g>
<!-- Node24&#45;&gt;Node26 -->
<g id="edge33_Node000024_Node000026" class="edge">
<title>Node24&#45;&gt;Node26</title>
<g id="a_edge33_Node000024_Node000026"><a xlink:title=" ">
<path fill="none" stroke="#63b8ff" d="M1554.81,-69.98C1566.97,-68.63 1579.29,-67.28 1591,-66 1740.3,-49.71 1778.07,-49.42 1927,-30 1929.85,-29.63 1932.75,-29.24 1935.68,-28.84"/>
<polygon fill="#63b8ff" stroke="#63b8ff" points="1554.2,-66.52 1544.64,-71.1 1554.97,-73.48 1554.2,-66.52"/>
</a>
</g>
</g>
<!-- Node27&#45;&gt;Node23 -->
<g id="edge36_Node000027_Node000023" class="edge">
<title>Node27&#45;&gt;Node23</title>
<g id="a_edge36_Node000027_Node000023"><a xlink:title=" ">
<path fill="none" stroke="#63b8ff" d="M1849.28,-56.11C1846.82,-47.38 1844.13,-37.78 1841.98,-30.16"/>
<polygon fill="#63b8ff" stroke="#63b8ff" points="1845.93,-57.12 1852.01,-65.8 1852.67,-55.22 1845.93,-57.12"/>
</a>
</g>
</g>
<!-- Node27&#45;&gt;Node26 -->
<g id="edge37_Node000027_Node000026" class="edge">
<title>Node27&#45;&gt;Node26</title>
<g id="a_edge37_Node000027_Node000026"><a xlink:title=" ">
<path fill="none" stroke="#63b8ff" d="M1901.09,-62.19C1926.81,-52.02 1958.6,-39.47 1982.53,-30.01"/>
<polygon fill="#63b8ff" stroke="#63b8ff" points="1899.57,-59.03 1891.55,-65.95 1902.14,-65.54 1899.57,-59.03"/>
</a>
</g>
</g>
</g>
</svg>
