<?xml version="1.0" encoding="UTF-8" standalone="no"?>
<!DOCTYPE svg PUBLIC "-//W3C//DTD SVG 1.1//EN"
 "http://www.w3.org/Graphics/SVG/1.1/DTD/svg11.dtd">
<!-- Generated by graphviz version 2.43.0 (0)
 -->
<!-- Title: Source/MemaProcessor/MemaProcessor.h Pages: 1 -->
<svg width="1891pt" height="236pt"
 viewBox="0.00 0.00 1890.50 236.00" xmlns="http://www.w3.org/2000/svg" xmlns:xlink="http://www.w3.org/1999/xlink">
<g id="graph0" class="graph" transform="scale(1 1) rotate(0) translate(4 232)">
<title>Source/MemaProcessor/MemaProcessor.h</title>
<!-- Node1 -->
<g id="Node000001" class="node">
<title>Node1</title>
<g id="a_Node000001"><a xlink:title=" ">
<polygon fill="#999999" stroke="#666666" points="717.5,-228 586.5,-228 586.5,-198 717.5,-198 717.5,-228"/>
<text text-anchor="start" x="594.5" y="-216" font-family="Helvetica,sans-Serif" font-size="10.00">Source/MemaProcessor</text>
<text text-anchor="middle" x="652" y="-205" font-family="Helvetica,sans-Serif" font-size="10.00">/MemaProcessor.h</text>
</a>
</g>
</g>
<!-- Node2 -->
<g id="Node000002" class="node">
<title>Node2</title>
<g id="a_Node000002"><a xlink:href="MemaMoComponent_8cpp.html" target="_top" xlink:title=" ">
<polygon fill="white" stroke="#666666" points="380,-24.5 192,-24.5 192,-5.5 380,-5.5 380,-24.5"/>
<text text-anchor="middle" x="286" y="-12.5" font-family="Helvetica,sans-Serif" font-size="10.00">MemaMo/MemaMoComponent.cpp</text>
</a>
</g>
</g>
<!-- Node1&#45;&gt;Node2 -->
<g id="edge1_Node000001_Node000002" class="edge">
<title>Node1&#45;&gt;Node2</title>
<g id="a_edge1_Node000001_Node000002"><a xlink:title=" ">
<path fill="none" stroke="#63b8ff" d="M576.14,-212.85C480.16,-212.11 322.87,-204.25 286,-162 251,-121.89 273.42,-49.34 282.61,-24.56"/>
<polygon fill="#63b8ff" stroke="#63b8ff" points="576.36,-216.35 586.38,-212.9 576.4,-209.35 576.36,-216.35"/>
</a>
</g>
</g>
<!-- Node3 -->
<g id="Node000003" class="node">
<title>Node3</title>
<g id="a_Node000003"><a xlink:href="MemaReComponent_8cpp.html" target="_top" xlink:title=" ">
<polygon fill="white" stroke="#666666" points="478.5,-156.5 295.5,-156.5 295.5,-137.5 478.5,-137.5 478.5,-156.5"/>
<text text-anchor="middle" x="387" y="-144.5" font-family="Helvetica,sans-Serif" font-size="10.00">MemaRe/MemaReComponent.cpp</text>
</a>
</g>
</g>
<!-- Node1&#45;&gt;Node3 -->
<g id="edge2_Node000001_Node000003" class="edge">
<title>Node1&#45;&gt;Node3</title>
<g id="a_edge2_Node000001_Node000003"><a xlink:title=" ">
<path fill="none" stroke="#63b8ff" d="M584.08,-195.6C532.42,-183.12 463.42,-166.46 422.27,-156.52"/>
<polygon fill="#63b8ff" stroke="#63b8ff" points="583.3,-199.01 593.84,-197.95 584.95,-192.21 583.3,-199.01"/>
</a>
</g>
</g>
<!-- Node4 -->
<g id="Node000004" class="node">
<title>Node4</title>
<g id="a_Node000004"><a xlink:href="HeadlessCLIMenu_8cpp.html" target="_top" xlink:title=" ">
<polygon fill="white" stroke="#666666" points="657,-156.5 497,-156.5 497,-137.5 657,-137.5 657,-156.5"/>
<text text-anchor="middle" x="577" y="-144.5" font-family="Helvetica,sans-Serif" font-size="10.00">Source/HeadlessCLIMenu.cpp</text>
</a>
</g>
</g>
<!-- Node1&#45;&gt;Node4 -->
<g id="edge3_Node000001_Node000004" class="edge">
<title>Node1&#45;&gt;Node4</title>
<g id="a_edge3_Node000001_Node000004"><a xlink:title=" ">
<path fill="none" stroke="#63b8ff" d="M627.69,-191.26C614.05,-179.61 597.73,-165.69 587.36,-156.84"/>
<polygon fill="#63b8ff" stroke="#63b8ff" points="625.48,-193.97 635.36,-197.8 630.02,-188.64 625.48,-193.97"/>
</a>
</g>
</g>
<!-- Node5 -->
<g id="Node000005" class="node">
<title>Node5</title>
<g id="a_Node000005"><a xlink:href="Mema_8cpp.html" target="_top" xlink:title=" ">
<polygon fill="white" stroke="#666666" points="779,-156.5 675,-156.5 675,-137.5 779,-137.5 779,-156.5"/>
<text text-anchor="middle" x="727" y="-144.5" font-family="Helvetica,sans-Serif" font-size="10.00">Source/Mema.cpp</text>
</a>
</g>
</g>
<!-- Node1&#45;&gt;Node5 -->
<g id="edge4_Node000001_Node000005" class="edge">
<title>Node1&#45;&gt;Node5</title>
<g id="a_edge4_Node000001_Node000005"><a xlink:title=" ">
<path fill="none" stroke="#63b8ff" d="M676.31,-191.26C689.95,-179.61 706.27,-165.69 716.64,-156.84"/>
<polygon fill="#63b8ff" stroke="#63b8ff" points="673.98,-188.64 668.64,-197.8 678.52,-193.97 673.98,-188.64"/>
</a>
</g>
</g>
<!-- Node6 -->
<g id="Node000006" class="node">
<title>Node6</title>
<g id="a_Node000006"><a xlink:href="MemaProcessor_8cpp.html" target="_top" xlink:title=" ">
<polygon fill="white" stroke="#666666" points="928.5,-162 797.5,-162 797.5,-132 928.5,-132 928.5,-162"/>
<text text-anchor="start" x="805.5" y="-150" font-family="Helvetica,sans-Serif" font-size="10.00">Source/MemaProcessor</text>
<text text-anchor="middle" x="863" y="-139" font-family="Helvetica,sans-Serif" font-size="10.00">/MemaProcessor.cpp</text>
</a>
</g>
</g>
<!-- Node1&#45;&gt;Node6 -->
<g id="edge5_Node000001_Node000006" class="edge">
<title>Node1&#45;&gt;Node6</title>
<g id="a_edge5_Node000001_Node000006"><a xlink:title=" ">
<path fill="none" stroke="#63b8ff" d="M708.08,-194.99C742.03,-184.69 784.81,-171.72 816.8,-162.01"/>
<polygon fill="#63b8ff" stroke="#63b8ff" points="706.86,-191.7 698.3,-197.95 708.89,-198.4 706.86,-191.7"/>
</a>
</g>
</g>
<!-- Node7 -->
<g id="Node000007" class="node">
<title>Node7</title>
<g id="a_Node000007"><a xlink:href="AbstractAudioVisualizer_8h.html" target="_top" xlink:title=" ">
<polygon fill="white" stroke="#666666" points="1105.5,-162 946.5,-162 946.5,-132 1105.5,-132 1105.5,-162"/>
<text text-anchor="start" x="954.5" y="-150" font-family="Helvetica,sans-Serif" font-size="10.00">Source/MemaProcessorEditor</text>
<text text-anchor="middle" x="1026" y="-139" font-family="Helvetica,sans-Serif" font-size="10.00">/AbstractAudioVisualizer.h</text>
</a>
</g>
</g>
<!-- Node1&#45;&gt;Node7 -->
<g id="edge6_Node000001_Node000007" class="edge">
<title>Node1&#45;&gt;Node7</title>
<g id="a_edge6_Node000001_Node000007"><a xlink:title=" ">
<path fill="none" stroke="#63b8ff" d="M727.52,-199.08C791.02,-188.21 881.51,-172.73 946.18,-161.66"/>
<polygon fill="#63b8ff" stroke="#63b8ff" points="726.84,-195.64 717.57,-200.78 728.02,-202.54 726.84,-195.64"/>
</a>
</g>
</g>
<!-- Node8 -->
<g id="Node000008" class="node">
<title>Node8</title>
<g id="a_Node000008"><a xlink:href="SpectrumAudioComponent_8h.html" target="_top" xlink:title=" ">
<polygon fill="white" stroke="#666666" points="456.5,-96 297.5,-96 297.5,-66 456.5,-66 456.5,-96"/>
<text text-anchor="start" x="305.5" y="-84" font-family="Helvetica,sans-Serif" font-size="10.00">Source/MemaClientCommon</text>
<text text-anchor="middle" x="377" y="-73" font-family="Helvetica,sans-Serif" font-size="10.00">/SpectrumAudioComponent.h</text>
</a>
</g>
</g>
<!-- Node7&#45;&gt;Node8 -->
<g id="edge7_Node000007_Node000008" class="edge">
<title>Node7&#45;&gt;Node8</title>
<g id="a_edge7_Node000007_Node000008"><a xlink:title=" ">
<path fill="none" stroke="#63b8ff" d="M936.32,-131.87C726.88,-107.82 671.12,-120.2 465,-96 462.23,-95.68 459.42,-95.33 456.58,-94.96"/>
<polygon fill="#63b8ff" stroke="#63b8ff" points="936.08,-135.36 946.42,-133.04 936.89,-128.41 936.08,-135.36"/>
</a>
</g>
</g>
<!-- Node10 -->
<g id="Node000010" class="node">
<title>Node10</title>
<g id="a_Node000010"><a xlink:href="TwoDFieldMultisliderComponent_8h.html" target="_top" xlink:title=" ">
<polygon fill="white" stroke="#666666" points="1675,-96 1489,-96 1489,-66 1675,-66 1675,-96"/>
<text text-anchor="start" x="1497" y="-84" font-family="Helvetica,sans-Serif" font-size="10.00">Source/MemaClientCommon</text>
<text text-anchor="middle" x="1582" y="-73" font-family="Helvetica,sans-Serif" font-size="10.00">/TwoDFieldMultisliderComponent.h</text>
</a>
</g>
</g>
<!-- Node7&#45;&gt;Node10 -->
<g id="edge10_Node000007_Node000010" class="edge">
<title>Node7&#45;&gt;Node10</title>
<g id="a_edge10_Node000007_Node000010"><a xlink:title=" ">
<path fill="none" stroke="#63b8ff" d="M1115.67,-135.68C1218.02,-123.9 1384.66,-104.72 1488.56,-92.76"/>
<polygon fill="#63b8ff" stroke="#63b8ff" points="1115.2,-132.21 1105.66,-136.83 1116,-139.16 1115.2,-132.21"/>
</a>
</g>
</g>
<!-- Node13 -->
<g id="Node000013" class="node">
<title>Node13</title>
<g id="a_Node000013"><a xlink:href="TwoDFieldOutputComponent_8h.html" target="_top" xlink:title=" ">
<polygon fill="white" stroke="#666666" points="818.5,-96 651.5,-96 651.5,-66 818.5,-66 818.5,-96"/>
<text text-anchor="start" x="659.5" y="-84" font-family="Helvetica,sans-Serif" font-size="10.00">Source/MemaClientCommon</text>
<text text-anchor="middle" x="735" y="-73" font-family="Helvetica,sans-Serif" font-size="10.00">/TwoDFieldOutputComponent.h</text>
</a>
</g>
</g>
<!-- Node7&#45;&gt;Node13 -->
<g id="edge13_Node000007_Node000013" class="edge">
<title>Node7&#45;&gt;Node13</title>
<g id="a_edge13_Node000007_Node000013"><a xlink:title=" ">
<path fill="none" stroke="#63b8ff" d="M952.25,-129.78C904.88,-119.36 843.97,-105.97 798.71,-96.01"/>
<polygon fill="#63b8ff" stroke="#63b8ff" points="951.62,-133.23 962.14,-131.95 953.12,-126.39 951.62,-133.23"/>
</a>
</g>
</g>
<!-- Node15 -->
<g id="Node000015" class="node">
<title>Node15</title>
<g id="a_Node000015"><a xlink:href="WaveformAudioComponent_8h.html" target="_top" xlink:title=" ">
<polygon fill="white" stroke="#666666" points="238.5,-96 75.5,-96 75.5,-66 238.5,-66 238.5,-96"/>
<text text-anchor="start" x="83.5" y="-84" font-family="Helvetica,sans-Serif" font-size="10.00">Source/MemaClientCommon</text>
<text text-anchor="middle" x="157" y="-73" font-family="Helvetica,sans-Serif" font-size="10.00">/WaveformAudioComponent.h</text>
</a>
</g>
</g>
<!-- Node7&#45;&gt;Node15 -->
<g id="edge16_Node000007_Node000015" class="edge">
<title>Node7&#45;&gt;Node15</title>
<g id="a_edge16_Node000007_Node000015"><a xlink:title=" ">
<path fill="none" stroke="#63b8ff" d="M936.1,-131.87C648.55,-101.65 573.01,-119.11 288,-96 272.04,-94.71 255.02,-93.07 238.7,-91.38"/>
<polygon fill="#63b8ff" stroke="#63b8ff" points="936.11,-135.39 946.42,-132.97 936.85,-128.43 936.11,-135.39"/>
</a>
</g>
</g>
<!-- Node17 -->
<g id="Node000017" class="node">
<title>Node17</title>
<g id="a_Node000017"><a xlink:href="AbstractAudioVisualizer_8cpp.html" target="_top" xlink:title=" ">
<polygon fill="white" stroke="#666666" points="633.5,-96 474.5,-96 474.5,-66 633.5,-66 633.5,-96"/>
<text text-anchor="start" x="482.5" y="-84" font-family="Helvetica,sans-Serif" font-size="10.00">Source/MemaProcessorEditor</text>
<text text-anchor="middle" x="554" y="-73" font-family="Helvetica,sans-Serif" font-size="10.00">/AbstractAudioVisualizer.cpp</text>
</a>
</g>
</g>
<!-- Node7&#45;&gt;Node17 -->
<g id="edge19_Node000007_Node000017" class="edge">
<title>Node7&#45;&gt;Node17</title>
<g id="a_edge19_Node000007_Node000017"><a xlink:title=" ">
<path fill="none" stroke="#63b8ff" d="M936.35,-131.8C805.07,-113.62 770.04,-113.96 642,-96 639.24,-95.61 636.44,-95.21 633.61,-94.8"/>
<polygon fill="#63b8ff" stroke="#63b8ff" points="936.01,-135.29 946.39,-133.2 936.97,-128.35 936.01,-135.29"/>
</a>
</g>
</g>
<!-- Node18 -->
<g id="Node000018" class="node">
<title>Node18</title>
<g id="a_Node000018"><a xlink:href="InputControlComponent_8cpp.html" target="_top" xlink:title=" ">
<polygon fill="white" stroke="#666666" points="1119.5,-30 960.5,-30 960.5,0 1119.5,0 1119.5,-30"/>
<text text-anchor="start" x="968.5" y="-18" font-family="Helvetica,sans-Serif" font-size="10.00">Source/MemaProcessorEditor</text>
<text text-anchor="middle" x="1040" y="-7" font-family="Helvetica,sans-Serif" font-size="10.00">/InputControlComponent.cpp</text>
</a>
</g>
</g>
<!-- Node7&#45;&gt;Node18 -->
<g id="edge20_Node000007_Node000018" class="edge">
<title>Node7&#45;&gt;Node18</title>
<g id="a_edge20_Node000007_Node000018"><a xlink:title=" ">
<path fill="none" stroke="#63b8ff" d="M1028.62,-121.68C1031.52,-94.7 1036.11,-52.11 1038.48,-30.14"/>
<polygon fill="#63b8ff" stroke="#63b8ff" points="1025.12,-121.52 1027.52,-131.84 1032.08,-122.27 1025.12,-121.52"/>
</a>
</g>
</g>
<!-- Node19 -->
<g id="Node000019" class="node">
<title>Node19</title>
<g id="a_Node000019"><a xlink:href="InputControlComponent_8h.html" target="_top" xlink:title=" ">
<polygon fill="white" stroke="#666666" points="1209.5,-96 1050.5,-96 1050.5,-66 1209.5,-66 1209.5,-96"/>
<text text-anchor="start" x="1058.5" y="-84" font-family="Helvetica,sans-Serif" font-size="10.00">Source/MemaProcessorEditor</text>
<text text-anchor="middle" x="1130" y="-73" font-family="Helvetica,sans-Serif" font-size="10.00">/InputControlComponent.h</text>
</a>
</g>
</g>
<!-- Node7&#45;&gt;Node19 -->
<g id="edge21_Node000007_Node000019" class="edge">
<title>Node7&#45;&gt;Node19</title>
<g id="a_edge21_Node000007_Node000019"><a xlink:title=" ">
<path fill="none" stroke="#63b8ff" d="M1057.37,-126.69C1073.43,-116.82 1092.61,-105.01 1107.23,-96.01"/>
<polygon fill="#63b8ff" stroke="#63b8ff" points="1055.51,-123.73 1048.82,-131.95 1059.17,-129.69 1055.51,-123.73"/>
</a>
</g>
</g>
<!-- Node21 -->
<g id="Node000021" class="node">
<title>Node21</title>
<g id="a_Node000021"><a xlink:href="MeterbridgeComponent_8h.html" target="_top" xlink:title=" ">
<polygon fill="white" stroke="#666666" points="995.5,-96 836.5,-96 836.5,-66 995.5,-66 995.5,-96"/>
<text text-anchor="start" x="844.5" y="-84" font-family="Helvetica,sans-Serif" font-size="10.00">Source/MemaProcessorEditor</text>
<text text-anchor="middle" x="916" y="-73" font-family="Helvetica,sans-Serif" font-size="10.00">/MeterbridgeComponent.h</text>
</a>
</g>
</g>
<!-- Node7&#45;&gt;Node21 -->
<g id="edge24_Node000007_Node000021" class="edge">
<title>Node7&#45;&gt;Node21</title>
<g id="a_edge24_Node000007_Node000021"><a xlink:title=" ">
<path fill="none" stroke="#63b8ff" d="M992.82,-126.69C975.84,-116.82 955.55,-105.01 940.08,-96.01"/>
<polygon fill="#63b8ff" stroke="#63b8ff" points="991.46,-129.95 1001.86,-131.95 994.98,-123.9 991.46,-129.95"/>
</a>
</g>
</g>
<!-- Node23 -->
<g id="Node000023" class="node">
<title>Node23</title>
<g id="a_Node000023"><a xlink:href="OutputControlComponent_8cpp.html" target="_top" xlink:title=" ">
<polygon fill="white" stroke="#666666" points="1479,-30 1315,-30 1315,0 1479,0 1479,-30"/>
<text text-anchor="start" x="1323" y="-18" font-family="Helvetica,sans-Serif" font-size="10.00">Source/MemaProcessorEditor</text>
<text text-anchor="middle" x="1397" y="-7" font-family="Helvetica,sans-Serif" font-size="10.00">/OutputControlComponent.cpp</text>
</a>
</g>
</g>
<!-- Node7&#45;&gt;Node23 -->
<g id="edge29_Node000007_Node000023" class="edge">
<title>Node7&#45;&gt;Node23</title>
<g id="a_edge29_Node000007_Node000023"><a xlink:title=" ">
<path fill="none" stroke="#63b8ff" d="M1115.91,-146.77C1213.45,-145.47 1360.11,-136.55 1396,-96 1411.93,-78.01 1406.78,-47.8 1401.78,-30.1"/>
<polygon fill="#63b8ff" stroke="#63b8ff" points="1115.7,-143.27 1105.74,-146.88 1115.78,-150.27 1115.7,-143.27"/>
</a>
</g>
</g>
<!-- Node24 -->
<g id="Node000024" class="node">
<title>Node24</title>
<g id="a_Node000024"><a xlink:href="OutputControlComponent_8h.html" target="_top" xlink:title=" ">
<polygon fill="white" stroke="#666666" points="1386.5,-96 1227.5,-96 1227.5,-66 1386.5,-66 1386.5,-96"/>
<text text-anchor="start" x="1235.5" y="-84" font-family="Helvetica,sans-Serif" font-size="10.00">Source/MemaProcessorEditor</text>
<text text-anchor="middle" x="1307" y="-73" font-family="Helvetica,sans-Serif" font-size="10.00">/OutputControlComponent.h</text>
</a>
</g>
</g>
<!-- Node7&#45;&gt;Node24 -->
<g id="edge30_Node000007_Node000024" class="edge">
<title>Node7&#45;&gt;Node24</title>
<g id="a_edge30_Node000007_Node000024"><a xlink:title=" ">
<path fill="none" stroke="#63b8ff" d="M1097.51,-129.71C1143.21,-119.31 1201.86,-105.95 1245.48,-96.01"/>
<polygon fill="#63b8ff" stroke="#63b8ff" points="1096.64,-126.32 1087.67,-131.95 1098.19,-133.15 1096.64,-126.32"/>
</a>
</g>
</g>
<!-- Node8&#45;&gt;Node2 -->
<g id="edge8_Node000008_Node000002" class="edge">
<title>Node8&#45;&gt;Node2</title>
<g id="a_edge8_Node000008_Node000002"><a xlink:title=" ">
<path fill="none" stroke="#63b8ff" d="M348.38,-59.87C331.54,-48.03 311.09,-33.65 298.31,-24.66"/>
<polygon fill="#63b8ff" stroke="#63b8ff" points="346.61,-62.91 356.8,-65.8 350.64,-57.18 346.61,-62.91"/>
</a>
</g>
</g>
<!-- Node9 -->
<g id="Node000009" class="node">
<title>Node9</title>
<g id="a_Node000009"><a xlink:href="SpectrumAudioComponent_8cpp.html" target="_top" xlink:title=" ">
<polygon fill="white" stroke="#666666" points="568,-30 398,-30 398,0 568,0 568,-30"/>
<text text-anchor="start" x="406" y="-18" font-family="Helvetica,sans-Serif" font-size="10.00">Source/MemaClientCommon</text>
<text text-anchor="middle" x="483" y="-7" font-family="Helvetica,sans-Serif" font-size="10.00">/SpectrumAudioComponent.cpp</text>
</a>
</g>
</g>
<!-- Node8&#45;&gt;Node9 -->
<g id="edge9_Node000008_Node000009" class="edge">
<title>Node8&#45;&gt;Node9</title>
<g id="a_edge9_Node000008_Node000009"><a xlink:title=" ">
<path fill="none" stroke="#63b8ff" d="M408.97,-60.69C425.34,-50.82 444.89,-39.01 459.79,-30.01"/>
<polygon fill="#63b8ff" stroke="#63b8ff" points="407.01,-57.79 400.26,-65.95 410.63,-63.78 407.01,-57.79"/>
</a>
</g>
</g>
<!-- Node11 -->
<g id="Node000011" class="node">
<title>Node11</title>
<g id="a_Node000011"><a xlink:href="PanningControlComponent_8cpp.html" target="_top" xlink:title=" ">
<polygon fill="white" stroke="#666666" points="1667,-30 1497,-30 1497,0 1667,0 1667,-30"/>
<text text-anchor="start" x="1505" y="-18" font-family="Helvetica,sans-Serif" font-size="10.00">Source/MemaClientCommon</text>
<text text-anchor="middle" x="1582" y="-7" font-family="Helvetica,sans-Serif" font-size="10.00">/PanningControlComponent.cpp</text>
</a>
</g>
</g>
<!-- Node10&#45;&gt;Node11 -->
<g id="edge11_Node000010_Node000011" class="edge">
<title>Node10&#45;&gt;Node11</title>
<g id="a_edge11_Node000010_Node000011"><a xlink:title=" ">
<path fill="none" stroke="#63b8ff" d="M1582,-55.54C1582,-46.96 1582,-37.61 1582,-30.16"/>
<polygon fill="#63b8ff" stroke="#63b8ff" points="1578.5,-55.8 1582,-65.8 1585.5,-55.8 1578.5,-55.8"/>
</a>
</g>
</g>
<!-- Node12 -->
<g id="Node000012" class="node">
<title>Node12</title>
<g id="a_Node000012"><a xlink:href="TwoDFieldMultisliderComponent_8cpp.html" target="_top" xlink:title=" ">
<polygon fill="white" stroke="#666666" points="1882.5,-30 1685.5,-30 1685.5,0 1882.5,0 1882.5,-30"/>
<text text-anchor="start" x="1693.5" y="-18" font-family="Helvetica,sans-Serif" font-size="10.00">Source/MemaClientCommon</text>
<text text-anchor="middle" x="1784" y="-7" font-family="Helvetica,sans-Serif" font-size="10.00">/TwoDFieldMultisliderComponent.cpp</text>
</a>
</g>
</g>
<!-- Node10&#45;&gt;Node12 -->
<g id="edge12_Node000010_Node000012" class="edge">
<title>Node10&#45;&gt;Node12</title>
<g id="a_edge12_Node000010_Node000012"><a xlink:title=" ">
<path fill="none" stroke="#63b8ff" d="M1636.11,-62.86C1668.55,-52.58 1709.27,-39.68 1739.77,-30.01"/>
<polygon fill="#63b8ff" stroke="#63b8ff" points="1634.81,-59.6 1626.33,-65.95 1636.92,-66.27 1634.81,-59.6"/>
</a>
</g>
</g>
<!-- Node13&#45;&gt;Node2 -->
<g id="edge14_Node000013_Node000002" class="edge">
<title>Node13&#45;&gt;Node2</title>
<g id="a_edge14_Node000013_Node000002"><a xlink:title=" ">
<path fill="none" stroke="#63b8ff" d="M641.13,-65.88C531.8,-50.01 417,-34.04 348.09,-24.53"/>
<polygon fill="#63b8ff" stroke="#63b8ff" points="640.95,-69.39 651.35,-67.37 641.96,-62.47 640.95,-69.39"/>
</a>
</g>
</g>
<!-- Node14 -->
<g id="Node000014" class="node">
<title>Node14</title>
<g id="a_Node000014"><a xlink:href="TwoDFieldOutputComponent_8cpp.html" target="_top" xlink:title=" ">
<polygon fill="white" stroke="#666666" points="765.5,-30 586.5,-30 586.5,0 765.5,0 765.5,-30"/>
<text text-anchor="start" x="594.5" y="-18" font-family="Helvetica,sans-Serif" font-size="10.00">Source/MemaClientCommon</text>
<text text-anchor="middle" x="676" y="-7" font-family="Helvetica,sans-Serif" font-size="10.00">/TwoDFieldOutputComponent.cpp</text>
</a>
</g>
</g>
<!-- Node13&#45;&gt;Node14 -->
<g id="edge15_Node000013_Node000014" class="edge">
<title>Node13&#45;&gt;Node14</title>
<g id="a_edge15_Node000013_Node000014"><a xlink:title=" ">
<path fill="none" stroke="#63b8ff" d="M715.06,-58.37C706.48,-49.06 696.69,-38.44 689.06,-30.16"/>
<polygon fill="#63b8ff" stroke="#63b8ff" points="712.55,-60.82 721.91,-65.8 717.7,-56.07 712.55,-60.82"/>
</a>
</g>
</g>
<!-- Node15&#45;&gt;Node2 -->
<g id="edge17_Node000015_Node000002" class="edge">
<title>Node15&#45;&gt;Node2</title>
<g id="a_edge17_Node000015_Node000002"><a xlink:title=" ">
<path fill="none" stroke="#63b8ff" d="M194.37,-61.46C218.94,-49.27 249.92,-33.9 268.83,-24.52"/>
<polygon fill="#63b8ff" stroke="#63b8ff" points="192.71,-58.38 185.31,-65.95 195.82,-64.65 192.71,-58.38"/>
</a>
</g>
</g>
<!-- Node16 -->
<g id="Node000016" class="node">
<title>Node16</title>
<g id="a_Node000016"><a xlink:href="WaveformAudioComponent_8cpp.html" target="_top" xlink:title=" ">
<polygon fill="white" stroke="#666666" points="174,-30 0,-30 0,0 174,0 174,-30"/>
<text text-anchor="start" x="8" y="-18" font-family="Helvetica,sans-Serif" font-size="10.00">Source/MemaClientCommon</text>
<text text-anchor="middle" x="87" y="-7" font-family="Helvetica,sans-Serif" font-size="10.00">/WaveformAudioComponent.cpp</text>
</a>
</g>
</g>
<!-- Node15&#45;&gt;Node16 -->
<g id="edge18_Node000015_Node000016" class="edge">
<title>Node15&#45;&gt;Node16</title>
<g id="a_edge18_Node000015_Node000016"><a xlink:title=" ">
<path fill="none" stroke="#63b8ff" d="M133.95,-58.92C123.63,-49.49 111.73,-38.61 102.49,-30.16"/>
<polygon fill="#63b8ff" stroke="#63b8ff" points="131.72,-61.63 141.46,-65.8 136.45,-56.47 131.72,-61.63"/>
</a>
</g>
</g>
<!-- Node19&#45;&gt;Node18 -->
<g id="edge22_Node000019_Node000018" class="edge">
<title>Node19&#45;&gt;Node18</title>
<g id="a_edge22_Node000019_Node000018"><a xlink:title=" ">
<path fill="none" stroke="#63b8ff" d="M1101.53,-59.75C1087.99,-50.13 1072.14,-38.86 1059.92,-30.16"/>
<polygon fill="#63b8ff" stroke="#63b8ff" points="1099.85,-62.85 1110.03,-65.8 1103.9,-57.15 1099.85,-62.85"/>
</a>
</g>
</g>
<!-- Node20 -->
<g id="Node000020" class="node">
<title>Node20</title>
<g id="a_Node000020"><a xlink:href="MemaProcessorEditor_8cpp.html" target="_top" xlink:title=" ">
<polygon fill="white" stroke="#666666" points="1296.5,-30 1137.5,-30 1137.5,0 1296.5,0 1296.5,-30"/>
<text text-anchor="start" x="1145.5" y="-18" font-family="Helvetica,sans-Serif" font-size="10.00">Source/MemaProcessorEditor</text>
<text text-anchor="middle" x="1217" y="-7" font-family="Helvetica,sans-Serif" font-size="10.00">/MemaProcessorEditor.cpp</text>
</a>
</g>
</g>
<!-- Node19&#45;&gt;Node20 -->
<g id="edge23_Node000019_Node000020" class="edge">
<title>Node19&#45;&gt;Node20</title>
<g id="a_edge23_Node000019_Node000020"><a xlink:title=" ">
<path fill="none" stroke="#63b8ff" d="M1157.52,-59.75C1170.61,-50.13 1185.93,-38.86 1197.75,-30.16"/>
<polygon fill="#63b8ff" stroke="#63b8ff" points="1155.29,-57.05 1149.31,-65.8 1159.44,-62.69 1155.29,-57.05"/>
</a>
</g>
</g>
<!-- Node21&#45;&gt;Node2 -->
<g id="edge25_Node000021_Node000002" class="edge">
<title>Node21&#45;&gt;Node2</title>
<g id="a_edge25_Node000021_Node000002"><a xlink:title=" ">
<path fill="none" stroke="#63b8ff" d="M826.46,-66C631.36,-43.08 579.95,-50.81 389,-30 374.65,-28.44 359.21,-26.48 344.76,-24.54"/>
<polygon fill="#63b8ff" stroke="#63b8ff" points="826.12,-69.49 836.46,-67.19 826.95,-62.54 826.12,-69.49"/>
</a>
</g>
</g>
<!-- Node21&#45;&gt;Node18 -->
<g id="edge26_Node000021_Node000018" class="edge">
<title>Node21&#45;&gt;Node18</title>
<g id="a_edge26_Node000021_Node000018"><a xlink:title=" ">
<path fill="none" stroke="#63b8ff" d="M952.34,-61.24C971.7,-51.25 995.1,-39.18 1012.85,-30.01"/>
<polygon fill="#63b8ff" stroke="#63b8ff" points="950.49,-58.26 943.21,-65.95 953.7,-64.48 950.49,-58.26"/>
</a>
</g>
</g>
<!-- Node22 -->
<g id="Node000022" class="node">
<title>Node22</title>
<g id="a_Node000022"><a xlink:href="MeterbridgeComponent_8cpp.html" target="_top" xlink:title=" ">
<polygon fill="white" stroke="#666666" points="942.5,-30 783.5,-30 783.5,0 942.5,0 942.5,-30"/>
<text text-anchor="start" x="791.5" y="-18" font-family="Helvetica,sans-Serif" font-size="10.00">Source/MemaProcessorEditor</text>
<text text-anchor="middle" x="863" y="-7" font-family="Helvetica,sans-Serif" font-size="10.00">/MeterbridgeComponent.cpp</text>
</a>
</g>
</g>
<!-- Node21&#45;&gt;Node22 -->
<g id="edge27_Node000021_Node000022" class="edge">
<title>Node21&#45;&gt;Node22</title>
<g id="a_edge27_Node000021_Node000022"><a xlink:title=" ">
<path fill="none" stroke="#63b8ff" d="M897.85,-58.09C890.2,-48.85 881.52,-38.36 874.73,-30.16"/>
<polygon fill="#63b8ff" stroke="#63b8ff" points="895.16,-60.33 904.24,-65.8 900.56,-55.86 895.16,-60.33"/>
</a>
</g>
</g>
<!-- Node21&#45;&gt;Node23 -->
<g id="edge28_Node000021_Node000023" class="edge">
<title>Node21&#45;&gt;Node23</title>
<g id="a_edge28_Node000021_Node000023"><a xlink:title=" ">
<path fill="none" stroke="#63b8ff" d="M1005.56,-69.17C1084.66,-59.44 1203.1,-44.51 1306,-30 1308.85,-29.6 1311.75,-29.18 1314.67,-28.76"/>
<polygon fill="#63b8ff" stroke="#63b8ff" points="1005.13,-65.69 995.63,-70.39 1005.98,-72.64 1005.13,-65.69"/>
</a>
</g>
</g>
<!-- Node24&#45;&gt;Node20 -->
<g id="edge31_Node000024_Node000020" class="edge">
<title>Node24&#45;&gt;Node20</title>
<g id="a_edge31_Node000024_Node000020"><a xlink:title=" ">
<path fill="none" stroke="#63b8ff" d="M1278.53,-59.75C1264.99,-50.13 1249.14,-38.86 1236.92,-30.16"/>
<polygon fill="#63b8ff" stroke="#63b8ff" points="1276.85,-62.85 1287.03,-65.8 1280.9,-57.15 1276.85,-62.85"/>
</a>
</g>
</g>
<!-- Node24&#45;&gt;Node23 -->
<g id="edge32_Node000024_Node000023" class="edge">
<title>Node24&#45;&gt;Node23</title>
<g id="a_edge32_Node000024_Node000023"><a xlink:title=" ">
<path fill="none" stroke="#63b8ff" d="M1335.47,-59.75C1349.01,-50.13 1364.86,-38.86 1377.08,-30.16"/>
<polygon fill="#63b8ff" stroke="#63b8ff" points="1333.1,-57.15 1326.97,-65.8 1337.15,-62.85 1333.1,-57.15"/>
</a>
</g>
</g>
</g>
</svg>
