<?xml version="1.0" encoding="UTF-8" standalone="no"?>
<!DOCTYPE svg PUBLIC "-//W3C//DTD SVG 1.1//EN"
 "http://www.w3.org/Graphics/SVG/1.1/DTD/svg11.dtd">
<!-- Generated by graphviz version 2.43.0 (0)
 -->
<!-- Title: Source/MemaAppConfiguration.h Pages: 1 -->
<svg width="2095pt" height="291pt"
 viewBox="0.00 0.00 2095.00 291.00" xmlns="http://www.w3.org/2000/svg" xmlns:xlink="http://www.w3.org/1999/xlink">
<g id="graph0" class="graph" transform="scale(1 1) rotate(0) translate(4 287)">
<title>Source/MemaAppConfiguration.h</title>
<!-- Node1 -->
<g id="Node000001" class="node">
<title>Node1</title>
<g id="a_Node000001"><a xlink:title=" ">
<polygon fill="#999999" stroke="#666666" points="561,-283 385,-283 385,-264 561,-264 561,-283"/>
<text text-anchor="middle" x="473" y="-271" font-family="Helvetica,sans-Serif" font-size="10.00">Source/MemaAppConfiguration.h</text>
</a>
</g>
</g>
<!-- Node2 -->
<g id="Node000002" class="node">
<title>Node2</title>
<g id="a_Node000002"><a xlink:href="Mema_8h.html" target="_top" xlink:title=" ">
<polygon fill="white" stroke="#666666" points="414,-222.5 322,-222.5 322,-203.5 414,-203.5 414,-222.5"/>
<text text-anchor="middle" x="368" y="-210.5" font-family="Helvetica,sans-Serif" font-size="10.00">Source/Mema.h</text>
</a>
</g>
</g>
<!-- Node1&#45;&gt;Node2 -->
<g id="edge1_Node000001_Node000002" class="edge">
<title>Node1&#45;&gt;Node2</title>
<g id="a_edge1_Node000001_Node000002"><a xlink:title=" ">
<path fill="none" stroke="#63b8ff" d="M448.63,-258.92C428.57,-247.74 400.72,-232.23 383.56,-222.67"/>
<polygon fill="#63b8ff" stroke="#63b8ff" points="447.07,-262.06 457.51,-263.87 450.47,-255.94 447.07,-262.06"/>
</a>
</g>
</g>
<!-- Node5 -->
<g id="Node000005" class="node">
<title>Node5</title>
<g id="a_Node000005"><a xlink:href="MemaAppConfiguration_8cpp.html" target="_top" xlink:title=" ">
<polygon fill="white" stroke="#666666" points="839,-222.5 651,-222.5 651,-203.5 839,-203.5 839,-222.5"/>
<text text-anchor="middle" x="745" y="-210.5" font-family="Helvetica,sans-Serif" font-size="10.00">Source/MemaAppConfiguration.cpp</text>
</a>
</g>
</g>
<!-- Node1&#45;&gt;Node5 -->
<g id="edge4_Node000001_Node000005" class="edge">
<title>Node1&#45;&gt;Node5</title>
<g id="a_edge4_Node000001_Node000005"><a xlink:title=" ">
<path fill="none" stroke="#63b8ff" d="M522.65,-261.82C575.18,-250.52 657.03,-232.92 705.4,-222.52"/>
<polygon fill="#63b8ff" stroke="#63b8ff" points="521.59,-258.47 512.55,-263.99 523.06,-265.31 521.59,-258.47"/>
</a>
</g>
</g>
<!-- Node6 -->
<g id="Node000006" class="node">
<title>Node6</title>
<g id="a_Node000006"><a xlink:href="MemaProcessor_8cpp.html" target="_top" xlink:title=" ">
<polygon fill="white" stroke="#666666" points="557.5,-162 426.5,-162 426.5,-132 557.5,-132 557.5,-162"/>
<text text-anchor="start" x="434.5" y="-150" font-family="Helvetica,sans-Serif" font-size="10.00">Source/MemaProcessor</text>
<text text-anchor="middle" x="492" y="-139" font-family="Helvetica,sans-Serif" font-size="10.00">/MemaProcessor.cpp</text>
</a>
</g>
</g>
<!-- Node1&#45;&gt;Node6 -->
<g id="edge5_Node000001_Node000006" class="edge">
<title>Node1&#45;&gt;Node6</title>
<g id="a_edge5_Node000001_Node000006"><a xlink:title=" ">
<path fill="none" stroke="#63b8ff" d="M475.84,-253.91C479.66,-228.83 486.4,-184.72 489.84,-162.16"/>
<polygon fill="#63b8ff" stroke="#63b8ff" points="472.35,-253.53 474.31,-263.94 479.27,-254.59 472.35,-253.53"/>
</a>
</g>
</g>
<!-- Node7 -->
<g id="Node000007" class="node">
<title>Node7</title>
<g id="a_Node000007"><a xlink:href="MemaProcessor_8h.html" target="_top" xlink:title=" ">
<polygon fill="white" stroke="#666666" points="632.5,-228 501.5,-228 501.5,-198 632.5,-198 632.5,-228"/>
<text text-anchor="start" x="509.5" y="-216" font-family="Helvetica,sans-Serif" font-size="10.00">Source/MemaProcessor</text>
<text text-anchor="middle" x="567" y="-205" font-family="Helvetica,sans-Serif" font-size="10.00">/MemaProcessor.h</text>
</a>
</g>
</g>
<!-- Node1&#45;&gt;Node7 -->
<g id="edge6_Node000001_Node000007" class="edge">
<title>Node1&#45;&gt;Node7</title>
<g id="a_edge6_Node000001_Node000007"><a xlink:title=" ">
<path fill="none" stroke="#63b8ff" d="M495.41,-258.55C510.19,-249.36 529.49,-237.35 544.32,-228.11"/>
<polygon fill="#63b8ff" stroke="#63b8ff" points="493.51,-255.61 486.87,-263.87 497.21,-261.56 493.51,-255.61"/>
</a>
</g>
</g>
<!-- Node28 -->
<g id="Node000028" class="node">
<title>Node28</title>
<g id="a_Node000028"><a xlink:href="MemaUIComponent_8h.html" target="_top" xlink:title=" ">
<polygon fill="white" stroke="#666666" points="303.5,-222.5 144.5,-222.5 144.5,-203.5 303.5,-203.5 303.5,-222.5"/>
<text text-anchor="middle" x="224" y="-210.5" font-family="Helvetica,sans-Serif" font-size="10.00">Source/MemaUIComponent.h</text>
</a>
</g>
</g>
<!-- Node1&#45;&gt;Node28 -->
<g id="edge38_Node000001_Node000028" class="edge">
<title>Node1&#45;&gt;Node28</title>
<g id="a_edge38_Node000001_Node000028"><a xlink:title=" ">
<path fill="none" stroke="#63b8ff" d="M426.95,-261.68C378.83,-250.38 304.34,-232.88 260.25,-222.52"/>
<polygon fill="#63b8ff" stroke="#63b8ff" points="426.26,-265.11 436.79,-263.99 427.86,-258.3 426.26,-265.11"/>
</a>
</g>
</g>
<!-- Node3 -->
<g id="Node000003" class="node">
<title>Node3</title>
<g id="a_Node000003"><a xlink:href="Source_2Main_8cpp.html" target="_top" xlink:title=" ">
<polygon fill="white" stroke="#666666" points="285.5,-156.5 188.5,-156.5 188.5,-137.5 285.5,-137.5 285.5,-156.5"/>
<text text-anchor="middle" x="237" y="-144.5" font-family="Helvetica,sans-Serif" font-size="10.00">Source/Main.cpp</text>
</a>
</g>
</g>
<!-- Node2&#45;&gt;Node3 -->
<g id="edge2_Node000002_Node000003" class="edge">
<title>Node2&#45;&gt;Node3</title>
<g id="a_edge2_Node000002_Node000003"><a xlink:title=" ">
<path fill="none" stroke="#63b8ff" d="M341.11,-198.86C315.3,-186.25 277.04,-167.56 254.81,-156.7"/>
<polygon fill="#63b8ff" stroke="#63b8ff" points="339.81,-202.12 350.33,-203.37 342.88,-195.83 339.81,-202.12"/>
</a>
</g>
</g>
<!-- Node4 -->
<g id="Node000004" class="node">
<title>Node4</title>
<g id="a_Node000004"><a xlink:href="Mema_8cpp.html" target="_top" xlink:title=" ">
<polygon fill="white" stroke="#666666" points="408,-156.5 304,-156.5 304,-137.5 408,-137.5 408,-156.5"/>
<text text-anchor="middle" x="356" y="-144.5" font-family="Helvetica,sans-Serif" font-size="10.00">Source/Mema.cpp</text>
</a>
</g>
</g>
<!-- Node2&#45;&gt;Node4 -->
<g id="edge3_Node000002_Node000004" class="edge">
<title>Node2&#45;&gt;Node4</title>
<g id="a_edge3_Node000002_Node000004"><a xlink:title=" ">
<path fill="none" stroke="#63b8ff" d="M364.52,-193.45C362.27,-181.43 359.43,-166.32 357.67,-156.91"/>
<polygon fill="#63b8ff" stroke="#63b8ff" points="361.1,-194.18 366.38,-203.37 367.98,-192.89 361.1,-194.18"/>
</a>
</g>
</g>
<!-- Node7&#45;&gt;Node4 -->
<g id="edge9_Node000007_Node000004" class="edge">
<title>Node7&#45;&gt;Node4</title>
<g id="a_edge9_Node000007_Node000004"><a xlink:title=" ">
<path fill="none" stroke="#63b8ff" d="M511.12,-195.05C470.2,-182.64 416.37,-166.31 384.08,-156.52"/>
<polygon fill="#63b8ff" stroke="#63b8ff" points="510.11,-198.4 520.7,-197.95 512.14,-191.7 510.11,-198.4"/>
</a>
</g>
</g>
<!-- Node7&#45;&gt;Node6 -->
<g id="edge10_Node000007_Node000006" class="edge">
<title>Node7&#45;&gt;Node6</title>
<g id="a_edge10_Node000007_Node000006"><a xlink:title=" ">
<path fill="none" stroke="#63b8ff" d="M542.63,-191.2C531.49,-181.7 518.59,-170.69 508.6,-162.16"/>
<polygon fill="#63b8ff" stroke="#63b8ff" points="540.48,-193.97 550.36,-197.8 545.02,-188.64 540.48,-193.97"/>
</a>
</g>
</g>
<!-- Node8 -->
<g id="Node000008" class="node">
<title>Node8</title>
<g id="a_Node000008"><a xlink:href="MemaMoComponent_8cpp.html" target="_top" xlink:title=" ">
<polygon fill="white" stroke="#666666" points="589,-24.5 401,-24.5 401,-5.5 589,-5.5 589,-24.5"/>
<text text-anchor="middle" x="495" y="-12.5" font-family="Helvetica,sans-Serif" font-size="10.00">MemaMo/MemaMoComponent.cpp</text>
</a>
</g>
</g>
<!-- Node7&#45;&gt;Node8 -->
<g id="edge7_Node000007_Node000008" class="edge">
<title>Node7&#45;&gt;Node8</title>
<g id="a_edge7_Node000007_Node000008"><a xlink:title=" ">
<path fill="none" stroke="#63b8ff" d="M573.45,-187.98C580.21,-157.65 587.28,-104.78 567,-66 556.56,-46.04 534.13,-32.45 517.06,-24.53"/>
<polygon fill="#63b8ff" stroke="#63b8ff" points="570.05,-187.16 571.12,-197.7 576.85,-188.79 570.05,-187.16"/>
</a>
</g>
</g>
<!-- Node9 -->
<g id="Node000009" class="node">
<title>Node9</title>
<g id="a_Node000009"><a xlink:href="MemaReComponent_8cpp.html" target="_top" xlink:title=" ">
<polygon fill="white" stroke="#666666" points="1427.5,-156.5 1244.5,-156.5 1244.5,-137.5 1427.5,-137.5 1427.5,-156.5"/>
<text text-anchor="middle" x="1336" y="-144.5" font-family="Helvetica,sans-Serif" font-size="10.00">MemaRe/MemaReComponent.cpp</text>
</a>
</g>
</g>
<!-- Node7&#45;&gt;Node9 -->
<g id="edge8_Node000007_Node000009" class="edge">
<title>Node7&#45;&gt;Node9</title>
<g id="a_edge8_Node000007_Node000009"><a xlink:title=" ">
<path fill="none" stroke="#63b8ff" d="M643.01,-197.99C905.82,-166.27 975.59,-187.81 1235,-162 1249.71,-160.54 1265.57,-158.54 1280.26,-156.51"/>
<polygon fill="#63b8ff" stroke="#63b8ff" points="642.28,-194.56 632.78,-199.24 643.13,-201.51 642.28,-194.56"/>
</a>
</g>
</g>
<!-- Node10 -->
<g id="Node000010" class="node">
<title>Node10</title>
<g id="a_Node000010"><a xlink:href="AbstractAudioVisualizer_8h.html" target="_top" xlink:title=" ">
<polygon fill="white" stroke="#666666" points="1226.5,-162 1067.5,-162 1067.5,-132 1226.5,-132 1226.5,-162"/>
<text text-anchor="start" x="1075.5" y="-150" font-family="Helvetica,sans-Serif" font-size="10.00">Source/MemaProcessorEditor</text>
<text text-anchor="middle" x="1147" y="-139" font-family="Helvetica,sans-Serif" font-size="10.00">/AbstractAudioVisualizer.h</text>
</a>
</g>
</g>
<!-- Node7&#45;&gt;Node10 -->
<g id="edge11_Node000007_Node000010" class="edge">
<title>Node7&#45;&gt;Node10</title>
<g id="a_edge11_Node000007_Node000010"><a xlink:title=" ">
<path fill="none" stroke="#63b8ff" d="M643.05,-197.93C799.1,-176.02 969.53,-161.32 1067.15,-153.78"/>
<polygon fill="#63b8ff" stroke="#63b8ff" points="642.21,-194.52 632.8,-199.39 643.19,-201.45 642.21,-194.52"/>
</a>
</g>
</g>
<!-- Node11 -->
<g id="Node000011" class="node">
<title>Node11</title>
<g id="a_Node000011"><a xlink:href="SpectrumAudioComponent_8h.html" target="_top" xlink:title=" ">
<polygon fill="white" stroke="#666666" points="1131.5,-96 972.5,-96 972.5,-66 1131.5,-66 1131.5,-96"/>
<text text-anchor="start" x="980.5" y="-84" font-family="Helvetica,sans-Serif" font-size="10.00">Source/MemaClientCommon</text>
<text text-anchor="middle" x="1052" y="-73" font-family="Helvetica,sans-Serif" font-size="10.00">/SpectrumAudioComponent.h</text>
</a>
</g>
</g>
<!-- Node10&#45;&gt;Node11 -->
<g id="edge12_Node000010_Node000011" class="edge">
<title>Node10&#45;&gt;Node11</title>
<g id="a_edge12_Node000010_Node000011"><a xlink:title=" ">
<path fill="none" stroke="#63b8ff" d="M1117.35,-126.03C1102.98,-116.34 1086.05,-104.94 1073.02,-96.16"/>
<polygon fill="#63b8ff" stroke="#63b8ff" points="1115.67,-129.11 1125.92,-131.8 1119.58,-123.31 1115.67,-129.11"/>
</a>
</g>
</g>
<!-- Node13 -->
<g id="Node000013" class="node">
<title>Node13</title>
<g id="a_Node000013"><a xlink:href="TwoDFieldMultisliderComponent_8h.html" target="_top" xlink:title=" ">
<polygon fill="white" stroke="#666666" points="1335,-96 1149,-96 1149,-66 1335,-66 1335,-96"/>
<text text-anchor="start" x="1157" y="-84" font-family="Helvetica,sans-Serif" font-size="10.00">Source/MemaClientCommon</text>
<text text-anchor="middle" x="1242" y="-73" font-family="Helvetica,sans-Serif" font-size="10.00">/TwoDFieldMultisliderComponent.h</text>
</a>
</g>
</g>
<!-- Node10&#45;&gt;Node13 -->
<g id="edge15_Node000010_Node000013" class="edge">
<title>Node10&#45;&gt;Node13</title>
<g id="a_edge15_Node000010_Node000013"><a xlink:title=" ">
<path fill="none" stroke="#63b8ff" d="M1176.65,-126.03C1191.02,-116.34 1207.95,-104.94 1220.98,-96.16"/>
<polygon fill="#63b8ff" stroke="#63b8ff" points="1174.42,-123.31 1168.08,-131.8 1178.33,-129.11 1174.42,-123.31"/>
</a>
</g>
</g>
<!-- Node16 -->
<g id="Node000016" class="node">
<title>Node16</title>
<g id="a_Node000016"><a xlink:href="TwoDFieldOutputComponent_8h.html" target="_top" xlink:title=" ">
<polygon fill="white" stroke="#666666" points="558.5,-96 391.5,-96 391.5,-66 558.5,-66 558.5,-96"/>
<text text-anchor="start" x="399.5" y="-84" font-family="Helvetica,sans-Serif" font-size="10.00">Source/MemaClientCommon</text>
<text text-anchor="middle" x="475" y="-73" font-family="Helvetica,sans-Serif" font-size="10.00">/TwoDFieldOutputComponent.h</text>
</a>
</g>
</g>
<!-- Node10&#45;&gt;Node16 -->
<g id="edge18_Node000010_Node000016" class="edge">
<title>Node10&#45;&gt;Node16</title>
<g id="a_edge18_Node000010_Node000016"><a xlink:title=" ">
<path fill="none" stroke="#63b8ff" d="M1056.9,-138.11C949.32,-128.6 763.95,-111.89 605,-96 589.98,-94.5 573.99,-92.83 558.55,-91.19"/>
<polygon fill="#63b8ff" stroke="#63b8ff" points="1056.8,-141.62 1067.07,-139.01 1057.41,-134.64 1056.8,-141.62"/>
</a>
</g>
</g>
<!-- Node18 -->
<g id="Node000018" class="node">
<title>Node18</title>
<g id="a_Node000018"><a xlink:href="WaveformAudioComponent_8h.html" target="_top" xlink:title=" ">
<polygon fill="white" stroke="#666666" points="777.5,-96 614.5,-96 614.5,-66 777.5,-66 777.5,-96"/>
<text text-anchor="start" x="622.5" y="-84" font-family="Helvetica,sans-Serif" font-size="10.00">Source/MemaClientCommon</text>
<text text-anchor="middle" x="696" y="-73" font-family="Helvetica,sans-Serif" font-size="10.00">/WaveformAudioComponent.h</text>
</a>
</g>
</g>
<!-- Node10&#45;&gt;Node18 -->
<g id="edge21_Node000010_Node000018" class="edge">
<title>Node10&#45;&gt;Node18</title>
<g id="a_edge21_Node000010_Node000018"><a xlink:title=" ">
<path fill="none" stroke="#63b8ff" d="M1057.27,-134C984.2,-124.12 878.37,-109.58 786,-96 783.34,-95.61 780.64,-95.21 777.91,-94.8"/>
<polygon fill="#63b8ff" stroke="#63b8ff" points="1056.99,-137.49 1067.36,-135.36 1057.92,-130.55 1056.99,-137.49"/>
</a>
</g>
</g>
<!-- Node20 -->
<g id="Node000020" class="node">
<title>Node20</title>
<g id="a_Node000020"><a xlink:href="AbstractAudioVisualizer_8cpp.html" target="_top" xlink:title=" ">
<polygon fill="white" stroke="#666666" points="954.5,-96 795.5,-96 795.5,-66 954.5,-66 954.5,-96"/>
<text text-anchor="start" x="803.5" y="-84" font-family="Helvetica,sans-Serif" font-size="10.00">Source/MemaProcessorEditor</text>
<text text-anchor="middle" x="875" y="-73" font-family="Helvetica,sans-Serif" font-size="10.00">/AbstractAudioVisualizer.cpp</text>
</a>
</g>
</g>
<!-- Node10&#45;&gt;Node20 -->
<g id="edge24_Node000010_Node000020" class="edge">
<title>Node10&#45;&gt;Node20</title>
<g id="a_edge24_Node000010_Node000020"><a xlink:title=" ">
<path fill="none" stroke="#63b8ff" d="M1077.51,-129.65C1033.31,-119.25 976.68,-105.93 934.55,-96.01"/>
<polygon fill="#63b8ff" stroke="#63b8ff" points="1076.77,-133.07 1087.31,-131.95 1078.38,-126.26 1076.77,-133.07"/>
</a>
</g>
</g>
<!-- Node21 -->
<g id="Node000021" class="node">
<title>Node21</title>
<g id="a_Node000021"><a xlink:href="InputControlComponent_8cpp.html" target="_top" xlink:title=" ">
<polygon fill="white" stroke="#666666" points="1727.5,-30 1568.5,-30 1568.5,0 1727.5,0 1727.5,-30"/>
<text text-anchor="start" x="1576.5" y="-18" font-family="Helvetica,sans-Serif" font-size="10.00">Source/MemaProcessorEditor</text>
<text text-anchor="middle" x="1648" y="-7" font-family="Helvetica,sans-Serif" font-size="10.00">/InputControlComponent.cpp</text>
</a>
</g>
</g>
<!-- Node10&#45;&gt;Node21 -->
<g id="edge25_Node000010_Node000021" class="edge">
<title>Node10&#45;&gt;Node21</title>
<g id="a_edge25_Node000010_Node000021"><a xlink:title=" ">
<path fill="none" stroke="#63b8ff" d="M1236.76,-131.84C1364.41,-115.46 1406.43,-144.39 1522,-96 1541.85,-87.69 1542.15,-78.02 1560,-66 1579.68,-52.75 1603.07,-39.57 1620.79,-30.07"/>
<polygon fill="#63b8ff" stroke="#63b8ff" points="1236.05,-128.4 1226.61,-133.21 1236.99,-135.34 1236.05,-128.4"/>
</a>
</g>
</g>
<!-- Node22 -->
<g id="Node000022" class="node">
<title>Node22</title>
<g id="a_Node000022"><a xlink:href="InputControlComponent_8h.html" target="_top" xlink:title=" ">
<polygon fill="white" stroke="#666666" points="1727.5,-96 1568.5,-96 1568.5,-66 1727.5,-66 1727.5,-96"/>
<text text-anchor="start" x="1576.5" y="-84" font-family="Helvetica,sans-Serif" font-size="10.00">Source/MemaProcessorEditor</text>
<text text-anchor="middle" x="1648" y="-73" font-family="Helvetica,sans-Serif" font-size="10.00">/InputControlComponent.h</text>
</a>
</g>
</g>
<!-- Node10&#45;&gt;Node22 -->
<g id="edge26_Node000010_Node000022" class="edge">
<title>Node10&#45;&gt;Node22</title>
<g id="a_edge26_Node000010_Node000022"><a xlink:title=" ">
<path fill="none" stroke="#63b8ff" d="M1236.55,-131.83C1378.5,-112.83 1416.29,-114.24 1555,-96 1559.37,-95.43 1563.85,-94.82 1568.38,-94.19"/>
<polygon fill="#63b8ff" stroke="#63b8ff" points="1236.04,-128.36 1226.6,-133.17 1236.98,-135.3 1236.04,-128.36"/>
</a>
</g>
</g>
<!-- Node24 -->
<g id="Node000024" class="node">
<title>Node24</title>
<g id="a_Node000024"><a xlink:href="MeterbridgeComponent_8h.html" target="_top" xlink:title=" ">
<polygon fill="white" stroke="#666666" points="1513.5,-96 1354.5,-96 1354.5,-66 1513.5,-66 1513.5,-96"/>
<text text-anchor="start" x="1362.5" y="-84" font-family="Helvetica,sans-Serif" font-size="10.00">Source/MemaProcessorEditor</text>
<text text-anchor="middle" x="1434" y="-73" font-family="Helvetica,sans-Serif" font-size="10.00">/MeterbridgeComponent.h</text>
</a>
</g>
</g>
<!-- Node10&#45;&gt;Node24 -->
<g id="edge29_Node000010_Node000024" class="edge">
<title>Node10&#45;&gt;Node24</title>
<g id="a_edge29_Node000010_Node000024"><a xlink:title=" ">
<path fill="none" stroke="#63b8ff" d="M1220.03,-129.71C1266.71,-119.31 1326.62,-105.95 1371.16,-96.01"/>
<polygon fill="#63b8ff" stroke="#63b8ff" points="1218.98,-126.36 1209.98,-131.95 1220.51,-133.19 1218.98,-126.36"/>
</a>
</g>
</g>
<!-- Node26 -->
<g id="Node000026" class="node">
<title>Node26</title>
<g id="a_Node000026"><a xlink:href="OutputControlComponent_8cpp.html" target="_top" xlink:title=" ">
<polygon fill="white" stroke="#666666" points="2087,-30 1923,-30 1923,0 2087,0 2087,-30"/>
<text text-anchor="start" x="1931" y="-18" font-family="Helvetica,sans-Serif" font-size="10.00">Source/MemaProcessorEditor</text>
<text text-anchor="middle" x="2005" y="-7" font-family="Helvetica,sans-Serif" font-size="10.00">/OutputControlComponent.cpp</text>
</a>
</g>
</g>
<!-- Node10&#45;&gt;Node26 -->
<g id="edge34_Node000010_Node000026" class="edge">
<title>Node10&#45;&gt;Node26</title>
<g id="a_edge34_Node000010_Node000026"><a xlink:title=" ">
<path fill="none" stroke="#63b8ff" d="M1236.62,-131.99C1401.11,-117.58 1776.95,-151.87 1914,-96 1948.48,-81.95 1978.78,-49.08 1994.2,-30.14"/>
<polygon fill="#63b8ff" stroke="#63b8ff" points="1236.19,-128.51 1226.58,-132.96 1236.87,-135.48 1236.19,-128.51"/>
</a>
</g>
</g>
<!-- Node27 -->
<g id="Node000027" class="node">
<title>Node27</title>
<g id="a_Node000027"><a xlink:href="OutputControlComponent_8h.html" target="_top" xlink:title=" ">
<polygon fill="white" stroke="#666666" points="1904.5,-96 1745.5,-96 1745.5,-66 1904.5,-66 1904.5,-96"/>
<text text-anchor="start" x="1753.5" y="-84" font-family="Helvetica,sans-Serif" font-size="10.00">Source/MemaProcessorEditor</text>
<text text-anchor="middle" x="1825" y="-73" font-family="Helvetica,sans-Serif" font-size="10.00">/OutputControlComponent.h</text>
</a>
</g>
</g>
<!-- Node10&#45;&gt;Node27 -->
<g id="edge35_Node000010_Node000027" class="edge">
<title>Node10&#45;&gt;Node27</title>
<g id="a_edge35_Node000010_Node000027"><a xlink:title=" ">
<path fill="none" stroke="#63b8ff" d="M1236.61,-131.88C1458.94,-106.84 1518.04,-121.22 1737,-96 1739.77,-95.68 1742.58,-95.34 1745.42,-94.98"/>
<polygon fill="#63b8ff" stroke="#63b8ff" points="1236.12,-128.41 1226.58,-133.02 1236.92,-135.37 1236.12,-128.41"/>
</a>
</g>
</g>
<!-- Node11&#45;&gt;Node8 -->
<g id="edge13_Node000011_Node000008" class="edge">
<title>Node11&#45;&gt;Node8</title>
<g id="a_edge13_Node000011_Node000008"><a xlink:title=" ">
<path fill="none" stroke="#63b8ff" d="M962.09,-65.94C799.56,-45.47 756.58,-48.59 598,-30 584.02,-28.36 569,-26.42 554.86,-24.52"/>
<polygon fill="#63b8ff" stroke="#63b8ff" points="962.09,-69.47 972.46,-67.25 962.98,-62.52 962.09,-69.47"/>
</a>
</g>
</g>
<!-- Node12 -->
<g id="Node000012" class="node">
<title>Node12</title>
<g id="a_Node000012"><a xlink:href="SpectrumAudioComponent_8cpp.html" target="_top" xlink:title=" ">
<polygon fill="white" stroke="#666666" points="969,-30 799,-30 799,0 969,0 969,-30"/>
<text text-anchor="start" x="807" y="-18" font-family="Helvetica,sans-Serif" font-size="10.00">Source/MemaClientCommon</text>
<text text-anchor="middle" x="884" y="-7" font-family="Helvetica,sans-Serif" font-size="10.00">/SpectrumAudioComponent.cpp</text>
</a>
</g>
</g>
<!-- Node11&#45;&gt;Node12 -->
<g id="edge14_Node000011_Node000012" class="edge">
<title>Node11&#45;&gt;Node12</title>
<g id="a_edge14_Node000011_Node000012"><a xlink:title=" ">
<path fill="none" stroke="#63b8ff" d="M1005.6,-62.32C978.86,-52.14 945.71,-39.51 920.78,-30.01"/>
<polygon fill="#63b8ff" stroke="#63b8ff" points="1004.54,-65.67 1015.13,-65.95 1007.03,-59.12 1004.54,-65.67"/>
</a>
</g>
</g>
<!-- Node14 -->
<g id="Node000014" class="node">
<title>Node14</title>
<g id="a_Node000014"><a xlink:href="PanningControlComponent_8cpp.html" target="_top" xlink:title=" ">
<polygon fill="white" stroke="#666666" points="1373,-30 1203,-30 1203,0 1373,0 1373,-30"/>
<text text-anchor="start" x="1211" y="-18" font-family="Helvetica,sans-Serif" font-size="10.00">Source/MemaClientCommon</text>
<text text-anchor="middle" x="1288" y="-7" font-family="Helvetica,sans-Serif" font-size="10.00">/PanningControlComponent.cpp</text>
</a>
</g>
</g>
<!-- Node13&#45;&gt;Node14 -->
<g id="edge16_Node000013_Node000014" class="edge">
<title>Node13&#45;&gt;Node14</title>
<g id="a_edge16_Node000013_Node000014"><a xlink:title=" ">
<path fill="none" stroke="#63b8ff" d="M1258.15,-57.53C1264.69,-48.43 1272.05,-38.19 1277.82,-30.16"/>
<polygon fill="#63b8ff" stroke="#63b8ff" points="1255.2,-55.63 1252.21,-65.8 1260.89,-59.72 1255.2,-55.63"/>
</a>
</g>
</g>
<!-- Node15 -->
<g id="Node000015" class="node">
<title>Node15</title>
<g id="a_Node000015"><a xlink:href="TwoDFieldMultisliderComponent_8cpp.html" target="_top" xlink:title=" ">
<polygon fill="white" stroke="#666666" points="1184.5,-30 987.5,-30 987.5,0 1184.5,0 1184.5,-30"/>
<text text-anchor="start" x="995.5" y="-18" font-family="Helvetica,sans-Serif" font-size="10.00">Source/MemaClientCommon</text>
<text text-anchor="middle" x="1086" y="-7" font-family="Helvetica,sans-Serif" font-size="10.00">/TwoDFieldMultisliderComponent.cpp</text>
</a>
</g>
</g>
<!-- Node13&#45;&gt;Node15 -->
<g id="edge17_Node000013_Node000015" class="edge">
<title>Node13&#45;&gt;Node15</title>
<g id="a_edge17_Node000013_Node000015"><a xlink:title=" ">
<path fill="none" stroke="#63b8ff" d="M1198.26,-62.05C1173.54,-51.91 1143.1,-39.43 1120.16,-30.01"/>
<polygon fill="#63b8ff" stroke="#63b8ff" points="1197.18,-65.4 1207.77,-65.95 1199.84,-58.92 1197.18,-65.4"/>
</a>
</g>
</g>
<!-- Node16&#45;&gt;Node8 -->
<g id="edge19_Node000016_Node000008" class="edge">
<title>Node16&#45;&gt;Node8</title>
<g id="a_edge19_Node000016_Node000008"><a xlink:title=" ">
<path fill="none" stroke="#63b8ff" d="M482.52,-55.94C485.92,-45.06 489.73,-32.86 492.24,-24.84"/>
<polygon fill="#63b8ff" stroke="#63b8ff" points="479.08,-55.21 479.44,-65.8 485.76,-57.3 479.08,-55.21"/>
</a>
</g>
</g>
<!-- Node17 -->
<g id="Node000017" class="node">
<title>Node17</title>
<g id="a_Node000017"><a xlink:href="TwoDFieldOutputComponent_8cpp.html" target="_top" xlink:title=" ">
<polygon fill="white" stroke="#666666" points="382.5,-30 203.5,-30 203.5,0 382.5,0 382.5,-30"/>
<text text-anchor="start" x="211.5" y="-18" font-family="Helvetica,sans-Serif" font-size="10.00">Source/MemaClientCommon</text>
<text text-anchor="middle" x="293" y="-7" font-family="Helvetica,sans-Serif" font-size="10.00">/TwoDFieldOutputComponent.cpp</text>
</a>
</g>
</g>
<!-- Node16&#45;&gt;Node17 -->
<g id="edge20_Node000016_Node000017" class="edge">
<title>Node16&#45;&gt;Node17</title>
<g id="a_edge20_Node000016_Node000017"><a xlink:title=" ">
<path fill="none" stroke="#63b8ff" d="M425.49,-62.59C396.39,-52.36 360.09,-39.59 332.85,-30.01"/>
<polygon fill="#63b8ff" stroke="#63b8ff" points="424.46,-65.94 435.06,-65.95 426.79,-59.34 424.46,-65.94"/>
</a>
</g>
</g>
<!-- Node18&#45;&gt;Node8 -->
<g id="edge22_Node000018_Node000008" class="edge">
<title>Node18&#45;&gt;Node8</title>
<g id="a_edge22_Node000018_Node000008"><a xlink:title=" ">
<path fill="none" stroke="#63b8ff" d="M642.27,-62.89C603.35,-50.5 552.38,-34.27 521.75,-24.52"/>
<polygon fill="#63b8ff" stroke="#63b8ff" points="641.3,-66.26 651.89,-65.95 643.42,-59.59 641.3,-66.26"/>
</a>
</g>
</g>
<!-- Node19 -->
<g id="Node000019" class="node">
<title>Node19</title>
<g id="a_Node000019"><a xlink:href="WaveformAudioComponent_8cpp.html" target="_top" xlink:title=" ">
<polygon fill="white" stroke="#666666" points="781,-30 607,-30 607,0 781,0 781,-30"/>
<text text-anchor="start" x="615" y="-18" font-family="Helvetica,sans-Serif" font-size="10.00">Source/MemaClientCommon</text>
<text text-anchor="middle" x="694" y="-7" font-family="Helvetica,sans-Serif" font-size="10.00">/WaveformAudioComponent.cpp</text>
</a>
</g>
</g>
<!-- Node18&#45;&gt;Node19 -->
<g id="edge23_Node000018_Node000019" class="edge">
<title>Node18&#45;&gt;Node19</title>
<g id="a_edge23_Node000018_Node000019"><a xlink:title=" ">
<path fill="none" stroke="#63b8ff" d="M695.24,-55.54C694.97,-46.96 694.68,-37.61 694.44,-30.16"/>
<polygon fill="#63b8ff" stroke="#63b8ff" points="691.75,-55.91 695.56,-65.8 698.74,-55.69 691.75,-55.91"/>
</a>
</g>
</g>
<!-- Node22&#45;&gt;Node21 -->
<g id="edge27_Node000022_Node000021" class="edge">
<title>Node22&#45;&gt;Node21</title>
<g id="a_edge27_Node000022_Node000021"><a xlink:title=" ">
<path fill="none" stroke="#63b8ff" d="M1648,-55.54C1648,-46.96 1648,-37.61 1648,-30.16"/>
<polygon fill="#63b8ff" stroke="#63b8ff" points="1644.5,-55.8 1648,-65.8 1651.5,-55.8 1644.5,-55.8"/>
</a>
</g>
</g>
<!-- Node23 -->
<g id="Node000023" class="node">
<title>Node23</title>
<g id="a_Node000023"><a xlink:href="MemaProcessorEditor_8cpp.html" target="_top" xlink:title=" ">
<polygon fill="white" stroke="#666666" points="1904.5,-30 1745.5,-30 1745.5,0 1904.5,0 1904.5,-30"/>
<text text-anchor="start" x="1753.5" y="-18" font-family="Helvetica,sans-Serif" font-size="10.00">Source/MemaProcessorEditor</text>
<text text-anchor="middle" x="1825" y="-7" font-family="Helvetica,sans-Serif" font-size="10.00">/MemaProcessorEditor.cpp</text>
</a>
</g>
</g>
<!-- Node22&#45;&gt;Node23 -->
<g id="edge28_Node000022_Node000023" class="edge">
<title>Node22&#45;&gt;Node23</title>
<g id="a_edge28_Node000022_Node000023"><a xlink:title=" ">
<path fill="none" stroke="#63b8ff" d="M1696.52,-62.46C1724.76,-52.25 1759.87,-39.55 1786.25,-30.01"/>
<polygon fill="#63b8ff" stroke="#63b8ff" points="1695.06,-59.26 1686.84,-65.95 1697.44,-65.85 1695.06,-59.26"/>
</a>
</g>
</g>
<!-- Node24&#45;&gt;Node8 -->
<g id="edge30_Node000024_Node000008" class="edge">
<title>Node24&#45;&gt;Node8</title>
<g id="a_edge30_Node000024_Node000008"><a xlink:title=" ">
<path fill="none" stroke="#63b8ff" d="M1344.31,-66.03C1344.21,-66.02 1344.1,-66.01 1344,-66 1013.76,-32.44 928.55,-60.38 598,-30 582.72,-28.6 566.24,-26.58 551.03,-24.52"/>
<polygon fill="#63b8ff" stroke="#63b8ff" points="1343.74,-69.49 1354.07,-67.12 1344.52,-62.53 1343.74,-69.49"/>
</a>
</g>
</g>
<!-- Node24&#45;&gt;Node21 -->
<g id="edge31_Node000024_Node000021" class="edge">
<title>Node24&#45;&gt;Node21</title>
<g id="a_edge31_Node000024_Node000021"><a xlink:title=" ">
<path fill="none" stroke="#63b8ff" d="M1490.88,-62.99C1525.31,-52.69 1568.7,-39.72 1601.15,-30.01"/>
<polygon fill="#63b8ff" stroke="#63b8ff" points="1489.54,-59.74 1480.96,-65.95 1491.55,-66.44 1489.54,-59.74"/>
</a>
</g>
</g>
<!-- Node25 -->
<g id="Node000025" class="node">
<title>Node25</title>
<g id="a_Node000025"><a xlink:href="MeterbridgeComponent_8cpp.html" target="_top" xlink:title=" ">
<polygon fill="white" stroke="#666666" points="1550.5,-30 1391.5,-30 1391.5,0 1550.5,0 1550.5,-30"/>
<text text-anchor="start" x="1399.5" y="-18" font-family="Helvetica,sans-Serif" font-size="10.00">Source/MemaProcessorEditor</text>
<text text-anchor="middle" x="1471" y="-7" font-family="Helvetica,sans-Serif" font-size="10.00">/MeterbridgeComponent.cpp</text>
</a>
</g>
</g>
<!-- Node24&#45;&gt;Node25 -->
<g id="edge32_Node000024_Node000025" class="edge">
<title>Node24&#45;&gt;Node25</title>
<g id="a_edge32_Node000024_Node000025"><a xlink:title=" ">
<path fill="none" stroke="#63b8ff" d="M1447.32,-56.96C1452.5,-48 1458.26,-38.03 1462.81,-30.16"/>
<polygon fill="#63b8ff" stroke="#63b8ff" points="1444.19,-55.39 1442.21,-65.8 1450.25,-58.89 1444.19,-55.39"/>
</a>
</g>
</g>
<!-- Node24&#45;&gt;Node26 -->
<g id="edge33_Node000024_Node000026" class="edge">
<title>Node24&#45;&gt;Node26</title>
<g id="a_edge33_Node000024_Node000026"><a xlink:title=" ">
<path fill="none" stroke="#63b8ff" d="M1523.8,-69.92C1535.97,-68.58 1548.29,-67.25 1560,-66 1717.26,-49.27 1757.13,-50.03 1914,-30 1916.85,-29.64 1919.76,-29.25 1922.69,-28.86"/>
<polygon fill="#63b8ff" stroke="#63b8ff" points="1523.19,-66.46 1513.64,-71.04 1523.96,-73.42 1523.19,-66.46"/>
</a>
</g>
</g>
<!-- Node27&#45;&gt;Node23 -->
<g id="edge36_Node000027_Node000023" class="edge">
<title>Node27&#45;&gt;Node23</title>
<g id="a_edge36_Node000027_Node000023"><a xlink:title=" ">
<path fill="none" stroke="#63b8ff" d="M1825,-55.54C1825,-46.96 1825,-37.61 1825,-30.16"/>
<polygon fill="#63b8ff" stroke="#63b8ff" points="1821.5,-55.8 1825,-65.8 1828.5,-55.8 1821.5,-55.8"/>
</a>
</g>
</g>
<!-- Node27&#45;&gt;Node26 -->
<g id="edge37_Node000027_Node000026" class="edge">
<title>Node27&#45;&gt;Node26</title>
<g id="a_edge37_Node000027_Node000026"><a xlink:title=" ">
<path fill="none" stroke="#63b8ff" d="M1873.97,-62.59C1902.74,-52.36 1938.65,-39.59 1965.59,-30.01"/>
<polygon fill="#63b8ff" stroke="#63b8ff" points="1872.75,-59.31 1864.5,-65.95 1875.1,-65.9 1872.75,-59.31"/>
</a>
</g>
</g>
<!-- Node28&#45;&gt;Node3 -->
<g id="edge39_Node000028_Node000003" class="edge">
<title>Node28&#45;&gt;Node3</title>
<g id="a_edge39_Node000028_Node000003"><a xlink:title=" ">
<path fill="none" stroke="#63b8ff" d="M227.77,-193.45C230.21,-181.43 233.28,-166.32 235.19,-156.91"/>
<polygon fill="#63b8ff" stroke="#63b8ff" points="224.31,-192.87 225.75,-203.37 231.17,-194.27 224.31,-192.87"/>
</a>
</g>
</g>
<!-- Node29 -->
<g id="Node000029" class="node">
<title>Node29</title>
<g id="a_Node000029"><a xlink:href="MemaUIComponent_8cpp.html" target="_top" xlink:title=" ">
<polygon fill="white" stroke="#666666" points="170,-156.5 0,-156.5 0,-137.5 170,-137.5 170,-156.5"/>
<text text-anchor="middle" x="85" y="-144.5" font-family="Helvetica,sans-Serif" font-size="10.00">Source/MemaUIComponent.cpp</text>
</a>
</g>
</g>
<!-- Node28&#45;&gt;Node29 -->
<g id="edge40_Node000028_Node000029" class="edge">
<title>Node28&#45;&gt;Node29</title>
<g id="a_edge40_Node000028_Node000029"><a xlink:title=" ">
<path fill="none" stroke="#63b8ff" d="M195.83,-199.03C168.43,-186.42 127.59,-167.61 103.89,-156.7"/>
<polygon fill="#63b8ff" stroke="#63b8ff" points="194.71,-202.37 205.25,-203.37 197.63,-196.01 194.71,-202.37"/>
</a>
</g>
</g>
</g>
</svg>
