<?xml version="1.0" encoding="UTF-8" standalone="no"?>
<!DOCTYPE svg PUBLIC "-//W3C//DTD SVG 1.1//EN"
 "http://www.w3.org/Graphics/SVG/1.1/DTD/svg11.dtd">
<!-- Generated by graphviz version 2.43.0 (0)
 -->
<!-- Title: Source/MemaProcessorEditor/MeterbridgeComponent.cpp Pages: 1 -->
<!--zoomable 434 -->

<svg id="main" version="1.1" xmlns="http://www.w3.org/2000/svg" xmlns:xlink="http://www.w3.org/1999/xlink" xml:space="preserve" onload="init(evt)">
<style type="text/css"><![CDATA[
.node, .edge {opacity: 0.7;}
.node.selected, .edge.selected {opacity: 1;}
.edge:hover path { stroke: red; }
.edge:hover polygon { stroke: red; fill: red; }
]]></style>

<defs>
  <circle id="rim" cx="0" cy="0" r="7"/>
  <circle id="rim2" cx="0" cy="0" r="3.5"/>
  <g id="zoomPlus">
    <use xlink:href="#rim" fill="#404040"><set attributeName="fill" to="#808080" begin="zoomplus.mouseover" end="zoomplus.mouseout"/></use>
    <path d="M-4,0h8M0,-4v8" fill="none" stroke="white" stroke-width="1.5" pointer-events="none"/>
  </g>
  <g id="zoomMin">
    <use xlink:href="#rim" fill="#404040"><set attributeName="fill" to="#808080" begin="zoomminus.mouseover" end="zoomminus.mouseout"/></use>
    <path d="M-4,0h8" fill="none" stroke="white" stroke-width="1.5" pointer-events="none"/>
  </g>
  <g id="arrowUp" transform="translate(30 24)">
    <use xlink:href="#rim"/>
    <path pointer-events="none" fill="none" stroke="white" stroke-width="1.5" d="M0,-3.0v7 M-2.5,-0.5L0,-3.0L2.5,-0.5"/>
  </g>
  <g id="arrowRight" transform="rotate(90) translate(36 -43)">
    <use xlink:href="#rim"/>
    <path pointer-events="none" fill="none" stroke="white" stroke-width="1.5" d="M0,-3.0v7 M-2.5,-0.5L0,-3.0L2.5,-0.5"/>
  </g>
  <g id="arrowDown" transform="rotate(180) translate(-30 -48)">
    <use xlink:href="#rim"/>
    <path pointer-events="none" fill="none" stroke="white" stroke-width="1.5" d="M0,-3.0v7 M-2.5,-0.5L0,-3.0L2.5,-0.5"/>
  </g>
  <g id="arrowLeft" transform="rotate(270) translate(-36 17)">
    <use xlink:href="#rim"/>
    <path pointer-events="none" fill="none" stroke="white" stroke-width="1.5" d="M0,-3.0v7 M-2.5,-0.5L0,-3.0L2.5,-0.5"/>
  </g>
  <g id="resetDef">
    <use xlink:href="#rim2" fill="#404040"><set attributeName="fill" to="#808080" begin="reset.mouseover" end="reset.mouseout"/></use>
  </g>
</defs>
<script type="application/ecmascript">
var viewWidth = 1292;
var viewHeight = 434;
var sectionId = 'dynsection-0';
</script>
<script type="application/ecmascript" xlink:href="svg.min.js"/>
<svg id="graph" class="graph">
<g id="viewport">
<title>Source/MemaProcessorEditor/MeterbridgeComponent.cpp</title>
<!-- Node1 -->
<g id="Node000001" class="node">
<title>Node1</title>
<g id="a_Node000001"><a xlink:title=" ">
<polygon fill="#999999" stroke="#666666" points="164.63,-426 5.63,-426 5.63,-396 164.63,-396 164.63,-426"/>
<text text-anchor="start" x="13.63" y="-414" font-family="Helvetica,sans-Serif" font-size="10.00">Source/MemaProcessorEditor</text>
<text text-anchor="middle" x="85.13" y="-403" font-family="Helvetica,sans-Serif" font-size="10.00">/MeterbridgeComponent.cpp</text>
</a>
</g>
</g>
<!-- Node2 -->
<g id="Node000002" class="node">
<title>Node2</title>
<g id="a_Node000002"><a xlink:href="MeterbridgeComponent_8h.html" target="_top" xlink:title=" ">
<polygon fill="white" stroke="#666666" points="205.63,-360 64.63,-360 64.63,-341 205.63,-341 205.63,-360"/>
<text text-anchor="middle" x="135.13" y="-348" font-family="Helvetica,sans-Serif" font-size="10.00">MeterbridgeComponent.h</text>
</a>
</g>
</g>
<!-- Node1&#45;&gt;Node2 -->
<g id="edge1_Node000001_Node000002" class="edge">
<title>Node1&#45;&gt;Node2</title>
<g id="a_edge1_Node000001_Node000002"><a xlink:title=" ">
<path fill="none" stroke="#63b8ff" d="M97.24,-395.84C104.42,-387.43 113.56,-376.74 121.06,-367.96"/>
<polygon fill="#63b8ff" stroke="#63b8ff" points="123.8,-370.14 127.64,-360.27 118.48,-365.59 123.8,-370.14"/>
</a>
</g>
</g>
<!-- Node7 -->
<g id="Node000007" class="node">
<title>Node7</title>
<g id="a_Node000007"><a xlink:title=" ">
<polygon fill="#e0e0e0" stroke="#999999" points="151.63,-134.5 26.63,-134.5 26.63,-115.5 151.63,-115.5 151.63,-134.5"/>
<text text-anchor="middle" x="89.13" y="-122.5" font-family="Helvetica,sans-Serif" font-size="10.00">CustomLookAndFeel.h</text>
</a>
</g>
</g>
<!-- Node1&#45;&gt;Node7 -->
<g id="edge31_Node000001_Node000007" class="edge">
<title>Node1&#45;&gt;Node7</title>
<g id="a_edge31_Node000001_Node000007"><a xlink:title=" ">
<path fill="none" stroke="#63b8ff" d="M74.5,-395.8C60.09,-375.1 36.13,-334.92 36.13,-296.5 36.13,-296.5 36.13,-296.5 36.13,-239.5 36.13,-202.2 59.92,-163.94 75.62,-142.74"/>
<polygon fill="#63b8ff" stroke="#63b8ff" points="78.44,-144.82 81.76,-134.76 72.89,-140.55 78.44,-144.82"/>
</a>
</g>
</g>
<!-- Node3 -->
<g id="Node000003" class="node">
<title>Node3</title>
<g id="a_Node000003"><a xlink:title=" ">
<polygon fill="#e0e0e0" stroke="#999999" points="693.13,-19 613.13,-19 613.13,0 693.13,0 693.13,-19"/>
<text text-anchor="middle" x="653.13" y="-7" font-family="Helvetica,sans-Serif" font-size="10.00">JuceHeader.h</text>
</a>
</g>
</g>
<!-- Node2&#45;&gt;Node3 -->
<g id="edge2_Node000002_Node000003" class="edge">
<title>Node2&#45;&gt;Node3</title>
<g id="a_edge2_Node000002_Node000003"><a xlink:title=" ">
<path fill="none" stroke="#63b8ff" d="M124.46,-340.89C85.09,-308.13 -46.5,-189.09 17.13,-110 90.11,-19.3 465.48,-10.33 602.76,-10.13"/>
<polygon fill="#63b8ff" stroke="#63b8ff" points="603,-13.63 613,-10.13 603,-6.63 603,-13.63"/>
</a>
</g>
</g>
<!-- Node4 -->
<g id="Node000004" class="node">
<title>Node4</title>
<g id="a_Node000004"><a xlink:href="AbstractAudioVisualizer_8h.html" target="_top" xlink:title=" ">
<polygon fill="white" stroke="#666666" points="471.63,-305 330.63,-305 330.63,-286 471.63,-286 471.63,-305"/>
<text text-anchor="middle" x="401.13" y="-293" font-family="Helvetica,sans-Serif" font-size="10.00">AbstractAudioVisualizer.h</text>
</a>
</g>
</g>
<!-- Node2&#45;&gt;Node4 -->
<g id="edge3_Node000002_Node000004" class="edge">
<title>Node2&#45;&gt;Node4</title>
<g id="a_edge3_Node000002_Node000004"><a xlink:title=" ">
<path fill="none" stroke="#63b8ff" d="M177.87,-340.98C224.17,-331.76 298.11,-317.03 348.09,-307.07"/>
<polygon fill="#63b8ff" stroke="#63b8ff" points="348.94,-310.47 358.06,-305.08 347.57,-303.6 348.94,-310.47"/>
</a>
</g>
</g>
<!-- Node4&#45;&gt;Node3 -->
<g id="edge4_Node000004_Node000003" class="edge">
<title>Node4&#45;&gt;Node3</title>
<g id="a_edge4_Node000004_Node000003"><a xlink:title=" ">
<path fill="none" stroke="#63b8ff" d="M471.9,-293.25C681.43,-288.61 1284.13,-268.16 1284.13,-186.5 1284.13,-186.5 1284.13,-186.5 1284.13,-124 1284.13,-64.78 1226.44,-73.35 1170.13,-55 1084.27,-27.01 815.79,-15.57 703.4,-11.92"/>
<polygon fill="#63b8ff" stroke="#63b8ff" points="703.45,-8.42 693.34,-11.6 703.23,-15.42 703.45,-8.42"/>
</a>
</g>
</g>
<!-- Node5 -->
<g id="Node000005" class="node">
<title>Node5</title>
<g id="a_Node000005"><a xlink:href="MemaProcessor_8h.html" target="_top" xlink:title=" ">
<polygon fill="white" stroke="#666666" points="497.63,-250 304.63,-250 304.63,-231 497.63,-231 497.63,-250"/>
<text text-anchor="middle" x="401.13" y="-238" font-family="Helvetica,sans-Serif" font-size="10.00">../MemaProcessor/MemaProcessor.h</text>
</a>
</g>
</g>
<!-- Node4&#45;&gt;Node5 -->
<g id="edge5_Node000004_Node000005" class="edge">
<title>Node4&#45;&gt;Node5</title>
<g id="a_edge5_Node000004_Node000005"><a xlink:title=" ">
<path fill="none" stroke="#63b8ff" d="M401.13,-285.75C401.13,-278.8 401.13,-268.85 401.13,-260.13"/>
<polygon fill="#63b8ff" stroke="#63b8ff" points="404.63,-260.09 401.13,-250.09 397.63,-260.09 404.63,-260.09"/>
</a>
</g>
</g>
<!-- Node5&#45;&gt;Node3 -->
<g id="edge6_Node000005_Node000003" class="edge">
<title>Node5&#45;&gt;Node3</title>
<g id="a_edge6_Node000005_Node000003"><a xlink:title=" ">
<path fill="none" stroke="#63b8ff" d="M399,-230.91C393.98,-208.53 383.81,-147.56 411.13,-110 455.91,-48.44 545.76,-24.84 602.48,-15.88"/>
<polygon fill="#63b8ff" stroke="#63b8ff" points="603.29,-19.3 612.67,-14.37 602.27,-12.37 603.29,-19.3"/>
</a>
</g>
</g>
<!-- Node6 -->
<g id="Node000006" class="node">
<title>Node6</title>
<g id="a_Node000006"><a xlink:href="MemaMessages_8h.html" target="_top" xlink:title=" ">
<polygon fill="white" stroke="#666666" points="169.63,-195 64.63,-195 64.63,-176 169.63,-176 169.63,-195"/>
<text text-anchor="middle" x="117.13" y="-183" font-family="Helvetica,sans-Serif" font-size="10.00">MemaMessages.h</text>
</a>
</g>
</g>
<!-- Node5&#45;&gt;Node6 -->
<g id="edge7_Node000005_Node000006" class="edge">
<title>Node5&#45;&gt;Node6</title>
<g id="a_edge7_Node000005_Node000006"><a xlink:title=" ">
<path fill="none" stroke="#63b8ff" d="M355.5,-230.98C305.86,-221.72 226.47,-206.9 173.1,-196.94"/>
<polygon fill="#63b8ff" stroke="#63b8ff" points="173.59,-193.48 163.12,-195.08 172.31,-200.36 173.59,-193.48"/>
</a>
</g>
</g>
<!-- Node8 -->
<g id="Node000008" class="node">
<title>Node8</title>
<g id="a_Node000008"><a xlink:href="MemaPluginParameterInfo_8h.html" target="_top" xlink:title=" ">
<polygon fill="white" stroke="#666666" points="363.63,-134.5 208.63,-134.5 208.63,-115.5 363.63,-115.5 363.63,-134.5"/>
<text text-anchor="middle" x="286.13" y="-122.5" font-family="Helvetica,sans-Serif" font-size="10.00">MemaPluginParameterInfo.h</text>
</a>
</g>
</g>
<!-- Node5&#45;&gt;Node8 -->
<g id="edge22_Node000005_Node000008" class="edge">
<title>Node5&#45;&gt;Node8</title>
<g id="a_edge22_Node000005_Node000008"><a xlink:title=" ">
<path fill="none" stroke="#63b8ff" d="M393.55,-230.59C382.74,-218.04 362.11,-194.6 343.13,-176 330.7,-163.81 315.89,-150.87 304.49,-141.21"/>
<polygon fill="#63b8ff" stroke="#63b8ff" points="306.44,-138.27 296.53,-134.52 301.94,-143.63 306.44,-138.27"/>
</a>
</g>
</g>
<!-- Node9 -->
<g id="Node000009" class="node">
<title>Node9</title>
<g id="a_Node000009"><a xlink:href="ProcessorDataAnalyzer_8h.html" target="_top" xlink:title=" ">
<polygon fill="white" stroke="#666666" points="722.13,-195 584.13,-195 584.13,-176 722.13,-176 722.13,-195"/>
<text text-anchor="middle" x="653.13" y="-183" font-family="Helvetica,sans-Serif" font-size="10.00">ProcessorDataAnalyzer.h</text>
</a>
</g>
</g>
<!-- Node5&#45;&gt;Node9 -->
<g id="edge12_Node000005_Node000009" class="edge">
<title>Node5&#45;&gt;Node9</title>
<g id="a_edge12_Node000005_Node000009"><a xlink:title=" ">
<path fill="none" stroke="#63b8ff" d="M441.62,-230.98C485.3,-221.8 554.95,-207.15 602.29,-197.19"/>
<polygon fill="#63b8ff" stroke="#63b8ff" points="603.26,-200.57 612.33,-195.08 601.82,-193.72 603.26,-200.57"/>
</a>
</g>
</g>
<!-- Node14 -->
<g id="Node000014" class="node">
<title>Node14</title>
<g id="a_Node000014"><a xlink:href="MemaProcessorEditor_8h.html" target="_top" xlink:title=" ">
<polygon fill="white" stroke="#666666" points="1066.13,-140 932.13,-140 932.13,-110 1066.13,-110 1066.13,-140"/>
<text text-anchor="start" x="940.13" y="-128" font-family="Helvetica,sans-Serif" font-size="10.00">../MemaProcessorEditor</text>
<text text-anchor="middle" x="999.13" y="-117" font-family="Helvetica,sans-Serif" font-size="10.00">/MemaProcessorEditor.h</text>
</a>
</g>
</g>
<!-- Node5&#45;&gt;Node14 -->
<g id="edge23_Node000005_Node000014" class="edge">
<title>Node5&#45;&gt;Node14</title>
<g id="a_edge23_Node000005_Node000014"><a xlink:title=" ">
<path fill="none" stroke="#63b8ff" d="M484.65,-231C551.63,-223.51 647.87,-211.27 731.13,-195 804.6,-180.64 887.91,-158.2 941.87,-142.84"/>
<polygon fill="#63b8ff" stroke="#63b8ff" points="942.94,-146.17 951.59,-140.05 941.02,-139.44 942.94,-146.17"/>
</a>
</g>
</g>
<!-- Node16 -->
<g id="Node000016" class="node">
<title>Node16</title>
<g id="a_Node000016"><a xlink:href="MemaAppConfiguration_8h.html" target="_top" xlink:title=" ">
<polygon fill="white" stroke="#666666" points="1225.63,-195 1076.63,-195 1076.63,-176 1225.63,-176 1225.63,-195"/>
<text text-anchor="middle" x="1151.13" y="-183" font-family="Helvetica,sans-Serif" font-size="10.00">../MemaAppConfiguration.h</text>
</a>
</g>
</g>
<!-- Node5&#45;&gt;Node16 -->
<g id="edge27_Node000005_Node000016" class="edge">
<title>Node5&#45;&gt;Node16</title>
<g id="a_edge27_Node000005_Node000016"><a xlink:title=" ">
<path fill="none" stroke="#63b8ff" d="M497.65,-232.68C645.47,-222.23 925.57,-202.44 1066.15,-192.51"/>
<polygon fill="#63b8ff" stroke="#63b8ff" points="1066.71,-195.97 1076.44,-191.78 1066.22,-188.99 1066.71,-195.97"/>
</a>
</g>
</g>
<!-- Node18 -->
<g id="Node000018" class="node">
<title>Node18</title>
<g id="a_Node000018"><a xlink:title=" ">
<polygon fill="#e0e0e0" stroke="#999999" points="334.63,-195 187.63,-195 187.63,-176 334.63,-176 334.63,-195"/>
<text text-anchor="middle" x="261.13" y="-183" font-family="Helvetica,sans-Serif" font-size="10.00">ServiceTopologyManager.h</text>
</a>
</g>
</g>
<!-- Node5&#45;&gt;Node18 -->
<g id="edge30_Node000005_Node000018" class="edge">
<title>Node5&#45;&gt;Node18</title>
<g id="a_edge30_Node000005_Node000018"><a xlink:title=" ">
<path fill="none" stroke="#63b8ff" d="M378.64,-230.98C355.61,-222.27 319.59,-208.63 293.5,-198.75"/>
<polygon fill="#63b8ff" stroke="#63b8ff" points="294.63,-195.44 284.03,-195.17 292.15,-201.98 294.63,-195.44"/>
</a>
</g>
</g>
<!-- Node6&#45;&gt;Node3 -->
<g id="edge8_Node000006_Node000003" class="edge">
<title>Node6&#45;&gt;Node3</title>
<g id="a_edge8_Node000006_Node000003"><a xlink:title=" ">
<path fill="none" stroke="#63b8ff" d="M124.9,-175.54C138.56,-160.26 168.35,-128.97 199.13,-110 328.97,-29.98 514.58,-13.88 602.82,-10.94"/>
<polygon fill="#63b8ff" stroke="#63b8ff" points="602.94,-14.43 612.83,-10.64 602.73,-7.44 602.94,-14.43"/>
</a>
</g>
</g>
<!-- Node6&#45;&gt;Node7 -->
<g id="edge9_Node000006_Node000007" class="edge">
<title>Node6&#45;&gt;Node7</title>
<g id="a_edge9_Node000006_Node000007"><a xlink:title=" ">
<path fill="none" stroke="#63b8ff" d="M113,-175.87C108.99,-167.49 102.78,-154.51 97.7,-143.89"/>
<polygon fill="#63b8ff" stroke="#63b8ff" points="100.76,-142.18 93.28,-134.67 94.44,-145.2 100.76,-142.18"/>
</a>
</g>
</g>
<!-- Node6&#45;&gt;Node8 -->
<g id="edge10_Node000006_Node000008" class="edge">
<title>Node6&#45;&gt;Node8</title>
<g id="a_edge10_Node000006_Node000008"><a xlink:title=" ">
<path fill="none" stroke="#63b8ff" d="M141.71,-175.99C170.74,-165.94 219.23,-149.16 251.93,-137.84"/>
<polygon fill="#63b8ff" stroke="#63b8ff" points="253.22,-141.1 261.53,-134.52 250.93,-134.48 253.22,-141.1"/>
</a>
</g>
</g>
<!-- Node8&#45;&gt;Node3 -->
<g id="edge11_Node000008_Node000003" class="edge">
<title>Node8&#45;&gt;Node3</title>
<g id="a_edge11_Node000008_Node000003"><a xlink:title=" ">
<path fill="none" stroke="#63b8ff" d="M294.85,-115.09C310.17,-100.01 343.59,-69.68 378.13,-55 452.09,-23.56 545.89,-14.19 602.62,-11.48"/>
<polygon fill="#63b8ff" stroke="#63b8ff" points="602.93,-14.97 612.77,-11.05 602.63,-7.98 602.93,-14.97"/>
</a>
</g>
</g>
<!-- Node9&#45;&gt;Node3 -->
<g id="edge13_Node000009_Node000003" class="edge">
<title>Node9&#45;&gt;Node3</title>
<g id="a_edge13_Node000009_Node000003"><a xlink:title=" ">
<path fill="none" stroke="#63b8ff" d="M720.03,-175.98C784.45,-167.1 873.63,-152.72 884.13,-140 939.56,-72.87 786.62,-34.2 703.22,-18.61"/>
<polygon fill="#63b8ff" stroke="#63b8ff" points="703.63,-15.13 693.17,-16.78 702.38,-22.02 703.63,-15.13"/>
</a>
</g>
</g>
<!-- Node10 -->
<g id="Node000010" class="node">
<title>Node10</title>
<g id="a_Node000010"><a xlink:href="ProcessorAudioSignalData_8h.html" target="_top" xlink:title=" ">
<polygon fill="white" stroke="#666666" points="574.13,-134.5 420.13,-134.5 420.13,-115.5 574.13,-115.5 574.13,-134.5"/>
<text text-anchor="middle" x="497.13" y="-122.5" font-family="Helvetica,sans-Serif" font-size="10.00">ProcessorAudioSignalData.h</text>
</a>
</g>
</g>
<!-- Node9&#45;&gt;Node10 -->
<g id="edge14_Node000009_Node000010" class="edge">
<title>Node9&#45;&gt;Node10</title>
<g id="a_edge14_Node000009_Node000010"><a xlink:title=" ">
<path fill="none" stroke="#63b8ff" d="M630.45,-175.99C603.88,-166.03 559.66,-149.45 529.49,-138.13"/>
<polygon fill="#63b8ff" stroke="#63b8ff" points="530.44,-134.75 519.84,-134.52 527.98,-141.31 530.44,-134.75"/>
</a>
</g>
</g>
<!-- Node12 -->
<g id="Node000012" class="node">
<title>Node12</title>
<g id="a_Node000012"><a xlink:href="ProcessorLevelData_8h.html" target="_top" xlink:title=" ">
<polygon fill="white" stroke="#666666" points="714.13,-134.5 592.13,-134.5 592.13,-115.5 714.13,-115.5 714.13,-134.5"/>
<text text-anchor="middle" x="653.13" y="-122.5" font-family="Helvetica,sans-Serif" font-size="10.00">ProcessorLevelData.h</text>
</a>
</g>
</g>
<!-- Node9&#45;&gt;Node12 -->
<g id="edge18_Node000009_Node000012" class="edge">
<title>Node9&#45;&gt;Node12</title>
<g id="a_edge18_Node000009_Node000012"><a xlink:title=" ">
<path fill="none" stroke="#63b8ff" d="M653.13,-175.87C653.13,-167.75 653.13,-155.31 653.13,-144.89"/>
<polygon fill="#63b8ff" stroke="#63b8ff" points="656.63,-144.67 653.13,-134.67 649.63,-144.67 656.63,-144.67"/>
</a>
</g>
</g>
<!-- Node13 -->
<g id="Node000013" class="node">
<title>Node13</title>
<g id="a_Node000013"><a xlink:href="ProcessorSpectrumData_8h.html" target="_top" xlink:title=" ">
<polygon fill="white" stroke="#666666" points="875.63,-134.5 732.63,-134.5 732.63,-115.5 875.63,-115.5 875.63,-134.5"/>
<text text-anchor="middle" x="804.13" y="-122.5" font-family="Helvetica,sans-Serif" font-size="10.00">ProcessorSpectrumData.h</text>
</a>
</g>
</g>
<!-- Node9&#45;&gt;Node13 -->
<g id="edge20_Node000009_Node000013" class="edge">
<title>Node9&#45;&gt;Node13</title>
<g id="a_edge20_Node000009_Node000013"><a xlink:title=" ">
<path fill="none" stroke="#63b8ff" d="M675.09,-175.99C700.81,-166.03 743.61,-149.45 772.81,-138.13"/>
<polygon fill="#63b8ff" stroke="#63b8ff" points="774.09,-141.39 782.15,-134.52 771.56,-134.87 774.09,-141.39"/>
</a>
</g>
</g>
<!-- Node10&#45;&gt;Node3 -->
<g id="edge15_Node000010_Node000003" class="edge">
<title>Node10&#45;&gt;Node3</title>
<g id="a_edge15_Node000010_Node000003"><a xlink:title=" ">
<path fill="none" stroke="#63b8ff" d="M505.75,-115.29C519.62,-101.54 548.08,-74.37 575.13,-55 591.51,-43.28 611.22,-32.05 626.73,-23.81"/>
<polygon fill="#63b8ff" stroke="#63b8ff" points="628.53,-26.82 635.78,-19.08 625.29,-20.61 628.53,-26.82"/>
</a>
</g>
</g>
<!-- Node11 -->
<g id="Node000011" class="node">
<title>Node11</title>
<g id="a_Node000011"><a xlink:href="AbstractProcessorData_8h.html" target="_top" xlink:title=" ">
<polygon fill="white" stroke="#666666" points="721.63,-74 584.63,-74 584.63,-55 721.63,-55 721.63,-74"/>
<text text-anchor="middle" x="653.13" y="-62" font-family="Helvetica,sans-Serif" font-size="10.00">AbstractProcessorData.h</text>
</a>
</g>
</g>
<!-- Node10&#45;&gt;Node11 -->
<g id="edge16_Node000010_Node000011" class="edge">
<title>Node10&#45;&gt;Node11</title>
<g id="a_edge16_Node000010_Node000011"><a xlink:title=" ">
<path fill="none" stroke="#63b8ff" d="M519.82,-115.49C546.39,-105.53 590.61,-88.95 620.78,-77.63"/>
<polygon fill="#63b8ff" stroke="#63b8ff" points="622.29,-80.81 630.42,-74.02 619.83,-74.25 622.29,-80.81"/>
</a>
</g>
</g>
<!-- Node11&#45;&gt;Node3 -->
<g id="edge17_Node000011_Node000003" class="edge">
<title>Node11&#45;&gt;Node3</title>
<g id="a_edge17_Node000011_Node000003"><a xlink:title=" ">
<path fill="none" stroke="#63b8ff" d="M653.13,-54.75C653.13,-47.8 653.13,-37.85 653.13,-29.13"/>
<polygon fill="#63b8ff" stroke="#63b8ff" points="656.63,-29.09 653.13,-19.09 649.63,-29.09 656.63,-29.09"/>
</a>
</g>
</g>
<!-- Node12&#45;&gt;Node11 -->
<g id="edge19_Node000012_Node000011" class="edge">
<title>Node12&#45;&gt;Node11</title>
<g id="a_edge19_Node000012_Node000011"><a xlink:title=" ">
<path fill="none" stroke="#63b8ff" d="M653.13,-115.37C653.13,-107.25 653.13,-94.81 653.13,-84.39"/>
<polygon fill="#63b8ff" stroke="#63b8ff" points="656.63,-84.17 653.13,-74.17 649.63,-84.17 656.63,-84.17"/>
</a>
</g>
</g>
<!-- Node13&#45;&gt;Node11 -->
<g id="edge21_Node000013_Node000011" class="edge">
<title>Node13&#45;&gt;Node11</title>
<g id="a_edge21_Node000013_Node000011"><a xlink:title=" ">
<path fill="none" stroke="#63b8ff" d="M782.18,-115.49C756.45,-105.53 713.65,-88.95 684.45,-77.63"/>
<polygon fill="#63b8ff" stroke="#63b8ff" points="685.7,-74.37 675.12,-74.02 683.18,-80.89 685.7,-74.37"/>
</a>
</g>
</g>
<!-- Node14&#45;&gt;Node3 -->
<g id="edge24_Node000014_Node000003" class="edge">
<title>Node14&#45;&gt;Node3</title>
<g id="a_edge24_Node000014_Node000003"><a xlink:title=" ">
<path fill="none" stroke="#63b8ff" d="M1035.42,-109.92C1064.29,-96.71 1096.96,-75.9 1078.13,-55 1053.45,-27.59 810.62,-15.91 703.48,-12.06"/>
<polygon fill="#63b8ff" stroke="#63b8ff" points="703.36,-8.56 693.24,-11.71 703.12,-15.55 703.36,-8.56"/>
</a>
</g>
</g>
<!-- Node15 -->
<g id="Node000015" class="node">
<title>Node15</title>
<g id="a_Node000015"><a xlink:href="AudioSelectComponent_8h.html" target="_top" xlink:title=" ">
<polygon fill="white" stroke="#666666" points="1069.13,-74 929.13,-74 929.13,-55 1069.13,-55 1069.13,-74"/>
<text text-anchor="middle" x="999.13" y="-62" font-family="Helvetica,sans-Serif" font-size="10.00">AudioSelectComponent.h</text>
</a>
</g>
</g>
<!-- Node14&#45;&gt;Node15 -->
<g id="edge25_Node000014_Node000015" class="edge">
<title>Node14&#45;&gt;Node15</title>
<g id="a_edge25_Node000014_Node000015"><a xlink:title=" ">
<path fill="none" stroke="#63b8ff" d="M999.13,-109.84C999.13,-102.21 999.13,-92.7 999.13,-84.45"/>
<polygon fill="#63b8ff" stroke="#63b8ff" points="1002.63,-84.27 999.13,-74.27 995.63,-84.27 1002.63,-84.27"/>
</a>
</g>
</g>
<!-- Node15&#45;&gt;Node3 -->
<g id="edge26_Node000015_Node000003" class="edge">
<title>Node15&#45;&gt;Node3</title>
<g id="a_edge26_Node000015_Node000003"><a xlink:title=" ">
<path fill="none" stroke="#63b8ff" d="M943.54,-54.98C877.22,-44.83 767.32,-27.99 703.43,-18.2"/>
<polygon fill="#63b8ff" stroke="#63b8ff" points="703.61,-14.69 693.2,-16.64 702.55,-21.61 703.61,-14.69"/>
</a>
</g>
</g>
<!-- Node16&#45;&gt;Node3 -->
<g id="edge28_Node000016_Node000003" class="edge">
<title>Node16&#45;&gt;Node3</title>
<g id="a_edge28_Node000016_Node000003"><a xlink:title=" ">
<path fill="none" stroke="#63b8ff" d="M1179.52,-175.92C1196.6,-169.13 1216.94,-157.77 1227.13,-140 1233.76,-128.43 1234.53,-121.09 1227.13,-110 1169.3,-23.25 832.34,-11.69 703.34,-10.48"/>
<polygon fill="#63b8ff" stroke="#63b8ff" points="703.36,-6.98 693.33,-10.4 703.3,-13.98 703.36,-6.98"/>
</a>
</g>
</g>
<!-- Node17 -->
<g id="Node000017" class="node">
<title>Node17</title>
<g id="a_Node000017"><a xlink:title=" ">
<polygon fill="#e0e0e0" stroke="#999999" points="1218.13,-134.5 1084.13,-134.5 1084.13,-115.5 1218.13,-115.5 1218.13,-134.5"/>
<text text-anchor="middle" x="1151.13" y="-122.5" font-family="Helvetica,sans-Serif" font-size="10.00">AppConfigurationBase.h</text>
</a>
</g>
</g>
<!-- Node16&#45;&gt;Node17 -->
<g id="edge29_Node000016_Node000017" class="edge">
<title>Node16&#45;&gt;Node17</title>
<g id="a_edge29_Node000016_Node000017"><a xlink:title=" ">
<path fill="none" stroke="#63b8ff" d="M1151.13,-175.87C1151.13,-167.75 1151.13,-155.31 1151.13,-144.89"/>
<polygon fill="#63b8ff" stroke="#63b8ff" points="1154.63,-144.67 1151.13,-134.67 1147.63,-144.67 1154.63,-144.67"/>
</a>
</g>
</g>
</g>
</svg>

<g id="navigator" transform="translate(0 0)" fill="#404254">
  <rect fill="#f2f5e9" fill-opacity="0.5" stroke="#606060" stroke-width=".5" x="0" y="0" width="60" height="60"/>
  <use id="zoomplus" xlink:href="#zoomPlus" x="17" y="9" onmousedown="handleZoom(evt,'in')"/>
  <use id="zoomminus" xlink:href="#zoomMin" x="42" y="9" onmousedown="handleZoom(evt,'out')"/>
  <use id="reset" xlink:href="#resetDef" x="30" y="36" onmousedown="handleReset()"/>
   <use id="arrowup" xlink:href="#arrowUp" x="0" y="0" onmousedown="handlePan(0,-1)"/>
  <use id="arrowright" xlink:href="#arrowRight" x="0" y="0" onmousedown="handlePan(1,0)"/>
  <use id="arrowdown" xlink:href="#arrowDown" x="0" y="0" onmousedown="handlePan(0,1)"/>
  <use id="arrowleft" xlink:href="#arrowLeft" x="0" y="0" onmousedown="handlePan(-1,0)"/>
</g>
<svg viewBox="0 0 15 15" width="100%" height="30px" preserveAspectRatio="xMaxYMin meet">
 <g id="arrow_out" transform="scale(0.3 0.3)">
  <a xlink:href="MeterbridgeComponent_8cpp__incl_org.svg" target="_base">
   <rect id="button" ry="5" rx="5" y="6" x="6" height="38" width="38"
        fill="#f2f5e9" fill-opacity="0.5" stroke="#606060" stroke-width="1.0"/>
   <path id="arrow"
     d="M 11.500037,31.436501 C 11.940474,20.09759 22.043105,11.32322 32.158766,21.979434 L 37.068811,17.246167 C 37.068811,17.246167 37.088388,32 37.088388,32 L 22.160133,31.978069 C 22.160133,31.978069 26.997745,27.140456 26.997745,27.140456 C 18.528582,18.264221 13.291696,25.230495 11.500037,31.436501 z"
     style="fill:#404040;"/>
  </a>
 </g>
</svg>

<style type='text/css'>
<![CDATA[
[data-mouse-over-selected='false'] { opacity: 0.7; }
[data-mouse-over-selected='true']  { opacity: 1.0; }
]]>
</style>
<script type="application/ecmascript"><![CDATA[
document.addEventListener('DOMContentLoaded', (event) => {
  highlightEdges();
  highlightAdjacentNodes();
});
]]></script>
</svg>
