<?xml version="1.0" encoding="UTF-8" standalone="no"?>
<!DOCTYPE svg PUBLIC "-//W3C//DTD SVG 1.1//EN"
 "http://www.w3.org/Graphics/SVG/1.1/DTD/svg11.dtd">
<!-- Generated by graphviz version 2.43.0 (0)
 -->
<!-- Title: Source/MemaProcessorEditor/MeterbridgeComponent.h Pages: 1 -->
<!--zoomable 379 -->

<svg id="main" version="1.1" xmlns="http://www.w3.org/2000/svg" xmlns:xlink="http://www.w3.org/1999/xlink" xml:space="preserve" onload="init(evt)">
<style type="text/css"><![CDATA[
.node, .edge {opacity: 0.7;}
.node.selected, .edge.selected {opacity: 1;}
.edge:hover path { stroke: red; }
.edge:hover polygon { stroke: red; fill: red; }
]]></style>

<defs>
  <circle id="rim" cx="0" cy="0" r="7"/>
  <circle id="rim2" cx="0" cy="0" r="3.5"/>
  <g id="zoomPlus">
    <use xlink:href="#rim" fill="#404040"><set attributeName="fill" to="#808080" begin="zoomplus.mouseover" end="zoomplus.mouseout"/></use>
    <path d="M-4,0h8M0,-4v8" fill="none" stroke="white" stroke-width="1.5" pointer-events="none"/>
  </g>
  <g id="zoomMin">
    <use xlink:href="#rim" fill="#404040"><set attributeName="fill" to="#808080" begin="zoomminus.mouseover" end="zoomminus.mouseout"/></use>
    <path d="M-4,0h8" fill="none" stroke="white" stroke-width="1.5" pointer-events="none"/>
  </g>
  <g id="arrowUp" transform="translate(30 24)">
    <use xlink:href="#rim"/>
    <path pointer-events="none" fill="none" stroke="white" stroke-width="1.5" d="M0,-3.0v7 M-2.5,-0.5L0,-3.0L2.5,-0.5"/>
  </g>
  <g id="arrowRight" transform="rotate(90) translate(36 -43)">
    <use xlink:href="#rim"/>
    <path pointer-events="none" fill="none" stroke="white" stroke-width="1.5" d="M0,-3.0v7 M-2.5,-0.5L0,-3.0L2.5,-0.5"/>
  </g>
  <g id="arrowDown" transform="rotate(180) translate(-30 -48)">
    <use xlink:href="#rim"/>
    <path pointer-events="none" fill="none" stroke="white" stroke-width="1.5" d="M0,-3.0v7 M-2.5,-0.5L0,-3.0L2.5,-0.5"/>
  </g>
  <g id="arrowLeft" transform="rotate(270) translate(-36 17)">
    <use xlink:href="#rim"/>
    <path pointer-events="none" fill="none" stroke="white" stroke-width="1.5" d="M0,-3.0v7 M-2.5,-0.5L0,-3.0L2.5,-0.5"/>
  </g>
  <g id="resetDef">
    <use xlink:href="#rim2" fill="#404040"><set attributeName="fill" to="#808080" begin="reset.mouseover" end="reset.mouseout"/></use>
  </g>
</defs>
<script type="application/ecmascript">
var viewWidth = 1334;
var viewHeight = 379;
var sectionId = 'dynsection-0';
</script>
<script type="application/ecmascript" xlink:href="svg.min.js"/>
<svg id="graph" class="graph">
<g id="viewport">
<title>Source/MemaProcessorEditor/MeterbridgeComponent.h</title>
<!-- Node1 -->
<g id="Node000001" class="node">
<title>Node1</title>
<g id="a_Node000001"><a xlink:title=" ">
<polygon fill="#999999" stroke="#666666" points="159,-371 0,-371 0,-341 159,-341 159,-371"/>
<text text-anchor="start" x="8" y="-359" font-family="Helvetica,sans-Serif" font-size="10.00">Source/MemaProcessorEditor</text>
<text text-anchor="middle" x="79.5" y="-348" font-family="Helvetica,sans-Serif" font-size="10.00">/MeterbridgeComponent.h</text>
</a>
</g>
</g>
<!-- Node2 -->
<g id="Node000002" class="node">
<title>Node2</title>
<g id="a_Node000002"><a xlink:title=" ">
<polygon fill="#e0e0e0" stroke="#999999" points="539.5,-19 459.5,-19 459.5,0 539.5,0 539.5,-19"/>
<text text-anchor="middle" x="499.5" y="-7" font-family="Helvetica,sans-Serif" font-size="10.00">JuceHeader.h</text>
</a>
</g>
</g>
<!-- Node1&#45;&gt;Node2 -->
<g id="edge1_Node000001_Node000002" class="edge">
<title>Node1&#45;&gt;Node2</title>
<g id="a_edge1_Node000001_Node000002"><a xlink:title=" ">
<path fill="none" stroke="#63b8ff" d="M68.87,-340.8C54.46,-320.1 30.5,-279.92 30.5,-241.5 30.5,-241.5 30.5,-241.5 30.5,-124 30.5,-80.63 60.41,-73.79 99.5,-55 160.2,-25.82 356.3,-15.35 449.46,-11.96"/>
<polygon fill="#63b8ff" stroke="#63b8ff" points="449.62,-15.46 459.49,-11.61 449.38,-8.46 449.62,-15.46"/>
</a>
</g>
</g>
<!-- Node3 -->
<g id="Node000003" class="node">
<title>Node3</title>
<g id="a_Node000003"><a xlink:href="AbstractAudioVisualizer_8h.html" target="_top" xlink:title=" ">
<polygon fill="white" stroke="#666666" points="200,-305 59,-305 59,-286 200,-286 200,-305"/>
<text text-anchor="middle" x="129.5" y="-293" font-family="Helvetica,sans-Serif" font-size="10.00">AbstractAudioVisualizer.h</text>
</a>
</g>
</g>
<!-- Node1&#45;&gt;Node3 -->
<g id="edge2_Node000001_Node000003" class="edge">
<title>Node1&#45;&gt;Node3</title>
<g id="a_edge2_Node000001_Node000003"><a xlink:title=" ">
<path fill="none" stroke="#63b8ff" d="M91.6,-340.84C98.79,-332.43 107.93,-321.74 115.43,-312.96"/>
<polygon fill="#63b8ff" stroke="#63b8ff" points="118.17,-315.14 122.01,-305.27 112.85,-310.59 118.17,-315.14"/>
</a>
</g>
</g>
<!-- Node3&#45;&gt;Node2 -->
<g id="edge3_Node000003_Node000002" class="edge">
<title>Node3&#45;&gt;Node2</title>
<g id="a_edge3_Node000003_Node000002"><a xlink:title=" ">
<path fill="none" stroke="#63b8ff" d="M120.5,-285.92C103.53,-268.76 68.5,-228.28 68.5,-186.5 68.5,-186.5 68.5,-186.5 68.5,-124 68.5,-76.03 107.51,-74.14 151.5,-55 203.79,-32.25 365.76,-18.97 448.99,-13.48"/>
<polygon fill="#63b8ff" stroke="#63b8ff" points="449.47,-16.96 459.22,-12.82 449.02,-9.97 449.47,-16.96"/>
</a>
</g>
</g>
<!-- Node4 -->
<g id="Node000004" class="node">
<title>Node4</title>
<g id="a_Node000004"><a xlink:href="MemaProcessor_8h.html" target="_top" xlink:title=" ">
<polygon fill="white" stroke="#666666" points="648,-250 455,-250 455,-231 648,-231 648,-250"/>
<text text-anchor="middle" x="551.5" y="-238" font-family="Helvetica,sans-Serif" font-size="10.00">../MemaProcessor/MemaProcessor.h</text>
</a>
</g>
</g>
<!-- Node3&#45;&gt;Node4 -->
<g id="edge4_Node000003_Node000004" class="edge">
<title>Node3&#45;&gt;Node4</title>
<g id="a_edge4_Node000003_Node000004"><a xlink:title=" ">
<path fill="none" stroke="#63b8ff" d="M197.3,-285.98C272.71,-276.51 394.32,-261.24 473.59,-251.29"/>
<polygon fill="#63b8ff" stroke="#63b8ff" points="474.03,-254.76 483.52,-250.04 473.16,-247.81 474.03,-254.76"/>
</a>
</g>
</g>
<!-- Node4&#45;&gt;Node2 -->
<g id="edge5_Node000004_Node000002" class="edge">
<title>Node4&#45;&gt;Node2</title>
<g id="a_edge5_Node000004_Node000002"><a xlink:title=" ">
<path fill="none" stroke="#63b8ff" d="M459.45,-230.99C352.02,-218.76 184.87,-191.75 152.5,-140 83.89,-30.3 337.52,-13.04 449.21,-10.68"/>
<polygon fill="#63b8ff" stroke="#63b8ff" points="449.3,-14.18 459.24,-10.5 449.18,-7.18 449.3,-14.18"/>
</a>
</g>
</g>
<!-- Node5 -->
<g id="Node000005" class="node">
<title>Node5</title>
<g id="a_Node000005"><a xlink:href="MemaMessages_8h.html" target="_top" xlink:title=" ">
<polygon fill="white" stroke="#666666" points="380,-195 275,-195 275,-176 380,-176 380,-195"/>
<text text-anchor="middle" x="327.5" y="-183" font-family="Helvetica,sans-Serif" font-size="10.00">MemaMessages.h</text>
</a>
</g>
</g>
<!-- Node4&#45;&gt;Node5 -->
<g id="edge6_Node000004_Node000005" class="edge">
<title>Node4&#45;&gt;Node5</title>
<g id="a_edge6_Node000004_Node000005"><a xlink:title=" ">
<path fill="none" stroke="#63b8ff" d="M515.51,-230.98C477.01,-221.87 415.81,-207.4 373.76,-197.45"/>
<polygon fill="#63b8ff" stroke="#63b8ff" points="374.31,-193.98 363.77,-195.08 372.7,-200.79 374.31,-193.98"/>
</a>
</g>
</g>
<!-- Node7 -->
<g id="Node000007" class="node">
<title>Node7</title>
<g id="a_Node000007"><a xlink:href="MemaPluginParameterInfo_8h.html" target="_top" xlink:title=" ">
<polygon fill="white" stroke="#666666" points="471,-134.5 316,-134.5 316,-115.5 471,-115.5 471,-134.5"/>
<text text-anchor="middle" x="393.5" y="-122.5" font-family="Helvetica,sans-Serif" font-size="10.00">MemaPluginParameterInfo.h</text>
</a>
</g>
</g>
<!-- Node4&#45;&gt;Node7 -->
<g id="edge21_Node000004_Node000007" class="edge">
<title>Node4&#45;&gt;Node7</title>
<g id="a_edge21_Node000004_Node000007"><a xlink:title=" ">
<path fill="none" stroke="#63b8ff" d="M539.62,-230.97C512.86,-211.74 447.56,-164.83 414.06,-140.77"/>
<polygon fill="#63b8ff" stroke="#63b8ff" points="415.68,-137.62 405.51,-134.63 411.59,-143.31 415.68,-137.62"/>
</a>
</g>
</g>
<!-- Node8 -->
<g id="Node000008" class="node">
<title>Node8</title>
<g id="a_Node000008"><a xlink:href="ProcessorDataAnalyzer_8h.html" target="_top" xlink:title=" ">
<polygon fill="white" stroke="#666666" points="673.5,-195 535.5,-195 535.5,-176 673.5,-176 673.5,-195"/>
<text text-anchor="middle" x="604.5" y="-183" font-family="Helvetica,sans-Serif" font-size="10.00">ProcessorDataAnalyzer.h</text>
</a>
</g>
</g>
<!-- Node4&#45;&gt;Node8 -->
<g id="edge11_Node000004_Node000008" class="edge">
<title>Node4&#45;&gt;Node8</title>
<g id="a_edge11_Node000004_Node000008"><a xlink:title=" ">
<path fill="none" stroke="#63b8ff" d="M560.25,-230.75C567.97,-223.03 579.4,-211.6 588.72,-202.28"/>
<polygon fill="#63b8ff" stroke="#63b8ff" points="591.31,-204.64 595.91,-195.09 586.36,-199.69 591.31,-204.64"/>
</a>
</g>
</g>
<!-- Node13 -->
<g id="Node000013" class="node">
<title>Node13</title>
<g id="a_Node000013"><a xlink:href="MemaProcessorEditor_8h.html" target="_top" xlink:title=" ">
<polygon fill="white" stroke="#666666" points="1135.5,-140 1001.5,-140 1001.5,-110 1135.5,-110 1135.5,-140"/>
<text text-anchor="start" x="1009.5" y="-128" font-family="Helvetica,sans-Serif" font-size="10.00">../MemaProcessorEditor</text>
<text text-anchor="middle" x="1068.5" y="-117" font-family="Helvetica,sans-Serif" font-size="10.00">/MemaProcessorEditor.h</text>
</a>
</g>
</g>
<!-- Node4&#45;&gt;Node13 -->
<g id="edge22_Node000004_Node000013" class="edge">
<title>Node4&#45;&gt;Node13</title>
<g id="a_edge22_Node000004_Node000013"><a xlink:title=" ">
<path fill="none" stroke="#63b8ff" d="M590.36,-230.97C676.18,-212.13 883.11,-166.7 994.52,-142.24"/>
<polygon fill="#63b8ff" stroke="#63b8ff" points="995.32,-145.65 1004.34,-140.09 993.82,-138.81 995.32,-145.65"/>
</a>
</g>
</g>
<!-- Node15 -->
<g id="Node000015" class="node">
<title>Node15</title>
<g id="a_Node000015"><a xlink:href="MemaAppConfiguration_8h.html" target="_top" xlink:title=" ">
<polygon fill="white" stroke="#666666" points="1148,-195 999,-195 999,-176 1148,-176 1148,-195"/>
<text text-anchor="middle" x="1073.5" y="-183" font-family="Helvetica,sans-Serif" font-size="10.00">../MemaAppConfiguration.h</text>
</a>
</g>
</g>
<!-- Node4&#45;&gt;Node15 -->
<g id="edge26_Node000004_Node000015" class="edge">
<title>Node4&#45;&gt;Node15</title>
<g id="a_edge26_Node000004_Node000015"><a xlink:title=" ">
<path fill="none" stroke="#63b8ff" d="M635.37,-230.98C732.37,-221.14 891.18,-205.01 988.62,-195.12"/>
<polygon fill="#63b8ff" stroke="#63b8ff" points="989.13,-198.58 998.73,-194.09 988.42,-191.62 989.13,-198.58"/>
</a>
</g>
</g>
<!-- Node17 -->
<g id="Node000017" class="node">
<title>Node17</title>
<g id="a_Node000017"><a xlink:title=" ">
<polygon fill="#e0e0e0" stroke="#999999" points="1313,-195 1166,-195 1166,-176 1313,-176 1313,-195"/>
<text text-anchor="middle" x="1239.5" y="-183" font-family="Helvetica,sans-Serif" font-size="10.00">ServiceTopologyManager.h</text>
</a>
</g>
</g>
<!-- Node4&#45;&gt;Node17 -->
<g id="edge29_Node000004_Node000017" class="edge">
<title>Node4&#45;&gt;Node17</title>
<g id="a_edge29_Node000004_Node000017"><a xlink:title=" ">
<path fill="none" stroke="#63b8ff" d="M648.23,-233.24C765.57,-225.46 969.69,-211.29 1155.51,-195.06"/>
<polygon fill="#63b8ff" stroke="#63b8ff" points="1156.09,-198.52 1165.74,-194.16 1155.48,-191.55 1156.09,-198.52"/>
</a>
</g>
</g>
<!-- Node5&#45;&gt;Node2 -->
<g id="edge7_Node000005_Node000002" class="edge">
<title>Node5&#45;&gt;Node2</title>
<g id="a_edge7_Node000005_Node000002"><a xlink:title=" ">
<path fill="none" stroke="#63b8ff" d="M274.94,-179.52C215.67,-171.75 131.46,-152.91 163.5,-110 197.87,-63.98 364.34,-31.72 449.33,-17.95"/>
<polygon fill="#63b8ff" stroke="#63b8ff" points="449.96,-21.4 459.28,-16.37 448.85,-14.48 449.96,-21.4"/>
</a>
</g>
</g>
<!-- Node6 -->
<g id="Node000006" class="node">
<title>Node6</title>
<g id="a_Node000006"><a xlink:title=" ">
<polygon fill="#e0e0e0" stroke="#999999" points="298,-134.5 173,-134.5 173,-115.5 298,-115.5 298,-134.5"/>
<text text-anchor="middle" x="235.5" y="-122.5" font-family="Helvetica,sans-Serif" font-size="10.00">CustomLookAndFeel.h</text>
</a>
</g>
</g>
<!-- Node5&#45;&gt;Node6 -->
<g id="edge8_Node000005_Node000006" class="edge">
<title>Node5&#45;&gt;Node6</title>
<g id="a_edge8_Node000005_Node000006"><a xlink:title=" ">
<path fill="none" stroke="#63b8ff" d="M313.93,-175.87C299.11,-166.45 275.17,-151.23 257.64,-140.08"/>
<polygon fill="#63b8ff" stroke="#63b8ff" points="259.45,-137.08 249.13,-134.67 255.69,-142.99 259.45,-137.08"/>
</a>
</g>
</g>
<!-- Node5&#45;&gt;Node7 -->
<g id="edge9_Node000005_Node000007" class="edge">
<title>Node5&#45;&gt;Node7</title>
<g id="a_edge9_Node000005_Node000007"><a xlink:title=" ">
<path fill="none" stroke="#63b8ff" d="M337.24,-175.87C347.47,-166.8 363.79,-152.34 376.22,-141.32"/>
<polygon fill="#63b8ff" stroke="#63b8ff" points="378.56,-143.92 383.72,-134.67 373.92,-138.68 378.56,-143.92"/>
</a>
</g>
</g>
<!-- Node7&#45;&gt;Node2 -->
<g id="edge10_Node000007_Node000002" class="edge">
<title>Node7&#45;&gt;Node2</title>
<g id="a_edge10_Node000007_Node000002"><a xlink:title=" ">
<path fill="none" stroke="#63b8ff" d="M401.47,-115.47C419.12,-96.57 461.74,-50.93 484.54,-26.52"/>
<polygon fill="#63b8ff" stroke="#63b8ff" points="487.17,-28.83 491.44,-19.13 482.06,-24.05 487.17,-28.83"/>
</a>
</g>
</g>
<!-- Node8&#45;&gt;Node2 -->
<g id="edge12_Node000008_Node000002" class="edge">
<title>Node8&#45;&gt;Node2</title>
<g id="a_edge12_Node000008_Node000002"><a xlink:title=" ">
<path fill="none" stroke="#63b8ff" d="M572.16,-175.86C553.51,-169.16 531.29,-157.93 518.5,-140 494.72,-106.65 495.01,-56.06 497.26,-29.05"/>
<polygon fill="#63b8ff" stroke="#63b8ff" points="500.75,-29.33 498.28,-19.03 493.78,-28.62 500.75,-29.33"/>
</a>
</g>
</g>
<!-- Node9 -->
<g id="Node000009" class="node">
<title>Node9</title>
<g id="a_Node000009"><a xlink:href="ProcessorAudioSignalData_8h.html" target="_top" xlink:title=" ">
<polygon fill="white" stroke="#666666" points="681.5,-134.5 527.5,-134.5 527.5,-115.5 681.5,-115.5 681.5,-134.5"/>
<text text-anchor="middle" x="604.5" y="-122.5" font-family="Helvetica,sans-Serif" font-size="10.00">ProcessorAudioSignalData.h</text>
</a>
</g>
</g>
<!-- Node8&#45;&gt;Node9 -->
<g id="edge13_Node000008_Node000009" class="edge">
<title>Node8&#45;&gt;Node9</title>
<g id="a_edge13_Node000008_Node000009"><a xlink:title=" ">
<path fill="none" stroke="#63b8ff" d="M604.5,-175.87C604.5,-167.75 604.5,-155.31 604.5,-144.89"/>
<polygon fill="#63b8ff" stroke="#63b8ff" points="608,-144.67 604.5,-134.67 601,-144.67 608,-144.67"/>
</a>
</g>
</g>
<!-- Node11 -->
<g id="Node000011" class="node">
<title>Node11</title>
<g id="a_Node000011"><a xlink:href="ProcessorLevelData_8h.html" target="_top" xlink:title=" ">
<polygon fill="white" stroke="#666666" points="821.5,-134.5 699.5,-134.5 699.5,-115.5 821.5,-115.5 821.5,-134.5"/>
<text text-anchor="middle" x="760.5" y="-122.5" font-family="Helvetica,sans-Serif" font-size="10.00">ProcessorLevelData.h</text>
</a>
</g>
</g>
<!-- Node8&#45;&gt;Node11 -->
<g id="edge17_Node000008_Node000011" class="edge">
<title>Node8&#45;&gt;Node11</title>
<g id="a_edge17_Node000008_Node000011"><a xlink:title=" ">
<path fill="none" stroke="#63b8ff" d="M627.18,-175.99C653.76,-166.03 697.98,-149.45 728.14,-138.13"/>
<polygon fill="#63b8ff" stroke="#63b8ff" points="729.65,-141.31 737.79,-134.52 727.2,-134.75 729.65,-141.31"/>
</a>
</g>
</g>
<!-- Node12 -->
<g id="Node000012" class="node">
<title>Node12</title>
<g id="a_Node000012"><a xlink:href="ProcessorSpectrumData_8h.html" target="_top" xlink:title=" ">
<polygon fill="white" stroke="#666666" points="983,-134.5 840,-134.5 840,-115.5 983,-115.5 983,-134.5"/>
<text text-anchor="middle" x="911.5" y="-122.5" font-family="Helvetica,sans-Serif" font-size="10.00">ProcessorSpectrumData.h</text>
</a>
</g>
</g>
<!-- Node8&#45;&gt;Node12 -->
<g id="edge19_Node000008_Node000012" class="edge">
<title>Node8&#45;&gt;Node12</title>
<g id="a_edge19_Node000008_Node000012"><a xlink:title=" ">
<path fill="none" stroke="#63b8ff" d="M649.14,-175.99C704.16,-165.51 797.63,-147.7 856.88,-136.41"/>
<polygon fill="#63b8ff" stroke="#63b8ff" points="857.64,-139.83 866.81,-134.52 856.33,-132.95 857.64,-139.83"/>
</a>
</g>
</g>
<!-- Node9&#45;&gt;Node2 -->
<g id="edge14_Node000009_Node000002" class="edge">
<title>Node9&#45;&gt;Node2</title>
<g id="a_edge14_Node000009_Node000002"><a xlink:title=" ">
<path fill="none" stroke="#63b8ff" d="M596.61,-115.47C579.13,-96.57 536.9,-50.93 514.32,-26.52"/>
<polygon fill="#63b8ff" stroke="#63b8ff" points="516.84,-24.09 507.48,-19.13 511.71,-28.85 516.84,-24.09"/>
</a>
</g>
</g>
<!-- Node10 -->
<g id="Node000010" class="node">
<title>Node10</title>
<g id="a_Node000010"><a xlink:href="AbstractProcessorData_8h.html" target="_top" xlink:title=" ">
<polygon fill="white" stroke="#666666" points="783,-74 646,-74 646,-55 783,-55 783,-74"/>
<text text-anchor="middle" x="714.5" y="-62" font-family="Helvetica,sans-Serif" font-size="10.00">AbstractProcessorData.h</text>
</a>
</g>
</g>
<!-- Node9&#45;&gt;Node10 -->
<g id="edge15_Node000009_Node000010" class="edge">
<title>Node9&#45;&gt;Node10</title>
<g id="a_edge15_Node000009_Node000010"><a xlink:title=" ">
<path fill="none" stroke="#63b8ff" d="M620.73,-115.37C638.77,-105.78 668.12,-90.17 689.18,-78.97"/>
<polygon fill="#63b8ff" stroke="#63b8ff" points="691.02,-81.95 698.2,-74.17 687.73,-75.77 691.02,-81.95"/>
</a>
</g>
</g>
<!-- Node10&#45;&gt;Node2 -->
<g id="edge16_Node000010_Node000002" class="edge">
<title>Node10&#45;&gt;Node2</title>
<g id="a_edge16_Node000010_Node000002"><a xlink:title=" ">
<path fill="none" stroke="#63b8ff" d="M679.96,-54.98C643.08,-45.89 584.51,-31.46 544.16,-21.51"/>
<polygon fill="#63b8ff" stroke="#63b8ff" points="544.86,-18.08 534.31,-19.08 543.19,-24.87 544.86,-18.08"/>
</a>
</g>
</g>
<!-- Node11&#45;&gt;Node10 -->
<g id="edge18_Node000011_Node000010" class="edge">
<title>Node11&#45;&gt;Node10</title>
<g id="a_edge18_Node000011_Node000010"><a xlink:title=" ">
<path fill="none" stroke="#63b8ff" d="M753.71,-115.37C746.85,-106.64 736.07,-92.93 727.55,-82.09"/>
<polygon fill="#63b8ff" stroke="#63b8ff" points="730.25,-79.86 721.32,-74.17 724.75,-84.19 730.25,-79.86"/>
</a>
</g>
</g>
<!-- Node12&#45;&gt;Node10 -->
<g id="edge20_Node000012_Node000010" class="edge">
<title>Node12&#45;&gt;Node10</title>
<g id="a_edge20_Node000012_Node000010"><a xlink:title=" ">
<path fill="none" stroke="#63b8ff" d="M882.85,-115.49C848.57,-105.31 791.02,-88.22 752.9,-76.9"/>
<polygon fill="#63b8ff" stroke="#63b8ff" points="753.76,-73.51 743.18,-74.02 751.77,-80.22 753.76,-73.51"/>
</a>
</g>
</g>
<!-- Node13&#45;&gt;Node2 -->
<g id="edge23_Node000013_Node000002" class="edge">
<title>Node13&#45;&gt;Node2</title>
<g id="a_edge23_Node000013_Node000002"><a xlink:title=" ">
<path fill="none" stroke="#63b8ff" d="M1018.27,-109.99C963.02,-94.94 871.44,-71.01 791.5,-55 707.31,-38.14 608.33,-24.29 549.92,-16.74"/>
<polygon fill="#63b8ff" stroke="#63b8ff" points="550.22,-13.25 539.85,-15.44 549.33,-20.19 550.22,-13.25"/>
</a>
</g>
</g>
<!-- Node14 -->
<g id="Node000014" class="node">
<title>Node14</title>
<g id="a_Node000014"><a xlink:href="AudioSelectComponent_8h.html" target="_top" xlink:title=" ">
<polygon fill="white" stroke="#666666" points="1096.5,-74 956.5,-74 956.5,-55 1096.5,-55 1096.5,-74"/>
<text text-anchor="middle" x="1026.5" y="-62" font-family="Helvetica,sans-Serif" font-size="10.00">AudioSelectComponent.h</text>
</a>
</g>
</g>
<!-- Node13&#45;&gt;Node14 -->
<g id="edge24_Node000013_Node000014" class="edge">
<title>Node13&#45;&gt;Node14</title>
<g id="a_edge24_Node000013_Node000014"><a xlink:title=" ">
<path fill="none" stroke="#63b8ff" d="M1058.33,-109.84C1052.42,-101.61 1044.94,-91.18 1038.71,-82.51"/>
<polygon fill="#63b8ff" stroke="#63b8ff" points="1041.47,-80.35 1032.79,-74.27 1035.78,-84.43 1041.47,-80.35"/>
</a>
</g>
</g>
<!-- Node14&#45;&gt;Node2 -->
<g id="edge25_Node000014_Node000002" class="edge">
<title>Node14&#45;&gt;Node2</title>
<g id="a_edge25_Node000014_Node000002"><a xlink:title=" ">
<path fill="none" stroke="#63b8ff" d="M956.25,-56.43C848.34,-45.58 644.39,-25.07 549.9,-15.57"/>
<polygon fill="#63b8ff" stroke="#63b8ff" points="550.05,-12.07 539.75,-14.55 549.35,-19.03 550.05,-12.07"/>
</a>
</g>
</g>
<!-- Node15&#45;&gt;Node2 -->
<g id="edge27_Node000015_Node000002" class="edge">
<title>Node15&#45;&gt;Node2</title>
<g id="a_edge27_Node000015_Node000002"><a xlink:title=" ">
<path fill="none" stroke="#63b8ff" d="M1099.01,-175.9C1115.19,-168.96 1134.85,-157.44 1144.5,-140 1164.63,-103.63 1141.7,-75.42 1105.5,-55 1057.65,-28 686.38,-15.48 549.75,-11.75"/>
<polygon fill="#63b8ff" stroke="#63b8ff" points="549.65,-8.24 539.56,-11.47 549.46,-15.24 549.65,-8.24"/>
</a>
</g>
</g>
<!-- Node16 -->
<g id="Node000016" class="node">
<title>Node16</title>
<g id="a_Node000016"><a xlink:title=" ">
<polygon fill="#e0e0e0" stroke="#999999" points="1325.5,-134.5 1191.5,-134.5 1191.5,-115.5 1325.5,-115.5 1325.5,-134.5"/>
<text text-anchor="middle" x="1258.5" y="-122.5" font-family="Helvetica,sans-Serif" font-size="10.00">AppConfigurationBase.h</text>
</a>
</g>
</g>
<!-- Node15&#45;&gt;Node16 -->
<g id="edge28_Node000015_Node000016" class="edge">
<title>Node15&#45;&gt;Node16</title>
<g id="a_edge28_Node000015_Node000016"><a xlink:title=" ">
<path fill="none" stroke="#63b8ff" d="M1100.4,-175.99C1132.46,-165.86 1186.18,-148.87 1221.98,-137.55"/>
<polygon fill="#63b8ff" stroke="#63b8ff" points="1223.09,-140.87 1231.57,-134.52 1220.98,-134.19 1223.09,-140.87"/>
</a>
</g>
</g>
</g>
</svg>

<g id="navigator" transform="translate(0 0)" fill="#404254">
  <rect fill="#f2f5e9" fill-opacity="0.5" stroke="#606060" stroke-width=".5" x="0" y="0" width="60" height="60"/>
  <use id="zoomplus" xlink:href="#zoomPlus" x="17" y="9" onmousedown="handleZoom(evt,'in')"/>
  <use id="zoomminus" xlink:href="#zoomMin" x="42" y="9" onmousedown="handleZoom(evt,'out')"/>
  <use id="reset" xlink:href="#resetDef" x="30" y="36" onmousedown="handleReset()"/>
   <use id="arrowup" xlink:href="#arrowUp" x="0" y="0" onmousedown="handlePan(0,-1)"/>
  <use id="arrowright" xlink:href="#arrowRight" x="0" y="0" onmousedown="handlePan(1,0)"/>
  <use id="arrowdown" xlink:href="#arrowDown" x="0" y="0" onmousedown="handlePan(0,1)"/>
  <use id="arrowleft" xlink:href="#arrowLeft" x="0" y="0" onmousedown="handlePan(-1,0)"/>
</g>
<svg viewBox="0 0 15 15" width="100%" height="30px" preserveAspectRatio="xMaxYMin meet">
 <g id="arrow_out" transform="scale(0.3 0.3)">
  <a xlink:href="MeterbridgeComponent_8h__incl_org.svg" target="_base">
   <rect id="button" ry="5" rx="5" y="6" x="6" height="38" width="38"
        fill="#f2f5e9" fill-opacity="0.5" stroke="#606060" stroke-width="1.0"/>
   <path id="arrow"
     d="M 11.500037,31.436501 C 11.940474,20.09759 22.043105,11.32322 32.158766,21.979434 L 37.068811,17.246167 C 37.068811,17.246167 37.088388,32 37.088388,32 L 22.160133,31.978069 C 22.160133,31.978069 26.997745,27.140456 26.997745,27.140456 C 18.528582,18.264221 13.291696,25.230495 11.500037,31.436501 z"
     style="fill:#404040;"/>
  </a>
 </g>
</svg>

<style type='text/css'>
<![CDATA[
[data-mouse-over-selected='false'] { opacity: 0.7; }
[data-mouse-over-selected='true']  { opacity: 1.0; }
]]>
</style>
<script type="application/ecmascript"><![CDATA[
document.addEventListener('DOMContentLoaded', (event) => {
  highlightEdges();
  highlightAdjacentNodes();
});
]]></script>
</svg>
