<?xml version="1.0" encoding="UTF-8" standalone="no"?>
<!DOCTYPE svg PUBLIC "-//W3C//DTD SVG 1.1//EN"
 "http://www.w3.org/Graphics/SVG/1.1/DTD/svg11.dtd">
<!-- Generated by graphviz version 2.43.0 (0)
 -->
<!-- Title: Source/MemaClientCommon/PanningControlComponent.cpp Pages: 1 -->
<svg width="1604pt" height="467pt"
 viewBox="0.00 0.00 1604.00 467.00" xmlns="http://www.w3.org/2000/svg" xmlns:xlink="http://www.w3.org/1999/xlink">
<g id="graph0" class="graph" transform="scale(1 1) rotate(0) translate(4 463)">
<title>Source/MemaClientCommon/PanningControlComponent.cpp</title>
<!-- Node1 -->
<g id="Node000001" class="node">
<title>Node1</title>
<g id="a_Node000001"><a xlink:title=" ">
<polygon fill="#999999" stroke="#666666" points="345,-459 175,-459 175,-429 345,-429 345,-459"/>
<text text-anchor="start" x="183" y="-447" font-family="Helvetica,sans-Serif" font-size="10.00">Source/MemaClientCommon</text>
<text text-anchor="middle" x="260" y="-436" font-family="Helvetica,sans-Serif" font-size="10.00">/PanningControlComponent.cpp</text>
</a>
</g>
</g>
<!-- Node2 -->
<g id="Node000002" class="node">
<title>Node2</title>
<g id="a_Node000002"><a xlink:href="PanningControlComponent_8h.html" target="_top" xlink:title=" ">
<polygon fill="white" stroke="#666666" points="162.5,-145.5 7.5,-145.5 7.5,-126.5 162.5,-126.5 162.5,-145.5"/>
<text text-anchor="middle" x="85" y="-133.5" font-family="Helvetica,sans-Serif" font-size="10.00">PanningControlComponent.h</text>
</a>
</g>
</g>
<!-- Node1&#45;&gt;Node2 -->
<g id="edge1_Node000001_Node000002" class="edge">
<title>Node1&#45;&gt;Node2</title>
<g id="a_edge1_Node000001_Node000002"><a xlink:title=" ">
<path fill="none" stroke="#63b8ff" d="M174.87,-435.49C99.04,-423.57 0,-392.74 0,-313 0,-313 0,-313 0,-250.5 0,-208 38.66,-171.2 63.83,-151.75"/>
<polygon fill="#63b8ff" stroke="#63b8ff" points="66.15,-154.38 72.09,-145.61 61.98,-148.76 66.15,-154.38"/>
</a>
</g>
</g>
<!-- Node5 -->
<g id="Node000005" class="node">
<title>Node5</title>
<g id="a_Node000005"><a xlink:title=" ">
<polygon fill="#e0e0e0" stroke="#999999" points="425.5,-145.5 300.5,-145.5 300.5,-126.5 425.5,-126.5 425.5,-145.5"/>
<text text-anchor="middle" x="363" y="-133.5" font-family="Helvetica,sans-Serif" font-size="10.00">CustomLookAndFeel.h</text>
</a>
</g>
</g>
<!-- Node1&#45;&gt;Node5 -->
<g id="edge5_Node000001_Node000005" class="edge">
<title>Node1&#45;&gt;Node5</title>
<g id="a_edge5_Node000001_Node000005"><a xlink:title=" ">
<path fill="none" stroke="#63b8ff" d="M288.99,-428.99C325.92,-408.89 385,-368.11 385,-313 385,-313 385,-313 385,-250.5 385,-216.5 375.37,-177.81 368.85,-155.51"/>
<polygon fill="#63b8ff" stroke="#63b8ff" points="372.13,-154.27 365.88,-145.72 365.43,-156.3 372.13,-154.27"/>
</a>
</g>
</g>
<!-- Node6 -->
<g id="Node000006" class="node">
<title>Node6</title>
<g id="a_Node000006"><a xlink:title=" ">
<polygon fill="#e0e0e0" stroke="#999999" points="274,-387.5 164,-387.5 164,-368.5 274,-368.5 274,-387.5"/>
<text text-anchor="middle" x="219" y="-375.5" font-family="Helvetica,sans-Serif" font-size="10.00">ToggleStateSlider.h</text>
</a>
</g>
</g>
<!-- Node1&#45;&gt;Node6 -->
<g id="edge6_Node000001_Node000006" class="edge">
<title>Node1&#45;&gt;Node6</title>
<g id="a_edge6_Node000001_Node000006"><a xlink:title=" ">
<path fill="none" stroke="#63b8ff" d="M250.9,-428.8C244.76,-419.21 236.62,-406.5 230.1,-396.32"/>
<polygon fill="#63b8ff" stroke="#63b8ff" points="233.01,-394.38 224.67,-387.84 227.11,-398.15 233.01,-394.38"/>
</a>
</g>
</g>
<!-- Node7 -->
<g id="Node000007" class="node">
<title>Node7</title>
<g id="a_Node000007"><a xlink:href="ADMOSController_8h.html" target="_top" xlink:title=" ">
<polygon fill="white" stroke="#666666" points="244,-261 28,-261 28,-242 244,-242 244,-261"/>
<text text-anchor="middle" x="136" y="-249" font-family="Helvetica,sans-Serif" font-size="10.00">MemaClientCommon/ADMOSController.h</text>
</a>
</g>
</g>
<!-- Node1&#45;&gt;Node7 -->
<g id="edge7_Node000001_Node000007" class="edge">
<title>Node1&#45;&gt;Node7</title>
<g id="a_edge7_Node000001_Node000007"><a xlink:title=" ">
<path fill="none" stroke="#63b8ff" d="M206,-428.99C187.03,-421.39 167.38,-409.96 155,-393 128.36,-356.49 130.16,-300.07 133.31,-271.09"/>
<polygon fill="#63b8ff" stroke="#63b8ff" points="136.79,-271.46 134.57,-261.1 129.84,-270.59 136.79,-271.46"/>
</a>
</g>
</g>
<!-- Node8 -->
<g id="Node000008" class="node">
<title>Node8</title>
<g id="a_Node000008"><a xlink:href="InputPositionMapper_8h.html" target="_top" xlink:title=" ">
<polygon fill="white" stroke="#666666" points="357.5,-327 170.5,-327 170.5,-297 357.5,-297 357.5,-327"/>
<text text-anchor="start" x="178.5" y="-315" font-family="Helvetica,sans-Serif" font-size="10.00">MemaClientCommon/InputPosition</text>
<text text-anchor="middle" x="264" y="-304" font-family="Helvetica,sans-Serif" font-size="10.00">Mapper.h</text>
</a>
</g>
</g>
<!-- Node1&#45;&gt;Node8 -->
<g id="edge9_Node000001_Node000008" class="edge">
<title>Node1&#45;&gt;Node8</title>
<g id="a_edge9_Node000001_Node000008"><a xlink:title=" ">
<path fill="none" stroke="#63b8ff" d="M268.59,-428.71C273.9,-419.01 280.22,-405.69 283,-393 285.85,-379.98 285.41,-376.11 283,-363 281.35,-354.04 278.18,-344.6 274.89,-336.37"/>
<polygon fill="#63b8ff" stroke="#63b8ff" points="278.05,-334.87 270.91,-327.04 271.61,-337.61 278.05,-334.87"/>
</a>
</g>
</g>
<!-- Node9 -->
<g id="Node000009" class="node">
<title>Node9</title>
<g id="a_Node000009"><a xlink:href="TwoDFieldMultisliderComponent_8h.html" target="_top" xlink:title=" ">
<polygon fill="white" stroke="#666666" points="1420.5,-393 1247.5,-393 1247.5,-363 1420.5,-363 1420.5,-393"/>
<text text-anchor="start" x="1255.5" y="-381" font-family="Helvetica,sans-Serif" font-size="10.00">MemaClientCommon/TwoDField</text>
<text text-anchor="middle" x="1334" y="-370" font-family="Helvetica,sans-Serif" font-size="10.00">MultisliderComponent.h</text>
</a>
</g>
</g>
<!-- Node1&#45;&gt;Node9 -->
<g id="edge11_Node000001_Node000009" class="edge">
<title>Node1&#45;&gt;Node9</title>
<g id="a_edge11_Node000001_Node000009"><a xlink:title=" ">
<path fill="none" stroke="#63b8ff" d="M345.17,-437.92C542.38,-426.17 1029.37,-397.15 1237.33,-384.76"/>
<polygon fill="#63b8ff" stroke="#63b8ff" points="1237.55,-388.25 1247.32,-384.17 1237.13,-381.27 1237.55,-388.25"/>
</a>
</g>
</g>
<!-- Node3 -->
<g id="Node000003" class="node">
<title>Node3</title>
<g id="a_Node000003"><a xlink:title=" ">
<polygon fill="#e0e0e0" stroke="#999999" points="957,-19 877,-19 877,0 957,0 957,-19"/>
<text text-anchor="middle" x="917" y="-7" font-family="Helvetica,sans-Serif" font-size="10.00">JuceHeader.h</text>
</a>
</g>
</g>
<!-- Node2&#45;&gt;Node3 -->
<g id="edge2_Node000002_Node000003" class="edge">
<title>Node2&#45;&gt;Node3</title>
<g id="a_edge2_Node000002_Node000003"><a xlink:title=" ">
<path fill="none" stroke="#63b8ff" d="M102.28,-126.34C121.01,-116.78 151.64,-100.67 177,-85 196.82,-72.75 198,-62.69 220,-55 339.36,-13.25 726.87,-9.99 866.37,-10.22"/>
<polygon fill="#63b8ff" stroke="#63b8ff" points="866.75,-13.72 876.76,-10.24 866.77,-6.72 866.75,-13.72"/>
</a>
</g>
</g>
<!-- Node4 -->
<g id="Node000004" class="node">
<title>Node4</title>
<g id="a_Node000004"><a xlink:href="MemaClientControlComponentBase_8h.html" target="_top" xlink:title=" ">
<polygon fill="white" stroke="#666666" points="168.5,-85 1.5,-85 1.5,-55 168.5,-55 168.5,-85"/>
<text text-anchor="start" x="9.5" y="-73" font-family="Helvetica,sans-Serif" font-size="10.00">MemaClientControlComponent</text>
<text text-anchor="middle" x="85" y="-62" font-family="Helvetica,sans-Serif" font-size="10.00">Base.h</text>
</a>
</g>
</g>
<!-- Node2&#45;&gt;Node4 -->
<g id="edge3_Node000002_Node000004" class="edge">
<title>Node2&#45;&gt;Node4</title>
<g id="a_edge3_Node000002_Node000004"><a xlink:title=" ">
<path fill="none" stroke="#63b8ff" d="M85,-126.37C85,-118.49 85,-106.45 85,-95.6"/>
<polygon fill="#63b8ff" stroke="#63b8ff" points="88.5,-95.36 85,-85.36 81.5,-95.36 88.5,-95.36"/>
</a>
</g>
</g>
<!-- Node4&#45;&gt;Node3 -->
<g id="edge4_Node000004_Node000003" class="edge">
<title>Node4&#45;&gt;Node3</title>
<g id="a_edge4_Node000004_Node000003"><a xlink:title=" ">
<path fill="none" stroke="#63b8ff" d="M168.54,-56.49C173.09,-55.95 177.6,-55.45 182,-55 438.46,-28.77 746.97,-16.25 866.38,-12.12"/>
<polygon fill="#63b8ff" stroke="#63b8ff" points="866.79,-15.61 876.67,-11.77 866.56,-8.61 866.79,-15.61"/>
</a>
</g>
</g>
<!-- Node7&#45;&gt;Node3 -->
<g id="edge8_Node000007_Node000003" class="edge">
<title>Node7&#45;&gt;Node3</title>
<g id="a_edge8_Node000007_Node000003"><a xlink:title=" ">
<path fill="none" stroke="#63b8ff" d="M138.32,-241.82C147.32,-210.08 183.2,-99.85 258,-55 309.69,-24 720.94,-13.91 866.31,-11.29"/>
<polygon fill="#63b8ff" stroke="#63b8ff" points="866.78,-14.78 876.72,-11.1 866.66,-7.78 866.78,-14.78"/>
</a>
</g>
</g>
<!-- Node8&#45;&gt;Node3 -->
<g id="edge10_Node000008_Node000003" class="edge">
<title>Node8&#45;&gt;Node3</title>
<g id="a_edge10_Node000008_Node000003"><a xlink:title=" ">
<path fill="none" stroke="#63b8ff" d="M265.66,-296.69C268,-275.19 272,-233.25 272,-197.5 272,-197.5 272,-197.5 272,-135 272,-108.88 156.46,-126.85 503,-55 632.56,-28.14 788.48,-16.94 866.85,-12.74"/>
<polygon fill="#63b8ff" stroke="#63b8ff" points="867.12,-16.23 876.92,-12.21 866.76,-9.24 867.12,-16.23"/>
</a>
</g>
</g>
<!-- Node9&#45;&gt;Node3 -->
<g id="edge12_Node000009_Node000003" class="edge">
<title>Node9&#45;&gt;Node3</title>
<g id="a_edge12_Node000009_Node000003"><a xlink:title=" ">
<path fill="none" stroke="#63b8ff" d="M1420.51,-371.12C1496.83,-360.66 1596,-331.82 1596,-252.5 1596,-252.5 1596,-252.5 1596,-135 1596,-77.39 1547.69,-75.89 1494,-55 1398.58,-17.88 1089.38,-11.66 967.27,-10.67"/>
<polygon fill="#63b8ff" stroke="#63b8ff" points="967.1,-7.16 957.08,-10.59 967.05,-14.16 967.1,-7.16"/>
</a>
</g>
</g>
<!-- Node10 -->
<g id="Node000010" class="node">
<title>Node10</title>
<g id="a_Node000010"><a xlink:title=" ">
<polygon fill="#e0e0e0" stroke="#999999" points="1453.5,-321.5 1354.5,-321.5 1354.5,-302.5 1453.5,-302.5 1453.5,-321.5"/>
<text text-anchor="middle" x="1404" y="-309.5" font-family="Helvetica,sans-Serif" font-size="10.00">TwoDFieldBase.h</text>
</a>
</g>
</g>
<!-- Node9&#45;&gt;Node10 -->
<g id="edge13_Node000009_Node000010" class="edge">
<title>Node9&#45;&gt;Node10</title>
<g id="a_edge13_Node000009_Node000010"><a xlink:title=" ">
<path fill="none" stroke="#63b8ff" d="M1349.54,-362.8C1360.56,-352.72 1375.35,-339.19 1386.74,-328.78"/>
<polygon fill="#63b8ff" stroke="#63b8ff" points="1389.31,-331.18 1394.33,-321.84 1384.58,-326.01 1389.31,-331.18"/>
</a>
</g>
</g>
<!-- Node11 -->
<g id="Node000011" class="node">
<title>Node11</title>
<g id="a_Node000011"><a xlink:href="AbstractAudioVisualizer_8h.html" target="_top" xlink:title=" ">
<polygon fill="white" stroke="#666666" points="1336,-327 1192,-327 1192,-297 1336,-297 1336,-327"/>
<text text-anchor="start" x="1200" y="-315" font-family="Helvetica,sans-Serif" font-size="10.00">../MemaProcessorEditor</text>
<text text-anchor="middle" x="1264" y="-304" font-family="Helvetica,sans-Serif" font-size="10.00">/AbstractAudioVisualizer.h</text>
</a>
</g>
</g>
<!-- Node9&#45;&gt;Node11 -->
<g id="edge14_Node000009_Node000011" class="edge">
<title>Node9&#45;&gt;Node11</title>
<g id="a_edge14_Node000009_Node000011"><a xlink:title=" ">
<path fill="none" stroke="#63b8ff" d="M1318.46,-362.8C1309.22,-354.34 1297.32,-343.46 1287,-334.03"/>
<polygon fill="#63b8ff" stroke="#63b8ff" points="1289.23,-331.33 1279.49,-327.16 1284.51,-336.49 1289.23,-331.33"/>
</a>
</g>
</g>
<!-- Node11&#45;&gt;Node3 -->
<g id="edge15_Node000011_Node000003" class="edge">
<title>Node11&#45;&gt;Node3</title>
<g id="a_edge15_Node000011_Node000003"><a xlink:title=" ">
<path fill="none" stroke="#63b8ff" d="M1336.3,-297.95C1423.35,-280.12 1558,-244.9 1558,-197.5 1558,-197.5 1558,-197.5 1558,-135 1558,-67.16 1492.41,-76.29 1428,-55 1343.43,-27.04 1079,-15.61 967.44,-11.94"/>
<polygon fill="#63b8ff" stroke="#63b8ff" points="967.24,-8.43 957.14,-11.61 967.02,-15.43 967.24,-8.43"/>
</a>
</g>
</g>
<!-- Node12 -->
<g id="Node000012" class="node">
<title>Node12</title>
<g id="a_Node000012"><a xlink:href="MemaProcessor_8h.html" target="_top" xlink:title=" ">
<polygon fill="white" stroke="#666666" points="1297.5,-261 1104.5,-261 1104.5,-242 1297.5,-242 1297.5,-261"/>
<text text-anchor="middle" x="1201" y="-249" font-family="Helvetica,sans-Serif" font-size="10.00">../MemaProcessor/MemaProcessor.h</text>
</a>
</g>
</g>
<!-- Node11&#45;&gt;Node12 -->
<g id="edge16_Node000011_Node000012" class="edge">
<title>Node11&#45;&gt;Node12</title>
<g id="a_edge16_Node000011_Node000012"><a xlink:title=" ">
<path fill="none" stroke="#63b8ff" d="M1248.75,-296.84C1239.42,-288.17 1227.47,-277.08 1217.85,-268.15"/>
<polygon fill="#63b8ff" stroke="#63b8ff" points="1220.15,-265.51 1210.44,-261.27 1215.39,-270.64 1220.15,-265.51"/>
</a>
</g>
</g>
<!-- Node12&#45;&gt;Node3 -->
<g id="edge17_Node000012_Node000003" class="edge">
<title>Node12&#45;&gt;Node3</title>
<g id="a_edge17_Node000012_Node000003"><a xlink:title=" ">
<path fill="none" stroke="#63b8ff" d="M1297.58,-249.33C1374.75,-246.1 1474.13,-236.01 1500,-206 1515.77,-187.71 1510.32,-160.7 1481,-121 1449.14,-77.87 1430.6,-72.75 1380,-55 1304.95,-28.68 1071.26,-16.52 967.51,-12.31"/>
<polygon fill="#63b8ff" stroke="#63b8ff" points="967.42,-8.8 957.29,-11.9 967.14,-15.8 967.42,-8.8"/>
</a>
</g>
</g>
<!-- Node13 -->
<g id="Node000013" class="node">
<title>Node13</title>
<g id="a_Node000013"><a xlink:href="MemaMessages_8h.html" target="_top" xlink:title=" ">
<polygon fill="white" stroke="#666666" points="565.5,-206 460.5,-206 460.5,-187 565.5,-187 565.5,-206"/>
<text text-anchor="middle" x="513" y="-194" font-family="Helvetica,sans-Serif" font-size="10.00">MemaMessages.h</text>
</a>
</g>
</g>
<!-- Node12&#45;&gt;Node13 -->
<g id="edge18_Node000012_Node000013" class="edge">
<title>Node12&#45;&gt;Node13</title>
<g id="a_edge18_Node000012_Node000013"><a xlink:title=" ">
<path fill="none" stroke="#63b8ff" d="M1104.25,-243.05C960.94,-232.01 696.22,-211.61 575.7,-202.33"/>
<polygon fill="#63b8ff" stroke="#63b8ff" points="575.78,-198.83 565.54,-201.55 575.24,-205.81 575.78,-198.83"/>
</a>
</g>
</g>
<!-- Node14 -->
<g id="Node000014" class="node">
<title>Node14</title>
<g id="a_Node000014"><a xlink:href="MemaPluginParameterInfo_8h.html" target="_top" xlink:title=" ">
<polygon fill="white" stroke="#666666" points="637.5,-145.5 482.5,-145.5 482.5,-126.5 637.5,-126.5 637.5,-145.5"/>
<text text-anchor="middle" x="560" y="-133.5" font-family="Helvetica,sans-Serif" font-size="10.00">MemaPluginParameterInfo.h</text>
</a>
</g>
</g>
<!-- Node12&#45;&gt;Node14 -->
<g id="edge33_Node000012_Node000014" class="edge">
<title>Node12&#45;&gt;Node14</title>
<g id="a_edge33_Node000012_Node000014"><a xlink:title=" ">
<path fill="none" stroke="#63b8ff" d="M1106.01,-241.97C1032.72,-234.63 928.98,-222.6 839,-206 752.57,-190.06 652.99,-163.39 599.27,-148.3"/>
<polygon fill="#63b8ff" stroke="#63b8ff" points="600.05,-144.88 589.48,-145.53 598.15,-151.62 600.05,-144.88"/>
</a>
</g>
</g>
<!-- Node15 -->
<g id="Node000015" class="node">
<title>Node15</title>
<g id="a_Node000015"><a xlink:href="ProcessorDataAnalyzer_8h.html" target="_top" xlink:title=" ">
<polygon fill="white" stroke="#666666" points="986,-206 848,-206 848,-187 986,-187 986,-206"/>
<text text-anchor="middle" x="917" y="-194" font-family="Helvetica,sans-Serif" font-size="10.00">ProcessorDataAnalyzer.h</text>
</a>
</g>
</g>
<!-- Node12&#45;&gt;Node15 -->
<g id="edge23_Node000012_Node000015" class="edge">
<title>Node12&#45;&gt;Node15</title>
<g id="a_edge23_Node000012_Node000015"><a xlink:title=" ">
<path fill="none" stroke="#63b8ff" d="M1155.37,-241.98C1105.73,-232.72 1026.34,-217.9 972.97,-207.94"/>
<polygon fill="#63b8ff" stroke="#63b8ff" points="973.46,-204.48 962.99,-206.08 972.18,-211.36 973.46,-204.48"/>
</a>
</g>
</g>
<!-- Node20 -->
<g id="Node000020" class="node">
<title>Node20</title>
<g id="a_Node000020"><a xlink:href="MemaProcessorEditor_8h.html" target="_top" xlink:title=" ">
<polygon fill="white" stroke="#666666" points="1302,-151 1168,-151 1168,-121 1302,-121 1302,-151"/>
<text text-anchor="start" x="1176" y="-139" font-family="Helvetica,sans-Serif" font-size="10.00">../MemaProcessorEditor</text>
<text text-anchor="middle" x="1235" y="-128" font-family="Helvetica,sans-Serif" font-size="10.00">/MemaProcessorEditor.h</text>
</a>
</g>
</g>
<!-- Node12&#45;&gt;Node20 -->
<g id="edge34_Node000012_Node000020" class="edge">
<title>Node12&#45;&gt;Node20</title>
<g id="a_edge34_Node000012_Node000020"><a xlink:title=" ">
<path fill="none" stroke="#63b8ff" d="M1190.92,-241.91C1177.91,-229.75 1158.09,-206.77 1168,-187 1174.22,-174.59 1185.14,-164.48 1196.39,-156.68"/>
<polygon fill="#63b8ff" stroke="#63b8ff" points="1198.45,-159.51 1204.97,-151.16 1194.67,-153.62 1198.45,-159.51"/>
</a>
</g>
</g>
<!-- Node22 -->
<g id="Node000022" class="node">
<title>Node22</title>
<g id="a_Node000022"><a xlink:href="MemaAppConfiguration_8h.html" target="_top" xlink:title=" ">
<polygon fill="white" stroke="#666666" points="1326.5,-206 1177.5,-206 1177.5,-187 1326.5,-187 1326.5,-206"/>
<text text-anchor="middle" x="1252" y="-194" font-family="Helvetica,sans-Serif" font-size="10.00">../MemaAppConfiguration.h</text>
</a>
</g>
</g>
<!-- Node12&#45;&gt;Node22 -->
<g id="edge38_Node000012_Node000022" class="edge">
<title>Node12&#45;&gt;Node22</title>
<g id="a_edge38_Node000012_Node000022"><a xlink:title=" ">
<path fill="none" stroke="#63b8ff" d="M1209.42,-241.75C1216.77,-234.11 1227.63,-222.82 1236.54,-213.56"/>
<polygon fill="#63b8ff" stroke="#63b8ff" points="1239.32,-215.72 1243.74,-206.09 1234.28,-210.87 1239.32,-215.72"/>
</a>
</g>
</g>
<!-- Node24 -->
<g id="Node000024" class="node">
<title>Node24</title>
<g id="a_Node000024"><a xlink:title=" ">
<polygon fill="#e0e0e0" stroke="#999999" points="1491.5,-206 1344.5,-206 1344.5,-187 1491.5,-187 1491.5,-206"/>
<text text-anchor="middle" x="1418" y="-194" font-family="Helvetica,sans-Serif" font-size="10.00">ServiceTopologyManager.h</text>
</a>
</g>
</g>
<!-- Node12&#45;&gt;Node24 -->
<g id="edge41_Node000012_Node000024" class="edge">
<title>Node12&#45;&gt;Node24</title>
<g id="a_edge41_Node000012_Node000024"><a xlink:title=" ">
<path fill="none" stroke="#63b8ff" d="M1235.86,-241.98C1273.09,-232.89 1332.2,-218.46 1372.93,-208.51"/>
<polygon fill="#63b8ff" stroke="#63b8ff" points="1373.98,-211.85 1382.86,-206.08 1372.32,-205.05 1373.98,-211.85"/>
</a>
</g>
</g>
<!-- Node13&#45;&gt;Node3 -->
<g id="edge19_Node000013_Node000003" class="edge">
<title>Node13&#45;&gt;Node3</title>
<g id="a_edge19_Node000013_Node000003"><a xlink:title=" ">
<path fill="none" stroke="#63b8ff" d="M502.18,-186.82C485.97,-172.72 458.72,-144.1 473,-121 507.48,-65.2 542.39,-74.55 605,-55 694.55,-27.04 804.1,-16.57 866.69,-12.71"/>
<polygon fill="#63b8ff" stroke="#63b8ff" points="866.92,-16.2 876.69,-12.12 866.51,-9.21 866.92,-16.2"/>
</a>
</g>
</g>
<!-- Node13&#45;&gt;Node5 -->
<g id="edge20_Node000013_Node000005" class="edge">
<title>Node13&#45;&gt;Node5</title>
<g id="a_edge20_Node000013_Node000005"><a xlink:title=" ">
<path fill="none" stroke="#63b8ff" d="M491.19,-186.99C465.75,-177.07 423.49,-160.59 394.49,-149.28"/>
<polygon fill="#63b8ff" stroke="#63b8ff" points="395.43,-145.89 384.84,-145.52 392.88,-152.41 395.43,-145.89"/>
</a>
</g>
</g>
<!-- Node13&#45;&gt;Node14 -->
<g id="edge21_Node000013_Node000014" class="edge">
<title>Node13&#45;&gt;Node14</title>
<g id="a_edge21_Node000013_Node000014"><a xlink:title=" ">
<path fill="none" stroke="#63b8ff" d="M519.94,-186.87C526.95,-178.14 537.96,-164.43 546.67,-153.59"/>
<polygon fill="#63b8ff" stroke="#63b8ff" points="549.5,-155.66 553.04,-145.67 544.04,-151.27 549.5,-155.66"/>
</a>
</g>
</g>
<!-- Node14&#45;&gt;Node3 -->
<g id="edge22_Node000014_Node000003" class="edge">
<title>Node14&#45;&gt;Node3</title>
<g id="a_edge22_Node000014_Node000003"><a xlink:title=" ">
<path fill="none" stroke="#63b8ff" d="M567.04,-126.28C581.18,-109.43 614.87,-72.53 652,-55 721.55,-22.17 811.44,-13.17 866.61,-10.92"/>
<polygon fill="#63b8ff" stroke="#63b8ff" points="866.96,-14.41 876.83,-10.57 866.72,-7.41 866.96,-14.41"/>
</a>
</g>
</g>
<!-- Node15&#45;&gt;Node3 -->
<g id="edge24_Node000015_Node000003" class="edge">
<title>Node15&#45;&gt;Node3</title>
<g id="a_edge24_Node000015_Node000003"><a xlink:title=" ">
<path fill="none" stroke="#63b8ff" d="M849.51,-186.96C784.84,-178.09 695.53,-163.74 685,-151 628.07,-82.11 783.06,-38.15 867.04,-20.01"/>
<polygon fill="#63b8ff" stroke="#63b8ff" points="867.85,-23.42 876.91,-17.93 866.4,-16.57 867.85,-23.42"/>
</a>
</g>
</g>
<!-- Node16 -->
<g id="Node000016" class="node">
<title>Node16</title>
<g id="a_Node000016"><a xlink:href="ProcessorAudioSignalData_8h.html" target="_top" xlink:title=" ">
<polygon fill="white" stroke="#666666" points="1150,-145.5 996,-145.5 996,-126.5 1150,-126.5 1150,-145.5"/>
<text text-anchor="middle" x="1073" y="-133.5" font-family="Helvetica,sans-Serif" font-size="10.00">ProcessorAudioSignalData.h</text>
</a>
</g>
</g>
<!-- Node15&#45;&gt;Node16 -->
<g id="edge25_Node000015_Node000016" class="edge">
<title>Node15&#45;&gt;Node16</title>
<g id="a_edge25_Node000015_Node000016"><a xlink:title=" ">
<path fill="none" stroke="#63b8ff" d="M939.68,-186.99C966.26,-177.03 1010.48,-160.45 1040.64,-149.13"/>
<polygon fill="#63b8ff" stroke="#63b8ff" points="1042.15,-152.31 1050.29,-145.52 1039.7,-145.75 1042.15,-152.31"/>
</a>
</g>
</g>
<!-- Node18 -->
<g id="Node000018" class="node">
<title>Node18</title>
<g id="a_Node000018"><a xlink:href="ProcessorLevelData_8h.html" target="_top" xlink:title=" ">
<polygon fill="white" stroke="#666666" points="978,-145.5 856,-145.5 856,-126.5 978,-126.5 978,-145.5"/>
<text text-anchor="middle" x="917" y="-133.5" font-family="Helvetica,sans-Serif" font-size="10.00">ProcessorLevelData.h</text>
</a>
</g>
</g>
<!-- Node15&#45;&gt;Node18 -->
<g id="edge29_Node000015_Node000018" class="edge">
<title>Node15&#45;&gt;Node18</title>
<g id="a_edge29_Node000015_Node000018"><a xlink:title=" ">
<path fill="none" stroke="#63b8ff" d="M917,-186.87C917,-178.75 917,-166.31 917,-155.89"/>
<polygon fill="#63b8ff" stroke="#63b8ff" points="920.5,-155.67 917,-145.67 913.5,-155.67 920.5,-155.67"/>
</a>
</g>
</g>
<!-- Node19 -->
<g id="Node000019" class="node">
<title>Node19</title>
<g id="a_Node000019"><a xlink:href="ProcessorSpectrumData_8h.html" target="_top" xlink:title=" ">
<polygon fill="white" stroke="#666666" points="837.5,-145.5 694.5,-145.5 694.5,-126.5 837.5,-126.5 837.5,-145.5"/>
<text text-anchor="middle" x="766" y="-133.5" font-family="Helvetica,sans-Serif" font-size="10.00">ProcessorSpectrumData.h</text>
</a>
</g>
</g>
<!-- Node15&#45;&gt;Node19 -->
<g id="edge31_Node000015_Node000019" class="edge">
<title>Node15&#45;&gt;Node19</title>
<g id="a_edge31_Node000015_Node000019"><a xlink:title=" ">
<path fill="none" stroke="#63b8ff" d="M895.04,-186.99C869.32,-177.03 826.52,-160.45 797.32,-149.13"/>
<polygon fill="#63b8ff" stroke="#63b8ff" points="798.57,-145.87 787.98,-145.52 796.04,-152.39 798.57,-145.87"/>
</a>
</g>
</g>
<!-- Node16&#45;&gt;Node3 -->
<g id="edge26_Node000016_Node000003" class="edge">
<title>Node16&#45;&gt;Node3</title>
<g id="a_edge26_Node000016_Node000003"><a xlink:title=" ">
<path fill="none" stroke="#63b8ff" d="M1065.81,-126.31C1052.65,-110.76 1023.35,-77.68 994,-55 978.42,-42.96 959.25,-31.87 943.94,-23.78"/>
<polygon fill="#63b8ff" stroke="#63b8ff" points="945.46,-20.62 934.97,-19.14 942.25,-26.84 945.46,-20.62"/>
</a>
</g>
</g>
<!-- Node17 -->
<g id="Node000017" class="node">
<title>Node17</title>
<g id="a_Node000017"><a xlink:href="AbstractProcessorData_8h.html" target="_top" xlink:title=" ">
<polygon fill="white" stroke="#666666" points="985.5,-79.5 848.5,-79.5 848.5,-60.5 985.5,-60.5 985.5,-79.5"/>
<text text-anchor="middle" x="917" y="-67.5" font-family="Helvetica,sans-Serif" font-size="10.00">AbstractProcessorData.h</text>
</a>
</g>
</g>
<!-- Node16&#45;&gt;Node17 -->
<g id="edge27_Node000016_Node000017" class="edge">
<title>Node16&#45;&gt;Node17</title>
<g id="a_edge27_Node000016_Node000017"><a xlink:title=" ">
<path fill="none" stroke="#63b8ff" d="M1051.96,-126.37C1025.02,-115.32 978.14,-96.08 947.34,-83.45"/>
<polygon fill="#63b8ff" stroke="#63b8ff" points="948.53,-80.15 937.95,-79.6 945.88,-86.63 948.53,-80.15"/>
</a>
</g>
</g>
<!-- Node17&#45;&gt;Node3 -->
<g id="edge28_Node000017_Node000003" class="edge">
<title>Node17&#45;&gt;Node3</title>
<g id="a_edge28_Node000017_Node000003"><a xlink:title=" ">
<path fill="none" stroke="#63b8ff" d="M917,-60.37C917,-52.25 917,-39.81 917,-29.39"/>
<polygon fill="#63b8ff" stroke="#63b8ff" points="920.5,-29.17 917,-19.17 913.5,-29.17 920.5,-29.17"/>
</a>
</g>
</g>
<!-- Node18&#45;&gt;Node17 -->
<g id="edge30_Node000018_Node000017" class="edge">
<title>Node18&#45;&gt;Node17</title>
<g id="a_edge30_Node000018_Node000017"><a xlink:title=" ">
<path fill="none" stroke="#63b8ff" d="M917,-126.37C917,-117.16 917,-102.29 917,-90.27"/>
<polygon fill="#63b8ff" stroke="#63b8ff" points="920.5,-89.91 917,-79.91 913.5,-89.91 920.5,-89.91"/>
</a>
</g>
</g>
<!-- Node19&#45;&gt;Node17 -->
<g id="edge32_Node000019_Node000017" class="edge">
<title>Node19&#45;&gt;Node17</title>
<g id="a_edge32_Node000019_Node000017"><a xlink:title=" ">
<path fill="none" stroke="#63b8ff" d="M786.36,-126.37C812.26,-115.39 857.17,-96.36 886.99,-83.72"/>
<polygon fill="#63b8ff" stroke="#63b8ff" points="888.63,-86.82 896.48,-79.7 885.9,-80.38 888.63,-86.82"/>
</a>
</g>
</g>
<!-- Node20&#45;&gt;Node3 -->
<g id="edge35_Node000020_Node000003" class="edge">
<title>Node20&#45;&gt;Node3</title>
<g id="a_edge35_Node000020_Node000003"><a xlink:title=" ">
<path fill="none" stroke="#63b8ff" d="M1233.2,-120.92C1230.07,-102.66 1221.83,-71.24 1201,-55 1165.5,-27.33 1039.03,-16.56 967.41,-12.61"/>
<polygon fill="#63b8ff" stroke="#63b8ff" points="967.43,-9.11 957.26,-12.08 967.06,-16.1 967.43,-9.11"/>
</a>
</g>
</g>
<!-- Node21 -->
<g id="Node000021" class="node">
<title>Node21</title>
<g id="a_Node000021"><a xlink:href="AudioSelectComponent_8h.html" target="_top" xlink:title=" ">
<polygon fill="white" stroke="#666666" points="1192,-79.5 1052,-79.5 1052,-60.5 1192,-60.5 1192,-79.5"/>
<text text-anchor="middle" x="1122" y="-67.5" font-family="Helvetica,sans-Serif" font-size="10.00">AudioSelectComponent.h</text>
</a>
</g>
</g>
<!-- Node20&#45;&gt;Node21 -->
<g id="edge36_Node000020_Node000021" class="edge">
<title>Node20&#45;&gt;Node21</title>
<g id="a_edge36_Node000020_Node000021"><a xlink:title=" ">
<path fill="none" stroke="#63b8ff" d="M1210.2,-120.95C1191.08,-110.13 1164.8,-95.24 1145.91,-84.54"/>
<polygon fill="#63b8ff" stroke="#63b8ff" points="1147.46,-81.4 1137.04,-79.52 1144.01,-87.49 1147.46,-81.4"/>
</a>
</g>
</g>
<!-- Node21&#45;&gt;Node3 -->
<g id="edge37_Node000021_Node000003" class="edge">
<title>Node21&#45;&gt;Node3</title>
<g id="a_edge37_Node000021_Node000003"><a xlink:title=" ">
<path fill="none" stroke="#63b8ff" d="M1092.19,-60.49C1056.44,-50.29 996.37,-33.15 956.71,-21.83"/>
<polygon fill="#63b8ff" stroke="#63b8ff" points="957.42,-18.4 946.84,-19.02 955.5,-25.13 957.42,-18.4"/>
</a>
</g>
</g>
<!-- Node22&#45;&gt;Node3 -->
<g id="edge39_Node000022_Node000003" class="edge">
<title>Node22&#45;&gt;Node3</title>
<g id="a_edge39_Node000022_Node000003"><a xlink:title=" ">
<path fill="none" stroke="#63b8ff" d="M1310.69,-186.97C1369.71,-177.79 1453.35,-162.9 1463,-151 1471.4,-140.64 1471.06,-131.62 1463,-121 1403.24,-42.33 1091.14,-18.85 967.51,-12.57"/>
<polygon fill="#63b8ff" stroke="#63b8ff" points="967.35,-9.06 957.19,-12.07 967.01,-16.05 967.35,-9.06"/>
</a>
</g>
</g>
<!-- Node23 -->
<g id="Node000023" class="node">
<title>Node23</title>
<g id="a_Node000023"><a xlink:title=" ">
<polygon fill="#e0e0e0" stroke="#999999" points="1454,-145.5 1320,-145.5 1320,-126.5 1454,-126.5 1454,-145.5"/>
<text text-anchor="middle" x="1387" y="-133.5" font-family="Helvetica,sans-Serif" font-size="10.00">AppConfigurationBase.h</text>
</a>
</g>
</g>
<!-- Node22&#45;&gt;Node23 -->
<g id="edge40_Node000022_Node000023" class="edge">
<title>Node22&#45;&gt;Node23</title>
<g id="a_edge40_Node000022_Node000023"><a xlink:title=" ">
<path fill="none" stroke="#63b8ff" d="M1271.63,-186.99C1294.33,-177.16 1331.9,-160.88 1357.97,-149.58"/>
<polygon fill="#63b8ff" stroke="#63b8ff" points="1359.56,-152.7 1367.35,-145.52 1356.78,-146.28 1359.56,-152.7"/>
</a>
</g>
</g>
</g>
</svg>
