<?xml version="1.0" encoding="UTF-8" standalone="no"?>
<!DOCTYPE svg PUBLIC "-//W3C//DTD SVG 1.1//EN"
 "http://www.w3.org/Graphics/SVG/1.1/DTD/svg11.dtd">
<!-- Generated by graphviz version 2.43.0 (0)
 -->
<!-- Title: Source/MemaProcessor/ProcessorAudioSignalData.h Pages: 1 -->
<svg width="1933pt" height="368pt"
 viewBox="0.00 0.00 1933.00 368.00" xmlns="http://www.w3.org/2000/svg" xmlns:xlink="http://www.w3.org/1999/xlink">
<g id="graph0" class="graph" transform="scale(1 1) rotate(0) translate(4 364)">
<title>Source/MemaProcessor/ProcessorAudioSignalData.h</title>
<!-- Node1 -->
<g id="Node000001" class="node">
<title>Node1</title>
<g id="a_Node000001"><a xlink:title=" ">
<polygon fill="#999999" stroke="#666666" points="641,-360 484,-360 484,-330 641,-330 641,-360"/>
<text text-anchor="start" x="492" y="-348" font-family="Helvetica,sans-Serif" font-size="10.00">Source/MemaProcessor</text>
<text text-anchor="middle" x="562.5" y="-337" font-family="Helvetica,sans-Serif" font-size="10.00">/ProcessorAudioSignalData.h</text>
</a>
</g>
</g>
<!-- Node2 -->
<g id="Node000002" class="node">
<title>Node2</title>
<g id="a_Node000002"><a xlink:href="ProcessorAudioSignalData_8cpp.html" target="_top" xlink:title=" ">
<polygon fill="white" stroke="#666666" points="560.5,-294 392.5,-294 392.5,-264 560.5,-264 560.5,-294"/>
<text text-anchor="start" x="400.5" y="-282" font-family="Helvetica,sans-Serif" font-size="10.00">Source/MemaProcessor</text>
<text text-anchor="middle" x="476.5" y="-271" font-family="Helvetica,sans-Serif" font-size="10.00">/ProcessorAudioSignalData.cpp</text>
</a>
</g>
</g>
<!-- Node1&#45;&gt;Node2 -->
<g id="edge1_Node000001_Node000002" class="edge">
<title>Node1&#45;&gt;Node2</title>
<g id="a_edge1_Node000001_Node000002"><a xlink:title=" ">
<path fill="none" stroke="#63b8ff" d="M535.29,-323.75C522.36,-314.13 507.21,-302.86 495.53,-294.16"/>
<polygon fill="#63b8ff" stroke="#63b8ff" points="533.3,-326.63 543.41,-329.8 537.48,-321.02 533.3,-326.63"/>
</a>
</g>
</g>
<!-- Node3 -->
<g id="Node000003" class="node">
<title>Node3</title>
<g id="a_Node000003"><a xlink:href="ProcessorDataAnalyzer_8h.html" target="_top" xlink:title=" ">
<polygon fill="white" stroke="#666666" points="720,-294 579,-294 579,-264 720,-264 720,-294"/>
<text text-anchor="start" x="587" y="-282" font-family="Helvetica,sans-Serif" font-size="10.00">Source/MemaProcessor</text>
<text text-anchor="middle" x="649.5" y="-271" font-family="Helvetica,sans-Serif" font-size="10.00">/ProcessorDataAnalyzer.h</text>
</a>
</g>
</g>
<!-- Node1&#45;&gt;Node3 -->
<g id="edge2_Node000001_Node000003" class="edge">
<title>Node1&#45;&gt;Node3</title>
<g id="a_edge2_Node000001_Node000003"><a xlink:title=" ">
<path fill="none" stroke="#63b8ff" d="M590.02,-323.75C603.11,-314.13 618.43,-302.86 630.25,-294.16"/>
<polygon fill="#63b8ff" stroke="#63b8ff" points="587.79,-321.05 581.81,-329.8 591.94,-326.69 587.79,-321.05"/>
</a>
</g>
</g>
<!-- Node4 -->
<g id="Node000004" class="node">
<title>Node4</title>
<g id="a_Node000004"><a xlink:href="MemaMoComponent_8cpp.html" target="_top" xlink:title=" ">
<polygon fill="white" stroke="#666666" points="385.5,-24.5 197.5,-24.5 197.5,-5.5 385.5,-5.5 385.5,-24.5"/>
<text text-anchor="middle" x="291.5" y="-12.5" font-family="Helvetica,sans-Serif" font-size="10.00">MemaMo/MemaMoComponent.cpp</text>
</a>
</g>
</g>
<!-- Node3&#45;&gt;Node4 -->
<g id="edge3_Node000003_Node000004" class="edge">
<title>Node3&#45;&gt;Node4</title>
<g id="a_edge3_Node000003_Node000004"><a xlink:title=" ">
<path fill="none" stroke="#63b8ff" d="M568.9,-264.02C394.95,-240.34 307.56,-287.98 193.5,-162 162.24,-127.48 124.67,-104.07 151.5,-66 167.11,-43.85 193.47,-31.46 219.13,-24.55"/>
<polygon fill="#63b8ff" stroke="#63b8ff" points="568.47,-267.49 578.86,-265.44 569.46,-260.56 568.47,-267.49"/>
</a>
</g>
</g>
<!-- Node5 -->
<g id="Node000005" class="node">
<title>Node5</title>
<g id="a_Node000005"><a xlink:href="FaderbankControlComponent_8cpp.html" target="_top" xlink:title=" ">
<polygon fill="white" stroke="#666666" points="468.5,-228 286.5,-228 286.5,-198 468.5,-198 468.5,-228"/>
<text text-anchor="start" x="294.5" y="-216" font-family="Helvetica,sans-Serif" font-size="10.00">Source/MemaClientCommon</text>
<text text-anchor="middle" x="377.5" y="-205" font-family="Helvetica,sans-Serif" font-size="10.00">/FaderbankControlComponent.cpp</text>
</a>
</g>
</g>
<!-- Node3&#45;&gt;Node5 -->
<g id="edge4_Node000003_Node000005" class="edge">
<title>Node3&#45;&gt;Node5</title>
<g id="a_edge4_Node000003_Node000005"><a xlink:title=" ">
<path fill="none" stroke="#63b8ff" d="M580.01,-261.65C535.81,-251.25 479.18,-237.93 437.05,-228.01"/>
<polygon fill="#63b8ff" stroke="#63b8ff" points="579.27,-265.07 589.81,-263.95 580.88,-258.26 579.27,-265.07"/>
</a>
</g>
</g>
<!-- Node6 -->
<g id="Node000006" class="node">
<title>Node6</title>
<g id="a_Node000006"><a xlink:href="MemaClientCommon_2PluginControlComponent_8cpp.html" target="_top" xlink:title=" ">
<polygon fill="white" stroke="#666666" points="648,-228 487,-228 487,-198 648,-198 648,-228"/>
<text text-anchor="start" x="495" y="-216" font-family="Helvetica,sans-Serif" font-size="10.00">Source/MemaClientCommon</text>
<text text-anchor="middle" x="567.5" y="-205" font-family="Helvetica,sans-Serif" font-size="10.00">/PluginControlComponent.cpp</text>
</a>
</g>
</g>
<!-- Node3&#45;&gt;Node6 -->
<g id="edge5_Node000003_Node000006" class="edge">
<title>Node3&#45;&gt;Node6</title>
<g id="a_edge5_Node000003_Node000006"><a xlink:title=" ">
<path fill="none" stroke="#63b8ff" d="M623.21,-257.48C610.95,-247.91 596.68,-236.77 585.65,-228.16"/>
<polygon fill="#63b8ff" stroke="#63b8ff" points="621.26,-260.4 631.3,-263.8 625.57,-254.88 621.26,-260.4"/>
</a>
</g>
</g>
<!-- Node7 -->
<g id="Node000007" class="node">
<title>Node7</title>
<g id="a_Node000007"><a xlink:href="MemaProcessor_8h.html" target="_top" xlink:title=" ">
<polygon fill="white" stroke="#666666" points="797,-228 666,-228 666,-198 797,-198 797,-228"/>
<text text-anchor="start" x="674" y="-216" font-family="Helvetica,sans-Serif" font-size="10.00">Source/MemaProcessor</text>
<text text-anchor="middle" x="731.5" y="-205" font-family="Helvetica,sans-Serif" font-size="10.00">/MemaProcessor.h</text>
</a>
</g>
</g>
<!-- Node3&#45;&gt;Node7 -->
<g id="edge6_Node000003_Node000007" class="edge">
<title>Node3&#45;&gt;Node7</title>
<g id="a_edge6_Node000003_Node000007"><a xlink:title=" ">
<path fill="none" stroke="#63b8ff" d="M675.79,-257.48C688.05,-247.91 702.32,-236.77 713.35,-228.16"/>
<polygon fill="#63b8ff" stroke="#63b8ff" points="673.43,-254.88 667.7,-263.8 677.74,-260.4 673.43,-254.88"/>
</a>
</g>
</g>
<!-- Node30 -->
<g id="Node000030" class="node">
<title>Node30</title>
<g id="a_Node000030"><a xlink:href="ProcessorDataAnalyzer_8cpp.html" target="_top" xlink:title=" ">
<polygon fill="white" stroke="#666666" points="967.5,-228 815.5,-228 815.5,-198 967.5,-198 967.5,-228"/>
<text text-anchor="start" x="823.5" y="-216" font-family="Helvetica,sans-Serif" font-size="10.00">Source/MemaProcessor</text>
<text text-anchor="middle" x="891.5" y="-205" font-family="Helvetica,sans-Serif" font-size="10.00">/ProcessorDataAnalyzer.cpp</text>
</a>
</g>
</g>
<!-- Node3&#45;&gt;Node30 -->
<g id="edge39_Node000003_Node000030" class="edge">
<title>Node3&#45;&gt;Node30</title>
<g id="a_edge39_Node000003_Node000030"><a xlink:title=" ">
<path fill="none" stroke="#63b8ff" d="M712.32,-261.39C751.5,-251.03 801.35,-237.84 838.52,-228.01"/>
<polygon fill="#63b8ff" stroke="#63b8ff" points="711.38,-258.01 702.61,-263.95 713.17,-264.78 711.38,-258.01"/>
</a>
</g>
</g>
<!-- Node31 -->
<g id="Node000031" class="node">
<title>Node31</title>
<g id="a_Node000031"><a xlink:href="CrosspointsControlComponent_8h.html" target="_top" xlink:title=" ">
<polygon fill="white" stroke="#666666" points="1473,-228 1296,-228 1296,-198 1473,-198 1473,-228"/>
<text text-anchor="start" x="1304" y="-216" font-family="Helvetica,sans-Serif" font-size="10.00">Source/MemaProcessorEditor</text>
<text text-anchor="middle" x="1384.5" y="-205" font-family="Helvetica,sans-Serif" font-size="10.00">/CrosspointsControlComponent.h</text>
</a>
</g>
</g>
<!-- Node3&#45;&gt;Node31 -->
<g id="edge40_Node000003_Node000031" class="edge">
<title>Node3&#45;&gt;Node31</title>
<g id="a_edge40_Node000003_Node000031"><a xlink:title=" ">
<path fill="none" stroke="#63b8ff" d="M730.46,-270.95C869.37,-258.85 1152.02,-234.24 1295.97,-221.71"/>
<polygon fill="#63b8ff" stroke="#63b8ff" points="729.97,-267.48 720.31,-271.83 730.57,-274.45 729.97,-267.48"/>
</a>
</g>
</g>
<!-- Node7&#45;&gt;Node4 -->
<g id="edge7_Node000007_Node000004" class="edge">
<title>Node7&#45;&gt;Node4</title>
<g id="a_edge7_Node000007_Node000004"><a xlink:title=" ">
<path fill="none" stroke="#63b8ff" d="M655.6,-197.93C431.59,-161.05 299.68,-268.9 161.5,-96 132.96,-60.29 201.91,-36.38 249.92,-24.58"/>
<polygon fill="#63b8ff" stroke="#63b8ff" points="655.21,-201.42 665.66,-199.67 656.4,-194.52 655.21,-201.42"/>
</a>
</g>
</g>
<!-- Node8 -->
<g id="Node000008" class="node">
<title>Node8</title>
<g id="a_Node000008"><a xlink:href="MemaReComponent_8cpp.html" target="_top" xlink:title=" ">
<polygon fill="white" stroke="#666666" points="1094,-156.5 911,-156.5 911,-137.5 1094,-137.5 1094,-156.5"/>
<text text-anchor="middle" x="1002.5" y="-144.5" font-family="Helvetica,sans-Serif" font-size="10.00">MemaRe/MemaReComponent.cpp</text>
</a>
</g>
</g>
<!-- Node7&#45;&gt;Node8 -->
<g id="edge8_Node000007_Node000008" class="edge">
<title>Node7&#45;&gt;Node8</title>
<g id="a_edge8_Node000007_Node000008"><a xlink:title=" ">
<path fill="none" stroke="#63b8ff" d="M800.95,-195.6C853.78,-183.12 924.35,-166.46 966.43,-156.52"/>
<polygon fill="#63b8ff" stroke="#63b8ff" points="799.9,-192.25 790.97,-197.95 801.51,-199.06 799.9,-192.25"/>
</a>
</g>
</g>
<!-- Node9 -->
<g id="Node000009" class="node">
<title>Node9</title>
<g id="a_Node000009"><a xlink:href="HeadlessCLIMenu_8cpp.html" target="_top" xlink:title=" ">
<polygon fill="white" stroke="#666666" points="1272.5,-156.5 1112.5,-156.5 1112.5,-137.5 1272.5,-137.5 1272.5,-156.5"/>
<text text-anchor="middle" x="1192.5" y="-144.5" font-family="Helvetica,sans-Serif" font-size="10.00">Source/HeadlessCLIMenu.cpp</text>
</a>
</g>
</g>
<!-- Node7&#45;&gt;Node9 -->
<g id="edge9_Node000007_Node000009" class="edge">
<title>Node7&#45;&gt;Node9</title>
<g id="a_edge9_Node000007_Node000009"><a xlink:title=" ">
<path fill="none" stroke="#63b8ff" d="M807.39,-197.93C939.19,-177.93 974.43,-179.74 1102.5,-162 1114.56,-160.33 1127.51,-158.4 1139.72,-156.51"/>
<polygon fill="#63b8ff" stroke="#63b8ff" points="806.67,-194.5 797.31,-199.47 807.72,-201.42 806.67,-194.5"/>
</a>
</g>
</g>
<!-- Node10 -->
<g id="Node000010" class="node">
<title>Node10</title>
<g id="a_Node000010"><a xlink:href="Mema_8cpp.html" target="_top" xlink:title=" ">
<polygon fill="white" stroke="#666666" points="566.5,-156.5 462.5,-156.5 462.5,-137.5 566.5,-137.5 566.5,-156.5"/>
<text text-anchor="middle" x="514.5" y="-144.5" font-family="Helvetica,sans-Serif" font-size="10.00">Source/Mema.cpp</text>
</a>
</g>
</g>
<!-- Node7&#45;&gt;Node10 -->
<g id="edge10_Node000007_Node000010" class="edge">
<title>Node7&#45;&gt;Node10</title>
<g id="a_edge10_Node000007_Node000010"><a xlink:title=" ">
<path fill="none" stroke="#63b8ff" d="M674.03,-195.05C631.94,-182.64 576.59,-166.31 543.38,-156.52"/>
<polygon fill="#63b8ff" stroke="#63b8ff" points="673.3,-198.48 683.88,-197.95 675.28,-191.77 673.3,-198.48"/>
</a>
</g>
</g>
<!-- Node11 -->
<g id="Node000011" class="node">
<title>Node11</title>
<g id="a_Node000011"><a xlink:href="MemaProcessor_8cpp.html" target="_top" xlink:title=" ">
<polygon fill="white" stroke="#666666" points="716,-162 585,-162 585,-132 716,-132 716,-162"/>
<text text-anchor="start" x="593" y="-150" font-family="Helvetica,sans-Serif" font-size="10.00">Source/MemaProcessor</text>
<text text-anchor="middle" x="650.5" y="-139" font-family="Helvetica,sans-Serif" font-size="10.00">/MemaProcessor.cpp</text>
</a>
</g>
</g>
<!-- Node7&#45;&gt;Node11 -->
<g id="edge11_Node000007_Node000011" class="edge">
<title>Node7&#45;&gt;Node11</title>
<g id="a_edge11_Node000007_Node000011"><a xlink:title=" ">
<path fill="none" stroke="#63b8ff" d="M705.53,-191.48C693.42,-181.91 679.32,-170.77 668.43,-162.16"/>
<polygon fill="#63b8ff" stroke="#63b8ff" points="703.51,-194.34 713.52,-197.8 707.85,-188.85 703.51,-194.34"/>
</a>
</g>
</g>
<!-- Node12 -->
<g id="Node000012" class="node">
<title>Node12</title>
<g id="a_Node000012"><a xlink:href="AbstractAudioVisualizer_8h.html" target="_top" xlink:title=" ">
<polygon fill="white" stroke="#666666" points="893,-162 734,-162 734,-132 893,-132 893,-162"/>
<text text-anchor="start" x="742" y="-150" font-family="Helvetica,sans-Serif" font-size="10.00">Source/MemaProcessorEditor</text>
<text text-anchor="middle" x="813.5" y="-139" font-family="Helvetica,sans-Serif" font-size="10.00">/AbstractAudioVisualizer.h</text>
</a>
</g>
</g>
<!-- Node7&#45;&gt;Node12 -->
<g id="edge12_Node000007_Node000012" class="edge">
<title>Node7&#45;&gt;Node12</title>
<g id="a_edge12_Node000007_Node000012"><a xlink:title=" ">
<path fill="none" stroke="#63b8ff" d="M757.79,-191.48C770.05,-181.91 784.32,-170.77 795.35,-162.16"/>
<polygon fill="#63b8ff" stroke="#63b8ff" points="755.43,-188.88 749.7,-197.8 759.74,-194.4 755.43,-188.88"/>
</a>
</g>
</g>
<!-- Node13 -->
<g id="Node000013" class="node">
<title>Node13</title>
<g id="a_Node000013"><a xlink:href="SpectrumAudioComponent_8h.html" target="_top" xlink:title=" ">
<polygon fill="white" stroke="#666666" points="873,-96 714,-96 714,-66 873,-66 873,-96"/>
<text text-anchor="start" x="722" y="-84" font-family="Helvetica,sans-Serif" font-size="10.00">Source/MemaClientCommon</text>
<text text-anchor="middle" x="793.5" y="-73" font-family="Helvetica,sans-Serif" font-size="10.00">/SpectrumAudioComponent.h</text>
</a>
</g>
</g>
<!-- Node12&#45;&gt;Node13 -->
<g id="edge13_Node000012_Node000013" class="edge">
<title>Node12&#45;&gt;Node13</title>
<g id="a_edge13_Node000012_Node000013"><a xlink:title=" ">
<path fill="none" stroke="#63b8ff" d="M806.03,-122.11C803.31,-113.38 800.31,-103.78 797.93,-96.16"/>
<polygon fill="#63b8ff" stroke="#63b8ff" points="802.74,-123.3 809.06,-131.8 809.42,-121.21 802.74,-123.3"/>
</a>
</g>
</g>
<!-- Node15 -->
<g id="Node000015" class="node">
<title>Node15</title>
<g id="a_Node000015"><a xlink:href="TwoDFieldMultisliderComponent_8h.html" target="_top" xlink:title=" ">
<polygon fill="white" stroke="#666666" points="1720.5,-96 1534.5,-96 1534.5,-66 1720.5,-66 1720.5,-96"/>
<text text-anchor="start" x="1542.5" y="-84" font-family="Helvetica,sans-Serif" font-size="10.00">Source/MemaClientCommon</text>
<text text-anchor="middle" x="1627.5" y="-73" font-family="Helvetica,sans-Serif" font-size="10.00">/TwoDFieldMultisliderComponent.h</text>
</a>
</g>
</g>
<!-- Node12&#45;&gt;Node15 -->
<g id="edge16_Node000012_Node000015" class="edge">
<title>Node12&#45;&gt;Node15</title>
<g id="a_edge16_Node000012_Node000015"><a xlink:title=" ">
<path fill="none" stroke="#63b8ff" d="M903.18,-131.88C1162.59,-103.81 1230.71,-116.72 1487.5,-96 1502.6,-94.78 1518.59,-93.33 1534.16,-91.84"/>
<polygon fill="#63b8ff" stroke="#63b8ff" points="902.64,-128.42 893.08,-132.99 903.4,-135.38 902.64,-128.42"/>
</a>
</g>
</g>
<!-- Node18 -->
<g id="Node000018" class="node">
<title>Node18</title>
<g id="a_Node000018"><a xlink:href="TwoDFieldOutputComponent_8h.html" target="_top" xlink:title=" ">
<polygon fill="white" stroke="#666666" points="338,-96 171,-96 171,-66 338,-66 338,-96"/>
<text text-anchor="start" x="179" y="-84" font-family="Helvetica,sans-Serif" font-size="10.00">Source/MemaClientCommon</text>
<text text-anchor="middle" x="254.5" y="-73" font-family="Helvetica,sans-Serif" font-size="10.00">/TwoDFieldOutputComponent.h</text>
</a>
</g>
</g>
<!-- Node12&#45;&gt;Node18 -->
<g id="edge19_Node000012_Node000018" class="edge">
<title>Node12&#45;&gt;Node18</title>
<g id="a_edge19_Node000012_Node000018"><a xlink:title=" ">
<path fill="none" stroke="#63b8ff" d="M724,-131.99C555.38,-111.09 510.8,-116.31 346.5,-96 343.77,-95.66 341,-95.31 338.21,-94.94"/>
<polygon fill="#63b8ff" stroke="#63b8ff" points="723.6,-135.47 733.96,-133.24 724.47,-128.53 723.6,-135.47"/>
</a>
</g>
</g>
<!-- Node20 -->
<g id="Node000020" class="node">
<title>Node20</title>
<g id="a_Node000020"><a xlink:href="WaveformAudioComponent_8h.html" target="_top" xlink:title=" ">
<polygon fill="white" stroke="#666666" points="519,-96 356,-96 356,-66 519,-66 519,-96"/>
<text text-anchor="start" x="364" y="-84" font-family="Helvetica,sans-Serif" font-size="10.00">Source/MemaClientCommon</text>
<text text-anchor="middle" x="437.5" y="-73" font-family="Helvetica,sans-Serif" font-size="10.00">/WaveformAudioComponent.h</text>
</a>
</g>
</g>
<!-- Node12&#45;&gt;Node20 -->
<g id="edge22_Node000012_Node000020" class="edge">
<title>Node12&#45;&gt;Node20</title>
<g id="a_edge22_Node000012_Node000020"><a xlink:title=" ">
<path fill="none" stroke="#63b8ff" d="M723.57,-130.69C661.4,-120.11 579.35,-106.14 519.07,-95.88"/>
<polygon fill="#63b8ff" stroke="#63b8ff" points="723.31,-134.2 733.76,-132.43 724.49,-127.3 723.31,-134.2"/>
</a>
</g>
</g>
<!-- Node22 -->
<g id="Node000022" class="node">
<title>Node22</title>
<g id="a_Node000022"><a xlink:href="AbstractAudioVisualizer_8cpp.html" target="_top" xlink:title=" ">
<polygon fill="white" stroke="#666666" points="696,-96 537,-96 537,-66 696,-66 696,-96"/>
<text text-anchor="start" x="545" y="-84" font-family="Helvetica,sans-Serif" font-size="10.00">Source/MemaProcessorEditor</text>
<text text-anchor="middle" x="616.5" y="-73" font-family="Helvetica,sans-Serif" font-size="10.00">/AbstractAudioVisualizer.cpp</text>
</a>
</g>
</g>
<!-- Node12&#45;&gt;Node22 -->
<g id="edge25_Node000012_Node000022" class="edge">
<title>Node12&#45;&gt;Node22</title>
<g id="a_edge25_Node000012_Node000022"><a xlink:title=" ">
<path fill="none" stroke="#63b8ff" d="M760.73,-128.86C729.1,-118.58 689.38,-105.68 659.63,-96.01"/>
<polygon fill="#63b8ff" stroke="#63b8ff" points="759.68,-132.19 770.27,-131.95 761.84,-125.54 759.68,-132.19"/>
</a>
</g>
</g>
<!-- Node23 -->
<g id="Node000023" class="node">
<title>Node23</title>
<g id="a_Node000023"><a xlink:href="InputControlComponent_8cpp.html" target="_top" xlink:title=" ">
<polygon fill="white" stroke="#666666" points="1157,-30 998,-30 998,0 1157,0 1157,-30"/>
<text text-anchor="start" x="1006" y="-18" font-family="Helvetica,sans-Serif" font-size="10.00">Source/MemaProcessorEditor</text>
<text text-anchor="middle" x="1077.5" y="-7" font-family="Helvetica,sans-Serif" font-size="10.00">/InputControlComponent.cpp</text>
</a>
</g>
</g>
<!-- Node12&#45;&gt;Node23 -->
<g id="edge26_Node000012_Node000023" class="edge">
<title>Node12&#45;&gt;Node23</title>
<g id="a_edge26_Node000012_Node000023"><a xlink:title=" ">
<path fill="none" stroke="#63b8ff" d="M902.53,-130.15C970.21,-117.73 1052.68,-101.64 1058.5,-96 1076.34,-78.72 1078.71,-47.97 1078.39,-30.05"/>
<polygon fill="#63b8ff" stroke="#63b8ff" points="901.87,-126.71 892.67,-131.95 903.13,-133.59 901.87,-126.71"/>
</a>
</g>
</g>
<!-- Node24 -->
<g id="Node000024" class="node">
<title>Node24</title>
<g id="a_Node000024"><a xlink:href="InputControlComponent_8h.html" target="_top" xlink:title=" ">
<polygon fill="white" stroke="#666666" points="1302,-96 1143,-96 1143,-66 1302,-66 1302,-96"/>
<text text-anchor="start" x="1151" y="-84" font-family="Helvetica,sans-Serif" font-size="10.00">Source/MemaProcessorEditor</text>
<text text-anchor="middle" x="1222.5" y="-73" font-family="Helvetica,sans-Serif" font-size="10.00">/InputControlComponent.h</text>
</a>
</g>
</g>
<!-- Node12&#45;&gt;Node24 -->
<g id="edge27_Node000012_Node000024" class="edge">
<title>Node12&#45;&gt;Node24</title>
<g id="a_edge27_Node000012_Node000024"><a xlink:title=" ">
<path fill="none" stroke="#63b8ff" d="M903.22,-131.73C990.62,-117.98 1080.13,-104.06 1142.68,-94.36"/>
<polygon fill="#63b8ff" stroke="#63b8ff" points="902.46,-128.31 893.12,-133.32 903.55,-135.22 902.46,-128.31"/>
</a>
</g>
</g>
<!-- Node26 -->
<g id="Node000026" class="node">
<title>Node26</title>
<g id="a_Node000026"><a xlink:href="MeterbridgeComponent_8h.html" target="_top" xlink:title=" ">
<polygon fill="white" stroke="#666666" points="1050,-96 891,-96 891,-66 1050,-66 1050,-96"/>
<text text-anchor="start" x="899" y="-84" font-family="Helvetica,sans-Serif" font-size="10.00">Source/MemaProcessorEditor</text>
<text text-anchor="middle" x="970.5" y="-73" font-family="Helvetica,sans-Serif" font-size="10.00">/MeterbridgeComponent.h</text>
</a>
</g>
</g>
<!-- Node12&#45;&gt;Node26 -->
<g id="edge30_Node000012_Node000026" class="edge">
<title>Node12&#45;&gt;Node26</title>
<g id="a_edge30_Node000012_Node000026"><a xlink:title=" ">
<path fill="none" stroke="#63b8ff" d="M857.52,-128.05C882.4,-117.91 913.03,-105.43 936.13,-96.01"/>
<polygon fill="#63b8ff" stroke="#63b8ff" points="855.89,-124.94 847.95,-131.95 858.54,-131.42 855.89,-124.94"/>
</a>
</g>
</g>
<!-- Node28 -->
<g id="Node000028" class="node">
<title>Node28</title>
<g id="a_Node000028"><a xlink:href="OutputControlComponent_8cpp.html" target="_top" xlink:title=" ">
<polygon fill="white" stroke="#666666" points="1339.5,-30 1175.5,-30 1175.5,0 1339.5,0 1339.5,-30"/>
<text text-anchor="start" x="1183.5" y="-18" font-family="Helvetica,sans-Serif" font-size="10.00">Source/MemaProcessorEditor</text>
<text text-anchor="middle" x="1257.5" y="-7" font-family="Helvetica,sans-Serif" font-size="10.00">/OutputControlComponent.cpp</text>
</a>
</g>
</g>
<!-- Node12&#45;&gt;Node28 -->
<g id="edge35_Node000012_Node000028" class="edge">
<title>Node12&#45;&gt;Node28</title>
<g id="a_edge35_Node000012_Node000028"><a xlink:title=" ">
<path fill="none" stroke="#63b8ff" d="M903.1,-130.72C974,-118.38 1063.79,-102.1 1080.5,-96 1105.93,-86.72 1109.12,-77.75 1133.5,-66 1161.52,-52.49 1194.18,-39.43 1218.95,-30.04"/>
<polygon fill="#63b8ff" stroke="#63b8ff" points="902.49,-127.28 893.23,-132.44 903.68,-134.17 902.49,-127.28"/>
</a>
</g>
</g>
<!-- Node29 -->
<g id="Node000029" class="node">
<title>Node29</title>
<g id="a_Node000029"><a xlink:href="OutputControlComponent_8h.html" target="_top" xlink:title=" ">
<polygon fill="white" stroke="#666666" points="1479,-96 1320,-96 1320,-66 1479,-66 1479,-96"/>
<text text-anchor="start" x="1328" y="-84" font-family="Helvetica,sans-Serif" font-size="10.00">Source/MemaProcessorEditor</text>
<text text-anchor="middle" x="1399.5" y="-73" font-family="Helvetica,sans-Serif" font-size="10.00">/OutputControlComponent.h</text>
</a>
</g>
</g>
<!-- Node12&#45;&gt;Node29 -->
<g id="edge36_Node000012_Node000029" class="edge">
<title>Node12&#45;&gt;Node29</title>
<g id="a_edge36_Node000012_Node000029"><a xlink:title=" ">
<path fill="none" stroke="#63b8ff" d="M903.22,-131.84C1084.34,-109.95 1132.65,-117.79 1310.5,-96 1313.61,-95.62 1316.77,-95.21 1319.96,-94.79"/>
<polygon fill="#63b8ff" stroke="#63b8ff" points="902.59,-128.39 893.09,-133.08 903.44,-135.34 902.59,-128.39"/>
</a>
</g>
</g>
<!-- Node13&#45;&gt;Node4 -->
<g id="edge14_Node000013_Node000004" class="edge">
<title>Node13&#45;&gt;Node4</title>
<g id="a_edge14_Node000013_Node000004"><a xlink:title=" ">
<path fill="none" stroke="#63b8ff" d="M703.8,-65.94C565.38,-47.22 528.89,-46.93 394.5,-30 380.98,-28.3 366.48,-26.38 352.75,-24.52"/>
<polygon fill="#63b8ff" stroke="#63b8ff" points="703.57,-69.44 713.95,-67.32 704.51,-62.51 703.57,-69.44"/>
</a>
</g>
</g>
<!-- Node14 -->
<g id="Node000014" class="node">
<title>Node14</title>
<g id="a_Node000014"><a xlink:href="SpectrumAudioComponent_8cpp.html" target="_top" xlink:title=" ">
<polygon fill="white" stroke="#666666" points="802.5,-30 632.5,-30 632.5,0 802.5,0 802.5,-30"/>
<text text-anchor="start" x="640.5" y="-18" font-family="Helvetica,sans-Serif" font-size="10.00">Source/MemaClientCommon</text>
<text text-anchor="middle" x="717.5" y="-7" font-family="Helvetica,sans-Serif" font-size="10.00">/SpectrumAudioComponent.cpp</text>
</a>
</g>
</g>
<!-- Node13&#45;&gt;Node14 -->
<g id="edge15_Node000013_Node000014" class="edge">
<title>Node13&#45;&gt;Node14</title>
<g id="a_edge15_Node000013_Node000014"><a xlink:title=" ">
<path fill="none" stroke="#63b8ff" d="M768.8,-59.2C757.52,-49.7 744.45,-38.69 734.32,-30.16"/>
<polygon fill="#63b8ff" stroke="#63b8ff" points="766.73,-62.03 776.63,-65.8 771.24,-56.68 766.73,-62.03"/>
</a>
</g>
</g>
<!-- Node16 -->
<g id="Node000016" class="node">
<title>Node16</title>
<g id="a_Node000016"><a xlink:href="PanningControlComponent_8cpp.html" target="_top" xlink:title=" ">
<polygon fill="white" stroke="#666666" points="1709.5,-30 1539.5,-30 1539.5,0 1709.5,0 1709.5,-30"/>
<text text-anchor="start" x="1547.5" y="-18" font-family="Helvetica,sans-Serif" font-size="10.00">Source/MemaClientCommon</text>
<text text-anchor="middle" x="1624.5" y="-7" font-family="Helvetica,sans-Serif" font-size="10.00">/PanningControlComponent.cpp</text>
</a>
</g>
</g>
<!-- Node15&#45;&gt;Node16 -->
<g id="edge17_Node000015_Node000016" class="edge">
<title>Node15&#45;&gt;Node16</title>
<g id="a_edge17_Node000015_Node000016"><a xlink:title=" ">
<path fill="none" stroke="#63b8ff" d="M1626.35,-55.54C1625.95,-46.96 1625.51,-37.61 1625.16,-30.16"/>
<polygon fill="#63b8ff" stroke="#63b8ff" points="1622.87,-55.97 1626.83,-65.8 1629.86,-55.64 1622.87,-55.97"/>
</a>
</g>
</g>
<!-- Node17 -->
<g id="Node000017" class="node">
<title>Node17</title>
<g id="a_Node000017"><a xlink:href="TwoDFieldMultisliderComponent_8cpp.html" target="_top" xlink:title=" ">
<polygon fill="white" stroke="#666666" points="1925,-30 1728,-30 1728,0 1925,0 1925,-30"/>
<text text-anchor="start" x="1736" y="-18" font-family="Helvetica,sans-Serif" font-size="10.00">Source/MemaClientCommon</text>
<text text-anchor="middle" x="1826.5" y="-7" font-family="Helvetica,sans-Serif" font-size="10.00">/TwoDFieldMultisliderComponent.cpp</text>
</a>
</g>
</g>
<!-- Node15&#45;&gt;Node17 -->
<g id="edge18_Node000015_Node000017" class="edge">
<title>Node15&#45;&gt;Node17</title>
<g id="a_edge18_Node000015_Node000017"><a xlink:title=" ">
<path fill="none" stroke="#63b8ff" d="M1680.81,-62.86C1712.76,-52.58 1752.88,-39.68 1782.93,-30.01"/>
<polygon fill="#63b8ff" stroke="#63b8ff" points="1679.62,-59.56 1671.17,-65.95 1681.76,-66.23 1679.62,-59.56"/>
</a>
</g>
</g>
<!-- Node18&#45;&gt;Node4 -->
<g id="edge20_Node000018_Node000004" class="edge">
<title>Node18&#45;&gt;Node4</title>
<g id="a_edge20_Node000018_Node000004"><a xlink:title=" ">
<path fill="none" stroke="#63b8ff" d="M267.83,-56.95C274.26,-45.81 281.61,-33.11 286.39,-24.84"/>
<polygon fill="#63b8ff" stroke="#63b8ff" points="264.69,-55.39 262.71,-65.8 270.75,-58.89 264.69,-55.39"/>
</a>
</g>
</g>
<!-- Node19 -->
<g id="Node000019" class="node">
<title>Node19</title>
<g id="a_Node000019"><a xlink:href="TwoDFieldOutputComponent_8cpp.html" target="_top" xlink:title=" ">
<polygon fill="white" stroke="#666666" points="179,-30 0,-30 0,0 179,0 179,-30"/>
<text text-anchor="start" x="8" y="-18" font-family="Helvetica,sans-Serif" font-size="10.00">Source/MemaClientCommon</text>
<text text-anchor="middle" x="89.5" y="-7" font-family="Helvetica,sans-Serif" font-size="10.00">/TwoDFieldOutputComponent.cpp</text>
</a>
</g>
</g>
<!-- Node18&#45;&gt;Node19 -->
<g id="edge21_Node000018_Node000019" class="edge">
<title>Node18&#45;&gt;Node19</title>
<g id="a_edge21_Node000018_Node000019"><a xlink:title=" ">
<path fill="none" stroke="#63b8ff" d="M208.93,-62.32C182.66,-52.14 150.11,-39.51 125.63,-30.01"/>
<polygon fill="#63b8ff" stroke="#63b8ff" points="207.7,-65.6 218.29,-65.95 210.23,-59.08 207.7,-65.6"/>
</a>
</g>
</g>
<!-- Node20&#45;&gt;Node4 -->
<g id="edge23_Node000020_Node000004" class="edge">
<title>Node20&#45;&gt;Node4</title>
<g id="a_edge23_Node000020_Node000004"><a xlink:title=" ">
<path fill="none" stroke="#63b8ff" d="M395.94,-61.78C368.02,-49.54 332.52,-33.98 310.93,-24.52"/>
<polygon fill="#63b8ff" stroke="#63b8ff" points="394.9,-65.15 405.46,-65.95 397.71,-58.73 394.9,-65.15"/>
</a>
</g>
</g>
<!-- Node21 -->
<g id="Node000021" class="node">
<title>Node21</title>
<g id="a_Node000021"><a xlink:href="WaveformAudioComponent_8cpp.html" target="_top" xlink:title=" ">
<polygon fill="white" stroke="#666666" points="577.5,-30 403.5,-30 403.5,0 577.5,0 577.5,-30"/>
<text text-anchor="start" x="411.5" y="-18" font-family="Helvetica,sans-Serif" font-size="10.00">Source/MemaClientCommon</text>
<text text-anchor="middle" x="490.5" y="-7" font-family="Helvetica,sans-Serif" font-size="10.00">/WaveformAudioComponent.cpp</text>
</a>
</g>
</g>
<!-- Node20&#45;&gt;Node21 -->
<g id="edge24_Node000020_Node000021" class="edge">
<title>Node20&#45;&gt;Node21</title>
<g id="a_edge24_Node000020_Node000021"><a xlink:title=" ">
<path fill="none" stroke="#63b8ff" d="M455.65,-58.09C463.3,-48.85 471.98,-38.36 478.77,-30.16"/>
<polygon fill="#63b8ff" stroke="#63b8ff" points="452.94,-55.86 449.26,-65.8 458.34,-60.33 452.94,-55.86"/>
</a>
</g>
</g>
<!-- Node24&#45;&gt;Node23 -->
<g id="edge28_Node000024_Node000023" class="edge">
<title>Node24&#45;&gt;Node23</title>
<g id="a_edge28_Node000024_Node000023"><a xlink:title=" ">
<path fill="none" stroke="#63b8ff" d="M1181.23,-61.78C1158.37,-51.69 1130.38,-39.34 1109.25,-30.01"/>
<polygon fill="#63b8ff" stroke="#63b8ff" points="1180.12,-65.12 1190.68,-65.95 1182.94,-58.71 1180.12,-65.12"/>
</a>
</g>
</g>
<!-- Node25 -->
<g id="Node000025" class="node">
<title>Node25</title>
<g id="a_Node000025"><a xlink:href="MemaProcessorEditor_8cpp.html" target="_top" xlink:title=" ">
<polygon fill="white" stroke="#666666" points="1517,-30 1358,-30 1358,0 1517,0 1517,-30"/>
<text text-anchor="start" x="1366" y="-18" font-family="Helvetica,sans-Serif" font-size="10.00">Source/MemaProcessorEditor</text>
<text text-anchor="middle" x="1437.5" y="-7" font-family="Helvetica,sans-Serif" font-size="10.00">/MemaProcessorEditor.cpp</text>
</a>
</g>
</g>
<!-- Node24&#45;&gt;Node25 -->
<g id="edge29_Node000024_Node000025" class="edge">
<title>Node24&#45;&gt;Node25</title>
<g id="a_edge29_Node000024_Node000025"><a xlink:title=" ">
<path fill="none" stroke="#63b8ff" d="M1279.65,-62.99C1314.24,-52.69 1357.83,-39.72 1390.43,-30.01"/>
<polygon fill="#63b8ff" stroke="#63b8ff" points="1278.27,-59.75 1269.68,-65.95 1280.27,-66.46 1278.27,-59.75"/>
</a>
</g>
</g>
<!-- Node26&#45;&gt;Node4 -->
<g id="edge31_Node000026_Node000004" class="edge">
<title>Node26&#45;&gt;Node4</title>
<g id="a_edge31_Node000026_Node000004"><a xlink:title=" ">
<path fill="none" stroke="#63b8ff" d="M880.86,-66C664.18,-41.46 607.09,-52.28 394.5,-30 379.87,-28.47 364.12,-26.49 349.44,-24.51"/>
<polygon fill="#63b8ff" stroke="#63b8ff" points="880.63,-69.5 890.97,-67.16 881.43,-62.54 880.63,-69.5"/>
</a>
</g>
</g>
<!-- Node26&#45;&gt;Node23 -->
<g id="edge32_Node000026_Node000023" class="edge">
<title>Node26&#45;&gt;Node23</title>
<g id="a_edge32_Node000026_Node000023"><a xlink:title=" ">
<path fill="none" stroke="#63b8ff" d="M1002.78,-60.69C1019.29,-50.82 1039.03,-39.01 1054.07,-30.01"/>
<polygon fill="#63b8ff" stroke="#63b8ff" points="1000.77,-57.82 993.98,-65.95 1004.36,-63.83 1000.77,-57.82"/>
</a>
</g>
</g>
<!-- Node27 -->
<g id="Node000027" class="node">
<title>Node27</title>
<g id="a_Node000027"><a xlink:href="MeterbridgeComponent_8cpp.html" target="_top" xlink:title=" ">
<polygon fill="white" stroke="#666666" points="980,-30 821,-30 821,0 980,0 980,-30"/>
<text text-anchor="start" x="829" y="-18" font-family="Helvetica,sans-Serif" font-size="10.00">Source/MemaProcessorEditor</text>
<text text-anchor="middle" x="900.5" y="-7" font-family="Helvetica,sans-Serif" font-size="10.00">/MeterbridgeComponent.cpp</text>
</a>
</g>
</g>
<!-- Node26&#45;&gt;Node27 -->
<g id="edge33_Node000026_Node000027" class="edge">
<title>Node26&#45;&gt;Node27</title>
<g id="a_edge33_Node000026_Node000027"><a xlink:title=" ">
<path fill="none" stroke="#63b8ff" d="M947.45,-58.92C937.13,-49.49 925.23,-38.61 915.99,-30.16"/>
<polygon fill="#63b8ff" stroke="#63b8ff" points="945.22,-61.63 954.96,-65.8 949.95,-56.47 945.22,-61.63"/>
</a>
</g>
</g>
<!-- Node26&#45;&gt;Node28 -->
<g id="edge34_Node000026_Node000028" class="edge">
<title>Node26&#45;&gt;Node28</title>
<g id="a_edge34_Node000026_Node000028"><a xlink:title=" ">
<path fill="none" stroke="#63b8ff" d="M1043.53,-63.71C1090.21,-53.31 1150.12,-39.95 1194.66,-30.01"/>
<polygon fill="#63b8ff" stroke="#63b8ff" points="1042.48,-60.36 1033.48,-65.95 1044.01,-67.19 1042.48,-60.36"/>
</a>
</g>
</g>
<!-- Node29&#45;&gt;Node25 -->
<g id="edge37_Node000029_Node000025" class="edge">
<title>Node29&#45;&gt;Node25</title>
<g id="a_edge37_Node000029_Node000025"><a xlink:title=" ">
<path fill="none" stroke="#63b8ff" d="M1413.18,-56.96C1418.5,-48 1424.42,-38.03 1429.09,-30.16"/>
<polygon fill="#63b8ff" stroke="#63b8ff" points="1410.03,-55.41 1407.93,-65.8 1416.05,-58.98 1410.03,-55.41"/>
</a>
</g>
</g>
<!-- Node29&#45;&gt;Node28 -->
<g id="edge38_Node000029_Node000028" class="edge">
<title>Node29&#45;&gt;Node28</title>
<g id="a_edge38_Node000029_Node000028"><a xlink:title=" ">
<path fill="none" stroke="#63b8ff" d="M1359.08,-61.78C1336.7,-51.69 1309.29,-39.34 1288.59,-30.01"/>
<polygon fill="#63b8ff" stroke="#63b8ff" points="1357.78,-65.04 1368.34,-65.95 1360.66,-58.65 1357.78,-65.04"/>
</a>
</g>
</g>
<!-- Node31&#45;&gt;Node25 -->
<g id="edge42_Node000031_Node000025" class="edge">
<title>Node31&#45;&gt;Node25</title>
<g id="a_edge42_Node000031_Node000025"><a xlink:title=" ">
<path fill="none" stroke="#63b8ff" d="M1449.7,-193.69C1464.62,-186.31 1478.68,-176.09 1487.5,-162 1510.14,-125.84 1503.83,-105.42 1487.5,-66 1481.49,-51.48 1468.99,-38.98 1457.99,-30.11"/>
<polygon fill="#63b8ff" stroke="#63b8ff" points="1448.01,-190.61 1440.34,-197.92 1450.89,-196.99 1448.01,-190.61"/>
</a>
</g>
</g>
<!-- Node32 -->
<g id="Node000032" class="node">
<title>Node32</title>
<g id="a_Node000032"><a xlink:href="CrosspointsControlComponent_8cpp.html" target="_top" xlink:title=" ">
<polygon fill="white" stroke="#666666" points="1478.5,-162 1290.5,-162 1290.5,-132 1478.5,-132 1478.5,-162"/>
<text text-anchor="start" x="1298.5" y="-150" font-family="Helvetica,sans-Serif" font-size="10.00">Source/MemaProcessorEditor</text>
<text text-anchor="middle" x="1384.5" y="-139" font-family="Helvetica,sans-Serif" font-size="10.00">/CrosspointsControlComponent.cpp</text>
</a>
</g>
</g>
<!-- Node31&#45;&gt;Node32 -->
<g id="edge41_Node000031_Node000032" class="edge">
<title>Node31&#45;&gt;Node32</title>
<g id="a_edge41_Node000031_Node000032"><a xlink:title=" ">
<path fill="none" stroke="#63b8ff" d="M1384.5,-187.54C1384.5,-178.96 1384.5,-169.61 1384.5,-162.16"/>
<polygon fill="#63b8ff" stroke="#63b8ff" points="1381,-187.8 1384.5,-197.8 1388,-187.8 1381,-187.8"/>
</a>
</g>
</g>
</g>
</svg>
