<?xml version="1.0" encoding="UTF-8" standalone="no"?>
<!DOCTYPE svg PUBLIC "-//W3C//DTD SVG 1.1//EN"
 "http://www.w3.org/Graphics/SVG/1.1/DTD/svg11.dtd">
<!-- Generated by graphviz version 2.43.0 (0)
 -->
<!-- Title: Source/MemaProcessor/ProcessorDataAnalyzer.h Pages: 1 -->
<svg width="480pt" height="203pt"
 viewBox="0.00 0.00 480.23 203.00" xmlns="http://www.w3.org/2000/svg" xmlns:xlink="http://www.w3.org/1999/xlink">

<svg id="main" version="1.1" xmlns="http://www.w3.org/2000/svg" xmlns:xlink="http://www.w3.org/1999/xlink" xml:space="preserve" onload="init(evt)">
<style type="text/css"><![CDATA[
.node, .edge {opacity: 0.7;}
.node.selected, .edge.selected {opacity: 1;}
.edge:hover path { stroke: red; }
.edge:hover polygon { stroke: red; fill: red; }
]]></style>
<script type="application/ecmascript" xlink:href="svg.min.js"/>
<svg id="graph" class="graph">
<g id="graph0" class="graph" transform="scale(1 1) rotate(0) translate(4 199)">
<title>Source/MemaProcessor/ProcessorDataAnalyzer.h</title>
<!-- Node1 -->
<g id="Node000001" class="node">
<title>Node1</title>
<g id="a_Node000001"><a xlink:title=" ">
<polygon fill="#999999" stroke="#666666" points="242.23,-195 101.23,-195 101.23,-165 242.23,-165 242.23,-195"/>
<text text-anchor="start" x="109.23" y="-183" font-family="Helvetica,sans-Serif" font-size="10.00">Source/MemaProcessor</text>
<text text-anchor="middle" x="171.73" y="-172" font-family="Helvetica,sans-Serif" font-size="10.00">/ProcessorDataAnalyzer.h</text>
</a>
</g>
</g>
<!-- Node2 -->
<g id="Node000002" class="node">
<title>Node2</title>
<g id="a_Node000002"><a xlink:title=" ">
<polygon fill="#e0e0e0" stroke="#999999" points="133.73,-19 53.73,-19 53.73,0 133.73,0 133.73,-19"/>
<text text-anchor="middle" x="93.73" y="-7" font-family="Helvetica,sans-Serif" font-size="10.00">JuceHeader.h</text>
</a>
</g>
</g>
<!-- Node1&#45;&gt;Node2 -->
<g id="edge1_Node000001_Node000002" class="edge">
<title>Node1&#45;&gt;Node2</title>
<g id="a_edge1_Node000001_Node000002"><a xlink:title=" ">
<path fill="none" stroke="#63b8ff" d="M100.9,-176.1C66.98,-170.7 29.17,-157.94 7.73,-129 -20.04,-91.5 36.26,-46.84 70.32,-24.58"/>
<polygon fill="#63b8ff" stroke="#63b8ff" points="72.28,-27.48 78.85,-19.17 68.53,-21.57 72.28,-27.48"/>
</a>
</g>
</g>
<!-- Node3 -->
<g id="Node000003" class="node">
<title>Node3</title>
<g id="a_Node000003"><a xlink:href="ProcessorAudioSignalData_8h.html" target="_top" xlink:title=" ">
<polygon fill="white" stroke="#666666" points="170.73,-129 16.73,-129 16.73,-110 170.73,-110 170.73,-129"/>
<text text-anchor="middle" x="93.73" y="-117" font-family="Helvetica,sans-Serif" font-size="10.00">ProcessorAudioSignalData.h</text>
</a>
</g>
</g>
<!-- Node1&#45;&gt;Node3 -->
<g id="edge2_Node000001_Node000003" class="edge">
<title>Node1&#45;&gt;Node3</title>
<g id="a_edge2_Node000001_Node000003"><a xlink:title=" ">
<path fill="none" stroke="#63b8ff" d="M152.85,-164.84C140.95,-155.91 125.61,-144.41 113.54,-135.35"/>
<polygon fill="#63b8ff" stroke="#63b8ff" points="115.52,-132.47 105.42,-129.27 111.32,-138.07 115.52,-132.47"/>
</a>
</g>
</g>
<!-- Node5 -->
<g id="Node000005" class="node">
<title>Node5</title>
<g id="a_Node000005"><a xlink:href="ProcessorLevelData_8h.html" target="_top" xlink:title=" ">
<polygon fill="white" stroke="#666666" points="310.73,-129 188.73,-129 188.73,-110 310.73,-110 310.73,-129"/>
<text text-anchor="middle" x="249.73" y="-117" font-family="Helvetica,sans-Serif" font-size="10.00">ProcessorLevelData.h</text>
</a>
</g>
</g>
<!-- Node1&#45;&gt;Node5 -->
<g id="edge6_Node000001_Node000005" class="edge">
<title>Node1&#45;&gt;Node5</title>
<g id="a_edge6_Node000001_Node000005"><a xlink:title=" ">
<path fill="none" stroke="#63b8ff" d="M190.62,-164.84C202.52,-155.91 217.86,-144.41 229.93,-135.35"/>
<polygon fill="#63b8ff" stroke="#63b8ff" points="232.15,-138.07 238.05,-129.27 227.95,-132.47 232.15,-138.07"/>
</a>
</g>
</g>
<!-- Node6 -->
<g id="Node000006" class="node">
<title>Node6</title>
<g id="a_Node000006"><a xlink:href="ProcessorSpectrumData_8h.html" target="_top" xlink:title=" ">
<polygon fill="white" stroke="#666666" points="472.23,-129 329.23,-129 329.23,-110 472.23,-110 472.23,-129"/>
<text text-anchor="middle" x="400.73" y="-117" font-family="Helvetica,sans-Serif" font-size="10.00">ProcessorSpectrumData.h</text>
</a>
</g>
</g>
<!-- Node1&#45;&gt;Node6 -->
<g id="edge8_Node000001_Node000006" class="edge">
<title>Node1&#45;&gt;Node6</title>
<g id="a_edge8_Node000001_Node000006"><a xlink:title=" ">
<path fill="none" stroke="#63b8ff" d="M226.59,-164.99C266.62,-154.76 320.15,-141.09 357.25,-131.61"/>
<polygon fill="#63b8ff" stroke="#63b8ff" points="358.43,-134.92 367.25,-129.05 356.7,-128.14 358.43,-134.92"/>
</a>
</g>
</g>
<!-- Node3&#45;&gt;Node2 -->
<g id="edge3_Node000003_Node000002" class="edge">
<title>Node3&#45;&gt;Node2</title>
<g id="a_edge3_Node000003_Node000002"><a xlink:title=" ">
<path fill="none" stroke="#63b8ff" d="M93.73,-109.66C93.73,-92.17 93.73,-52.8 93.73,-29.27"/>
<polygon fill="#63b8ff" stroke="#63b8ff" points="97.23,-29.16 93.73,-19.16 90.23,-29.16 97.23,-29.16"/>
</a>
</g>
</g>
<!-- Node4 -->
<g id="Node000004" class="node">
<title>Node4</title>
<g id="a_Node000004"><a xlink:href="AbstractProcessorData_8h.html" target="_top" xlink:title=" ">
<polygon fill="white" stroke="#666666" points="288.23,-74 151.23,-74 151.23,-55 288.23,-55 288.23,-74"/>
<text text-anchor="middle" x="219.73" y="-62" font-family="Helvetica,sans-Serif" font-size="10.00">AbstractProcessorData.h</text>
</a>
</g>
</g>
<!-- Node3&#45;&gt;Node4 -->
<g id="edge4_Node000003_Node000004" class="edge">
<title>Node3&#45;&gt;Node4</title>
<g id="a_edge4_Node000003_Node000004"><a xlink:title=" ">
<path fill="none" stroke="#63b8ff" d="M113.98,-109.98C134.43,-101.38 166.27,-87.99 189.67,-78.15"/>
<polygon fill="#63b8ff" stroke="#63b8ff" points="191.26,-81.27 199.12,-74.17 188.55,-74.82 191.26,-81.27"/>
</a>
</g>
</g>
<!-- Node4&#45;&gt;Node2 -->
<g id="edge5_Node000004_Node000002" class="edge">
<title>Node4&#45;&gt;Node2</title>
<g id="a_edge5_Node000004_Node000002"><a xlink:title=" ">
<path fill="none" stroke="#63b8ff" d="M199.49,-54.98C179.04,-46.38 147.2,-32.99 123.8,-23.15"/>
<polygon fill="#63b8ff" stroke="#63b8ff" points="124.92,-19.82 114.35,-19.17 122.21,-26.27 124.92,-19.82"/>
</a>
</g>
</g>
<!-- Node5&#45;&gt;Node4 -->
<g id="edge7_Node000005_Node000004" class="edge">
<title>Node5&#45;&gt;Node4</title>
<g id="a_edge7_Node000005_Node000004"><a xlink:title=" ">
<path fill="none" stroke="#63b8ff" d="M244.78,-109.75C240.67,-102.49 234.71,-91.95 229.63,-82.98"/>
<polygon fill="#63b8ff" stroke="#63b8ff" points="232.57,-81.07 224.6,-74.09 226.48,-84.52 232.57,-81.07"/>
</a>
</g>
</g>
<!-- Node6&#45;&gt;Node4 -->
<g id="edge9_Node000006_Node000004" class="edge">
<title>Node6&#45;&gt;Node4</title>
<g id="a_edge9_Node000006_Node000004"><a xlink:title=" ">
<path fill="none" stroke="#63b8ff" d="M371.65,-109.98C341.13,-101.05 292.97,-86.94 259.07,-77.02"/>
<polygon fill="#63b8ff" stroke="#63b8ff" points="259.62,-73.53 249.04,-74.08 257.66,-80.25 259.62,-73.53"/>
</a>
</g>
</g>
</g>
</svg>
</svg>

<style type='text/css'>
<![CDATA[
[data-mouse-over-selected='false'] { opacity: 0.7; }
[data-mouse-over-selected='true']  { opacity: 1.0; }
]]>
</style>
<script type="application/ecmascript"><![CDATA[
document.addEventListener('DOMContentLoaded', (event) => {
  highlightEdges();
  highlightAdjacentNodes();
});
]]></script>
</svg>
