<?xml version="1.0" encoding="UTF-8" standalone="no"?>
<!DOCTYPE svg PUBLIC "-//W3C//DTD SVG 1.1//EN"
 "http://www.w3.org/Graphics/SVG/1.1/DTD/svg11.dtd">
<!-- Generated by graphviz version 2.43.0 (0)
 -->
<!-- Title: Source/MemaProcessor/ProcessorDataAnalyzer.cpp Pages: 1 -->
<svg width="480pt" height="258pt"
 viewBox="0.00 0.00 480.46 258.00" xmlns="http://www.w3.org/2000/svg" xmlns:xlink="http://www.w3.org/1999/xlink">
<g id="graph0" class="graph" transform="scale(1 1) rotate(0) translate(4 254)">
<title>Source/MemaProcessor/ProcessorDataAnalyzer.cpp</title>
<!-- Node1 -->
<g id="Node000001" class="node">
<title>Node1</title>
<g id="a_Node000001"><a xlink:title=" ">
<polygon fill="#999999" stroke="#666666" points="247.96,-250 95.96,-250 95.96,-220 247.96,-220 247.96,-250"/>
<text text-anchor="start" x="103.96" y="-238" font-family="Helvetica,sans-Serif" font-size="10.00">Source/MemaProcessor</text>
<text text-anchor="middle" x="171.96" y="-227" font-family="Helvetica,sans-Serif" font-size="10.00">/ProcessorDataAnalyzer.cpp</text>
</a>
</g>
</g>
<!-- Node2 -->
<g id="Node000002" class="node">
<title>Node2</title>
<g id="a_Node000002"><a xlink:href="ProcessorDataAnalyzer_8h.html" target="_top" xlink:title=" ">
<polygon fill="white" stroke="#666666" points="240.96,-184 102.96,-184 102.96,-165 240.96,-165 240.96,-184"/>
<text text-anchor="middle" x="171.96" y="-172" font-family="Helvetica,sans-Serif" font-size="10.00">ProcessorDataAnalyzer.h</text>
</a>
</g>
</g>
<!-- Node1&#45;&gt;Node2 -->
<g id="edge1_Node000001_Node000002" class="edge">
<title>Node1&#45;&gt;Node2</title>
<g id="a_edge1_Node000001_Node000002"><a xlink:title=" ">
<path fill="none" stroke="#63b8ff" d="M171.96,-219.84C171.96,-212.21 171.96,-202.7 171.96,-194.45"/>
<polygon fill="#63b8ff" stroke="#63b8ff" points="175.46,-194.27 171.96,-184.27 168.46,-194.27 175.46,-194.27"/>
</a>
</g>
</g>
<!-- Node3 -->
<g id="Node000003" class="node">
<title>Node3</title>
<g id="a_Node000003"><a xlink:title=" ">
<polygon fill="#e0e0e0" stroke="#999999" points="133.96,-19 53.96,-19 53.96,0 133.96,0 133.96,-19"/>
<text text-anchor="middle" x="93.96" y="-7" font-family="Helvetica,sans-Serif" font-size="10.00">JuceHeader.h</text>
</a>
</g>
</g>
<!-- Node2&#45;&gt;Node3 -->
<g id="edge2_Node000002_Node000003" class="edge">
<title>Node2&#45;&gt;Node3</title>
<g id="a_edge2_Node000002_Node000003"><a xlink:title=" ">
<path fill="none" stroke="#63b8ff" d="M111.8,-164.94C70.45,-157.68 20.78,-145.76 7.96,-129 -20.39,-91.93 36.16,-47.08 70.41,-24.68"/>
<polygon fill="#63b8ff" stroke="#63b8ff" points="72.42,-27.55 78.98,-19.23 68.67,-21.64 72.42,-27.55"/>
</a>
</g>
</g>
<!-- Node4 -->
<g id="Node000004" class="node">
<title>Node4</title>
<g id="a_Node000004"><a xlink:href="ProcessorAudioSignalData_8h.html" target="_top" xlink:title=" ">
<polygon fill="white" stroke="#666666" points="170.96,-129 16.96,-129 16.96,-110 170.96,-110 170.96,-129"/>
<text text-anchor="middle" x="93.96" y="-117" font-family="Helvetica,sans-Serif" font-size="10.00">ProcessorAudioSignalData.h</text>
</a>
</g>
</g>
<!-- Node2&#45;&gt;Node4 -->
<g id="edge3_Node000002_Node000004" class="edge">
<title>Node2&#45;&gt;Node4</title>
<g id="a_edge3_Node000002_Node000004"><a xlink:title=" ">
<path fill="none" stroke="#63b8ff" d="M159.43,-164.98C147.56,-156.92 129.5,-144.65 115.35,-135.03"/>
<polygon fill="#63b8ff" stroke="#63b8ff" points="116.96,-131.9 106.72,-129.17 113.03,-137.69 116.96,-131.9"/>
</a>
</g>
</g>
<!-- Node6 -->
<g id="Node000006" class="node">
<title>Node6</title>
<g id="a_Node000006"><a xlink:href="ProcessorLevelData_8h.html" target="_top" xlink:title=" ">
<polygon fill="white" stroke="#666666" points="310.96,-129 188.96,-129 188.96,-110 310.96,-110 310.96,-129"/>
<text text-anchor="middle" x="249.96" y="-117" font-family="Helvetica,sans-Serif" font-size="10.00">ProcessorLevelData.h</text>
</a>
</g>
</g>
<!-- Node2&#45;&gt;Node6 -->
<g id="edge7_Node000002_Node000006" class="edge">
<title>Node2&#45;&gt;Node6</title>
<g id="a_edge7_Node000002_Node000006"><a xlink:title=" ">
<path fill="none" stroke="#63b8ff" d="M184.49,-164.98C196.36,-156.92 214.43,-144.65 228.57,-135.03"/>
<polygon fill="#63b8ff" stroke="#63b8ff" points="230.9,-137.69 237.2,-129.17 226.96,-131.9 230.9,-137.69"/>
</a>
</g>
</g>
<!-- Node7 -->
<g id="Node000007" class="node">
<title>Node7</title>
<g id="a_Node000007"><a xlink:href="ProcessorSpectrumData_8h.html" target="_top" xlink:title=" ">
<polygon fill="white" stroke="#666666" points="472.46,-129 329.46,-129 329.46,-110 472.46,-110 472.46,-129"/>
<text text-anchor="middle" x="400.96" y="-117" font-family="Helvetica,sans-Serif" font-size="10.00">ProcessorSpectrumData.h</text>
</a>
</g>
</g>
<!-- Node2&#45;&gt;Node7 -->
<g id="edge9_Node000002_Node000007" class="edge">
<title>Node2&#45;&gt;Node7</title>
<g id="a_edge9_Node000002_Node000007"><a xlink:title=" ">
<path fill="none" stroke="#63b8ff" d="M208.75,-164.98C248.2,-155.86 310.94,-141.33 353.94,-131.38"/>
<polygon fill="#63b8ff" stroke="#63b8ff" points="354.93,-134.75 363.88,-129.08 353.35,-127.93 354.93,-134.75"/>
</a>
</g>
</g>
<!-- Node4&#45;&gt;Node3 -->
<g id="edge4_Node000004_Node000003" class="edge">
<title>Node4&#45;&gt;Node3</title>
<g id="a_edge4_Node000004_Node000003"><a xlink:title=" ">
<path fill="none" stroke="#63b8ff" d="M93.96,-109.66C93.96,-92.17 93.96,-52.8 93.96,-29.27"/>
<polygon fill="#63b8ff" stroke="#63b8ff" points="97.46,-29.16 93.96,-19.16 90.46,-29.16 97.46,-29.16"/>
</a>
</g>
</g>
<!-- Node5 -->
<g id="Node000005" class="node">
<title>Node5</title>
<g id="a_Node000005"><a xlink:href="AbstractProcessorData_8h.html" target="_top" xlink:title=" ">
<polygon fill="white" stroke="#666666" points="288.46,-74 151.46,-74 151.46,-55 288.46,-55 288.46,-74"/>
<text text-anchor="middle" x="219.96" y="-62" font-family="Helvetica,sans-Serif" font-size="10.00">AbstractProcessorData.h</text>
</a>
</g>
</g>
<!-- Node4&#45;&gt;Node5 -->
<g id="edge5_Node000004_Node000005" class="edge">
<title>Node4&#45;&gt;Node5</title>
<g id="a_edge5_Node000004_Node000005"><a xlink:title=" ">
<path fill="none" stroke="#63b8ff" d="M114.21,-109.98C134.66,-101.38 166.49,-87.99 189.89,-78.15"/>
<polygon fill="#63b8ff" stroke="#63b8ff" points="191.49,-81.27 199.35,-74.17 188.77,-74.82 191.49,-81.27"/>
</a>
</g>
</g>
<!-- Node5&#45;&gt;Node3 -->
<g id="edge6_Node000005_Node000003" class="edge">
<title>Node5&#45;&gt;Node3</title>
<g id="a_edge6_Node000005_Node000003"><a xlink:title=" ">
<path fill="none" stroke="#63b8ff" d="M199.72,-54.98C179.27,-46.38 147.43,-32.99 124.03,-23.15"/>
<polygon fill="#63b8ff" stroke="#63b8ff" points="125.15,-19.82 114.57,-19.17 122.44,-26.27 125.15,-19.82"/>
</a>
</g>
</g>
<!-- Node6&#45;&gt;Node5 -->
<g id="edge8_Node000006_Node000005" class="edge">
<title>Node6&#45;&gt;Node5</title>
<g id="a_edge8_Node000006_Node000005"><a xlink:title=" ">
<path fill="none" stroke="#63b8ff" d="M245.01,-109.75C240.9,-102.49 234.94,-91.95 229.86,-82.98"/>
<polygon fill="#63b8ff" stroke="#63b8ff" points="232.8,-81.07 224.82,-74.09 226.7,-84.52 232.8,-81.07"/>
</a>
</g>
</g>
<!-- Node7&#45;&gt;Node5 -->
<g id="edge10_Node000007_Node000005" class="edge">
<title>Node7&#45;&gt;Node5</title>
<g id="a_edge10_Node000007_Node000005"><a xlink:title=" ">
<path fill="none" stroke="#63b8ff" d="M371.88,-109.98C341.36,-101.05 293.2,-86.94 259.3,-77.02"/>
<polygon fill="#63b8ff" stroke="#63b8ff" points="259.85,-73.53 249.27,-74.08 257.88,-80.25 259.85,-73.53"/>
</a>
</g>
</g>
</g>
</svg>
