<?xml version="1.0" encoding="UTF-8" standalone="no"?>
<!DOCTYPE svg PUBLIC "-//W3C//DTD SVG 1.1//EN"
 "http://www.w3.org/Graphics/SVG/1.1/DTD/svg11.dtd">
<!-- Generated by graphviz version 2.43.0 (0)
 -->
<!-- Title: Source/Main.cpp Pages: 1 -->
<!--zoomable 192 -->

<svg id="main" version="1.1" xmlns="http://www.w3.org/2000/svg" xmlns:xlink="http://www.w3.org/1999/xlink" xml:space="preserve" onload="init(evt)">
<style type="text/css"><![CDATA[
.node, .edge {opacity: 0.7;}
.node.selected, .edge.selected {opacity: 1;}
.edge:hover path { stroke: red; }
.edge:hover polygon { stroke: red; fill: red; }
]]></style>

<defs>
  <circle id="rim" cx="0" cy="0" r="7"/>
  <circle id="rim2" cx="0" cy="0" r="3.5"/>
  <g id="zoomPlus">
    <use xlink:href="#rim" fill="#404040"><set attributeName="fill" to="#808080" begin="zoomplus.mouseover" end="zoomplus.mouseout"/></use>
    <path d="M-4,0h8M0,-4v8" fill="none" stroke="white" stroke-width="1.5" pointer-events="none"/>
  </g>
  <g id="zoomMin">
    <use xlink:href="#rim" fill="#404040"><set attributeName="fill" to="#808080" begin="zoomminus.mouseover" end="zoomminus.mouseout"/></use>
    <path d="M-4,0h8" fill="none" stroke="white" stroke-width="1.5" pointer-events="none"/>
  </g>
  <g id="arrowUp" transform="translate(30 24)">
    <use xlink:href="#rim"/>
    <path pointer-events="none" fill="none" stroke="white" stroke-width="1.5" d="M0,-3.0v7 M-2.5,-0.5L0,-3.0L2.5,-0.5"/>
  </g>
  <g id="arrowRight" transform="rotate(90) translate(36 -43)">
    <use xlink:href="#rim"/>
    <path pointer-events="none" fill="none" stroke="white" stroke-width="1.5" d="M0,-3.0v7 M-2.5,-0.5L0,-3.0L2.5,-0.5"/>
  </g>
  <g id="arrowDown" transform="rotate(180) translate(-30 -48)">
    <use xlink:href="#rim"/>
    <path pointer-events="none" fill="none" stroke="white" stroke-width="1.5" d="M0,-3.0v7 M-2.5,-0.5L0,-3.0L2.5,-0.5"/>
  </g>
  <g id="arrowLeft" transform="rotate(270) translate(-36 17)">
    <use xlink:href="#rim"/>
    <path pointer-events="none" fill="none" stroke="white" stroke-width="1.5" d="M0,-3.0v7 M-2.5,-0.5L0,-3.0L2.5,-0.5"/>
  </g>
  <g id="resetDef">
    <use xlink:href="#rim2" fill="#404040"><set attributeName="fill" to="#808080" begin="reset.mouseover" end="reset.mouseout"/></use>
  </g>
</defs>
<script type="application/ecmascript">
var viewWidth = 783;
var viewHeight = 192;
var sectionId = 'dynsection-0';
</script>
<script type="application/ecmascript" xlink:href="svg.min.js"/>
<svg id="graph" class="graph">
<g id="viewport">
<title>Source/Main.cpp</title>
<!-- Node1 -->
<g id="Node000001" class="node">
<title>Node1</title>
<g id="a_Node000001"><a xlink:title=" ">
<polygon fill="#999999" stroke="#666666" points="388.5,-184 291.5,-184 291.5,-165 388.5,-165 388.5,-184"/>
<text text-anchor="middle" x="340" y="-172" font-family="Helvetica,sans-Serif" font-size="10.00">Source/Main.cpp</text>
</a>
</g>
</g>
<!-- Node2 -->
<g id="Node000002" class="node">
<title>Node2</title>
<g id="a_Node000002"><a xlink:title=" ">
<polygon fill="#e0e0e0" stroke="#999999" points="282,-19 202,-19 202,0 282,0 282,-19"/>
<text text-anchor="middle" x="242" y="-7" font-family="Helvetica,sans-Serif" font-size="10.00">JuceHeader.h</text>
</a>
</g>
</g>
<!-- Node1&#45;&gt;Node2 -->
<g id="edge1_Node000001_Node000002" class="edge">
<title>Node1&#45;&gt;Node2</title>
<g id="a_edge1_Node000001_Node000002"><a xlink:title=" ">
<path fill="none" stroke="#63b8ff" d="M327.6,-164.78C306.68,-149.27 264.93,-114.68 247,-74 240.79,-59.91 239.86,-42.37 240.3,-29.29"/>
<polygon fill="#63b8ff" stroke="#63b8ff" points="243.8,-29.35 240.94,-19.15 236.81,-28.91 243.8,-29.35"/>
</a>
</g>
</g>
<!-- Node3 -->
<g id="Node000003" class="node">
<title>Node3</title>
<g id="a_Node000003"><a xlink:href="Mema_8h.html" target="_top" xlink:title=" ">
<polygon fill="white" stroke="#666666" points="368,-129 312,-129 312,-110 368,-110 368,-129"/>
<text text-anchor="middle" x="340" y="-117" font-family="Helvetica,sans-Serif" font-size="10.00">Mema.h</text>
</a>
</g>
</g>
<!-- Node1&#45;&gt;Node3 -->
<g id="edge2_Node000001_Node000003" class="edge">
<title>Node1&#45;&gt;Node3</title>
<g id="a_edge2_Node000001_Node000003"><a xlink:title=" ">
<path fill="none" stroke="#63b8ff" d="M340,-164.75C340,-157.8 340,-147.85 340,-139.13"/>
<polygon fill="#63b8ff" stroke="#63b8ff" points="343.5,-139.09 340,-129.09 336.5,-139.09 343.5,-139.09"/>
</a>
</g>
</g>
<!-- Node5 -->
<g id="Node000005" class="node">
<title>Node5</title>
<g id="a_Node000005"><a xlink:title=" ">
<polygon fill="#e0e0e0" stroke="#999999" points="643,-19 509,-19 509,0 643,0 643,-19"/>
<text text-anchor="middle" x="576" y="-7" font-family="Helvetica,sans-Serif" font-size="10.00">AppConfigurationBase.h</text>
</a>
</g>
</g>
<!-- Node1&#45;&gt;Node5 -->
<g id="edge15_Node000001_Node000005" class="edge">
<title>Node1&#45;&gt;Node5</title>
<g id="a_edge15_Node000001_Node000005"><a xlink:title=" ">
<path fill="none" stroke="#63b8ff" d="M388.83,-169.75C490.98,-160.76 721.56,-134.11 767,-74 800.27,-29.99 719.84,-16.11 653.31,-11.94"/>
<polygon fill="#63b8ff" stroke="#63b8ff" points="653.37,-8.44 643.19,-11.37 652.98,-15.42 653.37,-8.44"/>
</a>
</g>
</g>
<!-- Node7 -->
<g id="Node000007" class="node">
<title>Node7</title>
<g id="a_Node000007"><a xlink:href="MemaUIComponent_8h.html" target="_top" xlink:title=" ">
<polygon fill="white" stroke="#666666" points="563.5,-129 440.5,-129 440.5,-110 563.5,-110 563.5,-129"/>
<text text-anchor="middle" x="502" y="-117" font-family="Helvetica,sans-Serif" font-size="10.00">MemaUIComponent.h</text>
</a>
</g>
</g>
<!-- Node1&#45;&gt;Node7 -->
<g id="edge8_Node000001_Node000007" class="edge">
<title>Node1&#45;&gt;Node7</title>
<g id="a_edge8_Node000001_Node000007"><a xlink:title=" ">
<path fill="none" stroke="#63b8ff" d="M366.03,-164.98C393.11,-156.13 435.71,-142.19 466.01,-132.28"/>
<polygon fill="#63b8ff" stroke="#63b8ff" points="467.35,-135.52 475.77,-129.08 465.18,-128.87 467.35,-135.52"/>
</a>
</g>
</g>
<!-- Node9 -->
<g id="Node000009" class="node">
<title>Node9</title>
<g id="a_Node000009"><a xlink:href="CustomPopupMenuComponent_8h.html" target="_top" xlink:title=" ">
<polygon fill="white" stroke="#666666" points="176,-129 0,-129 0,-110 176,-110 176,-129"/>
<text text-anchor="middle" x="88" y="-117" font-family="Helvetica,sans-Serif" font-size="10.00">CustomPopupMenuComponent.h</text>
</a>
</g>
</g>
<!-- Node1&#45;&gt;Node9 -->
<g id="edge13_Node000001_Node000009" class="edge">
<title>Node1&#45;&gt;Node9</title>
<g id="a_edge13_Node000001_Node000009"><a xlink:title=" ">
<path fill="none" stroke="#63b8ff" d="M299.51,-164.98C255.83,-155.8 186.19,-141.15 138.85,-131.19"/>
<polygon fill="#63b8ff" stroke="#63b8ff" points="139.31,-127.72 128.81,-129.08 137.87,-134.57 139.31,-127.72"/>
</a>
</g>
</g>
<!-- Node3&#45;&gt;Node2 -->
<g id="edge3_Node000003_Node000002" class="edge">
<title>Node3&#45;&gt;Node2</title>
<g id="a_edge3_Node000003_Node000002"><a xlink:title=" ">
<path fill="none" stroke="#63b8ff" d="M314.51,-109.97C297.1,-102.91 274.76,-91.22 261,-74 250.78,-61.22 246.06,-43.05 243.87,-29.41"/>
<polygon fill="#63b8ff" stroke="#63b8ff" points="247.31,-28.72 242.57,-19.25 240.37,-29.61 247.31,-28.72"/>
</a>
</g>
</g>
<!-- Node4 -->
<g id="Node000004" class="node">
<title>Node4</title>
<g id="a_Node000004"><a xlink:href="MemaAppConfiguration_8h.html" target="_top" xlink:title=" ">
<polygon fill="white" stroke="#666666" points="410,-74 270,-74 270,-55 410,-55 410,-74"/>
<text text-anchor="middle" x="340" y="-62" font-family="Helvetica,sans-Serif" font-size="10.00">MemaAppConfiguration.h</text>
</a>
</g>
</g>
<!-- Node3&#45;&gt;Node4 -->
<g id="edge4_Node000003_Node000004" class="edge">
<title>Node3&#45;&gt;Node4</title>
<g id="a_edge4_Node000003_Node000004"><a xlink:title=" ">
<path fill="none" stroke="#63b8ff" d="M340,-109.75C340,-102.8 340,-92.85 340,-84.13"/>
<polygon fill="#63b8ff" stroke="#63b8ff" points="343.5,-84.09 340,-74.09 336.5,-84.09 343.5,-84.09"/>
</a>
</g>
</g>
<!-- Node6 -->
<g id="Node000006" class="node">
<title>Node6</title>
<g id="a_Node000006"><a xlink:title=" ">
<polygon fill="#e0e0e0" stroke="#999999" points="575.5,-74 428.5,-74 428.5,-55 575.5,-55 575.5,-74"/>
<text text-anchor="middle" x="502" y="-62" font-family="Helvetica,sans-Serif" font-size="10.00">ServiceTopologyManager.h</text>
</a>
</g>
</g>
<!-- Node3&#45;&gt;Node6 -->
<g id="edge7_Node000003_Node000006" class="edge">
<title>Node3&#45;&gt;Node6</title>
<g id="a_edge7_Node000003_Node000006"><a xlink:title=" ">
<path fill="none" stroke="#63b8ff" d="M366.03,-109.98C393.11,-101.13 435.71,-87.19 466.01,-77.28"/>
<polygon fill="#63b8ff" stroke="#63b8ff" points="467.35,-80.52 475.77,-74.08 465.18,-73.87 467.35,-80.52"/>
</a>
</g>
</g>
<!-- Node4&#45;&gt;Node2 -->
<g id="edge5_Node000004_Node000002" class="edge">
<title>Node4&#45;&gt;Node2</title>
<g id="a_edge5_Node000004_Node000002"><a xlink:title=" ">
<path fill="none" stroke="#63b8ff" d="M324.25,-54.98C308.77,-46.61 284.91,-33.7 266.86,-23.95"/>
<polygon fill="#63b8ff" stroke="#63b8ff" points="268.49,-20.85 258.03,-19.17 265.16,-27.01 268.49,-20.85"/>
</a>
</g>
</g>
<!-- Node4&#45;&gt;Node5 -->
<g id="edge6_Node000004_Node000005" class="edge">
<title>Node4&#45;&gt;Node5</title>
<g id="a_edge6_Node000004_Node000005"><a xlink:title=" ">
<path fill="none" stroke="#63b8ff" d="M377.92,-54.98C418.65,-45.84 483.5,-31.27 527.82,-21.32"/>
<polygon fill="#63b8ff" stroke="#63b8ff" points="528.8,-24.69 537.79,-19.08 527.26,-17.86 528.8,-24.69"/>
</a>
</g>
</g>
<!-- Node7&#45;&gt;Node2 -->
<g id="edge9_Node000007_Node000002" class="edge">
<title>Node7&#45;&gt;Node2</title>
<g id="a_edge9_Node000007_Node000002"><a xlink:title=" ">
<path fill="none" stroke="#63b8ff" d="M529.87,-109.95C561.31,-98.93 605.54,-78.37 585,-55 565.99,-33.36 382.83,-19.16 292.23,-13.41"/>
<polygon fill="#63b8ff" stroke="#63b8ff" points="292.38,-9.91 282.18,-12.78 291.95,-16.9 292.38,-9.91"/>
</a>
</g>
</g>
<!-- Node7&#45;&gt;Node4 -->
<g id="edge10_Node000007_Node000004" class="edge">
<title>Node7&#45;&gt;Node4</title>
<g id="a_edge10_Node000007_Node000004"><a xlink:title=" ">
<path fill="none" stroke="#63b8ff" d="M475.97,-109.98C448.89,-101.13 406.29,-87.19 375.99,-77.28"/>
<polygon fill="#63b8ff" stroke="#63b8ff" points="376.82,-73.87 366.23,-74.08 374.65,-80.52 376.82,-73.87"/>
</a>
</g>
</g>
<!-- Node7&#45;&gt;Node6 -->
<g id="edge12_Node000007_Node000006" class="edge">
<title>Node7&#45;&gt;Node6</title>
<g id="a_edge12_Node000007_Node000006"><a xlink:title=" ">
<path fill="none" stroke="#63b8ff" d="M502,-109.75C502,-102.8 502,-92.85 502,-84.13"/>
<polygon fill="#63b8ff" stroke="#63b8ff" points="505.5,-84.09 502,-74.09 498.5,-84.09 505.5,-84.09"/>
</a>
</g>
</g>
<!-- Node8 -->
<g id="Node000008" class="node">
<title>Node8</title>
<g id="a_Node000008"><a xlink:title=" ">
<polygon fill="#e0e0e0" stroke="#999999" points="757.5,-74 632.5,-74 632.5,-55 757.5,-55 757.5,-74"/>
<text text-anchor="middle" x="695" y="-62" font-family="Helvetica,sans-Serif" font-size="10.00">CustomLookAndFeel.h</text>
</a>
</g>
</g>
<!-- Node7&#45;&gt;Node8 -->
<g id="edge11_Node000007_Node000008" class="edge">
<title>Node7&#45;&gt;Node8</title>
<g id="a_edge11_Node000007_Node000008"><a xlink:title=" ">
<path fill="none" stroke="#63b8ff" d="M533.01,-109.98C565.83,-100.97 617.8,-86.7 653.99,-76.76"/>
<polygon fill="#63b8ff" stroke="#63b8ff" points="655.03,-80.11 663.75,-74.08 653.18,-73.36 655.03,-80.11"/>
</a>
</g>
</g>
<!-- Node9&#45;&gt;Node2 -->
<g id="edge14_Node000009_Node000002" class="edge">
<title>Node9&#45;&gt;Node2</title>
<g id="a_edge14_Node000009_Node000002"><a xlink:title=" ">
<path fill="none" stroke="#63b8ff" d="M100.34,-109.84C126.7,-91.36 188.73,-47.86 221.26,-25.05"/>
<polygon fill="#63b8ff" stroke="#63b8ff" points="223.42,-27.8 229.6,-19.2 219.4,-22.07 223.42,-27.8"/>
</a>
</g>
</g>
</g>
</svg>

<g id="navigator" transform="translate(0 0)" fill="#404254">
  <rect fill="#f2f5e9" fill-opacity="0.5" stroke="#606060" stroke-width=".5" x="0" y="0" width="60" height="60"/>
  <use id="zoomplus" xlink:href="#zoomPlus" x="17" y="9" onmousedown="handleZoom(evt,'in')"/>
  <use id="zoomminus" xlink:href="#zoomMin" x="42" y="9" onmousedown="handleZoom(evt,'out')"/>
  <use id="reset" xlink:href="#resetDef" x="30" y="36" onmousedown="handleReset()"/>
   <use id="arrowup" xlink:href="#arrowUp" x="0" y="0" onmousedown="handlePan(0,-1)"/>
  <use id="arrowright" xlink:href="#arrowRight" x="0" y="0" onmousedown="handlePan(1,0)"/>
  <use id="arrowdown" xlink:href="#arrowDown" x="0" y="0" onmousedown="handlePan(0,1)"/>
  <use id="arrowleft" xlink:href="#arrowLeft" x="0" y="0" onmousedown="handlePan(-1,0)"/>
</g>
<svg viewBox="0 0 15 15" width="100%" height="30px" preserveAspectRatio="xMaxYMin meet">
 <g id="arrow_out" transform="scale(0.3 0.3)">
  <a xlink:href="Source_2Main_8cpp__incl_org.svg" target="_base">
   <rect id="button" ry="5" rx="5" y="6" x="6" height="38" width="38"
        fill="#f2f5e9" fill-opacity="0.5" stroke="#606060" stroke-width="1.0"/>
   <path id="arrow"
     d="M 11.500037,31.436501 C 11.940474,20.09759 22.043105,11.32322 32.158766,21.979434 L 37.068811,17.246167 C 37.068811,17.246167 37.088388,32 37.088388,32 L 22.160133,31.978069 C 22.160133,31.978069 26.997745,27.140456 26.997745,27.140456 C 18.528582,18.264221 13.291696,25.230495 11.500037,31.436501 z"
     style="fill:#404040;"/>
  </a>
 </g>
</svg>

<style type='text/css'>
<![CDATA[
[data-mouse-over-selected='false'] { opacity: 0.7; }
[data-mouse-over-selected='true']  { opacity: 1.0; }
]]>
</style>
<script type="application/ecmascript"><![CDATA[
document.addEventListener('DOMContentLoaded', (event) => {
  highlightEdges();
  highlightAdjacentNodes();
});
]]></script>
</svg>
