<?xml version="1.0" encoding="UTF-8" standalone="no"?>
<!DOCTYPE svg PUBLIC "-//W3C//DTD SVG 1.1//EN"
 "http://www.w3.org/Graphics/SVG/1.1/DTD/svg11.dtd">
<!-- Generated by graphviz version 2.43.0 (0)
 -->
<!-- Title: Source/Main.cpp Pages: 1 -->
<svg width="783pt" height="192pt"
 viewBox="0.00 0.00 783.25 192.00" xmlns="http://www.w3.org/2000/svg" xmlns:xlink="http://www.w3.org/1999/xlink">
<g id="graph0" class="graph" transform="scale(1 1) rotate(0) translate(4 188)">
<title>Source/Main.cpp</title>
<!-- Node1 -->
<g id="Node000001" class="node">
<title>Node1</title>
<g id="a_Node000001"><a xlink:title=" ">
<polygon fill="#999999" stroke="#666666" points="388.5,-184 291.5,-184 291.5,-165 388.5,-165 388.5,-184"/>
<text text-anchor="middle" x="340" y="-172" font-family="Helvetica,sans-Serif" font-size="10.00">Source/Main.cpp</text>
</a>
</g>
</g>
<!-- Node2 -->
<g id="Node000002" class="node">
<title>Node2</title>
<g id="a_Node000002"><a xlink:title=" ">
<polygon fill="#e0e0e0" stroke="#999999" points="282,-19 202,-19 202,0 282,0 282,-19"/>
<text text-anchor="middle" x="242" y="-7" font-family="Helvetica,sans-Serif" font-size="10.00">JuceHeader.h</text>
</a>
</g>
</g>
<!-- Node1&#45;&gt;Node2 -->
<g id="edge1_Node000001_Node000002" class="edge">
<title>Node1&#45;&gt;Node2</title>
<g id="a_edge1_Node000001_Node000002"><a xlink:title=" ">
<path fill="none" stroke="#63b8ff" d="M327.6,-164.78C306.68,-149.27 264.93,-114.68 247,-74 240.79,-59.91 239.86,-42.37 240.3,-29.29"/>
<polygon fill="#63b8ff" stroke="#63b8ff" points="243.8,-29.35 240.94,-19.15 236.81,-28.91 243.8,-29.35"/>
</a>
</g>
</g>
<!-- Node3 -->
<g id="Node000003" class="node">
<title>Node3</title>
<g id="a_Node000003"><a xlink:href="Mema_8h.html" target="_top" xlink:title=" ">
<polygon fill="white" stroke="#666666" points="368,-129 312,-129 312,-110 368,-110 368,-129"/>
<text text-anchor="middle" x="340" y="-117" font-family="Helvetica,sans-Serif" font-size="10.00">Mema.h</text>
</a>
</g>
</g>
<!-- Node1&#45;&gt;Node3 -->
<g id="edge2_Node000001_Node000003" class="edge">
<title>Node1&#45;&gt;Node3</title>
<g id="a_edge2_Node000001_Node000003"><a xlink:title=" ">
<path fill="none" stroke="#63b8ff" d="M340,-164.75C340,-157.8 340,-147.85 340,-139.13"/>
<polygon fill="#63b8ff" stroke="#63b8ff" points="343.5,-139.09 340,-129.09 336.5,-139.09 343.5,-139.09"/>
</a>
</g>
</g>
<!-- Node5 -->
<g id="Node000005" class="node">
<title>Node5</title>
<g id="a_Node000005"><a xlink:title=" ">
<polygon fill="#e0e0e0" stroke="#999999" points="643,-19 509,-19 509,0 643,0 643,-19"/>
<text text-anchor="middle" x="576" y="-7" font-family="Helvetica,sans-Serif" font-size="10.00">AppConfigurationBase.h</text>
</a>
</g>
</g>
<!-- Node1&#45;&gt;Node5 -->
<g id="edge15_Node000001_Node000005" class="edge">
<title>Node1&#45;&gt;Node5</title>
<g id="a_edge15_Node000001_Node000005"><a xlink:title=" ">
<path fill="none" stroke="#63b8ff" d="M388.83,-169.75C490.98,-160.76 721.56,-134.11 767,-74 800.27,-29.99 719.84,-16.11 653.31,-11.94"/>
<polygon fill="#63b8ff" stroke="#63b8ff" points="653.37,-8.44 643.19,-11.37 652.98,-15.42 653.37,-8.44"/>
</a>
</g>
</g>
<!-- Node7 -->
<g id="Node000007" class="node">
<title>Node7</title>
<g id="a_Node000007"><a xlink:href="MemaUIComponent_8h.html" target="_top" xlink:title=" ">
<polygon fill="white" stroke="#666666" points="563.5,-129 440.5,-129 440.5,-110 563.5,-110 563.5,-129"/>
<text text-anchor="middle" x="502" y="-117" font-family="Helvetica,sans-Serif" font-size="10.00">MemaUIComponent.h</text>
</a>
</g>
</g>
<!-- Node1&#45;&gt;Node7 -->
<g id="edge8_Node000001_Node000007" class="edge">
<title>Node1&#45;&gt;Node7</title>
<g id="a_edge8_Node000001_Node000007"><a xlink:title=" ">
<path fill="none" stroke="#63b8ff" d="M366.03,-164.98C393.11,-156.13 435.71,-142.19 466.01,-132.28"/>
<polygon fill="#63b8ff" stroke="#63b8ff" points="467.35,-135.52 475.77,-129.08 465.18,-128.87 467.35,-135.52"/>
</a>
</g>
</g>
<!-- Node9 -->
<g id="Node000009" class="node">
<title>Node9</title>
<g id="a_Node000009"><a xlink:href="CustomPopupMenuComponent_8h.html" target="_top" xlink:title=" ">
<polygon fill="white" stroke="#666666" points="176,-129 0,-129 0,-110 176,-110 176,-129"/>
<text text-anchor="middle" x="88" y="-117" font-family="Helvetica,sans-Serif" font-size="10.00">CustomPopupMenuComponent.h</text>
</a>
</g>
</g>
<!-- Node1&#45;&gt;Node9 -->
<g id="edge13_Node000001_Node000009" class="edge">
<title>Node1&#45;&gt;Node9</title>
<g id="a_edge13_Node000001_Node000009"><a xlink:title=" ">
<path fill="none" stroke="#63b8ff" d="M299.51,-164.98C255.83,-155.8 186.19,-141.15 138.85,-131.19"/>
<polygon fill="#63b8ff" stroke="#63b8ff" points="139.31,-127.72 128.81,-129.08 137.87,-134.57 139.31,-127.72"/>
</a>
</g>
</g>
<!-- Node3&#45;&gt;Node2 -->
<g id="edge3_Node000003_Node000002" class="edge">
<title>Node3&#45;&gt;Node2</title>
<g id="a_edge3_Node000003_Node000002"><a xlink:title=" ">
<path fill="none" stroke="#63b8ff" d="M314.51,-109.97C297.1,-102.91 274.76,-91.22 261,-74 250.78,-61.22 246.06,-43.05 243.87,-29.41"/>
<polygon fill="#63b8ff" stroke="#63b8ff" points="247.31,-28.72 242.57,-19.25 240.37,-29.61 247.31,-28.72"/>
</a>
</g>
</g>
<!-- Node4 -->
<g id="Node000004" class="node">
<title>Node4</title>
<g id="a_Node000004"><a xlink:href="MemaAppConfiguration_8h.html" target="_top" xlink:title=" ">
<polygon fill="white" stroke="#666666" points="410,-74 270,-74 270,-55 410,-55 410,-74"/>
<text text-anchor="middle" x="340" y="-62" font-family="Helvetica,sans-Serif" font-size="10.00">MemaAppConfiguration.h</text>
</a>
</g>
</g>
<!-- Node3&#45;&gt;Node4 -->
<g id="edge4_Node000003_Node000004" class="edge">
<title>Node3&#45;&gt;Node4</title>
<g id="a_edge4_Node000003_Node000004"><a xlink:title=" ">
<path fill="none" stroke="#63b8ff" d="M340,-109.75C340,-102.8 340,-92.85 340,-84.13"/>
<polygon fill="#63b8ff" stroke="#63b8ff" points="343.5,-84.09 340,-74.09 336.5,-84.09 343.5,-84.09"/>
</a>
</g>
</g>
<!-- Node6 -->
<g id="Node000006" class="node">
<title>Node6</title>
<g id="a_Node000006"><a xlink:title=" ">
<polygon fill="#e0e0e0" stroke="#999999" points="575.5,-74 428.5,-74 428.5,-55 575.5,-55 575.5,-74"/>
<text text-anchor="middle" x="502" y="-62" font-family="Helvetica,sans-Serif" font-size="10.00">ServiceTopologyManager.h</text>
</a>
</g>
</g>
<!-- Node3&#45;&gt;Node6 -->
<g id="edge7_Node000003_Node000006" class="edge">
<title>Node3&#45;&gt;Node6</title>
<g id="a_edge7_Node000003_Node000006"><a xlink:title=" ">
<path fill="none" stroke="#63b8ff" d="M366.03,-109.98C393.11,-101.13 435.71,-87.19 466.01,-77.28"/>
<polygon fill="#63b8ff" stroke="#63b8ff" points="467.35,-80.52 475.77,-74.08 465.18,-73.87 467.35,-80.52"/>
</a>
</g>
</g>
<!-- Node4&#45;&gt;Node2 -->
<g id="edge5_Node000004_Node000002" class="edge">
<title>Node4&#45;&gt;Node2</title>
<g id="a_edge5_Node000004_Node000002"><a xlink:title=" ">
<path fill="none" stroke="#63b8ff" d="M324.25,-54.98C308.77,-46.61 284.91,-33.7 266.86,-23.95"/>
<polygon fill="#63b8ff" stroke="#63b8ff" points="268.49,-20.85 258.03,-19.17 265.16,-27.01 268.49,-20.85"/>
</a>
</g>
</g>
<!-- Node4&#45;&gt;Node5 -->
<g id="edge6_Node000004_Node000005" class="edge">
<title>Node4&#45;&gt;Node5</title>
<g id="a_edge6_Node000004_Node000005"><a xlink:title=" ">
<path fill="none" stroke="#63b8ff" d="M377.92,-54.98C418.65,-45.84 483.5,-31.27 527.82,-21.32"/>
<polygon fill="#63b8ff" stroke="#63b8ff" points="528.8,-24.69 537.79,-19.08 527.26,-17.86 528.8,-24.69"/>
</a>
</g>
</g>
<!-- Node7&#45;&gt;Node2 -->
<g id="edge9_Node000007_Node000002" class="edge">
<title>Node7&#45;&gt;Node2</title>
<g id="a_edge9_Node000007_Node000002"><a xlink:title=" ">
<path fill="none" stroke="#63b8ff" d="M529.87,-109.95C561.31,-98.93 605.54,-78.37 585,-55 565.99,-33.36 382.83,-19.16 292.23,-13.41"/>
<polygon fill="#63b8ff" stroke="#63b8ff" points="292.38,-9.91 282.18,-12.78 291.95,-16.9 292.38,-9.91"/>
</a>
</g>
</g>
<!-- Node7&#45;&gt;Node4 -->
<g id="edge10_Node000007_Node000004" class="edge">
<title>Node7&#45;&gt;Node4</title>
<g id="a_edge10_Node000007_Node000004"><a xlink:title=" ">
<path fill="none" stroke="#63b8ff" d="M475.97,-109.98C448.89,-101.13 406.29,-87.19 375.99,-77.28"/>
<polygon fill="#63b8ff" stroke="#63b8ff" points="376.82,-73.87 366.23,-74.08 374.65,-80.52 376.82,-73.87"/>
</a>
</g>
</g>
<!-- Node7&#45;&gt;Node6 -->
<g id="edge12_Node000007_Node000006" class="edge">
<title>Node7&#45;&gt;Node6</title>
<g id="a_edge12_Node000007_Node000006"><a xlink:title=" ">
<path fill="none" stroke="#63b8ff" d="M502,-109.75C502,-102.8 502,-92.85 502,-84.13"/>
<polygon fill="#63b8ff" stroke="#63b8ff" points="505.5,-84.09 502,-74.09 498.5,-84.09 505.5,-84.09"/>
</a>
</g>
</g>
<!-- Node8 -->
<g id="Node000008" class="node">
<title>Node8</title>
<g id="a_Node000008"><a xlink:title=" ">
<polygon fill="#e0e0e0" stroke="#999999" points="757.5,-74 632.5,-74 632.5,-55 757.5,-55 757.5,-74"/>
<text text-anchor="middle" x="695" y="-62" font-family="Helvetica,sans-Serif" font-size="10.00">CustomLookAndFeel.h</text>
</a>
</g>
</g>
<!-- Node7&#45;&gt;Node8 -->
<g id="edge11_Node000007_Node000008" class="edge">
<title>Node7&#45;&gt;Node8</title>
<g id="a_edge11_Node000007_Node000008"><a xlink:title=" ">
<path fill="none" stroke="#63b8ff" d="M533.01,-109.98C565.83,-100.97 617.8,-86.7 653.99,-76.76"/>
<polygon fill="#63b8ff" stroke="#63b8ff" points="655.03,-80.11 663.75,-74.08 653.18,-73.36 655.03,-80.11"/>
</a>
</g>
</g>
<!-- Node9&#45;&gt;Node2 -->
<g id="edge14_Node000009_Node000002" class="edge">
<title>Node9&#45;&gt;Node2</title>
<g id="a_edge14_Node000009_Node000002"><a xlink:title=" ">
<path fill="none" stroke="#63b8ff" d="M100.34,-109.84C126.7,-91.36 188.73,-47.86 221.26,-25.05"/>
<polygon fill="#63b8ff" stroke="#63b8ff" points="223.42,-27.8 229.6,-19.2 219.4,-22.07 223.42,-27.8"/>
</a>
</g>
</g>
</g>
</svg>
