<?xml version="1.0" encoding="UTF-8" standalone="no"?>
<!DOCTYPE svg PUBLIC "-//W3C//DTD SVG 1.1//EN"
 "http://www.w3.org/Graphics/SVG/1.1/DTD/svg11.dtd">
<!-- Generated by graphviz version 2.43.0 (0)
 -->
<!-- Title: Source/MemaClientCommon/SpectrumAudioComponent.h Pages: 1 -->
<!--zoomable 390 -->

<svg id="main" version="1.1" xmlns="http://www.w3.org/2000/svg" xmlns:xlink="http://www.w3.org/1999/xlink" xml:space="preserve" onload="init(evt)">
<style type="text/css"><![CDATA[
.node, .edge {opacity: 0.7;}
.node.selected, .edge.selected {opacity: 1;}
.edge:hover path { stroke: red; }
.edge:hover polygon { stroke: red; fill: red; }
]]></style>

<defs>
  <circle id="rim" cx="0" cy="0" r="7"/>
  <circle id="rim2" cx="0" cy="0" r="3.5"/>
  <g id="zoomPlus">
    <use xlink:href="#rim" fill="#404040"><set attributeName="fill" to="#808080" begin="zoomplus.mouseover" end="zoomplus.mouseout"/></use>
    <path d="M-4,0h8M0,-4v8" fill="none" stroke="white" stroke-width="1.5" pointer-events="none"/>
  </g>
  <g id="zoomMin">
    <use xlink:href="#rim" fill="#404040"><set attributeName="fill" to="#808080" begin="zoomminus.mouseover" end="zoomminus.mouseout"/></use>
    <path d="M-4,0h8" fill="none" stroke="white" stroke-width="1.5" pointer-events="none"/>
  </g>
  <g id="arrowUp" transform="translate(30 24)">
    <use xlink:href="#rim"/>
    <path pointer-events="none" fill="none" stroke="white" stroke-width="1.5" d="M0,-3.0v7 M-2.5,-0.5L0,-3.0L2.5,-0.5"/>
  </g>
  <g id="arrowRight" transform="rotate(90) translate(36 -43)">
    <use xlink:href="#rim"/>
    <path pointer-events="none" fill="none" stroke="white" stroke-width="1.5" d="M0,-3.0v7 M-2.5,-0.5L0,-3.0L2.5,-0.5"/>
  </g>
  <g id="arrowDown" transform="rotate(180) translate(-30 -48)">
    <use xlink:href="#rim"/>
    <path pointer-events="none" fill="none" stroke="white" stroke-width="1.5" d="M0,-3.0v7 M-2.5,-0.5L0,-3.0L2.5,-0.5"/>
  </g>
  <g id="arrowLeft" transform="rotate(270) translate(-36 17)">
    <use xlink:href="#rim"/>
    <path pointer-events="none" fill="none" stroke="white" stroke-width="1.5" d="M0,-3.0v7 M-2.5,-0.5L0,-3.0L2.5,-0.5"/>
  </g>
  <g id="resetDef">
    <use xlink:href="#rim2" fill="#404040"><set attributeName="fill" to="#808080" begin="reset.mouseover" end="reset.mouseout"/></use>
  </g>
</defs>
<script type="application/ecmascript">
var viewWidth = 1333;
var viewHeight = 390;
var sectionId = 'dynsection-0';
</script>
<script type="application/ecmascript" xlink:href="svg.min.js"/>
<svg id="graph" class="graph">
<g id="viewport">
<title>Source/MemaClientCommon/SpectrumAudioComponent.h</title>
<!-- Node1 -->
<g id="Node000001" class="node">
<title>Node1</title>
<g id="a_Node000001"><a xlink:title=" ">
<polygon fill="#999999" stroke="#666666" points="159,-382 0,-382 0,-352 159,-352 159,-382"/>
<text text-anchor="start" x="8" y="-370" font-family="Helvetica,sans-Serif" font-size="10.00">Source/MemaClientCommon</text>
<text text-anchor="middle" x="79.5" y="-359" font-family="Helvetica,sans-Serif" font-size="10.00">/SpectrumAudioComponent.h</text>
</a>
</g>
</g>
<!-- Node2 -->
<g id="Node000002" class="node">
<title>Node2</title>
<g id="a_Node000002"><a xlink:title=" ">
<polygon fill="#e0e0e0" stroke="#999999" points="538.5,-19 458.5,-19 458.5,0 538.5,0 538.5,-19"/>
<text text-anchor="middle" x="498.5" y="-7" font-family="Helvetica,sans-Serif" font-size="10.00">JuceHeader.h</text>
</a>
</g>
</g>
<!-- Node1&#45;&gt;Node2 -->
<g id="edge1_Node000001_Node000002" class="edge">
<title>Node1&#45;&gt;Node2</title>
<g id="a_edge1_Node000001_Node000002"><a xlink:title=" ">
<path fill="none" stroke="#63b8ff" d="M69.04,-351.77C62.35,-342.09 53.94,-328.78 48.5,-316 35.12,-284.56 29.5,-275.67 29.5,-241.5 29.5,-241.5 29.5,-241.5 29.5,-124 29.5,-80.63 59.41,-73.79 98.5,-55 159.2,-25.82 355.3,-15.35 448.46,-11.96"/>
<polygon fill="#63b8ff" stroke="#63b8ff" points="448.62,-15.46 458.49,-11.61 448.38,-8.46 448.62,-15.46"/>
</a>
</g>
</g>
<!-- Node3 -->
<g id="Node000003" class="node">
<title>Node3</title>
<g id="a_Node000003"><a xlink:href="AbstractAudioVisualizer_8h.html" target="_top" xlink:title=" ">
<polygon fill="white" stroke="#666666" points="201.5,-316 57.5,-316 57.5,-286 201.5,-286 201.5,-316"/>
<text text-anchor="start" x="65.5" y="-304" font-family="Helvetica,sans-Serif" font-size="10.00">../MemaProcessorEditor</text>
<text text-anchor="middle" x="129.5" y="-293" font-family="Helvetica,sans-Serif" font-size="10.00">/AbstractAudioVisualizer.h</text>
</a>
</g>
</g>
<!-- Node1&#45;&gt;Node3 -->
<g id="edge2_Node000001_Node000003" class="edge">
<title>Node1&#45;&gt;Node3</title>
<g id="a_edge2_Node000001_Node000003"><a xlink:title=" ">
<path fill="none" stroke="#63b8ff" d="M90.6,-351.8C96.94,-343.68 105.04,-333.31 112.2,-324.15"/>
<polygon fill="#63b8ff" stroke="#63b8ff" points="115.04,-326.2 118.43,-316.16 109.52,-321.89 115.04,-326.2"/>
</a>
</g>
</g>
<!-- Node3&#45;&gt;Node2 -->
<g id="edge3_Node000003_Node000002" class="edge">
<title>Node3&#45;&gt;Node2</title>
<g id="a_edge3_Node000003_Node000002"><a xlink:title=" ">
<path fill="none" stroke="#63b8ff" d="M115.74,-285.94C97.47,-265.73 67.5,-226.47 67.5,-186.5 67.5,-186.5 67.5,-186.5 67.5,-124 67.5,-76.03 106.51,-74.14 150.5,-55 202.79,-32.25 364.76,-18.97 447.99,-13.48"/>
<polygon fill="#63b8ff" stroke="#63b8ff" points="448.47,-16.96 458.22,-12.82 448.02,-9.97 448.47,-16.96"/>
</a>
</g>
</g>
<!-- Node4 -->
<g id="Node000004" class="node">
<title>Node4</title>
<g id="a_Node000004"><a xlink:href="MemaProcessor_8h.html" target="_top" xlink:title=" ">
<polygon fill="white" stroke="#666666" points="647,-250 454,-250 454,-231 647,-231 647,-250"/>
<text text-anchor="middle" x="550.5" y="-238" font-family="Helvetica,sans-Serif" font-size="10.00">../MemaProcessor/MemaProcessor.h</text>
</a>
</g>
</g>
<!-- Node3&#45;&gt;Node4 -->
<g id="edge4_Node000003_Node000004" class="edge">
<title>Node3&#45;&gt;Node4</title>
<g id="a_edge4_Node000003_Node000004"><a xlink:title=" ">
<path fill="none" stroke="#63b8ff" d="M201.87,-289.94C279.5,-279.16 401.99,-262.14 479.2,-251.41"/>
<polygon fill="#63b8ff" stroke="#63b8ff" points="479.89,-254.85 489.31,-250 478.93,-247.91 479.89,-254.85"/>
</a>
</g>
</g>
<!-- Node4&#45;&gt;Node2 -->
<g id="edge5_Node000004_Node000002" class="edge">
<title>Node4&#45;&gt;Node2</title>
<g id="a_edge5_Node000004_Node000002"><a xlink:title=" ">
<path fill="none" stroke="#63b8ff" d="M458.45,-230.99C351.02,-218.76 183.87,-191.75 151.5,-140 82.89,-30.3 336.52,-13.04 448.21,-10.68"/>
<polygon fill="#63b8ff" stroke="#63b8ff" points="448.3,-14.18 458.24,-10.5 448.18,-7.18 448.3,-14.18"/>
</a>
</g>
</g>
<!-- Node5 -->
<g id="Node000005" class="node">
<title>Node5</title>
<g id="a_Node000005"><a xlink:href="MemaMessages_8h.html" target="_top" xlink:title=" ">
<polygon fill="white" stroke="#666666" points="379,-195 274,-195 274,-176 379,-176 379,-195"/>
<text text-anchor="middle" x="326.5" y="-183" font-family="Helvetica,sans-Serif" font-size="10.00">MemaMessages.h</text>
</a>
</g>
</g>
<!-- Node4&#45;&gt;Node5 -->
<g id="edge6_Node000004_Node000005" class="edge">
<title>Node4&#45;&gt;Node5</title>
<g id="a_edge6_Node000004_Node000005"><a xlink:title=" ">
<path fill="none" stroke="#63b8ff" d="M514.51,-230.98C476.01,-221.87 414.81,-207.4 372.76,-197.45"/>
<polygon fill="#63b8ff" stroke="#63b8ff" points="373.31,-193.98 362.77,-195.08 371.7,-200.79 373.31,-193.98"/>
</a>
</g>
</g>
<!-- Node7 -->
<g id="Node000007" class="node">
<title>Node7</title>
<g id="a_Node000007"><a xlink:href="MemaPluginParameterInfo_8h.html" target="_top" xlink:title=" ">
<polygon fill="white" stroke="#666666" points="470,-134.5 315,-134.5 315,-115.5 470,-115.5 470,-134.5"/>
<text text-anchor="middle" x="392.5" y="-122.5" font-family="Helvetica,sans-Serif" font-size="10.00">MemaPluginParameterInfo.h</text>
</a>
</g>
</g>
<!-- Node4&#45;&gt;Node7 -->
<g id="edge21_Node000004_Node000007" class="edge">
<title>Node4&#45;&gt;Node7</title>
<g id="a_edge21_Node000004_Node000007"><a xlink:title=" ">
<path fill="none" stroke="#63b8ff" d="M538.62,-230.97C511.86,-211.74 446.56,-164.83 413.06,-140.77"/>
<polygon fill="#63b8ff" stroke="#63b8ff" points="414.68,-137.62 404.51,-134.63 410.59,-143.31 414.68,-137.62"/>
</a>
</g>
</g>
<!-- Node8 -->
<g id="Node000008" class="node">
<title>Node8</title>
<g id="a_Node000008"><a xlink:href="ProcessorDataAnalyzer_8h.html" target="_top" xlink:title=" ">
<polygon fill="white" stroke="#666666" points="672.5,-195 534.5,-195 534.5,-176 672.5,-176 672.5,-195"/>
<text text-anchor="middle" x="603.5" y="-183" font-family="Helvetica,sans-Serif" font-size="10.00">ProcessorDataAnalyzer.h</text>
</a>
</g>
</g>
<!-- Node4&#45;&gt;Node8 -->
<g id="edge11_Node000004_Node000008" class="edge">
<title>Node4&#45;&gt;Node8</title>
<g id="a_edge11_Node000004_Node000008"><a xlink:title=" ">
<path fill="none" stroke="#63b8ff" d="M559.25,-230.75C566.97,-223.03 578.4,-211.6 587.72,-202.28"/>
<polygon fill="#63b8ff" stroke="#63b8ff" points="590.31,-204.64 594.91,-195.09 585.36,-199.69 590.31,-204.64"/>
</a>
</g>
</g>
<!-- Node13 -->
<g id="Node000013" class="node">
<title>Node13</title>
<g id="a_Node000013"><a xlink:href="MemaProcessorEditor_8h.html" target="_top" xlink:title=" ">
<polygon fill="white" stroke="#666666" points="1134.5,-140 1000.5,-140 1000.5,-110 1134.5,-110 1134.5,-140"/>
<text text-anchor="start" x="1008.5" y="-128" font-family="Helvetica,sans-Serif" font-size="10.00">../MemaProcessorEditor</text>
<text text-anchor="middle" x="1067.5" y="-117" font-family="Helvetica,sans-Serif" font-size="10.00">/MemaProcessorEditor.h</text>
</a>
</g>
</g>
<!-- Node4&#45;&gt;Node13 -->
<g id="edge22_Node000004_Node000013" class="edge">
<title>Node4&#45;&gt;Node13</title>
<g id="a_edge22_Node000004_Node000013"><a xlink:title=" ">
<path fill="none" stroke="#63b8ff" d="M589.36,-230.97C675.18,-212.13 882.11,-166.7 993.52,-142.24"/>
<polygon fill="#63b8ff" stroke="#63b8ff" points="994.32,-145.65 1003.34,-140.09 992.82,-138.81 994.32,-145.65"/>
</a>
</g>
</g>
<!-- Node15 -->
<g id="Node000015" class="node">
<title>Node15</title>
<g id="a_Node000015"><a xlink:href="MemaAppConfiguration_8h.html" target="_top" xlink:title=" ">
<polygon fill="white" stroke="#666666" points="1147,-195 998,-195 998,-176 1147,-176 1147,-195"/>
<text text-anchor="middle" x="1072.5" y="-183" font-family="Helvetica,sans-Serif" font-size="10.00">../MemaAppConfiguration.h</text>
</a>
</g>
</g>
<!-- Node4&#45;&gt;Node15 -->
<g id="edge26_Node000004_Node000015" class="edge">
<title>Node4&#45;&gt;Node15</title>
<g id="a_edge26_Node000004_Node000015"><a xlink:title=" ">
<path fill="none" stroke="#63b8ff" d="M634.37,-230.98C731.37,-221.14 890.18,-205.01 987.62,-195.12"/>
<polygon fill="#63b8ff" stroke="#63b8ff" points="988.13,-198.58 997.73,-194.09 987.42,-191.62 988.13,-198.58"/>
</a>
</g>
</g>
<!-- Node17 -->
<g id="Node000017" class="node">
<title>Node17</title>
<g id="a_Node000017"><a xlink:title=" ">
<polygon fill="#e0e0e0" stroke="#999999" points="1312,-195 1165,-195 1165,-176 1312,-176 1312,-195"/>
<text text-anchor="middle" x="1238.5" y="-183" font-family="Helvetica,sans-Serif" font-size="10.00">ServiceTopologyManager.h</text>
</a>
</g>
</g>
<!-- Node4&#45;&gt;Node17 -->
<g id="edge29_Node000004_Node000017" class="edge">
<title>Node4&#45;&gt;Node17</title>
<g id="a_edge29_Node000004_Node000017"><a xlink:title=" ">
<path fill="none" stroke="#63b8ff" d="M647.23,-233.24C764.57,-225.46 968.69,-211.29 1154.51,-195.06"/>
<polygon fill="#63b8ff" stroke="#63b8ff" points="1155.09,-198.52 1164.74,-194.16 1154.48,-191.55 1155.09,-198.52"/>
</a>
</g>
</g>
<!-- Node5&#45;&gt;Node2 -->
<g id="edge7_Node000005_Node000002" class="edge">
<title>Node5&#45;&gt;Node2</title>
<g id="a_edge7_Node000005_Node000002"><a xlink:title=" ">
<path fill="none" stroke="#63b8ff" d="M273.94,-179.52C214.67,-171.75 130.46,-152.91 162.5,-110 196.87,-63.98 363.34,-31.72 448.33,-17.95"/>
<polygon fill="#63b8ff" stroke="#63b8ff" points="448.96,-21.4 458.28,-16.37 447.85,-14.48 448.96,-21.4"/>
</a>
</g>
</g>
<!-- Node6 -->
<g id="Node000006" class="node">
<title>Node6</title>
<g id="a_Node000006"><a xlink:title=" ">
<polygon fill="#e0e0e0" stroke="#999999" points="297,-134.5 172,-134.5 172,-115.5 297,-115.5 297,-134.5"/>
<text text-anchor="middle" x="234.5" y="-122.5" font-family="Helvetica,sans-Serif" font-size="10.00">CustomLookAndFeel.h</text>
</a>
</g>
</g>
<!-- Node5&#45;&gt;Node6 -->
<g id="edge8_Node000005_Node000006" class="edge">
<title>Node5&#45;&gt;Node6</title>
<g id="a_edge8_Node000005_Node000006"><a xlink:title=" ">
<path fill="none" stroke="#63b8ff" d="M312.93,-175.87C298.11,-166.45 274.17,-151.23 256.64,-140.08"/>
<polygon fill="#63b8ff" stroke="#63b8ff" points="258.45,-137.08 248.13,-134.67 254.69,-142.99 258.45,-137.08"/>
</a>
</g>
</g>
<!-- Node5&#45;&gt;Node7 -->
<g id="edge9_Node000005_Node000007" class="edge">
<title>Node5&#45;&gt;Node7</title>
<g id="a_edge9_Node000005_Node000007"><a xlink:title=" ">
<path fill="none" stroke="#63b8ff" d="M336.24,-175.87C346.47,-166.8 362.79,-152.34 375.22,-141.32"/>
<polygon fill="#63b8ff" stroke="#63b8ff" points="377.56,-143.92 382.72,-134.67 372.92,-138.68 377.56,-143.92"/>
</a>
</g>
</g>
<!-- Node7&#45;&gt;Node2 -->
<g id="edge10_Node000007_Node000002" class="edge">
<title>Node7&#45;&gt;Node2</title>
<g id="a_edge10_Node000007_Node000002"><a xlink:title=" ">
<path fill="none" stroke="#63b8ff" d="M400.47,-115.47C418.12,-96.57 460.74,-50.93 483.54,-26.52"/>
<polygon fill="#63b8ff" stroke="#63b8ff" points="486.17,-28.83 490.44,-19.13 481.06,-24.05 486.17,-28.83"/>
</a>
</g>
</g>
<!-- Node8&#45;&gt;Node2 -->
<g id="edge12_Node000008_Node000002" class="edge">
<title>Node8&#45;&gt;Node2</title>
<g id="a_edge12_Node000008_Node000002"><a xlink:title=" ">
<path fill="none" stroke="#63b8ff" d="M571.16,-175.86C552.51,-169.16 530.29,-157.93 517.5,-140 493.72,-106.65 494.01,-56.06 496.26,-29.05"/>
<polygon fill="#63b8ff" stroke="#63b8ff" points="499.75,-29.33 497.28,-19.03 492.78,-28.62 499.75,-29.33"/>
</a>
</g>
</g>
<!-- Node9 -->
<g id="Node000009" class="node">
<title>Node9</title>
<g id="a_Node000009"><a xlink:href="ProcessorAudioSignalData_8h.html" target="_top" xlink:title=" ">
<polygon fill="white" stroke="#666666" points="680.5,-134.5 526.5,-134.5 526.5,-115.5 680.5,-115.5 680.5,-134.5"/>
<text text-anchor="middle" x="603.5" y="-122.5" font-family="Helvetica,sans-Serif" font-size="10.00">ProcessorAudioSignalData.h</text>
</a>
</g>
</g>
<!-- Node8&#45;&gt;Node9 -->
<g id="edge13_Node000008_Node000009" class="edge">
<title>Node8&#45;&gt;Node9</title>
<g id="a_edge13_Node000008_Node000009"><a xlink:title=" ">
<path fill="none" stroke="#63b8ff" d="M603.5,-175.87C603.5,-167.75 603.5,-155.31 603.5,-144.89"/>
<polygon fill="#63b8ff" stroke="#63b8ff" points="607,-144.67 603.5,-134.67 600,-144.67 607,-144.67"/>
</a>
</g>
</g>
<!-- Node11 -->
<g id="Node000011" class="node">
<title>Node11</title>
<g id="a_Node000011"><a xlink:href="ProcessorLevelData_8h.html" target="_top" xlink:title=" ">
<polygon fill="white" stroke="#666666" points="820.5,-134.5 698.5,-134.5 698.5,-115.5 820.5,-115.5 820.5,-134.5"/>
<text text-anchor="middle" x="759.5" y="-122.5" font-family="Helvetica,sans-Serif" font-size="10.00">ProcessorLevelData.h</text>
</a>
</g>
</g>
<!-- Node8&#45;&gt;Node11 -->
<g id="edge17_Node000008_Node000011" class="edge">
<title>Node8&#45;&gt;Node11</title>
<g id="a_edge17_Node000008_Node000011"><a xlink:title=" ">
<path fill="none" stroke="#63b8ff" d="M626.18,-175.99C652.76,-166.03 696.98,-149.45 727.14,-138.13"/>
<polygon fill="#63b8ff" stroke="#63b8ff" points="728.65,-141.31 736.79,-134.52 726.2,-134.75 728.65,-141.31"/>
</a>
</g>
</g>
<!-- Node12 -->
<g id="Node000012" class="node">
<title>Node12</title>
<g id="a_Node000012"><a xlink:href="ProcessorSpectrumData_8h.html" target="_top" xlink:title=" ">
<polygon fill="white" stroke="#666666" points="982,-134.5 839,-134.5 839,-115.5 982,-115.5 982,-134.5"/>
<text text-anchor="middle" x="910.5" y="-122.5" font-family="Helvetica,sans-Serif" font-size="10.00">ProcessorSpectrumData.h</text>
</a>
</g>
</g>
<!-- Node8&#45;&gt;Node12 -->
<g id="edge19_Node000008_Node000012" class="edge">
<title>Node8&#45;&gt;Node12</title>
<g id="a_edge19_Node000008_Node000012"><a xlink:title=" ">
<path fill="none" stroke="#63b8ff" d="M648.14,-175.99C703.16,-165.51 796.63,-147.7 855.88,-136.41"/>
<polygon fill="#63b8ff" stroke="#63b8ff" points="856.64,-139.83 865.81,-134.52 855.33,-132.95 856.64,-139.83"/>
</a>
</g>
</g>
<!-- Node9&#45;&gt;Node2 -->
<g id="edge14_Node000009_Node000002" class="edge">
<title>Node9&#45;&gt;Node2</title>
<g id="a_edge14_Node000009_Node000002"><a xlink:title=" ">
<path fill="none" stroke="#63b8ff" d="M595.61,-115.47C578.13,-96.57 535.9,-50.93 513.32,-26.52"/>
<polygon fill="#63b8ff" stroke="#63b8ff" points="515.84,-24.09 506.48,-19.13 510.71,-28.85 515.84,-24.09"/>
</a>
</g>
</g>
<!-- Node10 -->
<g id="Node000010" class="node">
<title>Node10</title>
<g id="a_Node000010"><a xlink:href="AbstractProcessorData_8h.html" target="_top" xlink:title=" ">
<polygon fill="white" stroke="#666666" points="782,-74 645,-74 645,-55 782,-55 782,-74"/>
<text text-anchor="middle" x="713.5" y="-62" font-family="Helvetica,sans-Serif" font-size="10.00">AbstractProcessorData.h</text>
</a>
</g>
</g>
<!-- Node9&#45;&gt;Node10 -->
<g id="edge15_Node000009_Node000010" class="edge">
<title>Node9&#45;&gt;Node10</title>
<g id="a_edge15_Node000009_Node000010"><a xlink:title=" ">
<path fill="none" stroke="#63b8ff" d="M619.73,-115.37C637.77,-105.78 667.12,-90.17 688.18,-78.97"/>
<polygon fill="#63b8ff" stroke="#63b8ff" points="690.02,-81.95 697.2,-74.17 686.73,-75.77 690.02,-81.95"/>
</a>
</g>
</g>
<!-- Node10&#45;&gt;Node2 -->
<g id="edge16_Node000010_Node000002" class="edge">
<title>Node10&#45;&gt;Node2</title>
<g id="a_edge16_Node000010_Node000002"><a xlink:title=" ">
<path fill="none" stroke="#63b8ff" d="M678.96,-54.98C642.08,-45.89 583.51,-31.46 543.16,-21.51"/>
<polygon fill="#63b8ff" stroke="#63b8ff" points="543.86,-18.08 533.31,-19.08 542.19,-24.87 543.86,-18.08"/>
</a>
</g>
</g>
<!-- Node11&#45;&gt;Node10 -->
<g id="edge18_Node000011_Node000010" class="edge">
<title>Node11&#45;&gt;Node10</title>
<g id="a_edge18_Node000011_Node000010"><a xlink:title=" ">
<path fill="none" stroke="#63b8ff" d="M752.71,-115.37C745.85,-106.64 735.07,-92.93 726.55,-82.09"/>
<polygon fill="#63b8ff" stroke="#63b8ff" points="729.25,-79.86 720.32,-74.17 723.75,-84.19 729.25,-79.86"/>
</a>
</g>
</g>
<!-- Node12&#45;&gt;Node10 -->
<g id="edge20_Node000012_Node000010" class="edge">
<title>Node12&#45;&gt;Node10</title>
<g id="a_edge20_Node000012_Node000010"><a xlink:title=" ">
<path fill="none" stroke="#63b8ff" d="M881.85,-115.49C847.57,-105.31 790.02,-88.22 751.9,-76.9"/>
<polygon fill="#63b8ff" stroke="#63b8ff" points="752.76,-73.51 742.18,-74.02 750.77,-80.22 752.76,-73.51"/>
</a>
</g>
</g>
<!-- Node13&#45;&gt;Node2 -->
<g id="edge23_Node000013_Node000002" class="edge">
<title>Node13&#45;&gt;Node2</title>
<g id="a_edge23_Node000013_Node000002"><a xlink:title=" ">
<path fill="none" stroke="#63b8ff" d="M1017.27,-109.99C962.02,-94.94 870.44,-71.01 790.5,-55 706.31,-38.14 607.33,-24.29 548.92,-16.74"/>
<polygon fill="#63b8ff" stroke="#63b8ff" points="549.22,-13.25 538.85,-15.44 548.33,-20.19 549.22,-13.25"/>
</a>
</g>
</g>
<!-- Node14 -->
<g id="Node000014" class="node">
<title>Node14</title>
<g id="a_Node000014"><a xlink:href="AudioSelectComponent_8h.html" target="_top" xlink:title=" ">
<polygon fill="white" stroke="#666666" points="1095.5,-74 955.5,-74 955.5,-55 1095.5,-55 1095.5,-74"/>
<text text-anchor="middle" x="1025.5" y="-62" font-family="Helvetica,sans-Serif" font-size="10.00">AudioSelectComponent.h</text>
</a>
</g>
</g>
<!-- Node13&#45;&gt;Node14 -->
<g id="edge24_Node000013_Node000014" class="edge">
<title>Node13&#45;&gt;Node14</title>
<g id="a_edge24_Node000013_Node000014"><a xlink:title=" ">
<path fill="none" stroke="#63b8ff" d="M1057.33,-109.84C1051.42,-101.61 1043.94,-91.18 1037.71,-82.51"/>
<polygon fill="#63b8ff" stroke="#63b8ff" points="1040.47,-80.35 1031.79,-74.27 1034.78,-84.43 1040.47,-80.35"/>
</a>
</g>
</g>
<!-- Node14&#45;&gt;Node2 -->
<g id="edge25_Node000014_Node000002" class="edge">
<title>Node14&#45;&gt;Node2</title>
<g id="a_edge25_Node000014_Node000002"><a xlink:title=" ">
<path fill="none" stroke="#63b8ff" d="M955.25,-56.43C847.34,-45.58 643.39,-25.07 548.9,-15.57"/>
<polygon fill="#63b8ff" stroke="#63b8ff" points="549.05,-12.07 538.75,-14.55 548.35,-19.03 549.05,-12.07"/>
</a>
</g>
</g>
<!-- Node15&#45;&gt;Node2 -->
<g id="edge27_Node000015_Node000002" class="edge">
<title>Node15&#45;&gt;Node2</title>
<g id="a_edge27_Node000015_Node000002"><a xlink:title=" ">
<path fill="none" stroke="#63b8ff" d="M1098.01,-175.9C1114.19,-168.96 1133.85,-157.44 1143.5,-140 1163.63,-103.63 1140.7,-75.42 1104.5,-55 1056.65,-28 685.38,-15.48 548.75,-11.75"/>
<polygon fill="#63b8ff" stroke="#63b8ff" points="548.65,-8.24 538.56,-11.47 548.46,-15.24 548.65,-8.24"/>
</a>
</g>
</g>
<!-- Node16 -->
<g id="Node000016" class="node">
<title>Node16</title>
<g id="a_Node000016"><a xlink:title=" ">
<polygon fill="#e0e0e0" stroke="#999999" points="1324.5,-134.5 1190.5,-134.5 1190.5,-115.5 1324.5,-115.5 1324.5,-134.5"/>
<text text-anchor="middle" x="1257.5" y="-122.5" font-family="Helvetica,sans-Serif" font-size="10.00">AppConfigurationBase.h</text>
</a>
</g>
</g>
<!-- Node15&#45;&gt;Node16 -->
<g id="edge28_Node000015_Node000016" class="edge">
<title>Node15&#45;&gt;Node16</title>
<g id="a_edge28_Node000015_Node000016"><a xlink:title=" ">
<path fill="none" stroke="#63b8ff" d="M1099.4,-175.99C1131.46,-165.86 1185.18,-148.87 1220.98,-137.55"/>
<polygon fill="#63b8ff" stroke="#63b8ff" points="1222.09,-140.87 1230.57,-134.52 1219.98,-134.19 1222.09,-140.87"/>
</a>
</g>
</g>
</g>
</svg>

<g id="navigator" transform="translate(0 0)" fill="#404254">
  <rect fill="#f2f5e9" fill-opacity="0.5" stroke="#606060" stroke-width=".5" x="0" y="0" width="60" height="60"/>
  <use id="zoomplus" xlink:href="#zoomPlus" x="17" y="9" onmousedown="handleZoom(evt,'in')"/>
  <use id="zoomminus" xlink:href="#zoomMin" x="42" y="9" onmousedown="handleZoom(evt,'out')"/>
  <use id="reset" xlink:href="#resetDef" x="30" y="36" onmousedown="handleReset()"/>
   <use id="arrowup" xlink:href="#arrowUp" x="0" y="0" onmousedown="handlePan(0,-1)"/>
  <use id="arrowright" xlink:href="#arrowRight" x="0" y="0" onmousedown="handlePan(1,0)"/>
  <use id="arrowdown" xlink:href="#arrowDown" x="0" y="0" onmousedown="handlePan(0,1)"/>
  <use id="arrowleft" xlink:href="#arrowLeft" x="0" y="0" onmousedown="handlePan(-1,0)"/>
</g>
<svg viewBox="0 0 15 15" width="100%" height="30px" preserveAspectRatio="xMaxYMin meet">
 <g id="arrow_out" transform="scale(0.3 0.3)">
  <a xlink:href="SpectrumAudioComponent_8h__incl_org.svg" target="_base">
   <rect id="button" ry="5" rx="5" y="6" x="6" height="38" width="38"
        fill="#f2f5e9" fill-opacity="0.5" stroke="#606060" stroke-width="1.0"/>
   <path id="arrow"
     d="M 11.500037,31.436501 C 11.940474,20.09759 22.043105,11.32322 32.158766,21.979434 L 37.068811,17.246167 C 37.068811,17.246167 37.088388,32 37.088388,32 L 22.160133,31.978069 C 22.160133,31.978069 26.997745,27.140456 26.997745,27.140456 C 18.528582,18.264221 13.291696,25.230495 11.500037,31.436501 z"
     style="fill:#404040;"/>
  </a>
 </g>
</svg>

<style type='text/css'>
<![CDATA[
[data-mouse-over-selected='false'] { opacity: 0.7; }
[data-mouse-over-selected='true']  { opacity: 1.0; }
]]>
</style>
<script type="application/ecmascript"><![CDATA[
document.addEventListener('DOMContentLoaded', (event) => {
  highlightEdges();
  highlightAdjacentNodes();
});
]]></script>
</svg>
