<?xml version="1.0" encoding="UTF-8" standalone="no"?>
<!DOCTYPE svg PUBLIC "-//W3C//DTD SVG 1.1//EN"
 "http://www.w3.org/Graphics/SVG/1.1/DTD/svg11.dtd">
<!-- Generated by graphviz version 2.43.0 (0)
 -->
<!-- Title: Source/MemaClientCommon/SpectrumAudioComponent.cpp Pages: 1 -->
<svg width="1342pt" height="445pt"
 viewBox="0.00 0.00 1341.50 445.00" xmlns="http://www.w3.org/2000/svg" xmlns:xlink="http://www.w3.org/1999/xlink">
<g id="graph0" class="graph" transform="scale(1 1) rotate(0) translate(4 441)">
<title>Source/MemaClientCommon/SpectrumAudioComponent.cpp</title>
<!-- Node1 -->
<g id="Node000001" class="node">
<title>Node1</title>
<g id="a_Node000001"><a xlink:title=" ">
<polygon fill="#999999" stroke="#666666" points="1158.5,-437 988.5,-437 988.5,-407 1158.5,-407 1158.5,-437"/>
<text text-anchor="start" x="996.5" y="-425" font-family="Helvetica,sans-Serif" font-size="10.00">Source/MemaClientCommon</text>
<text text-anchor="middle" x="1073.5" y="-414" font-family="Helvetica,sans-Serif" font-size="10.00">/SpectrumAudioComponent.cpp</text>
</a>
</g>
</g>
<!-- Node2 -->
<g id="Node000002" class="node">
<title>Node2</title>
<g id="a_Node000002"><a xlink:href="SpectrumAudioComponent_8h.html" target="_top" xlink:title=" ">
<polygon fill="white" stroke="#666666" points="1151.5,-371 995.5,-371 995.5,-352 1151.5,-352 1151.5,-371"/>
<text text-anchor="middle" x="1073.5" y="-359" font-family="Helvetica,sans-Serif" font-size="10.00">SpectrumAudioComponent.h</text>
</a>
</g>
</g>
<!-- Node1&#45;&gt;Node2 -->
<g id="edge1_Node000001_Node000002" class="edge">
<title>Node1&#45;&gt;Node2</title>
<g id="a_edge1_Node000001_Node000002"><a xlink:title=" ">
<path fill="none" stroke="#63b8ff" d="M1073.5,-406.84C1073.5,-399.21 1073.5,-389.7 1073.5,-381.45"/>
<polygon fill="#63b8ff" stroke="#63b8ff" points="1077,-381.27 1073.5,-371.27 1070,-381.27 1077,-381.27"/>
</a>
</g>
</g>
<!-- Node7 -->
<g id="Node000007" class="node">
<title>Node7</title>
<g id="a_Node000007"><a xlink:title=" ">
<polygon fill="#e0e0e0" stroke="#999999" points="125,-134.5 0,-134.5 0,-115.5 125,-115.5 125,-134.5"/>
<text text-anchor="middle" x="62.5" y="-122.5" font-family="Helvetica,sans-Serif" font-size="10.00">CustomLookAndFeel.h</text>
</a>
</g>
</g>
<!-- Node1&#45;&gt;Node7 -->
<g id="edge32_Node000001_Node000007" class="edge">
<title>Node1&#45;&gt;Node7</title>
<g id="a_edge32_Node000001_Node000007"><a xlink:title=" ">
<path fill="none" stroke="#63b8ff" d="M988.5,-419.56C749.94,-414.4 91.5,-392 91.5,-302 91.5,-302 91.5,-302 91.5,-239.5 91.5,-204.89 78.69,-166.15 70.1,-144.05"/>
<polygon fill="#63b8ff" stroke="#63b8ff" points="73.28,-142.6 66.29,-134.64 66.79,-145.22 73.28,-142.6"/>
</a>
</g>
</g>
<!-- Node19 -->
<g id="Node000019" class="node">
<title>Node19</title>
<g id="a_Node000019"><a xlink:title=" ">
<polygon fill="#e0e0e0" stroke="#999999" points="1333.5,-371 1169.5,-371 1169.5,-352 1333.5,-352 1333.5,-371"/>
<text text-anchor="middle" x="1251.5" y="-359" font-family="Helvetica,sans-Serif" font-size="10.00">../MemaMoAppConfiguration.h</text>
</a>
</g>
</g>
<!-- Node1&#45;&gt;Node19 -->
<g id="edge31_Node000001_Node000019" class="edge">
<title>Node1&#45;&gt;Node19</title>
<g id="a_edge31_Node000001_Node000019"><a xlink:title=" ">
<path fill="none" stroke="#63b8ff" d="M1116.14,-406.99C1146.59,-396.98 1187.09,-383.67 1215.83,-374.22"/>
<polygon fill="#63b8ff" stroke="#63b8ff" points="1217.07,-377.5 1225.47,-371.05 1214.88,-370.85 1217.07,-377.5"/>
</a>
</g>
</g>
<!-- Node3 -->
<g id="Node000003" class="node">
<title>Node3</title>
<g id="a_Node000003"><a xlink:title=" ">
<polygon fill="#e0e0e0" stroke="#999999" points="917.5,-19 837.5,-19 837.5,0 917.5,0 917.5,-19"/>
<text text-anchor="middle" x="877.5" y="-7" font-family="Helvetica,sans-Serif" font-size="10.00">JuceHeader.h</text>
</a>
</g>
</g>
<!-- Node2&#45;&gt;Node3 -->
<g id="edge2_Node000002_Node000003" class="edge">
<title>Node2&#45;&gt;Node3</title>
<g id="a_edge2_Node000002_Node000003"><a xlink:title=" ">
<path fill="none" stroke="#63b8ff" d="M1145.88,-351.97C1210.67,-339.82 1295.5,-310.7 1295.5,-241.5 1295.5,-241.5 1295.5,-241.5 1295.5,-124 1295.5,-72.89 1250.78,-74.41 1203.5,-55 1111.33,-17.16 993.43,-10.23 927.64,-9.65"/>
<polygon fill="#63b8ff" stroke="#63b8ff" points="927.56,-6.15 917.54,-9.61 927.53,-13.15 927.56,-6.15"/>
</a>
</g>
</g>
<!-- Node4 -->
<g id="Node000004" class="node">
<title>Node4</title>
<g id="a_Node000004"><a xlink:href="AbstractAudioVisualizer_8h.html" target="_top" xlink:title=" ">
<polygon fill="white" stroke="#666666" points="1145.5,-316 1001.5,-316 1001.5,-286 1145.5,-286 1145.5,-316"/>
<text text-anchor="start" x="1009.5" y="-304" font-family="Helvetica,sans-Serif" font-size="10.00">../MemaProcessorEditor</text>
<text text-anchor="middle" x="1073.5" y="-293" font-family="Helvetica,sans-Serif" font-size="10.00">/AbstractAudioVisualizer.h</text>
</a>
</g>
</g>
<!-- Node2&#45;&gt;Node4 -->
<g id="edge3_Node000002_Node000004" class="edge">
<title>Node2&#45;&gt;Node4</title>
<g id="a_edge3_Node000002_Node000004"><a xlink:title=" ">
<path fill="none" stroke="#63b8ff" d="M1073.5,-351.87C1073.5,-345.11 1073.5,-335.35 1073.5,-326.26"/>
<polygon fill="#63b8ff" stroke="#63b8ff" points="1077,-326.11 1073.5,-316.11 1070,-326.11 1077,-326.11"/>
</a>
</g>
</g>
<!-- Node4&#45;&gt;Node3 -->
<g id="edge4_Node000004_Node000003" class="edge">
<title>Node4&#45;&gt;Node3</title>
<g id="a_edge4_Node000004_Node000003"><a xlink:title=" ">
<path fill="none" stroke="#63b8ff" d="M1144.64,-285.95C1196.42,-271.11 1257.5,-241.86 1257.5,-186.5 1257.5,-186.5 1257.5,-186.5 1257.5,-124 1257.5,-71.09 1209.49,-74.97 1160.5,-55 1083.38,-23.56 986.07,-14.21 927.98,-11.5"/>
<polygon fill="#63b8ff" stroke="#63b8ff" points="928.09,-8.01 917.95,-11.09 927.8,-15 928.09,-8.01"/>
</a>
</g>
</g>
<!-- Node5 -->
<g id="Node000005" class="node">
<title>Node5</title>
<g id="a_Node000005"><a xlink:href="MemaProcessor_8h.html" target="_top" xlink:title=" ">
<polygon fill="white" stroke="#666666" points="997,-250 804,-250 804,-231 997,-231 997,-250"/>
<text text-anchor="middle" x="900.5" y="-238" font-family="Helvetica,sans-Serif" font-size="10.00">../MemaProcessor/MemaProcessor.h</text>
</a>
</g>
</g>
<!-- Node4&#45;&gt;Node5 -->
<g id="edge5_Node000004_Node000005" class="edge">
<title>Node4&#45;&gt;Node5</title>
<g id="a_edge5_Node000004_Node000005"><a xlink:title=" ">
<path fill="none" stroke="#63b8ff" d="M1032.06,-285.99C1002.59,-276.02 963.44,-262.78 935.53,-253.35"/>
<polygon fill="#63b8ff" stroke="#63b8ff" points="936.39,-249.94 925.8,-250.05 934.15,-256.57 936.39,-249.94"/>
</a>
</g>
</g>
<!-- Node5&#45;&gt;Node3 -->
<g id="edge6_Node000005_Node000003" class="edge">
<title>Node5&#45;&gt;Node3</title>
<g id="a_edge6_Node000005_Node000003"><a xlink:title=" ">
<path fill="none" stroke="#63b8ff" d="M997.08,-238.33C1074.25,-235.1 1173.63,-225.01 1199.5,-195 1244.67,-142.61 1191.76,-88.97 1131.5,-55 1097.47,-35.81 991.78,-22.1 927.96,-15.32"/>
<polygon fill="#63b8ff" stroke="#63b8ff" points="928.02,-11.81 917.71,-14.25 927.29,-18.77 928.02,-11.81"/>
</a>
</g>
</g>
<!-- Node6 -->
<g id="Node000006" class="node">
<title>Node6</title>
<g id="a_Node000006"><a xlink:href="MemaMessages_8h.html" target="_top" xlink:title=" ">
<polygon fill="white" stroke="#666666" points="283,-195 178,-195 178,-176 283,-176 283,-195"/>
<text text-anchor="middle" x="230.5" y="-183" font-family="Helvetica,sans-Serif" font-size="10.00">MemaMessages.h</text>
</a>
</g>
</g>
<!-- Node5&#45;&gt;Node6 -->
<g id="edge7_Node000005_Node000006" class="edge">
<title>Node5&#45;&gt;Node6</title>
<g id="a_edge7_Node000005_Node000006"><a xlink:title=" ">
<path fill="none" stroke="#63b8ff" d="M803.79,-231.85C664.49,-220.83 411.21,-200.8 293.62,-191.49"/>
<polygon fill="#63b8ff" stroke="#63b8ff" points="293.59,-187.98 283.35,-190.68 293.04,-194.96 293.59,-187.98"/>
</a>
</g>
</g>
<!-- Node8 -->
<g id="Node000008" class="node">
<title>Node8</title>
<g id="a_Node000008"><a xlink:href="MemaPluginParameterInfo_8h.html" target="_top" xlink:title=" ">
<polygon fill="white" stroke="#666666" points="337,-134.5 182,-134.5 182,-115.5 337,-115.5 337,-134.5"/>
<text text-anchor="middle" x="259.5" y="-122.5" font-family="Helvetica,sans-Serif" font-size="10.00">MemaPluginParameterInfo.h</text>
</a>
</g>
</g>
<!-- Node5&#45;&gt;Node8 -->
<g id="edge22_Node000005_Node000008" class="edge">
<title>Node5&#45;&gt;Node8</title>
<g id="a_edge22_Node000005_Node000008"><a xlink:title=" ">
<path fill="none" stroke="#63b8ff" d="M852.32,-230.97C736.64,-210.49 443.49,-158.58 317.98,-136.35"/>
<polygon fill="#63b8ff" stroke="#63b8ff" points="318.26,-132.85 307.8,-134.55 317.04,-139.74 318.26,-132.85"/>
</a>
</g>
</g>
<!-- Node9 -->
<g id="Node000009" class="node">
<title>Node9</title>
<g id="a_Node000009"><a xlink:href="ProcessorDataAnalyzer_8h.html" target="_top" xlink:title=" ">
<polygon fill="white" stroke="#666666" points="819.5,-195 681.5,-195 681.5,-176 819.5,-176 819.5,-195"/>
<text text-anchor="middle" x="750.5" y="-183" font-family="Helvetica,sans-Serif" font-size="10.00">ProcessorDataAnalyzer.h</text>
</a>
</g>
</g>
<!-- Node5&#45;&gt;Node9 -->
<g id="edge12_Node000005_Node000009" class="edge">
<title>Node5&#45;&gt;Node9</title>
<g id="a_edge12_Node000005_Node000009"><a xlink:title=" ">
<path fill="none" stroke="#63b8ff" d="M876.4,-230.98C851.62,-222.23 812.8,-208.51 784.81,-198.62"/>
<polygon fill="#63b8ff" stroke="#63b8ff" points="785.63,-195.2 775.04,-195.17 783.3,-201.8 785.63,-195.2"/>
</a>
</g>
</g>
<!-- Node14 -->
<g id="Node000014" class="node">
<title>Node14</title>
<g id="a_Node000014"><a xlink:href="MemaProcessorEditor_8h.html" target="_top" xlink:title=" ">
<polygon fill="white" stroke="#666666" points="1001.5,-140 867.5,-140 867.5,-110 1001.5,-110 1001.5,-140"/>
<text text-anchor="start" x="875.5" y="-128" font-family="Helvetica,sans-Serif" font-size="10.00">../MemaProcessorEditor</text>
<text text-anchor="middle" x="934.5" y="-117" font-family="Helvetica,sans-Serif" font-size="10.00">/MemaProcessorEditor.h</text>
</a>
</g>
</g>
<!-- Node5&#45;&gt;Node14 -->
<g id="edge23_Node000005_Node000014" class="edge">
<title>Node5&#45;&gt;Node14</title>
<g id="a_edge23_Node000005_Node000014"><a xlink:title=" ">
<path fill="none" stroke="#63b8ff" d="M890.42,-230.91C877.41,-218.75 857.59,-195.77 867.5,-176 873.72,-163.59 884.64,-153.48 895.89,-145.68"/>
<polygon fill="#63b8ff" stroke="#63b8ff" points="897.95,-148.51 904.47,-140.16 894.17,-142.62 897.95,-148.51"/>
</a>
</g>
</g>
<!-- Node16 -->
<g id="Node000016" class="node">
<title>Node16</title>
<g id="a_Node000016"><a xlink:href="MemaAppConfiguration_8h.html" target="_top" xlink:title=" ">
<polygon fill="white" stroke="#666666" points="1026,-195 877,-195 877,-176 1026,-176 1026,-195"/>
<text text-anchor="middle" x="951.5" y="-183" font-family="Helvetica,sans-Serif" font-size="10.00">../MemaAppConfiguration.h</text>
</a>
</g>
</g>
<!-- Node5&#45;&gt;Node16 -->
<g id="edge27_Node000005_Node000016" class="edge">
<title>Node5&#45;&gt;Node16</title>
<g id="a_edge27_Node000005_Node000016"><a xlink:title=" ">
<path fill="none" stroke="#63b8ff" d="M908.92,-230.75C916.27,-223.11 927.13,-211.82 936.04,-202.56"/>
<polygon fill="#63b8ff" stroke="#63b8ff" points="938.82,-204.72 943.24,-195.09 933.78,-199.87 938.82,-204.72"/>
</a>
</g>
</g>
<!-- Node18 -->
<g id="Node000018" class="node">
<title>Node18</title>
<g id="a_Node000018"><a xlink:title=" ">
<polygon fill="#e0e0e0" stroke="#999999" points="1191,-195 1044,-195 1044,-176 1191,-176 1191,-195"/>
<text text-anchor="middle" x="1117.5" y="-183" font-family="Helvetica,sans-Serif" font-size="10.00">ServiceTopologyManager.h</text>
</a>
</g>
</g>
<!-- Node5&#45;&gt;Node18 -->
<g id="edge30_Node000005_Node000018" class="edge">
<title>Node5&#45;&gt;Node18</title>
<g id="a_edge30_Node000005_Node000018"><a xlink:title=" ">
<path fill="none" stroke="#63b8ff" d="M935.36,-230.98C972.59,-221.89 1031.7,-207.46 1072.43,-197.51"/>
<polygon fill="#63b8ff" stroke="#63b8ff" points="1073.48,-200.85 1082.36,-195.08 1071.82,-194.05 1073.48,-200.85"/>
</a>
</g>
</g>
<!-- Node6&#45;&gt;Node3 -->
<g id="edge8_Node000006_Node000003" class="edge">
<title>Node6&#45;&gt;Node3</title>
<g id="a_edge8_Node000006_Node000003"><a xlink:title=" ">
<path fill="none" stroke="#63b8ff" d="M211.83,-175.97C198.17,-168.59 180.64,-156.5 172.5,-140 166.6,-128.04 164.05,-120.31 172.5,-110 214.15,-59.19 672.91,-24.15 827.21,-13.73"/>
<polygon fill="#63b8ff" stroke="#63b8ff" points="827.61,-17.21 837.35,-13.05 827.14,-10.22 827.61,-17.21"/>
</a>
</g>
</g>
<!-- Node6&#45;&gt;Node7 -->
<g id="edge9_Node000006_Node000007" class="edge">
<title>Node6&#45;&gt;Node7</title>
<g id="a_edge9_Node000006_Node000007"><a xlink:title=" ">
<path fill="none" stroke="#63b8ff" d="M206.07,-175.99C177.21,-165.94 129,-149.16 96.5,-137.84"/>
<polygon fill="#63b8ff" stroke="#63b8ff" points="97.55,-134.5 86.96,-134.52 95.25,-141.11 97.55,-134.5"/>
</a>
</g>
</g>
<!-- Node6&#45;&gt;Node8 -->
<g id="edge10_Node000006_Node000008" class="edge">
<title>Node6&#45;&gt;Node8</title>
<g id="a_edge10_Node000006_Node000008"><a xlink:title=" ">
<path fill="none" stroke="#63b8ff" d="M234.78,-175.87C238.93,-167.49 245.37,-154.51 250.63,-143.89"/>
<polygon fill="#63b8ff" stroke="#63b8ff" points="253.9,-145.18 255.2,-134.67 247.63,-142.07 253.9,-145.18"/>
</a>
</g>
</g>
<!-- Node8&#45;&gt;Node3 -->
<g id="edge11_Node000008_Node000003" class="edge">
<title>Node8&#45;&gt;Node3</title>
<g id="a_edge11_Node000008_Node000003"><a xlink:title=" ">
<path fill="none" stroke="#63b8ff" d="M288.95,-115.4C339.01,-101.06 444.07,-72.15 534.5,-55 637.68,-35.43 759.97,-21.83 827.1,-15.18"/>
<polygon fill="#63b8ff" stroke="#63b8ff" points="827.78,-18.63 837.39,-14.17 827.09,-11.66 827.78,-18.63"/>
</a>
</g>
</g>
<!-- Node9&#45;&gt;Node3 -->
<g id="edge13_Node000009_Node000003" class="edge">
<title>Node9&#45;&gt;Node3</title>
<g id="a_edge13_Node000009_Node000003"><a xlink:title=" ">
<path fill="none" stroke="#63b8ff" d="M770.26,-175.9C785.67,-168.35 806.71,-156.06 820.5,-140 849.34,-106.42 865.82,-55.96 873.05,-29.02"/>
<polygon fill="#63b8ff" stroke="#63b8ff" points="876.44,-29.88 875.52,-19.32 869.66,-28.15 876.44,-29.88"/>
</a>
</g>
</g>
<!-- Node10 -->
<g id="Node000010" class="node">
<title>Node10</title>
<g id="a_Node000010"><a xlink:href="ProcessorAudioSignalData_8h.html" target="_top" xlink:title=" ">
<polygon fill="white" stroke="#666666" points="509.5,-134.5 355.5,-134.5 355.5,-115.5 509.5,-115.5 509.5,-134.5"/>
<text text-anchor="middle" x="432.5" y="-122.5" font-family="Helvetica,sans-Serif" font-size="10.00">ProcessorAudioSignalData.h</text>
</a>
</g>
</g>
<!-- Node9&#45;&gt;Node10 -->
<g id="edge14_Node000009_Node000010" class="edge">
<title>Node9&#45;&gt;Node10</title>
<g id="a_edge14_Node000009_Node000010"><a xlink:title=" ">
<path fill="none" stroke="#63b8ff" d="M704.26,-175.99C647.15,-165.49 550.05,-147.62 488.7,-136.34"/>
<polygon fill="#63b8ff" stroke="#63b8ff" points="489.26,-132.88 478.8,-134.52 488,-139.77 489.26,-132.88"/>
</a>
</g>
</g>
<!-- Node12 -->
<g id="Node000012" class="node">
<title>Node12</title>
<g id="a_Node000012"><a xlink:href="ProcessorLevelData_8h.html" target="_top" xlink:title=" ">
<polygon fill="white" stroke="#666666" points="811.5,-134.5 689.5,-134.5 689.5,-115.5 811.5,-115.5 811.5,-134.5"/>
<text text-anchor="middle" x="750.5" y="-122.5" font-family="Helvetica,sans-Serif" font-size="10.00">ProcessorLevelData.h</text>
</a>
</g>
</g>
<!-- Node9&#45;&gt;Node12 -->
<g id="edge18_Node000009_Node000012" class="edge">
<title>Node9&#45;&gt;Node12</title>
<g id="a_edge18_Node000009_Node000012"><a xlink:title=" ">
<path fill="none" stroke="#63b8ff" d="M750.5,-175.87C750.5,-167.75 750.5,-155.31 750.5,-144.89"/>
<polygon fill="#63b8ff" stroke="#63b8ff" points="754,-144.67 750.5,-134.67 747,-144.67 754,-144.67"/>
</a>
</g>
</g>
<!-- Node13 -->
<g id="Node000013" class="node">
<title>Node13</title>
<g id="a_Node000013"><a xlink:href="ProcessorSpectrumData_8h.html" target="_top" xlink:title=" ">
<polygon fill="white" stroke="#666666" points="671,-134.5 528,-134.5 528,-115.5 671,-115.5 671,-134.5"/>
<text text-anchor="middle" x="599.5" y="-122.5" font-family="Helvetica,sans-Serif" font-size="10.00">ProcessorSpectrumData.h</text>
</a>
</g>
</g>
<!-- Node9&#45;&gt;Node13 -->
<g id="edge20_Node000009_Node000013" class="edge">
<title>Node9&#45;&gt;Node13</title>
<g id="a_edge20_Node000009_Node000013"><a xlink:title=" ">
<path fill="none" stroke="#63b8ff" d="M728.54,-175.99C702.82,-166.03 660.02,-149.45 630.82,-138.13"/>
<polygon fill="#63b8ff" stroke="#63b8ff" points="632.07,-134.87 621.48,-134.52 629.54,-141.39 632.07,-134.87"/>
</a>
</g>
</g>
<!-- Node10&#45;&gt;Node3 -->
<g id="edge15_Node000010_Node000003" class="edge">
<title>Node10&#45;&gt;Node3</title>
<g id="a_edge15_Node000010_Node000003"><a xlink:title=" ">
<path fill="none" stroke="#63b8ff" d="M448.8,-115.32C477.18,-100.59 537.86,-70.77 592.5,-55 672.67,-31.86 769.22,-19.99 826.86,-14.52"/>
<polygon fill="#63b8ff" stroke="#63b8ff" points="827.52,-17.98 837.16,-13.57 826.88,-11.01 827.52,-17.98"/>
</a>
</g>
</g>
<!-- Node11 -->
<g id="Node000011" class="node">
<title>Node11</title>
<g id="a_Node000011"><a xlink:href="AbstractProcessorData_8h.html" target="_top" xlink:title=" ">
<polygon fill="white" stroke="#666666" points="739,-74 602,-74 602,-55 739,-55 739,-74"/>
<text text-anchor="middle" x="670.5" y="-62" font-family="Helvetica,sans-Serif" font-size="10.00">AbstractProcessorData.h</text>
</a>
</g>
</g>
<!-- Node10&#45;&gt;Node11 -->
<g id="edge16_Node000010_Node000011" class="edge">
<title>Node10&#45;&gt;Node11</title>
<g id="a_edge16_Node000010_Node000011"><a xlink:title=" ">
<path fill="none" stroke="#63b8ff" d="M467.11,-115.49C509.06,-105.18 579.84,-87.78 625.86,-76.47"/>
<polygon fill="#63b8ff" stroke="#63b8ff" points="626.98,-79.8 635.85,-74.02 625.3,-73 626.98,-79.8"/>
</a>
</g>
</g>
<!-- Node11&#45;&gt;Node3 -->
<g id="edge17_Node000011_Node000003" class="edge">
<title>Node11&#45;&gt;Node3</title>
<g id="a_edge17_Node000011_Node000003"><a xlink:title=" ">
<path fill="none" stroke="#63b8ff" d="M703.76,-54.98C739.11,-45.93 795.17,-31.58 834.01,-21.64"/>
<polygon fill="#63b8ff" stroke="#63b8ff" points="835.16,-24.95 843.98,-19.08 833.43,-18.17 835.16,-24.95"/>
</a>
</g>
</g>
<!-- Node12&#45;&gt;Node11 -->
<g id="edge19_Node000012_Node000011" class="edge">
<title>Node12&#45;&gt;Node11</title>
<g id="a_edge19_Node000012_Node000011"><a xlink:title=" ">
<path fill="none" stroke="#63b8ff" d="M738.7,-115.37C726.05,-106.12 705.76,-91.28 690.59,-80.19"/>
<polygon fill="#63b8ff" stroke="#63b8ff" points="692.49,-77.24 682.35,-74.17 688.36,-82.9 692.49,-77.24"/>
</a>
</g>
</g>
<!-- Node13&#45;&gt;Node11 -->
<g id="edge21_Node000013_Node000011" class="edge">
<title>Node13&#45;&gt;Node11</title>
<g id="a_edge21_Node000013_Node000011"><a xlink:title=" ">
<path fill="none" stroke="#63b8ff" d="M609.98,-115.37C620.99,-106.3 638.54,-91.84 651.91,-80.82"/>
<polygon fill="#63b8ff" stroke="#63b8ff" points="654.49,-83.23 659.98,-74.17 650.04,-77.83 654.49,-83.23"/>
</a>
</g>
</g>
<!-- Node14&#45;&gt;Node3 -->
<g id="edge24_Node000014_Node000003" class="edge">
<title>Node14&#45;&gt;Node3</title>
<g id="a_edge24_Node000014_Node000003"><a xlink:title=" ">
<path fill="none" stroke="#63b8ff" d="M921.35,-109.63C913.22,-100.11 903.12,-87.02 896.5,-74 889.24,-59.72 884.26,-42.19 881.22,-29.17"/>
<polygon fill="#63b8ff" stroke="#63b8ff" points="884.58,-28.12 879.05,-19.08 877.73,-29.6 884.58,-28.12"/>
</a>
</g>
</g>
<!-- Node15 -->
<g id="Node000015" class="node">
<title>Node15</title>
<g id="a_Node000015"><a xlink:href="AudioSelectComponent_8h.html" target="_top" xlink:title=" ">
<polygon fill="white" stroke="#666666" points="1045.5,-74 905.5,-74 905.5,-55 1045.5,-55 1045.5,-74"/>
<text text-anchor="middle" x="975.5" y="-62" font-family="Helvetica,sans-Serif" font-size="10.00">AudioSelectComponent.h</text>
</a>
</g>
</g>
<!-- Node14&#45;&gt;Node15 -->
<g id="edge25_Node000014_Node000015" class="edge">
<title>Node14&#45;&gt;Node15</title>
<g id="a_edge25_Node000014_Node000015"><a xlink:title=" ">
<path fill="none" stroke="#63b8ff" d="M944.42,-109.84C950.19,-101.61 957.5,-91.18 963.58,-82.51"/>
<polygon fill="#63b8ff" stroke="#63b8ff" points="966.48,-84.46 969.36,-74.27 960.75,-80.45 966.48,-84.46"/>
</a>
</g>
</g>
<!-- Node15&#45;&gt;Node3 -->
<g id="edge26_Node000015_Node000003" class="edge">
<title>Node15&#45;&gt;Node3</title>
<g id="a_edge26_Node000015_Node000003"><a xlink:title=" ">
<path fill="none" stroke="#63b8ff" d="M959.75,-54.98C944.27,-46.61 920.41,-33.7 902.36,-23.95"/>
<polygon fill="#63b8ff" stroke="#63b8ff" points="903.99,-20.85 893.53,-19.17 900.66,-27.01 903.99,-20.85"/>
</a>
</g>
</g>
<!-- Node16&#45;&gt;Node3 -->
<g id="edge28_Node000016_Node000003" class="edge">
<title>Node16&#45;&gt;Node3</title>
<g id="a_edge28_Node000016_Node000003"><a xlink:title=" ">
<path fill="none" stroke="#63b8ff" d="M1010.19,-175.97C1069.21,-166.79 1152.85,-151.9 1162.5,-140 1170.9,-129.64 1169.47,-121.37 1162.5,-110 1113.85,-30.63 995.5,-13.5 927.6,-10.45"/>
<polygon fill="#63b8ff" stroke="#63b8ff" points="927.67,-6.95 917.55,-10.09 927.42,-13.95 927.67,-6.95"/>
</a>
</g>
</g>
<!-- Node17 -->
<g id="Node000017" class="node">
<title>Node17</title>
<g id="a_Node000017"><a xlink:title=" ">
<polygon fill="#e0e0e0" stroke="#999999" points="1153.5,-134.5 1019.5,-134.5 1019.5,-115.5 1153.5,-115.5 1153.5,-134.5"/>
<text text-anchor="middle" x="1086.5" y="-122.5" font-family="Helvetica,sans-Serif" font-size="10.00">AppConfigurationBase.h</text>
</a>
</g>
</g>
<!-- Node16&#45;&gt;Node17 -->
<g id="edge29_Node000016_Node000017" class="edge">
<title>Node16&#45;&gt;Node17</title>
<g id="a_edge29_Node000016_Node000017"><a xlink:title=" ">
<path fill="none" stroke="#63b8ff" d="M971.13,-175.99C993.83,-166.16 1031.4,-149.88 1057.47,-138.58"/>
<polygon fill="#63b8ff" stroke="#63b8ff" points="1059.06,-141.7 1066.85,-134.52 1056.28,-135.28 1059.06,-141.7"/>
</a>
</g>
</g>
</g>
</svg>
