<?xml version="1.0" encoding="UTF-8" standalone="no"?>
<!DOCTYPE svg PUBLIC "-//W3C//DTD SVG 1.1//EN"
 "http://www.w3.org/Graphics/SVG/1.1/DTD/svg11.dtd">
<!-- Generated by graphviz version 2.43.0 (0)
 -->
<!-- Title: Source/MemaClientCommon/TwoDFieldOutputComponent.h Pages: 1 -->
<!--zoomable 390 -->

<svg id="main" version="1.1" xmlns="http://www.w3.org/2000/svg" xmlns:xlink="http://www.w3.org/1999/xlink" xml:space="preserve" onload="init(evt)">
<style type="text/css"><![CDATA[
.node, .edge {opacity: 0.7;}
.node.selected, .edge.selected {opacity: 1;}
.edge:hover path { stroke: red; }
.edge:hover polygon { stroke: red; fill: red; }
]]></style>

<defs>
  <circle id="rim" cx="0" cy="0" r="7"/>
  <circle id="rim2" cx="0" cy="0" r="3.5"/>
  <g id="zoomPlus">
    <use xlink:href="#rim" fill="#404040"><set attributeName="fill" to="#808080" begin="zoomplus.mouseover" end="zoomplus.mouseout"/></use>
    <path d="M-4,0h8M0,-4v8" fill="none" stroke="white" stroke-width="1.5" pointer-events="none"/>
  </g>
  <g id="zoomMin">
    <use xlink:href="#rim" fill="#404040"><set attributeName="fill" to="#808080" begin="zoomminus.mouseover" end="zoomminus.mouseout"/></use>
    <path d="M-4,0h8" fill="none" stroke="white" stroke-width="1.5" pointer-events="none"/>
  </g>
  <g id="arrowUp" transform="translate(30 24)">
    <use xlink:href="#rim"/>
    <path pointer-events="none" fill="none" stroke="white" stroke-width="1.5" d="M0,-3.0v7 M-2.5,-0.5L0,-3.0L2.5,-0.5"/>
  </g>
  <g id="arrowRight" transform="rotate(90) translate(36 -43)">
    <use xlink:href="#rim"/>
    <path pointer-events="none" fill="none" stroke="white" stroke-width="1.5" d="M0,-3.0v7 M-2.5,-0.5L0,-3.0L2.5,-0.5"/>
  </g>
  <g id="arrowDown" transform="rotate(180) translate(-30 -48)">
    <use xlink:href="#rim"/>
    <path pointer-events="none" fill="none" stroke="white" stroke-width="1.5" d="M0,-3.0v7 M-2.5,-0.5L0,-3.0L2.5,-0.5"/>
  </g>
  <g id="arrowLeft" transform="rotate(270) translate(-36 17)">
    <use xlink:href="#rim"/>
    <path pointer-events="none" fill="none" stroke="white" stroke-width="1.5" d="M0,-3.0v7 M-2.5,-0.5L0,-3.0L2.5,-0.5"/>
  </g>
  <g id="resetDef">
    <use xlink:href="#rim2" fill="#404040"><set attributeName="fill" to="#808080" begin="reset.mouseover" end="reset.mouseout"/></use>
  </g>
</defs>
<script type="application/ecmascript">
var viewWidth = 1303;
var viewHeight = 390;
var sectionId = 'dynsection-0';
</script>
<script type="application/ecmascript" xlink:href="svg.min.js"/>
<svg id="graph" class="graph">
<g id="viewport">
<title>Source/MemaClientCommon/TwoDFieldOutputComponent.h</title>
<!-- Node1 -->
<g id="Node000001" class="node">
<title>Node1</title>
<g id="a_Node000001"><a xlink:title=" ">
<polygon fill="#999999" stroke="#666666" points="183.81,-382 16.81,-382 16.81,-352 183.81,-352 183.81,-382"/>
<text text-anchor="start" x="24.81" y="-370" font-family="Helvetica,sans-Serif" font-size="10.00">Source/MemaClientCommon</text>
<text text-anchor="middle" x="100.31" y="-359" font-family="Helvetica,sans-Serif" font-size="10.00">/TwoDFieldOutputComponent.h</text>
</a>
</g>
</g>
<!-- Node2 -->
<g id="Node000002" class="node">
<title>Node2</title>
<g id="a_Node000002"><a xlink:title=" ">
<polygon fill="#e0e0e0" stroke="#999999" points="509.31,-19 429.31,-19 429.31,0 509.31,0 509.31,-19"/>
<text text-anchor="middle" x="469.31" y="-7" font-family="Helvetica,sans-Serif" font-size="10.00">JuceHeader.h</text>
</a>
</g>
</g>
<!-- Node1&#45;&gt;Node2 -->
<g id="edge1_Node000001_Node000002" class="edge">
<title>Node1&#45;&gt;Node2</title>
<g id="a_edge1_Node000001_Node000002"><a xlink:title=" ">
<path fill="none" stroke="#63b8ff" d="M65.55,-351.98C49.28,-343.77 30.95,-331.85 19.31,-316 -0.93,-288.46 0.31,-275.67 0.31,-241.5 0.31,-241.5 0.31,-241.5 0.31,-124 0.31,-80.63 30.22,-73.79 69.31,-55 130.01,-25.82 326.11,-15.35 419.27,-11.96"/>
<polygon fill="#63b8ff" stroke="#63b8ff" points="419.43,-15.46 429.3,-11.61 419.18,-8.46 419.43,-15.46"/>
</a>
</g>
</g>
<!-- Node3 -->
<g id="Node000003" class="node">
<title>Node3</title>
<g id="a_Node000003"><a xlink:href="AbstractAudioVisualizer_8h.html" target="_top" xlink:title=" ">
<polygon fill="white" stroke="#666666" points="172.31,-316 28.31,-316 28.31,-286 172.31,-286 172.31,-316"/>
<text text-anchor="start" x="36.31" y="-304" font-family="Helvetica,sans-Serif" font-size="10.00">../MemaProcessorEditor</text>
<text text-anchor="middle" x="100.31" y="-293" font-family="Helvetica,sans-Serif" font-size="10.00">/AbstractAudioVisualizer.h</text>
</a>
</g>
</g>
<!-- Node1&#45;&gt;Node3 -->
<g id="edge2_Node000001_Node000003" class="edge">
<title>Node1&#45;&gt;Node3</title>
<g id="a_edge2_Node000001_Node000003"><a xlink:title=" ">
<path fill="none" stroke="#63b8ff" d="M100.31,-351.8C100.31,-344.34 100.31,-334.99 100.31,-326.41"/>
<polygon fill="#63b8ff" stroke="#63b8ff" points="103.81,-326.16 100.31,-316.16 96.81,-326.16 103.81,-326.16"/>
</a>
</g>
</g>
<!-- Node18 -->
<g id="Node000018" class="node">
<title>Node18</title>
<g id="a_Node000018"><a xlink:title=" ">
<polygon fill="#e0e0e0" stroke="#999999" points="289.81,-310.5 190.81,-310.5 190.81,-291.5 289.81,-291.5 289.81,-310.5"/>
<text text-anchor="middle" x="240.31" y="-298.5" font-family="Helvetica,sans-Serif" font-size="10.00">TwoDFieldBase.h</text>
</a>
</g>
</g>
<!-- Node1&#45;&gt;Node18 -->
<g id="edge30_Node000001_Node000018" class="edge">
<title>Node1&#45;&gt;Node18</title>
<g id="a_edge30_Node000001_Node000018"><a xlink:title=" ">
<path fill="none" stroke="#63b8ff" d="M131.03,-351.95C155.26,-340.88 188.77,-325.56 212.27,-314.82"/>
<polygon fill="#63b8ff" stroke="#63b8ff" points="214.04,-317.86 221.68,-310.52 211.13,-311.49 214.04,-317.86"/>
</a>
</g>
</g>
<!-- Node3&#45;&gt;Node2 -->
<g id="edge3_Node000003_Node000002" class="edge">
<title>Node3&#45;&gt;Node2</title>
<g id="a_edge3_Node000003_Node000002"><a xlink:title=" ">
<path fill="none" stroke="#63b8ff" d="M86.55,-285.94C68.28,-265.73 38.31,-226.47 38.31,-186.5 38.31,-186.5 38.31,-186.5 38.31,-124 38.31,-76.03 77.32,-74.14 121.31,-55 173.6,-32.25 335.56,-18.97 418.8,-13.48"/>
<polygon fill="#63b8ff" stroke="#63b8ff" points="419.28,-16.96 429.03,-12.82 418.82,-9.97 419.28,-16.96"/>
</a>
</g>
</g>
<!-- Node4 -->
<g id="Node000004" class="node">
<title>Node4</title>
<g id="a_Node000004"><a xlink:href="MemaProcessor_8h.html" target="_top" xlink:title=" ">
<polygon fill="white" stroke="#666666" points="617.81,-250 424.81,-250 424.81,-231 617.81,-231 617.81,-250"/>
<text text-anchor="middle" x="521.31" y="-238" font-family="Helvetica,sans-Serif" font-size="10.00">../MemaProcessor/MemaProcessor.h</text>
</a>
</g>
</g>
<!-- Node3&#45;&gt;Node4 -->
<g id="edge4_Node000003_Node000004" class="edge">
<title>Node3&#45;&gt;Node4</title>
<g id="a_edge4_Node000003_Node000004"><a xlink:title=" ">
<path fill="none" stroke="#63b8ff" d="M172.71,-287.34C175.61,-286.88 178.49,-286.43 181.31,-286 269.38,-272.63 370.66,-259.69 439.62,-251.24"/>
<polygon fill="#63b8ff" stroke="#63b8ff" points="440.05,-254.71 449.55,-250.02 439.2,-247.76 440.05,-254.71"/>
</a>
</g>
</g>
<!-- Node4&#45;&gt;Node2 -->
<g id="edge5_Node000004_Node000002" class="edge">
<title>Node4&#45;&gt;Node2</title>
<g id="a_edge5_Node000004_Node000002"><a xlink:title=" ">
<path fill="none" stroke="#63b8ff" d="M429.26,-230.99C321.83,-218.76 154.68,-191.75 122.31,-140 53.7,-30.3 307.33,-13.04 419.01,-10.68"/>
<polygon fill="#63b8ff" stroke="#63b8ff" points="419.11,-14.18 429.05,-10.5 418.98,-7.18 419.11,-14.18"/>
</a>
</g>
</g>
<!-- Node5 -->
<g id="Node000005" class="node">
<title>Node5</title>
<g id="a_Node000005"><a xlink:href="MemaMessages_8h.html" target="_top" xlink:title=" ">
<polygon fill="white" stroke="#666666" points="349.81,-195 244.81,-195 244.81,-176 349.81,-176 349.81,-195"/>
<text text-anchor="middle" x="297.31" y="-183" font-family="Helvetica,sans-Serif" font-size="10.00">MemaMessages.h</text>
</a>
</g>
</g>
<!-- Node4&#45;&gt;Node5 -->
<g id="edge6_Node000004_Node000005" class="edge">
<title>Node4&#45;&gt;Node5</title>
<g id="a_edge6_Node000004_Node000005"><a xlink:title=" ">
<path fill="none" stroke="#63b8ff" d="M485.32,-230.98C446.82,-221.87 385.62,-207.4 343.57,-197.45"/>
<polygon fill="#63b8ff" stroke="#63b8ff" points="344.12,-193.98 333.58,-195.08 342.51,-200.79 344.12,-193.98"/>
</a>
</g>
</g>
<!-- Node7 -->
<g id="Node000007" class="node">
<title>Node7</title>
<g id="a_Node000007"><a xlink:href="MemaPluginParameterInfo_8h.html" target="_top" xlink:title=" ">
<polygon fill="white" stroke="#666666" points="440.81,-134.5 285.81,-134.5 285.81,-115.5 440.81,-115.5 440.81,-134.5"/>
<text text-anchor="middle" x="363.31" y="-122.5" font-family="Helvetica,sans-Serif" font-size="10.00">MemaPluginParameterInfo.h</text>
</a>
</g>
</g>
<!-- Node4&#45;&gt;Node7 -->
<g id="edge21_Node000004_Node000007" class="edge">
<title>Node4&#45;&gt;Node7</title>
<g id="a_edge21_Node000004_Node000007"><a xlink:title=" ">
<path fill="none" stroke="#63b8ff" d="M509.43,-230.97C482.67,-211.74 417.37,-164.83 383.87,-140.77"/>
<polygon fill="#63b8ff" stroke="#63b8ff" points="385.49,-137.62 375.32,-134.63 381.4,-143.31 385.49,-137.62"/>
</a>
</g>
</g>
<!-- Node8 -->
<g id="Node000008" class="node">
<title>Node8</title>
<g id="a_Node000008"><a xlink:href="ProcessorDataAnalyzer_8h.html" target="_top" xlink:title=" ">
<polygon fill="white" stroke="#666666" points="643.31,-195 505.31,-195 505.31,-176 643.31,-176 643.31,-195"/>
<text text-anchor="middle" x="574.31" y="-183" font-family="Helvetica,sans-Serif" font-size="10.00">ProcessorDataAnalyzer.h</text>
</a>
</g>
</g>
<!-- Node4&#45;&gt;Node8 -->
<g id="edge11_Node000004_Node000008" class="edge">
<title>Node4&#45;&gt;Node8</title>
<g id="a_edge11_Node000004_Node000008"><a xlink:title=" ">
<path fill="none" stroke="#63b8ff" d="M530.06,-230.75C537.78,-223.03 549.21,-211.6 558.53,-202.28"/>
<polygon fill="#63b8ff" stroke="#63b8ff" points="561.12,-204.64 565.72,-195.09 556.17,-199.69 561.12,-204.64"/>
</a>
</g>
</g>
<!-- Node13 -->
<g id="Node000013" class="node">
<title>Node13</title>
<g id="a_Node000013"><a xlink:href="MemaProcessorEditor_8h.html" target="_top" xlink:title=" ">
<polygon fill="white" stroke="#666666" points="1105.31,-140 971.31,-140 971.31,-110 1105.31,-110 1105.31,-140"/>
<text text-anchor="start" x="979.31" y="-128" font-family="Helvetica,sans-Serif" font-size="10.00">../MemaProcessorEditor</text>
<text text-anchor="middle" x="1038.31" y="-117" font-family="Helvetica,sans-Serif" font-size="10.00">/MemaProcessorEditor.h</text>
</a>
</g>
</g>
<!-- Node4&#45;&gt;Node13 -->
<g id="edge22_Node000004_Node000013" class="edge">
<title>Node4&#45;&gt;Node13</title>
<g id="a_edge22_Node000004_Node000013"><a xlink:title=" ">
<path fill="none" stroke="#63b8ff" d="M560.17,-230.97C645.99,-212.13 852.92,-166.7 964.33,-142.24"/>
<polygon fill="#63b8ff" stroke="#63b8ff" points="965.13,-145.65 974.15,-140.09 963.63,-138.81 965.13,-145.65"/>
</a>
</g>
</g>
<!-- Node15 -->
<g id="Node000015" class="node">
<title>Node15</title>
<g id="a_Node000015"><a xlink:href="MemaAppConfiguration_8h.html" target="_top" xlink:title=" ">
<polygon fill="white" stroke="#666666" points="1117.81,-195 968.81,-195 968.81,-176 1117.81,-176 1117.81,-195"/>
<text text-anchor="middle" x="1043.31" y="-183" font-family="Helvetica,sans-Serif" font-size="10.00">../MemaAppConfiguration.h</text>
</a>
</g>
</g>
<!-- Node4&#45;&gt;Node15 -->
<g id="edge26_Node000004_Node000015" class="edge">
<title>Node4&#45;&gt;Node15</title>
<g id="a_edge26_Node000004_Node000015"><a xlink:title=" ">
<path fill="none" stroke="#63b8ff" d="M605.18,-230.98C702.18,-221.14 860.99,-205.01 958.43,-195.12"/>
<polygon fill="#63b8ff" stroke="#63b8ff" points="958.94,-198.58 968.53,-194.09 958.23,-191.62 958.94,-198.58"/>
</a>
</g>
</g>
<!-- Node17 -->
<g id="Node000017" class="node">
<title>Node17</title>
<g id="a_Node000017"><a xlink:title=" ">
<polygon fill="#e0e0e0" stroke="#999999" points="1282.81,-195 1135.81,-195 1135.81,-176 1282.81,-176 1282.81,-195"/>
<text text-anchor="middle" x="1209.31" y="-183" font-family="Helvetica,sans-Serif" font-size="10.00">ServiceTopologyManager.h</text>
</a>
</g>
</g>
<!-- Node4&#45;&gt;Node17 -->
<g id="edge29_Node000004_Node000017" class="edge">
<title>Node4&#45;&gt;Node17</title>
<g id="a_edge29_Node000004_Node000017"><a xlink:title=" ">
<path fill="none" stroke="#63b8ff" d="M618.04,-233.24C735.38,-225.46 939.5,-211.29 1125.32,-195.06"/>
<polygon fill="#63b8ff" stroke="#63b8ff" points="1125.9,-198.52 1135.55,-194.16 1125.29,-191.55 1125.9,-198.52"/>
</a>
</g>
</g>
<!-- Node5&#45;&gt;Node2 -->
<g id="edge7_Node000005_Node000002" class="edge">
<title>Node5&#45;&gt;Node2</title>
<g id="a_edge7_Node000005_Node000002"><a xlink:title=" ">
<path fill="none" stroke="#63b8ff" d="M244.75,-179.52C185.48,-171.75 101.26,-152.91 133.31,-110 167.68,-63.98 334.14,-31.72 419.14,-17.95"/>
<polygon fill="#63b8ff" stroke="#63b8ff" points="419.77,-21.4 429.09,-16.37 418.66,-14.48 419.77,-21.4"/>
</a>
</g>
</g>
<!-- Node6 -->
<g id="Node000006" class="node">
<title>Node6</title>
<g id="a_Node000006"><a xlink:title=" ">
<polygon fill="#e0e0e0" stroke="#999999" points="267.81,-134.5 142.81,-134.5 142.81,-115.5 267.81,-115.5 267.81,-134.5"/>
<text text-anchor="middle" x="205.31" y="-122.5" font-family="Helvetica,sans-Serif" font-size="10.00">CustomLookAndFeel.h</text>
</a>
</g>
</g>
<!-- Node5&#45;&gt;Node6 -->
<g id="edge8_Node000005_Node000006" class="edge">
<title>Node5&#45;&gt;Node6</title>
<g id="a_edge8_Node000005_Node000006"><a xlink:title=" ">
<path fill="none" stroke="#63b8ff" d="M283.73,-175.87C268.92,-166.45 244.98,-151.23 227.44,-140.08"/>
<polygon fill="#63b8ff" stroke="#63b8ff" points="229.26,-137.08 218.94,-134.67 225.5,-142.99 229.26,-137.08"/>
</a>
</g>
</g>
<!-- Node5&#45;&gt;Node7 -->
<g id="edge9_Node000005_Node000007" class="edge">
<title>Node5&#45;&gt;Node7</title>
<g id="a_edge9_Node000005_Node000007"><a xlink:title=" ">
<path fill="none" stroke="#63b8ff" d="M307.05,-175.87C317.28,-166.8 333.6,-152.34 346.03,-141.32"/>
<polygon fill="#63b8ff" stroke="#63b8ff" points="348.37,-143.92 353.53,-134.67 343.73,-138.68 348.37,-143.92"/>
</a>
</g>
</g>
<!-- Node7&#45;&gt;Node2 -->
<g id="edge10_Node000007_Node000002" class="edge">
<title>Node7&#45;&gt;Node2</title>
<g id="a_edge10_Node000007_Node000002"><a xlink:title=" ">
<path fill="none" stroke="#63b8ff" d="M371.28,-115.47C388.92,-96.57 431.55,-50.93 454.34,-26.52"/>
<polygon fill="#63b8ff" stroke="#63b8ff" points="456.98,-28.83 461.25,-19.13 451.87,-24.05 456.98,-28.83"/>
</a>
</g>
</g>
<!-- Node8&#45;&gt;Node2 -->
<g id="edge12_Node000008_Node000002" class="edge">
<title>Node8&#45;&gt;Node2</title>
<g id="a_edge12_Node000008_Node000002"><a xlink:title=" ">
<path fill="none" stroke="#63b8ff" d="M541.97,-175.86C523.32,-169.16 501.1,-157.93 488.31,-140 464.53,-106.65 464.82,-56.06 467.07,-29.05"/>
<polygon fill="#63b8ff" stroke="#63b8ff" points="470.56,-29.33 468.09,-19.03 463.59,-28.62 470.56,-29.33"/>
</a>
</g>
</g>
<!-- Node9 -->
<g id="Node000009" class="node">
<title>Node9</title>
<g id="a_Node000009"><a xlink:href="ProcessorAudioSignalData_8h.html" target="_top" xlink:title=" ">
<polygon fill="white" stroke="#666666" points="651.31,-134.5 497.31,-134.5 497.31,-115.5 651.31,-115.5 651.31,-134.5"/>
<text text-anchor="middle" x="574.31" y="-122.5" font-family="Helvetica,sans-Serif" font-size="10.00">ProcessorAudioSignalData.h</text>
</a>
</g>
</g>
<!-- Node8&#45;&gt;Node9 -->
<g id="edge13_Node000008_Node000009" class="edge">
<title>Node8&#45;&gt;Node9</title>
<g id="a_edge13_Node000008_Node000009"><a xlink:title=" ">
<path fill="none" stroke="#63b8ff" d="M574.31,-175.87C574.31,-167.75 574.31,-155.31 574.31,-144.89"/>
<polygon fill="#63b8ff" stroke="#63b8ff" points="577.81,-144.67 574.31,-134.67 570.81,-144.67 577.81,-144.67"/>
</a>
</g>
</g>
<!-- Node11 -->
<g id="Node000011" class="node">
<title>Node11</title>
<g id="a_Node000011"><a xlink:href="ProcessorLevelData_8h.html" target="_top" xlink:title=" ">
<polygon fill="white" stroke="#666666" points="791.31,-134.5 669.31,-134.5 669.31,-115.5 791.31,-115.5 791.31,-134.5"/>
<text text-anchor="middle" x="730.31" y="-122.5" font-family="Helvetica,sans-Serif" font-size="10.00">ProcessorLevelData.h</text>
</a>
</g>
</g>
<!-- Node8&#45;&gt;Node11 -->
<g id="edge17_Node000008_Node000011" class="edge">
<title>Node8&#45;&gt;Node11</title>
<g id="a_edge17_Node000008_Node000011"><a xlink:title=" ">
<path fill="none" stroke="#63b8ff" d="M596.99,-175.99C623.57,-166.03 667.78,-149.45 697.95,-138.13"/>
<polygon fill="#63b8ff" stroke="#63b8ff" points="699.46,-141.31 707.6,-134.52 697.01,-134.75 699.46,-141.31"/>
</a>
</g>
</g>
<!-- Node12 -->
<g id="Node000012" class="node">
<title>Node12</title>
<g id="a_Node000012"><a xlink:href="ProcessorSpectrumData_8h.html" target="_top" xlink:title=" ">
<polygon fill="white" stroke="#666666" points="952.81,-134.5 809.81,-134.5 809.81,-115.5 952.81,-115.5 952.81,-134.5"/>
<text text-anchor="middle" x="881.31" y="-122.5" font-family="Helvetica,sans-Serif" font-size="10.00">ProcessorSpectrumData.h</text>
</a>
</g>
</g>
<!-- Node8&#45;&gt;Node12 -->
<g id="edge19_Node000008_Node000012" class="edge">
<title>Node8&#45;&gt;Node12</title>
<g id="a_edge19_Node000008_Node000012"><a xlink:title=" ">
<path fill="none" stroke="#63b8ff" d="M618.95,-175.99C673.97,-165.51 767.44,-147.7 826.69,-136.41"/>
<polygon fill="#63b8ff" stroke="#63b8ff" points="827.45,-139.83 836.61,-134.52 826.14,-132.95 827.45,-139.83"/>
</a>
</g>
</g>
<!-- Node9&#45;&gt;Node2 -->
<g id="edge14_Node000009_Node000002" class="edge">
<title>Node9&#45;&gt;Node2</title>
<g id="a_edge14_Node000009_Node000002"><a xlink:title=" ">
<path fill="none" stroke="#63b8ff" d="M566.42,-115.47C548.93,-96.57 506.71,-50.93 484.13,-26.52"/>
<polygon fill="#63b8ff" stroke="#63b8ff" points="486.65,-24.09 477.29,-19.13 481.51,-28.85 486.65,-24.09"/>
</a>
</g>
</g>
<!-- Node10 -->
<g id="Node000010" class="node">
<title>Node10</title>
<g id="a_Node000010"><a xlink:href="AbstractProcessorData_8h.html" target="_top" xlink:title=" ">
<polygon fill="white" stroke="#666666" points="752.81,-74 615.81,-74 615.81,-55 752.81,-55 752.81,-74"/>
<text text-anchor="middle" x="684.31" y="-62" font-family="Helvetica,sans-Serif" font-size="10.00">AbstractProcessorData.h</text>
</a>
</g>
</g>
<!-- Node9&#45;&gt;Node10 -->
<g id="edge15_Node000009_Node000010" class="edge">
<title>Node9&#45;&gt;Node10</title>
<g id="a_edge15_Node000009_Node000010"><a xlink:title=" ">
<path fill="none" stroke="#63b8ff" d="M590.54,-115.37C608.57,-105.78 637.93,-90.17 658.99,-78.97"/>
<polygon fill="#63b8ff" stroke="#63b8ff" points="660.83,-81.95 668.01,-74.17 657.54,-75.77 660.83,-81.95"/>
</a>
</g>
</g>
<!-- Node10&#45;&gt;Node2 -->
<g id="edge16_Node000010_Node000002" class="edge">
<title>Node10&#45;&gt;Node2</title>
<g id="a_edge16_Node000010_Node000002"><a xlink:title=" ">
<path fill="none" stroke="#63b8ff" d="M649.77,-54.98C612.89,-45.89 554.32,-31.46 513.97,-21.51"/>
<polygon fill="#63b8ff" stroke="#63b8ff" points="514.67,-18.08 504.12,-19.08 512.99,-24.87 514.67,-18.08"/>
</a>
</g>
</g>
<!-- Node11&#45;&gt;Node10 -->
<g id="edge18_Node000011_Node000010" class="edge">
<title>Node11&#45;&gt;Node10</title>
<g id="a_edge18_Node000011_Node000010"><a xlink:title=" ">
<path fill="none" stroke="#63b8ff" d="M723.52,-115.37C716.66,-106.64 705.88,-92.93 697.36,-82.09"/>
<polygon fill="#63b8ff" stroke="#63b8ff" points="700.06,-79.86 691.12,-74.17 694.55,-84.19 700.06,-79.86"/>
</a>
</g>
</g>
<!-- Node12&#45;&gt;Node10 -->
<g id="edge20_Node000012_Node000010" class="edge">
<title>Node12&#45;&gt;Node10</title>
<g id="a_edge20_Node000012_Node000010"><a xlink:title=" ">
<path fill="none" stroke="#63b8ff" d="M852.66,-115.49C818.38,-105.31 760.83,-88.22 722.71,-76.9"/>
<polygon fill="#63b8ff" stroke="#63b8ff" points="723.57,-73.51 712.99,-74.02 721.58,-80.22 723.57,-73.51"/>
</a>
</g>
</g>
<!-- Node13&#45;&gt;Node2 -->
<g id="edge23_Node000013_Node000002" class="edge">
<title>Node13&#45;&gt;Node2</title>
<g id="a_edge23_Node000013_Node000002"><a xlink:title=" ">
<path fill="none" stroke="#63b8ff" d="M988.08,-109.99C932.83,-94.94 841.25,-71.01 761.31,-55 677.11,-38.14 578.13,-24.29 519.73,-16.74"/>
<polygon fill="#63b8ff" stroke="#63b8ff" points="520.03,-13.25 509.66,-15.44 519.14,-20.19 520.03,-13.25"/>
</a>
</g>
</g>
<!-- Node14 -->
<g id="Node000014" class="node">
<title>Node14</title>
<g id="a_Node000014"><a xlink:href="AudioSelectComponent_8h.html" target="_top" xlink:title=" ">
<polygon fill="white" stroke="#666666" points="1066.31,-74 926.31,-74 926.31,-55 1066.31,-55 1066.31,-74"/>
<text text-anchor="middle" x="996.31" y="-62" font-family="Helvetica,sans-Serif" font-size="10.00">AudioSelectComponent.h</text>
</a>
</g>
</g>
<!-- Node13&#45;&gt;Node14 -->
<g id="edge24_Node000013_Node000014" class="edge">
<title>Node13&#45;&gt;Node14</title>
<g id="a_edge24_Node000013_Node000014"><a xlink:title=" ">
<path fill="none" stroke="#63b8ff" d="M1028.14,-109.84C1022.23,-101.61 1014.75,-91.18 1008.52,-82.51"/>
<polygon fill="#63b8ff" stroke="#63b8ff" points="1011.28,-80.35 1002.6,-74.27 1005.59,-84.43 1011.28,-80.35"/>
</a>
</g>
</g>
<!-- Node14&#45;&gt;Node2 -->
<g id="edge25_Node000014_Node000002" class="edge">
<title>Node14&#45;&gt;Node2</title>
<g id="a_edge25_Node000014_Node000002"><a xlink:title=" ">
<path fill="none" stroke="#63b8ff" d="M926.05,-56.43C818.15,-45.58 614.2,-25.07 519.71,-15.57"/>
<polygon fill="#63b8ff" stroke="#63b8ff" points="519.86,-12.07 509.56,-14.55 519.16,-19.03 519.86,-12.07"/>
</a>
</g>
</g>
<!-- Node15&#45;&gt;Node2 -->
<g id="edge27_Node000015_Node000002" class="edge">
<title>Node15&#45;&gt;Node2</title>
<g id="a_edge27_Node000015_Node000002"><a xlink:title=" ">
<path fill="none" stroke="#63b8ff" d="M1068.81,-175.9C1085,-168.96 1104.66,-157.44 1114.31,-140 1134.43,-103.63 1111.51,-75.42 1075.31,-55 1027.46,-28 656.19,-15.48 519.56,-11.75"/>
<polygon fill="#63b8ff" stroke="#63b8ff" points="519.46,-8.24 509.37,-11.47 519.27,-15.24 519.46,-8.24"/>
</a>
</g>
</g>
<!-- Node16 -->
<g id="Node000016" class="node">
<title>Node16</title>
<g id="a_Node000016"><a xlink:title=" ">
<polygon fill="#e0e0e0" stroke="#999999" points="1295.31,-134.5 1161.31,-134.5 1161.31,-115.5 1295.31,-115.5 1295.31,-134.5"/>
<text text-anchor="middle" x="1228.31" y="-122.5" font-family="Helvetica,sans-Serif" font-size="10.00">AppConfigurationBase.h</text>
</a>
</g>
</g>
<!-- Node15&#45;&gt;Node16 -->
<g id="edge28_Node000015_Node000016" class="edge">
<title>Node15&#45;&gt;Node16</title>
<g id="a_edge28_Node000015_Node000016"><a xlink:title=" ">
<path fill="none" stroke="#63b8ff" d="M1070.21,-175.99C1102.27,-165.86 1155.99,-148.87 1191.79,-137.55"/>
<polygon fill="#63b8ff" stroke="#63b8ff" points="1192.9,-140.87 1201.38,-134.52 1190.79,-134.19 1192.9,-140.87"/>
</a>
</g>
</g>
</g>
</svg>

<g id="navigator" transform="translate(0 0)" fill="#404254">
  <rect fill="#f2f5e9" fill-opacity="0.5" stroke="#606060" stroke-width=".5" x="0" y="0" width="60" height="60"/>
  <use id="zoomplus" xlink:href="#zoomPlus" x="17" y="9" onmousedown="handleZoom(evt,'in')"/>
  <use id="zoomminus" xlink:href="#zoomMin" x="42" y="9" onmousedown="handleZoom(evt,'out')"/>
  <use id="reset" xlink:href="#resetDef" x="30" y="36" onmousedown="handleReset()"/>
   <use id="arrowup" xlink:href="#arrowUp" x="0" y="0" onmousedown="handlePan(0,-1)"/>
  <use id="arrowright" xlink:href="#arrowRight" x="0" y="0" onmousedown="handlePan(1,0)"/>
  <use id="arrowdown" xlink:href="#arrowDown" x="0" y="0" onmousedown="handlePan(0,1)"/>
  <use id="arrowleft" xlink:href="#arrowLeft" x="0" y="0" onmousedown="handlePan(-1,0)"/>
</g>
<svg viewBox="0 0 15 15" width="100%" height="30px" preserveAspectRatio="xMaxYMin meet">
 <g id="arrow_out" transform="scale(0.3 0.3)">
  <a xlink:href="TwoDFieldOutputComponent_8h__incl_org.svg" target="_base">
   <rect id="button" ry="5" rx="5" y="6" x="6" height="38" width="38"
        fill="#f2f5e9" fill-opacity="0.5" stroke="#606060" stroke-width="1.0"/>
   <path id="arrow"
     d="M 11.500037,31.436501 C 11.940474,20.09759 22.043105,11.32322 32.158766,21.979434 L 37.068811,17.246167 C 37.068811,17.246167 37.088388,32 37.088388,32 L 22.160133,31.978069 C 22.160133,31.978069 26.997745,27.140456 26.997745,27.140456 C 18.528582,18.264221 13.291696,25.230495 11.500037,31.436501 z"
     style="fill:#404040;"/>
  </a>
 </g>
</svg>

<style type='text/css'>
<![CDATA[
[data-mouse-over-selected='false'] { opacity: 0.7; }
[data-mouse-over-selected='true']  { opacity: 1.0; }
]]>
</style>
<script type="application/ecmascript"><![CDATA[
document.addEventListener('DOMContentLoaded', (event) => {
  highlightEdges();
  highlightAdjacentNodes();
});
]]></script>
</svg>
