<?xml version="1.0" encoding="UTF-8" standalone="no"?>
<!DOCTYPE svg PUBLIC "-//W3C//DTD SVG 1.1//EN"
 "http://www.w3.org/Graphics/SVG/1.1/DTD/svg11.dtd">
<!-- Generated by graphviz version 2.43.0 (0)
 -->
<!-- Title: Source/MemaClientCommon/TwoDFieldMultisliderComponent.h Pages: 1 -->
<!--zoomable 390 -->

<svg id="main" version="1.1" xmlns="http://www.w3.org/2000/svg" xmlns:xlink="http://www.w3.org/1999/xlink" xml:space="preserve" onload="init(evt)">
<style type="text/css"><![CDATA[
.node, .edge {opacity: 0.7;}
.node.selected, .edge.selected {opacity: 1;}
.edge:hover path { stroke: red; }
.edge:hover polygon { stroke: red; fill: red; }
]]></style>

<defs>
  <circle id="rim" cx="0" cy="0" r="7"/>
  <circle id="rim2" cx="0" cy="0" r="3.5"/>
  <g id="zoomPlus">
    <use xlink:href="#rim" fill="#404040"><set attributeName="fill" to="#808080" begin="zoomplus.mouseover" end="zoomplus.mouseout"/></use>
    <path d="M-4,0h8M0,-4v8" fill="none" stroke="white" stroke-width="1.5" pointer-events="none"/>
  </g>
  <g id="zoomMin">
    <use xlink:href="#rim" fill="#404040"><set attributeName="fill" to="#808080" begin="zoomminus.mouseover" end="zoomminus.mouseout"/></use>
    <path d="M-4,0h8" fill="none" stroke="white" stroke-width="1.5" pointer-events="none"/>
  </g>
  <g id="arrowUp" transform="translate(30 24)">
    <use xlink:href="#rim"/>
    <path pointer-events="none" fill="none" stroke="white" stroke-width="1.5" d="M0,-3.0v7 M-2.5,-0.5L0,-3.0L2.5,-0.5"/>
  </g>
  <g id="arrowRight" transform="rotate(90) translate(36 -43)">
    <use xlink:href="#rim"/>
    <path pointer-events="none" fill="none" stroke="white" stroke-width="1.5" d="M0,-3.0v7 M-2.5,-0.5L0,-3.0L2.5,-0.5"/>
  </g>
  <g id="arrowDown" transform="rotate(180) translate(-30 -48)">
    <use xlink:href="#rim"/>
    <path pointer-events="none" fill="none" stroke="white" stroke-width="1.5" d="M0,-3.0v7 M-2.5,-0.5L0,-3.0L2.5,-0.5"/>
  </g>
  <g id="arrowLeft" transform="rotate(270) translate(-36 17)">
    <use xlink:href="#rim"/>
    <path pointer-events="none" fill="none" stroke="white" stroke-width="1.5" d="M0,-3.0v7 M-2.5,-0.5L0,-3.0L2.5,-0.5"/>
  </g>
  <g id="resetDef">
    <use xlink:href="#rim2" fill="#404040"><set attributeName="fill" to="#808080" begin="reset.mouseover" end="reset.mouseout"/></use>
  </g>
</defs>
<script type="application/ecmascript">
var viewWidth = 1318;
var viewHeight = 390;
var sectionId = 'dynsection-0';
</script>
<script type="application/ecmascript" xlink:href="svg.min.js"/>
<svg id="graph" class="graph">
<g id="viewport">
<title>Source/MemaClientCommon/TwoDFieldMultisliderComponent.h</title>
<!-- Node1 -->
<g id="Node000001" class="node">
<title>Node1</title>
<g id="a_Node000001"><a xlink:title=" ">
<polygon fill="#999999" stroke="#666666" points="186,-382 0,-382 0,-352 186,-352 186,-382"/>
<text text-anchor="start" x="8" y="-370" font-family="Helvetica,sans-Serif" font-size="10.00">Source/MemaClientCommon</text>
<text text-anchor="middle" x="93" y="-359" font-family="Helvetica,sans-Serif" font-size="10.00">/TwoDFieldMultisliderComponent.h</text>
</a>
</g>
</g>
<!-- Node2 -->
<g id="Node000002" class="node">
<title>Node2</title>
<g id="a_Node000002"><a xlink:title=" ">
<polygon fill="#e0e0e0" stroke="#999999" points="524,-19 444,-19 444,0 524,0 524,-19"/>
<text text-anchor="middle" x="484" y="-7" font-family="Helvetica,sans-Serif" font-size="10.00">JuceHeader.h</text>
</a>
</g>
</g>
<!-- Node1&#45;&gt;Node2 -->
<g id="edge1_Node000001_Node000002" class="edge">
<title>Node1&#45;&gt;Node2</title>
<g id="a_edge1_Node000001_Node000002"><a xlink:title=" ">
<path fill="none" stroke="#63b8ff" d="M70.33,-351.93C57.86,-343.07 43.11,-330.57 34,-316 15.89,-287.03 15,-275.67 15,-241.5 15,-241.5 15,-241.5 15,-124 15,-80.63 44.91,-73.79 84,-55 144.7,-25.82 340.8,-15.35 433.96,-11.96"/>
<polygon fill="#63b8ff" stroke="#63b8ff" points="434.12,-15.46 443.99,-11.61 433.88,-8.46 434.12,-15.46"/>
</a>
</g>
</g>
<!-- Node3 -->
<g id="Node000003" class="node">
<title>Node3</title>
<g id="a_Node000003"><a xlink:title=" ">
<polygon fill="#e0e0e0" stroke="#999999" points="142.5,-310.5 43.5,-310.5 43.5,-291.5 142.5,-291.5 142.5,-310.5"/>
<text text-anchor="middle" x="93" y="-298.5" font-family="Helvetica,sans-Serif" font-size="10.00">TwoDFieldBase.h</text>
</a>
</g>
</g>
<!-- Node1&#45;&gt;Node3 -->
<g id="edge2_Node000001_Node000003" class="edge">
<title>Node1&#45;&gt;Node3</title>
<g id="a_edge2_Node000001_Node000003"><a xlink:title=" ">
<path fill="none" stroke="#63b8ff" d="M93,-351.8C93,-342.7 93,-330.79 93,-320.9"/>
<polygon fill="#63b8ff" stroke="#63b8ff" points="96.5,-320.84 93,-310.84 89.5,-320.84 96.5,-320.84"/>
</a>
</g>
</g>
<!-- Node4 -->
<g id="Node000004" class="node">
<title>Node4</title>
<g id="a_Node000004"><a xlink:href="AbstractAudioVisualizer_8h.html" target="_top" xlink:title=" ">
<polygon fill="white" stroke="#666666" points="305,-316 161,-316 161,-286 305,-286 305,-316"/>
<text text-anchor="start" x="169" y="-304" font-family="Helvetica,sans-Serif" font-size="10.00">../MemaProcessorEditor</text>
<text text-anchor="middle" x="233" y="-293" font-family="Helvetica,sans-Serif" font-size="10.00">/AbstractAudioVisualizer.h</text>
</a>
</g>
</g>
<!-- Node1&#45;&gt;Node4 -->
<g id="edge3_Node000001_Node000004" class="edge">
<title>Node1&#45;&gt;Node4</title>
<g id="a_edge3_Node000001_Node000004"><a xlink:title=" ">
<path fill="none" stroke="#63b8ff" d="M123.72,-351.95C144.15,-342.62 171.17,-330.27 193.23,-320.18"/>
<polygon fill="#63b8ff" stroke="#63b8ff" points="194.71,-323.35 202.35,-316.01 191.8,-316.99 194.71,-323.35"/>
</a>
</g>
</g>
<!-- Node4&#45;&gt;Node2 -->
<g id="edge4_Node000004_Node000002" class="edge">
<title>Node4&#45;&gt;Node2</title>
<g id="a_edge4_Node000004_Node000002"><a xlink:title=" ">
<path fill="none" stroke="#63b8ff" d="M164.95,-285.94C113.98,-270.96 53,-241.55 53,-186.5 53,-186.5 53,-186.5 53,-124 53,-76.03 92.01,-74.14 136,-55 188.29,-32.25 350.26,-18.97 433.49,-13.48"/>
<polygon fill="#63b8ff" stroke="#63b8ff" points="433.97,-16.96 443.72,-12.82 433.52,-9.97 433.97,-16.96"/>
</a>
</g>
</g>
<!-- Node5 -->
<g id="Node000005" class="node">
<title>Node5</title>
<g id="a_Node000005"><a xlink:href="MemaProcessor_8h.html" target="_top" xlink:title=" ">
<polygon fill="white" stroke="#666666" points="632.5,-250 439.5,-250 439.5,-231 632.5,-231 632.5,-250"/>
<text text-anchor="middle" x="536" y="-238" font-family="Helvetica,sans-Serif" font-size="10.00">../MemaProcessor/MemaProcessor.h</text>
</a>
</g>
</g>
<!-- Node4&#45;&gt;Node5 -->
<g id="edge5_Node000004_Node000005" class="edge">
<title>Node4&#45;&gt;Node5</title>
<g id="a_edge5_Node000004_Node000005"><a xlink:title=" ">
<path fill="none" stroke="#63b8ff" d="M305.19,-286.06C359.4,-275.6 432.46,-261.49 481.75,-251.97"/>
<polygon fill="#63b8ff" stroke="#63b8ff" points="482.43,-255.41 491.58,-250.08 481.1,-248.54 482.43,-255.41"/>
</a>
</g>
</g>
<!-- Node5&#45;&gt;Node2 -->
<g id="edge6_Node000005_Node000002" class="edge">
<title>Node5&#45;&gt;Node2</title>
<g id="a_edge6_Node000005_Node000002"><a xlink:title=" ">
<path fill="none" stroke="#63b8ff" d="M443.95,-230.99C336.52,-218.76 169.37,-191.75 137,-140 68.39,-30.3 322.02,-13.04 433.71,-10.68"/>
<polygon fill="#63b8ff" stroke="#63b8ff" points="433.8,-14.18 443.74,-10.5 433.68,-7.18 433.8,-14.18"/>
</a>
</g>
</g>
<!-- Node6 -->
<g id="Node000006" class="node">
<title>Node6</title>
<g id="a_Node000006"><a xlink:href="MemaMessages_8h.html" target="_top" xlink:title=" ">
<polygon fill="white" stroke="#666666" points="364.5,-195 259.5,-195 259.5,-176 364.5,-176 364.5,-195"/>
<text text-anchor="middle" x="312" y="-183" font-family="Helvetica,sans-Serif" font-size="10.00">MemaMessages.h</text>
</a>
</g>
</g>
<!-- Node5&#45;&gt;Node6 -->
<g id="edge7_Node000005_Node000006" class="edge">
<title>Node5&#45;&gt;Node6</title>
<g id="a_edge7_Node000005_Node000006"><a xlink:title=" ">
<path fill="none" stroke="#63b8ff" d="M500.01,-230.98C461.51,-221.87 400.31,-207.4 358.26,-197.45"/>
<polygon fill="#63b8ff" stroke="#63b8ff" points="358.81,-193.98 348.27,-195.08 357.2,-200.79 358.81,-193.98"/>
</a>
</g>
</g>
<!-- Node8 -->
<g id="Node000008" class="node">
<title>Node8</title>
<g id="a_Node000008"><a xlink:href="MemaPluginParameterInfo_8h.html" target="_top" xlink:title=" ">
<polygon fill="white" stroke="#666666" points="455.5,-134.5 300.5,-134.5 300.5,-115.5 455.5,-115.5 455.5,-134.5"/>
<text text-anchor="middle" x="378" y="-122.5" font-family="Helvetica,sans-Serif" font-size="10.00">MemaPluginParameterInfo.h</text>
</a>
</g>
</g>
<!-- Node5&#45;&gt;Node8 -->
<g id="edge22_Node000005_Node000008" class="edge">
<title>Node5&#45;&gt;Node8</title>
<g id="a_edge22_Node000005_Node000008"><a xlink:title=" ">
<path fill="none" stroke="#63b8ff" d="M524.12,-230.97C497.36,-211.74 432.06,-164.83 398.56,-140.77"/>
<polygon fill="#63b8ff" stroke="#63b8ff" points="400.18,-137.62 390.01,-134.63 396.09,-143.31 400.18,-137.62"/>
</a>
</g>
</g>
<!-- Node9 -->
<g id="Node000009" class="node">
<title>Node9</title>
<g id="a_Node000009"><a xlink:href="ProcessorDataAnalyzer_8h.html" target="_top" xlink:title=" ">
<polygon fill="white" stroke="#666666" points="658,-195 520,-195 520,-176 658,-176 658,-195"/>
<text text-anchor="middle" x="589" y="-183" font-family="Helvetica,sans-Serif" font-size="10.00">ProcessorDataAnalyzer.h</text>
</a>
</g>
</g>
<!-- Node5&#45;&gt;Node9 -->
<g id="edge12_Node000005_Node000009" class="edge">
<title>Node5&#45;&gt;Node9</title>
<g id="a_edge12_Node000005_Node000009"><a xlink:title=" ">
<path fill="none" stroke="#63b8ff" d="M544.75,-230.75C552.47,-223.03 563.9,-211.6 573.22,-202.28"/>
<polygon fill="#63b8ff" stroke="#63b8ff" points="575.81,-204.64 580.41,-195.09 570.86,-199.69 575.81,-204.64"/>
</a>
</g>
</g>
<!-- Node14 -->
<g id="Node000014" class="node">
<title>Node14</title>
<g id="a_Node000014"><a xlink:href="MemaProcessorEditor_8h.html" target="_top" xlink:title=" ">
<polygon fill="white" stroke="#666666" points="1120,-140 986,-140 986,-110 1120,-110 1120,-140"/>
<text text-anchor="start" x="994" y="-128" font-family="Helvetica,sans-Serif" font-size="10.00">../MemaProcessorEditor</text>
<text text-anchor="middle" x="1053" y="-117" font-family="Helvetica,sans-Serif" font-size="10.00">/MemaProcessorEditor.h</text>
</a>
</g>
</g>
<!-- Node5&#45;&gt;Node14 -->
<g id="edge23_Node000005_Node000014" class="edge">
<title>Node5&#45;&gt;Node14</title>
<g id="a_edge23_Node000005_Node000014"><a xlink:title=" ">
<path fill="none" stroke="#63b8ff" d="M574.86,-230.97C660.68,-212.13 867.61,-166.7 979.02,-142.24"/>
<polygon fill="#63b8ff" stroke="#63b8ff" points="979.82,-145.65 988.84,-140.09 978.32,-138.81 979.82,-145.65"/>
</a>
</g>
</g>
<!-- Node16 -->
<g id="Node000016" class="node">
<title>Node16</title>
<g id="a_Node000016"><a xlink:href="MemaAppConfiguration_8h.html" target="_top" xlink:title=" ">
<polygon fill="white" stroke="#666666" points="1132.5,-195 983.5,-195 983.5,-176 1132.5,-176 1132.5,-195"/>
<text text-anchor="middle" x="1058" y="-183" font-family="Helvetica,sans-Serif" font-size="10.00">../MemaAppConfiguration.h</text>
</a>
</g>
</g>
<!-- Node5&#45;&gt;Node16 -->
<g id="edge27_Node000005_Node000016" class="edge">
<title>Node5&#45;&gt;Node16</title>
<g id="a_edge27_Node000005_Node000016"><a xlink:title=" ">
<path fill="none" stroke="#63b8ff" d="M619.87,-230.98C716.87,-221.14 875.68,-205.01 973.12,-195.12"/>
<polygon fill="#63b8ff" stroke="#63b8ff" points="973.63,-198.58 983.23,-194.09 972.92,-191.62 973.63,-198.58"/>
</a>
</g>
</g>
<!-- Node18 -->
<g id="Node000018" class="node">
<title>Node18</title>
<g id="a_Node000018"><a xlink:title=" ">
<polygon fill="#e0e0e0" stroke="#999999" points="1297.5,-195 1150.5,-195 1150.5,-176 1297.5,-176 1297.5,-195"/>
<text text-anchor="middle" x="1224" y="-183" font-family="Helvetica,sans-Serif" font-size="10.00">ServiceTopologyManager.h</text>
</a>
</g>
</g>
<!-- Node5&#45;&gt;Node18 -->
<g id="edge30_Node000005_Node000018" class="edge">
<title>Node5&#45;&gt;Node18</title>
<g id="a_edge30_Node000005_Node000018"><a xlink:title=" ">
<path fill="none" stroke="#63b8ff" d="M632.73,-233.24C750.07,-225.46 954.19,-211.29 1140.01,-195.06"/>
<polygon fill="#63b8ff" stroke="#63b8ff" points="1140.59,-198.52 1150.24,-194.16 1139.98,-191.55 1140.59,-198.52"/>
</a>
</g>
</g>
<!-- Node6&#45;&gt;Node2 -->
<g id="edge8_Node000006_Node000002" class="edge">
<title>Node6&#45;&gt;Node2</title>
<g id="a_edge8_Node000006_Node000002"><a xlink:title=" ">
<path fill="none" stroke="#63b8ff" d="M259.44,-179.52C200.17,-171.75 115.96,-152.91 148,-110 182.37,-63.98 348.84,-31.72 433.83,-17.95"/>
<polygon fill="#63b8ff" stroke="#63b8ff" points="434.46,-21.4 443.78,-16.37 433.35,-14.48 434.46,-21.4"/>
</a>
</g>
</g>
<!-- Node7 -->
<g id="Node000007" class="node">
<title>Node7</title>
<g id="a_Node000007"><a xlink:title=" ">
<polygon fill="#e0e0e0" stroke="#999999" points="282.5,-134.5 157.5,-134.5 157.5,-115.5 282.5,-115.5 282.5,-134.5"/>
<text text-anchor="middle" x="220" y="-122.5" font-family="Helvetica,sans-Serif" font-size="10.00">CustomLookAndFeel.h</text>
</a>
</g>
</g>
<!-- Node6&#45;&gt;Node7 -->
<g id="edge9_Node000006_Node000007" class="edge">
<title>Node6&#45;&gt;Node7</title>
<g id="a_edge9_Node000006_Node000007"><a xlink:title=" ">
<path fill="none" stroke="#63b8ff" d="M298.43,-175.87C283.61,-166.45 259.67,-151.23 242.14,-140.08"/>
<polygon fill="#63b8ff" stroke="#63b8ff" points="243.95,-137.08 233.63,-134.67 240.19,-142.99 243.95,-137.08"/>
</a>
</g>
</g>
<!-- Node6&#45;&gt;Node8 -->
<g id="edge10_Node000006_Node000008" class="edge">
<title>Node6&#45;&gt;Node8</title>
<g id="a_edge10_Node000006_Node000008"><a xlink:title=" ">
<path fill="none" stroke="#63b8ff" d="M321.74,-175.87C331.97,-166.8 348.29,-152.34 360.72,-141.32"/>
<polygon fill="#63b8ff" stroke="#63b8ff" points="363.06,-143.92 368.22,-134.67 358.42,-138.68 363.06,-143.92"/>
</a>
</g>
</g>
<!-- Node8&#45;&gt;Node2 -->
<g id="edge11_Node000008_Node000002" class="edge">
<title>Node8&#45;&gt;Node2</title>
<g id="a_edge11_Node000008_Node000002"><a xlink:title=" ">
<path fill="none" stroke="#63b8ff" d="M385.97,-115.47C403.62,-96.57 446.24,-50.93 469.04,-26.52"/>
<polygon fill="#63b8ff" stroke="#63b8ff" points="471.67,-28.83 475.94,-19.13 466.56,-24.05 471.67,-28.83"/>
</a>
</g>
</g>
<!-- Node9&#45;&gt;Node2 -->
<g id="edge13_Node000009_Node000002" class="edge">
<title>Node9&#45;&gt;Node2</title>
<g id="a_edge13_Node000009_Node000002"><a xlink:title=" ">
<path fill="none" stroke="#63b8ff" d="M556.66,-175.86C538.01,-169.16 515.79,-157.93 503,-140 479.22,-106.65 479.51,-56.06 481.76,-29.05"/>
<polygon fill="#63b8ff" stroke="#63b8ff" points="485.25,-29.33 482.78,-19.03 478.28,-28.62 485.25,-29.33"/>
</a>
</g>
</g>
<!-- Node10 -->
<g id="Node000010" class="node">
<title>Node10</title>
<g id="a_Node000010"><a xlink:href="ProcessorAudioSignalData_8h.html" target="_top" xlink:title=" ">
<polygon fill="white" stroke="#666666" points="666,-134.5 512,-134.5 512,-115.5 666,-115.5 666,-134.5"/>
<text text-anchor="middle" x="589" y="-122.5" font-family="Helvetica,sans-Serif" font-size="10.00">ProcessorAudioSignalData.h</text>
</a>
</g>
</g>
<!-- Node9&#45;&gt;Node10 -->
<g id="edge14_Node000009_Node000010" class="edge">
<title>Node9&#45;&gt;Node10</title>
<g id="a_edge14_Node000009_Node000010"><a xlink:title=" ">
<path fill="none" stroke="#63b8ff" d="M589,-175.87C589,-167.75 589,-155.31 589,-144.89"/>
<polygon fill="#63b8ff" stroke="#63b8ff" points="592.5,-144.67 589,-134.67 585.5,-144.67 592.5,-144.67"/>
</a>
</g>
</g>
<!-- Node12 -->
<g id="Node000012" class="node">
<title>Node12</title>
<g id="a_Node000012"><a xlink:href="ProcessorLevelData_8h.html" target="_top" xlink:title=" ">
<polygon fill="white" stroke="#666666" points="806,-134.5 684,-134.5 684,-115.5 806,-115.5 806,-134.5"/>
<text text-anchor="middle" x="745" y="-122.5" font-family="Helvetica,sans-Serif" font-size="10.00">ProcessorLevelData.h</text>
</a>
</g>
</g>
<!-- Node9&#45;&gt;Node12 -->
<g id="edge18_Node000009_Node000012" class="edge">
<title>Node9&#45;&gt;Node12</title>
<g id="a_edge18_Node000009_Node000012"><a xlink:title=" ">
<path fill="none" stroke="#63b8ff" d="M611.68,-175.99C638.26,-166.03 682.48,-149.45 712.64,-138.13"/>
<polygon fill="#63b8ff" stroke="#63b8ff" points="714.15,-141.31 722.29,-134.52 711.7,-134.75 714.15,-141.31"/>
</a>
</g>
</g>
<!-- Node13 -->
<g id="Node000013" class="node">
<title>Node13</title>
<g id="a_Node000013"><a xlink:href="ProcessorSpectrumData_8h.html" target="_top" xlink:title=" ">
<polygon fill="white" stroke="#666666" points="967.5,-134.5 824.5,-134.5 824.5,-115.5 967.5,-115.5 967.5,-134.5"/>
<text text-anchor="middle" x="896" y="-122.5" font-family="Helvetica,sans-Serif" font-size="10.00">ProcessorSpectrumData.h</text>
</a>
</g>
</g>
<!-- Node9&#45;&gt;Node13 -->
<g id="edge20_Node000009_Node000013" class="edge">
<title>Node9&#45;&gt;Node13</title>
<g id="a_edge20_Node000009_Node000013"><a xlink:title=" ">
<path fill="none" stroke="#63b8ff" d="M633.64,-175.99C688.66,-165.51 782.13,-147.7 841.38,-136.41"/>
<polygon fill="#63b8ff" stroke="#63b8ff" points="842.14,-139.83 851.31,-134.52 840.83,-132.95 842.14,-139.83"/>
</a>
</g>
</g>
<!-- Node10&#45;&gt;Node2 -->
<g id="edge15_Node000010_Node000002" class="edge">
<title>Node10&#45;&gt;Node2</title>
<g id="a_edge15_Node000010_Node000002"><a xlink:title=" ">
<path fill="none" stroke="#63b8ff" d="M581.11,-115.47C563.63,-96.57 521.4,-50.93 498.82,-26.52"/>
<polygon fill="#63b8ff" stroke="#63b8ff" points="501.34,-24.09 491.98,-19.13 496.21,-28.85 501.34,-24.09"/>
</a>
</g>
</g>
<!-- Node11 -->
<g id="Node000011" class="node">
<title>Node11</title>
<g id="a_Node000011"><a xlink:href="AbstractProcessorData_8h.html" target="_top" xlink:title=" ">
<polygon fill="white" stroke="#666666" points="767.5,-74 630.5,-74 630.5,-55 767.5,-55 767.5,-74"/>
<text text-anchor="middle" x="699" y="-62" font-family="Helvetica,sans-Serif" font-size="10.00">AbstractProcessorData.h</text>
</a>
</g>
</g>
<!-- Node10&#45;&gt;Node11 -->
<g id="edge16_Node000010_Node000011" class="edge">
<title>Node10&#45;&gt;Node11</title>
<g id="a_edge16_Node000010_Node000011"><a xlink:title=" ">
<path fill="none" stroke="#63b8ff" d="M605.23,-115.37C623.27,-105.78 652.62,-90.17 673.68,-78.97"/>
<polygon fill="#63b8ff" stroke="#63b8ff" points="675.52,-81.95 682.7,-74.17 672.23,-75.77 675.52,-81.95"/>
</a>
</g>
</g>
<!-- Node11&#45;&gt;Node2 -->
<g id="edge17_Node000011_Node000002" class="edge">
<title>Node11&#45;&gt;Node2</title>
<g id="a_edge17_Node000011_Node000002"><a xlink:title=" ">
<path fill="none" stroke="#63b8ff" d="M664.46,-54.98C627.58,-45.89 569.01,-31.46 528.66,-21.51"/>
<polygon fill="#63b8ff" stroke="#63b8ff" points="529.36,-18.08 518.81,-19.08 527.69,-24.87 529.36,-18.08"/>
</a>
</g>
</g>
<!-- Node12&#45;&gt;Node11 -->
<g id="edge19_Node000012_Node000011" class="edge">
<title>Node12&#45;&gt;Node11</title>
<g id="a_edge19_Node000012_Node000011"><a xlink:title=" ">
<path fill="none" stroke="#63b8ff" d="M738.21,-115.37C731.35,-106.64 720.57,-92.93 712.05,-82.09"/>
<polygon fill="#63b8ff" stroke="#63b8ff" points="714.75,-79.86 705.82,-74.17 709.25,-84.19 714.75,-79.86"/>
</a>
</g>
</g>
<!-- Node13&#45;&gt;Node11 -->
<g id="edge21_Node000013_Node000011" class="edge">
<title>Node13&#45;&gt;Node11</title>
<g id="a_edge21_Node000013_Node000011"><a xlink:title=" ">
<path fill="none" stroke="#63b8ff" d="M867.35,-115.49C833.07,-105.31 775.52,-88.22 737.4,-76.9"/>
<polygon fill="#63b8ff" stroke="#63b8ff" points="738.26,-73.51 727.68,-74.02 736.27,-80.22 738.26,-73.51"/>
</a>
</g>
</g>
<!-- Node14&#45;&gt;Node2 -->
<g id="edge24_Node000014_Node000002" class="edge">
<title>Node14&#45;&gt;Node2</title>
<g id="a_edge24_Node000014_Node000002"><a xlink:title=" ">
<path fill="none" stroke="#63b8ff" d="M1002.77,-109.99C947.52,-94.94 855.94,-71.01 776,-55 691.81,-38.14 592.83,-24.29 534.42,-16.74"/>
<polygon fill="#63b8ff" stroke="#63b8ff" points="534.72,-13.25 524.35,-15.44 533.83,-20.19 534.72,-13.25"/>
</a>
</g>
</g>
<!-- Node15 -->
<g id="Node000015" class="node">
<title>Node15</title>
<g id="a_Node000015"><a xlink:href="AudioSelectComponent_8h.html" target="_top" xlink:title=" ">
<polygon fill="white" stroke="#666666" points="1081,-74 941,-74 941,-55 1081,-55 1081,-74"/>
<text text-anchor="middle" x="1011" y="-62" font-family="Helvetica,sans-Serif" font-size="10.00">AudioSelectComponent.h</text>
</a>
</g>
</g>
<!-- Node14&#45;&gt;Node15 -->
<g id="edge25_Node000014_Node000015" class="edge">
<title>Node14&#45;&gt;Node15</title>
<g id="a_edge25_Node000014_Node000015"><a xlink:title=" ">
<path fill="none" stroke="#63b8ff" d="M1042.83,-109.84C1036.92,-101.61 1029.44,-91.18 1023.21,-82.51"/>
<polygon fill="#63b8ff" stroke="#63b8ff" points="1025.97,-80.35 1017.29,-74.27 1020.28,-84.43 1025.97,-80.35"/>
</a>
</g>
</g>
<!-- Node15&#45;&gt;Node2 -->
<g id="edge26_Node000015_Node000002" class="edge">
<title>Node15&#45;&gt;Node2</title>
<g id="a_edge26_Node000015_Node000002"><a xlink:title=" ">
<path fill="none" stroke="#63b8ff" d="M940.75,-56.43C832.84,-45.58 628.89,-25.07 534.4,-15.57"/>
<polygon fill="#63b8ff" stroke="#63b8ff" points="534.55,-12.07 524.25,-14.55 533.85,-19.03 534.55,-12.07"/>
</a>
</g>
</g>
<!-- Node16&#45;&gt;Node2 -->
<g id="edge28_Node000016_Node000002" class="edge">
<title>Node16&#45;&gt;Node2</title>
<g id="a_edge28_Node000016_Node000002"><a xlink:title=" ">
<path fill="none" stroke="#63b8ff" d="M1083.51,-175.9C1099.69,-168.96 1119.35,-157.44 1129,-140 1149.13,-103.63 1126.2,-75.42 1090,-55 1042.15,-28 670.88,-15.48 534.25,-11.75"/>
<polygon fill="#63b8ff" stroke="#63b8ff" points="534.15,-8.24 524.06,-11.47 533.96,-15.24 534.15,-8.24"/>
</a>
</g>
</g>
<!-- Node17 -->
<g id="Node000017" class="node">
<title>Node17</title>
<g id="a_Node000017"><a xlink:title=" ">
<polygon fill="#e0e0e0" stroke="#999999" points="1310,-134.5 1176,-134.5 1176,-115.5 1310,-115.5 1310,-134.5"/>
<text text-anchor="middle" x="1243" y="-122.5" font-family="Helvetica,sans-Serif" font-size="10.00">AppConfigurationBase.h</text>
</a>
</g>
</g>
<!-- Node16&#45;&gt;Node17 -->
<g id="edge29_Node000016_Node000017" class="edge">
<title>Node16&#45;&gt;Node17</title>
<g id="a_edge29_Node000016_Node000017"><a xlink:title=" ">
<path fill="none" stroke="#63b8ff" d="M1084.9,-175.99C1116.96,-165.86 1170.68,-148.87 1206.48,-137.55"/>
<polygon fill="#63b8ff" stroke="#63b8ff" points="1207.59,-140.87 1216.07,-134.52 1205.48,-134.19 1207.59,-140.87"/>
</a>
</g>
</g>
</g>
</svg>

<g id="navigator" transform="translate(0 0)" fill="#404254">
  <rect fill="#f2f5e9" fill-opacity="0.5" stroke="#606060" stroke-width=".5" x="0" y="0" width="60" height="60"/>
  <use id="zoomplus" xlink:href="#zoomPlus" x="17" y="9" onmousedown="handleZoom(evt,'in')"/>
  <use id="zoomminus" xlink:href="#zoomMin" x="42" y="9" onmousedown="handleZoom(evt,'out')"/>
  <use id="reset" xlink:href="#resetDef" x="30" y="36" onmousedown="handleReset()"/>
   <use id="arrowup" xlink:href="#arrowUp" x="0" y="0" onmousedown="handlePan(0,-1)"/>
  <use id="arrowright" xlink:href="#arrowRight" x="0" y="0" onmousedown="handlePan(1,0)"/>
  <use id="arrowdown" xlink:href="#arrowDown" x="0" y="0" onmousedown="handlePan(0,1)"/>
  <use id="arrowleft" xlink:href="#arrowLeft" x="0" y="0" onmousedown="handlePan(-1,0)"/>
</g>
<svg viewBox="0 0 15 15" width="100%" height="30px" preserveAspectRatio="xMaxYMin meet">
 <g id="arrow_out" transform="scale(0.3 0.3)">
  <a xlink:href="TwoDFieldMultisliderComponent_8h__incl_org.svg" target="_base">
   <rect id="button" ry="5" rx="5" y="6" x="6" height="38" width="38"
        fill="#f2f5e9" fill-opacity="0.5" stroke="#606060" stroke-width="1.0"/>
   <path id="arrow"
     d="M 11.500037,31.436501 C 11.940474,20.09759 22.043105,11.32322 32.158766,21.979434 L 37.068811,17.246167 C 37.068811,17.246167 37.088388,32 37.088388,32 L 22.160133,31.978069 C 22.160133,31.978069 26.997745,27.140456 26.997745,27.140456 C 18.528582,18.264221 13.291696,25.230495 11.500037,31.436501 z"
     style="fill:#404040;"/>
  </a>
 </g>
</svg>

<style type='text/css'>
<![CDATA[
[data-mouse-over-selected='false'] { opacity: 0.7; }
[data-mouse-over-selected='true']  { opacity: 1.0; }
]]>
</style>
<script type="application/ecmascript"><![CDATA[
document.addEventListener('DOMContentLoaded', (event) => {
  highlightEdges();
  highlightAdjacentNodes();
});
]]></script>
</svg>
