<?xml version="1.0" encoding="UTF-8" standalone="no"?>
<!DOCTYPE svg PUBLIC "-//W3C//DTD SVG 1.1//EN"
 "http://www.w3.org/Graphics/SVG/1.1/DTD/svg11.dtd">
<!-- Generated by graphviz version 2.43.0 (0)
 -->
<!-- Title: Source/MemaClientCommon/WaveformAudioComponent.h Pages: 1 -->
<svg width="1335pt" height="390pt"
 viewBox="0.00 0.00 1334.50 390.00" xmlns="http://www.w3.org/2000/svg" xmlns:xlink="http://www.w3.org/1999/xlink">
<g id="graph0" class="graph" transform="scale(1 1) rotate(0) translate(4 386)">
<title>Source/MemaClientCommon/WaveformAudioComponent.h</title>
<!-- Node1 -->
<g id="Node000001" class="node">
<title>Node1</title>
<g id="a_Node000001"><a xlink:title=" ">
<polygon fill="#999999" stroke="#666666" points="163,-382 0,-382 0,-352 163,-352 163,-382"/>
<text text-anchor="start" x="8" y="-370" font-family="Helvetica,sans-Serif" font-size="10.00">Source/MemaClientCommon</text>
<text text-anchor="middle" x="81.5" y="-359" font-family="Helvetica,sans-Serif" font-size="10.00">/WaveformAudioComponent.h</text>
</a>
</g>
</g>
<!-- Node2 -->
<g id="Node000002" class="node">
<title>Node2</title>
<g id="a_Node000002"><a xlink:title=" ">
<polygon fill="#e0e0e0" stroke="#999999" points="540.5,-19 460.5,-19 460.5,0 540.5,0 540.5,-19"/>
<text text-anchor="middle" x="500.5" y="-7" font-family="Helvetica,sans-Serif" font-size="10.00">JuceHeader.h</text>
</a>
</g>
</g>
<!-- Node1&#45;&gt;Node2 -->
<g id="edge1_Node000001_Node000002" class="edge">
<title>Node1&#45;&gt;Node2</title>
<g id="a_edge1_Node000001_Node000002"><a xlink:title=" ">
<path fill="none" stroke="#63b8ff" d="M71.04,-351.77C64.35,-342.09 55.94,-328.78 50.5,-316 37.12,-284.56 31.5,-275.67 31.5,-241.5 31.5,-241.5 31.5,-241.5 31.5,-124 31.5,-80.63 61.41,-73.79 100.5,-55 161.2,-25.82 357.3,-15.35 450.46,-11.96"/>
<polygon fill="#63b8ff" stroke="#63b8ff" points="450.62,-15.46 460.49,-11.61 450.38,-8.46 450.62,-15.46"/>
</a>
</g>
</g>
<!-- Node3 -->
<g id="Node000003" class="node">
<title>Node3</title>
<g id="a_Node000003"><a xlink:href="AbstractAudioVisualizer_8h.html" target="_top" xlink:title=" ">
<polygon fill="white" stroke="#666666" points="203.5,-316 59.5,-316 59.5,-286 203.5,-286 203.5,-316"/>
<text text-anchor="start" x="67.5" y="-304" font-family="Helvetica,sans-Serif" font-size="10.00">../MemaProcessorEditor</text>
<text text-anchor="middle" x="131.5" y="-293" font-family="Helvetica,sans-Serif" font-size="10.00">/AbstractAudioVisualizer.h</text>
</a>
</g>
</g>
<!-- Node1&#45;&gt;Node3 -->
<g id="edge2_Node000001_Node000003" class="edge">
<title>Node1&#45;&gt;Node3</title>
<g id="a_edge2_Node000001_Node000003"><a xlink:title=" ">
<path fill="none" stroke="#63b8ff" d="M92.6,-351.8C98.94,-343.68 107.04,-333.31 114.2,-324.15"/>
<polygon fill="#63b8ff" stroke="#63b8ff" points="117.04,-326.2 120.43,-316.16 111.52,-321.89 117.04,-326.2"/>
</a>
</g>
</g>
<!-- Node3&#45;&gt;Node2 -->
<g id="edge3_Node000003_Node000002" class="edge">
<title>Node3&#45;&gt;Node2</title>
<g id="a_edge3_Node000003_Node000002"><a xlink:title=" ">
<path fill="none" stroke="#63b8ff" d="M117.74,-285.94C99.47,-265.73 69.5,-226.47 69.5,-186.5 69.5,-186.5 69.5,-186.5 69.5,-124 69.5,-76.03 108.51,-74.14 152.5,-55 204.79,-32.25 366.76,-18.97 449.99,-13.48"/>
<polygon fill="#63b8ff" stroke="#63b8ff" points="450.47,-16.96 460.22,-12.82 450.02,-9.97 450.47,-16.96"/>
</a>
</g>
</g>
<!-- Node4 -->
<g id="Node000004" class="node">
<title>Node4</title>
<g id="a_Node000004"><a xlink:href="MemaProcessor_8h.html" target="_top" xlink:title=" ">
<polygon fill="white" stroke="#666666" points="649,-250 456,-250 456,-231 649,-231 649,-250"/>
<text text-anchor="middle" x="552.5" y="-238" font-family="Helvetica,sans-Serif" font-size="10.00">../MemaProcessor/MemaProcessor.h</text>
</a>
</g>
</g>
<!-- Node3&#45;&gt;Node4 -->
<g id="edge4_Node000003_Node000004" class="edge">
<title>Node3&#45;&gt;Node4</title>
<g id="a_edge4_Node000003_Node000004"><a xlink:title=" ">
<path fill="none" stroke="#63b8ff" d="M203.87,-289.94C281.5,-279.16 403.99,-262.14 481.2,-251.41"/>
<polygon fill="#63b8ff" stroke="#63b8ff" points="481.89,-254.85 491.31,-250 480.93,-247.91 481.89,-254.85"/>
</a>
</g>
</g>
<!-- Node4&#45;&gt;Node2 -->
<g id="edge5_Node000004_Node000002" class="edge">
<title>Node4&#45;&gt;Node2</title>
<g id="a_edge5_Node000004_Node000002"><a xlink:title=" ">
<path fill="none" stroke="#63b8ff" d="M460.45,-230.99C353.02,-218.76 185.87,-191.75 153.5,-140 84.89,-30.3 338.52,-13.04 450.21,-10.68"/>
<polygon fill="#63b8ff" stroke="#63b8ff" points="450.3,-14.18 460.24,-10.5 450.18,-7.18 450.3,-14.18"/>
</a>
</g>
</g>
<!-- Node5 -->
<g id="Node000005" class="node">
<title>Node5</title>
<g id="a_Node000005"><a xlink:href="MemaMessages_8h.html" target="_top" xlink:title=" ">
<polygon fill="white" stroke="#666666" points="381,-195 276,-195 276,-176 381,-176 381,-195"/>
<text text-anchor="middle" x="328.5" y="-183" font-family="Helvetica,sans-Serif" font-size="10.00">MemaMessages.h</text>
</a>
</g>
</g>
<!-- Node4&#45;&gt;Node5 -->
<g id="edge6_Node000004_Node000005" class="edge">
<title>Node4&#45;&gt;Node5</title>
<g id="a_edge6_Node000004_Node000005"><a xlink:title=" ">
<path fill="none" stroke="#63b8ff" d="M516.51,-230.98C478.01,-221.87 416.81,-207.4 374.76,-197.45"/>
<polygon fill="#63b8ff" stroke="#63b8ff" points="375.31,-193.98 364.77,-195.08 373.7,-200.79 375.31,-193.98"/>
</a>
</g>
</g>
<!-- Node7 -->
<g id="Node000007" class="node">
<title>Node7</title>
<g id="a_Node000007"><a xlink:href="MemaPluginParameterInfo_8h.html" target="_top" xlink:title=" ">
<polygon fill="white" stroke="#666666" points="472,-134.5 317,-134.5 317,-115.5 472,-115.5 472,-134.5"/>
<text text-anchor="middle" x="394.5" y="-122.5" font-family="Helvetica,sans-Serif" font-size="10.00">MemaPluginParameterInfo.h</text>
</a>
</g>
</g>
<!-- Node4&#45;&gt;Node7 -->
<g id="edge21_Node000004_Node000007" class="edge">
<title>Node4&#45;&gt;Node7</title>
<g id="a_edge21_Node000004_Node000007"><a xlink:title=" ">
<path fill="none" stroke="#63b8ff" d="M540.62,-230.97C513.86,-211.74 448.56,-164.83 415.06,-140.77"/>
<polygon fill="#63b8ff" stroke="#63b8ff" points="416.68,-137.62 406.51,-134.63 412.59,-143.31 416.68,-137.62"/>
</a>
</g>
</g>
<!-- Node8 -->
<g id="Node000008" class="node">
<title>Node8</title>
<g id="a_Node000008"><a xlink:href="ProcessorDataAnalyzer_8h.html" target="_top" xlink:title=" ">
<polygon fill="white" stroke="#666666" points="674.5,-195 536.5,-195 536.5,-176 674.5,-176 674.5,-195"/>
<text text-anchor="middle" x="605.5" y="-183" font-family="Helvetica,sans-Serif" font-size="10.00">ProcessorDataAnalyzer.h</text>
</a>
</g>
</g>
<!-- Node4&#45;&gt;Node8 -->
<g id="edge11_Node000004_Node000008" class="edge">
<title>Node4&#45;&gt;Node8</title>
<g id="a_edge11_Node000004_Node000008"><a xlink:title=" ">
<path fill="none" stroke="#63b8ff" d="M561.25,-230.75C568.97,-223.03 580.4,-211.6 589.72,-202.28"/>
<polygon fill="#63b8ff" stroke="#63b8ff" points="592.31,-204.64 596.91,-195.09 587.36,-199.69 592.31,-204.64"/>
</a>
</g>
</g>
<!-- Node13 -->
<g id="Node000013" class="node">
<title>Node13</title>
<g id="a_Node000013"><a xlink:href="MemaProcessorEditor_8h.html" target="_top" xlink:title=" ">
<polygon fill="white" stroke="#666666" points="1136.5,-140 1002.5,-140 1002.5,-110 1136.5,-110 1136.5,-140"/>
<text text-anchor="start" x="1010.5" y="-128" font-family="Helvetica,sans-Serif" font-size="10.00">../MemaProcessorEditor</text>
<text text-anchor="middle" x="1069.5" y="-117" font-family="Helvetica,sans-Serif" font-size="10.00">/MemaProcessorEditor.h</text>
</a>
</g>
</g>
<!-- Node4&#45;&gt;Node13 -->
<g id="edge22_Node000004_Node000013" class="edge">
<title>Node4&#45;&gt;Node13</title>
<g id="a_edge22_Node000004_Node000013"><a xlink:title=" ">
<path fill="none" stroke="#63b8ff" d="M591.36,-230.97C677.18,-212.13 884.11,-166.7 995.52,-142.24"/>
<polygon fill="#63b8ff" stroke="#63b8ff" points="996.32,-145.65 1005.34,-140.09 994.82,-138.81 996.32,-145.65"/>
</a>
</g>
</g>
<!-- Node15 -->
<g id="Node000015" class="node">
<title>Node15</title>
<g id="a_Node000015"><a xlink:href="MemaAppConfiguration_8h.html" target="_top" xlink:title=" ">
<polygon fill="white" stroke="#666666" points="1149,-195 1000,-195 1000,-176 1149,-176 1149,-195"/>
<text text-anchor="middle" x="1074.5" y="-183" font-family="Helvetica,sans-Serif" font-size="10.00">../MemaAppConfiguration.h</text>
</a>
</g>
</g>
<!-- Node4&#45;&gt;Node15 -->
<g id="edge26_Node000004_Node000015" class="edge">
<title>Node4&#45;&gt;Node15</title>
<g id="a_edge26_Node000004_Node000015"><a xlink:title=" ">
<path fill="none" stroke="#63b8ff" d="M636.37,-230.98C733.37,-221.14 892.18,-205.01 989.62,-195.12"/>
<polygon fill="#63b8ff" stroke="#63b8ff" points="990.13,-198.58 999.73,-194.09 989.42,-191.62 990.13,-198.58"/>
</a>
</g>
</g>
<!-- Node17 -->
<g id="Node000017" class="node">
<title>Node17</title>
<g id="a_Node000017"><a xlink:title=" ">
<polygon fill="#e0e0e0" stroke="#999999" points="1314,-195 1167,-195 1167,-176 1314,-176 1314,-195"/>
<text text-anchor="middle" x="1240.5" y="-183" font-family="Helvetica,sans-Serif" font-size="10.00">ServiceTopologyManager.h</text>
</a>
</g>
</g>
<!-- Node4&#45;&gt;Node17 -->
<g id="edge29_Node000004_Node000017" class="edge">
<title>Node4&#45;&gt;Node17</title>
<g id="a_edge29_Node000004_Node000017"><a xlink:title=" ">
<path fill="none" stroke="#63b8ff" d="M649.23,-233.24C766.57,-225.46 970.69,-211.29 1156.51,-195.06"/>
<polygon fill="#63b8ff" stroke="#63b8ff" points="1157.09,-198.52 1166.74,-194.16 1156.48,-191.55 1157.09,-198.52"/>
</a>
</g>
</g>
<!-- Node5&#45;&gt;Node2 -->
<g id="edge7_Node000005_Node000002" class="edge">
<title>Node5&#45;&gt;Node2</title>
<g id="a_edge7_Node000005_Node000002"><a xlink:title=" ">
<path fill="none" stroke="#63b8ff" d="M275.94,-179.52C216.67,-171.75 132.46,-152.91 164.5,-110 198.87,-63.98 365.34,-31.72 450.33,-17.95"/>
<polygon fill="#63b8ff" stroke="#63b8ff" points="450.96,-21.4 460.28,-16.37 449.85,-14.48 450.96,-21.4"/>
</a>
</g>
</g>
<!-- Node6 -->
<g id="Node000006" class="node">
<title>Node6</title>
<g id="a_Node000006"><a xlink:title=" ">
<polygon fill="#e0e0e0" stroke="#999999" points="299,-134.5 174,-134.5 174,-115.5 299,-115.5 299,-134.5"/>
<text text-anchor="middle" x="236.5" y="-122.5" font-family="Helvetica,sans-Serif" font-size="10.00">CustomLookAndFeel.h</text>
</a>
</g>
</g>
<!-- Node5&#45;&gt;Node6 -->
<g id="edge8_Node000005_Node000006" class="edge">
<title>Node5&#45;&gt;Node6</title>
<g id="a_edge8_Node000005_Node000006"><a xlink:title=" ">
<path fill="none" stroke="#63b8ff" d="M314.93,-175.87C300.11,-166.45 276.17,-151.23 258.64,-140.08"/>
<polygon fill="#63b8ff" stroke="#63b8ff" points="260.45,-137.08 250.13,-134.67 256.69,-142.99 260.45,-137.08"/>
</a>
</g>
</g>
<!-- Node5&#45;&gt;Node7 -->
<g id="edge9_Node000005_Node000007" class="edge">
<title>Node5&#45;&gt;Node7</title>
<g id="a_edge9_Node000005_Node000007"><a xlink:title=" ">
<path fill="none" stroke="#63b8ff" d="M338.24,-175.87C348.47,-166.8 364.79,-152.34 377.22,-141.32"/>
<polygon fill="#63b8ff" stroke="#63b8ff" points="379.56,-143.92 384.72,-134.67 374.92,-138.68 379.56,-143.92"/>
</a>
</g>
</g>
<!-- Node7&#45;&gt;Node2 -->
<g id="edge10_Node000007_Node000002" class="edge">
<title>Node7&#45;&gt;Node2</title>
<g id="a_edge10_Node000007_Node000002"><a xlink:title=" ">
<path fill="none" stroke="#63b8ff" d="M402.47,-115.47C420.12,-96.57 462.74,-50.93 485.54,-26.52"/>
<polygon fill="#63b8ff" stroke="#63b8ff" points="488.17,-28.83 492.44,-19.13 483.06,-24.05 488.17,-28.83"/>
</a>
</g>
</g>
<!-- Node8&#45;&gt;Node2 -->
<g id="edge12_Node000008_Node000002" class="edge">
<title>Node8&#45;&gt;Node2</title>
<g id="a_edge12_Node000008_Node000002"><a xlink:title=" ">
<path fill="none" stroke="#63b8ff" d="M573.16,-175.86C554.51,-169.16 532.29,-157.93 519.5,-140 495.72,-106.65 496.01,-56.06 498.26,-29.05"/>
<polygon fill="#63b8ff" stroke="#63b8ff" points="501.75,-29.33 499.28,-19.03 494.78,-28.62 501.75,-29.33"/>
</a>
</g>
</g>
<!-- Node9 -->
<g id="Node000009" class="node">
<title>Node9</title>
<g id="a_Node000009"><a xlink:href="ProcessorAudioSignalData_8h.html" target="_top" xlink:title=" ">
<polygon fill="white" stroke="#666666" points="682.5,-134.5 528.5,-134.5 528.5,-115.5 682.5,-115.5 682.5,-134.5"/>
<text text-anchor="middle" x="605.5" y="-122.5" font-family="Helvetica,sans-Serif" font-size="10.00">ProcessorAudioSignalData.h</text>
</a>
</g>
</g>
<!-- Node8&#45;&gt;Node9 -->
<g id="edge13_Node000008_Node000009" class="edge">
<title>Node8&#45;&gt;Node9</title>
<g id="a_edge13_Node000008_Node000009"><a xlink:title=" ">
<path fill="none" stroke="#63b8ff" d="M605.5,-175.87C605.5,-167.75 605.5,-155.31 605.5,-144.89"/>
<polygon fill="#63b8ff" stroke="#63b8ff" points="609,-144.67 605.5,-134.67 602,-144.67 609,-144.67"/>
</a>
</g>
</g>
<!-- Node11 -->
<g id="Node000011" class="node">
<title>Node11</title>
<g id="a_Node000011"><a xlink:href="ProcessorLevelData_8h.html" target="_top" xlink:title=" ">
<polygon fill="white" stroke="#666666" points="822.5,-134.5 700.5,-134.5 700.5,-115.5 822.5,-115.5 822.5,-134.5"/>
<text text-anchor="middle" x="761.5" y="-122.5" font-family="Helvetica,sans-Serif" font-size="10.00">ProcessorLevelData.h</text>
</a>
</g>
</g>
<!-- Node8&#45;&gt;Node11 -->
<g id="edge17_Node000008_Node000011" class="edge">
<title>Node8&#45;&gt;Node11</title>
<g id="a_edge17_Node000008_Node000011"><a xlink:title=" ">
<path fill="none" stroke="#63b8ff" d="M628.18,-175.99C654.76,-166.03 698.98,-149.45 729.14,-138.13"/>
<polygon fill="#63b8ff" stroke="#63b8ff" points="730.65,-141.31 738.79,-134.52 728.2,-134.75 730.65,-141.31"/>
</a>
</g>
</g>
<!-- Node12 -->
<g id="Node000012" class="node">
<title>Node12</title>
<g id="a_Node000012"><a xlink:href="ProcessorSpectrumData_8h.html" target="_top" xlink:title=" ">
<polygon fill="white" stroke="#666666" points="984,-134.5 841,-134.5 841,-115.5 984,-115.5 984,-134.5"/>
<text text-anchor="middle" x="912.5" y="-122.5" font-family="Helvetica,sans-Serif" font-size="10.00">ProcessorSpectrumData.h</text>
</a>
</g>
</g>
<!-- Node8&#45;&gt;Node12 -->
<g id="edge19_Node000008_Node000012" class="edge">
<title>Node8&#45;&gt;Node12</title>
<g id="a_edge19_Node000008_Node000012"><a xlink:title=" ">
<path fill="none" stroke="#63b8ff" d="M650.14,-175.99C705.16,-165.51 798.63,-147.7 857.88,-136.41"/>
<polygon fill="#63b8ff" stroke="#63b8ff" points="858.64,-139.83 867.81,-134.52 857.33,-132.95 858.64,-139.83"/>
</a>
</g>
</g>
<!-- Node9&#45;&gt;Node2 -->
<g id="edge14_Node000009_Node000002" class="edge">
<title>Node9&#45;&gt;Node2</title>
<g id="a_edge14_Node000009_Node000002"><a xlink:title=" ">
<path fill="none" stroke="#63b8ff" d="M597.61,-115.47C580.13,-96.57 537.9,-50.93 515.32,-26.52"/>
<polygon fill="#63b8ff" stroke="#63b8ff" points="517.84,-24.09 508.48,-19.13 512.71,-28.85 517.84,-24.09"/>
</a>
</g>
</g>
<!-- Node10 -->
<g id="Node000010" class="node">
<title>Node10</title>
<g id="a_Node000010"><a xlink:href="AbstractProcessorData_8h.html" target="_top" xlink:title=" ">
<polygon fill="white" stroke="#666666" points="784,-74 647,-74 647,-55 784,-55 784,-74"/>
<text text-anchor="middle" x="715.5" y="-62" font-family="Helvetica,sans-Serif" font-size="10.00">AbstractProcessorData.h</text>
</a>
</g>
</g>
<!-- Node9&#45;&gt;Node10 -->
<g id="edge15_Node000009_Node000010" class="edge">
<title>Node9&#45;&gt;Node10</title>
<g id="a_edge15_Node000009_Node000010"><a xlink:title=" ">
<path fill="none" stroke="#63b8ff" d="M621.73,-115.37C639.77,-105.78 669.12,-90.17 690.18,-78.97"/>
<polygon fill="#63b8ff" stroke="#63b8ff" points="692.02,-81.95 699.2,-74.17 688.73,-75.77 692.02,-81.95"/>
</a>
</g>
</g>
<!-- Node10&#45;&gt;Node2 -->
<g id="edge16_Node000010_Node000002" class="edge">
<title>Node10&#45;&gt;Node2</title>
<g id="a_edge16_Node000010_Node000002"><a xlink:title=" ">
<path fill="none" stroke="#63b8ff" d="M680.96,-54.98C644.08,-45.89 585.51,-31.46 545.16,-21.51"/>
<polygon fill="#63b8ff" stroke="#63b8ff" points="545.86,-18.08 535.31,-19.08 544.19,-24.87 545.86,-18.08"/>
</a>
</g>
</g>
<!-- Node11&#45;&gt;Node10 -->
<g id="edge18_Node000011_Node000010" class="edge">
<title>Node11&#45;&gt;Node10</title>
<g id="a_edge18_Node000011_Node000010"><a xlink:title=" ">
<path fill="none" stroke="#63b8ff" d="M754.71,-115.37C747.85,-106.64 737.07,-92.93 728.55,-82.09"/>
<polygon fill="#63b8ff" stroke="#63b8ff" points="731.25,-79.86 722.32,-74.17 725.75,-84.19 731.25,-79.86"/>
</a>
</g>
</g>
<!-- Node12&#45;&gt;Node10 -->
<g id="edge20_Node000012_Node000010" class="edge">
<title>Node12&#45;&gt;Node10</title>
<g id="a_edge20_Node000012_Node000010"><a xlink:title=" ">
<path fill="none" stroke="#63b8ff" d="M883.85,-115.49C849.57,-105.31 792.02,-88.22 753.9,-76.9"/>
<polygon fill="#63b8ff" stroke="#63b8ff" points="754.76,-73.51 744.18,-74.02 752.77,-80.22 754.76,-73.51"/>
</a>
</g>
</g>
<!-- Node13&#45;&gt;Node2 -->
<g id="edge23_Node000013_Node000002" class="edge">
<title>Node13&#45;&gt;Node2</title>
<g id="a_edge23_Node000013_Node000002"><a xlink:title=" ">
<path fill="none" stroke="#63b8ff" d="M1019.27,-109.99C964.02,-94.94 872.44,-71.01 792.5,-55 708.31,-38.14 609.33,-24.29 550.92,-16.74"/>
<polygon fill="#63b8ff" stroke="#63b8ff" points="551.22,-13.25 540.85,-15.44 550.33,-20.19 551.22,-13.25"/>
</a>
</g>
</g>
<!-- Node14 -->
<g id="Node000014" class="node">
<title>Node14</title>
<g id="a_Node000014"><a xlink:href="AudioSelectComponent_8h.html" target="_top" xlink:title=" ">
<polygon fill="white" stroke="#666666" points="1097.5,-74 957.5,-74 957.5,-55 1097.5,-55 1097.5,-74"/>
<text text-anchor="middle" x="1027.5" y="-62" font-family="Helvetica,sans-Serif" font-size="10.00">AudioSelectComponent.h</text>
</a>
</g>
</g>
<!-- Node13&#45;&gt;Node14 -->
<g id="edge24_Node000013_Node000014" class="edge">
<title>Node13&#45;&gt;Node14</title>
<g id="a_edge24_Node000013_Node000014"><a xlink:title=" ">
<path fill="none" stroke="#63b8ff" d="M1059.33,-109.84C1053.42,-101.61 1045.94,-91.18 1039.71,-82.51"/>
<polygon fill="#63b8ff" stroke="#63b8ff" points="1042.47,-80.35 1033.79,-74.27 1036.78,-84.43 1042.47,-80.35"/>
</a>
</g>
</g>
<!-- Node14&#45;&gt;Node2 -->
<g id="edge25_Node000014_Node000002" class="edge">
<title>Node14&#45;&gt;Node2</title>
<g id="a_edge25_Node000014_Node000002"><a xlink:title=" ">
<path fill="none" stroke="#63b8ff" d="M957.25,-56.43C849.34,-45.58 645.39,-25.07 550.9,-15.57"/>
<polygon fill="#63b8ff" stroke="#63b8ff" points="551.05,-12.07 540.75,-14.55 550.35,-19.03 551.05,-12.07"/>
</a>
</g>
</g>
<!-- Node15&#45;&gt;Node2 -->
<g id="edge27_Node000015_Node000002" class="edge">
<title>Node15&#45;&gt;Node2</title>
<g id="a_edge27_Node000015_Node000002"><a xlink:title=" ">
<path fill="none" stroke="#63b8ff" d="M1100.01,-175.9C1116.19,-168.96 1135.85,-157.44 1145.5,-140 1165.63,-103.63 1142.7,-75.42 1106.5,-55 1058.65,-28 687.38,-15.48 550.75,-11.75"/>
<polygon fill="#63b8ff" stroke="#63b8ff" points="550.65,-8.24 540.56,-11.47 550.46,-15.24 550.65,-8.24"/>
</a>
</g>
</g>
<!-- Node16 -->
<g id="Node000016" class="node">
<title>Node16</title>
<g id="a_Node000016"><a xlink:title=" ">
<polygon fill="#e0e0e0" stroke="#999999" points="1326.5,-134.5 1192.5,-134.5 1192.5,-115.5 1326.5,-115.5 1326.5,-134.5"/>
<text text-anchor="middle" x="1259.5" y="-122.5" font-family="Helvetica,sans-Serif" font-size="10.00">AppConfigurationBase.h</text>
</a>
</g>
</g>
<!-- Node15&#45;&gt;Node16 -->
<g id="edge28_Node000015_Node000016" class="edge">
<title>Node15&#45;&gt;Node16</title>
<g id="a_edge28_Node000015_Node000016"><a xlink:title=" ">
<path fill="none" stroke="#63b8ff" d="M1101.4,-175.99C1133.46,-165.86 1187.18,-148.87 1222.98,-137.55"/>
<polygon fill="#63b8ff" stroke="#63b8ff" points="1224.09,-140.87 1232.57,-134.52 1221.98,-134.19 1224.09,-140.87"/>
</a>
</g>
</g>
</g>
</svg>
