<?xml version="1.0" encoding="UTF-8" standalone="no"?>
<!DOCTYPE svg PUBLIC "-//W3C//DTD SVG 1.1//EN"
 "http://www.w3.org/Graphics/SVG/1.1/DTD/svg11.dtd">
<!-- Generated by graphviz version 2.43.0 (0)
 -->
<!-- Title: Source/MemaClientCommon/PluginControlComponent.cpp Pages: 1 -->
<svg width="1062pt" height="280pt"
 viewBox="0.00 0.00 1062.10 280.00" xmlns="http://www.w3.org/2000/svg" xmlns:xlink="http://www.w3.org/1999/xlink">
<g id="graph0" class="graph" transform="scale(1 1) rotate(0) translate(4 276)">
<title>Source/MemaClientCommon/PluginControlComponent.cpp</title>
<!-- Node1 -->
<g id="Node000001" class="node">
<title>Node1</title>
<g id="a_Node000001"><a xlink:title=" ">
<polygon fill="#999999" stroke="#666666" points="556.1,-272 395.1,-272 395.1,-242 556.1,-242 556.1,-272"/>
<text text-anchor="start" x="403.1" y="-260" font-family="Helvetica,sans-Serif" font-size="10.00">Source/MemaClientCommon</text>
<text text-anchor="middle" x="475.6" y="-249" font-family="Helvetica,sans-Serif" font-size="10.00">/PluginControlComponent.cpp</text>
</a>
</g>
</g>
<!-- Node2 -->
<g id="Node000002" class="node">
<title>Node2</title>
<g id="a_Node000002"><a xlink:href="MemaClientCommon_2PluginControlComponent_8h.html" target="_top" xlink:title=" ">
<polygon fill="white" stroke="#666666" points="353.1,-140 206.1,-140 206.1,-121 353.1,-121 353.1,-140"/>
<text text-anchor="middle" x="279.6" y="-128" font-family="Helvetica,sans-Serif" font-size="10.00">PluginControlComponent.h</text>
</a>
</g>
</g>
<!-- Node1&#45;&gt;Node2 -->
<g id="edge1_Node000001_Node000002" class="edge">
<title>Node1&#45;&gt;Node2</title>
<g id="a_edge1_Node000001_Node000002"><a xlink:title=" ">
<path fill="none" stroke="#63b8ff" d="M453.5,-241.96C415.84,-218.04 339.66,-169.65 301.88,-145.66"/>
<polygon fill="#63b8ff" stroke="#63b8ff" points="303.47,-142.52 293.15,-140.11 299.72,-148.43 303.47,-142.52"/>
</a>
</g>
</g>
<!-- Node7 -->
<g id="Node000007" class="node">
<title>Node7</title>
<g id="a_Node000007"><a xlink:title=" ">
<polygon fill="#e0e0e0" stroke="#999999" points="538.1,-200.5 413.1,-200.5 413.1,-181.5 538.1,-181.5 538.1,-200.5"/>
<text text-anchor="middle" x="475.6" y="-188.5" font-family="Helvetica,sans-Serif" font-size="10.00">CustomLookAndFeel.h</text>
</a>
</g>
</g>
<!-- Node1&#45;&gt;Node7 -->
<g id="edge8_Node000001_Node000007" class="edge">
<title>Node1&#45;&gt;Node7</title>
<g id="a_edge8_Node000001_Node000007"><a xlink:title=" ">
<path fill="none" stroke="#63b8ff" d="M475.6,-241.8C475.6,-232.7 475.6,-220.79 475.6,-210.9"/>
<polygon fill="#63b8ff" stroke="#63b8ff" points="479.1,-210.84 475.6,-200.84 472.1,-210.84 479.1,-210.84"/>
</a>
</g>
</g>
<!-- Node8 -->
<g id="Node000008" class="node">
<title>Node8</title>
<g id="a_Node000008"><a xlink:href="ProcessorDataAnalyzer_8h.html" target="_top" xlink:title=" ">
<polygon fill="white" stroke="#666666" points="759.6,-206 591.6,-206 591.6,-176 759.6,-176 759.6,-206"/>
<text text-anchor="start" x="599.6" y="-194" font-family="Helvetica,sans-Serif" font-size="10.00">MemaProcessor/ProcessorData</text>
<text text-anchor="middle" x="675.6" y="-183" font-family="Helvetica,sans-Serif" font-size="10.00">Analyzer.h</text>
</a>
</g>
</g>
<!-- Node1&#45;&gt;Node8 -->
<g id="edge9_Node000001_Node000008" class="edge">
<title>Node1&#45;&gt;Node8</title>
<g id="a_edge9_Node000001_Node000008"><a xlink:title=" ">
<path fill="none" stroke="#63b8ff" d="M519.49,-241.95C549.71,-232.28 590.04,-219.38 622.13,-209.11"/>
<polygon fill="#63b8ff" stroke="#63b8ff" points="623.35,-212.39 631.81,-206.01 621.22,-205.73 623.35,-212.39"/>
</a>
</g>
</g>
<!-- Node3 -->
<g id="Node000003" class="node">
<title>Node3</title>
<g id="a_Node000003"><a xlink:title=" ">
<polygon fill="#e0e0e0" stroke="#999999" points="464.6,-19 384.6,-19 384.6,0 464.6,0 464.6,-19"/>
<text text-anchor="middle" x="424.6" y="-7" font-family="Helvetica,sans-Serif" font-size="10.00">JuceHeader.h</text>
</a>
</g>
</g>
<!-- Node2&#45;&gt;Node3 -->
<g id="edge2_Node000002_Node000003" class="edge">
<title>Node2&#45;&gt;Node3</title>
<g id="a_edge2_Node000002_Node000003"><a xlink:title=" ">
<path fill="none" stroke="#63b8ff" d="M206.06,-127.88C134.11,-124.55 31.76,-114.59 6.6,-85 -2.04,-74.84 -2.32,-64.91 6.6,-55 30.8,-28.08 268.54,-16.16 374.3,-12.16"/>
<polygon fill="#63b8ff" stroke="#63b8ff" points="374.55,-15.65 384.42,-11.78 374.3,-8.66 374.55,-15.65"/>
</a>
</g>
</g>
<!-- Node4 -->
<g id="Node000004" class="node">
<title>Node4</title>
<g id="a_Node000004"><a xlink:href="MemaClientControlComponentBase_8h.html" target="_top" xlink:title=" ">
<polygon fill="white" stroke="#666666" points="183.1,-85 16.1,-85 16.1,-55 183.1,-55 183.1,-85"/>
<text text-anchor="start" x="24.1" y="-73" font-family="Helvetica,sans-Serif" font-size="10.00">MemaClientControlComponent</text>
<text text-anchor="middle" x="99.6" y="-62" font-family="Helvetica,sans-Serif" font-size="10.00">Base.h</text>
</a>
</g>
</g>
<!-- Node2&#45;&gt;Node4 -->
<g id="edge3_Node000002_Node000004" class="edge">
<title>Node2&#45;&gt;Node4</title>
<g id="a_edge3_Node000002_Node000004"><a xlink:title=" ">
<path fill="none" stroke="#63b8ff" d="M253.43,-120.99C227.07,-112.43 185.66,-98.97 152.45,-88.18"/>
<polygon fill="#63b8ff" stroke="#63b8ff" points="153.47,-84.83 142.87,-85.06 151.3,-91.48 153.47,-84.83"/>
</a>
</g>
</g>
<!-- Node5 -->
<g id="Node000005" class="node">
<title>Node5</title>
<g id="a_Node000005"><a xlink:href="MemaPluginParameterInfo_8h.html" target="_top" xlink:title=" ">
<polygon fill="white" stroke="#666666" points="358.6,-85 200.6,-85 200.6,-55 358.6,-55 358.6,-85"/>
<text text-anchor="start" x="208.6" y="-73" font-family="Helvetica,sans-Serif" font-size="10.00">MemaProcessor/MemaPlugin</text>
<text text-anchor="middle" x="279.6" y="-62" font-family="Helvetica,sans-Serif" font-size="10.00">ParameterInfo.h</text>
</a>
</g>
</g>
<!-- Node2&#45;&gt;Node5 -->
<g id="edge5_Node000002_Node000005" class="edge">
<title>Node2&#45;&gt;Node5</title>
<g id="a_edge5_Node000002_Node000005"><a xlink:title=" ">
<path fill="none" stroke="#63b8ff" d="M279.6,-120.87C279.6,-114.11 279.6,-104.35 279.6,-95.26"/>
<polygon fill="#63b8ff" stroke="#63b8ff" points="283.1,-95.11 279.6,-85.11 276.1,-95.11 283.1,-95.11"/>
</a>
</g>
</g>
<!-- Node6 -->
<g id="Node000006" class="node">
<title>Node6</title>
<g id="a_Node000006"><a xlink:title=" ">
<polygon fill="#e0e0e0" stroke="#999999" points="543.1,-79.5 376.1,-79.5 376.1,-60.5 543.1,-60.5 543.1,-79.5"/>
<text text-anchor="middle" x="459.6" y="-67.5" font-family="Helvetica,sans-Serif" font-size="10.00">ParameterControlComponent.h</text>
</a>
</g>
</g>
<!-- Node2&#45;&gt;Node6 -->
<g id="edge7_Node000002_Node000006" class="edge">
<title>Node2&#45;&gt;Node6</title>
<g id="a_edge7_Node000002_Node000006"><a xlink:title=" ">
<path fill="none" stroke="#63b8ff" d="M305.77,-120.99C336.83,-110.9 388.79,-94.01 423.62,-82.69"/>
<polygon fill="#63b8ff" stroke="#63b8ff" points="424.97,-85.94 433.39,-79.52 422.8,-79.28 424.97,-85.94"/>
</a>
</g>
</g>
<!-- Node4&#45;&gt;Node3 -->
<g id="edge4_Node000004_Node000003" class="edge">
<title>Node4&#45;&gt;Node3</title>
<g id="a_edge4_Node000004_Node000003"><a xlink:title=" ">
<path fill="none" stroke="#63b8ff" d="M177.44,-54.99C238.54,-43.99 321.77,-29.01 374.35,-19.54"/>
<polygon fill="#63b8ff" stroke="#63b8ff" points="375.22,-22.94 384.44,-17.73 373.98,-16.06 375.22,-22.94"/>
</a>
</g>
</g>
<!-- Node5&#45;&gt;Node3 -->
<g id="edge6_Node000005_Node000003" class="edge">
<title>Node5&#45;&gt;Node3</title>
<g id="a_edge6_Node000005_Node000003"><a xlink:title=" ">
<path fill="none" stroke="#63b8ff" d="M314.33,-54.99C338.52,-45.23 370.5,-32.33 393.79,-22.93"/>
<polygon fill="#63b8ff" stroke="#63b8ff" points="395.22,-26.13 403.19,-19.14 392.6,-19.63 395.22,-26.13"/>
</a>
</g>
</g>
<!-- Node8&#45;&gt;Node3 -->
<g id="edge10_Node000008_Node000003" class="edge">
<title>Node8&#45;&gt;Node3</title>
<g id="a_edge10_Node000008_Node000003"><a xlink:title=" ">
<path fill="none" stroke="#63b8ff" d="M640.73,-175.92C623.55,-167.56 603.57,-155.54 589.6,-140 561.93,-109.23 582.05,-83.02 551.6,-55 530.42,-35.52 500.23,-24.48 474.6,-18.28"/>
<polygon fill="#63b8ff" stroke="#63b8ff" points="475.19,-14.82 464.66,-16.05 473.66,-21.65 475.19,-14.82"/>
</a>
</g>
</g>
<!-- Node9 -->
<g id="Node000009" class="node">
<title>Node9</title>
<g id="a_Node000009"><a xlink:href="ProcessorAudioSignalData_8h.html" target="_top" xlink:title=" ">
<polygon fill="white" stroke="#666666" points="752.6,-140 598.6,-140 598.6,-121 752.6,-121 752.6,-140"/>
<text text-anchor="middle" x="675.6" y="-128" font-family="Helvetica,sans-Serif" font-size="10.00">ProcessorAudioSignalData.h</text>
</a>
</g>
</g>
<!-- Node8&#45;&gt;Node9 -->
<g id="edge11_Node000008_Node000009" class="edge">
<title>Node8&#45;&gt;Node9</title>
<g id="a_edge11_Node000008_Node000009"><a xlink:title=" ">
<path fill="none" stroke="#63b8ff" d="M675.6,-175.84C675.6,-168.21 675.6,-158.7 675.6,-150.45"/>
<polygon fill="#63b8ff" stroke="#63b8ff" points="679.1,-150.27 675.6,-140.27 672.1,-150.27 679.1,-150.27"/>
</a>
</g>
</g>
<!-- Node11 -->
<g id="Node000011" class="node">
<title>Node11</title>
<g id="a_Node000011"><a xlink:href="ProcessorLevelData_8h.html" target="_top" xlink:title=" ">
<polygon fill="white" stroke="#666666" points="892.6,-140 770.6,-140 770.6,-121 892.6,-121 892.6,-140"/>
<text text-anchor="middle" x="831.6" y="-128" font-family="Helvetica,sans-Serif" font-size="10.00">ProcessorLevelData.h</text>
</a>
</g>
</g>
<!-- Node8&#45;&gt;Node11 -->
<g id="edge15_Node000008_Node000011" class="edge">
<title>Node8&#45;&gt;Node11</title>
<g id="a_edge15_Node000008_Node000011"><a xlink:title=" ">
<path fill="none" stroke="#63b8ff" d="M712.97,-175.99C739.23,-166.14 774.01,-153.1 799.12,-143.68"/>
<polygon fill="#63b8ff" stroke="#63b8ff" points="800.43,-146.93 808.56,-140.14 797.97,-140.37 800.43,-146.93"/>
</a>
</g>
</g>
<!-- Node12 -->
<g id="Node000012" class="node">
<title>Node12</title>
<g id="a_Node000012"><a xlink:href="ProcessorSpectrumData_8h.html" target="_top" xlink:title=" ">
<polygon fill="white" stroke="#666666" points="1054.1,-140 911.1,-140 911.1,-121 1054.1,-121 1054.1,-140"/>
<text text-anchor="middle" x="982.6" y="-128" font-family="Helvetica,sans-Serif" font-size="10.00">ProcessorSpectrumData.h</text>
</a>
</g>
</g>
<!-- Node8&#45;&gt;Node12 -->
<g id="edge17_Node000008_Node000012" class="edge">
<title>Node8&#45;&gt;Node12</title>
<g id="a_edge17_Node000008_Node000012"><a xlink:title=" ">
<path fill="none" stroke="#63b8ff" d="M749.13,-175.99C804.06,-165.52 877.95,-151.44 927.77,-141.95"/>
<polygon fill="#63b8ff" stroke="#63b8ff" points="928.54,-145.36 937.71,-140.05 927.23,-138.49 928.54,-145.36"/>
</a>
</g>
</g>
<!-- Node9&#45;&gt;Node3 -->
<g id="edge12_Node000009_Node000003" class="edge">
<title>Node9&#45;&gt;Node3</title>
<g id="a_edge12_Node000009_Node000003"><a xlink:title=" ">
<path fill="none" stroke="#63b8ff" d="M667.44,-120.76C652.48,-105.25 619.03,-72.87 584.6,-55 550.08,-37.09 507.51,-25.69 474.96,-18.93"/>
<polygon fill="#63b8ff" stroke="#63b8ff" points="475.26,-15.42 464.77,-16.89 473.89,-22.28 475.26,-15.42"/>
</a>
</g>
</g>
<!-- Node10 -->
<g id="Node000010" class="node">
<title>Node10</title>
<g id="a_Node000010"><a xlink:href="AbstractProcessorData_8h.html" target="_top" xlink:title=" ">
<polygon fill="white" stroke="#666666" points="854.1,-79.5 717.1,-79.5 717.1,-60.5 854.1,-60.5 854.1,-79.5"/>
<text text-anchor="middle" x="785.6" y="-67.5" font-family="Helvetica,sans-Serif" font-size="10.00">AbstractProcessorData.h</text>
</a>
</g>
</g>
<!-- Node9&#45;&gt;Node10 -->
<g id="edge13_Node000009_Node000010" class="edge">
<title>Node9&#45;&gt;Node10</title>
<g id="a_edge13_Node000009_Node000010"><a xlink:title=" ">
<path fill="none" stroke="#63b8ff" d="M691.83,-120.87C709.87,-111.28 739.22,-95.67 760.28,-84.47"/>
<polygon fill="#63b8ff" stroke="#63b8ff" points="762.12,-87.45 769.3,-79.67 758.83,-81.27 762.12,-87.45"/>
</a>
</g>
</g>
<!-- Node10&#45;&gt;Node3 -->
<g id="edge14_Node000010_Node000003" class="edge">
<title>Node10&#45;&gt;Node3</title>
<g id="a_edge14_Node000010_Node000003"><a xlink:title=" ">
<path fill="none" stroke="#63b8ff" d="M733.11,-60.49C663.82,-49.27 542.69,-29.64 474.65,-18.61"/>
<polygon fill="#63b8ff" stroke="#63b8ff" points="475.03,-15.13 464.6,-16.98 473.91,-22.04 475.03,-15.13"/>
</a>
</g>
</g>
<!-- Node11&#45;&gt;Node10 -->
<g id="edge16_Node000011_Node000010" class="edge">
<title>Node11&#45;&gt;Node10</title>
<g id="a_edge16_Node000011_Node000010"><a xlink:title=" ">
<path fill="none" stroke="#63b8ff" d="M824.81,-120.87C817.95,-112.14 807.17,-98.43 798.65,-87.59"/>
<polygon fill="#63b8ff" stroke="#63b8ff" points="801.35,-85.36 792.41,-79.67 795.84,-89.69 801.35,-85.36"/>
</a>
</g>
</g>
<!-- Node12&#45;&gt;Node10 -->
<g id="edge18_Node000012_Node000010" class="edge">
<title>Node12&#45;&gt;Node10</title>
<g id="a_edge18_Node000012_Node000010"><a xlink:title=" ">
<path fill="none" stroke="#63b8ff" d="M953.95,-120.99C919.67,-110.81 862.12,-93.72 824,-82.4"/>
<polygon fill="#63b8ff" stroke="#63b8ff" points="824.86,-79.01 814.28,-79.52 822.87,-85.72 824.86,-79.01"/>
</a>
</g>
</g>
</g>
</svg>
