<?xml version="1.0" encoding="UTF-8" standalone="no"?>
<!-- Created with Inkscape (http://www.inkscape.org/) -->

<svg
   width="410"
   height="410"
   viewBox="0 0 108.47917 108.47917"
   version="1.1"
   id="svg1"
   inkscape:export-filename="IconBase.svg"
   inkscape:export-xdpi="96"
   inkscape:export-ydpi="96"
   xml:space="preserve"
   inkscape:version="1.3.2 (091e20e, 2023-11-25)"
   sodipodi:docname="IconBase.svg"
   xmlns:inkscape="http://www.inkscape.org/namespaces/inkscape"
   xmlns:sodipodi="http://sodipodi.sourceforge.net/DTD/sodipodi-0.dtd"
   xmlns="http://www.w3.org/2000/svg"
   xmlns:svg="http://www.w3.org/2000/svg"><sodipodi:namedview
     id="namedview1"
     pagecolor="#ffffff"
     bordercolor="#000000"
     borderopacity="0.25"
     inkscape:showpageshadow="2"
     inkscape:pageopacity="0.0"
     inkscape:pagecheckerboard="0"
     inkscape:deskcolor="#d1d1d1"
     inkscape:document-units="mm"
     inkscape:zoom="1.0476137"
     inkscape:cx="427.16127"
     inkscape:cy="503.04802"
     inkscape:window-width="2240"
     inkscape:window-height="1473"
     inkscape:window-x="127"
     inkscape:window-y="25"
     inkscape:window-maximized="0"
     inkscape:current-layer="layer1" /><defs
     id="defs1" /><g
     style="display:none;fill:#ffffff"
     id="g3"
     transform="matrix(0.13559896,0,0,0.13559896,-10.847917,119.32708)"
     inkscape:label="Grid"><path
       d="M 200,-80 V -200 H 80 v -80 H 200 V -440 H 80 v -80 H 200 V -680 H 80 v -80 h 120 v -120 h 80 v 120 h 160 v -120 h 80 v 120 h 160 v -120 h 80 v 120 h 120 v 80 H 760 v 160 h 120 v 80 H 760 v 160 h 120 v 80 H 760 V -80 H 680 V -200 H 520 V -80 H 440 V -200 H 280 v 120 z m 80,-200 H 440 V -440 H 280 Z m 240,0 H 680 V -440 H 520 Z M 280,-520 H 440 V -680 H 280 Z m 240,0 H 680 V -680 H 520 Z"
       id="path1-2"
       inkscape:label="grid path" /></g></svg>
